<?xml version="1.0" standalone="no"?>
<!DOCTYPE svg PUBLIC "-//W3C//DTD SVG 1.1//EN" "http://www.w3.org/Graphics/SVG/1.1/DTD/svg11.dtd" >
<svg xmlns="http://www.w3.org/2000/svg" xmlns:xlink="http://www.w3.org/1999/xlink" version="1.1">
<metadata></metadata>
<defs>
<font id="madaregular" horiz-adv-x="1088" >
<font-face units-per-em="2048" ascent="1638" descent="-410" />
<missing-glyph horiz-adv-x="437" />
<glyph horiz-adv-x="0" />
<glyph horiz-adv-x="682" />
<glyph unicode=" "  horiz-adv-x="437" />
<glyph unicode="&#x09;" horiz-adv-x="437" />
<glyph unicode="&#xa0;" horiz-adv-x="437" />
<glyph unicode="!" horiz-adv-x="632" d="M255 434l-25 829l-4 205h182l-5 -205l-24 -829h-124zM318 -27q-55 0 -93.5 38.5t-38.5 97.5q0 61 38.5 100.5t93.5 39.5q52 0 90.5 -39t38.5 -101q0 -59 -38.5 -97.5t-90.5 -38.5z" />
<glyph unicode="&#x22;" horiz-adv-x="933" d="M217 945l-35 366l-7 201h193l-6 -201l-36 -366h-109zM604 945l-35 366l-7 201h193l-6 -201l-36 -366h-109z" />
<glyph unicode="#" d="M385 572h290l40 325h-290zM197 0l56 447h-176v125h191l39 325h-186v126h201l50 401h117l-50 -401h291l52 401h117l-53 -401h177v-126h-191l-39 -325h186v-125h-201l-55 -447h-116l52 447h-289l-54 -447h-119z" />
<glyph unicode="$" d="M618 -241h-131v216q-105 11 -204 58.5t-170 110.5l84 126q71 -61 155.5 -104t184.5 -43q121 0 182 61t61 165q0 107 -61.5 170.5t-153.5 108.5t-183 95.5t-152 125.5t-61 205q0 147 88 245.5t230 118.5v221h131v-217q105 -11 178.5 -57t132.5 -109l-97 -108 q-61 59 -120 92t-147 33q-101 0 -159.5 -58t-58.5 -152q0 -95 61 -150.5t153 -98.5t183 -93t152.5 -133.5t61.5 -225.5q0 -155 -92 -257.5t-248 -123.5v-222z" />
<glyph unicode="%" horiz-adv-x="1805" d="M403 556q-148 0 -237 119t-89 337q0 215 89 333.5t237 118.5q147 0 237 -118.5t90 -333.5q0 -219 -90 -337.5t-237 -118.5zM403 669q84 0 136.5 86.5t52.5 256.5q0 171 -52.5 255.5t-136.5 84.5q-85 0 -137.5 -84.5t-52.5 -255.5t52.5 -257t137.5 -86zM445 -27l793 1491 h123l-793 -1491h-123zM1405 -27q-148 0 -237 119t-89 337q0 215 89 333.5t237 118.5q147 0 237 -118.5t90 -333.5q0 -219 -90 -337.5t-237 -118.5zM1405 86q84 0 136.5 86.5t52.5 256.5q0 171 -52.5 255.5t-136.5 84.5q-85 0 -137.5 -84.5t-52.5 -255.5t52.5 -257t137.5 -86 z" />
<glyph unicode="&#x26;" horiz-adv-x="1334" d="M1251 -27q-75 22 -159 63t-172 102q-81 -75 -184 -120t-230 -45q-195 0 -317 112t-122 287q0 145 87 241.5t197 172.5q-44 88 -69 173.5t-25 165.5q0 142 92 240.5t241 98.5q133 0 207.5 -79t74.5 -206q0 -140 -101.5 -239t-222.5 -186q70 -109 165.5 -213t198.5 -190 q136 180 201 425h169q-42 -143 -104.5 -273.5t-147.5 -241.5q149 -103 269 -138zM412 1127q0 -114 68 -253q99 65 172 136t73 167q0 63 -32 110t-103 47q-82 0 -130 -60t-48 -147zM526 119q73 0 142.5 31.5t131.5 83.5q-104 92 -202 202t-175 225q-75 -59 -127.5 -126.5 t-52.5 -151.5q0 -121 82.5 -192.5t200.5 -71.5z" />
<glyph unicode="'" horiz-adv-x="544" d="M217 945l-35 366l-7 201h193l-6 -201l-36 -366h-109z" />
<glyph unicode="(" horiz-adv-x="663" d="M469 -385q-136 219 -212.5 462t-76.5 532t76.5 532.5t212.5 462.5l112 -52q-127 -209 -190 -451t-63 -492q0 -249 63 -491.5t190 -450.5z" />
<glyph unicode=")" horiz-adv-x="663" d="M195 -385l-112 52q128 209 190 451t62 491t-62 491.5t-190 451.5l112 52q136 -219 213 -462t77 -533q0 -289 -77 -532t-213 -462z" />
<glyph unicode="*" horiz-adv-x="915" d="M303 920l-88 64l124 206l-212 88l33 100l223 -54l20 236h107l21 -234l225 52l33 -100l-212 -88l122 -206l-86 -64l-155 189z" />
<glyph unicode="+" d="M473 228v427h-398v136h398v428h142v-428h399v-136h-399v-427h-142z" />
<glyph unicode="," horiz-adv-x="544" d="M147 -372l-44 104q201 88 198 268q-11 -2 -23 -2q-52 0 -90.5 31.5t-38.5 93.5q0 59 39.5 92.5t93.5 33.5q71 0 111.5 -56.5t40.5 -155.5q0 -142 -77 -247.5t-210 -161.5z" />
<glyph unicode="-" horiz-adv-x="680" d="M90 480v138h504v-138h-504z" />
<glyph unicode="." horiz-adv-x="544" d="M274 -27q-55 0 -93.5 38.5t-38.5 97.5q0 61 38.5 100.5t93.5 39.5q52 0 90.5 -39t38.5 -101q0 -59 -38.5 -97.5t-90.5 -38.5z" />
<glyph unicode="/" horiz-adv-x="766" d="M21 -351l586 1907h131l-585 -1907h-132z" />
<glyph unicode="0" d="M546 -27q-211 0 -330.5 189t-119.5 541q0 353 119.5 537t330.5 184q208 0 327.5 -184t119.5 -537t-119.5 -541.5t-327.5 -188.5zM546 119q121 0 196 139t75 445q0 307 -75 442t-196 135q-123 0 -198.5 -135t-75.5 -442t75.5 -445.5t198.5 -138.5z" />
<glyph unicode="1" d="M173 0v149h320v1030h-254v116q94 15 166 41.5t130 61.5h138v-1249h289v-149h-789z" />
<glyph unicode="2" d="M88 0v107q315 314 486 521t171 376q0 121 -66 197.5t-199 76.5q-87 0 -162 -49.5t-136 -119.5l-103 103q88 94 187.5 153t235.5 59q195 0 306.5 -113t111.5 -299q0 -197 -161 -403t-408 -467q57 5 118.5 9t115.5 4h406v-155h-903z" />
<glyph unicode="3" d="M517 -27q-167 0 -278.5 60.5t-181.5 137.5l92 118q61 -65 147.5 -115.5t209.5 -50.5q127 0 208 70t81 186q0 125 -98.5 201.5t-347.5 76.5v138q223 0 309.5 76t86.5 185q0 101 -65 161.5t-176 60.5q-88 0 -162 -41t-135 -102l-98 114q81 75 179.5 125t221.5 50 q182 0 300.5 -93t118.5 -262q0 -127 -70 -208t-184 -125v-8q127 -31 214.5 -121t87.5 -235q0 -186 -134 -292.5t-326 -106.5z" />
<glyph unicode="4" d="M228 531h439v404q0 55 4 134t6 136h-8q-27 -50 -56.5 -98.5t-58.5 -98.5zM1028 385h-191v-385h-170v385h-630v119l599 894h201v-867h191v-146z" />
<glyph unicode="5" d="M513 -27q-167 0 -276.5 59.5t-181.5 132.5l87 117q63 -63 146.5 -111t206.5 -48q128 0 217.5 86t89.5 234q0 144 -81 225t-217 81q-73 0 -124.5 -22t-114.5 -63l-96 61l46 673h699v-156h-542l-37 -414q50 27 101 42t114 15q180 0 307 -105t127 -333t-145 -351t-326 -123z " />
<glyph unicode="6" d="M1002 423q0 -199 -123 -324.5t-292 -125.5q-206 0 -344 168t-138 505q0 281 76 452t197.5 248.5t259.5 77.5q113 0 195.5 -42.5t141.5 -106.5l-101 -112q-92 109 -230 110q-146 0 -254 -130.5t-114 -463.5q65 80 153 128t173 48q182 0 291 -108.5t109 -323.5zM587 117 q103 0 173 84t70 222q0 136 -64.5 216t-193.5 80q-67 0 -146 -44t-146 -140q36 -418 307 -418z" />
<glyph unicode="7" d="M387 0q11 263 55.5 472.5t128.5 394.5t222 375h-697v156h901v-112q-165 -213 -252.5 -402.5t-122.5 -400.5t-47 -483h-188z" />
<glyph unicode="8" d="M548 -27q-197 0 -327.5 108.5t-130.5 275.5q0 136 82.5 230.5t180.5 146.5v9q-77 54 -136.5 133.5t-59.5 188.5q0 162 114 260.5t283 98.5q182 0 288.5 -105t106.5 -267q0 -109 -64.5 -199t-128.5 -138v-10q95 -54 169 -136t74 -222q0 -155 -124 -264.5t-327 -109.5z M646 763q147 129 147 280q0 103 -63 175t-180 72q-96 0 -161 -62t-65 -163q0 -126 97.5 -190t224.5 -112zM552 107q123 0 198.5 69t75.5 177q0 134 -114 199.5t-265 126.5q-83 -56 -138.5 -133t-55.5 -172q0 -116 86 -191.5t213 -75.5z" />
<glyph unicode="9" d="M515 679q67 0 146 44t148 143q-35 416 -309 416q-101 0 -172 -84.5t-71 -222.5q0 -136 64 -216t194 -80zM449 -27q-111 0 -195.5 42t-142.5 106l102 113q94 -111 230 -111q147 0 255.5 132t114.5 468q-140 -179 -328 -179q-182 0 -289.5 108.5t-107.5 322.5 q0 199 122.5 324t289.5 125q206 0 344 -167.5t138 -505.5q0 -280 -76 -451t-197.5 -249t-259.5 -78z" />
<glyph unicode=":" horiz-adv-x="544" d="M274 764q-55 0 -93.5 38.5t-38.5 97.5q0 61 38.5 100.5t93.5 39.5q52 0 90.5 -39t38.5 -101q0 -59 -38.5 -97.5t-90.5 -38.5zM274 -27q-55 0 -93.5 38.5t-38.5 97.5q0 61 38.5 100.5t93.5 39.5q52 0 90.5 -39t38.5 -101q0 -59 -38.5 -97.5t-90.5 -38.5z" />
<glyph unicode=";" horiz-adv-x="544" d="M147 -372l-44 104q201 88 198 268q-11 -2 -23 -2q-52 0 -90.5 31.5t-38.5 93.5q0 59 39.5 92.5t93.5 33.5q71 0 111.5 -56.5t40.5 -155.5q0 -142 -77 -247.5t-210 -161.5zM274 765q-55 0 -93.5 38t-38.5 98q0 63 38.5 101.5t93.5 38.5q52 0 90.5 -38.5t38.5 -101.5 q0 -59 -38.5 -97.5t-90.5 -38.5z" />
<glyph unicode="&#x3c;" d="M1014 287l-939 368v145l939 368v-156l-462 -171l-293 -109v-9l293 -110l462 -170v-156z" />
<glyph unicode="=" d="M75 889v136h939v-136h-939zM75 421v136h939v-136h-939z" />
<glyph unicode="&#x3e;" d="M75 287v156l462 170l293 110v9l-293 109l-462 171v156l939 -368v-145z" />
<glyph unicode="?" horiz-adv-x="930" d="M351 434q-17 128 25 221.5t107 169.5t116.5 148t51.5 160t-53.5 150t-158.5 62q-143 0 -253 -126l-103 94q71 79 163.5 130.5t213.5 51.5q167 0 266.5 -94.5t99.5 -256.5q0 -107 -52.5 -189.5t-119.5 -158t-113 -162t-33 -200.5h-157zM434 -27q-54 0 -91.5 38.5 t-37.5 97.5q0 61 37 100.5t92 39.5t93 -39t38 -101q0 -59 -38 -97.5t-93 -38.5z" />
<glyph unicode="@" horiz-adv-x="1855" d="M883 -339q-215 0 -390 89.5t-278.5 263.5t-103.5 431q0 293 126.5 511.5t334.5 339t453 120.5q333 0 526 -201t193 -525q0 -190 -68 -320.5t-168.5 -196.5t-201.5 -66q-87 0 -151 43t-74 124h-5q-54 -63 -124.5 -106t-142.5 -43q-111 0 -187 80t-76 229q0 119 51 235.5 t145.5 195t223.5 78.5q119 0 176 -106h4l25 87h119l-85 -437q-65 -257 119 -257q102 0 197.5 119.5t95.5 334.5q0 265 -153 438t-454 173q-195 0 -370.5 -104t-286 -293.5t-110.5 -445.5q0 -320 187.5 -495.5t466.5 -175.5q100 0 190 28t164 70l48 -107q-186 -111 -416 -111 zM843 247q94 0 202 130l64 348q-57 92 -141 92q-87 0 -148 -59t-95.5 -145.5t-34.5 -167.5q0 -105 44 -151.5t109 -46.5z" />
<glyph unicode="A" horiz-adv-x="1191" d="M445 805l-68 -220h432l-69 220q-39 121 -74 239.5t-70 243.5h-9q-33 -125 -67.5 -243.5t-74.5 -239.5zM991 0l-136 439h-524l-138 -439h-187l487 1437h206l487 -1437h-195z" />
<glyph unicode="B" horiz-adv-x="1288" d="M197 0v1437h428q219 0 355.5 -81t136.5 -269q0 -107 -54.5 -193.5t-155.5 -119.5v-9q130 -25 212 -110.5t82 -233.5q0 -213 -152 -317t-394 -104h-458zM379 826h213q184 0 265 63.5t81 173.5q0 125 -85.5 177.5t-252.5 52.5h-221v-467zM379 144h250q186 0 289 69t103 214 q0 134 -102 196.5t-290 62.5h-250v-542z" />
<glyph unicode="C" horiz-adv-x="1250" d="M740 -27q-269 0 -448 197.5t-179 548.5q0 347 182 546t456 199q132 0 232 -53.5t163 -124.5l-98 -118q-57 61 -129.5 98.5t-164.5 37.5q-203 0 -327 -156.5t-124 -424.5q0 -271 120.5 -430t323.5 -159q103 0 184 42.5t150 118.5l100 -113q-85 -99 -192.5 -154t-248.5 -55 z" />
<glyph unicode="D" horiz-adv-x="1347" d="M197 0v1437h359q333 0 506.5 -185t173.5 -527q0 -344 -173.5 -534.5t-497.5 -190.5h-368zM379 149h165q252 0 378 151.5t126 424.5q0 272 -126.5 417.5t-377.5 145.5h-165v-1139z" />
<glyph unicode="E" horiz-adv-x="1154" d="M197 0v1437h828v-153h-646v-452h545v-155h-545v-522h669v-155h-851z" />
<glyph unicode="F" horiz-adv-x="1081" d="M197 0v1437h828v-153h-646v-487h548v-153h-548v-644h-182z" />
<glyph unicode="G" horiz-adv-x="1351" d="M763 -27q-285 0 -467.5 197.5t-182.5 548.5q0 347 187 546t474 199q148 0 250.5 -56t163.5 -122l-101 -118q-54 55 -128 95.5t-181 40.5q-217 0 -346 -156.5t-129 -424.5q0 -271 123.5 -430t353.5 -159q167 0 259 85v375h-305v151h471v-605q-71 -73 -184.5 -120 t-257.5 -47z" />
<glyph unicode="H" horiz-adv-x="1428" d="M197 0v1437h182v-602h669v602h184v-1437h-184v677h-669v-677h-182z" />
<glyph unicode="I" horiz-adv-x="575" d="M197 0v1437h182v-1437h-182z" />
<glyph unicode="J" horiz-adv-x="1051" d="M464 -27q-269 0 -397 230l132 92q90 -162 248 -161q114 0 172 71t58 236v996h184v-1014q0 -187 -93 -318.5t-304 -131.5z" />
<glyph unicode="K" horiz-adv-x="1267" d="M197 0v1437h182v-720h6l599 720h206l-450 -548l520 -889h-204l-429 747l-248 -291v-456h-182z" />
<glyph unicode="L" horiz-adv-x="1064" d="M197 0v1437h182v-1282h629v-155h-811z" />
<glyph unicode="M" horiz-adv-x="1592" d="M197 0v1437h219l276 -766q27 -75 52 -150.5t51 -150.5h10q26 75 48.5 150.5t49.5 150.5l272 766h221v-1437h-171v791q0 94 8.5 212.5t15.5 213.5h-9l-113 -328l-272 -745h-121l-272 745l-113 328h-10q7 -95 15 -213.5t8 -212.5v-791h-165z" />
<glyph unicode="N" horiz-adv-x="1417" d="M197 0v1437h188l520 -902l155 -299h9q-6 110 -13.5 227.5t-7.5 230.5v743h173v-1437h-188l-523 905l-155 296h-8q8 -110 15.5 -222.5t7.5 -227.5v-751h-173z" />
<glyph unicode="O" horiz-adv-x="1454" d="M728 -27q-272 0 -443.5 203t-171.5 549q0 345 171.5 542t443.5 197q271 0 443 -197.5t172 -541.5q0 -346 -172 -549t-443 -203zM728 134q192 0 308 161t116 430q0 268 -116 423.5t-308 155.5q-193 0 -309 -155.5t-116 -423.5q0 -269 116 -430t309 -161z" />
<glyph unicode="P" horiz-adv-x="1240" d="M197 0v1437h410q240 0 389.5 -93t149.5 -330q0 -225 -146.5 -335t-384.5 -110h-236v-569h-182zM379 719h215q370 0 370 295q0 156 -95 216t-284 60h-206v-571z" />
<glyph unicode="Q" horiz-adv-x="1454" d="M1168 -362q-199 0 -334 97.5t-196 245.5q-235 33 -380 230t-145 514q0 345 171.5 542t443.5 197q271 0 443 -197.5t172 -541.5q0 -311 -140 -507.5t-368 -234.5q48 -96 141 -144t212 -48q48 0 85.5 6t65.5 15l35 -140q-33 -13 -87.5 -23.5t-118.5 -10.5zM728 125 q192 0 308 162t116 438q0 268 -116 423.5t-308 155.5q-193 0 -309 -155.5t-116 -423.5q0 -276 116 -438t309 -162z" />
<glyph unicode="R" horiz-adv-x="1246" d="M379 756h242q348 0 347 279q0 140 -89.5 197.5t-257.5 57.5h-242v-534zM379 0h-182v1437h449q222 0 363 -89.5t141 -312.5q0 -169 -88.5 -270t-235.5 -138l366 -627h-205l-347 607h-261v-607z" />
<glyph unicode="S" horiz-adv-x="1169" d="M596 -27q-151 0 -280.5 58.5t-223.5 154.5l109 128q77 -82 181.5 -131t215.5 -49q142 0 221.5 64.5t79.5 169.5q0 109 -68 159t-172 96l-205 90q-103 41 -197 126t-94 244q0 165 127.5 273t322.5 108q127 0 238 -49.5t188 -128.5l-98 -118q-66 64 -146 100t-182 36 q-121 0 -193.5 -57t-72.5 -153q0 -103 76.5 -154t161.5 -85l204 -88q125 -54 210.5 -138.5t85.5 -245.5q0 -171 -130.5 -290.5t-358.5 -119.5z" />
<glyph unicode="T" horiz-adv-x="1173" d="M495 0v1284h-434v153h1052v-153h-434v-1284h-184z" />
<glyph unicode="U" horiz-adv-x="1412" d="M708 -27q-221 0 -369.5 137t-148.5 484v843h182v-847q0 -262 96.5 -359t239.5 -97t241.5 97t98.5 359v847h175v-843q0 -347 -146.5 -484t-368.5 -137z" />
<glyph unicode="V" horiz-adv-x="1127" d="M460 0l-460 1437h195l230 -776q39 -127 68.5 -237t71.5 -238h10q39 128 69.5 238.5t68.5 236.5l230 776h186l-456 -1437h-213z" />
<glyph unicode="W" horiz-adv-x="1721" d="M355 0l-305 1437h189l152 -782q19 -117 41 -232.5t41 -232.5h10q24 117 50 233t50 232l199 782h167l199 -782q27 -114 53 -231l52 -234h10q19 117 38.5 233t41.5 232l152 782h175l-298 -1437h-220l-217 866q-37 155 -69 326h-9q-15 -83 -35 -163t-38 -163l-212 -866h-217 z" />
<glyph unicode="X" horiz-adv-x="1123" d="M33 0l419 743l-391 694h202l195 -368q29 -48 54 -96.5t57 -111.5h10q31 63 53.5 111.5t49.5 96.5l190 368h193l-392 -703l418 -734h-202l-210 387q-28 53 -57.5 109t-65.5 122h-8q-31 -65 -59.5 -121t-54.5 -110l-208 -387h-193z" />
<glyph unicode="Y" horiz-adv-x="1042" d="M429 0v556l-431 881h195l186 -404q35 -80 69.5 -156.5t68.5 -157.5h9q38 81 75 157.5t70 156.5l184 404h190l-432 -881v-556h-184z" />
<glyph unicode="Z" horiz-adv-x="1180" d="M98 0v109l757 1175h-688v153h916v-107l-759 -1175h765v-155h-991z" />
<glyph unicode="[" horiz-adv-x="663" d="M207 -333v1885h391v-103h-257v-1679h257v-103h-391z" />
<glyph unicode="\" horiz-adv-x="766" d="M615 -351l-584 1907h129l585 -1907h-130z" />
<glyph unicode="]" horiz-adv-x="663" d="M67 -333v103h255v1679h-255v103h391v-1885h-391z" />
<glyph unicode="^" d="M132 623l332 845h161l333 -845h-158l-143 385l-107 291h-9l-110 -291l-142 -385h-157z" />
<glyph unicode="_" horiz-adv-x="1095" d="M27 -276v121h1042v-121h-1042z" />
<glyph unicode="`" horiz-adv-x="1187" d="M625 1256l-345 335l128 120l309 -366z" />
<glyph unicode="a" horiz-adv-x="1104" d="M477 119q77 0 145 37t145 105v295q-267 -33 -372.5 -99t-105.5 -168q0 -90 54.5 -130t133.5 -40zM425 -27q-134 0 -223 80.5t-89 222.5q0 176 157 269t497 130q0 101 -44 184.5t-175 83.5q-92 0 -173.5 -35.5t-144.5 -79.5l-70 125q75 49 183.5 93.5t235.5 44.5 q195 0 282.5 -119t87.5 -319v-653h-149l-16 127h-6q-77 -61 -165 -107.5t-188 -46.5z" />
<glyph unicode="b" horiz-adv-x="1211" d="M651 -27q-156 0 -304 136h-8l-15 -109h-144v1560h180v-425l-5 -192q73 63 159 105.5t174 42.5q207 0 315 -147t108 -394q0 -274 -139.5 -425.5t-320.5 -151.5zM621 125q131 0 217 113t86 310q0 175 -64.5 284t-215.5 109q-129 0 -284 -146v-559q70 -61 139 -86t122 -25z " />
<glyph unicode="c" horiz-adv-x="998" d="M600 -27q-213 0 -356 146t-143 412q0 267 153.5 413.5t358.5 146.5q105 0 180 -37.5t131 -87.5l-92 -117q-46 41 -97 67.5t-114 26.5q-145 0 -239.5 -114t-94.5 -298q0 -182 91 -295t237 -113q75 0 137.5 31.5t113.5 75.5l79 -121q-154 -136 -345 -136z" />
<glyph unicode="d" horiz-adv-x="1215" d="M583 125q140 0 272 147v556q-67 61 -130.5 87t-128.5 26q-127 0 -217 -113t-90 -295q0 -191 77 -299.5t217 -108.5zM544 -27q-202 0 -321.5 145t-119.5 413q0 259 140 409.5t322 150.5q92 0 160 -33t138 -90l-8 182v410h182v-1560h-150l-15 125h-6q-64 -61 -146 -106.5 t-176 -45.5z" />
<glyph unicode="e" horiz-adv-x="1086" d="M611 -27q-213 0 -361.5 148.5t-148.5 409.5q0 175 69 300t177.5 192.5t231.5 67.5q203 0 314 -135.5t111 -363.5q0 -63 -7 -103h-719q11 -169 106.5 -269.5t248.5 -100.5q77 0 141.5 23t124.5 59l63 -118q-67 -43 -155.5 -76.5t-195.5 -33.5zM276 618h570q0 331 -263 331 q-111 0 -200.5 -86.5t-106.5 -244.5z" />
<glyph unicode="f" horiz-adv-x="639" d="M615 918h-224v-918h-180v918h-146v136l146 11v169q0 162 75.5 257.5t234.5 95.5q48 0 94 -10.5t84 -24.5l-40 -139q-59 27 -120 27q-148 0 -148 -206v-169h224v-147z" />
<glyph unicode="g" horiz-adv-x="1104" d="M539 458q92 0 159 69t67 186q0 116 -66 181.5t-160 65.5t-159.5 -66t-65.5 -181q0 -117 66.5 -186t158.5 -69zM539 -491q-194 0 -317.5 75t-123.5 213q0 136 157 240v9q-40 25 -67.5 68t-27.5 105q0 68 37 118t79 79v9q-52 44 -95 118.5t-43 169.5q0 173 119.5 275.5 t281.5 102.5q84 0 151 -26h370v-138h-219q37 -38 62.5 -94.5t25.5 -124.5q0 -171 -114 -271t-276 -100q-85 0 -160 37q-29 -24 -48.5 -53.5t-19.5 -73.5q0 -50 40 -82.5t149 -32.5h205q372 0 374 -255q0 -149 -146.5 -258.5t-393.5 -109.5zM565 -366q153 0 245.5 67 t92.5 150q0 75 -56 103.5t-159 28.5h-184q-31 0 -67 4t-71 13q-109 -79 -109 -180q0 -85 82 -135.5t226 -50.5z" />
<glyph unicode="h" horiz-adv-x="1191" d="M180 0v1560h180v-425l-7 -219q77 73 161 124t194 51q325 0 325 -416v-675h-180v651q0 148 -48.5 216t-153.5 68q-82 0 -146 -41t-145 -123v-771h-180z" />
<glyph unicode="i" horiz-adv-x="538" d="M272 1284q-53 0 -89 33t-36 84q0 52 36 83.5t89 31.5q52 0 88.5 -31.5t36.5 -83.5q0 -51 -36.5 -84t-88.5 -33zM180 0v1065h180v-1065h-180z" />
<glyph unicode="j" horiz-adv-x="540" d="M274 1284q-53 0 -89 33t-36 84q0 52 36 83.5t89 31.5q50 0 86.5 -31.5t36.5 -83.5q0 -51 -36.5 -84t-86.5 -33zM71 -475q-49 0 -89.5 8.5t-69.5 19.5l38 136q19 -7 45 -12t55 -5q79 0 105.5 55.5t26.5 151.5v1186h180v-1186q0 -163 -65.5 -258.5t-225.5 -95.5z" />
<glyph unicode="k" horiz-adv-x="1083" d="M180 0v1560h177v-1056h7l453 561h199l-357 -427l406 -638h-197l-312 513l-199 -233v-280h-177z" />
<glyph unicode="l" horiz-adv-x="558" d="M370 -27q-190 0 -190 242v1345h180v-1359q0 -79 50 -78q19 0 39 4l24 -136q-40 -18 -103 -18z" />
<glyph unicode="m" horiz-adv-x="1815" d="M180 0v1065h148l17 -153h6q71 75 153.5 127t177.5 52q120 0 190.5 -54.5t102.5 -149.5q83 90 168.5 147t182.5 57q324 0 324 -416v-675h-180v651q0 284 -197 284q-121 0 -267 -164v-771h-180v651q0 284 -199 284q-119 0 -267 -164v-771h-180z" />
<glyph unicode="n" horiz-adv-x="1198" d="M180 0v1065h148l17 -153h6q75 75 161 127t196 52q325 0 325 -416v-675h-180v651q0 148 -48.5 216t-153.5 68q-82 0 -146 -41t-145 -123v-771h-180z" />
<glyph unicode="o" horiz-adv-x="1187" d="M594 -27q-195 0 -344 146t-149 412q0 267 149 413.5t344 146.5t344 -147t149 -413t-149 -412t-344 -146zM594 123q138 0 222.5 113t84.5 295q0 184 -84.5 298t-222.5 114q-136 0 -221.5 -114t-85.5 -298q0 -182 85.5 -295t221.5 -113z" />
<glyph unicode="p" horiz-adv-x="1215" d="M621 125q131 0 217 113t86 310q0 175 -64.5 284t-215.5 109q-123 0 -284 -146v-559q72 -61 140 -86t121 -25zM180 -449v1514h148l17 -122h6q73 61 159 104.5t180 43.5q207 0 314 -148t107 -395q0 -272 -139.5 -423.5t-320.5 -151.5q-75 0 -148.5 33.5t-147.5 89.5l5 -186 v-359h-180z" />
<glyph unicode="q" horiz-adv-x="1215" d="M855 -449v378l8 194q-63 -61 -145 -105.5t-174 -44.5q-202 0 -321.5 145t-119.5 413q0 259 140 409.5t322 150.5q92 0 162 -33t143 -94h4l18 101h145v-1514h-182zM583 125q140 0 272 147v556q-67 61 -130.5 87t-128.5 26q-127 0 -217 -113t-90 -295q0 -191 77 -299.5 t217 -108.5z" />
<glyph unicode="r" horiz-adv-x="759" d="M180 0v1065h148l17 -193h6q55 101 133.5 160t168.5 59q63 0 114 -22l-35 -157q-27 8 -49 12.5t-54 4.5q-67 0 -141 -54.5t-128 -190.5v-684h-180z" />
<glyph unicode="s" horiz-adv-x="918" d="M458 -27q-113 0 -217.5 42t-179.5 106l90 120q67 -57 142 -92.5t171 -35.5q105 0 158 49t53 118q0 84 -78 126.5t-166 76.5q-113 41 -215.5 105.5t-102.5 200.5q0 127 97 214.5t270 87.5q101 0 185 -35t146 -86l-86 -113q-54 42 -113.5 68t-128.5 26q-101 0 -148.5 -46 t-47.5 -108q0 -75 73.5 -112t162.5 -72q117 -44 221.5 -107t104.5 -215q0 -129 -101.5 -223.5t-289.5 -94.5z" />
<glyph unicode="t" horiz-adv-x="740" d="M515 -27q-172 0 -238 99t-66 256v590h-159v136l167 11l22 298h152v-298h286v-147h-286v-592q0 -98 35.5 -151.5t127.5 -53.5q29 0 62 9.5t59 18.5l36 -136q-44 -15 -96 -27.5t-102 -12.5z" />
<glyph unicode="u" horiz-adv-x="1191" d="M491 -27q-326 0 -326 418v674h182v-651q0 -149 47 -217t152 -68q81 0 147 43t139 137v756h180v-1065h-149l-14 167h-8q-75 -88 -158 -141t-192 -53z" />
<glyph unicode="v" horiz-adv-x="1022" d="M410 0l-383 1065h186l201 -605q25 -79 50 -157.5t49 -155.5h8q21 77 48 155.5t49 157.5l202 605h177l-376 -1065h-211z" />
<glyph unicode="w" horiz-adv-x="1572" d="M349 0l-297 1065h184l159 -616q17 -77 32.5 -149t30.5 -147h9q17 75 34.5 148t37.5 148l164 616h175l167 -616q20 -77 38.5 -149t36.5 -147h9q17 75 33.5 147t31.5 149l156 616h170l-284 -1065h-220l-153 572q-19 77 -35.5 151t-36.5 155h-9q-17 -81 -34.5 -157.5 t-39.5 -151.5l-149 -569h-210z" />
<glyph unicode="x" horiz-adv-x="976" d="M31 0l348 556l-322 509h196l142 -235q24 -41 50 -87t55 -90h8q22 44 47.5 90t49.5 87l129 235h188l-322 -528l347 -537h-196l-155 247q-29 48 -58.5 97t-57.5 95h-9q-29 -46 -54.5 -93t-52.5 -99l-145 -247h-188z" />
<glyph unicode="y" horiz-adv-x="1022" d="M197 -458q-65 0 -124 21l34 144q15 -4 38.5 -10t42.5 -6q90 0 149.5 64.5t91.5 163.5l25 79l-427 1067h186l216 -590q25 -67 52 -146.5t52 -153.5h8q25 73 46.5 152t43.5 148l191 590h175l-401 -1153q-57 -157 -146.5 -263.5t-252.5 -106.5z" />
<glyph unicode="z" horiz-adv-x="930" d="M67 0v96l562 822h-500v147h728v-97l-562 -821h579v-147h-807z" />
<glyph unicode="{" horiz-adv-x="663" d="M500 -333q-130 0 -193.5 61t-63.5 230q0 121 10 217.5t10 205.5q0 63 -38.5 116t-149.5 55v115q111 2 149.5 53t38.5 115q0 111 -10 208t-10 217q0 170 63.5 231t193.5 61h98v-103h-59q-87 0 -117.5 -46t-30.5 -154q0 -101 6 -193t6 -203q0 -201 -131 -240v-8 q131 -38 131 -239q0 -111 -6 -203t-6 -194q0 -107 30.5 -153t117.5 -46h59v-103h-98z" />
<glyph unicode="|" horiz-adv-x="527" d="M201 -548v2192h127v-2192h-127z" />
<glyph unicode="}" horiz-adv-x="663" d="M67 -333v103h58q90 0 119.5 46t29.5 153q0 101 -5.5 193.5t-5.5 203.5q0 203 130 239v8q-130 35 -130 240q0 111 5.5 203t5.5 193q0 107 -29.5 153.5t-119.5 46.5h-58v103h98q131 0 193.5 -62t62.5 -230q0 -120 -10 -216.5t-10 -208.5q0 -64 39.5 -115t149.5 -53v-115 q-110 -2 -149.5 -54.5t-39.5 -116.5q0 -109 10 -205.5t10 -217.5q0 -169 -63 -230t-193 -61h-98z" />
<glyph unicode="~" d="M736 563q-88 0 -151.5 46t-119 92t-116.5 46q-96 0 -169 -134l-101 73q59 105 131 151t143 46q86 0 150 -46t120 -92t117 -46q97 0 170 133l100 -73q-59 -103 -131 -149.5t-143 -46.5z" />
<glyph unicode="&#xa1;" horiz-adv-x="632" d="M318 815q-55 0 -93.5 40t-38.5 101q0 58 38.5 96.5t93.5 38.5q52 0 90.5 -38.5t38.5 -96.5q0 -61 -38.5 -101t-90.5 -40zM226 -403l4 206l25 828h124l24 -828l5 -206h-182z" />
<glyph unicode="&#xa2;" d="M993 291q-138 -125 -307 -138v-226h-114v228q-194 22 -317 158t-123 366q0 228 127.5 361t312.5 158v233h114v-226q94 -7 165 -42.5t122 -83.5l-88 -115q-94 86 -199 92v-753q67 4 125.5 33.5t102.5 69.5zM311 679q0 -144 69 -242t192 -126v734q-120 -29 -190.5 -125 t-70.5 -241z" />
<glyph unicode="&#xa3;" d="M993 155v-155h-874v109q111 61 171.5 166.5t60.5 228.5q0 55 -16 121h-218v113l146 9h40q-22 67 -41 136.5t-19 137.5q0 186 113 294.5t295 108.5q116 0 199 -47t141 -117l-106 -103q-42 50 -94.5 83t-126.5 33q-118 0 -180.5 -71t-62.5 -186q0 -67 16.5 -134t35.5 -135 h349v-122h-320q11 -63 11 -123q0 -117 -35 -193.5t-101 -143.5v-10h616z" />
<glyph unicode="&#xa4;" d="M153 226l-96 98l140 143q-79 107 -78 254q0 149 78 256l-140 145l96 99l150 -154q105 81 243 81q136 0 240 -81l149 154l98 -99l-144 -145q81 -109 81 -256q0 -144 -81 -254l144 -143l-98 -98l-149 151q-102 -84 -240 -84q-140 0 -243 84zM546 427q105 0 182 81.5 t77 212.5q0 132 -77 212.5t-182 80.5q-107 0 -184 -80.5t-77 -212.5q0 -131 77 -212.5t184 -81.5z" />
<glyph unicode="&#xa5;" d="M454 0v347h-356v105h356v142h-356v103h310l-358 701h189l171 -375q33 -73 64.5 -145.5t66.5 -149.5h9q37 77 69 150t65 145l171 375h184l-360 -701h312v-103h-358v-142h358v-105h-358v-347h-179z" />
<glyph unicode="&#xa6;" horiz-adv-x="527" d="M201 638v1006h127v-1006h-127zM201 -548v1017h127v-1017h-127z" />
<glyph unicode="&#xa7;" d="M255 763q0 -96 73 -150t176 -95t195 -95q63 31 97 72.5t34 113.5q0 98 -72 154.5t-175 97t-196 92.5q-61 -33 -96.5 -79t-35.5 -111zM515 -140q-235 0 -379 155l109 98q55 -52 118.5 -82.5t151.5 -30.5q87 0 136.5 44t49.5 107q0 75 -61 121t-151 82.5t-180 82.5 t-151.5 120t-61.5 194q0 94 52.5 166t136.5 118q-71 75 -70 179q0 114 84 199.5t249 85.5q103 0 188.5 -37.5t148.5 -87.5l-88 -116q-52 44 -111 72.5t-132 28.5q-92 0 -132.5 -42t-40.5 -96q0 -71 61.5 -116t152.5 -81.5t181 -84t151.5 -122t61.5 -194.5q0 -103 -51 -169.5 t-136 -114.5q66 -77 66 -179q0 -129 -100 -214.5t-253 -85.5z" />
<glyph unicode="&#xa8;" horiz-adv-x="1187" d="M805 1286q-46 0 -77 32t-31 78t31 77q31 32 77 32q48 0 78 -32q31 -32 31 -77q0 -46 -31 -78q-30 -32 -78 -32zM383 1286q-48 0 -78 32q-31 32 -31 78t31 77q31 32 78 32q46 0 77 -32t31 -77q0 -46 -31 -78t-77 -32z" />
<glyph unicode="&#xa9;" horiz-adv-x="1629" d="M815 -25q-190 0 -351 90t-259 255t-98 388q0 222 98 385t259 250.5t351 87.5q191 0 352 -87.5t258.5 -251t97.5 -384.5q0 -223 -97.5 -388t-258.5 -255t-352 -90zM815 67q167 0 304 80.5t219 225t82 335.5t-82 333t-219 221t-304 79t-304 -79t-218.5 -221t-81.5 -333 q0 -190 81.5 -335t218.5 -225.5t304 -80.5zM832 274q-166 0 -282 115t-116 319q0 191 122.5 302.5t282.5 111.5q92 0 156.5 -36t117.5 -89l-76 -85q-44 44 -89 67t-102 23q-121 0 -194 -82.5t-73 -211.5q0 -144 71 -228.5t189 -84.5q67 0 121 27t103 69l66 -92 q-61 -52 -129.5 -88.5t-167.5 -36.5z" />
<glyph unicode="&#xaa;" horiz-adv-x="755" d="M337 956q86 0 180 87v186q-169 -17 -235.5 -59.5t-66.5 -104.5q-1 -109 122 -109zM299 849q-97 0 -157.5 55.5t-60.5 149.5q0 117 104 178t332 83q-2 71 -30.5 115t-105.5 44q-57 0 -117.5 -23t-103.5 -50l-51 94q55 33 131 62.5t161 29.5q132 0 192 -77t60 -215v-429 h-109l-15 81h-10q-44 -40 -98.5 -69t-121.5 -29z" />
<glyph unicode="&#xab;" horiz-adv-x="939" d="M397 144l-299 341v136l299 339l78 -65l-258 -343l258 -345zM744 144l-299 341v136l299 339l78 -65l-258 -343l258 -345z" />
<glyph unicode="&#xac;" d="M870 228v427h-795v136h939v-563h-144z" />
<glyph unicode="&#xad;" horiz-adv-x="680" d="M90 480v138h504v-138h-504z" />
<glyph unicode="&#xae;" horiz-adv-x="926" d="M462 699q-169 0 -290.5 119.5t-121.5 312.5t121.5 312t290.5 119q171 0 292.5 -119t121.5 -312t-121.5 -312.5t-292.5 -119.5zM462 780q138 0 232.5 97.5t94.5 253.5q0 153 -94.5 252.5t-232.5 99.5t-231 -99.5t-93 -252.5q0 -155 93 -253t231 -98zM395 1137h57 q94 0 94 75q0 73 -90 72h-61v-147zM305 914v445h166q67 0 119 -32t52 -110q0 -92 -81 -121l100 -182h-100l-76 153h-90v-153h-90z" />
<glyph unicode="&#xaf;" horiz-adv-x="1187" d="M303 1317v125h582v-125h-582z" />
<glyph unicode="&#xb0;" horiz-adv-x="724" d="M364 941q-109 0 -191.5 75t-82.5 203q0 129 82.5 205.5t191.5 76.5t191.5 -76.5t82.5 -205.5q0 -128 -82.5 -203t-191.5 -75zM364 1041q73 0 119 50.5t46 127.5q0 81 -46 131.5t-119 50.5t-119 -51t-46 -131q0 -77 46 -127.5t119 -50.5z" />
<glyph unicode="&#xb1;" d="M473 278v389h-398v135h398v417h142v-417h399v-135h-399v-389h-142zM75 0v136h939v-136h-939z" />
<glyph unicode="&#xb2;" horiz-adv-x="803" d="M113 866v81q199 180 302.5 293t103.5 209q0 84 -45 132t-119 48q-54 0 -101 -36.5t-83 -88.5l-83 77q48 75 122.5 120.5t161.5 45.5q128 0 206.5 -70.5t78.5 -205.5q0 -123 -91 -233.5t-227 -250.5h362v-121h-588z" />
<glyph unicode="&#xb3;" horiz-adv-x="803" d="M395 839q-103 0 -185.5 47t-132.5 120l94 73q86 -127 216 -127q68 0 120 39.5t52 113.5q0 75 -70.5 113.5t-195.5 38.5v89q109 0 171 43.5t62 109.5q0 61 -42.5 98.5t-113.5 37.5q-48 0 -93 -29.5t-80 -72.5l-86 73q55 64 123.5 102.5t158.5 38.5q109 0 190 -61t81 -169 q0 -77 -41.5 -128.5t-107.5 -81.5q72 -17 128 -71t56 -140q0 -119 -89.5 -188t-214.5 -69z" />
<glyph unicode="&#xb4;" horiz-adv-x="1187" d="M563 1256l-92 89l309 366l127 -120z" />
<glyph unicode="&#xb5;" horiz-adv-x="1230" d="M180 -393v1458h180v-651q0 -285 194 -285q73 0 141 39t142 169v728h182q-3 -215 -8 -439.5t-5 -416.5q0 -86 79 -86q29 0 63 13l25 -136q-25 -11 -54.5 -19t-73.5 -8q-171 0 -192 207h-4q-114 -201 -297 -201q-63 0 -116 19t-89 83q2 -157 4 -251.5t11 -222.5h-182z" />
<glyph unicode="&#xb6;" horiz-adv-x="1226" d="M642 495q-239 0 -395.5 114t-156.5 361q0 259 150.5 363t377.5 104h97v-942h-73zM832 -175v1612h184v-1612h-184z" />
<glyph unicode="&#xb7;" horiz-adv-x="544" d="M274 567q-55 0 -93.5 38.5t-38.5 97.5q0 61 38.5 100.5t93.5 39.5q52 0 90.5 -39t38.5 -101q0 -59 -38.5 -97.5t-90.5 -38.5z" />
<glyph unicode="&#xb8;" horiz-adv-x="1187" d="M416 -495l-17 87q138 9 188.5 35.5t50.5 73.5q0 44 -37.5 69t-131.5 37l96 199h117l-64 -146q78 -17 118 -53q42 -35 42 -102q0 -183 -362 -200z" />
<glyph unicode="&#xb9;" horiz-adv-x="803" d="M377 866v675h-187v92q73 13 121.5 34t91.5 54h114v-855h-140z" />
<glyph unicode="&#xba;" horiz-adv-x="799" d="M399 849q-136 0 -235 97t-99 271q0 177 99 273.5t235 96.5t234.5 -96.5t98.5 -273.5q0 -174 -98.5 -271t-234.5 -97zM399 960q90 0 141.5 71t51.5 186q0 116 -51.5 186.5t-141.5 70.5t-143 -71t-53 -186q0 -114 53 -185.5t143 -71.5z" />
<glyph unicode="&#xbb;" horiz-adv-x="939" d="M195 144l-76 63l258 345l-258 343l76 65l300 -339v-136zM542 144l-76 63l258 345l-258 343l76 65l300 -339v-136z" />
<glyph unicode="&#xbc;" horiz-adv-x="1710" d="M325 583v675h-187v92q73 13 121.5 34t91.5 54h114v-855h-140zM395 -27l793 1491h123l-793 -1491h-123zM1144 328h244v155l8 238h-8l-111 -177zM1641 228h-127v-228h-126v228h-391v73l360 554h157v-527h127v-100z" />
<glyph unicode="&#xbd;" horiz-adv-x="1769" d="M325 583v675h-187v92q73 13 121.5 34t91.5 54h114v-855h-140zM351 -27l793 1491h123l-793 -1491h-123zM1079 0v81q199 180 302.5 293t103.5 209q0 84 -45 132t-119 48q-54 0 -101 -36.5t-83 -88.5l-83 77q48 75 122.5 120.5t161.5 45.5q128 0 206.5 -70.5t78.5 -205.5 q0 -123 -91 -233.5t-227 -250.5h362v-121h-588z" />
<glyph unicode="&#xbe;" horiz-adv-x="1744" d="M393 556q-103 0 -185.5 47t-132.5 120l94 73q86 -127 216 -127q68 0 120 39.5t52 113.5q0 75 -70.5 113.5t-195.5 38.5v89q109 0 171 43.5t62 109.5q0 61 -42.5 98.5t-113.5 37.5q-48 0 -93 -29.5t-80 -72.5l-86 73q55 64 123.5 102.5t158.5 38.5q109 0 190 -61t81 -169 q0 -77 -41.5 -128.5t-107.5 -81.5q72 -17 128 -71t56 -140q0 -119 -89.5 -188t-214.5 -69zM477 -27l793 1491h123l-793 -1491h-123zM1177 328h244v155l8 238h-8l-111 -177zM1674 228h-127v-228h-126v228h-391v73l360 554h157v-527h127v-100z" />
<glyph unicode="&#xbf;" horiz-adv-x="930" d="M498 815q-55 0 -93.5 40t-38.5 101q0 58 38.5 96.5t93.5 38.5q52 0 90.5 -38.5t38.5 -96.5q0 -61 -38.5 -101t-90.5 -40zM471 -429q-167 0 -266.5 94t-99.5 256q0 107 53 189.5t120 158.5t111.5 162t31.5 200h160q17 -127 -25.5 -221t-107.5 -169.5t-116.5 -148.5 t-51.5 -159q0 -88 52.5 -149.5t160.5 -61.5q143 0 250 125l106 -94q-71 -77 -164 -129.5t-214 -52.5z" />
<glyph unicode="&#xc0;" horiz-adv-x="1191" d="M445 805l-68 -220h432l-69 220q-39 121 -74 239.5t-70 243.5h-9q-33 -125 -67.5 -243.5t-74.5 -239.5zM991 0l-136 439h-524l-138 -439h-187l487 1437h206l487 -1437h-195zM629 1527l-332 252l102 121l312 -281z" />
<glyph unicode="&#xc1;" horiz-adv-x="1191" d="M445 805l-68 -220h432l-69 220q-39 121 -74 239.5t-70 243.5h-9q-33 -125 -67.5 -243.5t-74.5 -239.5zM991 0l-136 439h-524l-138 -439h-187l487 1437h206l487 -1437h-195zM555 1527l-82 92l312 281l102 -121z" />
<glyph unicode="&#xc2;" horiz-adv-x="1191" d="M445 805l-68 -220h432l-69 220q-39 121 -74 239.5t-70 243.5h-9q-33 -125 -67.5 -243.5t-74.5 -239.5zM991 0l-136 439h-524l-138 -439h-187l487 1437h206l487 -1437h-195zM268 1589l230 247h188l230 -247l-79 -57l-241 204h-8l-241 -204z" />
<glyph unicode="&#xc3;" horiz-adv-x="1191" d="M445 805l-68 -220h432l-69 220q-39 121 -74 239.5t-70 243.5h-9q-33 -125 -67.5 -243.5t-74.5 -239.5zM991 0l-136 439h-524l-138 -439h-187l487 1437h206l487 -1437h-195zM757 1554q-82 0 -136 38.5t-96 77.5t-93 39q-93 0 -105 -145l-122 9q6 125 65 197.5t157 72.5 q82 0 136 -38t96 -78t93 -40q88 0 105 145l122 -9q-6 -127 -65 -198t-157 -71z" />
<glyph unicode="&#xc4;" horiz-adv-x="1191" d="M445 805l-68 -220h432l-69 220q-39 121 -74 239.5t-70 243.5h-9q-33 -125 -67.5 -243.5t-74.5 -239.5zM991 0l-136 439h-524l-138 -439h-187l487 1437h206l487 -1437h-195zM818 1566q-48 0 -77.5 31.5t-29.5 77.5q0 107 107 107q46 0 76.5 -29.5t30.5 -77.5 q0 -46 -30.5 -77.5t-76.5 -31.5zM366 1566q-46 0 -76.5 31.5t-30.5 77.5q0 48 30.5 77.5t76.5 29.5q107 0 107 -107q0 -46 -29.5 -77.5t-77.5 -31.5z" />
<glyph unicode="&#xc5;" horiz-adv-x="1191" d="M592 1532q-92 0 -152.5 53.5t-60.5 143.5t60.5 144.5t152.5 54.5q90 0 151.5 -54.5t61.5 -144.5t-61.5 -143.5t-151.5 -53.5zM592 1610q44 0 77.5 31t33.5 88q0 55 -33.5 86.5t-77.5 31.5q-48 0 -81.5 -31.5t-33.5 -86.5q0 -57 33.5 -88t81.5 -31zM445 805l-68 -220h432 l-69 220q-39 121 -74 239.5t-70 243.5h-9q-33 -125 -67.5 -243.5t-74.5 -239.5zM991 0l-136 439h-524l-138 -439h-187l487 1437h206l487 -1437h-195z" />
<glyph unicode="&#xc6;" horiz-adv-x="1800" d="M636 824l-134 -259h376v728h-8q-116 -235 -234 -469zM878 0v418h-451l-216 -418h-194l754 1437h901v-153h-609v-452h508v-155h-508v-522h631v-155h-816z" />
<glyph unicode="&#xc7;" horiz-adv-x="1250" d="M922 -295q0 -182 -361 -200l-17 87q138 9 188 35t50 74q0 44 -37 68t-132 38l81 168q-252 15 -416.5 210.5t-164.5 533.5q0 347 182 546t456 199q132 0 232 -53.5t163 -124.5l-98 -118q-57 61 -129.5 98.5t-164.5 37.5q-203 0 -327 -156.5t-124 -424.5q0 -271 120.5 -430 t323.5 -159q103 0 184 42.5t150 118.5l100 -113q-75 -86 -164.5 -138.5t-203.5 -64.5l-50 -119q75 -17 117 -52.5t42 -102.5z" />
<glyph unicode="&#xc8;" horiz-adv-x="1154" d="M197 0v1437h828v-153h-646v-452h545v-155h-545v-522h669v-155h-851zM660 1527l-332 252l102 121l312 -281z" />
<glyph unicode="&#xc9;" horiz-adv-x="1154" d="M197 0v1437h828v-153h-646v-452h545v-155h-545v-522h669v-155h-851zM586 1527l-82 92l312 281l102 -121z" />
<glyph unicode="&#xca;" horiz-adv-x="1154" d="M197 0v1437h828v-153h-646v-452h545v-155h-545v-522h669v-155h-851zM299 1589l230 247h188l230 -247l-79 -57l-241 204h-8l-241 -204z" />
<glyph unicode="&#xcb;" horiz-adv-x="1154" d="M197 0v1437h828v-153h-646v-452h545v-155h-545v-522h669v-155h-851zM849 1566q-48 0 -77.5 31.5t-29.5 77.5q0 107 107 107q46 0 76.5 -29.5t30.5 -77.5q0 -46 -30.5 -77.5t-76.5 -31.5zM397 1566q-46 0 -76.5 31.5t-30.5 77.5q0 48 30.5 77.5t76.5 29.5q107 0 107 -107 q0 -46 -29.5 -77.5t-77.5 -31.5z" />
<glyph unicode="&#xcc;" horiz-adv-x="575" d="M197 0v1437h182v-1437h-182zM324 1527l-332 252l102 121l312 -281z" />
<glyph unicode="&#xcd;" horiz-adv-x="575" d="M197 0v1437h182v-1437h-182zM250 1527l-82 92l312 281l102 -121z" />
<glyph unicode="&#xce;" horiz-adv-x="575" d="M197 0v1437h182v-1437h-182zM-37 1589l230 247h188l230 -247l-79 -57l-241 204h-8l-241 -204z" />
<glyph unicode="&#xcf;" horiz-adv-x="575" d="M197 0v1437h182v-1437h-182zM513 1566q-48 0 -77.5 31.5t-29.5 77.5q0 107 107 107q46 0 76.5 -29.5t30.5 -77.5q0 -46 -30.5 -77.5t-76.5 -31.5zM61 1566q-46 0 -76.5 31.5t-30.5 77.5q0 48 30.5 77.5t76.5 29.5q107 0 107 -107q0 -46 -29.5 -77.5t-77.5 -31.5z" />
<glyph unicode="&#xd0;" horiz-adv-x="1397" d="M613 0h-368v703h-172v94l172 10v630h360q332 0 505.5 -185t173.5 -527q0 -344 -173.5 -534.5t-497.5 -190.5zM427 149h165q252 0 378 151.5t126 424.5q0 272 -126.5 417.5t-377.5 145.5h-165v-481h327v-104h-327v-554z" />
<glyph unicode="&#xd1;" horiz-adv-x="1417" d="M197 0v1437h188l520 -902l155 -299h9q-6 110 -13.5 227.5t-7.5 230.5v743h173v-1437h-188l-523 905l-155 296h-8q8 -110 15.5 -222.5t7.5 -227.5v-751h-173zM881 1554q-84 0 -136.5 38.5t-94 77.5t-94.5 39q-92 0 -104 -145l-124 9q7 125 66.5 197.5t157.5 72.5 q84 0 136 -38t94 -78t94 -40q88 0 106 145l122 -9q-6 -127 -65.5 -198t-157.5 -71z" />
<glyph unicode="&#xd2;" horiz-adv-x="1454" d="M728 -27q-272 0 -443.5 203t-171.5 549q0 345 171.5 542t443.5 197q271 0 443 -197.5t172 -541.5q0 -346 -172 -549t-443 -203zM728 134q192 0 308 161t116 430q0 268 -116 423.5t-308 155.5q-193 0 -309 -155.5t-116 -423.5q0 -269 116 -430t309 -161zM765 1527 l-332 252l102 121l312 -281z" />
<glyph unicode="&#xd3;" horiz-adv-x="1454" d="M728 -27q-272 0 -443.5 203t-171.5 549q0 345 171.5 542t443.5 197q271 0 443 -197.5t172 -541.5q0 -346 -172 -549t-443 -203zM728 134q192 0 308 161t116 430q0 268 -116 423.5t-308 155.5q-193 0 -309 -155.5t-116 -423.5q0 -269 116 -430t309 -161zM691 1527l-82 92 l312 281l102 -121z" />
<glyph unicode="&#xd4;" horiz-adv-x="1454" d="M728 -27q-272 0 -443.5 203t-171.5 549q0 345 171.5 542t443.5 197q271 0 443 -197.5t172 -541.5q0 -346 -172 -549t-443 -203zM728 134q192 0 308 161t116 430q0 268 -116 423.5t-308 155.5q-193 0 -309 -155.5t-116 -423.5q0 -269 116 -430t309 -161zM404 1589l230 247 h188l230 -247l-79 -57l-241 204h-8l-241 -204z" />
<glyph unicode="&#xd5;" horiz-adv-x="1454" d="M728 -27q-272 0 -443.5 203t-171.5 549q0 345 171.5 542t443.5 197q271 0 443 -197.5t172 -541.5q0 -346 -172 -549t-443 -203zM728 134q192 0 308 161t116 430q0 268 -116 423.5t-308 155.5q-193 0 -309 -155.5t-116 -423.5q0 -269 116 -430t309 -161zM893 1554 q-82 0 -136 38.5t-96 77.5t-93 39q-93 0 -105 -145l-122 9q6 125 65 197.5t157 72.5q82 0 136 -38t96 -78t93 -40q88 0 105 145l122 -9q-6 -127 -65 -198t-157 -71z" />
<glyph unicode="&#xd6;" horiz-adv-x="1454" d="M728 -27q-272 0 -443.5 203t-171.5 549q0 345 171.5 542t443.5 197q271 0 443 -197.5t172 -541.5q0 -346 -172 -549t-443 -203zM728 134q192 0 308 161t116 430q0 268 -116 423.5t-308 155.5q-193 0 -309 -155.5t-116 -423.5q0 -269 116 -430t309 -161zM954 1566 q-48 0 -77.5 31.5t-29.5 77.5q0 107 107 107q46 0 76.5 -29.5t30.5 -77.5q0 -46 -30.5 -77.5t-76.5 -31.5zM502 1566q-46 0 -76.5 31.5t-30.5 77.5q0 48 30.5 77.5t76.5 29.5q107 0 107 -107q0 -46 -29.5 -77.5t-77.5 -31.5z" />
<glyph unicode="&#xd7;" d="M207 276l-98 98l340 349l-340 346l98 99l339 -348l337 348l96 -99l-339 -346l339 -349l-96 -98l-337 351z" />
<glyph unicode="&#xd8;" horiz-adv-x="1454" d="M211 -65l-102 78l1147 1490l101 -77zM734 -27q-272 0 -442.5 203t-170.5 549q0 345 170.5 542t442.5 197t444 -197.5t172 -541.5q0 -346 -172 -549t-444 -203zM734 134q193 0 309 161t116 430q0 268 -116 423.5t-309 155.5t-309 -155.5t-116 -423.5q0 -269 116 -430 t309 -161z" />
<glyph unicode="&#xd9;" horiz-adv-x="1412" d="M708 -27q-221 0 -369.5 137t-148.5 484v843h182v-847q0 -262 96.5 -359t239.5 -97t241.5 97t98.5 359v847h175v-843q0 -347 -146.5 -484t-368.5 -137zM745 1527l-332 252l102 121l312 -281z" />
<glyph unicode="&#xda;" horiz-adv-x="1412" d="M708 -27q-221 0 -369.5 137t-148.5 484v843h182v-847q0 -262 96.5 -359t239.5 -97t241.5 97t98.5 359v847h175v-843q0 -347 -146.5 -484t-368.5 -137zM671 1527l-82 92l312 281l102 -121z" />
<glyph unicode="&#xdb;" horiz-adv-x="1412" d="M708 -27q-221 0 -369.5 137t-148.5 484v843h182v-847q0 -262 96.5 -359t239.5 -97t241.5 97t98.5 359v847h175v-843q0 -347 -146.5 -484t-368.5 -137zM384 1589l230 247h188l230 -247l-79 -57l-241 204h-8l-241 -204z" />
<glyph unicode="&#xdc;" horiz-adv-x="1412" d="M708 -27q-221 0 -369.5 137t-148.5 484v843h182v-847q0 -262 96.5 -359t239.5 -97t241.5 97t98.5 359v847h175v-843q0 -347 -146.5 -484t-368.5 -137zM934 1566q-48 0 -77.5 31.5t-29.5 77.5q0 107 107 107q46 0 76.5 -29.5t30.5 -77.5q0 -46 -30.5 -77.5t-76.5 -31.5z M482 1566q-46 0 -76.5 31.5t-30.5 77.5q0 48 30.5 77.5t76.5 29.5q107 0 107 -107q0 -46 -29.5 -77.5t-77.5 -31.5z" />
<glyph unicode="&#xdd;" horiz-adv-x="1042" d="M429 0v556l-431 881h195l186 -404q35 -80 69.5 -156.5t68.5 -157.5h9q38 81 75 157.5t70 156.5l184 404h190l-432 -881v-556h-184zM485 1527l-82 92l312 281l102 -121z" />
<glyph unicode="&#xde;" horiz-adv-x="1276" d="M197 0v1437h182v-241h259q238 0 384 -94t146 -328q0 -228 -147 -337t-383 -109h-259v-328h-182zM379 477h236q370 0 372 297q0 155 -92.5 214.5t-279.5 59.5h-236v-571z" />
<glyph unicode="&#xdf;" horiz-adv-x="1261" d="M849 -27q-90 0 -166 29t-144 79l72 128q113 -95 232 -96q90 0 137.5 53t47.5 123q0 96 -65.5 146t-150 89t-150.5 99.5t-66 173.5q0 99 48 163.5t96.5 128t48.5 155.5q0 84 -46 137.5t-136 53.5q-247 0 -247 -339v-1096h-180v1129q0 206 111.5 330t317.5 124 q173 0 265 -96t92 -224q0 -110 -49 -180.5t-99.5 -129t-50.5 -133.5q0 -80 66 -123.5t150 -84t149.5 -109.5t65.5 -202q0 -138 -93.5 -233t-255.5 -95z" />
<glyph unicode="&#xe0;" horiz-adv-x="1104" d="M607 1256l-344 335l128 120l308 -366zM477 119q77 0 145 37t145 105v295q-267 -33 -372.5 -99t-105.5 -168q0 -90 54.5 -130t133.5 -40zM425 -27q-134 0 -223 80.5t-89 222.5q0 176 157 269t497 130q0 101 -44 184.5t-175 83.5q-92 0 -173.5 -35.5t-144.5 -79.5l-70 125 q75 49 183.5 93.5t235.5 44.5q195 0 282.5 -119t87.5 -319v-653h-149l-16 127h-6q-77 -61 -165 -107.5t-188 -46.5z" />
<glyph unicode="&#xe1;" horiz-adv-x="1104" d="M546 1256l-92 89l309 366l126 -120zM477 119q77 0 145 37t145 105v295q-267 -33 -372.5 -99t-105.5 -168q0 -90 54.5 -130t133.5 -40zM425 -27q-134 0 -223 80.5t-89 222.5q0 176 157 269t497 130q0 101 -44 184.5t-175 83.5q-92 0 -173.5 -35.5t-144.5 -79.5l-70 125 q75 49 183.5 93.5t235.5 44.5q195 0 282.5 -119t87.5 -319v-653h-149l-16 127h-6q-77 -61 -165 -107.5t-188 -46.5z" />
<glyph unicode="&#xe2;" horiz-adv-x="1104" d="M236 1315l251 307h180l249 -307l-77 -71l-258 249h-9l-258 -249zM477 119q77 0 145 37t145 105v295q-267 -33 -372.5 -99t-105.5 -168q0 -90 54.5 -130t133.5 -40zM425 -27q-134 0 -223 80.5t-89 222.5q0 176 157 269t497 130q0 101 -44 184.5t-175 83.5 q-92 0 -173.5 -35.5t-144.5 -79.5l-70 125q75 49 183.5 93.5t235.5 44.5q195 0 282.5 -119t87.5 -319v-653h-149l-16 127h-6q-77 -61 -165 -107.5t-188 -46.5z" />
<glyph unicode="&#xe3;" horiz-adv-x="1104" d="M734 1265q-79 0 -129.5 46t-92 92t-91.5 46q-51 0 -74 -48q-25 -49 -29 -126l-121 7q4 129 57 214q51 84 164 84q80 0 130 -46t92 -92t94 -46q48 0 72.5 49.5t28.5 123.5l121 -9q-5 -127 -56 -211q-53 -84 -166 -84zM477 119q77 0 145 37t145 105v295 q-267 -33 -372.5 -99t-105.5 -168q0 -90 54.5 -130t133.5 -40zM425 -27q-134 0 -223 80.5t-89 222.5q0 176 157 269t497 130q0 101 -44 184.5t-175 83.5q-92 0 -173.5 -35.5t-144.5 -79.5l-70 125q75 49 183.5 93.5t235.5 44.5q195 0 282.5 -119t87.5 -319v-653h-149 l-16 127h-6q-77 -61 -165 -107.5t-188 -46.5z" />
<glyph unicode="&#xe4;" horiz-adv-x="1104" d="M786 1286q-46 0 -76 32q-31 32 -31 78t31 77q32 32 76 32q49 0 80 -32t31 -77q0 -46 -31 -78t-80 -32zM366 1286q-48 0 -79 32t-30 78q0 46 30 77q31 32 79 32q46 0 77 -32t30 -77q0 -46 -30 -78q-31 -32 -77 -32zM477 119q77 0 145 37t145 105v295q-267 -33 -372.5 -99 t-105.5 -168q0 -90 54.5 -130t133.5 -40zM425 -27q-134 0 -223 80.5t-89 222.5q0 176 157 269t497 130q0 101 -44 184.5t-175 83.5q-92 0 -173.5 -35.5t-144.5 -79.5l-70 125q75 49 183.5 93.5t235.5 44.5q195 0 282.5 -119t87.5 -319v-653h-149l-16 127h-6 q-77 -61 -165 -107.5t-188 -46.5z" />
<glyph unicode="&#xe5;" horiz-adv-x="1104" d="M577 1214q-109 0 -176 61q-65 61 -66 156q0 92 66 154q66 61 176 61q109 0 174 -61t66 -154q0 -95 -66 -156q-65 -61 -174 -61zM577 1295q52 0 88.5 36t35.5 100q0 61 -35 97q-37 36 -89 36q-53 0 -89 -36t-36 -97q0 -64 36 -100t89 -36zM477 119q77 0 145 37t145 105 v295q-267 -33 -372.5 -99t-105.5 -168q0 -90 54.5 -130t133.5 -40zM425 -27q-134 0 -223 80.5t-89 222.5q0 176 157 269t497 130q0 101 -44 184.5t-175 83.5q-92 0 -173.5 -35.5t-144.5 -79.5l-70 125q75 49 183.5 93.5t235.5 44.5q195 0 282.5 -119t87.5 -319v-653h-149 l-16 127h-6q-77 -61 -165 -107.5t-188 -46.5z" />
<glyph unicode="&#xe6;" horiz-adv-x="1719" d="M441 -27q-134 0 -224 80.5t-90 222.5q0 176 156 269t488 130q0 101 -42.5 184.5t-174.5 83.5q-87 0 -167 -35.5t-142 -79.5l-72 125q75 49 180 93.5t224 44.5t195.5 -61.5t108.5 -163.5q61 102 151 163.5t200 61.5q194 0 299.5 -137t105.5 -364q0 -61 -6 -101h-690 q6 -167 100 -267.5t230 -100.5q77 0 138 25t121 63l65 -126q-70 -43 -153 -76.5t-193 -33.5q-134 0 -224 60.5t-151 139.5q-222 -200 -433 -200zM941 609h538q0 339 -252 340q-109 0 -190 -92.5t-96 -247.5zM491 119q75 0 162 42t160 121q-37 86 -42 220v54 q-254 -33 -360 -99t-106 -168q0 -90 53.5 -130t132.5 -40z" />
<glyph unicode="&#xe7;" horiz-adv-x="998" d="M600 -27q-213 0 -356 146t-143 412q0 267 153.5 413.5t358.5 146.5q105 0 180 -37.5t131 -87.5l-92 -117q-46 41 -97 67.5t-114 26.5q-145 0 -239.5 -114t-94.5 -298q0 -182 91 -295t237 -113q75 0 137.5 31.5t113.5 75.5l79 -121q-154 -136 -345 -136zM406 -495l-19 87 q138 9 189 35t51 74q0 44 -37.5 68t-131.5 38l96 199h117l-64 -146q77 -17 118.5 -52.5t41.5 -102.5q0 -183 -361 -200z" />
<glyph unicode="&#xe8;" horiz-adv-x="1086" d="M609 1256l-344 335l128 120l308 -366zM611 -27q-213 0 -361.5 148.5t-148.5 409.5q0 175 69 300t177.5 192.5t231.5 67.5q203 0 314 -135.5t111 -363.5q0 -63 -7 -103h-719q11 -169 106.5 -269.5t248.5 -100.5q77 0 141.5 23t124.5 59l63 -118q-67 -43 -155.5 -76.5 t-195.5 -33.5zM276 618h570q0 331 -263 331q-111 0 -200.5 -86.5t-106.5 -244.5z" />
<glyph unicode="&#xe9;" horiz-adv-x="1086" d="M548 1256l-92 89l309 366l127 -120zM611 -27q-213 0 -361.5 148.5t-148.5 409.5q0 175 69 300t177.5 192.5t231.5 67.5q203 0 314 -135.5t111 -363.5q0 -63 -7 -103h-719q11 -169 106.5 -269.5t248.5 -100.5q77 0 141.5 23t124.5 59l63 -118q-67 -43 -155.5 -76.5 t-195.5 -33.5zM276 618h570q0 331 -263 331q-111 0 -200.5 -86.5t-106.5 -244.5z" />
<glyph unicode="&#xea;" horiz-adv-x="1086" d="M239 1315l250 307h180l249 -307l-77 -71l-258 249h-8l-259 -249zM611 -27q-213 0 -361.5 148.5t-148.5 409.5q0 175 69 300t177.5 192.5t231.5 67.5q203 0 314 -135.5t111 -363.5q0 -63 -7 -103h-719q11 -169 106.5 -269.5t248.5 -100.5q77 0 141.5 23t124.5 59l63 -118 q-67 -43 -155.5 -76.5t-195.5 -33.5zM276 618h570q0 331 -263 331q-111 0 -200.5 -86.5t-106.5 -244.5z" />
<glyph unicode="&#xeb;" horiz-adv-x="1086" d="M789 1286q-46 0 -76 32q-31 32 -31 78t31 77q31 32 76 32q48 0 79 -32t31 -77q0 -46 -31 -78t-79 -32zM368 1286q-48 0 -79 32t-30 78q0 46 30 77q31 32 79 32q46 0 77 -32t30 -77q0 -46 -30 -78q-31 -32 -77 -32zM611 -27q-213 0 -361.5 148.5t-148.5 409.5 q0 175 69 300t177.5 192.5t231.5 67.5q203 0 314 -135.5t111 -363.5q0 -63 -7 -103h-719q11 -169 106.5 -269.5t248.5 -100.5q77 0 141.5 23t124.5 59l63 -118q-67 -43 -155.5 -76.5t-195.5 -33.5zM276 618h570q0 331 -263 331q-111 0 -200.5 -86.5t-106.5 -244.5z" />
<glyph unicode="&#xec;" horiz-adv-x="538" d="M301 1256l-345 335l127 120l310 -366zM180 0v1065h180v-1065h-180z" />
<glyph unicode="&#xed;" horiz-adv-x="538" d="M239 1256l-92 89l309 366l127 -120zM180 0v1065h180v-1065h-180z" />
<glyph unicode="&#xee;" horiz-adv-x="538" d="M-71 1315l251 307h180l249 -307l-76 -71l-259 249h-9l-259 -249zM180 0v1065h180v-1065h-180z" />
<glyph unicode="&#xef;" horiz-adv-x="538" d="M480 1286q-46 0 -77 32t-31 78t31 77q31 32 77 32q49 0 79 -32q31 -32 31 -77q0 -46 -31 -78q-30 -32 -79 -32zM59 1286q-48 0 -78 32q-31 32 -31 78t31 77q31 32 78 32q46 0 77 -32t31 -77q0 -46 -31 -78t-77 -32zM180 0v1065h180v-1065h-180z" />
<glyph unicode="&#xf0;" horiz-adv-x="1194" d="M590 -27q-187 0 -330 137t-143 377q0 223 130 357.5t320 134.5q84 0 161 -34.5t133 -109.5q-31 133 -89.5 235.5t-144.5 185.5l-309 -160l-53 90l279 142q-55 44 -116.5 82.5t-128.5 75.5l82 114q79 -42 155.5 -91.5t147.5 -107.5l311 159l53 -90l-283 -144 q132 -134 215 -319t83 -444q0 -263 -130.5 -426.5t-342.5 -163.5zM594 123q146 0 220.5 120.5t74.5 312.5q0 64 -4 121q-73 97 -144.5 129.5t-146.5 32.5q-147 0 -227 -100.5t-80 -251.5q0 -165 91 -264.5t216 -99.5z" />
<glyph unicode="&#xf1;" horiz-adv-x="1198" d="M180 0v1065h148l17 -153h6q75 75 161 127t196 52q325 0 325 -416v-675h-180v651q0 148 -48.5 216t-153.5 68q-82 0 -146 -41t-145 -123v-771h-180zM797 1265q-79 0 -129 46t-91.5 92t-91.5 46q-51 0 -75.5 -48.5t-28.5 -125.5l-120 7q4 129 55.5 213.5t166.5 84.5 q79 0 128.5 -46t91.5 -92t94 -46q48 0 73 49.5t29 123.5l120 -9q-5 -127 -56.5 -211t-165.5 -84z" />
<glyph unicode="&#xf2;" horiz-adv-x="1187" d="M625 1256l-345 335l128 120l309 -366zM594 -27q-195 0 -344 146t-149 412q0 267 149 413.5t344 146.5t344 -147t149 -413t-149 -412t-344 -146zM594 123q138 0 222.5 113t84.5 295q0 184 -84.5 298t-222.5 114q-136 0 -221.5 -114t-85.5 -298q0 -182 85.5 -295 t221.5 -113z" />
<glyph unicode="&#xf3;" horiz-adv-x="1187" d="M563 1256l-92 89l309 366l127 -120zM594 -27q-195 0 -344 146t-149 412q0 267 149 413.5t344 146.5t344 -147t149 -413t-149 -412t-344 -146zM594 123q138 0 222.5 113t84.5 295q0 184 -84.5 298t-222.5 114q-136 0 -221.5 -114t-85.5 -298q0 -182 85.5 -295t221.5 -113z " />
<glyph unicode="&#xf4;" horiz-adv-x="1187" d="M255 1315l249 307h180l249 -307l-76 -71l-259 249h-8l-259 -249zM594 -27q-195 0 -344 146t-149 412q0 267 149 413.5t344 146.5t344 -147t149 -413t-149 -412t-344 -146zM594 123q138 0 222.5 113t84.5 295q0 184 -84.5 298t-222.5 114q-136 0 -221.5 -114t-85.5 -298 q0 -182 85.5 -295t221.5 -113z" />
<glyph unicode="&#xf5;" horiz-adv-x="1187" d="M751 1265q-79 0 -128 46q-51 46 -92.5 92t-91.5 46q-51 0 -75.5 -48.5t-28.5 -125.5l-120 7q4 129 55.5 213.5t166.5 84.5q79 0 128 -46q50 -46 92 -92t94 -46q48 0 73 49.5t29 123.5l120 -9q-5 -127 -56 -211q-52 -84 -166 -84zM594 -27q-195 0 -344 146t-149 412 q0 267 149 413.5t344 146.5t344 -147t149 -413t-149 -412t-344 -146zM594 123q138 0 222.5 113t84.5 295q0 184 -84.5 298t-222.5 114q-136 0 -221.5 -114t-85.5 -298q0 -182 85.5 -295t221.5 -113z" />
<glyph unicode="&#xf6;" horiz-adv-x="1187" d="M805 1286q-46 0 -77 32t-31 78t31 77q31 32 77 32q48 0 78 -32q31 -32 31 -77q0 -46 -31 -78q-30 -32 -78 -32zM383 1286q-48 0 -78 32q-31 32 -31 78t31 77q31 32 78 32q46 0 77 -32t31 -77q0 -46 -31 -78t-77 -32zM594 -27q-195 0 -344 146t-149 412q0 267 149 413.5 t344 146.5t344 -147t149 -413t-149 -412t-344 -146zM594 123q138 0 222.5 113t84.5 295q0 184 -84.5 298t-222.5 114q-136 0 -221.5 -114t-85.5 -298q0 -182 85.5 -295t221.5 -113z" />
<glyph unicode="&#xf7;" d="M546 999q-51 0 -86 33t-35 85q0 50 35 83.5t86 33.5q50 0 84 -33t34 -84q0 -52 -34 -85t-84 -33zM75 655v136h939v-136h-939zM546 211q-51 0 -86 32.5t-35 84.5q0 51 35 84t86 33q50 0 84 -33t34 -84q0 -52 -34 -84.5t-84 -32.5z" />
<glyph unicode="&#xf8;" horiz-adv-x="1187" d="M278 539q0 -144 50 -248l469 568q-83 88 -203 88q-136 0 -226 -114t-90 -294zM594 119q138 0 227 111t89 293q0 145 -53 251l-466 -571q82 -84 203 -84zM594 -27q-173 0 -305 108l-107 -131l-81 63l118 142q-54 71 -86 165t-32 211q0 267 149 413.5t344 146.5 q173 0 305 -109l109 133l79 -63l-119 -142q55 -71 87 -166.5t32 -212.5q0 -266 -149 -412t-344 -146z" />
<glyph unicode="&#xf9;" horiz-adv-x="1191" d="M627 1256l-345 335l128 120l309 -366zM491 -27q-326 0 -326 418v674h182v-651q0 -149 47 -217t152 -68q81 0 147 43t139 137v756h180v-1065h-149l-14 167h-8q-75 -88 -158 -141t-192 -53z" />
<glyph unicode="&#xfa;" horiz-adv-x="1191" d="M565 1256l-92 89l309 366l128 -120zM491 -27q-326 0 -326 418v674h182v-651q0 -149 47 -217t152 -68q81 0 147 43t139 137v756h180v-1065h-149l-14 167h-8q-75 -88 -158 -141t-192 -53z" />
<glyph unicode="&#xfb;" horiz-adv-x="1191" d="M257 1315l249 307h180l249 -307l-76 -71l-259 249h-8l-259 -249zM491 -27q-326 0 -326 418v674h182v-651q0 -149 47 -217t152 -68q81 0 147 43t139 137v756h180v-1065h-149l-14 167h-8q-75 -88 -158 -141t-192 -53z" />
<glyph unicode="&#xfc;" horiz-adv-x="1191" d="M807 1286q-46 0 -77 32t-31 78t31 77q31 32 77 32q48 0 78 -32q31 -32 31 -77q0 -46 -31 -78q-30 -32 -78 -32zM385 1286q-48 0 -78 32q-31 32 -31 78t31 77q31 32 78 32q46 0 77 -32t31 -77q0 -46 -31 -78t-77 -32zM491 -27q-326 0 -326 418v674h182v-651 q0 -149 47 -217t152 -68q81 0 147 43t139 137v756h180v-1065h-149l-14 167h-8q-75 -88 -158 -141t-192 -53z" />
<glyph unicode="&#xfd;" horiz-adv-x="1022" d="M502 1256l-92 89l309 366l127 -120zM197 -458q-65 0 -124 21l34 144q15 -4 38.5 -10t42.5 -6q90 0 149.5 64.5t91.5 163.5l25 79l-427 1067h186l216 -590q25 -67 52 -146.5t52 -153.5h8q25 73 46.5 152t43.5 148l191 590h175l-401 -1153q-57 -157 -146.5 -263.5 t-252.5 -106.5z" />
<glyph unicode="&#xfe;" horiz-adv-x="1215" d="M621 125q131 0 217 113t86 310q0 175 -64.5 284t-215.5 109q-123 0 -284 -146v-559q72 -61 140 -86t121 -25zM180 -449v2009h180v-425l-3 -182q71 55 154 96.5t171 41.5q210 0 319.5 -148t109.5 -395q0 -272 -139.5 -423.5t-320.5 -151.5q-77 0 -149.5 31t-144.5 88 l3 -182v-359h-180z" />
<glyph unicode="&#xff;" horiz-adv-x="1022" d="M743 1286q-46 0 -76 32q-31 32 -31 78t31 77q31 32 76 32q48 0 79 -32t31 -77q0 -46 -31 -78t-79 -32zM322 1286q-48 0 -79 32t-30 78q0 46 30 77q31 32 79 32q46 0 77 -32t30 -77q0 -46 -30 -78q-31 -32 -77 -32zM197 -458q-65 0 -124 21l34 144q15 -4 38.5 -10t42.5 -6 q90 0 149.5 64.5t91.5 163.5l25 79l-427 1067h186l216 -590q25 -67 52 -146.5t52 -153.5h8q25 73 46.5 152t43.5 148l191 590h175l-401 -1153q-57 -157 -146.5 -263.5t-252.5 -106.5z" />
<glyph unicode="&#x152;" horiz-adv-x="1855" d="M809 0q-326 0 -511 190.5t-185 534.5q0 342 186 527t518 185h910v-153h-610v-452h509v-155h-509v-522h631v-155h-939zM830 149h105v1139h-105q-261 0 -394 -144.5t-133 -418.5q0 -273 133 -424.5t394 -151.5z" />
<glyph unicode="&#x153;" horiz-adv-x="1838" d="M579 -27q-193 0 -335.5 146t-142.5 412q0 267 145 413.5t337 146.5q123 0 226 -69t159 -198q61 125 160 196t215 71q197 0 304.5 -137t107.5 -364q0 -61 -7 -101h-698q6 -167 102.5 -267.5t232.5 -100.5q74 0 139 25t124 63l66 -126q-70 -43 -156 -76.5t-195 -33.5 q-125 0 -227.5 72t-165.5 194q-124 -266 -391 -266zM1050 609h548q0 165 -69.5 252.5t-189.5 87.5q-110 0 -192 -92.5t-97 -247.5zM583 123q132 0 215 113t83 295q0 184 -83 298t-215 114q-131 0 -214.5 -114t-83.5 -298q0 -182 83.5 -295t214.5 -113z" />
<glyph unicode="&#x2c6;" horiz-adv-x="1187" d="M255 1315l249 307h180l249 -307l-76 -71l-259 249h-8l-259 -249z" />
<glyph unicode="&#x2dc;" horiz-adv-x="1187" d="M751 1265q-79 0 -128 46q-51 46 -92.5 92t-91.5 46q-51 0 -75.5 -48.5t-28.5 -125.5l-120 7q4 129 55.5 213.5t166.5 84.5q79 0 128 -46q50 -46 92 -92t94 -46q48 0 73 49.5t29 123.5l120 -9q-5 -127 -56 -211q-52 -84 -166 -84z" />
<glyph unicode="&#x2000;" horiz-adv-x="964" />
<glyph unicode="&#x2001;" horiz-adv-x="1928" />
<glyph unicode="&#x2002;" horiz-adv-x="964" />
<glyph unicode="&#x2003;" horiz-adv-x="1928" />
<glyph unicode="&#x2004;" horiz-adv-x="642" />
<glyph unicode="&#x2005;" horiz-adv-x="482" />
<glyph unicode="&#x2006;" horiz-adv-x="321" />
<glyph unicode="&#x2007;" horiz-adv-x="321" />
<glyph unicode="&#x2008;" horiz-adv-x="241" />
<glyph unicode="&#x2009;" horiz-adv-x="385" />
<glyph unicode="&#x200a;" horiz-adv-x="107" />
<glyph unicode="&#x2010;" horiz-adv-x="680" d="M90 480v138h504v-138h-504z" />
<glyph unicode="&#x2011;" horiz-adv-x="680" d="M90 480v138h504v-138h-504z" />
<glyph unicode="&#x2012;" horiz-adv-x="680" d="M90 480v138h504v-138h-504z" />
<glyph unicode="&#x2013;" horiz-adv-x="1051" d="M90 489v124h872v-124h-872z" />
<glyph unicode="&#x2014;" horiz-adv-x="1752" d="M90 489v124h1573v-124h-1573z" />
<glyph unicode="&#x2018;" horiz-adv-x="544" d="M263 938q-138 0 -138 197q0 257 232 390l53 -85q-84 -54 -125.5 -117t-41.5 -155q8 3 20 3q44 0 80 -29t36 -84q0 -54 -32.5 -87t-83.5 -33z" />
<glyph unicode="&#x2019;" horiz-adv-x="544" d="M188 945l-50 83q81 55 123 117t42 157q-9 -2 -18 -3q-46 0 -81 29t-35 81q0 57 32.5 90t83.5 33q138 0 138 -200q0 -251 -235 -387z" />
<glyph unicode="&#x201a;" horiz-adv-x="544" d="M188 -318l-50 83q81 55 123 117t42 157q-9 -2 -18 -3q-46 0 -81 29t-35 81q0 57 32.5 90t83.5 33q138 0 138 -200q0 -251 -235 -387z" />
<glyph unicode="&#x201c;" horiz-adv-x="933" d="M263 938q-138 0 -138 197q0 257 232 390l53 -85q-84 -54 -125.5 -117t-41.5 -155q8 3 20 3q44 0 80 -29t36 -84q0 -54 -32.5 -87t-83.5 -33zM650 938q-138 0 -138 197q0 257 232 390l53 -85q-84 -54 -125.5 -117t-41.5 -155q8 3 20 3q44 0 80 -29t36 -84q0 -54 -32.5 -87 t-83.5 -33z" />
<glyph unicode="&#x201d;" horiz-adv-x="933" d="M188 945l-50 83q81 55 123 117t42 157q-9 -2 -18 -3q-46 0 -81 29t-35 81q0 57 32.5 90t83.5 33q138 0 138 -200q0 -251 -235 -387zM575 945l-50 83q81 55 123 117t42 157q-9 -2 -18 -3q-46 0 -81 29t-35 81q0 57 32.5 90t83.5 33q138 0 138 -200q0 -251 -235 -387z" />
<glyph unicode="&#x201e;" horiz-adv-x="933" d="M188 -318l-50 83q81 55 123 117t42 157q-9 -2 -18 -3q-46 0 -81 29t-35 81q0 57 32.5 90t83.5 33q138 0 138 -200q0 -251 -235 -387zM575 -318l-50 83q81 55 123 117t42 157q-9 -2 -18 -3q-46 0 -81 29t-35 81q0 57 32.5 90t83.5 33q138 0 138 -200q0 -251 -235 -387z " />
<glyph unicode="&#x2022;" horiz-adv-x="665" d="M333 314q-99 0 -172 72t-73 191t73 191.5t172 72.5q98 0 172 -73.5t74 -190.5q0 -119 -74 -191t-172 -72z" />
<glyph unicode="&#x2026;" horiz-adv-x="2076" d="M337 -27q-55 0 -93.5 38.5t-38.5 97.5q0 61 38.5 100.5t93.5 39.5q52 0 90.5 -39t38.5 -101q0 -59 -38.5 -97.5t-90.5 -38.5zM1071 -27q-55 0 -93.5 38.5t-38.5 97.5q0 61 38.5 100.5t93.5 39.5q52 0 90.5 -39t38.5 -101q0 -59 -38.5 -97.5t-90.5 -38.5zM1806 -27 q-55 0 -93.5 38.5t-38.5 97.5q0 61 38.5 100.5t93.5 39.5q52 0 90.5 -39t38.5 -101q0 -59 -38.5 -97.5t-90.5 -38.5z" />
<glyph unicode="&#x202f;" horiz-adv-x="385" />
<glyph unicode="&#x2039;" horiz-adv-x="593" d="M397 144l-299 341v136l299 339l78 -65l-258 -343l258 -345z" />
<glyph unicode="&#x203a;" horiz-adv-x="593" d="M195 144l-76 63l258 345l-258 343l76 65l300 -339v-136z" />
<glyph unicode="&#x2044;" horiz-adv-x="188" d="M-366 -27l793 1491h123l-793 -1491h-123z" />
<glyph unicode="&#x205f;" horiz-adv-x="482" />
<glyph unicode="&#x20ac;" d="M1076 178q-72 -95 -164 -150t-213 -55q-197 0 -334 143t-175 399h-140v94l130 9q-2 40 -2 79q0 35 2 70h-130v96l140 11q38 259 181.5 404.5t358.5 145.5q98 0 183.5 -49t142.5 -122l-107 -103q-46 57 -101 93.5t-125 36.5q-144 0 -233 -108.5t-116 -297.5h557v-107h-565 q-2 -31 -2 -64q0 -44 2 -82h477v-106h-466q29 -187 114.5 -291.5t218.5 -104.5q82 0 142 39t116 116z" />
<glyph unicode="&#x2212;" d="M75 655v136h939v-136h-939z" />
<glyph unicode="&#x25fc;" horiz-adv-x="1062" d="M0 1063h1063v-1063h-1063v1063z" />
<glyph horiz-adv-x="0" d="M37 1527l-332 252l102 121l312 -281z" />
<glyph horiz-adv-x="803" d="M403 -27q-148 0 -237 119t-89 337q0 215 89 333.5t237 118.5q147 0 237 -118.5t90 -333.5q0 -219 -90 -337.5t-237 -118.5zM403 86q84 0 136.5 86.5t52.5 256.5q0 171 -52.5 255.5t-136.5 84.5q-85 0 -137.5 -84.5t-52.5 -255.5t52.5 -257t137.5 -86z" />
<glyph horiz-adv-x="803" d="M239 328h244v155l8 238h-8l-111 -177zM736 228h-127v-228h-126v228h-391v73l360 554h157v-527h127v-100z" />
<glyph horiz-adv-x="0" d="M-324 1589l230 247h188l230 -247l-79 -57l-241 204h-8l-241 -204z" />
<glyph horiz-adv-x="803" d="M113 0v81q199 180 302.5 293t103.5 209q0 84 -45 132t-119 48q-54 0 -101 -36.5t-83 -88.5l-83 77q48 75 122.5 120.5t161.5 45.5q128 0 206.5 -70.5t78.5 -205.5q0 -123 -91 -233.5t-227 -250.5h362v-121h-588z" />
<glyph horiz-adv-x="803" d="M377 0v675h-187v92q73 13 121.5 34t91.5 54h114v-855h-140z" />
<glyph horiz-adv-x="803" d="M395 -27q-103 0 -185.5 47t-132.5 120l94 73q86 -127 216 -127q68 0 120 39.5t52 113.5q0 75 -70.5 113.5t-195.5 38.5v89q109 0 171 43.5t62 109.5q0 61 -42.5 98.5t-113.5 37.5q-48 0 -93 -29.5t-80 -72.5l-86 73q55 64 123.5 102.5t158.5 38.5q109 0 190 -61t81 -169 q0 -77 -41.5 -128.5t-107.5 -81.5q72 -17 128 -71t56 -140q0 -119 -89.5 -188t-214.5 -69z" />
<glyph horiz-adv-x="0" d="M165 1554q-82 0 -136 38.5t-96 77.5t-93 39q-93 0 -105 -145l-122 9q6 125 65 197.5t157 72.5q82 0 136 -38t96 -78t93 -40q88 0 105 145l122 -9q-6 -127 -65 -198t-157 -71z" />
<glyph horiz-adv-x="0" d="M226 1566q-48 0 -77.5 31.5t-29.5 77.5q0 107 107 107q46 0 76.5 -29.5t30.5 -77.5q0 -46 -30.5 -77.5t-76.5 -31.5zM-226 1566q-46 0 -76.5 31.5t-30.5 77.5q0 48 30.5 77.5t76.5 29.5q107 0 107 -107q0 -46 -29.5 -77.5t-77.5 -31.5z" />
<glyph horiz-adv-x="0" d="M-37 1527l-82 92l312 281l102 -121z" />
</font>
</defs>
</svg>
