<?xml version="1.0" standalone="no"?>
<!DOCTYPE svg PUBLIC "-//W3C//DTD SVG 1.1//EN" "http://www.w3.org/Graphics/SVG/1.1/DTD/svg11.dtd" >
<svg xmlns="http://www.w3.org/2000/svg" xmlns:xlink="http://www.w3.org/1999/xlink" version="1.1">
<metadata></metadata>
<defs>
<font id="hindregular" horiz-adv-x="1127" >
<font-face units-per-em="2048" ascent="1638" descent="-410" />
<missing-glyph horiz-adv-x="508" />
<glyph unicode="&#xfb01;" horiz-adv-x="1073" d="M929 1059v-1059h-164v925h-356v-925h-164v925h-183v134h183v99q0 154 83 243.5t236 89.5q150 0 291 -70v-153q-74 38 -140 56.5t-145 18.5q-161 0 -161 -187v-97h520z" />
<glyph unicode="&#xfb02;" horiz-adv-x="1064" d="M245 1059v99q0 155 82.5 244t234.5 89q63 0 129 -14.5t119.5 -36.5t102.5 -51v-1389h-163v1310q-89 33 -170 33q-37 0 -66 -8.5t-54 -28.5t-38 -58t-13 -92v-97h235v-134h-235v-925h-164v925h-183v134h183z" />
<glyph horiz-adv-x="0" />
<glyph horiz-adv-x="682" />
<glyph horiz-adv-x="0" />
<glyph horiz-adv-x="0" />
<glyph unicode="&#xd;" horiz-adv-x="0" />
<glyph unicode=" "  horiz-adv-x="508" />
<glyph unicode="&#x09;" horiz-adv-x="508" />
<glyph unicode="&#xa0;" horiz-adv-x="508" />
<glyph unicode="!" horiz-adv-x="524" d="M182 426v982h161v-982h-161zM136 106q0 51 35 87.5t88 36.5t89.5 -36.5t36.5 -87.5q0 -53 -36 -87.5t-90 -34.5t-88.5 34.5t-34.5 87.5z" />
<glyph unicode="&#x22;" horiz-adv-x="616" d="M92 927v496h149v-496h-149zM378 927v496h146v-496h-146z" />
<glyph unicode="#" horiz-adv-x="1483" d="M887 487l93 430h-374l-92 -430h373zM1373 917h-243l-90 -430h224v-132h-251l-75 -355h-153l76 355h-374l-76 -355h-148l76 355h-228v132h254l90 430h-232v134h261l76 357h150l-75 -357h374l75 357h148l-74 -357h215v-134z" />
<glyph unicode="$" horiz-adv-x="1054" d="M871 1356v-178q-37 24 -87 43t-107 30t-109 11q-128 0 -202.5 -59.5t-74.5 -155.5q0 -24 5.5 -45.5t13 -38.5t23 -34.5t28 -30.5t36.5 -28t39.5 -24t45.5 -23.5t46.5 -21.5t49.5 -22q16 -7 24 -10q33 -15 57 -26t55.5 -27.5t54 -31.5t48.5 -35t44 -40.5t35.5 -46.5 t28.5 -54t17.5 -62t6.5 -72q0 -114 -52.5 -199.5t-140.5 -131.5t-204 -55v-215h-145v217q-169 16 -290 85v182q46 -35 106 -61t129 -40t137 -14q132 0 208 59t76 168q0 23 -5.5 44.5t-13 38.5t-23 34.5t-28.5 30t-37 27.5t-40 24t-46 23.5t-47 21.5t-51 22q-26 11 -39 17 q-41 18 -71 32.5t-67 36.5t-62.5 43.5t-52 51t-43 61.5t-26.5 73.5t-10 87.5q0 112 54.5 196.5t144.5 130.5t204 54v217h144v-222q125 -14 213 -58z" />
<glyph unicode="%" horiz-adv-x="1768" d="M430 -2l746 1391h161l-751 -1391h-156zM1007 315.5q0 89.5 44 166t120 121.5t166 45q89 0 165 -45t120.5 -121.5t44.5 -166t-44.5 -165.5t-120 -120t-165.5 -44t-166 44t-120 120t-44 165.5zM102 1076q0 66 26.5 127t70.5 105.5t105.5 71t127.5 26.5q90 0 166.5 -45 t121.5 -121t45 -164q0 -90 -45 -166.5t-121.5 -121t-166 -44.5t-165.5 44.5t-120.5 121t-44.5 166.5zM247 1076q0 -78 54.5 -133.5t130.5 -55.5q52 0 95 25.5t68 69t25 94.5q0 77 -55 131.5t-133 54.5q-76 0 -130.5 -54.5t-54.5 -131.5zM1149 315q0 -76 55.5 -130.5 t132.5 -54.5q78 0 133 54.5t55 130.5q0 78 -55 133.5t-133 55.5q-77 0 -132.5 -55.5t-55.5 -133.5z" />
<glyph unicode="&#x26;" horiz-adv-x="1467" d="M658 136q197 0 326 105q-77 71 -172.5 159.5t-158 146t-83.5 77.5q-133 -50 -198 -110t-65 -145q0 -106 98 -169.5t253 -63.5zM664 1291q-61 0 -110 -22.5t-78 -69t-29 -109.5q0 -45 16.5 -88t55 -93.5t105.5 -119.5q139 65 203 133.5t64 155.5q0 59 -23.5 106t-76 77 t-127.5 30zM1465 0h-224l-142 132q-168 -148 -437 -148q-156 0 -276.5 49t-185 136t-64.5 198q0 85 38.5 152.5t110.5 117.5t181 92q-99 107 -145 189.5t-46 173.5q0 157 107.5 253t283.5 96q71 0 133.5 -18t110 -50.5t81.5 -77.5t52 -99.5t18 -115.5q0 -120 -76 -215.5 t-256 -179.5l353 -330q50 91 58 205h159q-12 -178 -99 -313z" />
<glyph unicode="'" horiz-adv-x="331" d="M92 927v496h149v-496h-149z" />
<glyph unicode="(" horiz-adv-x="646" d="M668 -409h-184q-164 209 -249 454t-85 501q0 254 85.5 496t234.5 435h182q-329 -445 -329 -940q0 -239 88 -483t257 -463z" />
<glyph unicode=")" horiz-adv-x="646" d="M180 1477q149 -193 234 -435t85 -496q0 -256 -85.5 -500.5t-250.5 -454.5h-183q168 219 255.5 462.5t87.5 483.5q0 501 -327 940h184z" />
<glyph unicode="*" horiz-adv-x="851" d="M522 1019h-14q39 -21 66 -62l118 -163l-108 -80l-118 163q-31 45 -40 82q-8 -39 -39 -84l-120 -161l-108 78l118 165q32 42 66 60h-18q-36 0 -74 13l-191 62l40 130l195 -62q43 -14 81 -48q-19 44 -19 96v200h134v-200q0 -55 -17 -92q32 31 82 46l192 60l41 -128 l-191 -62q-36 -13 -76 -13z" />
<glyph unicode="+" horiz-adv-x="1154" d="M1038 785v-150h-390v-394h-155v394h-374v150h374v395h155v-395h390z" />
<glyph unicode="," horiz-adv-x="469" d="M-16 -257l193 468h220l-269 -468h-144z" />
<glyph unicode="-" horiz-adv-x="726" d="M119 489v144h489v-144h-489z" />
<glyph unicode="." horiz-adv-x="345" d="M50 106q0 52 35.5 88t87.5 36t88 -36t36 -88t-35.5 -87t-88 -35t-88 35t-35.5 87z" />
<glyph unicode="/" horiz-adv-x="841" d="M-18 -213l760 1690h169l-763 -1690h-166z" />
<glyph unicode="0" horiz-adv-x="1136" d="M90 687q0 160 34.5 291t97 220t150 137t192.5 48q221 0 352 -186.5t131 -509.5q0 -209 -54.5 -366t-164.5 -247t-264 -90q-143 0 -250.5 87t-165.5 246.5t-58 369.5zM259 687q0 -130 24.5 -235t66.5 -172.5t96.5 -103.5t117.5 -36q144 0 228.5 142.5t84.5 404.5 q0 133 -24.5 237.5t-67.5 169.5t-99.5 98.5t-121.5 33.5q-47 0 -91 -20.5t-83 -64.5t-68 -106.5t-46 -152t-17 -195.5z" />
<glyph unicode="1" horiz-adv-x="674" d="M38 992v178l323 196h155v-1366h-163v1186z" />
<glyph unicode="2" horiz-adv-x="1031" d="M307 144h635v-144h-862v140q101 76 188 150t174 162t148 169.5t99 169t38 164.5q0 130 -75 199.5t-203 69.5q-51 0 -108 -15t-113 -43t-105 -65v165q69 53 161 84t180 31t165 -26t138 -75.5t96.5 -129t35.5 -179.5q0 -98 -42.5 -203t-122.5 -210t-186 -207.5t-241 -206.5 z" />
<glyph unicode="3" horiz-adv-x="973" d="M121 1142v162q48 31 126 54t154 23q103 0 186 -29.5t134.5 -79.5t78.5 -114.5t27 -136.5q0 -111 -55.5 -198.5t-163.5 -130.5q119 -28 189 -110t70 -206q0 -80 -29 -150t-83.5 -123.5t-140.5 -84t-194 -30.5q-84 0 -179 18t-161 50v165q154 -81 336 -81q133 0 207.5 69.5 t74.5 179.5t-83 169.5t-237 59.5h-87v145h87q76 0 138 27.5t101 83.5t39 131q0 111 -69 167t-190 56q-69 0 -144 -24.5t-132 -61.5z" />
<glyph unicode="4" d="M255 476h457v792zM1078 476v-143h-203v-333h-163v333h-624v143l520 890h267v-890h203z" />
<glyph unicode="5" horiz-adv-x="1062" d="M353 1222v-409q93 20 163 20q208 0 330.5 -110t122.5 -297q0 -202 -132.5 -322t-362.5 -120q-207 0 -351 70v163q61 -36 150.5 -57.5t173.5 -21.5q172 0 261.5 73.5t89.5 220.5q0 81 -38.5 138.5t-103.5 85t-150 27.5q-154 0 -316 -73v756h685v-144h-522z" />
<glyph unicode="6" horiz-adv-x="1098" d="M594 130q119 0 189 87.5t70 229.5q0 130 -70.5 207t-182.5 77q-94 0 -179.5 -42t-147.5 -111q8 -221 95.5 -334.5t225.5 -113.5zM927 1375v-161q-87 40 -190 40q-80 0 -149.5 -28t-121 -75.5t-90.5 -113.5t-62.5 -141.5t-34.5 -160.5q65 68 156 106t185 38 q188 0 296 -119t108 -315q0 -138 -53 -244.5t-151 -165t-226 -58.5q-118 0 -211 48t-153 134.5t-91 203t-31 255.5q0 131 26.5 249.5t79 216.5t127 170t175.5 112t219 40q95 0 192 -31z" />
<glyph unicode="7" horiz-adv-x="941" d="M26 1366h891v-144l-566 -1222h-176l567 1222h-716v144z" />
<glyph unicode="8" horiz-adv-x="1118" d="M554 130q72 0 128.5 19.5t91 53t52.5 76t18 90.5q0 38 -10.5 72t-32.5 64.5t-55.5 53t-82.5 35t-109 12.5q-72 -1 -127.5 -22t-88 -57t-49 -80t-16.5 -94q0 -95 73.5 -159t207.5 -64zM552 1234q-60 0 -109 -19t-80.5 -51.5t-48.5 -75t-17 -89.5q0 -61 20.5 -108t57 -75.5 t83.5 -43t102 -14.5q72 0 128.5 27t90.5 82.5t34 133.5q0 100 -67 166.5t-194 66.5zM760 685q118 -36 185.5 -118.5t67.5 -211.5q0 -112 -62 -197.5t-166 -129.5t-233 -44q-124 0 -224.5 42.5t-161 125.5t-60.5 193q0 123 66 209.5t181 126.5q-105 40 -164 121.5t-59 194.5 q0 74 23 137.5t63.5 108t94.5 76.5t115 47t126 15q55 0 107 -10.5t100 -30.5t88.5 -52.5t70 -74.5t46 -98t16.5 -121q0 -106 -58.5 -186.5t-161.5 -122.5z" />
<glyph unicode="9" horiz-adv-x="1052" d="M802 769v10q0 74 -9 138.5t-31 123t-55 99.5t-84 65.5t-115 24.5q-120 0 -190.5 -79.5t-70.5 -217.5q0 -143 75 -220.5t204 -77.5q172 0 276 134zM134 23v163q108 -48 229 -48q195 0 300 121.5t131 352.5q-56 -65 -129 -94t-181 -29q-53 0 -104 13.5t-96.5 39.5t-83.5 65 t-66 87.5t-43.5 109.5t-15.5 129q0 95 29.5 176.5t83 142.5t135 96t181.5 35q79 0 146 -22t117 -62.5t88.5 -96t62 -123.5t35.5 -143t12 -157q0 -181 -36.5 -326t-108.5 -250.5t-186.5 -162t-264.5 -56.5q-121 0 -235 39z" />
<glyph unicode=":" horiz-adv-x="490" d="M123 794q0 50 35 85.5t87 35.5t87 -35.5t35 -85.5q0 -54 -35 -88t-87 -34q-35 0 -62.5 15.5t-43.5 43t-16 63.5zM123 119q0 53 35 88.5t87 35.5q34 0 62 -16.5t44 -44.5t16 -63q0 -52 -35 -86.5t-87 -34.5t-87 34.5t-35 86.5z" />
<glyph unicode=";" horiz-adv-x="469" d="M146 792q0 50 35 85.5t86.5 35.5t87.5 -35.5t36 -85.5q0 -52 -36 -87t-88 -35t-86.5 34.5t-34.5 87.5zM-16 -257l193 468h220l-269 -468h-144z" />
<glyph unicode="&#x3c;" horiz-adv-x="1100" d="M119 633v159l880 392v-169q-552 -228 -706 -301q70 -35 246.5 -111.5t317.5 -134.5l142 -59v-171z" />
<glyph unicode="=" horiz-adv-x="1154" d="M119 851v141h919v-141h-919zM119 428v144h919v-144h-919z" />
<glyph unicode="&#x3e;" horiz-adv-x="1100" d="M982 792v-159l-880 -395v171q548 226 705 305q-32 15 -88 39.5t-120 52t-134.5 57.5t-134.5 56.5t-115.5 48t-81.5 34.5l-31 13v169z" />
<glyph unicode="?" horiz-adv-x="943" d="M94 1172v167q38 24 89 43t116 31t129 12q200 0 318.5 -101t118.5 -282q0 -74 -24.5 -137t-65 -106t-94.5 -75t-110.5 -48.5t-115.5 -21.5l-2 -228h-158l-2 347q126 0 214.5 28t137.5 87.5t49 147.5q0 52 -16.5 94.5t-49 75.5t-86 51.5t-122.5 18.5q-163 0 -326 -104z M249 106q0 25 9 47.5t25 39.5t38.5 27t47.5 10q53 0 90.5 -36.5t37.5 -87.5q0 -53 -37 -87.5t-91 -34.5q-34 0 -61.5 15.5t-43 43.5t-15.5 63z" />
<glyph unicode="@" horiz-adv-x="1890" d="M897 173q83 0 157.5 59t107.5 163q4 76 8 115q-16 106 -70 162.5t-155 56.5q-110 0 -180.5 -91.5t-70.5 -223.5q0 -72 25.5 -127t71.5 -84.5t106 -29.5zM1241 -119l-9 -160q-141 -72 -367 -72q-171 0 -311 58t-233.5 160t-144.5 241t-51 301q0 107 24 207.5t69 186.5 t107 161t140 132.5t167 99t189.5 63t204.5 21.5q125 0 239.5 -32t210 -95t166.5 -150t110.5 -203t39.5 -248q0 -100 -21.5 -184.5t-58 -143t-84.5 -100t-100 -61t-105 -19.5q-193 0 -245 179q-53 -88 -132 -136.5t-177 -48.5q-103 0 -179.5 52t-114.5 138.5t-38 193.5 q0 123 52.5 225t145.5 161t205 59q166 0 246 -134q1 13 2 29.5t2 30.5t2.5 31.5t1.5 32.5h139l-31 -289q-9 -111 -9 -179q0 -105 31.5 -158.5t106.5 -53.5q91 0 153 101.5t62 262.5q0 115 -31.5 212.5t-88.5 168t-135 120.5t-171.5 74t-198.5 24q-83 0 -164 -18 t-153.5 -52.5t-137 -83t-116 -111.5t-88.5 -135t-57 -157t-20 -174q0 -122 31.5 -224.5t87 -174t130 -122t159 -74t176.5 -23.5q211 0 372 90z" />
<glyph unicode="A" horiz-adv-x="1353" d="M428 514h499l-26 82q-88 262 -142.5 431t-66.5 207l-11 38q-26 -88 -226 -678zM1099 0l-124 369h-595l-125 -369h-182l491 1408h234l482 -1408h-181z" />
<glyph unicode="B" horiz-adv-x="1192" d="M330 144h320q133 0 205 62t72 181q0 120 -79.5 186.5t-229.5 66.5h-288v-496zM330 1264v-481h226q87 0 152.5 20.5t104 56t56.5 80.5t18 98q0 47 -18 87t-53.5 71.5t-95 49.5t-136.5 18h-254zM161 1408h423q144 0 252 -45t167.5 -128.5t59.5 -196.5q0 -61 -18 -115.5 t-50.5 -95.5t-77 -70t-96.5 -41q55 -9 103.5 -33.5t89.5 -64.5t65 -102.5t24 -139.5q0 -82 -27.5 -150.5t-80.5 -119t-134.5 -78.5t-185.5 -28h-514v1408z" />
<glyph unicode="C" horiz-adv-x="1256" d="M1166 1352v-174q-91 49 -164.5 69.5t-192.5 20.5q-111 0 -208.5 -40t-169 -111.5t-113 -177t-41.5 -229.5q0 -129 40 -235.5t112 -179.5t174 -113t224 -40q96 0 187 29.5t156 77.5v-178q-65 -43 -159.5 -65t-195.5 -22q-156 0 -287.5 50t-226.5 142t-148 229t-53 305 q0 158 55 293t150 227.5t225 144.5t279 52q217 0 357 -75z" />
<glyph unicode="D" horiz-adv-x="1380" d="M333 148h251q78 0 146 16t121 44.5t96.5 69t74.5 89t51.5 105.5t30.5 117.5t10 124.5q0 112 -39 211t-107.5 173t-170 117t-221.5 43h-243v-1110zM161 1408h417q154 0 286 -51t225.5 -141.5t146.5 -220t53 -281.5q0 -116 -28 -222t-86 -195.5t-140.5 -155.5 t-197.5 -103.5t-251 -37.5h-425v1408z" />
<glyph unicode="E" horiz-adv-x="1046" d="M330 148h617v-148h-786v1408h775v-148h-606v-483h535v-149h-535v-480z" />
<glyph unicode="F" horiz-adv-x="1021" d="M933 1260h-603v-500h531v-148h-531v-612h-169v1408h772v-148z" />
<glyph unicode="G" horiz-adv-x="1399" d="M1260 789v-672h-2l2 -6q-77 -58 -192.5 -92.5t-244.5 -34.5q-160 0 -293.5 49.5t-228.5 141t-148 228t-53 303.5q0 159 53 295t145 230.5t221 148t277 53.5q249 0 412 -96v-181q-170 112 -397 112q-117 0 -215.5 -40t-169 -112.5t-110 -178t-39.5 -231.5 q0 -262 146.5 -411t403.5 -149q142 0 263 57v439h-309v147h479z" />
<glyph unicode="H" horiz-adv-x="1342" d="M1013 1408h169v-1408h-169v638h-683v-638h-169v1408h169v-619h683v619z" />
<glyph unicode="I" horiz-adv-x="515" d="M173 0v1408h170v-1408h-170z" />
<glyph unicode="J" horiz-adv-x="747" d="M62 46v163q82 -54 176 -54q182 0 182 192v1061h170v-1047q0 -99 -25.5 -171t-71.5 -112.5t-103.5 -59t-128.5 -18.5q-49 0 -105 12.5t-94 33.5z" />
<glyph unicode="K" horiz-adv-x="1196" d="M161 0v1408h169v-1408h-169zM572 696l566 -696h-219l-556 696l538 712h208z" />
<glyph unicode="L" horiz-adv-x="995" d="M330 153h599v-153h-768v1408h169v-1255z" />
<glyph unicode="M" horiz-adv-x="1790" d="M146 0l103 1408h215l186 -513q48 -135 104.5 -299.5t88.5 -260.5l32 -97q122 344 239 657l194 513h215l123 -1408h-169l-48 556q-13 141 -25.5 297t-18.5 242l-6 85q-111 -310 -228 -624l-196 -524h-161l-186 524l-213 612q0 -14 -5 -98t-14.5 -228.5t-20.5 -285.5 l-40 -556h-169z" />
<glyph unicode="N" horiz-adv-x="1405" d="M161 0v1408h213l353 -593q109 -181 198.5 -333.5t123.5 -214.5l35 -62q-8 204 -8 608v595h169v-1408h-213l-353 590q-107 177 -197 331t-126 219l-37 66q11 -218 11 -612v-594h-169z" />
<glyph unicode="O" horiz-adv-x="1461" d="M100 710q0 219 77 383t220 253t334 89q197 0 340.5 -89.5t218 -252.5t74.5 -383q0 -219 -76 -383t-219 -253.5t-336 -89.5q-141 0 -259 51.5t-200.5 145.5t-128 230t-45.5 299zM277 710q0 -261 125 -413.5t331 -152.5q215 0 333 150.5t118 415.5t-118 415.5t-335 150.5 q-213 0 -333.5 -151t-120.5 -415z" />
<glyph unicode="P" horiz-adv-x="1138" d="M330 662h218q80 0 144.5 22.5t106.5 62t64 92.5t22 116q0 142 -92 225.5t-261 83.5h-202v-602zM161 1408h369q123 0 222.5 -34t166 -94t102.5 -143.5t36 -181.5q0 -92 -36 -172.5t-101 -139t-161 -92t-211 -33.5h-218v-518h-169v1408z" />
<glyph unicode="Q" horiz-adv-x="1481" d="M277 710q0 -261 125 -413.5t331 -152.5q215 0 333 150.5t118 415.5t-118 415.5t-335 150.5q-213 0 -333.5 -151t-120.5 -415zM1427 -219l-184 -78l-418 287q-44 -6 -92 -6q-141 0 -259 51.5t-200.5 145.5t-128 230t-45.5 299q0 219 77 383t220 253t334 89 q197 0 340.5 -89.5t218 -252.5t74.5 -383q0 -160 -42.5 -293.5t-122 -229t-190.5 -147.5z" />
<glyph unicode="R" horiz-adv-x="1144" d="M330 1262v-562h213q97 0 165 38t99.5 100.5t31.5 141.5q0 282 -315 282h-194zM1096 0h-201l-345 556h-18h-202v-556h-169v1408h353q244 0 370.5 -114.5t126.5 -318.5q-3 -146 -76.5 -248.5t-207.5 -144.5z" />
<glyph unicode="S" horiz-adv-x="1094" d="M899 1356v-178q-56 37 -140.5 60.5t-164.5 23.5q-128 0 -203.5 -59.5t-75.5 -155.5q0 -23 5.5 -44t12.5 -38t22 -34t27 -29.5t35 -27.5t38 -24t43.5 -23t45 -21.5t48.5 -21.5q7 -3 10 -5l2 -1q51 -22 77.5 -34t72.5 -36.5t71.5 -44.5t58.5 -52t49.5 -64.5t29 -77 t12.5 -95.5q0 -93 -34.5 -167.5t-96.5 -122.5t-144.5 -73t-179.5 -25q-102 0 -202 23.5t-174 65.5v182q69 -53 169.5 -84t202.5 -31q132 0 207 59t75 168q0 37 -14 69.5t-34.5 55.5t-56.5 47t-67 39.5t-80 37.5q-13 6 -39 17q-51 23 -77 35t-72 37t-71.5 45t-58 51.5 t-49.5 64t-29 76.5t-12 94q0 91 35.5 164t97 120.5t143.5 73t176 25.5q181 0 309 -65z" />
<glyph unicode="T" horiz-adv-x="1006" d="M967 1408v-148h-381v-1260h-168v1260h-380v148h929z" />
<glyph unicode="U" horiz-adv-x="1346" d="M1019 530v878h169v-874q0 -271 -136.5 -410.5t-381.5 -139.5q-240 0 -375.5 137t-135.5 397v890h169v-888q0 -100 26 -174t73 -118t107.5 -65t135.5 -21q349 0 349 388z" />
<glyph unicode="V" horiz-adv-x="1330" d="M1256 1408l-491 -1408h-213l-477 1408h182l184 -557q63 -193 117.5 -367.5t78.5 -252.5l23 -78q82 264 225 698l189 557h182z" />
<glyph unicode="W" horiz-adv-x="1959" d="M903 1387h169l154 -502l213 -714q97 462 155 712l119 525h171l-330 -1408h-217l-135 445q-63 204 -116 380t-74 250l-22 74q-65 -247 -201 -704l-131 -445h-215l-368 1408h178l132 -523l173 -708q116 429 198 708z" />
<glyph unicode="X" horiz-adv-x="1280" d="M534 710l-428 698h199l323 -545q9 17 164 276t161 269h200l-426 -698l473 -710h-199l-368 566q-5 -10 -173.5 -279t-177.5 -287h-200z" />
<glyph unicode="Y" horiz-adv-x="1238" d="M1184 1408l-482 -884v-524h-170v522l-478 886h197l106 -206q68 -133 119.5 -235.5t77 -154.5t41 -85t18.5 -42l3 -8q19 53 265 525l107 206h196z" />
<glyph unicode="Z" horiz-adv-x="1188" d="M1049 1408v-138l-744 -1126h775v-144h-972v140l745 1124h-734v144h930z" />
<glyph unicode="[" horiz-adv-x="646" d="M642 1331h-319v-1563h319v-150h-481v1859h481v-146z" />
<glyph unicode="\" horiz-adv-x="839" d="M100 1477l761 -1692h-167l-763 1692h169z" />
<glyph unicode="]" horiz-adv-x="646" d="M487 1477v-1859h-481v150h317v1563h-317v146h481z" />
<glyph unicode="^" horiz-adv-x="962" d="M869 694h-165l-220 434l-225 -434h-165l297 547h189z" />
<glyph unicode="_" horiz-adv-x="1170" d="M58 -209v145h1056v-145h-1056z" />
<glyph unicode="`" horiz-adv-x="879" d="M439 1667l205 -326h-145l-258 326h198z" />
<glyph unicode="a" horiz-adv-x="1027" d="M723 489h-184q-135 0 -201.5 -52t-66.5 -132t53 -128.5t152 -48.5q113 0 180 63t67 162v136zM175 837v166q54 33 139.5 53t174.5 20q206 0 302 -103t96 -303v-670h-162v125q-15 -24 -37.5 -45.5t-57.5 -43t-87 -34t-115 -12.5q-97 0 -173 40t-116.5 110.5t-40.5 158.5 q0 152 116 236.5t316 84.5h193v55q0 126 -56.5 189t-190.5 63q-76 0 -158.5 -24.5t-142.5 -65.5z" />
<glyph unicode="b" horiz-adv-x="1190" d="M635 134q127 0 210.5 107t83.5 277q0 100 -24 178.5t-66 128t-96.5 75t-118.5 25.5q-38 0 -77 -11t-80 -40t-72.5 -71.5t-51.5 -111.5t-20 -154q0 -89 18.5 -159.5t48.5 -115.5t71 -74.5t84 -41.5t90 -12zM323 1477v-576q22 32 47.5 59.5t56 49t65 36t73.5 22.5t81 8 q131 0 234.5 -69t162 -196t58.5 -291q0 -85 -18.5 -163.5t-56 -146.5t-90.5 -118.5t-126.5 -79t-159.5 -28.5q-212 0 -327 173v-157h-164v1477h164z" />
<glyph unicode="c" horiz-adv-x="983" d="M261 524q1 -81 26 -152t73 -126.5t124 -88t172 -32.5q59 0 120 19.5t105 49.5v-156q-28 -18 -70 -32t-88 -21.5t-88 -7.5q-102 0 -190 29t-152.5 80t-110.5 120t-69 150.5t-23 169.5q0 85 22.5 165.5t69 150.5t111 123t154 83t193.5 30q55 0 120.5 -14.5t120.5 -44.5 v-156q-45 31 -109 47.5t-116 16.5q-90 0 -165.5 -32t-125 -87t-77 -128t-27.5 -156z" />
<glyph unicode="d" horiz-adv-x="1184" d="M556 134q47 0 90 12t84 41.5t71 74.5t48 115.5t18 159.5q0 85 -20 154t-51.5 111.5t-72.5 71.5t-80 40t-77 11q-64 0 -118.5 -25.5t-96.5 -75t-66 -128t-24 -178.5q0 -170 84 -277t211 -107zM867 1477h165v-1477h-165v157q-114 -173 -326 -173q-87 0 -160.5 28.5 t-126.5 79t-90.5 118.5t-55.5 146.5t-18 163.5q0 123 34 227t94 176t144.5 112.5t183.5 40.5q103 0 184.5 -46t136.5 -131v578z" />
<glyph unicode="e" horiz-adv-x="1090" d="M827 598v42q0 132 -71 209.5t-196 77.5q-120 0 -203 -85.5t-98 -243.5h568zM925 209v-155q-38 -20 -92 -35t-107.5 -22t-101.5 -7q-159 0 -280.5 66.5t-187.5 188.5t-66 281q0 127 35.5 230.5t98.5 172.5t149 106t187 37q97 0 176 -32t136.5 -93t88.5 -154t31 -211 q0 -66 -10 -122h-723q19 -158 119.5 -241t263.5 -83q75 0 153 18.5t130 54.5z" />
<glyph unicode="f" horiz-adv-x="686" d="M658 1477v-151q-54 17 -96 17q-66 0 -109.5 -45.5t-43.5 -141.5v-97h235v-134h-235v-925h-164v925h-183v134h183v99q0 154 81.5 243.5t229.5 89.5q50 0 102 -14z" />
<glyph unicode="g" horiz-adv-x="1146" d="M550 173q41 0 81 12.5t78.5 40t67.5 67t47 100t18 133.5q0 85 -17.5 154.5t-45.5 114t-65.5 75t-76 43t-79.5 12.5q-90 0 -157.5 -49.5t-102.5 -137.5t-35 -201q0 -75 17.5 -136.5t46 -103t66.5 -70t77.5 -41.5t79.5 -13zM842 1059h165v-973q0 -100 -25 -181.5 t-68.5 -137.5t-104 -94.5t-131 -56t-150.5 -17.5q-193 0 -327 64v166q44 -26 98 -43.5t108 -26t107 -8.5q153 0 240.5 82t87.5 255v119q-50 -86 -129 -132.5t-183 -46.5q-86 0 -164 32.5t-140 94t-98 159.5t-36 218q0 116 30.5 215.5t86 171.5t136.5 113.5t177 41.5 q218 0 320 -191v176z" />
<glyph unicode="h" d="M315 1477v-602q47 99 132 149t203 50q153 0 245.5 -94t92.5 -255v-725h-165v685q0 116 -59.5 178t-155.5 62q-54 0 -105 -21.5t-93.5 -62t-68.5 -109t-26 -154.5v-578h-162v1477h162z" />
<glyph unicode="i" horiz-adv-x="486" d="M161 0v1059h164v-1059h-164zM136 1391.5q0 45.5 31 76.5t76 31t76.5 -31.5t31.5 -76.5t-31.5 -75.5t-76.5 -30.5t-76 30.5t-31 76z" />
<glyph unicode="j" horiz-adv-x="475" d="M-96 -376v146q83 -33 142 -33q117 0 117 152v1170h162v-1174q0 -92 -32 -157.5t-93 -100t-146 -34.5q-69 0 -150 31zM136 1391.5q0 45.5 31 76.5t76 31t76.5 -31.5t31.5 -76.5t-31.5 -75.5t-76.5 -30.5t-76 30.5t-31 76z" />
<glyph unicode="k" horiz-adv-x="1002" d="M153 0v1469h162v-1469h-162zM530 556l431 -556h-198l-426 556l415 503h197z" />
<glyph unicode="l" horiz-adv-x="486" d="M161 0v1477h164v-1477h-164z" />
<glyph unicode="m" horiz-adv-x="1708" d="M315 1059v-172q43 92 120.5 139.5t178.5 47.5q244 0 309 -207q31 67 79.5 114.5t108 70t125.5 22.5q84 0 148.5 -25.5t104.5 -72t60 -109t20 -140.5v-727h-165v685q0 240 -202 240q-31 0 -61 -9.5t-59.5 -28t-54.5 -48t-44 -66.5t-30 -87t-11 -108v-578h-165v685 q0 240 -203 240q-46 0 -91 -21.5t-83 -62.5t-61.5 -109.5t-23.5 -153.5v-578h-162v1059h162z" />
<glyph unicode="n" d="M315 1059v-184q31 65 80.5 110t113.5 67t141 22t140 -24.5t107 -69t67.5 -109t23.5 -142.5v-729h-165v685q0 60 -16 106t-45 75t-68 44t-86 15q-56 0 -108 -22.5t-93.5 -65t-66.5 -109.5t-25 -150v-578h-162v1059h162z" />
<glyph unicode="o" horiz-adv-x="1173" d="M582 -18q-92 0 -171 27t-137.5 76.5t-100 116.5t-62.5 148.5t-21 171.5q0 92 22 175.5t65 152t102.5 119t137 78t165.5 27.5q122 0 218.5 -42.5t158 -117.5t93.5 -174t32 -213.5t-33.5 -214t-96 -173t-158.5 -115.5t-214 -42zM582 927q-61 0 -113.5 -21.5t-90.5 -59 t-64.5 -88.5t-39.5 -110t-13 -124q0 -107 37.5 -196t112 -144.5t171.5 -55.5q81 0 145 31.5t104 86.5t61 126t21 152q0 66 -11.5 124t-37 110t-63 89t-93.5 58.5t-126 21.5z" />
<glyph unicode="p" horiz-adv-x="1184" d="M618 134q64 0 119 25.5t97 75t65.5 127.5t23.5 177q0 173 -83.5 279.5t-211.5 106.5q-45 0 -87.5 -11.5t-84.5 -40t-72.5 -72.5t-49.5 -114t-19 -159q0 -86 20 -156t51 -113t72 -72.5t81 -41t79 -11.5zM315 1059v-160q113 177 329 177q85 0 158 -27.5t126 -77t91 -117 t56.5 -147.5t18.5 -168q0 -160 -56 -286t-160 -197.5t-238 -71.5q-105 0 -187.5 46t-137.5 131v-572h-162v1470h162z" />
<glyph unicode="q" horiz-adv-x="1184" d="M566 134q40 0 79.5 11.5t80.5 41t71.5 73t50 113t19.5 155.5q0 75 -13 136t-36 103.5t-52.5 74t-65 49.5t-71 26t-73.5 8q-128 0 -211.5 -107t-83.5 -279q0 -99 24 -177t65.5 -127.5t96.5 -75t119 -25.5zM867 1059h165v-1470h-165v570q-55 -83 -137 -129t-184 -46 q-135 0 -239 71.5t-160.5 197.5t-56.5 286q0 88 18.5 168t56.5 147.5t91.5 117t127 77t159.5 27.5q210 0 324 -173v156z" />
<glyph unicode="r" horiz-adv-x="680" d="M315 1059v-186q84 197 289 197q32 0 58 -5v-162q-44 14 -90 14q-74 0 -134 -49.5t-91.5 -126.5t-31.5 -163v-578h-165l3 1059h162z" />
<glyph unicode="s" horiz-adv-x="859" d="M729 1024v-157q-43 27 -114.5 42.5t-148.5 15.5q-83 0 -132 -38.5t-49 -99.5q0 -21 6 -39.5t14.5 -33t26 -29t30.5 -24t39 -22.5t41 -19.5t46 -20.5q12 -5 18 -7q35 -15 62.5 -28t58 -30.5t53.5 -35.5t44.5 -41.5t35 -49t21.5 -58t8 -67.5q0 -91 -42.5 -157t-123 -101.5 t-188.5 -35.5q-93 0 -177 18t-135 46v161q67 -39 146 -61t155 -22q97 0 146.5 37.5t49.5 101.5q0 32 -12 58.5t-30 45.5t-52 39t-64.5 34t-81.5 34q-43 17 -76.5 34t-70 44t-60.5 57t-40 73t-16 93q0 89 47 155.5t125 100t175 33.5q168 0 265 -46z" />
<glyph unicode="t" horiz-adv-x="770" d="M380 925v-620q0 -169 159 -169q38 0 77.5 13t66.5 35v-156q-30 -17 -75 -27.5t-80 -10.5q-162 0 -237.5 81t-75.5 238v616h-169v134h169v263h165v-263h292v-134h-292z" />
<glyph unicode="u" d="M811 1059h164v-1059h-164v184q-84 -196 -333 -196q-156 0 -247 92.5t-91 249.5v729h165v-687q0 -77 27.5 -130.5t76 -79.5t113.5 -26q131 0 210 91.5t79 248.5v583z" />
<glyph unicode="v" horiz-adv-x="1054" d="M422 0l-370 1059h171l146 -447q37 -110 66 -200t45 -140t26.5 -84.5t14.5 -46.5l3 -11q20 90 157 482l150 447h172l-379 -1059h-202z" />
<glyph unicode="w" horiz-adv-x="1654" d="M378 0l-326 1059h175l103 -351q54 -183 91 -319.5t47 -182.5l10 -45q31 134 152 549l101 349h176l102 -349q56 -190 95.5 -328t50.5 -180l11 -43q29 123 160 551l107 349h169l-334 -1059h-203l-100 347q-51 176 -87.5 308t-47.5 176l-11 44q-31 -134 -142 -528l-97 -347 h-202z" />
<glyph unicode="x" horiz-adv-x="997" d="M592 541l355 -541h-191l-257 418l-265 -418h-182l355 543l-334 518h190l241 -397l242 397h187z" />
<glyph unicode="y" horiz-adv-x="1029" d="M445 28l-429 1031h187l138 -349q74 -190 120.5 -310t55.5 -145l9 -25q18 54 168 480l123 349h177l-382 -1031q-42 -112 -93.5 -190.5t-110 -121t-117.5 -61t-128 -18.5q-53 0 -88 10v148q32 -8 71 -8q212 0 299 241z" />
<glyph unicode="z" horiz-adv-x="945" d="M825 1059v-121l-543 -790h573v-148h-763v130l536 783h-515v146h712z" />
<glyph unicode="{" horiz-adv-x="697" d="M670 1473v-163q-37 19 -68 19q-64 0 -98 -44t-34 -111q0 -56 22 -161.5t22 -166.5q0 -117 -65.5 -197.5t-189.5 -100.5q123 -20 189 -102t66 -197q0 -63 -22 -169t-22 -162q0 -43 14 -77t44.5 -55.5t73.5 -21.5q33 0 68 19v-161q-45 -17 -98 -17q-113 0 -192 85.5 t-79 225.5q0 56 22 154.5t22 144.5q0 97 -45 163t-139 86q-18 4 -61 4v160q32 0 61 5q89 14 136.5 81.5t47.5 162.5q0 47 -22 145t-22 154q0 141 79 227t192 86q44 0 98 -16z" />
<glyph unicode="|" horiz-adv-x="475" d="M163 -405v1856h150v-1856h-150z" />
<glyph unicode="}" horiz-adv-x="697" d="M28 1310v163q53 16 97 16q55 0 104.5 -22t86.5 -61.5t59 -99t22 -130.5q0 -56 -22 -154t-22 -145q0 -95 47.5 -162.5t136.5 -81.5q29 -5 61 -5v-160q-43 0 -61 -4q-94 -20 -139 -86.5t-45 -162.5q0 -46 22 -144.5t22 -154.5q0 -140 -79 -225.5t-193 -85.5q-53 0 -97 17 v161q35 -19 70 -19q63 0 96 44t33 110q0 56 -20.5 162t-20.5 169q0 115 65.5 197t187.5 102q-122 20 -187.5 100.5t-65.5 197.5q0 61 20.5 166.5t20.5 161.5q0 67 -33 111t-96 44q-33 0 -70 -19z" />
<glyph unicode="~" horiz-adv-x="1250" d="M1053 681l123 -87q-59 -92 -130.5 -140.5t-168.5 -48.5q-51 0 -104 16t-97.5 38.5t-86.5 45.5t-84.5 39t-78.5 16q-140 0 -240 -144l-111 96q34 47 72 84t78.5 62t85 38.5t90.5 13.5q58 0 113 -16t98 -38.5t83.5 -45t84 -38.5t83.5 -16q117 0 190 125z" />
<glyph unicode="&#xa1;" horiz-adv-x="524" d="M136 957q0 53 35 88t88 35q54 0 90 -35t36 -88q0 -51 -36.5 -87.5t-89.5 -36.5t-88 36.5t-35 87.5zM182 -345v983h161v-983h-161z" />
<glyph unicode="&#xa2;" horiz-adv-x="943" d="M861 1024v-155q-96 52 -197 52q-73 0 -136.5 -20t-111 -56.5t-81.5 -86t-51.5 -109t-18.5 -125.5q1 -81 27 -151t74.5 -124t125 -84.5t172.5 -30.5q111 0 197 50v-154q-67 -33 -163 -44v-218h-144v222q-73 9 -136.5 34t-113.5 62.5t-89.5 85.5t-65.5 104.5t-39.5 119.5 t-13.5 130q0 98 30.5 187.5t87 162.5t144.5 123.5t196 65.5v220h144v-215q89 -11 163 -46z" />
<glyph unicode="&#xa3;" horiz-adv-x="1090" d="M337 144h672v-144h-881v138q120 57 163.5 139.5t43.5 242.5q0 27 -5 90h-192v132h177q-16 142 -16 196q0 211 111.5 325t314.5 114q121 0 226 -53v-162q-54 31 -102.5 44.5t-106.5 13.5q-274 0 -274 -273q0 -63 16 -205h377v-132h-364q5 -79 5 -88q0 -57 -6 -105 t-17.5 -84.5t-25.5 -65.5t-33.5 -52t-39 -39.5t-43.5 -31.5z" />
<glyph unicode="&#xa4;" horiz-adv-x="1134" d="M115 646q0 149 84 267l-128 127l106 102l126 -127q120 86 271 86q146 0 263 -77l122 118l104 -102l-121 -121q79 -117 79 -261q0 -147 -88 -269l130 -128l-104 -102l-130 128q-118 -82 -267 -82q-152 0 -263 74l-122 -120l-106 102l123 121q-79 111 -79 264zM257 654 q0 -135 88 -224t223 -89t222 88t87 223q0 134 -87.5 223.5t-221.5 89.5q-135 0 -223 -88.5t-88 -222.5z" />
<glyph unicode="&#xa5;" horiz-adv-x="1221" d="M1146 1366l-331 -610h248v-123h-315l-56 -103v-81h371v-121h-371v-328h-172v328h-370v121h370v79l-56 105h-314v123h247l-328 610h192l345 -672l349 672h191z" />
<glyph unicode="&#xa6;" horiz-adv-x="475" d="M313 767h-150v692h150v-692zM313 -372h-150v691h150v-691z" />
<glyph unicode="&#xa7;" horiz-adv-x="1068" d="M275 626q0 -23 5.5 -44.5t13 -39t22.5 -35t28 -30.5t36.5 -28.5t40 -25t47 -24t49 -23t53.5 -23.5q141 -64 170 -80q52 62 52 151q0 28 -8 53t-19 44.5t-32.5 39.5t-40 34t-50.5 31.5t-54.5 29t-61.5 29.5q-29 14 -95.5 42t-100.5 44q-55 -61 -55 -145zM871 1356v-178 q-37 24 -87 43t-107 30t-109 11q-87 0 -149 -22.5t-95 -66t-33 -105.5q0 -26 6.5 -48t17 -38.5t29 -32.5t37 -27t47 -24t52 -23t59.5 -24.5t63 -27.5q37 -17 59.5 -27.5t56.5 -28.5t55 -32t49 -35t45.5 -41t36.5 -46.5t29 -54t17 -62t7 -72.5q0 -149 -90 -249 q86 -89 86 -221q0 -92 -34.5 -164.5t-95.5 -119t-143 -70.5t-178 -24q-104 0 -203.5 23.5t-175.5 67.5v183q72 -54 170.5 -85.5t201.5 -31.5q135 0 209.5 56t74.5 163q0 30 -7.5 55.5t-24.5 48t-37.5 40.5t-54 38t-67 36.5t-82.5 38.5q-6 3 -17 8q-53 23 -80.5 35.5 t-75.5 38t-74 45.5t-59.5 52.5t-51 65t-30 76.5t-12.5 94q0 139 88 237q-79 78 -79 200q0 88 35 158t96.5 113.5t141.5 66t174 22.5q181 0 309 -65z" />
<glyph unicode="&#xa8;" horiz-adv-x="879" d="M121 1511q0 45 31 75.5t78 30.5q45 0 76 -30.5t31 -75.5q0 -46 -31.5 -78t-75.5 -32q-47 0 -78 32t-31 78zM543 1511q0 45 31 75.5t76 30.5q30 0 55 -14t39 -38.5t14 -54t-14 -54.5t-39 -40t-55 -15q-45 0 -76 32t-31 78z" />
<glyph unicode="&#xa9;" horiz-adv-x="1620" d="M90 702q0 145 57.5 279t154.5 231t230.5 155t278.5 58t278.5 -58t230 -155t154 -231t57.5 -279t-57.5 -278t-154 -230t-230 -154.5t-278.5 -57.5t-278.5 57.5t-230.5 154.5t-154.5 230t-57.5 278zM230 701.5q0 -118.5 46 -226t124.5 -185.5t186.5 -124.5t226 -46.5 t226 46.5t186 124.5t124 185.5t46 226t-46 227t-124 187t-186 125t-226 46.5t-226 -46.5t-186.5 -125t-124.5 -187t-46 -227zM612 698q2 -114 73 -188.5t186 -74.5q43 0 89 14.5t74 37.5v-136q-30 -20 -80 -32t-95 -12q-52 0 -99.5 10.5t-86.5 30.5t-72 47.5t-58 61.5 t-42 72.5t-26 82t-9 88.5q1 77 27.5 147.5t75 125.5t124.5 88t168 33q99 0 173 -41v-136q-34 23 -79.5 35.5t-83.5 12.5q-115 0 -187 -74t-72 -193z" />
<glyph unicode="&#xaa;" horiz-adv-x="730" d="M528 1228h-131q-122 0 -185.5 -39t-63.5 -115q0 -65 45 -105t128 -40q90 0 148.5 52.5t58.5 123.5v123zM69 1525v136q47 27 120 46t144 19q89 0 153.5 -22.5t104.5 -67t58.5 -107t18.5 -146.5v-564h-136v112q-40 -54 -104.5 -87t-142.5 -33q-127 0 -204 70t-77 189 q0 129 99 201t269 72h156v44q0 106 -46.5 160.5t-160.5 54.5q-42 0 -87.5 -9.5t-87.5 -27t-77 -40.5z" />
<glyph unicode="&#xab;" horiz-adv-x="1002" d="M552 867l-305 -339l305 -338h-183l-313 338l313 339h183zM940 867l-305 -339l305 -338h-182l-313 338l313 339h182z" />
<glyph unicode="&#xac;" horiz-adv-x="1146" d="M1070 335h-153v379h-865v149h1018v-528z" />
<glyph unicode="&#xad;" horiz-adv-x="726" d="M119 489v144h489v-144h-489z" />
<glyph unicode="&#xae;" horiz-adv-x="937" d="M424 1360v-134h52q61 0 61 67q0 37 -16.5 52t-50.5 15h-46zM333 1435h127q170 0 170 -142q0 -90 -74 -125l112 -180h-108l-96 163h-40v-163h-91v447zM472 848q104 0 183 44t122.5 123.5t43.5 181.5q0 158 -96 254.5t-253 96.5q-159 0 -254 -96.5t-95 -254.5 q0 -156 95.5 -252.5t253.5 -96.5zM470 1646q128 0 230 -57.5t159.5 -160.5t57.5 -230.5t-57.5 -229.5t-159.5 -159t-230 -57q-129 0 -231.5 57t-160.5 159t-58 229.5t58 230.5t160.5 160.5t231.5 57.5z" />
<glyph unicode="&#xaf;" horiz-adv-x="879" d="M733 1447h-589v118h589v-118z" />
<glyph unicode="&#xb0;" horiz-adv-x="741" d="M62 1107q0 131 89.5 218t222.5 87t219 -83.5t86 -214.5q0 -132 -89.5 -219.5t-222.5 -87.5t-219 83.5t-86 216.5zM194 1109q0 -75 52.5 -127.5t127.5 -52.5t123.5 52t48.5 128q0 75 -52 128.5t-127 53.5q-49 0 -89 -24.5t-62 -66.5t-22 -91z" />
<glyph unicode="&#xb1;" horiz-adv-x="1154" d="M119 62v147h919v-147h-919zM648 835h390v-143h-390v-353h-155v353h-374v143h374v353h155v-353z" />
<glyph unicode="&#xb2;" horiz-adv-x="761" d="M98 819v102q65 49 121.5 97t111.5 104.5t94 108.5t63 107t24 103q0 81 -44.5 121t-116.5 40q-56 0 -114.5 -24t-108.5 -65v143q112 70 227 70q58 0 110.5 -18t94 -51t66 -86.5t24.5 -119.5q0 -122 -100.5 -258t-264.5 -260h396v-114h-583z" />
<glyph unicode="&#xb3;" horiz-adv-x="678" d="M215 1331h50q76 0 127 37t51 105q0 67 -40.5 99t-111.5 32q-43 0 -96 -18t-97 -47v132q38 23 91.5 39t105.5 16q70 0 125 -19.5t89.5 -53.5t52.5 -77.5t18 -92.5q0 -82 -43.5 -135.5t-120.5 -71.5q78 -6 134 -66.5t56 -148.5q0 -112 -77.5 -181t-217.5 -69 q-58 0 -124.5 14t-113.5 38v125q107 -59 232 -59q76 0 120.5 38t44.5 101q0 70 -53 109t-152 39h-50v115z" />
<glyph unicode="&#xb4;" horiz-adv-x="879" d="M241 1341l206 326h197l-259 -326h-144z" />
<glyph unicode="&#xb5;" horiz-adv-x="1140" d="M823 1059h165v-1059h-165v161q-74 -173 -277 -173q-138 0 -231 79v-441h-162v1433h162v-687q0 -75 38 -130t94.5 -80.5t122.5 -25.5q118 0 185.5 91t67.5 249v583z" />
<glyph unicode="&#xb6;" horiz-adv-x="1138" d="M598 1408v-1717h-149v1021q-96 0 -172.5 27.5t-124.5 75t-73 109t-25 131.5q0 66 25.5 128t74 113t127.5 81.5t177 30.5h140zM837 -309v1717h149v-1717h-149z" />
<glyph unicode="&#xb7;" horiz-adv-x="484" d="M119 666q0 52 36 87.5t88 35.5t87 -35.5t35 -87.5q0 -17 -4 -33t-12 -29.5t-19 -25t-24.5 -19.5t-29.5 -12t-33 -4q-52 0 -88 35.5t-36 87.5z" />
<glyph unicode="&#xb8;" horiz-adv-x="879" d="M596 -255q0 -54 -19.5 -101.5t-57.5 -85t-99 -60t-138 -24.5v121q86 6 131 44t45 104q0 70 -49 151h149q18 -25 28 -67.5t10 -81.5z" />
<glyph unicode="&#xb9;" horiz-adv-x="522" d="M20 1441v136l245 140h109v-898h-129v746z" />
<glyph unicode="&#xba;" horiz-adv-x="785" d="M389 807q-94 0 -171 35.5t-127 97.5t-76.5 145t-26.5 179t28.5 181t79.5 148t127 100t166 37q99 0 178 -36.5t128 -100t75 -146.5t26 -179q0 -98 -27 -181.5t-77 -146t-128 -98t-175 -35.5zM389 1606q-82 0 -141.5 -48.5t-87.5 -124.5t-28 -167q0 -92 30 -168.5 t90 -123.5t139 -47q85 0 145.5 47.5t88 122.5t27.5 169q0 55 -8.5 103.5t-28 92.5t-49 75.5t-75 50t-102.5 18.5z" />
<glyph unicode="&#xbb;" horiz-adv-x="1006" d="M243 867l315 -339l-315 -338h-183l307 338l-307 339h183zM630 867l317 -339l-317 -338h-181l307 338l-307 339h181z" />
<glyph unicode="&#xbc;" horiz-adv-x="1737" d="M359 586v747l-223 -123v135l246 140h109v-899h-132zM1243 1487h148l-942 -1487h-148zM1109 313h278v481zM1644 313v-106h-129v-207h-128v207h-412v106l343 584h197v-584h129z" />
<glyph unicode="&#xbd;" horiz-adv-x="1739" d="M1074 0v102q65 49 122 97.5t111.5 104t93.5 108t62.5 107.5t23.5 103q0 81 -44.5 121t-116.5 40q-56 0 -114.5 -24.5t-108.5 -64.5v143q113 70 228 70q59 0 112 -17.5t94 -51t65.5 -86.5t24.5 -119q0 -122 -100.5 -258t-264.5 -260h394v-115h-582zM136 1210v135l246 140 h109v-899h-132v747zM301 0l942 1487h148l-942 -1487h-148z" />
<glyph unicode="&#xbe;" horiz-adv-x="1808" d="M175 1308v131q38 23 91.5 38.5t105.5 15.5q138 0 212 -69t74 -172q0 -82 -44.5 -136t-120.5 -72q78 -6 134 -66.5t56 -148.5q0 -111 -77.5 -181t-216.5 -70q-59 0 -126 14t-113 38v126q105 -58 232 -58q77 0 121.5 37t44.5 100q0 70 -53 109.5t-152 39.5h-50v115h50 q75 0 126 37.5t51 104.5t-40.5 99.5t-112.5 32.5q-42 0 -94.5 -18t-97.5 -47zM1360 1487h149l-941 -1487h-150zM1226 313h278v479zM1761 313v-106h-130v-207h-127v207h-412v106l343 584h196v-584h130z" />
<glyph unicode="&#xbf;" horiz-adv-x="943" d="M865 -108v-167q-38 -24 -89 -43t-116 -31t-130 -12q-131 0 -228.5 44t-152.5 130.5t-55 206.5q0 75 24.5 138t65 106t94.5 75t110.5 48.5t115.5 21.5l2 229h158l2 -347q-191 0 -296 -66t-105 -197q0 -107 69 -173t207 -66q162 0 324 103zM710 959q0 -35 -15.5 -63.5 t-43 -45.5t-61.5 -17q-36 0 -65 17t-46 46t-17 63q0 52 37 86.5t91 34.5q51 0 85.5 -34.5t34.5 -86.5z" />
<glyph unicode="&#xc0;" horiz-adv-x="1353" d="M740 1519h-144l-259 325h197zM428 514h499l-26 82q-88 262 -142.5 431t-66.5 207l-11 38q-26 -88 -226 -678zM1099 0l-124 369h-595l-125 -369h-182l491 1408h234l482 -1408h-181z" />
<glyph unicode="&#xc1;" horiz-adv-x="1353" d="M1028 1844l-259 -325h-145l207 325h197zM428 514h499l-26 82q-88 262 -142.5 431t-66.5 207l-11 38q-26 -88 -226 -678zM1099 0l-124 369h-595l-125 -369h-182l491 1408h234l482 -1408h-181z" />
<glyph unicode="&#xc2;" horiz-adv-x="1353" d="M683 1738l-177 -219h-167l265 325h159l265 -325h-167zM428 514h499l-26 82q-88 262 -142.5 431t-66.5 207l-11 38q-26 -88 -226 -678zM1099 0l-124 369h-595l-125 -369h-182l491 1408h234l482 -1408h-181z" />
<glyph unicode="&#xc3;" horiz-adv-x="1353" d="M931 1796l103 -70q-32 -70 -87 -107.5t-120 -37.5q-35 0 -75 14.5t-70 31.5t-64 31.5t-58 14.5q-48 0 -80.5 -25t-61.5 -75l-90 77q30 63 87.5 105.5t123.5 42.5q39 0 81 -14t71.5 -31.5t65 -32t62.5 -14.5q72 0 112 90zM428 514h499l-26 82q-88 262 -142.5 431 t-66.5 207l-11 38q-26 -88 -226 -678zM1099 0l-124 369h-595l-125 -369h-182l491 1408h234l482 -1408h-181z" />
<glyph unicode="&#xc4;" horiz-adv-x="1353" d="M895 1575q-45 0 -76.5 32t-31.5 77t31 75.5t77 30.5t77 -30.5t31 -75.5q0 -30 -14 -55t-39 -39.5t-55 -14.5zM474 1575q-46 0 -77.5 32t-31.5 77t31.5 75.5t77.5 30.5q45 0 75.5 -30.5t30.5 -75.5t-30.5 -77t-75.5 -32zM428 514h499l-26 82q-88 262 -142.5 431t-66.5 207 l-11 38q-26 -88 -226 -678zM1099 0l-124 369h-595l-125 -369h-182l491 1408h234l482 -1408h-181z" />
<glyph unicode="&#xc5;" horiz-adv-x="1353" d="M683 1834q-30 0 -55.5 -15t-40.5 -41t-15 -56q0 -46 32.5 -79.5t79 -33.5t79.5 33.5t33 79.5t-33 79t-80 33zM683.5 1497q-92.5 0 -157 65.5t-64.5 157.5t64.5 157.5t157 65.5t157 -65.5t64.5 -157.5t-64.5 -157.5t-157 -65.5zM428 514h499l-26 82q-88 262 -142.5 431 t-66.5 207l-11 38q-26 -88 -226 -678zM1099 0l-124 369h-595l-125 -369h-182l491 1408h234l482 -1408h-181z" />
<glyph unicode="&#xc6;" horiz-adv-x="1836" d="M526 514h427v760q-114 -216 -381 -680zM1120 148h616v-148h-783v369h-510l-213 -369h-182l800 1408h876v-148h-604v-483h534v-149h-534v-480z" />
<glyph unicode="&#xc7;" horiz-adv-x="1256" d="M696 -106h148q18 -25 27.5 -67.5t9.5 -81.5q0 -54 -19 -101.5t-57 -85t-98.5 -60t-138.5 -24.5v121q86 6 131 44t45 104q0 72 -48 151zM1166 1352v-174q-91 49 -164.5 69.5t-192.5 20.5q-111 0 -208.5 -40t-169 -111.5t-113 -177t-41.5 -229.5q0 -129 40 -235.5 t112 -179.5t174 -113t224 -40q96 0 187 29.5t156 77.5v-178q-65 -43 -159.5 -65t-195.5 -22q-156 0 -287.5 50t-226.5 142t-148 229t-53 305q0 158 55 293t150 227.5t225 144.5t279 52q217 0 357 -75z" />
<glyph unicode="&#xc8;" horiz-adv-x="1046" d="M668 1517h-144l-259 325h199zM330 148h617v-148h-786v1408h775v-148h-606v-483h535v-149h-535v-480z" />
<glyph unicode="&#xc9;" horiz-adv-x="1046" d="M913 1844l-259 -325h-144l206 325h197zM330 148h617v-148h-786v1408h775v-148h-606v-483h535v-149h-535v-480z" />
<glyph unicode="&#xca;" horiz-adv-x="1046" d="M570 1738l-177 -219h-168l266 325h159l265 -325h-167zM330 148h617v-148h-786v1408h775v-148h-606v-483h535v-149h-535v-480z" />
<glyph unicode="&#xcb;" horiz-adv-x="1046" d="M771 1573q-45 0 -76 32t-31 77t31 75.5t76 30.5q47 0 77.5 -30.5t30.5 -75.5q0 -46 -31 -77.5t-77 -31.5zM351 1573q-31 0 -55.5 14.5t-38.5 39.5t-14 55q0 45 30.5 75.5t77.5 30.5q45 0 76 -30.5t31 -75.5t-31 -77t-76 -32zM330 148h617v-148h-786v1408h775v-148h-606 v-483h535v-149h-535v-480z" />
<glyph unicode="&#xcc;" horiz-adv-x="515" d="M173 0v1408h170v-1408h-170zM115 1844l204 -325h-144l-259 325h199z" />
<glyph unicode="&#xcd;" horiz-adv-x="515" d="M173 0v1408h170v-1408h-170zM194 1519l207 325h197l-259 -325h-145z" />
<glyph unicode="&#xce;" horiz-adv-x="515" d="M180 1844h159l265 -325h-167l-178 219l-177 -219h-168zM173 0v1408h170v-1408h-170z" />
<glyph unicode="&#xcf;" horiz-adv-x="515" d="M173 0v1408h170v-1408h-170zM-56 1684q0 30 14 54t38.5 38t55.5 14q45 0 76 -30.5t31 -75.5t-31 -77t-76 -32q-30 0 -55 14.5t-39 39.5t-14 55zM365 1684q0 45 31 75.5t76 30.5q47 0 77.5 -30.5t30.5 -75.5q0 -30 -13.5 -55t-38.5 -39.5t-56 -14.5q-45 0 -76 32t-31 77z " />
<glyph unicode="&#xd0;" horiz-adv-x="1524" d="M476 148h255q68 0 128.5 12t109.5 34.5t90.5 54t73 71t55.5 85t39 96t23 104t8 109.5q0 112 -38.5 211t-106.5 173t-170 117t-222 43h-245v-481h366v-142h-366v-487zM305 1408h418q154 0 286 -51t225.5 -141.5t146 -220t52.5 -281.5q0 -116 -28 -222t-85.5 -195.5 t-140 -155.5t-197.5 -103.5t-251 -37.5h-426v635h-177v142h177v631z" />
<glyph unicode="&#xd1;" horiz-adv-x="1405" d="M161 0v1408h213l353 -593q109 -181 198.5 -333.5t123.5 -214.5l35 -62q-8 204 -8 608v595h169v-1408h-213l-353 590q-107 177 -197 331t-126 219l-37 66q11 -218 11 -612v-594h-169zM971 1796l103 -70q-32 -70 -87 -107.5t-120 -37.5q-29 0 -60.5 9.5t-58 23t-52 27 t-51 23t-45.5 9.5q-48 0 -80.5 -25t-61.5 -75l-91 77q30 63 87.5 105.5t123.5 42.5q40 0 82 -14t71.5 -31.5t64.5 -32t63 -14.5q72 0 112 90z" />
<glyph unicode="&#xd2;" horiz-adv-x="1461" d="M100 710q0 219 77 383t220 253t334 89q197 0 340.5 -89.5t218 -252.5t74.5 -383q0 -219 -76 -383t-219 -253.5t-336 -89.5q-141 0 -259 51.5t-200.5 145.5t-128 230t-45.5 299zM277 710q0 -261 125 -413.5t331 -152.5q215 0 333 150.5t118 415.5t-118 415.5t-335 150.5 q-213 0 -333.5 -151t-120.5 -415zM616 1844l205 -325h-144l-259 325h198z" />
<glyph unicode="&#xd3;" horiz-adv-x="1461" d="M677 1519l206 325h197l-259 -325h-144zM100 710q0 219 77 383t220 253t334 89q197 0 340.5 -89.5t218 -252.5t74.5 -383q0 -219 -76 -383t-219 -253.5t-336 -89.5q-141 0 -259 51.5t-200.5 145.5t-128 230t-45.5 299zM277 710q0 -261 125 -413.5t331 -152.5 q215 0 333 150.5t118 415.5t-118 415.5t-335 150.5q-213 0 -333.5 -151t-120.5 -415z" />
<glyph unicode="&#xd4;" horiz-adv-x="1461" d="M277 710q0 -261 125 -413.5t331 -152.5q215 0 333 150.5t118 415.5t-118 415.5t-335 150.5q-213 0 -333.5 -151t-120.5 -415zM100 710q0 219 77 383t220 253t334 89q197 0 340.5 -89.5t218 -252.5t74.5 -383q0 -219 -76 -383t-219 -253.5t-336 -89.5q-141 0 -259 51.5 t-200.5 145.5t-128 230t-45.5 299zM666 1844h159l265 -325h-167l-177 219l-178 -219h-167z" />
<glyph unicode="&#xd5;" horiz-adv-x="1461" d="M100 710q0 219 77 383t220 253t334 89q197 0 340.5 -89.5t218 -252.5t74.5 -383q0 -219 -76 -383t-219 -253.5t-336 -89.5q-141 0 -259 51.5t-200.5 145.5t-128 230t-45.5 299zM277 710q0 -261 125 -413.5t331 -152.5q215 0 333 150.5t118 415.5t-118 415.5t-335 150.5 q-213 0 -333.5 -151t-120.5 -415zM986 1798l102 -70q-32 -70 -87 -107.5t-120 -37.5q-28 0 -59.5 9.5t-58.5 23t-52.5 27t-51 23t-45.5 9.5q-48 0 -80.5 -25t-61.5 -75l-90 77q30 63 88 105.5t124 42.5q39 0 81 -14t71 -31.5t64.5 -32t62.5 -14.5q73 0 113 90z" />
<glyph unicode="&#xd6;" horiz-adv-x="1461" d="M422 1684q0 45 31 75.5t77 30.5t77 -30.5t31 -75.5q0 -30 -14.5 -55t-39 -39.5t-54.5 -14.5q-46 0 -77 31.5t-31 77.5zM844 1684q0 45 30.5 75.5t76.5 30.5t77 -30.5t31 -75.5q0 -30 -14 -55t-39 -39.5t-55 -14.5q-45 0 -76 32t-31 77zM100 710q0 219 77 383t220 253 t334 89q197 0 340.5 -89.5t218 -252.5t74.5 -383q0 -219 -76 -383t-219 -253.5t-336 -89.5q-141 0 -259 51.5t-200.5 145.5t-128 230t-45.5 299zM277 710q0 -261 125 -413.5t331 -152.5q215 0 333 150.5t118 415.5t-118 415.5t-335 150.5q-213 0 -333.5 -151t-120.5 -415z " />
<glyph unicode="&#xd7;" horiz-adv-x="1025" d="M901 992l-283 -280l277 -273l-108 -106l-275 273l-274 -273l-106 108l273 271l-282 280l107 104l282 -277l282 280z" />
<glyph unicode="&#xd8;" horiz-adv-x="1409" d="M1086 1082l-635 -852q113 -90 270 -90q215 0 334 151.5t119 418.5q0 228 -88 372zM353 341l635 851q-109 86 -272 86q-141 0 -244 -68t-157 -196.5t-54 -303.5q0 -221 92 -369zM1352 1435l-158 -211q155 -195 155 -514q0 -219 -76 -383.5t-218.5 -253.5t-333.5 -89 q-217 0 -370 112l-86 -114h-179l161 215q-161 201 -161 513q0 164 44 299t125.5 229t199.5 145.5t261 51.5q221 0 370 -109l82 109h184z" />
<glyph unicode="&#xd9;" horiz-adv-x="1346" d="M1019 530v878h169v-874q0 -271 -136.5 -410.5t-381.5 -139.5q-240 0 -375.5 137t-135.5 397v890h169v-888q0 -100 26 -174t73 -118t107.5 -65t135.5 -21q349 0 349 388zM548 1844l204 -325h-144l-259 325h199z" />
<glyph unicode="&#xda;" horiz-adv-x="1346" d="M626 1519l207 325h197l-259 -325h-145zM1019 530v878h169v-874q0 -271 -136.5 -410.5t-381.5 -139.5q-240 0 -375.5 137t-135.5 397v890h169v-888q0 -100 26 -174t73 -118t107.5 -65t135.5 -21q349 0 349 388z" />
<glyph unicode="&#xdb;" horiz-adv-x="1346" d="M1019 530v878h169v-874q0 -271 -136.5 -410.5t-381.5 -139.5q-240 0 -375.5 137t-135.5 397v890h169v-888q0 -100 26 -174t73 -118t107.5 -65t135.5 -21q349 0 349 388zM598 1844h158l265 -325h-166l-178 219l-178 -219h-166z" />
<glyph unicode="&#xdc;" horiz-adv-x="1346" d="M357 1684q0 45 31.5 75.5t77.5 30.5q45 0 75.5 -30.5t30.5 -75.5t-30.5 -77t-75.5 -32q-46 0 -77.5 32t-31.5 77zM779 1684q0 45 30.5 75.5t75.5 30.5q47 0 78 -30.5t31 -75.5q0 -30 -14 -55t-39 -39.5t-56 -14.5q-44 0 -75 32t-31 77zM1019 530v878h169v-874 q0 -271 -136.5 -410.5t-381.5 -139.5q-240 0 -375.5 137t-135.5 397v890h169v-888q0 -100 26 -174t73 -118t107.5 -65t135.5 -21q349 0 349 388z" />
<glyph unicode="&#xdd;" horiz-adv-x="1238" d="M986 1842l-259 -325h-145l207 325h197zM1184 1408l-482 -884v-524h-170v522l-478 886h197l106 -206q68 -133 119.5 -235.5t77 -154.5t41 -85t18.5 -42l3 -8q19 53 265 525l107 206h196z" />
<glyph unicode="&#xde;" horiz-adv-x="1118" d="M330 403h207q83 0 148 22.5t104.5 62.5t59.5 91.5t20 112.5q0 69 -20 125t-61.5 98.5t-109 66t-158.5 23.5h-190v-602zM330 1149h184q128 0 229 -34t165.5 -94.5t98 -143t33.5 -181.5q0 -93 -33.5 -172.5t-96.5 -138.5t-160.5 -92.5t-219.5 -33.5h-200v-259h-169v1408 h169v-259z" />
<glyph unicode="&#xdf;" horiz-adv-x="1129" d="M539 12v159q44 -23 83.5 -32t93.5 -9q58 0 101.5 18.5t66.5 52t23 76.5q0 39 -17.5 74t-45 62.5t-61 54t-67 54.5t-61 58t-44.5 70t-17 85q0 48 17.5 89.5t42 73t49.5 62.5t42.5 71t17.5 85q0 78 -56.5 125.5t-148.5 47.5q-235 0 -235 -249v-1040h-164v1036 q0 102 29.5 180t84 127t127 73.5t162.5 24.5q83 0 153 -25.5t116.5 -69.5t72 -102.5t25.5 -123.5q0 -59 -16.5 -109.5t-40 -84t-47 -62.5t-40 -58.5t-16.5 -57.5q0 -25 13 -49t34 -44t48 -43t55.5 -45t55.5 -51.5t48 -61t34 -75t13 -92.5q0 -133 -93 -217t-258 -84 q-119 0 -180 26z" />
<glyph unicode="&#xe0;" horiz-adv-x="1027" d="M608 1170h-144l-259 325h198zM723 489h-184q-135 0 -201.5 -52t-66.5 -132t53 -128.5t152 -48.5q113 0 180 63t67 162v136zM175 837v166q54 33 139.5 53t174.5 20q206 0 302 -103t96 -303v-670h-162v125q-15 -24 -37.5 -45.5t-57.5 -43t-87 -34t-115 -12.5q-97 0 -173 40 t-116.5 110.5t-40.5 158.5q0 152 116 236.5t316 84.5h193v55q0 126 -56.5 189t-190.5 63q-76 0 -158.5 -24.5t-142.5 -65.5z" />
<glyph unicode="&#xe1;" horiz-adv-x="1027" d="M869 1495l-259 -325h-144l206 325h197zM723 489h-184q-135 0 -201.5 -52t-66.5 -132t53 -128.5t152 -48.5q113 0 180 63t67 162v136zM175 837v166q54 33 139.5 53t174.5 20q206 0 302 -103t96 -303v-670h-162v125q-15 -24 -37.5 -45.5t-57.5 -43t-87 -34t-115 -12.5 q-97 0 -173 40t-116.5 110.5t-40.5 158.5q0 152 116 236.5t316 84.5h193v55q0 126 -56.5 189t-190.5 63q-76 0 -158.5 -24.5t-142.5 -65.5z" />
<glyph unicode="&#xe2;" horiz-adv-x="1027" d="M530 1387l-177 -219h-167l265 325h159l265 -325h-167zM723 489h-184q-135 0 -201.5 -52t-66.5 -132t53 -128.5t152 -48.5q113 0 180 63t67 162v136zM175 837v166q54 33 139.5 53t174.5 20q206 0 302 -103t96 -303v-670h-162v125q-15 -24 -37.5 -45.5t-57.5 -43t-87 -34 t-115 -12.5q-97 0 -173 40t-116.5 110.5t-40.5 158.5q0 152 116 236.5t316 84.5h193v55q0 126 -56.5 189t-190.5 63q-76 0 -158.5 -24.5t-142.5 -65.5z" />
<glyph unicode="&#xe3;" horiz-adv-x="1027" d="M773 1447l102 -70q-32 -70 -87 -107.5t-120 -37.5q-29 0 -60 9.5t-58 23t-52.5 27t-51 23t-45.5 9.5q-33 0 -59 -12.5t-45 -33.5t-38 -54l-90 78q20 40 51 73t73.5 53.5t86.5 20.5q40 0 82 -14t71 -31.5t64 -31.5t63 -14q73 0 113 89zM723 489h-184q-135 0 -201.5 -52 t-66.5 -132t53 -128.5t152 -48.5q113 0 180 63t67 162v136zM175 837v166q54 33 139.5 53t174.5 20q206 0 302 -103t96 -303v-670h-162v125q-15 -24 -37.5 -45.5t-57.5 -43t-87 -34t-115 -12.5q-97 0 -173 40t-116.5 110.5t-40.5 158.5q0 152 116 236.5t316 84.5h193v55 q0 126 -56.5 189t-190.5 63q-76 0 -158.5 -24.5t-142.5 -65.5z" />
<glyph unicode="&#xe4;" horiz-adv-x="1027" d="M737 1220q-44 0 -75.5 32t-31.5 77t31 75.5t76 30.5q47 0 78 -30.5t31 -75.5q0 -30 -14 -55t-39 -39.5t-56 -14.5zM317 1220q-46 0 -77 31.5t-31 77.5q0 45 31 75.5t77 30.5q45 0 76 -30.5t31 -75.5t-31 -77t-76 -32zM723 489h-184q-135 0 -201.5 -52t-66.5 -132 t53 -128.5t152 -48.5q113 0 180 63t67 162v136zM175 837v166q54 33 139.5 53t174.5 20q206 0 302 -103t96 -303v-670h-162v125q-15 -24 -37.5 -45.5t-57.5 -43t-87 -34t-115 -12.5q-97 0 -173 40t-116.5 110.5t-40.5 158.5q0 152 116 236.5t316 84.5h193v55q0 126 -56.5 189 t-190.5 63q-76 0 -158.5 -24.5t-142.5 -65.5z" />
<glyph unicode="&#xe5;" horiz-adv-x="1027" d="M532 1485q-11 0 -22 -2t-21 -6.5t-19 -10.5t-16 -13.5t-13 -16.5t-10 -19t-6.5 -21.5t-2.5 -22.5q0 -46 32 -79.5t78 -33.5q31 0 57 15.5t41.5 41.5t15.5 56t-15.5 56t-41.5 41t-57 15zM532.5 1149q-92.5 0 -157 64.5t-64.5 156.5q0 93 64.5 158.5t157 65.5t157 -65.5 t64.5 -158.5q0 -92 -64.5 -156.5t-157 -64.5zM723 489h-184q-135 0 -201.5 -52t-66.5 -132t53 -128.5t152 -48.5q113 0 180 63t67 162v136zM175 837v166q54 33 139.5 53t174.5 20q206 0 302 -103t96 -303v-670h-162v125q-15 -24 -37.5 -45.5t-57.5 -43t-87 -34t-115 -12.5 q-97 0 -173 40t-116.5 110.5t-40.5 158.5q0 152 116 236.5t316 84.5h193v55q0 126 -56.5 189t-190.5 63q-76 0 -158.5 -24.5t-142.5 -65.5z" />
<glyph unicode="&#xe6;" horiz-adv-x="1710" d="M733 369v115h-157q-297 0 -297 -181q0 -77 53.5 -123t154.5 -46q104 0 175 64.5t71 170.5zM1465 598v42q-2 138 -73.5 212.5t-189.5 74.5q-56 0 -106 -19.5t-91.5 -58.5t-70 -103.5t-37.5 -147.5h568zM1617 460h-718q20 -157 121.5 -240.5t251.5 -83.5q75 0 151.5 18.5 t128.5 54.5v-155q-37 -20 -88.5 -35t-103.5 -22t-100 -7q-137 0 -253.5 58.5t-179.5 158.5q-39 -97 -137.5 -157t-240.5 -60q-101 0 -178 37t-120 106.5t-43 163.5q0 154 117.5 239.5t320.5 85.5h187v53q0 126 -56.5 189t-189.5 63q-51 0 -106 -11t-105.5 -31t-89.5 -46v162 q36 22 84.5 39t106.5 26.5t116 9.5q135 0 221.5 -48.5t122.5 -140.5q60 90 155 137.5t212 47.5q204 0 313.5 -129t109.5 -369q0 -58 -10 -114z" />
<glyph unicode="&#xe7;" horiz-adv-x="983" d="M261 524q1 -81 26 -152t73 -126.5t124 -88t172 -32.5q59 0 120 19.5t105 49.5v-156q-28 -18 -70 -32t-88 -21.5t-88 -7.5q-102 0 -190 29t-152.5 80t-110.5 120t-69 150.5t-23 169.5q0 85 22.5 165.5t69 150.5t111 123t154 83t193.5 30q55 0 120.5 -14.5t120.5 -44.5 v-156q-45 31 -109 47.5t-116 16.5q-90 0 -165.5 -32t-125 -87t-77 -128t-27.5 -156zM708 -255q0 -54 -19.5 -101.5t-57 -85t-98.5 -60t-138 -24.5v121q57 4 96.5 22.5t59 50t19.5 75.5q0 72 -48 151h148q18 -25 28 -67.5t10 -81.5z" />
<glyph unicode="&#xe8;" horiz-adv-x="1090" d="M664 1170h-144l-259 325h199zM827 598v42q0 132 -71 209.5t-196 77.5q-120 0 -203 -85.5t-98 -243.5h568zM925 209v-155q-38 -20 -92 -35t-107.5 -22t-101.5 -7q-159 0 -280.5 66.5t-187.5 188.5t-66 281q0 127 35.5 230.5t98.5 172.5t149 106t187 37q97 0 176 -32 t136.5 -93t88.5 -154t31 -211q0 -66 -10 -122h-723q19 -158 119.5 -241t263.5 -83q75 0 153 18.5t130 54.5z" />
<glyph unicode="&#xe9;" horiz-adv-x="1090" d="M927 1495l-259 -325h-144l207 325h196zM827 598v42q0 132 -71 209.5t-196 77.5q-120 0 -203 -85.5t-98 -243.5h568zM925 209v-155q-38 -20 -92 -35t-107.5 -22t-101.5 -7q-159 0 -280.5 66.5t-187.5 188.5t-66 281q0 127 35.5 230.5t98.5 172.5t149 106t187 37 q97 0 176 -32t136.5 -93t88.5 -154t31 -211q0 -66 -10 -122h-723q19 -158 119.5 -241t263.5 -83q75 0 153 18.5t130 54.5z" />
<glyph unicode="&#xea;" horiz-adv-x="1090" d="M586 1389l-177 -219h-166l265 325h158l265 -325h-166zM827 598v42q0 132 -71 209.5t-196 77.5q-120 0 -203 -85.5t-98 -243.5h568zM925 209v-155q-38 -20 -92 -35t-107.5 -22t-101.5 -7q-159 0 -280.5 66.5t-187.5 188.5t-66 281q0 127 35.5 230.5t98.5 172.5t149 106 t187 37q97 0 176 -32t136.5 -93t88.5 -154t31 -211q0 -66 -10 -122h-723q19 -158 119.5 -241t263.5 -83q75 0 153 18.5t130 54.5z" />
<glyph unicode="&#xeb;" horiz-adv-x="1090" d="M798 1226q-45 0 -75.5 32t-30.5 77t30.5 75.5t75.5 30.5q46 0 77.5 -30.5t31.5 -75.5t-31.5 -77t-77.5 -32zM378 1226q-46 0 -77.5 32t-31.5 77t31.5 75.5t77.5 30.5t76 -30.5t30 -75.5t-30.5 -77t-75.5 -32zM827 598v42q0 132 -71 209.5t-196 77.5q-120 0 -203 -85.5 t-98 -243.5h568zM925 209v-155q-38 -20 -92 -35t-107.5 -22t-101.5 -7q-159 0 -280.5 66.5t-187.5 188.5t-66 281q0 127 35.5 230.5t98.5 172.5t149 106t187 37q97 0 176 -32t136.5 -93t88.5 -154t31 -211q0 -66 -10 -122h-723q19 -158 119.5 -241t263.5 -83q75 0 153 18.5 t130 54.5z" />
<glyph unicode="&#xec;" horiz-adv-x="486" d="M161 0v1059h164v-1059h-164zM98 1493l205 -325h-144l-259 325h198z" />
<glyph unicode="&#xed;" horiz-adv-x="486" d="M161 0v1059h164v-1059h-164zM184 1170l207 325h195l-258 -325h-144z" />
<glyph unicode="&#xee;" horiz-adv-x="486" d="M165 1495h158l267 -325h-168l-177 219l-178 -219h-167zM161 0v1059h164v-1059h-164z" />
<glyph unicode="&#xef;" horiz-adv-x="486" d="M161 0v1059h164v-1059h-164zM-75 1337q0 45 31 75.5t78 30.5q45 0 75.5 -30.5t30.5 -75.5t-30.5 -77t-75.5 -32q-31 0 -56 14.5t-39 39.5t-14 55zM347 1337q0 45 30.5 75.5t75.5 30.5q46 0 77.5 -30.5t31.5 -75.5t-31.5 -77t-77.5 -32q-45 0 -75.5 32t-30.5 77z" />
<glyph unicode="&#xf0;" horiz-adv-x="1079" d="M524 134q61 0 112.5 22t94 68t68 125t28.5 185q-58 77 -138 121.5t-177 44.5q-113 0 -187 -74.5t-74 -207.5q0 -87 35.5 -152t97.5 -98.5t140 -33.5zM945 1280l-178 -92q100 -128 158.5 -287t58.5 -339q0 -283 -123 -431.5t-337 -148.5q-99 0 -184 36t-141 96.5 t-87.5 140.5t-31.5 167q0 102 34.5 185t93.5 136t133.5 81.5t157.5 28.5q93 0 175 -37.5t141 -105.5q-37 221 -187 410l-291 -151v127l213 110q-120 120 -277 202h259q87 -56 158 -130l255 130v-128z" />
<glyph unicode="&#xf1;" d="M835 1447l103 -70q-21 -46 -53.5 -79t-71.5 -49.5t-82 -16.5q-35 0 -75 14.5t-70 31.5t-64 31.5t-58 14.5q-33 0 -59.5 -12.5t-45.5 -33.5t-38 -54l-89 78q29 62 87 104.5t124 42.5q39 0 81 -14t71.5 -31.5t65 -31.5t62.5 -14q72 0 112 89zM315 1059v-184q31 65 80.5 110 t113.5 67t141 22t140 -24.5t107 -69t67.5 -109t23.5 -142.5v-729h-165v685q0 60 -16 106t-45 75t-68 44t-86 15q-56 0 -108 -22.5t-93.5 -65t-66.5 -109.5t-25 -150v-578h-162v1059h162z" />
<glyph unicode="&#xf2;" horiz-adv-x="1173" d="M582 -18q-92 0 -171 27t-137.5 76.5t-100 116.5t-62.5 148.5t-21 171.5q0 92 22 175.5t65 152t102.5 119t137 78t165.5 27.5q122 0 218.5 -42.5t158 -117.5t93.5 -174t32 -213.5t-33.5 -214t-96 -173t-158.5 -115.5t-214 -42zM582 927q-61 0 -113.5 -21.5t-90.5 -59 t-64.5 -88.5t-39.5 -110t-13 -124q0 -107 37.5 -196t112 -144.5t171.5 -55.5q81 0 145 31.5t104 86.5t61 126t21 152q0 66 -11.5 124t-37 110t-63 89t-93.5 58.5t-126 21.5zM460 1495l204 -325h-144l-259 325h199z" />
<glyph unicode="&#xf3;" horiz-adv-x="1173" d="M539 1170l207 325h196l-259 -325h-144zM582 -18q-92 0 -171 27t-137.5 76.5t-100 116.5t-62.5 148.5t-21 171.5q0 92 22 175.5t65 152t102.5 119t137 78t165.5 27.5q122 0 218.5 -42.5t158 -117.5t93.5 -174t32 -213.5t-33.5 -214t-96 -173t-158.5 -115.5t-214 -42z M582 927q-61 0 -113.5 -21.5t-90.5 -59t-64.5 -88.5t-39.5 -110t-13 -124q0 -107 37.5 -196t112 -144.5t171.5 -55.5q81 0 145 31.5t104 86.5t61 126t21 152q0 66 -11.5 124t-37 110t-63 89t-93.5 58.5t-126 21.5z" />
<glyph unicode="&#xf4;" horiz-adv-x="1173" d="M582 927q-61 0 -113.5 -21.5t-90.5 -59t-64.5 -88.5t-39.5 -110t-13 -124q0 -107 37.5 -196t112 -144.5t171.5 -55.5q81 0 145 31.5t104 86.5t61 126t21 152q0 66 -11.5 124t-37 110t-63 89t-93.5 58.5t-126 21.5zM582 -18q-92 0 -171 27t-137.5 76.5t-100 116.5 t-62.5 148.5t-21 171.5q0 92 22 175.5t65 152t102.5 119t137 78t165.5 27.5q122 0 218.5 -42.5t158 -117.5t93.5 -174t32 -213.5t-33.5 -214t-96 -173t-158.5 -115.5t-214 -42zM514 1493h158l266 -325h-167l-177 219l-178 -219h-167z" />
<glyph unicode="&#xf5;" horiz-adv-x="1173" d="M582 -18q-92 0 -171 27t-137.5 76.5t-100 116.5t-62.5 148.5t-21 171.5q0 92 22 175.5t65 152t102.5 119t137 78t165.5 27.5q122 0 218.5 -42.5t158 -117.5t93.5 -174t32 -213.5t-33.5 -214t-96 -173t-158.5 -115.5t-214 -42zM582 927q-61 0 -113.5 -21.5t-90.5 -59 t-64.5 -88.5t-39.5 -110t-13 -124q0 -107 37.5 -196t112 -144.5t171.5 -55.5q81 0 145 31.5t104 86.5t61 126t21 152q0 66 -11.5 124t-37 110t-63 89t-93.5 58.5t-126 21.5zM844 1447l103 -70q-33 -70 -87.5 -107.5t-119.5 -37.5q-35 0 -75.5 14.5t-70 31.5t-64 31.5 t-58.5 14.5q-48 0 -80.5 -25t-61.5 -75l-89 78q19 40 50 73t73.5 53.5t86.5 20.5q39 0 81 -14t71.5 -31.5t65 -31.5t62.5 -14q73 0 113 89z" />
<glyph unicode="&#xf6;" horiz-adv-x="1173" d="M287 1331q0 45 30.5 75.5t77.5 30.5q45 0 76 -30.5t31 -75.5q0 -30 -14 -55t-39 -39.5t-54 -14.5q-46 0 -77 32t-31 77zM708 1331q0 30 14 54t38.5 38t54.5 14q46 0 77 -30.5t31 -75.5t-31 -77t-77 -32q-45 0 -76 32t-31 77zM582 -18q-92 0 -171 27t-137.5 76.5 t-100 116.5t-62.5 148.5t-21 171.5q0 92 22 175.5t65 152t102.5 119t137 78t165.5 27.5q122 0 218.5 -42.5t158 -117.5t93.5 -174t32 -213.5t-33.5 -214t-96 -173t-158.5 -115.5t-214 -42zM582 927q-61 0 -113.5 -21.5t-90.5 -59t-64.5 -88.5t-39.5 -110t-13 -124 q0 -107 37.5 -196t112 -144.5t171.5 -55.5q81 0 145 31.5t104 86.5t61 126t21 152q0 66 -11.5 124t-37 110t-63 89t-93.5 58.5t-126 21.5z" />
<glyph unicode="&#xf7;" horiz-adv-x="1154" d="M466 1082q0 30 15 55.5t40.5 40t54.5 14.5q44 0 76.5 -32.5t32.5 -77.5q0 -43 -32.5 -76t-76.5 -33q-45 0 -77.5 32.5t-32.5 76.5zM119 635v150h919v-150h-919zM466 339q0 43 32.5 75.5t77.5 32.5q44 0 76.5 -32.5t32.5 -75.5q0 -45 -32.5 -78.5t-76.5 -33.5 q-45 0 -77.5 33t-32.5 79z" />
<glyph unicode="&#xf8;" horiz-adv-x="1176" d="M895 783l-463 -612q79 -56 180 -56q83 0 149.5 33t107.5 90t62.5 130t21.5 156q0 152 -58 259zM341 277l459 610q-79 53 -190 53q-80 0 -144 -34t-104.5 -92t-62.5 -132t-22 -158q0 -142 64 -247zM1114 1074l-124 -163q124 -151 124 -385q0 -114 -34 -213.5t-96.5 -173 t-158 -115.5t-213.5 -42q-151 0 -267 72l-56 -72h-172l124 164q-60 72 -92 169.5t-32 206.5q0 115 36 216t99.5 175.5t156.5 117.5t203 43q156 0 273 -73l55 73h174z" />
<glyph unicode="&#xf9;" d="M635 1168h-144l-259 325h198zM811 1059h164v-1059h-164v184q-84 -196 -333 -196q-156 0 -247 92.5t-91 249.5v729h165v-687q0 -77 27.5 -130.5t76 -79.5t113.5 -26q131 0 210 91.5t79 248.5v583z" />
<glyph unicode="&#xfa;" d="M905 1495l-259 -325h-144l206 325h197zM811 1059h164v-1059h-164v184q-84 -196 -333 -196q-156 0 -247 92.5t-91 249.5v729h165v-687q0 -77 27.5 -130.5t76 -79.5t113.5 -26q131 0 210 91.5t79 248.5v583z" />
<glyph unicode="&#xfb;" d="M562 1389l-177 -219h-168l265 325h160l265 -325h-167zM811 1059h164v-1059h-164v184q-84 -196 -333 -196q-156 0 -247 92.5t-91 249.5v729h165v-687q0 -77 27.5 -130.5t76 -79.5t113.5 -26q131 0 210 91.5t79 248.5v583z" />
<glyph unicode="&#xfc;" d="M775 1222q-45 0 -76 32t-31 77q0 30 14 54t39 38t54 14q47 0 77.5 -30.5t30.5 -75.5q0 -30 -13.5 -55t-38.5 -39.5t-56 -14.5zM355 1222q-46 0 -77 32t-31 77t30.5 75.5t77.5 30.5q45 0 76 -30.5t31 -75.5q0 -30 -14 -55t-38.5 -39.5t-54.5 -14.5zM811 1059h164v-1059 h-164v184q-84 -196 -333 -196q-156 0 -247 92.5t-91 249.5v729h165v-687q0 -77 27.5 -130.5t76 -79.5t113.5 -26q131 0 210 91.5t79 248.5v583z" />
<glyph unicode="&#xfd;" horiz-adv-x="1029" d="M464 1170l206 325h197l-259 -325h-144zM445 28l-429 1031h187l138 -349q74 -190 120.5 -310t55.5 -145l9 -25q18 54 168 480l123 349h177l-382 -1031q-42 -112 -93.5 -190.5t-110 -121t-117.5 -61t-128 -18.5q-53 0 -88 10v148q32 -8 71 -8q212 0 299 241z" />
<glyph unicode="&#xfe;" horiz-adv-x="1184" d="M618 134q64 0 119 25.5t97 75t65.5 127.5t23.5 177q0 173 -83.5 279.5t-211.5 106.5q-45 0 -87.5 -11.5t-84.5 -40t-72.5 -72.5t-49.5 -114t-19 -159q0 -86 20 -156t51 -113t72 -72.5t81 -41t79 -11.5zM315 1477v-578q113 177 329 177q85 0 158 -27.5t126 -77t91 -117 t56.5 -147.5t18.5 -168q0 -160 -56 -286t-160 -197.5t-238 -71.5q-105 0 -187.5 46t-137.5 131v-572h-162v1888h162z" />
<glyph unicode="&#xff;" horiz-adv-x="1029" d="M638 1331q0 45 30 75.5t76 30.5t77.5 -30.5t31.5 -75.5t-31.5 -77t-77.5 -32q-45 0 -75.5 32t-30.5 77zM215 1331q0 45 31 75.5t77 30.5q23 0 42.5 -8t34 -22t22.5 -34t8 -42q0 -45 -31 -77t-76 -32q-30 0 -55 14.5t-39 39.5t-14 55zM445 28l-429 1031h187l138 -349 q74 -190 120.5 -310t55.5 -145l9 -25q18 54 168 480l123 349h177l-382 -1031q-42 -112 -93.5 -190.5t-110 -121t-117.5 -61t-128 -18.5q-53 0 -88 10v148q32 -8 71 -8q212 0 299 241z" />
<glyph unicode="&#x152;" horiz-adv-x="2053" d="M723 144q143 0 243.5 68.5t151 195t50.5 302.5q0 266 -115.5 416t-331.5 150q-212 0 -328 -150.5t-116 -415.5q0 -263 120.5 -414.5t325.5 -151.5zM1333 148h620v-148h-785v184q-79 -97 -192.5 -148.5t-252.5 -51.5q-188 0 -329.5 89t-217.5 253.5t-76 383.5t74 383 t215 253t332 89q285 0 447 -199v172h775v-148h-610v-483h539v-149h-539v-480z" />
<glyph unicode="&#x153;" horiz-adv-x="1862" d="M1611 598v46q-2 136 -73.5 209.5t-188.5 73.5q-56 0 -106 -19.5t-92 -58.5t-70 -103.5t-37 -147.5h567zM568 128q64 0 116 20.5t87 57t59 87t34.5 108.5t10.5 123q0 67 -9 124t-31.5 109.5t-57 89.5t-88.5 58.5t-123 21.5q-77 0 -136.5 -32.5t-95.5 -89t-54.5 -128 t-18.5 -153.5q0 -80 20 -151t57.5 -126t96.5 -87t133 -32zM1700 209v-155q-57 -30 -139.5 -47t-156.5 -17q-141 0 -254.5 56.5t-184.5 160.5q-38 -70 -95 -119.5t-134.5 -77.5t-169.5 -28t-169.5 27t-133.5 76t-95.5 117t-58.5 148.5t-19 171.5q0 115 32.5 216t92.5 175.5 t151 117.5t200 43q137 0 236.5 -56t158.5 -157q63 102 164.5 156.5t223.5 54.5q205 0 316 -129t111 -369q0 -58 -10 -114h-722q13 -105 65.5 -179t132 -109.5t179.5 -35.5q75 0 151 18.5t128 54.5z" />
<glyph unicode="&#x178;" horiz-adv-x="1238" d="M831 1573q-45 0 -75.5 32t-30.5 77q0 30 14 54t38.5 38t53.5 14q47 0 78 -30.5t31 -75.5q0 -46 -31 -77.5t-78 -31.5zM411 1573q-46 0 -77 31.5t-31 77.5q0 45 31 75.5t77 30.5q45 0 76 -30.5t31 -75.5t-31 -77t-76 -32zM1184 1408l-482 -884v-524h-170v522l-478 886h197 l106 -206q68 -133 119.5 -235.5t77 -154.5t41 -85t18.5 -42l3 -8q19 53 265 525l107 206h196z" />
<glyph unicode="&#x2c6;" horiz-adv-x="879" d="M359 1667h159l265 -326h-167l-177 220l-178 -220h-167z" />
<glyph unicode="&#x2dc;" horiz-adv-x="879" d="M708 1590l103 -71q-33 -70 -87.5 -107t-119.5 -37q-35 0 -75.5 14.5t-70 31.5t-63.5 31.5t-58 14.5q-48 0 -81 -25.5t-62 -75.5l-90 77q30 63 87.5 106t123.5 43q40 0 82 -14.5t71.5 -32t64.5 -32t63 -14.5q72 0 112 91z" />
<glyph unicode="&#x2000;" horiz-adv-x="971" />
<glyph unicode="&#x2001;" horiz-adv-x="1943" />
<glyph unicode="&#x2002;" horiz-adv-x="971" />
<glyph unicode="&#x2003;" horiz-adv-x="1943" />
<glyph unicode="&#x2004;" horiz-adv-x="647" />
<glyph unicode="&#x2005;" horiz-adv-x="485" />
<glyph unicode="&#x2006;" horiz-adv-x="323" />
<glyph unicode="&#x2007;" horiz-adv-x="323" />
<glyph unicode="&#x2008;" horiz-adv-x="242" />
<glyph unicode="&#x2009;" horiz-adv-x="388" />
<glyph unicode="&#x200a;" horiz-adv-x="107" />
<glyph unicode="&#x2010;" horiz-adv-x="726" d="M119 489v144h489v-144h-489z" />
<glyph unicode="&#x2011;" horiz-adv-x="726" d="M119 489v144h489v-144h-489z" />
<glyph unicode="&#x2012;" horiz-adv-x="726" d="M119 489v144h489v-144h-489z" />
<glyph unicode="&#x2013;" d="M119 495v138h890v-138h-890z" />
<glyph unicode="&#x2014;" horiz-adv-x="1718" d="M119 499v139h1481v-139h-1481z" />
<glyph unicode="&#x2018;" horiz-adv-x="375" d="M403 1451l-176 -467h-204l250 467h130z" />
<glyph unicode="&#x2019;" horiz-adv-x="377" d="M26 984l175 467h204l-250 -467h-129z" />
<glyph unicode="&#x201a;" horiz-adv-x="377" d="M4 -257l173 468h205l-248 -468h-130z" />
<glyph unicode="&#x201c;" horiz-adv-x="676" d="M403 1451l-176 -467h-201l249 467h128zM704 1451l-174 -467h-197l243 467h128z" />
<glyph unicode="&#x201d;" horiz-adv-x="674" d="M323 984l179 467h202l-253 -467h-128zM26 984l173 467h196l-242 -467h-127z" />
<glyph unicode="&#x201e;" horiz-adv-x="674" d="M305 -257l175 468h203l-251 -468h-127zM6 -257l171 468h199l-242 -468h-128z" />
<glyph unicode="&#x2022;" horiz-adv-x="937" d="M192 743.5q0 118.5 78.5 198t197.5 79.5q78 0 141.5 -36.5t100 -100t36.5 -140.5q0 -118 -79.5 -198t-196.5 -80q-120 0 -199 79.5t-79 198z" />
<glyph unicode="&#x2026;" horiz-adv-x="1503" d="M75 106q0 52 36 88t88 36q34 0 62 -16.5t44 -45t16 -62.5q0 -52 -35 -87t-87 -35t-88 35t-36 87zM628 106q0 52 36 88t88 36t87.5 -36t35.5 -88t-35.5 -87t-87.5 -35t-88 35t-36 87zM1182 106q0 52 36 88t88 36t87.5 -36t35.5 -88t-35.5 -87t-88 -35t-88 35t-35.5 87z " />
<glyph unicode="&#x202f;" horiz-adv-x="388" />
<glyph unicode="&#x2039;" horiz-adv-x="624" d="M558 867l-307 -339l307 -338h-182l-316 338l316 339h182z" />
<glyph unicode="&#x203a;" horiz-adv-x="620" d="M251 867l313 -339l-313 -338h-184l307 338l-307 339h184z" />
<glyph unicode="&#x205f;" horiz-adv-x="485" />
<glyph unicode="&#x20ac;" horiz-adv-x="1232" d="M1149 1331v-163q-83 52 -232 52t-257 -80t-156 -229h415v-119h-443q-6 -54 -6 -115q0 -49 6 -97h443v-118h-420q30 -102 91.5 -175.5t142 -110t174.5 -36.5q149 0 242 57v-163q-95 -50 -262 -50q-207 0 -359.5 128t-206.5 350h-213v118h193q-4 64 -4 97q0 58 6 115h-195 v119h215q58 220 212.5 344t363.5 124q159 0 250 -48z" />
<glyph unicode="&#x2122;" horiz-adv-x="1449" d="M556 692l56 716h163l120 -338q9 -27 18.5 -53.5t16 -48t12.5 -41t10 -34t7 -25t5 -15.5l1 -5q32 95 77 222l128 338h165l52 -716h-125l-21 323q-5 72 -7.5 133t-1.5 85v25q-21 -68 -86 -243l-116 -309h-127l-109 309q-29 81 -49.5 141.5t-26.5 80.5l-6 21q0 -72 -12 -243 l-19 -323h-125zM4 1295v113h485v-113h-178v-605h-125v605h-182z" />
<glyph unicode="&#x25fc;" horiz-adv-x="1064" d="M0 1065h1065v-1065h-1065v1065z" />
<glyph unicode="&#xfb03;" horiz-adv-x="1639" d="M765 1059v99q0 70 20 139q-96 46 -207 46q-169 0 -169 -187v-97h356zM1449 1059v-1059h-164v925h-356v-925h-164v925h-356v-925h-164v925h-183v134h183v99q0 155 84.5 244t242.5 89q73 0 152.5 -21t140.5 -51q82 72 219 72q147 0 291 -70v-153q-74 38 -140 56.5 t-145 18.5q-161 0 -161 -187v-97h520z" />
<glyph unicode="&#xfb04;" horiz-adv-x="1587" d="M767 1059v99q0 80 20 139q-100 46 -209 46q-169 0 -169 -187v-97h358zM245 1059v99q0 155 84.5 244t242.5 89q73 0 152.5 -21t140.5 -51q85 72 219 72q174 0 351 -102v-1389h-165v1310q-89 33 -167 33q-38 0 -67 -8.5t-53.5 -28.5t-38 -58t-13.5 -92v-97h233v-134h-233 v-925h-164v925h-358v-925h-164v925h-183v134h183z" />
</font>
</defs>
</svg>
