<?xml version="1.0" standalone="no"?>
<!DOCTYPE svg PUBLIC "-//W3C//DTD SVG 1.1//EN" "http://www.w3.org/Graphics/SVG/1.1/DTD/svg11.dtd" >
<svg xmlns="http://www.w3.org/2000/svg" xmlns:xlink="http://www.w3.org/1999/xlink" version="1.1">
<metadata></metadata>
<defs>
<font id="hindmedium" horiz-adv-x="1178" >
<font-face units-per-em="2048" ascent="1638" descent="-410" />
<missing-glyph horiz-adv-x="513" />
<glyph unicode="&#xfb01;" horiz-adv-x="1110" d="M982 1059v-1059h-205v901h-340v-901h-205v901h-170v158h170v81q0 166 90 260.5t254 94.5q171 0 321 -76v-178q-82 38 -152.5 58.5t-148.5 20.5q-159 0 -159 -182v-79h545z" />
<glyph unicode="&#xfb02;" horiz-adv-x="1114" d="M232 1059v81q0 167 90 261t252 94q190 0 397 -110v-1385h-204v1291q-84 29 -161 29q-80 0 -124.5 -40.5t-44.5 -141.5v-79h223v-158h-223v-901h-205v901h-170v158h170z" />
<glyph horiz-adv-x="0" />
<glyph horiz-adv-x="682" />
<glyph horiz-adv-x="0" />
<glyph horiz-adv-x="0" />
<glyph unicode="&#xd;" horiz-adv-x="0" />
<glyph unicode=" "  horiz-adv-x="513" />
<glyph unicode="&#x09;" horiz-adv-x="513" />
<glyph unicode="&#xa0;" horiz-adv-x="513" />
<glyph unicode="!" horiz-adv-x="546" d="M173 447v961h201v-961h-201zM130 125q0 61 40.5 102.5t100.5 41.5t102.5 -42t42.5 -102q0 -39 -19.5 -72t-52.5 -51t-73 -18q-61 0 -101 40t-40 101z" />
<glyph unicode="&#x22;" horiz-adv-x="672" d="M90 913v510h177v-510h-177zM405 913v510h177v-510h-177z" />
<glyph unicode="#" horiz-adv-x="1509" d="M891 508l82 383h-347l-80 -383h345zM1406 891h-253l-81 -383h236v-163h-270l-73 -345h-182l74 345h-347l-73 -345h-180l73 345h-224v163h257l80 383h-236v168h271l74 349h183l-73 -349h347l73 349h180l-74 -349h218v-168z" />
<glyph unicode="$" horiz-adv-x="1058" d="M889 1352v-214q-61 40 -147.5 64t-169.5 24q-76 0 -131.5 -23.5t-84 -65t-28.5 -97.5q0 -21 5.5 -40.5t13 -35.5t23 -32.5t27 -28t35.5 -26t38.5 -23t44.5 -22.5t45.5 -21t49.5 -22q44 -19 74 -33.5t70 -37.5t67 -45t56 -53t46.5 -64.5t28.5 -77.5t11 -93 q0 -168 -107 -272t-284 -123v-224h-175v224q-171 16 -291 85v224q79 -59 179.5 -91.5t203.5 -32.5q114 0 182.5 53.5t68.5 147.5q0 21 -5 40t-12 34t-21 31t-25.5 27t-33.5 25t-36 22t-43 21.5t-44 20.5t-48.5 21.5t-49.5 21.5q-56 25 -96 47t-86.5 57t-75 73.5t-47.5 93.5 t-19 119q0 164 111.5 266.5t292.5 120.5v223h177v-228q127 -18 210 -60z" />
<glyph unicode="%" horiz-adv-x="1846" d="M443 -2l761 1416h193l-762 -1416h-192zM1047 335q0 94 46.5 175t127.5 128t176 47t175.5 -47t127 -128t46.5 -175q0 -96 -47 -176t-127 -126.5t-175 -46.5q-71 0 -136 27.5t-112 74t-74.5 111t-27.5 136.5zM100 1086q0 71 27.5 135.5t74.5 111.5t111.5 74.5t135.5 27.5 q95 0 176 -47t128 -127t47 -175t-47 -176t-128 -128t-176 -47t-175 47t-127 128t-47 176zM273 1086q0 -73 52 -125t124 -52q73 0 125 52t52 125q0 72 -52 124t-125 52q-72 0 -124 -52t-52 -124zM1220 334.5q0 -73.5 52 -125.5t125 -52q72 0 124 52t52 125.5t-52 125.5 t-124 52q-73 0 -125 -52t-52 -125.5z" />
<glyph unicode="&#x26;" horiz-adv-x="1493" d="M576 606l-2 2q-123 -46 -179 -99.5t-56 -130.5q0 -97 93.5 -156t237.5 -59q166 0 289 82zM677 1262q-85 0 -140 -48t-55 -134q0 -43 20.5 -89t54.5 -89.5t93 -105.5q125 61 180 125.5t55 141.5q0 87 -54 143t-154 56zM1487 0h-267l-124 115q-170 -131 -424 -131 q-123 0 -226 30t-172.5 82t-107.5 123t-38 153q0 127 79 215t244 146q-87 91 -133.5 173t-46.5 174q0 166 113 263.5t295 97.5q189 0 302 -103t113 -268q0 -121 -74.5 -216.5t-246.5 -176.5l309 -297q48 86 54 198h193q-9 -181 -107 -329q239 -225 265 -249z" />
<glyph unicode="'" horiz-adv-x="357" d="M90 913v510h177v-510h-177z" />
<glyph unicode="(" horiz-adv-x="664" d="M692 -409h-224q-167 209 -252.5 451t-85.5 504q0 260 85 499t238 432h222q-160 -210 -243 -455.5t-83 -487.5q0 -232 87.5 -480.5t255.5 -462.5z" />
<glyph unicode=")" horiz-adv-x="664" d="M213 1477q153 -193 237 -431.5t84 -499.5q0 -262 -84.5 -504t-250.5 -451h-227q168 214 256.5 462.5t88.5 480.5q0 241 -83 486.5t-242 456.5h221z" />
<glyph unicode="*" horiz-adv-x="911" d="M576 984h-10q36 -21 69 -67l117 -165l-134 -98l-119 163q-26 38 -41 84q-8 -34 -42 -84l-121 -163l-136 98l120 163q29 41 70 67h-12q-46 0 -84 12l-193 65l51 159l194 -62q51 -18 86 -49q-19 49 -19 99v202h167v-202q0 -53 -17 -94q38 30 86 46l192 60l53 -159l-193 -62 q-38 -13 -84 -13z" />
<glyph unicode="+" d="M1065 802v-186h-386v-389h-190v389h-378v186h378v390h190v-390h386z" />
<glyph unicode="," horiz-adv-x="511" d="M-16 -259l200 489h253l-274 -489h-179z" />
<glyph unicode="-" horiz-adv-x="730" d="M111 470v176h509v-176h-509z" />
<glyph unicode="." horiz-adv-x="402" d="M60 125q0 60 41.5 100t101.5 40q38 0 70 -18t51 -50t19 -72q0 -59 -41 -100t-99 -41q-39 0 -72 18.5t-52 51t-19 71.5z" />
<glyph unicode="/" horiz-adv-x="879" d="M-14 -213l758 1690h211l-758 -1690h-211z" />
<glyph unicode="0" horiz-adv-x="1138" d="M86 687q0 214 57.5 371.5t166 243t256.5 85.5q151 0 261 -85.5t168 -243t58 -371.5q0 -156 -31.5 -284.5t-91.5 -222t-153 -145t-211 -51.5q-149 0 -258.5 88.5t-165.5 246.5t-56 368zM295 687q0 -243 75.5 -378.5t195.5 -135.5q85 0 146.5 58.5t95.5 174.5t34 281 q0 248 -76.5 379t-199.5 131q-56 0 -104 -32t-86 -93.5t-59.5 -160.5t-21.5 -224z" />
<glyph unicode="1" horiz-adv-x="709" d="M34 945v219l340 202h186v-1366h-203v1142z" />
<glyph unicode="2" horiz-adv-x="1035" d="M357 177h594v-177h-876v169q95 70 180 140.5t168 154t143 162t97 161.5t37 155q0 79 -31.5 134.5t-89.5 83.5t-138 28q-78 0 -167 -34.5t-161 -90.5v203q68 52 165 83.5t192 31.5q92 0 172 -26.5t140.5 -77t95.5 -130.5t35 -180q0 -189 -145.5 -388.5t-410.5 -401.5z" />
<glyph unicode="3" horiz-adv-x="983" d="M119 1107v199q53 31 131.5 53t156.5 22q106 0 191.5 -29t140.5 -78.5t84.5 -115.5t29.5 -141q0 -112 -56 -197.5t-164 -127.5q119 -29 185.5 -110.5t66.5 -205.5q0 -82 -29.5 -152t-86.5 -123t-145.5 -83t-199.5 -30q-90 0 -186 18.5t-163 51.5v201q155 -84 339 -84 q124 0 193.5 61.5t69.5 158.5q0 99 -78 154t-232 55h-82v175h82q74 0 135 24t99.5 74t38.5 117q0 100 -64 150t-175 50q-70 0 -146 -25t-136 -62z" />
<glyph unicode="4" horiz-adv-x="1140" d="M287 497h411v746zM1094 497v-178h-191v-319h-205v319h-618v178l490 871h333v-871h191z" />
<glyph unicode="5" horiz-adv-x="1058" d="M376 1190v-359q77 17 142 17q213 0 334 -111.5t121 -301.5q0 -205 -135 -327t-374 -122q-218 0 -356 70v199q60 -36 149 -59t173 -23q164 0 247 68t83 200q0 107 -74.5 166t-198.5 59q-83 0 -166 -21t-148 -51v774h708v-178h-505z" />
<glyph unicode="6" horiz-adv-x="1104" d="M592 159q108 0 170.5 78t62.5 206q0 118 -62.5 187.5t-166.5 69.5q-84 0 -158 -37t-131 -99q4 -104 28.5 -183t63.5 -126.5t87.5 -71.5t105.5 -24zM938 1370v-198q-79 42 -190 42q-95 0 -172 -37t-129.5 -102t-86 -147.5t-47.5 -179.5q63 61 147.5 96t174.5 35 q186 0 293.5 -118.5t107.5 -315.5q0 -137 -53.5 -243.5t-155.5 -168t-237 -61.5q-121 0 -215.5 48.5t-154.5 135.5t-91 204.5t-31 259.5q0 167 45 310.5t126.5 248t203 163.5t267.5 59q102 0 198 -31z" />
<glyph unicode="7" horiz-adv-x="958" d="M30 1366h899v-178l-555 -1188h-219l557 1188h-682v178z" />
<glyph unicode="8" horiz-adv-x="1123" d="M558 157q65 0 116.5 18t83 48.5t47.5 69t16 81.5q0 44 -15.5 82t-46.5 69t-83 49t-118 18q-65 -1 -115 -20.5t-79.5 -52.5t-44 -73t-14.5 -85q0 -86 64.5 -145t188.5 -59zM556 1210q-107 0 -167.5 -62.5t-60.5 -153.5q0 -72 32.5 -122t84.5 -72.5t119 -22.5 q98 0 161.5 57.5t63.5 162.5q0 44 -13 81t-39.5 67t-73 47.5t-107.5 17.5zM794 687q110 -37 172 -118t62 -206q0 -114 -62.5 -201.5t-169 -133.5t-240.5 -46q-132 0 -236 44t-164 129.5t-60 197.5q0 122 62 206t170 126q-97 42 -153 122t-56 185q0 94 36 170t97.5 124 t139 73.5t164.5 25.5q59 0 113.5 -10.5t104 -31.5t90.5 -54t71 -75.5t47 -99.5t17 -124q0 -102 -54.5 -180t-150.5 -123z" />
<glyph unicode="9" horiz-adv-x="1068" d="M526 660q160 0 257 123q-2 125 -30 216t-88.5 144.5t-148.5 53.5q-108 0 -173.5 -72t-65.5 -196q0 -126 68 -197.5t181 -71.5zM136 23v198q104 -48 225 -48q94 0 166.5 28t122.5 83t81 133.5t44 182.5q-52 -60 -123 -88t-176 -28q-83 0 -157.5 31t-131 87t-90 139.5 t-33.5 183.5q0 96 30.5 179.5t86.5 145.5t140.5 97.5t186.5 35.5q80 0 148.5 -21.5t120.5 -61.5t92 -95.5t65.5 -125t38.5 -148.5t13 -166q0 -372 -157 -576.5t-453 -204.5q-135 0 -240 39z" />
<glyph unicode=":" horiz-adv-x="522" d="M121 817q0 59 40.5 99.5t99.5 40.5q58 0 99 -41t41 -99q0 -39 -18.5 -71t-51 -50.5t-70.5 -18.5q-60 0 -100 40t-40 100zM121 138q0 38 18.5 70t50.5 50.5t71 18.5q58 0 99 -40.5t41 -98.5q0 -60 -40.5 -100t-99.5 -40q-60 0 -100 40t-40 100z" />
<glyph unicode=";" horiz-adv-x="511" d="M148 815q0 60 40 101t99 41t100 -41t41 -101q0 -58 -41 -98t-100 -40t-99 40t-40 98zM-16 -259l200 489h253l-274 -489h-179z" />
<glyph unicode="&#x3c;" horiz-adv-x="1138" d="M111 612v199l927 386v-209q-607 -224 -715 -276q50 -24 228.5 -93.5t332.5 -126.5l154 -57v-210z" />
<glyph unicode="=" d="M111 842v175h954v-175h-954zM111 403v177h954v-177h-954z" />
<glyph unicode="&#x3e;" horiz-adv-x="1138" d="M1026 811v-199l-926 -387v210q602 223 715 277q-23 11 -74.5 32t-116 46t-137.5 52.5t-141 53.5t-123.5 46.5t-88.5 33.5l-34 12v209z" />
<glyph unicode="?" horiz-adv-x="947" d="M106 1144v203q20 11 42.5 21t48 19t53.5 16t58 12t62 7.5t65 2.5q130 0 228.5 -44.5t154 -131.5t55.5 -207q0 -75 -24.5 -138.5t-64.5 -106t-92 -73.5t-104.5 -46.5t-105.5 -19.5l-2 -211h-193l-2 336q185 0 281 61t96 184q0 98 -62 157.5t-184 59.5q-155 0 -310 -101z M238 125q0 60 41.5 102t100.5 42q61 0 102.5 -42t41.5 -102q0 -61 -41 -101t-103 -40q-60 0 -101 40.5t-41 100.5z" />
<glyph unicode="@" horiz-adv-x="1933" d="M923 186q80 0 150.5 57.5t100.5 159.5q3 50 6 107q-32 215 -213 215q-68 0 -123 -39.5t-86 -109.5t-31 -158q0 -104 55.5 -168t140.5 -64zM1285 -115l-9 -190q-82 -39 -182.5 -57t-194.5 -18q-147 0 -273 39.5t-219.5 111.5t-160 170.5t-100 218t-33.5 251.5 q0 128 34 247.5t94.5 218.5t146 181.5t188 139t222 87.5t244.5 31q129 0 248.5 -33t220 -98.5t175 -155.5t116.5 -211.5t42 -259.5q0 -99 -22 -184.5t-59 -147.5t-86.5 -106.5t-105 -66t-112.5 -21.5q-60 0 -107.5 16t-78.5 45t-51 61.5t-32 70.5q-46 -94 -127.5 -145.5 t-183.5 -51.5q-105 0 -184 54.5t-118.5 144.5t-39.5 201q0 98 32.5 183t88 144.5t131 93.5t160.5 34q169 0 248 -139q1 19 4.5 63t4.5 68h167l-21 -215q-15 -187 -15 -251q0 -110 31 -162.5t99 -52.5q86 0 143 97t57 255q0 117 -32 215.5t-89.5 168.5t-136.5 119t-173 72 t-200 23q-150 0 -285.5 -57.5t-234 -155.5t-156 -234.5t-57.5 -287.5q0 -119 32 -220.5t88 -173.5t132 -122.5t163.5 -75t182.5 -24.5q213 0 384 92z" />
<glyph unicode="A" horiz-adv-x="1378" d="M464 524h451l-24 72q-36 113 -67 210t-51 161.5t-35.5 116t-24 81t-13.5 48.5t-7 26l-1 6q-24 -97 -205 -649zM1084 0l-111 345h-568l-112 -345h-229l488 1408h281l481 -1408h-230z" />
<glyph unicode="B" horiz-adv-x="1212" d="M367 177h277q129 0 197 56t68 164q0 52 -18 93.5t-53.5 71t-90 45t-125.5 15.5h-255v-445zM367 1230v-432h195q80 0 141 18t97 50t53.5 73t17.5 89q0 91 -68 146.5t-205 55.5h-231zM153 1408h461q221 0 348.5 -103t127.5 -273q0 -118 -65 -205t-168 -113 q54 -10 101 -34.5t86 -64.5t61.5 -101t22.5 -136q0 -81 -28.5 -150t-82.5 -120t-137 -79.5t-186 -28.5h-541v1408z" />
<glyph unicode="C" horiz-adv-x="1263" d="M1170 1349v-211q-92 50 -166.5 70t-188.5 20q-102 0 -192.5 -37t-157 -103.5t-105.5 -165t-39 -216.5q0 -120 37.5 -218.5t104 -165.5t161 -103.5t207.5 -36.5q94 0 185 28t156 77v-218q-47 -30 -110.5 -50t-124 -27.5t-124.5 -7.5q-155 0 -287 50.5t-227 142.5t-149 228 t-54 301q0 159 54 294t148.5 228.5t226.5 146t284 52.5q224 0 361 -78z" />
<glyph unicode="D" horiz-adv-x="1393" d="M372 182h222q98 0 179.5 27.5t138.5 76t96 116t57.5 147.5t18.5 170q0 106 -34.5 198t-97.5 160t-157.5 107.5t-208.5 39.5h-214v-1042zM153 1408h439q123 0 234 -33t198 -94.5t150.5 -145.5t97.5 -190.5t34 -225.5q0 -121 -30 -230t-89.5 -198t-144 -154t-198.5 -101 t-248 -36h-443v1408z" />
<glyph unicode="E" horiz-adv-x="1073" d="M367 180h598v-180h-812v1408h802v-180h-588v-434h520v-180h-520v-434z" />
<glyph unicode="F" horiz-adv-x="1031" d="M951 1228h-584v-461h512v-181h-512v-586h-214v1408h798v-180z" />
<glyph unicode="G" horiz-adv-x="1421" d="M1285 804v-674h-3l3 -15q-79 -58 -197.5 -94.5t-258.5 -36.5q-161 0 -296.5 49.5t-232 141t-150.5 228t-54 303.5q0 160 54.5 296.5t150.5 230.5t229 147t287 53q244 0 409 -94v-221q-178 112 -401 112q-148 0 -262.5 -64.5t-178 -184t-63.5 -275.5q0 -243 137.5 -382.5 t376.5 -139.5q127 0 239 46v388h-287v186h498z" />
<glyph unicode="H" horiz-adv-x="1369" d="M1001 1408h215v-1408h-215v616h-634v-616h-214v1408h214v-606h634v606z" />
<glyph unicode="I" horiz-adv-x="550" d="M169 0v1408h213v-1408h-213z" />
<glyph unicode="J" horiz-adv-x="768" d="M62 44v199q86 -53 172 -53q171 0 171 182v1036h215v-1028q0 -99 -26 -173t-73.5 -119t-110.5 -66.5t-141 -21.5q-54 0 -112 11.5t-95 32.5z" />
<glyph unicode="K" horiz-adv-x="1250" d="M153 0v1408h214v-1408h-214zM652 698l548 -698h-273l-532 696l512 712h261z" />
<glyph unicode="L" horiz-adv-x="1002" d="M367 190h578v-190h-792v1408h214v-1218z" />
<glyph unicode="M" horiz-adv-x="1812" d="M134 0l109 1408h254l188 -513q23 -61 46.5 -126.5t42.5 -121t37.5 -109t32 -95t23.5 -73t15 -48.5l5 -17q97 285 212 590l196 513h255l130 -1408h-213l-50 552q-6 61 -11.5 125t-9.5 117.5t-8 104.5t-6.5 89.5t-4.5 67.5t-3 45l-1 15q-94 -266 -205 -564l-197 -524h-169 l-190 524q-51 144 -98.5 283t-69.5 205l-22 67q0 -76 -33 -555l-42 -552h-213z" />
<glyph unicode="N" horiz-adv-x="1419" d="M153 0v1408h254l347 -589q96 -165 174 -305t107 -198l30 -57q-12 192 -12 558v591h215v-1408h-255l-349 586q-95 159 -173 300t-109 203l-31 62q16 -209 16 -561v-590h-214z" />
<glyph unicode="O" horiz-adv-x="1485" d="M96 710q0 217 78.5 381t225 254t342.5 90q199 0 346 -90t224 -253.5t77 -381.5t-78 -382.5t-224.5 -254t-342.5 -89.5q-195 0 -342 89.5t-226.5 254.5t-79.5 382zM321 710q0 -243 115 -384.5t308 -141.5q198 0 309 140.5t111 385.5q0 244 -111.5 384t-310.5 140 q-196 0 -308.5 -140.5t-112.5 -383.5z" />
<glyph unicode="P" horiz-adv-x="1148" d="M367 677h185q153 0 233 75.5t80 198.5q0 130 -81 204.5t-236 74.5h-181v-553zM153 1408h403q97 0 180.5 -22.5t146.5 -63t108 -97t68 -126.5t23 -148q0 -133 -65 -236t-182 -159.5t-267 -56.5h-201v-499h-214v1408z" />
<glyph unicode="Q" horiz-adv-x="1501" d="M321 710q0 -243 115 -384.5t308 -141.5q198 0 309 140.5t111 385.5q0 244 -111.5 384t-310.5 140q-196 0 -308.5 -140.5t-112.5 -383.5zM1461 -207l-239 -94l-411 287q-24 -2 -67 -2q-195 0 -342 89.5t-226.5 254.5t-79.5 382t78.5 381t225 254t342.5 90q199 0 346 -90 t224 -253.5t77 -381.5q0 -237 -92 -410t-259 -254z" />
<glyph unicode="R" horiz-adv-x="1186" d="M367 1228v-514h195q134 0 202.5 70.5t68.5 186.5q0 126 -71 191.5t-210 65.5h-185zM883 0l-329 534h-187v-534h-214v1408h393q242 0 373.5 -118t131.5 -321q-3 -149 -76 -252t-202 -149l367 -568h-257z" />
<glyph unicode="S" horiz-adv-x="1088" d="M913 1352v-214q-64 40 -149.5 64t-167.5 24q-115 0 -181 -50.5t-66 -135.5q0 -25 7.5 -48.5t19 -42t33 -37t40 -32t50 -29.5t54 -26.5t59.5 -26.5q38 -17 60 -27t58 -28t58.5 -32t52.5 -36t48.5 -42.5t39 -48.5t31.5 -57t18.5 -65.5t7.5 -76.5q0 -125 -61.5 -216.5 t-167.5 -137t-243 -45.5q-107 0 -208.5 23t-175.5 66v224q79 -60 178.5 -92t203.5 -32q114 0 181 53.5t67 147.5q0 26 -7.5 49t-18.5 40.5t-32.5 36t-39.5 31t-50 29t-54 27t-61 27.5l-10 5q-50 22 -75.5 34.5t-71 38t-70.5 45.5t-57.5 52.5t-49.5 65.5t-29.5 78t-12.5 95 q0 120 61.5 209t166.5 134.5t241 45.5q188 0 323 -67z" />
<glyph unicode="T" horiz-adv-x="1044" d="M999 1408v-180h-371v-1228h-214v1228h-368v180h953z" />
<glyph unicode="U" horiz-adv-x="1361" d="M999 534v874h215v-869q0 -111 -24.5 -201.5t-70 -156t-111.5 -110.5t-148.5 -67t-180.5 -22q-162 0 -280.5 60t-184.5 182.5t-66 297.5v886h215v-884q0 -92 24.5 -160.5t68.5 -107.5t99.5 -57.5t123.5 -18.5q320 0 320 354z" />
<glyph unicode="V" horiz-adv-x="1342" d="M1280 1408l-486 -1408h-255l-475 1408h231l179 -560q58 -180 106.5 -344t67.5 -238l20 -74q68 251 201 656l182 560h229z" />
<glyph unicode="W" horiz-adv-x="1977" d="M903 1387h189l149 -502l190 -662q77 381 144 662l123 523h218l-345 -1408h-257l-134 445q-26 88 -50.5 170t-42 143t-33 114.5t-25.5 89.5t-17 62t-10 38l-3 12q-49 -200 -176 -629l-129 -445h-259l-371 1408h225l131 -521q30 -117 68.5 -282t62.5 -271l23 -107 q94 352 184 660z" />
<glyph unicode="X" horiz-adv-x="1311" d="M524 712l-426 696h249l299 -505q13 26 79 138.5t134 227.5t81 139h257l-426 -698l465 -710h-252l-334 528q-20 -36 -162 -268t-158 -260h-257z" />
<glyph unicode="Y" horiz-adv-x="1269" d="M1222 1408l-482 -884v-524h-216v524l-476 884h247l100 -206q95 -195 154 -320.5t70 -153.5l11 -28q20 64 243 502l102 206h247z" />
<glyph unicode="Z" horiz-adv-x="1219" d="M1078 1408v-165l-713 -1066h742v-177h-994v169l710 1061h-700v178h955z" />
<glyph unicode="[" horiz-adv-x="678" d="M666 1295h-313v-1502h313v-182h-513v1866h513v-182z" />
<glyph unicode="\" horiz-adv-x="877" d="M136 1477l759 -1692h-212l-761 1692h214z" />
<glyph unicode="]" horiz-adv-x="678" d="M526 1477v-1866h-512v182h314v1502h-314v182h512z" />
<glyph unicode="^" horiz-adv-x="981" d="M895 694h-199l-203 396l-206 -396h-201l303 547h209z" />
<glyph unicode="_" horiz-adv-x="1162" d="M54 -249v176h1055v-176h-1055z" />
<glyph unicode="`" horiz-adv-x="927" d="M480 1667l199 -338h-175l-251 338h227z" />
<glyph unicode="a" horiz-adv-x="1041" d="M702 472h-159q-118 0 -177 -46t-59 -117q0 -48 19.5 -82.5t60 -54t100.5 -19.5q100 0 157.5 55t57.5 145v119zM169 807v198q54 31 143 51t183 20q213 0 314.5 -101.5t101.5 -302.5v-672h-203v125q-15 -24 -37 -45.5t-56 -42.5t-83.5 -33t-109.5 -12q-150 0 -241 87 t-91 220q0 152 115 236.5t321 84.5h176v61q0 53 -11.5 92t-37.5 68.5t-70 44.5t-107 15q-81 0 -163 -26t-144 -68z" />
<glyph unicode="b" horiz-adv-x="1214" d="M644 165q118 0 196.5 99t78.5 256q0 92 -22 164t-60.5 117.5t-89.5 69.5t-109 24q-38 0 -75.5 -11.5t-75.5 -38.5t-67 -66.5t-47 -102.5t-18 -139q0 -79 16 -142.5t43.5 -105.5t65 -70.5t78 -41t86.5 -12.5zM355 1477v-578q54 84 136.5 129.5t183.5 45.5q98 0 182 -39 t144.5 -109.5t94.5 -174t34 -227.5q0 -85 -18.5 -164t-56 -147t-91 -118.5t-127.5 -79.5t-160 -29q-209 0 -322 175v-161h-207v1477h207z" />
<glyph unicode="c" horiz-adv-x="983" d="M297 524q1 -62 16.5 -117t45.5 -100.5t72 -79t100 -52t127 -18.5q61 0 123 19t110 49v-183q-47 -29 -118.5 -45.5t-142.5 -16.5q-100 0 -187 27.5t-152 78t-111.5 118.5t-70 150t-23.5 172q0 87 23 168.5t70 151t112 121.5t155 81.5t194 29.5q136 0 251 -59v-188 q-49 32 -112.5 49t-118.5 17q-165 0 -264 -105t-99 -268z" />
<glyph unicode="d" horiz-adv-x="1210" d="M572 165q57 0 107 21t91.5 63.5t66 116t24.5 171.5q0 76 -18 139t-47 102.5t-67 66.5t-75.5 38.5t-75.5 11.5q-47 0 -88.5 -15t-77 -45.5t-61 -74t-40 -105t-14.5 -135.5q0 -158 78 -256.5t197 -98.5zM861 1477h207v-1477h-207v161q-113 -175 -324 -175q-86 0 -159.5 29 t-126.5 79.5t-90.5 118.5t-56 147t-18.5 164q0 100 22 186.5t62.5 153t96.5 114t125.5 72t148.5 24.5q101 0 183.5 -45.5t136.5 -129.5v578z" />
<glyph unicode="e" horiz-adv-x="1096" d="M802 606v38q-3 119 -64.5 189t-173.5 70q-105 0 -180 -76.5t-93 -220.5h511zM933 241v-185q-55 -31 -142.5 -48.5t-166.5 -17.5q-163 0 -286 68.5t-187.5 189.5t-64.5 278q0 128 36.5 232t100.5 172.5t150 105t187 36.5q203 0 322 -126.5t119 -365.5q0 -64 -13 -135h-695 q22 -137 117 -210.5t242 -73.5q77 0 152.5 21.5t128.5 58.5z" />
<glyph unicode="f" horiz-adv-x="697" d="M690 1479v-180q-49 21 -100 21q-69 0 -111 -43.5t-42 -138.5v-79h223v-158h-223v-901h-205v901h-170v158h170v81q0 166 89 260.5t249 94.5q59 0 120 -16z" />
<glyph unicode="g" horiz-adv-x="1166" d="M562 205q51 0 98.5 20t86 58.5t61.5 101.5t23 141q0 97 -22.5 170.5t-60.5 115.5t-83 62.5t-95 20.5q-123 0 -194 -97.5t-71 -256.5q0 -85 22 -151t59 -105.5t82 -59.5t94 -20zM831 1059h205v-969q0 -101 -25.5 -183.5t-71 -139.5t-108.5 -95.5t-135.5 -56.5t-154.5 -18 q-205 0 -344 68v207q65 -42 151 -64.5t172 -22.5q311 0 311 307v109q-102 -171 -307 -171q-67 0 -130 19.5t-118.5 61t-96.5 100t-65 142.5t-24 184q0 153 52.5 274.5t152 192t229.5 70.5q211 0 307 -179v164z" />
<glyph unicode="h" horiz-adv-x="1150" d="M349 1477v-600q44 97 127 147t201 50q155 0 248.5 -96t93.5 -268v-710h-204v668q0 108 -56 168.5t-145 60.5q-31 0 -61.5 -8t-60.5 -23.5t-55.5 -42t-45.5 -61t-31 -83t-11 -105.5v-574h-205v1477h205z" />
<glyph unicode="i" horiz-adv-x="511" d="M153 0v1059h206v-1059h-206zM128 1383q0 55 36.5 92.5t90.5 37.5q26 0 50 -10t41.5 -27.5t28 -41.5t10.5 -51q0 -53 -38 -90t-92 -37t-90.5 37t-36.5 90z" />
<glyph unicode="j" horiz-adv-x="504" d="M-92 -378v173q64 -33 134 -33q115 0 115 148v1149h204v-1153q0 -147 -78.5 -231t-222.5 -84q-68 0 -152 31zM130 1383q0 55 36.5 92.5t90.5 37.5q26 0 50 -10t41.5 -27.5t28 -41.5t10.5 -51q0 -53 -38 -90t-92 -37t-90.5 37t-36.5 90z" />
<glyph unicode="k" horiz-adv-x="1044" d="M144 0v1463h205v-1463h-205zM594 554l415 -554h-244l-408 554l399 505h241z" />
<glyph unicode="l" horiz-adv-x="511" d="M153 0v1477h206v-1477h-206z" />
<glyph unicode="m" horiz-adv-x="1732" d="M349 1059v-170q29 60 73.5 101.5t101.5 62.5t124 21q79 0 141 -24.5t102.5 -70t61.5 -110.5q44 99 127 152t188 53q163 0 247.5 -96t84.5 -266v-712h-205v668q0 110 -46 169.5t-137 59.5q-42 0 -82.5 -19t-75.5 -56t-57 -101.5t-22 -146.5v-574h-204v668q0 110 -47 169.5 t-140 59.5q-41 0 -81 -19t-75 -56t-57 -101.5t-22 -146.5v-574h-205v1059h205z" />
<glyph unicode="n" horiz-adv-x="1150" d="M349 1059v-182q45 96 129.5 146.5t200.5 50.5q157 0 248.5 -96t91.5 -262v-716h-204v668q0 112 -55 170.5t-148 58.5q-52 0 -98.5 -21t-83.5 -60t-59 -101.5t-22 -140.5v-574h-205v1059h205z" />
<glyph unicode="o" d="M586 -18q-118 0 -214 42t-158 115t-95 170.5t-33 210.5q0 116 35.5 217.5t99 176t158.5 117.5t207 43q99 0 181.5 -27.5t142 -77t101 -118t61.5 -150t20 -173t-21 -174t-63.5 -150.5t-102.5 -117.5t-141.5 -77t-177.5 -27.5zM584 901q-69 0 -124 -30.5t-90 -82.5 t-53 -119t-18 -142.5t19.5 -143t55 -118.5t90.5 -80.5t122 -29.5q73 0 129.5 29t91.5 80.5t52.5 117t17.5 142.5q0 62 -9.5 116.5t-32 103t-56 83t-83 54.5t-112.5 20z" />
<glyph unicode="p" horiz-adv-x="1210" d="M633 165q125 0 203.5 96.5t78.5 272.5q0 166 -77 263.5t-196 97.5q-44 0 -84 -11.5t-78.5 -38.5t-67 -67.5t-46 -103.5t-17.5 -142q0 -77 17.5 -140t46 -104.5t66 -69.5t76.5 -40.5t78 -12.5zM349 1059v-162q52 84 134.5 130.5t191.5 46.5q105 0 190.5 -41t142 -113.5 t87.5 -170.5t31 -212q0 -158 -55 -282.5t-159.5 -196.5t-241.5 -72q-104 0 -185.5 45t-135.5 130v-566h-205v1464h205z" />
<glyph unicode="q" horiz-adv-x="1210" d="M578 165q34 0 66.5 9t64.5 27t59 48t48 69.5t33 94.5t12 119q0 79 -17 142t-45.5 103.5t-66.5 67.5t-77.5 38.5t-82.5 11.5q-119 0 -197 -99t-78 -262q0 -174 80 -271.5t201 -97.5zM861 1059h207v-1464h-207v568q-55 -86 -137 -131.5t-183 -45.5q-137 0 -241.5 72 t-159 196.5t-54.5 282.5q0 114 30.5 212t87.5 170.5t143 113.5t192 41q209 0 322 -173v158z" />
<glyph unicode="r" horiz-adv-x="707" d="M349 1059v-186q36 92 105.5 144.5t171.5 52.5q25 0 66 -7v-200q-44 18 -98 18q-71 0 -128 -44.5t-87 -116.5t-30 -156v-564h-205v1059h205z" />
<glyph unicode="s" horiz-adv-x="875" d="M748 1024v-187q-31 18 -72.5 32t-91.5 22t-100 8q-73 0 -116 -33.5t-43 -88.5q0 -18 6 -34t13.5 -28.5t24 -26t28.5 -22t36 -20.5t38 -18.5t42 -18.5q20 -9 30 -13q46 -21 80 -39.5t70.5 -46t60 -57.5t38.5 -71t15 -89q0 -143 -101 -223t-271 -80q-92 0 -176 17.5 t-138 44.5v195q65 -40 145.5 -65t157.5 -25q56 0 95 15.5t58 42t19 62.5q0 18 -4 33.5t-14.5 30t-19.5 25t-29 23.5t-33 20.5t-41 20.5t-43 19.5t-49 20.5q-40 17 -72.5 34.5t-66.5 44t-57 57t-37.5 73.5t-14.5 92q0 70 29 127.5t78.5 94.5t116 57t141.5 20q174 0 268 -46z " />
<glyph unicode="t" horiz-adv-x="780" d="M409 901v-584q0 -75 37.5 -113.5t109.5 -38.5q38 0 77 12t67 34v-183q-32 -18 -81 -28t-89 -10q-327 0 -327 331v580h-165v158h165v259h206v-259h278v-158h-278z" />
<glyph unicode="u" horiz-adv-x="1150" d="M802 1059h205v-1059h-205v182q-84 -194 -330 -194q-157 0 -248.5 92.5t-91.5 256.5v722h207v-672q0 -73 24.5 -123.5t69 -75.5t106.5 -25q120 0 191.5 83.5t71.5 235.5v577z" />
<glyph unicode="v" horiz-adv-x="1073" d="M416 0l-376 1059h215l144 -447q32 -98 57.5 -180t39.5 -130t23 -82t12 -46l3 -13q19 103 138 451l149 447h213l-384 -1059h-234z" />
<glyph unicode="w" horiz-adv-x="1662" d="M372 0l-332 1059h217l98 -351q48 -168 81 -295.5t42 -170.5l9 -43q26 131 137 511l103 349h198l105 -349q32 -109 58.5 -202.5t41 -148t24.5 -93.5t13 -54l3 -15q25 123 142 513l105 349h206l-336 -1059h-234l-98 347q-28 99 -51.5 186t-37 140t-23 92t-12.5 54l-4 16 q-30 -136 -127 -488l-96 -347h-232z" />
<glyph unicode="x" horiz-adv-x="1027" d="M626 537l354 -537h-232l-232 389l-245 -389h-225l361 539l-338 522h232l221 -374l228 374h230z" />
<glyph unicode="y" horiz-adv-x="1052" d="M437 23l-423 1036h229l131 -345q42 -108 74 -193.5t48.5 -131t26.5 -75t13 -38.5l3 -9q19 63 151 447l119 345h217l-382 -1029q-43 -113 -95 -193.5t-112 -126.5t-123 -67t-137 -21q-52 0 -95 11v175q38 -9 71 -9q202 0 284 224z" />
<glyph unicode="z" horiz-adv-x="962" d="M846 1059v-146l-521 -740h548v-173h-783v157l514 730h-496v172h738z" />
<glyph unicode="{" horiz-adv-x="726" d="M96 443v201q28 0 52 2q44 4 79.5 25t57.5 53t33.5 71t11.5 82q0 44 -18.5 137t-18.5 146q0 147 82.5 238t204.5 91q55 0 112 -18v-197q-38 19 -70 19q-38 0 -66.5 -19t-42.5 -51t-14 -72q0 -47 19 -147t19 -158q0 -120 -67 -203t-183 -100q116 -18 183 -101.5t67 -203.5 q0 -59 -19 -157.5t-19 -144.5q0 -64 32.5 -104.5t90.5 -40.5q32 0 70 19v-197q-57 -18 -112 -18q-122 0 -204.5 91t-82.5 239q0 52 18.5 145.5t18.5 136.5q0 91 -45.5 156t-136.5 78q-18 2 -52 2z" />
<glyph unicode="|" horiz-adv-x="506" d="M159 -405v1856h190v-1856h-190z" />
<glyph unicode="}" horiz-adv-x="726" d="M36 1274v197q56 18 108 18q123 0 205.5 -91t82.5 -238q0 -53 -18.5 -146t-18.5 -137q0 -90 47.5 -156.5t135.5 -74.5q21 -2 52 -2v-201q-35 0 -52 -2q-61 -9 -103.5 -44t-61 -83t-18.5 -107q0 -43 18.5 -136.5t18.5 -145.5q0 -148 -82.5 -239t-205.5 -91q-52 0 -108 18 v197q32 -19 66 -19q58 0 91.5 41t33.5 104q0 46 -18.5 144.5t-18.5 157.5q0 119 67 203t182 102q-115 17 -182 100t-67 203q0 58 18.5 158t18.5 147q0 61 -33.5 101.5t-91.5 40.5q-34 0 -66 -19z" />
<glyph unicode="~" horiz-adv-x="1284" d="M1065 712l149 -110q-133 -201 -317 -201q-36 0 -71 6t-64 16t-59 22.5t-55.5 25.5t-52.5 25.5t-51 22.5t-50.5 16t-50.5 6q-46 0 -86 -14.5t-76 -45t-72 -78.5l-138 117q67 95 153 151t181 56q61 0 118 -14t100 -34.5t82.5 -40.5t81 -34t80.5 -14q64 0 110.5 31t87.5 91z " />
<glyph unicode="&#xa1;" horiz-adv-x="546" d="M130 938q0 62 40 102t101 40t103 -40.5t42 -101.5q0 -59 -42.5 -101.5t-102.5 -42.5q-30 0 -56.5 11.5t-45 31t-29 46t-10.5 55.5zM173 -345v961h201v-961h-201z" />
<glyph unicode="&#xa2;" horiz-adv-x="960" d="M877 1019v-184q-100 56 -213 56q-164 0 -265 -102.5t-102 -264.5q2 -104 44 -185t125.5 -129.5t197.5 -48.5t213 58v-183q-69 -34 -165 -48v-220h-175v222q-138 21 -241 97t-156.5 190t-53.5 249q0 98 30.5 187t86.5 161t142 122t192 67v226h175v-221q86 -10 165 -49z " />
<glyph unicode="&#xa3;" horiz-adv-x="1100" d="M369 177h655v-177h-907v171q110 54 151 133t41 218q0 23 -4 74h-180v156h164q-16 113 -16 169q0 218 114.5 337t328.5 119q145 0 245 -57v-200q-100 62 -213 62q-127 0 -191 -63.5t-64 -197.5q0 -43 13 -169h367v-156h-351q0 -13 1 -37.5t1 -36.5q0 -95 -20.5 -164 t-52.5 -109t-82 -72z" />
<glyph unicode="&#xa4;" horiz-adv-x="1150" d="M117 648q0 139 75 255l-125 125l127 123l125 -125q113 77 261 77q140 0 257 -71l122 119l125 -123l-121 -121q73 -116 73 -251q0 -141 -79 -259l127 -126l-125 -123l-130 125q-108 -72 -257 -72q-151 0 -257 68l-121 -121l-127 123l123 122q-73 104 -73 255zM293 652 q0 -48 13 -92t38.5 -79t59.5 -61t78.5 -40.5t93.5 -14.5q125 0 205 81.5t80 205.5q0 122 -80.5 204t-204.5 82t-203.5 -82t-79.5 -204z" />
<glyph unicode="&#xa5;" horiz-adv-x="1252" d="M1192 1366l-337 -610h244v-142h-324l-46 -84v-85h370v-142h-370v-303h-215v303h-368v142h368v85l-46 84h-322v142h243l-335 610h247l319 -626l329 626h243z" />
<glyph unicode="&#xa6;" horiz-adv-x="506" d="M349 767h-190v696h190v-696zM349 -335h-190v696h190v-696z" />
<glyph unicode="&#xa7;" horiz-adv-x="1120" d="M319 620q0 -26 7.5 -49.5t18.5 -42t33 -37.5t41.5 -32.5t53.5 -31t59.5 -29.5t69.5 -31q93 -38 152 -70q40 51 40 125q0 20 -4.5 38.5t-10.5 33.5t-19 30.5t-23.5 26.5t-31 25.5t-34 23t-41 23t-43.5 22.5t-49 24q-17 8 -26 12q-24 12 -73.5 34.5t-73.5 34.5 q-46 -58 -46 -130zM909 1354v-214q-65 39 -150.5 63.5t-166.5 24.5q-78 0 -133 -20t-82.5 -57.5t-27.5 -89.5q0 -23 6 -42.5t16 -34.5t28 -29.5t36 -25.5t46.5 -25t53.5 -25t63 -28t68 -32q44 -21 74 -36.5t68.5 -39t63.5 -45t51.5 -52t42 -62.5t25.5 -74t10 -90 q0 -71 -23.5 -135t-64.5 -110q79 -93 79 -213q0 -119 -60 -205t-165 -128.5t-243 -42.5q-106 0 -208 23.5t-176 67.5v223q79 -59 179.5 -91t202.5 -32q120 0 185.5 46.5t65.5 136.5q0 33 -11 59t-30.5 48.5t-60 46.5t-85.5 46t-120 55q-34 15 -60.5 28t-57.5 30t-55 33.5 t-49.5 37t-44.5 42t-36 47.5t-28 54.5t-17.5 62t-6.5 70.5q0 138 90 241q-76 79 -76 194q0 116 60 199.5t162.5 125t236.5 41.5q190 0 325 -67z" />
<glyph unicode="&#xa8;" horiz-adv-x="927" d="M106 1502q0 54 35.5 89.5t92.5 35.5q53 0 89 -35.5t36 -89t-36 -89.5t-89 -36q-57 0 -92.5 35.5t-35.5 89.5zM568 1502.5q0 53.5 36 89t90 35.5q55 0 91 -35.5t36 -89t-36 -89.5t-91 -36q-54 0 -90 36t-36 89.5z" />
<glyph unicode="&#xa9;" horiz-adv-x="1612" d="M86 703.5q0 145.5 57.5 279t154.5 230.5t230 154.5t278.5 57.5t279 -57.5t230 -154.5t154 -230.5t57.5 -279t-57.5 -279t-154 -230.5t-230 -154.5t-278.5 -57.5t-278.5 57.5t-230.5 154.5t-154.5 230.5t-57.5 279zM243 702q0 -93 28 -179.5t80 -155.5t121.5 -121t156 -80 t180.5 -28q115 0 219 44t179 119t119 180t44 221t-44 221t-119 180.5t-179 120t-219 44.5q-117 0 -222 -44.5t-180.5 -120t-119.5 -180.5t-44 -221zM638 700q1 -101 64 -166.5t161 -65.5q45 0 89.5 14t77.5 38v-155q-34 -20 -84.5 -32t-99.5 -12q-112 0 -199 50.5 t-134 136.5t-47 192q0 77 26 146.5t74 122.5t122.5 84t164.5 31q99 0 177 -44v-153q-34 23 -79.5 34.5t-85.5 11.5q-64 0 -115.5 -28t-81.5 -81.5t-30 -123.5z" />
<glyph unicode="&#xaa;" horiz-adv-x="761" d="M524 1216h-119q-105 0 -161 -36t-56 -102q0 -59 40 -94t115 -35q79 0 130 46.5t51 113.5v107zM75 1499v166q30 17 72.5 30.5t96 22t107.5 8.5q180 0 264.5 -85t84.5 -254v-568h-172v110q-35 -52 -96.5 -85t-142.5 -33q-128 0 -204.5 71.5t-76.5 189.5q0 128 98 200.5 t272 72.5h146v46q0 45 -9.5 78t-31.5 58t-59.5 37.5t-90.5 12.5q-67 0 -136.5 -21.5t-121.5 -56.5z" />
<glyph unicode="&#xab;" horiz-adv-x="1068" d="M594 867l-307 -339l307 -338h-225l-313 338l313 339h225zM1001 867l-305 -339l305 -338h-222l-315 338l315 339h222z" />
<glyph unicode="&#xac;" horiz-adv-x="1180" d="M1099 319h-182v371h-853v175h1035v-546z" />
<glyph unicode="&#xad;" horiz-adv-x="730" d="M111 470v176h509v-176h-509z" />
<glyph unicode="&#xae;" horiz-adv-x="964" d="M439 1347v-131h50q30 0 45.5 18t15.5 48q0 35 -17 50t-51 15h-43zM341 1429h133q176 0 176 -147q0 -91 -76 -129l118 -184h-118l-100 167h-35v-167h-98v460zM484 829q160 0 256.5 98t96.5 257t-96.5 258t-256.5 99t-257 -98.5t-97 -258.5q0 -105 43.5 -185.5t124 -125 t186.5 -44.5zM482 1644q132 0 237.5 -58.5t165.5 -164t60 -237.5q0 -98 -35.5 -184t-96.5 -146t-146.5 -94.5t-184.5 -34.5q-132 0 -237.5 58.5t-165 163.5t-59.5 237t59.5 237t165 164t237.5 59z" />
<glyph unicode="&#xaf;" horiz-adv-x="927" d="M781 1423h-635v142h635v-142z" />
<glyph unicode="&#xb0;" horiz-adv-x="793" d="M62 1086q0 141 97 237t240 96q92 0 168.5 -42.5t120 -118t43.5 -168.5t-44.5 -169.5t-122 -119.5t-169.5 -43q-143 0 -238 93t-95 235zM219 1088q0 -49 24 -90.5t65.5 -66t90.5 -24.5q74 0 124.5 53t50.5 128q0 37 -14 70.5t-38 58t-57 39t-70 14.5q-75 0 -125.5 -53 t-50.5 -129z" />
<glyph unicode="&#xb1;" d="M111 62v176h954v-176h-954zM679 865h386v-178h-386v-334h-190v334h-378v178h378v335h190v-335z" />
<glyph unicode="&#xb2;" horiz-adv-x="761" d="M90 819v119q79 59 145.5 118t125.5 124.5t92.5 131.5t33.5 123q0 70 -41 106t-109 36q-53 0 -111 -23t-109 -61v166q111 69 234 69q83 0 151 -31t110 -95.5t42 -152.5q0 -123 -95.5 -252t-253.5 -242h378v-136h-593z" />
<glyph unicode="&#xb3;" horiz-adv-x="694" d="M219 1341h44q74 0 123 33t49 93q0 59 -36.5 88.5t-101.5 29.5q-30 0 -64.5 -8.5t-68.5 -24t-64 -35.5v154q39 25 94.5 41t110.5 16q57 0 105 -12.5t82.5 -35t59 -53.5t36.5 -67.5t12 -76.5q0 -83 -44 -136t-121 -71q78 -8 132.5 -66.5t54.5 -148.5q0 -111 -79.5 -180.5 t-221.5 -69.5q-61 0 -130 14t-118 38v146q111 -58 232 -58q36 0 65.5 9t49 25t30 39.5t10.5 51.5q0 60 -49 95t-148 35h-44v135z" />
<glyph unicode="&#xb4;" horiz-adv-x="927" d="M253 1329l198 338h228l-251 -338h-175z" />
<glyph unicode="&#xb5;" horiz-adv-x="1162" d="M815 1059h204v-1059h-204v150q-36 -79 -102.5 -120.5t-158.5 -41.5q-120 0 -205 60v-422h-205v1433h205v-672q0 -71 33.5 -123t85.5 -76.5t114 -24.5q111 0 172 82.5t61 236.5v577z" />
<glyph unicode="&#xb6;" horiz-adv-x="1166" d="M620 1408v-1717h-171v1007q-98 0 -176.5 28.5t-127.5 77.5t-75 112t-26 135q0 44 11 87t33 83t57 74t80.5 59t106.5 39.5t132 14.5h156zM846 -309l2 1717h171v-1717h-173z" />
<glyph unicode="&#xb7;" horiz-adv-x="504" d="M113 626.5q0 59.5 41 100t101 40.5q58 0 99 -40.5t41 -100t-41 -101t-99 -41.5q-60 0 -101 41.5t-41 101z" />
<glyph unicode="&#xb8;" horiz-adv-x="927" d="M628 -257q0 -37 -9 -71t-26.5 -65t-45.5 -57t-64 -45t-83.5 -30t-102.5 -12v142q84 5 127.5 42t43.5 102q0 68 -52 145h176q18 -25 27 -67.5t9 -83.5z" />
<glyph unicode="&#xb9;" horiz-adv-x="538" d="M20 1417v156l255 147h130v-901h-156v722z" />
<glyph unicode="&#xba;" horiz-adv-x="824" d="M411 807q-79 0 -146 23t-116 64t-83 98t-51 125.5t-17 144.5q0 132 49.5 237.5t144.5 168t219 62.5q81 0 149.5 -23.5t117 -65t82.5 -99.5t50.5 -126.5t16.5 -145.5q0 -99 -27.5 -183t-79 -146.5t-131 -98t-178.5 -35.5zM409 1585q-75 0 -128.5 -45t-78.5 -116t-25 -158 q0 -86 27 -157t81 -114.5t126 -43.5q78 0 132 43.5t78.5 113t24.5 158.5q0 52 -7.5 97.5t-25 87t-44 70.5t-67.5 46.5t-93 17.5z" />
<glyph unicode="&#xbb;" horiz-adv-x="1073" d="M291 867l315 -339l-315 -338h-222l305 338l-305 339h222zM700 867l313 -339l-313 -338h-222l305 338l-305 339h222z" />
<glyph unicode="&#xbc;" horiz-adv-x="1735" d="M330 584v724l-228 -124v157l255 144h130v-901h-157zM1216 1487h171l-927 -1487h-171zM1136 325h253v454zM1665 325v-126h-124v-199h-152v199h-409v126l324 572h237v-572h124z" />
<glyph unicode="&#xbd;" horiz-adv-x="1739" d="M1078 0v119q80 59 146.5 118t125 124.5t92 131.5t33.5 123q0 70 -41.5 106t-109.5 36q-36 0 -75 -11t-75.5 -29t-68.5 -43v164q110 70 234 70q84 0 151.5 -31t109.5 -95.5t42 -152.5q0 -123 -95.5 -252t-253.5 -242h378v-136h-593zM102 1184v157l255 144h130v-901h-157 v724zM289 0l927 1487h171l-927 -1487h-171z" />
<glyph unicode="&#xbe;" horiz-adv-x="1829" d="M148 1282v155q25 16 58 28.5t71 20t74 7.5q142 0 219.5 -69.5t77.5 -176.5q0 -81 -44.5 -135t-121.5 -72q77 -6 132.5 -65t55.5 -148q0 -112 -80 -181.5t-221 -69.5q-61 0 -130 14t-118 38v147q110 -59 232 -59q71 0 113 34.5t42 91.5q0 60 -49 94.5t-148 34.5h-46v134 h46q74 0 122.5 33.5t48.5 93.5t-36.5 90t-100.5 30q-45 0 -99.5 -19.5t-97.5 -50.5zM1331 1487h173l-930 -1487h-171zM1254 325h250v454zM1780 325v-126h-124v-199h-152v199h-410v126l325 572h237v-572h124z" />
<glyph unicode="&#xbf;" horiz-adv-x="947" d="M873 -82v-203q-62 -33 -148.5 -54.5t-181.5 -21.5q-198 0 -317.5 101t-119.5 280q0 64 17 119t47 95.5t68.5 72.5t83 52.5t88 32.5t87.5 15l2 211h195l2 -339q-186 0 -282.5 -60t-96.5 -181q0 -98 62 -158t185 -60q159 0 309 98zM742 938q0 -59 -41.5 -100.5 t-100.5 -41.5q-30 0 -57 11t-46.5 30t-30.5 45.5t-11 55.5q0 61 41.5 101.5t103.5 40.5q60 0 101 -40.5t41 -101.5z" />
<glyph unicode="&#xc0;" horiz-adv-x="1378" d="M771 1515h-175l-251 338h227zM464 524h451l-24 72q-36 113 -67 210t-51 161.5t-35.5 116t-24 81t-13.5 48.5t-7 26l-1 6q-24 -97 -205 -649zM1084 0l-111 345h-568l-112 -345h-229l488 1408h281l481 -1408h-230z" />
<glyph unicode="&#xc1;" horiz-adv-x="1378" d="M1049 1853l-251 -338h-176l199 338h228zM464 524h451l-24 72q-36 113 -67 210t-51 161.5t-35.5 116t-24 81t-13.5 48.5t-7 26l-1 6q-24 -97 -205 -649zM1084 0l-111 345h-568l-112 -345h-229l488 1408h281l481 -1408h-230z" />
<glyph unicode="&#xc2;" horiz-adv-x="1378" d="M694 1728l-172 -213h-203l283 338h187l283 -338h-203zM464 524h451l-24 72q-36 113 -67 210t-51 161.5t-35.5 116t-24 81t-13.5 48.5t-7 26l-1 6q-24 -97 -205 -649zM1084 0l-111 345h-568l-112 -345h-229l488 1408h281l481 -1408h-230z" />
<glyph unicode="&#xc3;" horiz-adv-x="1378" d="M947 1814l116 -88q-35 -74 -94.5 -114.5t-133.5 -40.5q-37 0 -77 13.5t-68 29.5t-60.5 29t-57.5 13q-33 0 -59.5 -11.5t-45 -30.5t-41.5 -53l-103 93q30 66 90 110.5t130 44.5q41 0 83.5 -13t71 -29t63.5 -29.5t64 -13.5q78 0 122 90zM464 524h451l-24 72 q-36 113 -67 210t-51 161.5t-35.5 116t-24 81t-13.5 48.5t-7 26l-1 6q-24 -97 -205 -649zM1084 0l-111 345h-568l-112 -345h-229l488 1408h281l481 -1408h-230z" />
<glyph unicode="&#xc4;" horiz-adv-x="1378" d="M929 1561q-53 0 -89 36t-36 89q0 35 16 64t45 45.5t64 16.5q55 0 91.5 -36t36.5 -90q0 -35 -16.5 -64t-46 -45t-65.5 -16zM470 1561q-56 0 -91.5 35.5t-35.5 89.5q0 36 16 64.5t45 45t66 16.5q54 0 90 -36t36 -89.5t-36 -89.5t-90 -36zM464 524h451l-24 72 q-36 113 -67 210t-51 161.5t-35.5 116t-24 81t-13.5 48.5t-7 26l-1 6q-24 -97 -205 -649zM1084 0l-111 345h-568l-112 -345h-229l488 1408h281l481 -1408h-230z" />
<glyph unicode="&#xc5;" horiz-adv-x="1378" d="M696 1848q-47 0 -79.5 -33t-32.5 -79t33 -80.5t79 -34.5q47 0 80 34.5t33 80.5t-33 79t-80 33zM696 1493q-65 0 -120 32t-86.5 87t-31.5 120q0 100 69.5 171t168.5 71q100 0 171 -71t71 -171q0 -99 -71 -169t-171 -70zM464 524h451l-24 72q-36 113 -67 210t-51 161.5 t-35.5 116t-24 81t-13.5 48.5t-7 26l-1 6q-24 -97 -205 -649zM1084 0l-111 345h-568l-112 -345h-229l488 1408h281l481 -1408h-230z" />
<glyph unicode="&#xc6;" horiz-adv-x="1873" d="M556 524h403v746q-126 -253 -363 -674zM1168 180h598v-180h-807v345h-504l-190 -345h-225l764 1408h950v-180h-586v-434h520v-180h-520v-434z" />
<glyph unicode="&#xc7;" horiz-adv-x="1263" d="M685 -106h176q18 -25 28 -67.5t10 -83.5q0 -56 -21 -105t-61 -88t-104.5 -62t-146.5 -25v142q84 5 127.5 42t43.5 102q0 68 -52 145zM1170 1349v-211q-92 50 -166.5 70t-188.5 20q-102 0 -192.5 -37t-157 -103.5t-105.5 -165t-39 -216.5q0 -120 37.5 -218.5t104 -165.5 t161 -103.5t207.5 -36.5q94 0 185 28t156 77v-218q-47 -30 -110.5 -50t-124 -27.5t-124.5 -7.5q-155 0 -287 50.5t-227 142.5t-149 228t-54 301q0 159 54 294t148.5 228.5t226.5 146t284 52.5q224 0 361 -78z" />
<glyph unicode="&#xc8;" horiz-adv-x="1073" d="M683 1515h-175l-251 338h227zM367 180h598v-180h-812v1408h802v-180h-588v-434h520v-180h-520v-434z" />
<glyph unicode="&#xc9;" horiz-adv-x="1073" d="M923 1853l-251 -338h-175l199 338h227zM367 180h598v-180h-812v1408h802v-180h-588v-434h520v-180h-520v-434z" />
<glyph unicode="&#xca;" horiz-adv-x="1073" d="M568 1728l-171 -213h-203l282 338h188l283 -338h-203zM367 180h598v-180h-812v1408h802v-180h-588v-434h520v-180h-520v-434z" />
<glyph unicode="&#xcb;" horiz-adv-x="1073" d="M792 1559q-54 0 -90 35.5t-36 89.5t36 89.5t90 35.5q27 0 50.5 -9.5t40.5 -26t26.5 -40t9.5 -49.5t-9.5 -49.5t-26.5 -40t-40.5 -26t-50.5 -9.5zM333 1559q-57 0 -92.5 35.5t-35.5 89.5t35.5 89.5t92.5 35.5q53 0 89 -35.5t36 -89.5t-36 -89.5t-89 -35.5zM367 180h598 v-180h-812v1408h802v-180h-588v-434h520v-180h-520v-434z" />
<glyph unicode="&#xcc;" horiz-adv-x="550" d="M169 0v1408h213v-1408h-213zM155 1853l198 -338h-176l-250 338h228z" />
<glyph unicode="&#xcd;" horiz-adv-x="550" d="M169 0v1408h213v-1408h-213zM197 1515l198 338h227l-250 -338h-175z" />
<glyph unicode="&#xce;" horiz-adv-x="550" d="M184 1853h188l282 -338h-203l-176 213l-171 -213h-202zM169 0v1408h213v-1408h-213z" />
<glyph unicode="&#xcf;" horiz-adv-x="550" d="M169 0v1408h213v-1408h-213zM-75 1686q0 36 15.5 64.5t45 45t66.5 16.5q35 0 64 -16.5t45 -45.5t16 -64q0 -53 -35.5 -89t-89.5 -36q-56 0 -91.5 35.5t-35.5 89.5zM387 1686q0 54 35.5 90t89.5 36q55 0 91.5 -36t36.5 -90q0 -26 -10 -49.5t-26.5 -40t-40.5 -26t-51 -9.5 q-35 0 -64 16t-45 45t-16 64z" />
<glyph unicode="&#xd0;" horiz-adv-x="1537" d="M514 182h221q83 0 154 19t124.5 54t95 84t67.5 109t39 128t13 143q0 105 -35 197.5t-98 160.5t-157.5 107.5t-208.5 39.5h-215v-435h343v-175h-343v-432zM297 1408h436q156 0 289 -51.5t226.5 -142.5t146 -218.5t52.5 -276.5q0 -121 -29.5 -230t-89 -198t-144 -154 t-199 -101t-248.5 -36h-440v614h-167v175h167v619z" />
<glyph unicode="&#xd1;" horiz-adv-x="1419" d="M153 0v1408h254l347 -589q96 -165 174 -305t107 -198l30 -57q-12 192 -12 558v591h215v-1408h-255l-349 586q-95 159 -173 300t-109 203l-31 62q16 -209 16 -561v-590h-214zM980 1814l116 -88q-34 -74 -94 -114.5t-133 -40.5q-37 0 -77 13.5t-68 29.5t-60.5 29t-57.5 13 q-49 0 -80.5 -22t-65.5 -73l-103 93q30 66 89.5 110.5t129.5 44.5q42 0 84 -13t71 -29t64 -29.5t64 -13.5q77 0 121 90z" />
<glyph unicode="&#xd2;" horiz-adv-x="1485" d="M96 710q0 217 78.5 381t225 254t342.5 90q199 0 346 -90t224 -253.5t77 -381.5t-78 -382.5t-224.5 -254t-342.5 -89.5q-195 0 -342 89.5t-226.5 254.5t-79.5 382zM321 710q0 -243 115 -384.5t308 -141.5q198 0 309 140.5t111 385.5q0 244 -111.5 384t-310.5 140 q-196 0 -308.5 -140.5t-112.5 -383.5zM652 1853l199 -338h-176l-251 338h228z" />
<glyph unicode="&#xd3;" horiz-adv-x="1485" d="M668 1515l199 338h227l-250 -338h-176zM96 710q0 217 78.5 381t225 254t342.5 90q199 0 346 -90t224 -253.5t77 -381.5t-78 -382.5t-224.5 -254t-342.5 -89.5q-195 0 -342 89.5t-226.5 254.5t-79.5 382zM321 710q0 -243 115 -384.5t308 -141.5q198 0 309 140.5t111 385.5 q0 244 -111.5 384t-310.5 140q-196 0 -308.5 -140.5t-112.5 -383.5z" />
<glyph unicode="&#xd4;" horiz-adv-x="1485" d="M321 710q0 -243 115 -384.5t308 -141.5q198 0 309 140.5t111 385.5q0 244 -111.5 384t-310.5 140q-196 0 -308.5 -140.5t-112.5 -383.5zM96 710q0 217 78.5 381t225 254t342.5 90q199 0 346 -90t224 -253.5t77 -381.5t-78 -382.5t-224.5 -254t-342.5 -89.5 q-195 0 -342 89.5t-226.5 254.5t-79.5 382zM662 1853h189l281 -338h-203l-175 213l-172 -213h-202z" />
<glyph unicode="&#xd5;" horiz-adv-x="1485" d="M96 710q0 217 78.5 381t225 254t342.5 90q199 0 346 -90t224 -253.5t77 -381.5t-78 -382.5t-224.5 -254t-342.5 -89.5q-195 0 -342 89.5t-226.5 254.5t-79.5 382zM321 710q0 -243 115 -384.5t308 -141.5q198 0 309 140.5t111 385.5q0 244 -111.5 384t-310.5 140 q-196 0 -308.5 -140.5t-112.5 -383.5zM999 1816l117 -88q-35 -73 -95 -114t-134 -41q-37 0 -77 13.5t-68 29.5t-60.5 29.5t-57.5 13.5q-49 0 -80 -22.5t-66 -73.5l-102 93q31 66 90.5 111t129.5 45q41 0 83 -13.5t71 -29.5t63.5 -29.5t63.5 -13.5q78 0 122 90z" />
<glyph unicode="&#xd6;" horiz-adv-x="1485" d="M397 1686q0 54 35.5 90t91.5 36q54 0 90 -36t36 -89.5t-36 -89.5t-90 -36q-56 0 -91.5 35.5t-35.5 89.5zM859 1686.5q0 53.5 36 89.5t89 36q55 0 91.5 -36t36.5 -90q0 -35 -16.5 -64t-46 -45t-65.5 -16q-53 0 -89 36t-36 89.5zM96 710q0 217 78.5 381t225 254t342.5 90 q199 0 346 -90t224 -253.5t77 -381.5t-78 -382.5t-224.5 -254t-342.5 -89.5q-195 0 -342 89.5t-226.5 254.5t-79.5 382zM321 710q0 -243 115 -384.5t308 -141.5q198 0 309 140.5t111 385.5q0 244 -111.5 384t-310.5 140q-196 0 -308.5 -140.5t-112.5 -383.5z" />
<glyph unicode="&#xd7;" horiz-adv-x="1050" d="M933 986l-277 -276l273 -271l-131 -132l-274 271l-271 -269l-134 132l272 271l-278 276l132 132l277 -276l278 276z" />
<glyph unicode="&#xd8;" horiz-adv-x="1432" d="M1086 1038l-589 -791q100 -72 236 -72q201 0 313 142.5t112 392.5q0 195 -72 328zM380 380l589 794q-94 69 -238 69q-131 0 -227.5 -64.5t-147.5 -185t-51 -283.5q0 -195 75 -330zM1381 1433l-159 -215q157 -197 157 -508q0 -218 -78 -382.5t-224.5 -254t-343.5 -89.5 q-204 0 -357 100l-75 -100h-217l161 217q-78 96 -119.5 225t-41.5 284q0 217 78.5 381t225.5 254t343 90q205 0 359 -98l74 96h217z" />
<glyph unicode="&#xd9;" horiz-adv-x="1361" d="M999 534v874h215v-869q0 -111 -24.5 -201.5t-70 -156t-111.5 -110.5t-148.5 -67t-180.5 -22q-162 0 -280.5 60t-184.5 182.5t-66 297.5v886h215v-884q0 -92 24.5 -160.5t68.5 -107.5t99.5 -57.5t123.5 -18.5q320 0 320 354zM578 1853l199 -338h-175l-251 338h227z" />
<glyph unicode="&#xda;" horiz-adv-x="1361" d="M620 1515l199 338h228l-251 -338h-176zM999 534v874h215v-869q0 -111 -24.5 -201.5t-70 -156t-111.5 -110.5t-148.5 -67t-180.5 -22q-162 0 -280.5 60t-184.5 182.5t-66 297.5v886h215v-884q0 -92 24.5 -160.5t68.5 -107.5t99.5 -57.5t123.5 -18.5q320 0 320 354z" />
<glyph unicode="&#xdb;" horiz-adv-x="1361" d="M999 534v874h215v-869q0 -111 -24.5 -201.5t-70 -156t-111.5 -110.5t-148.5 -67t-180.5 -22q-162 0 -280.5 60t-184.5 182.5t-66 297.5v886h215v-884q0 -92 24.5 -160.5t68.5 -107.5t99.5 -57.5t123.5 -18.5q320 0 320 354zM590 1853h187l282 -338h-202l-176 213 l-171 -213h-203z" />
<glyph unicode="&#xdc;" horiz-adv-x="1361" d="M328 1686q0 54 35.5 90t91.5 36q53 0 89 -36t36 -89.5t-36 -89.5t-89 -36q-56 0 -91.5 35.5t-35.5 89.5zM789 1686q0 54 36 90t90 36q55 0 91 -36t36 -90q0 -35 -16 -64t-45.5 -45t-65.5 -16q-35 0 -64 16t-45.5 45t-16.5 64zM999 534v874h215v-869q0 -111 -24.5 -201.5 t-70 -156t-111.5 -110.5t-148.5 -67t-180.5 -22q-162 0 -280.5 60t-184.5 182.5t-66 297.5v886h215v-884q0 -92 24.5 -160.5t68.5 -107.5t99.5 -57.5t123.5 -18.5q320 0 320 354z" />
<glyph unicode="&#xdd;" horiz-adv-x="1269" d="M1007 1853l-251 -338h-176l199 338h228zM1222 1408l-482 -884v-524h-216v524l-476 884h247l100 -206q95 -195 154 -320.5t70 -153.5l11 -28q20 64 243 502l102 206h247z" />
<glyph unicode="&#xde;" horiz-adv-x="1136" d="M367 428h187q76 0 134.5 21t94.5 58t54 84.5t18 104.5q0 60 -18 110.5t-54.5 90t-98 61.5t-143.5 22h-174v-552zM367 1158h179q100 0 184.5 -22.5t147 -63t106.5 -97t66 -126.5t22 -149q0 -202 -140 -325.5t-374 -123.5h-191v-251h-214v1408h214v-250z" />
<glyph unicode="&#xdf;" horiz-adv-x="1164" d="M552 16v189q25 -14 47.5 -23.5t45 -15.5t45 -8.5t50.5 -2.5q78 0 124.5 37.5t46.5 100.5q0 36 -17 69t-44.5 59t-60.5 51.5t-66 52.5t-60 56.5t-44 69t-17 84.5t16 86t38.5 72t45 61t38.5 67.5t16 77.5q0 70 -49.5 113.5t-134.5 43.5q-221 0 -221 -232v-1024h-203v1015 q0 208 113 317t309 109q89 0 164 -27t125 -72.5t78 -106t28 -126.5q0 -57 -15.5 -105.5t-37 -81t-43.5 -60t-37 -55.5t-15 -55q0 -22 12.5 -43t33 -39.5t47 -40.5t53.5 -43.5t53.5 -51.5t47 -62.5t33 -77.5t12.5 -95q0 -140 -96 -227.5t-263 -87.5q-126 0 -198 32z" />
<glyph unicode="&#xe0;" horiz-adv-x="1041" d="M628 1166h-175l-250 338h227zM702 472h-159q-118 0 -177 -46t-59 -117q0 -48 19.5 -82.5t60 -54t100.5 -19.5q100 0 157.5 55t57.5 145v119zM169 807v198q54 31 143 51t183 20q213 0 314.5 -101.5t101.5 -302.5v-672h-203v125q-15 -24 -37 -45.5t-56 -42.5t-83.5 -33 t-109.5 -12q-150 0 -241 87t-91 220q0 152 115 236.5t321 84.5h176v61q0 53 -11.5 92t-37.5 68.5t-70 44.5t-107 15q-81 0 -163 -26t-144 -68z" />
<glyph unicode="&#xe1;" horiz-adv-x="1041" d="M875 1504l-251 -338h-175l199 338h227zM702 472h-159q-118 0 -177 -46t-59 -117q0 -48 19.5 -82.5t60 -54t100.5 -19.5q100 0 157.5 55t57.5 145v119zM169 807v198q54 31 143 51t183 20q213 0 314.5 -101.5t101.5 -302.5v-672h-203v125q-15 -24 -37 -45.5t-56 -42.5 t-83.5 -33t-109.5 -12q-150 0 -241 87t-91 220q0 152 115 236.5t321 84.5h176v61q0 53 -11.5 92t-37.5 68.5t-70 44.5t-107 15q-81 0 -163 -26t-144 -68z" />
<glyph unicode="&#xe2;" horiz-adv-x="1041" d="M530 1379l-171 -213h-202l282 338h187l283 -338h-203zM702 472h-159q-118 0 -177 -46t-59 -117q0 -48 19.5 -82.5t60 -54t100.5 -19.5q100 0 157.5 55t57.5 145v119zM169 807v198q54 31 143 51t183 20q213 0 314.5 -101.5t101.5 -302.5v-672h-203v125q-15 -24 -37 -45.5 t-56 -42.5t-83.5 -33t-109.5 -12q-150 0 -241 87t-91 220q0 152 115 236.5t321 84.5h176v61q0 53 -11.5 92t-37.5 68.5t-70 44.5t-107 15q-81 0 -163 -26t-144 -68z" />
<glyph unicode="&#xe3;" horiz-adv-x="1041" d="M779 1465l118 -88q-35 -73 -95 -114t-134 -41q-37 0 -77 13.5t-68 29.5t-60.5 29.5t-57.5 13.5q-34 0 -60 -12t-44.5 -31t-41.5 -53l-102 94q30 65 89.5 110t129.5 45q42 0 84 -13.5t70.5 -29.5t63.5 -29.5t64 -13.5q77 0 121 90zM702 472h-159q-118 0 -177 -46t-59 -117 q0 -48 19.5 -82.5t60 -54t100.5 -19.5q100 0 157.5 55t57.5 145v119zM169 807v198q54 31 143 51t183 20q213 0 314.5 -101.5t101.5 -302.5v-672h-203v125q-15 -24 -37 -45.5t-56 -42.5t-83.5 -33t-109.5 -12q-150 0 -241 87t-91 220q0 152 115 236.5t321 84.5h176v61 q0 53 -11.5 92t-37.5 68.5t-70 44.5t-107 15q-81 0 -163 -26t-144 -68z" />
<glyph unicode="&#xe4;" horiz-adv-x="1041" d="M765 1208q-35 0 -64 16t-45 45t-16 64q0 54 35.5 90t89.5 36q55 0 90.5 -36t35.5 -90t-35.5 -89.5t-90.5 -35.5zM305 1208q-56 0 -92 35.5t-36 89.5t36 90t92 36q54 0 89.5 -36t35.5 -89.5t-35.5 -89.5t-89.5 -36zM702 472h-159q-118 0 -177 -46t-59 -117 q0 -48 19.5 -82.5t60 -54t100.5 -19.5q100 0 157.5 55t57.5 145v119zM169 807v198q54 31 143 51t183 20q213 0 314.5 -101.5t101.5 -302.5v-672h-203v125q-15 -24 -37 -45.5t-56 -42.5t-83.5 -33t-109.5 -12q-150 0 -241 87t-91 220q0 152 115 236.5t321 84.5h176v61 q0 53 -11.5 92t-37.5 68.5t-70 44.5t-107 15q-81 0 -163 -26t-144 -68z" />
<glyph unicode="&#xe5;" horiz-adv-x="1041" d="M534 1499q-46 0 -78 -33t-32 -79t32.5 -80.5t77.5 -34.5q48 0 81 34.5t33 80.5t-33 79t-81 33zM534 1144q-48 0 -92 19t-76 51t-50.5 76.5t-18.5 92.5q0 100 69.5 171t167.5 71q66 0 122 -32.5t88.5 -88t32.5 -121.5q0 -99 -71 -169t-172 -70zM702 472h-159 q-118 0 -177 -46t-59 -117q0 -48 19.5 -82.5t60 -54t100.5 -19.5q100 0 157.5 55t57.5 145v119zM169 807v198q54 31 143 51t183 20q213 0 314.5 -101.5t101.5 -302.5v-672h-203v125q-15 -24 -37 -45.5t-56 -42.5t-83.5 -33t-109.5 -12q-150 0 -241 87t-91 220 q0 152 115 236.5t321 84.5h176v61q0 53 -11.5 92t-37.5 68.5t-70 44.5t-107 15q-81 0 -163 -26t-144 -68z" />
<glyph unicode="&#xe6;" horiz-adv-x="1704" d="M712 365v105h-140q-125 0 -191 -42.5t-66 -120.5q0 -46 20 -80t61 -53t101 -19q93 0 154 57.5t61 152.5zM1423 606v38q-3 123 -65.5 191t-169.5 68q-104 0 -180.5 -75.5t-94.5 -221.5h510zM1609 445h-692q23 -137 118 -210.5t233 -73.5q78 0 152.5 21t127.5 59v-185 q-55 -31 -138 -48.5t-160 -17.5q-132 0 -247.5 55.5t-177.5 155.5q-39 -92 -134.5 -151.5t-239.5 -59.5q-161 0 -256 84t-95 225q0 152 116.5 237.5t324.5 85.5h171v59q0 108 -52 164t-173 56q-81 0 -163 -25.5t-144 -66.5v194q54 32 138 52.5t179 20.5q128 0 213.5 -46.5 t120.5 -130.5q38 55 92.5 94t121 59t141.5 20q207 0 321 -128t114 -370q0 -58 -12 -129z" />
<glyph unicode="&#xe7;" horiz-adv-x="983" d="M297 524q1 -62 16.5 -117t45.5 -100.5t72 -79t100 -52t127 -18.5q61 0 123 19t110 49v-183q-47 -29 -118.5 -45.5t-142.5 -16.5q-100 0 -187 27.5t-152 78t-111.5 118.5t-70 150t-23.5 172q0 87 23 168.5t70 151t112 121.5t155 81.5t194 29.5q136 0 251 -59v-188 q-49 32 -112.5 49t-118.5 17q-165 0 -264 -105t-99 -268zM727 -257q0 -44 -12.5 -84.5t-39.5 -75.5t-65.5 -61t-93.5 -41.5t-121 -17.5v142q84 5 127.5 42t43.5 102q0 68 -52 145h176q18 -25 27.5 -67.5t9.5 -83.5z" />
<glyph unicode="&#xe8;" horiz-adv-x="1096" d="M677 1166h-175l-251 338h227zM802 606v38q-3 119 -64.5 189t-173.5 70q-105 0 -180 -76.5t-93 -220.5h511zM933 241v-185q-55 -31 -142.5 -48.5t-166.5 -17.5q-163 0 -286 68.5t-187.5 189.5t-64.5 278q0 128 36.5 232t100.5 172.5t150 105t187 36.5q203 0 322 -126.5 t119 -365.5q0 -64 -13 -135h-695q22 -137 117 -210.5t242 -73.5q77 0 152.5 21.5t128.5 58.5z" />
<glyph unicode="&#xe9;" horiz-adv-x="1096" d="M936 1504l-251 -338h-175l198 338h228zM802 606v38q-3 119 -64.5 189t-173.5 70q-105 0 -180 -76.5t-93 -220.5h511zM933 241v-185q-55 -31 -142.5 -48.5t-166.5 -17.5q-163 0 -286 68.5t-187.5 189.5t-64.5 278q0 128 36.5 232t100.5 172.5t150 105t187 36.5 q203 0 322 -126.5t119 -365.5q0 -64 -13 -135h-695q22 -137 117 -210.5t242 -73.5q77 0 152.5 21.5t128.5 58.5z" />
<glyph unicode="&#xea;" horiz-adv-x="1096" d="M578 1379l-171 -213h-202l282 338h188l282 -338h-203zM802 606v38q-3 119 -64.5 189t-173.5 70q-105 0 -180 -76.5t-93 -220.5h511zM933 241v-185q-55 -31 -142.5 -48.5t-166.5 -17.5q-163 0 -286 68.5t-187.5 189.5t-64.5 278q0 128 36.5 232t100.5 172.5t150 105 t187 36.5q203 0 322 -126.5t119 -365.5q0 -64 -13 -135h-695q22 -137 117 -210.5t242 -73.5q77 0 152.5 21.5t128.5 58.5z" />
<glyph unicode="&#xeb;" horiz-adv-x="1096" d="M819 1212q-53 0 -89 36t-36 89.5t36 89.5t89 36q27 0 51 -10t40.5 -26.5t26.5 -39.5t10 -49.5t-10 -50t-26.5 -40t-40.5 -26t-51 -9.5zM359 1212q-56 0 -91.5 35.5t-35.5 89.5t35.5 90t91.5 36q54 0 89.5 -36t35.5 -89.5t-35.5 -89.5t-89.5 -36zM802 606v38 q-3 119 -64.5 189t-173.5 70q-105 0 -180 -76.5t-93 -220.5h511zM933 241v-185q-55 -31 -142.5 -48.5t-166.5 -17.5q-163 0 -286 68.5t-187.5 189.5t-64.5 278q0 128 36.5 232t100.5 172.5t150 105t187 36.5q203 0 322 -126.5t119 -365.5q0 -64 -13 -135h-695 q22 -137 117 -210.5t242 -73.5q77 0 152.5 21.5t128.5 58.5z" />
<glyph unicode="&#xec;" horiz-adv-x="511" d="M153 0v1059h206v-1059h-206zM132 1504l198 -338h-175l-251 338h228z" />
<glyph unicode="&#xed;" horiz-adv-x="511" d="M153 0v1059h206v-1059h-206zM184 1166l198 338h228l-251 -338h-175z" />
<glyph unicode="&#xee;" horiz-adv-x="511" d="M165 1504h188l282 -338h-203l-175 213l-171 -213h-203zM153 0v1059h206v-1059h-206z" />
<glyph unicode="&#xef;" horiz-adv-x="511" d="M153 0v1059h206v-1059h-206zM-100 1339q0 54 35.5 90t92.5 36q53 0 89 -36t36 -89.5t-36 -89.5t-89 -36q-57 0 -92.5 35.5t-35.5 89.5zM361 1339.5q0 53.5 36 89.5t90 36t90.5 -36t36.5 -90q0 -26 -9.5 -49.5t-26.5 -40t-40.5 -26t-50.5 -9.5q-54 0 -90 36t-36 89.5z" />
<glyph unicode="&#xf0;" horiz-adv-x="1102" d="M534 167q53 0 98 18.5t83 58.5t62.5 111t29.5 167q-53 68 -124.5 106t-158.5 38q-103 0 -168 -66.5t-65 -185.5q0 -113 67 -180t176 -67zM963 1272l-167 -84q98 -130 155.5 -287.5t57.5 -326.5q0 -282 -125.5 -437t-349.5 -155q-83 0 -156.5 23t-128 64.5t-93.5 97 t-58.5 121.5t-19.5 136q0 99 33 180t90.5 133.5t132 81.5t159.5 29q90 0 168.5 -34t136.5 -95q-36 209 -170 386l-293 -148v139l208 106q-119 121 -272 206h297q81 -55 144 -121l251 125v-140z" />
<glyph unicode="&#xf1;" horiz-adv-x="1150" d="M844 1465l117 -88q-35 -73 -94.5 -114t-133.5 -41q-37 0 -77 13.5t-68 29.5t-60.5 29.5t-57.5 13.5q-49 0 -81 -23t-66 -73l-102 94q30 65 90 110t130 45q41 0 83.5 -13.5t71 -29.5t63.5 -29.5t64 -13.5q77 0 121 90zM349 1059v-182q45 96 129.5 146.5t200.5 50.5 q157 0 248.5 -96t91.5 -262v-716h-204v668q0 112 -55 170.5t-148 58.5q-52 0 -98.5 -21t-83.5 -60t-59 -101.5t-22 -140.5v-574h-205v1059h205z" />
<glyph unicode="&#xf2;" d="M586 -18q-118 0 -214 42t-158 115t-95 170.5t-33 210.5q0 116 35.5 217.5t99 176t158.5 117.5t207 43q99 0 181.5 -27.5t142 -77t101 -118t61.5 -150t20 -173t-21 -174t-63.5 -150.5t-102.5 -117.5t-141.5 -77t-177.5 -27.5zM584 901q-69 0 -124 -30.5t-90 -82.5 t-53 -119t-18 -142.5t19.5 -143t55 -118.5t90.5 -80.5t122 -29.5q73 0 129.5 29t91.5 80.5t52.5 117t17.5 142.5q0 62 -9.5 116.5t-32 103t-56 83t-83 54.5t-112.5 20zM489 1504l198 -338h-175l-251 338h228z" />
<glyph unicode="&#xf3;" d="M526 1166l199 338h228l-251 -338h-176zM586 -18q-118 0 -214 42t-158 115t-95 170.5t-33 210.5q0 116 35.5 217.5t99 176t158.5 117.5t207 43q99 0 181.5 -27.5t142 -77t101 -118t61.5 -150t20 -173t-21 -174t-63.5 -150.5t-102.5 -117.5t-141.5 -77t-177.5 -27.5z M584 901q-69 0 -124 -30.5t-90 -82.5t-53 -119t-18 -142.5t19.5 -143t55 -118.5t90.5 -80.5t122 -29.5q73 0 129.5 29t91.5 80.5t52.5 117t17.5 142.5q0 62 -9.5 116.5t-32 103t-56 83t-83 54.5t-112.5 20z" />
<glyph unicode="&#xf4;" d="M584 901q-69 0 -124 -30.5t-90 -82.5t-53 -119t-18 -142.5t19.5 -143t55 -118.5t90.5 -80.5t122 -29.5q73 0 129.5 29t91.5 80.5t52.5 117t17.5 142.5q0 62 -9.5 116.5t-32 103t-56 83t-83 54.5t-112.5 20zM586 -18q-118 0 -214 42t-158 115t-95 170.5t-33 210.5 q0 116 35.5 217.5t99 176t158.5 117.5t207 43q99 0 181.5 -27.5t142 -77t101 -118t61.5 -150t20 -173t-21 -174t-63.5 -150.5t-102.5 -117.5t-141.5 -77t-177.5 -27.5zM502 1502h188l281 -338h-202l-175 213l-172 -213h-203z" />
<glyph unicode="&#xf5;" d="M586 -18q-118 0 -214 42t-158 115t-95 170.5t-33 210.5q0 116 35.5 217.5t99 176t158.5 117.5t207 43q99 0 181.5 -27.5t142 -77t101 -118t61.5 -150t20 -173t-21 -174t-63.5 -150.5t-102.5 -117.5t-141.5 -77t-177.5 -27.5zM584 901q-69 0 -124 -30.5t-90 -82.5 t-53 -119t-18 -142.5t19.5 -143t55 -118.5t90.5 -80.5t122 -29.5q73 0 129.5 29t91.5 80.5t52.5 117t17.5 142.5q0 62 -9.5 116.5t-32 103t-56 83t-83 54.5t-112.5 20zM848 1465l117 -88q-35 -73 -94.5 -114t-133.5 -41q-37 0 -77 13.5t-68 29.5t-60.5 29.5t-57.5 13.5 q-49 0 -80 -22.5t-66 -73.5l-103 94q31 65 90.5 110t129.5 45q41 0 83.5 -13.5t71 -29.5t63.5 -29.5t64 -13.5q77 0 121 90z" />
<glyph unicode="&#xf6;" d="M251 1335q0 36 16 64.5t45 45t66 16.5q54 0 90 -36t36 -89.5t-36 -89.5t-90 -36q-56 0 -91.5 35.5t-35.5 89.5zM712 1335q0 54 36 90t89 36q55 0 91.5 -36t36.5 -90q0 -21 -6 -40.5t-17.5 -34.5t-27 -26.5t-35.5 -17.5t-42 -6q-35 0 -63.5 16t-45 45t-16.5 64zM586 -18 q-118 0 -214 42t-158 115t-95 170.5t-33 210.5q0 116 35.5 217.5t99 176t158.5 117.5t207 43q99 0 181.5 -27.5t142 -77t101 -118t61.5 -150t20 -173t-21 -174t-63.5 -150.5t-102.5 -117.5t-141.5 -77t-177.5 -27.5zM584 901q-69 0 -124 -30.5t-90 -82.5t-53 -119 t-18 -142.5t19.5 -143t55 -118.5t90.5 -80.5t122 -29.5q73 0 129.5 29t91.5 80.5t52.5 117t17.5 142.5q0 62 -9.5 116.5t-32 103t-56 83t-83 54.5t-112.5 20z" />
<glyph unicode="&#xf7;" d="M462 1082q0 51 36 87.5t86.5 36.5t87 -36.5t36.5 -87.5q0 -33 -16.5 -62t-45.5 -46t-62 -17t-61 17t-44.5 46t-16.5 62zM111 618v184h954v-184h-954zM462 338.5q0 50.5 36 88t86 37.5q33 0 62 -17t45.5 -46t16.5 -62q0 -51 -36.5 -87.5t-87 -36.5t-86.5 36.5t-36 87z" />
<glyph unicode="&#xf8;" horiz-adv-x="1176" d="M873 752l-424 -568q66 -48 159 -48q77 0 137 30.5t97 84.5t56 123.5t19 149.5q0 139 -44 228zM347 307l422 568q-67 44 -163 44q-75 0 -134.5 -31.5t-96.5 -86t-56.5 -124.5t-19.5 -151q0 -125 48 -219zM1114 1074l-124 -165q61 -73 92.5 -171t31.5 -210 q0 -114 -34 -213.5t-97.5 -173.5t-160.5 -116.5t-216 -42.5q-149 0 -259 64l-48 -64h-195l123 164q-123 148 -123 374q0 116 36 218t100.5 176t159 117t206.5 43q152 0 263 -65l48 65h197z" />
<glyph unicode="&#xf9;" horiz-adv-x="1150" d="M664 1164h-175l-251 338h228zM802 1059h205v-1059h-205v182q-84 -194 -330 -194q-157 0 -248.5 92.5t-91.5 256.5v722h207v-672q0 -73 24.5 -123.5t69 -75.5t106.5 -25q120 0 191.5 83.5t71.5 235.5v577z" />
<glyph unicode="&#xfa;" horiz-adv-x="1150" d="M927 1504l-250 -338h-175l198 338h227zM802 1059h205v-1059h-205v182q-84 -194 -330 -194q-157 0 -248.5 92.5t-91.5 256.5v722h207v-672q0 -73 24.5 -123.5t69 -75.5t106.5 -25q120 0 191.5 83.5t71.5 235.5v577z" />
<glyph unicode="&#xfb;" horiz-adv-x="1150" d="M572 1379l-171 -213h-202l281 338h188l283 -338h-203zM802 1059h205v-1059h-205v182q-84 -194 -330 -194q-157 0 -248.5 92.5t-91.5 256.5v722h207v-672q0 -73 24.5 -123.5t69 -75.5t106.5 -25q120 0 191.5 83.5t71.5 235.5v577z" />
<glyph unicode="&#xfc;" horiz-adv-x="1150" d="M804 1210q-54 0 -89.5 36t-35.5 89q0 35 16.5 64t45 45.5t63.5 16.5q55 0 91 -36t36 -90q0 -21 -6 -40.5t-17.5 -34.5t-27 -26.5t-35.5 -17.5t-41 -6zM345 1210q-56 0 -92 35.5t-36 89.5q0 36 16 64.5t45.5 45t66.5 16.5q53 0 89 -36t36 -90q0 -35 -16.5 -64t-45 -45 t-63.5 -16zM802 1059h205v-1059h-205v182q-84 -194 -330 -194q-157 0 -248.5 92.5t-91.5 256.5v722h207v-672q0 -73 24.5 -123.5t69 -75.5t106.5 -25q120 0 191.5 83.5t71.5 235.5v577z" />
<glyph unicode="&#xfd;" horiz-adv-x="1052" d="M466 1166l198 338h227l-249 -338h-176zM437 23l-423 1036h229l131 -345q42 -108 74 -193.5t48.5 -131t26.5 -75t13 -38.5l3 -9q19 63 151 447l119 345h217l-382 -1029q-43 -113 -95 -193.5t-112 -126.5t-123 -67t-137 -21q-52 0 -95 11v175q38 -9 71 -9q202 0 284 224z " />
<glyph unicode="&#xfe;" horiz-adv-x="1210" d="M633 165q125 0 203.5 96.5t78.5 272.5q0 166 -77 263.5t-196 97.5q-44 0 -84 -11.5t-78.5 -38.5t-67 -67.5t-46 -103.5t-17.5 -142q0 -77 17.5 -140t46 -104.5t66 -69.5t76.5 -40.5t78 -12.5zM349 1477v-580q52 84 134.5 130.5t191.5 46.5q105 0 190.5 -41t142 -113.5 t87.5 -170.5t31 -212q0 -158 -55 -282.5t-159.5 -196.5t-241.5 -72q-104 0 -185.5 45t-135.5 130v-566h-205v1882h205z" />
<glyph unicode="&#xff;" horiz-adv-x="1052" d="M650 1335q0 54 36 90t89 36q36 0 65.5 -16.5t46 -45.5t16.5 -64t-16.5 -64t-46 -45t-65.5 -16q-35 0 -64 16t-45 45t-16 64zM188 1335q0 36 16 64.5t45 45t66 16.5q54 0 90 -36t36 -89.5t-36 -89.5t-90 -36q-56 0 -91.5 35.5t-35.5 89.5zM437 23l-423 1036h229l131 -345 q42 -108 74 -193.5t48.5 -131t26.5 -75t13 -38.5l3 -9q19 63 151 447l119 345h217l-382 -1029q-43 -113 -95 -193.5t-112 -126.5t-123 -67t-137 -21q-52 0 -95 11v175q38 -9 71 -9q202 0 284 224z" />
<glyph unicode="&#x152;" horiz-adv-x="2063" d="M733 184q131 0 224 63.5t140 181.5t47 281q0 162 -47 279.5t-140.5 181t-225.5 63.5q-194 0 -302 -140t-108 -384t110.5 -385t301.5 -141zM1349 180h608v-180h-813v150q-163 -166 -411 -166q-145 0 -264.5 52t-201.5 146.5t-126.5 229.5t-44.5 298q0 217 76 381 t220.5 254t338.5 90q125 0 230.5 -43t182.5 -122v138h803v-180h-598v-434h531v-180h-531v-434z" />
<glyph unicode="&#x153;" horiz-adv-x="1856" d="M1571 606v46q-3 79 -32.5 136t-81 86t-120.5 29q-49 0 -94 -18t-82.5 -53.5t-64 -93.5t-35.5 -132h510zM574 155q73 0 128 29t87.5 80.5t49 117t16.5 142.5q0 63 -8.5 117t-29 102.5t-52 82.5t-80.5 54.5t-111 20.5q-69 0 -122.5 -30.5t-86.5 -83t-49.5 -118.5 t-16.5 -143q0 -103 29.5 -185.5t93.5 -134t152 -51.5zM1698 241v-185q-57 -31 -142.5 -48.5t-164.5 -17.5q-134 0 -245 50.5t-181 143.5q-63 -96 -162 -149t-229 -53q-117 0 -211 42t-154 115.5t-91.5 170.5t-31.5 210q0 117 33.5 218t95.5 175.5t154.5 117.5t204.5 43 q128 0 225.5 -50t159.5 -141q44 61 104 104t129 64t143 21q207 0 321 -128t114 -370q0 -52 -14 -129h-693q23 -136 119.5 -210t236.5 -74q51 0 101.5 9.5t96.5 27.5t81 43z" />
<glyph unicode="&#x178;" horiz-adv-x="1269" d="M871 1559q-35 0 -64 16t-45 45t-16 64q0 54 36 89.5t89 35.5q36 0 65.5 -16t46 -45t16.5 -64t-16.5 -64t-46 -45t-65.5 -16zM411 1559q-56 0 -91 35.5t-35 89.5t35 89.5t91 35.5q54 0 90 -35.5t36 -89.5q0 -35 -16.5 -64t-45.5 -45t-64 -16zM1222 1408l-482 -884v-524 h-216v524l-476 884h247l100 -206q95 -195 154 -320.5t70 -153.5l11 -28q20 64 243 502l102 206h247z" />
<glyph unicode="&#x2c6;" horiz-adv-x="927" d="M369 1667h189l281 -338h-201l-176 212l-171 -212h-203z" />
<glyph unicode="&#x2dc;" horiz-adv-x="927" d="M729 1594l117 -87q-35 -74 -94.5 -114.5t-133.5 -40.5q-31 0 -62.5 8.5t-57 21t-49.5 25.5t-48.5 21.5t-45.5 8.5q-49 0 -80.5 -22.5t-65.5 -73.5l-103 94q30 65 89.5 110t129.5 45q42 0 84 -13.5t71 -29.5t64 -29.5t64 -13.5q77 0 121 90z" />
<glyph unicode="&#x2000;" horiz-adv-x="987" />
<glyph unicode="&#x2001;" horiz-adv-x="1974" />
<glyph unicode="&#x2002;" horiz-adv-x="987" />
<glyph unicode="&#x2003;" horiz-adv-x="1974" />
<glyph unicode="&#x2004;" horiz-adv-x="658" />
<glyph unicode="&#x2005;" horiz-adv-x="493" />
<glyph unicode="&#x2006;" horiz-adv-x="329" />
<glyph unicode="&#x2007;" horiz-adv-x="329" />
<glyph unicode="&#x2008;" horiz-adv-x="246" />
<glyph unicode="&#x2009;" horiz-adv-x="394" />
<glyph unicode="&#x200a;" horiz-adv-x="109" />
<glyph unicode="&#x2010;" horiz-adv-x="730" d="M111 470v176h509v-176h-509z" />
<glyph unicode="&#x2011;" horiz-adv-x="730" d="M111 470v176h509v-176h-509z" />
<glyph unicode="&#x2012;" horiz-adv-x="730" d="M111 470v176h509v-176h-509z" />
<glyph unicode="&#x2013;" horiz-adv-x="1136" d="M111 482v164h915v-164h-915z" />
<glyph unicode="&#x2014;" horiz-adv-x="1724" d="M111 487v163h1504v-163h-1504z" />
<glyph unicode="&#x2018;" horiz-adv-x="427" d="M462 1451l-187 -490h-241l259 490h169z" />
<glyph unicode="&#x2019;" horiz-adv-x="429" d="M36 961l183 490h245l-261 -490h-167z" />
<glyph unicode="&#x201a;" horiz-adv-x="429" d="M-2 -259l186 489h242l-259 -489h-169z" />
<glyph unicode="&#x201c;" horiz-adv-x="753" d="M462 1451l-189 -490h-239l265 490h163zM787 1451l-181 -490h-230l246 490h165z" />
<glyph unicode="&#x201d;" horiz-adv-x="753" d="M359 961l189 490h239l-263 -490h-165zM36 961l179 490h230l-246 -490h-163z" />
<glyph unicode="&#x201e;" horiz-adv-x="753" d="M328 -259l188 489h240l-265 -489h-163zM2 -259l182 489h227l-244 -489h-165z" />
<glyph unicode="&#x2022;" horiz-adv-x="923" d="M184 743.5q0 118.5 78.5 198t197.5 79.5q77 0 141 -36.5t100 -100t36 -140.5q0 -118 -79.5 -198t-195.5 -80q-120 0 -199 79.5t-79 198z" />
<glyph unicode="&#x2026;" horiz-adv-x="1635" d="M90 125.5q0 59.5 41 99.5t101 40q58 0 99 -40t41 -99.5t-41 -100.5t-99 -41q-60 0 -101 41t-41 100.5zM677 125q0 60 41 100t101 40q59 0 99.5 -40t40.5 -99.5t-41 -100.5t-99 -41q-39 0 -71.5 18.5t-51.5 51t-19 71.5zM1264 125.5q0 59.5 41 99.5t101 40q38 0 70 -18 t51 -50.5t19 -71.5q0 -59 -41 -100t-99 -41q-60 0 -101 41t-41 100.5z" />
<glyph unicode="&#x202f;" horiz-adv-x="394" />
<glyph unicode="&#x2039;" horiz-adv-x="668" d="M596 867l-305 -339l305 -338h-222l-316 338l316 339h222z" />
<glyph unicode="&#x203a;" horiz-adv-x="664" d="M295 867l315 -339l-315 -338h-222l305 338l-305 339h222z" />
<glyph unicode="&#x205f;" horiz-adv-x="493" />
<glyph unicode="&#x20ac;" horiz-adv-x="1252" d="M1170 1322v-202q-99 64 -249 64q-136 0 -236.5 -69t-147.5 -198h405v-140h-438q-7 -59 -7 -105q0 -14 5 -82h440v-141h-410q48 -132 148 -203t231 -71q152 0 259 70v-205q-57 -29 -122 -42.5t-161 -13.5q-213 0 -368 124.5t-212 340.5h-207v141h185q-6 68 -6 85 q0 18 6 102h-185v140h209q60 219 217 341.5t365 122.5q170 0 279 -59z" />
<glyph unicode="&#x2122;" horiz-adv-x="1485" d="M578 692l60 716h175l106 -296q26 -70 45.5 -130.5t25.5 -86.5l7 -26q27 88 85 243l110 296h178l61 -716h-144l-23 298q-5 70 -6.5 132t-0.5 89l1 27q-20 -81 -82 -250l-108 -284h-139l-100 284q-26 76 -46 138.5t-27 86.5l-6 25q4 -87 -6 -250l-19 -296h-147zM8 1278v130 h504v-130h-175v-588h-147v588h-182z" />
<glyph unicode="&#x25fc;" horiz-adv-x="1064" d="M0 1065h1065v-1065h-1065v1065z" />
<glyph unicode="&#xfb03;" horiz-adv-x="1752" d="M777 1059v81q0 75 19 138q-104 42 -194 42q-165 0 -165 -182v-79h340zM1527 1059v-1059h-205v901h-340v-901h-205v901h-340v-901h-205v901h-170v158h170v81q0 167 91 261t259 94q77 0 161 -21t146 -51q89 72 233 72q166 0 319 -76v-178q-81 38 -151.5 58.5t-149.5 20.5 q-158 0 -158 -182v-79h545z" />
<glyph unicode="&#xfb04;" horiz-adv-x="1662" d="M779 1059v81q0 75 19 138q-104 42 -196 42q-165 0 -165 -182v-79h342zM232 1059v81q0 167 91 261t259 94q40 0 83 -6t82.5 -16t76 -23.5t65.5 -28.5q84 74 233 74q186 0 397 -110v-1385h-207v1291q-84 29 -161 29q-80 0 -123.5 -40.5t-43.5 -141.5v-79h222v-158h-222 v-901h-205v901h-342v-901h-205v901h-170v158h170z" />
</font>
</defs>
</svg>
