<?xml version="1.0" standalone="no"?>
<!DOCTYPE svg PUBLIC "-//W3C//DTD SVG 1.1//EN" "http://www.w3.org/Graphics/SVG/1.1/DTD/svg11.dtd" >
<svg xmlns="http://www.w3.org/2000/svg" xmlns:xlink="http://www.w3.org/1999/xlink" version="1.1">
<metadata></metadata>
<defs>
<font id="maliitalic" horiz-adv-x="1127" >
<font-face units-per-em="2048" ascent="1638" descent="-410" />
<missing-glyph horiz-adv-x="668" />
<glyph unicode="&#xfb01;" horiz-adv-x="1451" d="M905 1480q72 -66 72 -176q0 -30 -6 -61q-8 -56 -31 -79.5t-67 -23.5q-40 0 -56.5 21t-9.5 51q10 62 10 98q0 52 -23 76t-82 24q-92 0 -140 -75t-73 -228l-21 -132q-8 -38 -13 -70t-10 -59h165q28 0 41.5 -14.5t13.5 -37.5q0 -74 -75 -75q-50 -2 -165 -3l-110 -645 q-6 -37 -30 -54t-59 -17q-74 0 -63 69q24 134 70 435l32 210l-125 -6q-62 0 -62 48q0 36 17.5 58.5t65.5 24.5q63 5 126 5q33 219 44 282q67 420 371 420q121 0 193 -66zM1206.5 1210q-30.5 28 -30.5 77q0 62 47.5 108t111.5 46q50 0 79 -28t29 -76q0 -62 -48 -108.5 t-110 -46.5q-48 0 -78.5 28zM991 31q-19 19 -13 51l178 887q6 36 31 54.5t63 18.5q37 0 56 -18.5t13 -56.5l-178 -885q-8 -34 -33.5 -52t-60.5 -18q-37 0 -56 19z" />
<glyph unicode="&#xfb02;" horiz-adv-x="1336" d="M905 1480q72 -66 72 -176q0 -30 -6 -61q-8 -56 -31 -79.5t-67 -23.5q-40 0 -56.5 21t-9.5 51q10 62 10 98q0 52 -23 76t-82 24q-92 0 -140 -75t-73 -228l-21 -132q-8 -38 -13 -70t-10 -59h165q28 0 41.5 -14.5t13.5 -37.5q0 -74 -75 -75q-50 -2 -165 -3l-110 -645 q-6 -37 -30 -54t-59 -17q-74 0 -63 69q24 134 70 435l32 210l-125 -6q-62 0 -62 48q0 36 17.5 58.5t65.5 24.5q63 5 126 5q33 219 44 282q67 420 371 420q121 0 193 -66zM926 37q-19 19 -13 55l249 1487q6 36 33 55.5t65 19.5q31 0 50 -15.5t15 -40.5l-253 -1506 q-6 -36 -31 -55t-61 -19q-35 0 -54 19z" />
<glyph horiz-adv-x="0" />
<glyph unicode="&#xd;" horiz-adv-x="668" />
<glyph horiz-adv-x="0" />
<glyph horiz-adv-x="0" />
<glyph unicode=" "  horiz-adv-x="668" />
<glyph unicode="&#x09;" horiz-adv-x="668" />
<glyph unicode="&#xa0;" horiz-adv-x="668" />
<glyph unicode="!" horiz-adv-x="552" d="M220.5 377q-9.5 20 -5.5 49l165 1003q5 34 25.5 52t49.5 18q48 0 49 -45q0 -17 -2 -25l-167 -994q-7 -34 -27.5 -56t-48.5 -22q-29 0 -38.5 20zM112 31q-30 31 -30 77q0 54 46.5 99.5t103.5 45.5q43 0 77 -32.5t34 -74.5q0 -54 -51 -100t-104 -46q-46 0 -76 31z" />
<glyph unicode="&#x22;" horiz-adv-x="736" d="M270 1013.5q-15 14.5 -11 35.5q30 137 76 402q4 17 23.5 28.5t46.5 11.5q30 0 45.5 -11t11.5 -29l-21 -112q-36 -177 -52 -295q-2 -20 -24 -32.5t-52 -12.5q-28 0 -43 14.5zM541 1013.5q-15 14.5 -11 35.5q30 137 76 402q4 17 24 28.5t47 11.5q30 0 45 -11t11 -29 l-21 -112q-36 -177 -52 -295q-2 -20 -24 -32.5t-52 -12.5q-28 0 -43 14.5z" />
<glyph unicode="#" horiz-adv-x="1284" d="M1180 871q0 -36 -22 -54.5t-57 -18.5h-88l-126 -382h122q27 0 41.5 -12.5t14.5 -36.5q0 -29 -23 -50.5t-54 -21.5h-140l-77 -241q-10 -30 -28 -42t-49 -12q-26 0 -38 17t-6 35l79 243h-324l-75 -241q-18 -56 -73 -56q-46 0 -46 46q0 18 4 29l70 222h-91q-28 0 -42 12 t-14 34q0 29 22 51t55 22h106l124 390h-88q-56 0 -56 47q0 33 22 53.5t55 20.5l104 -2l102 327q21 64 76 64q48 0 48 -44q0 -20 -4 -32l-100 -315l327 -4l113 349q9 23 28.5 37.5t43.5 14.5q48 0 48 -46q0 -16 -4 -27l-107 -330h69q58 0 58 -46zM891 800l-325 2l-123 -388 l324 2z" />
<glyph unicode="$" horiz-adv-x="1176" d="M1057 1355.5q94 -95.5 94 -233.5q0 -75 -26 -101.5t-72 -26.5q-42 0 -55.5 15t-13.5 44l2 43q0 86 -52.5 152t-150.5 78l-81 -463l-12 -67q145 -50 247.5 -136t102.5 -253q0 -121 -62.5 -213t-173 -142t-250.5 -50h-8l-34 -179q-6 -42 -52 -42q-20 0 -32 8t-10 23 q17 100 37 196q-163 26 -252.5 129.5t-89.5 265.5q0 73 22 101t74 28q50 0 61.5 -24t11.5 -97q2 -117 55.5 -179.5t142.5 -76.5q30 155 68 361l26 150q-153 50 -254 128.5t-101 239.5q0 122 67 221t180.5 158.5t247.5 63.5q18 98 32 175q4 15 19.5 26.5t34.5 11.5 q18 0 31 -10.5t11 -23.5l-33 -183q154 -22 248 -117.5zM437.5 904q55.5 -43 166.5 -79l2 14l84 490q-86 -8 -156 -52.5t-111 -109t-41 -135.5q0 -85 55.5 -128zM826 549q-53 47 -164 89q-56 -314 -90 -490q134 6 220.5 80.5t86.5 187.5q0 86 -53 133z" />
<glyph unicode="%" horiz-adv-x="1786" d="M445 8.5q-19 14.5 -19 39.5q0 16 19 50l829 1415q25 46 86 46q31 0 50 -15t19 -37q0 -17 -25 -58l-818 -1401q-31 -54 -91 -54q-31 0 -50 14.5zM393.5 970.5q-68.5 65.5 -68.5 165.5q0 90 48.5 164.5t128.5 118.5t173 44q115 0 178.5 -66t63.5 -167q0 -88 -46 -163 t-125.5 -118.5t-171.5 -43.5q-112 0 -180.5 65.5zM728 1078q51 52 51 138q0 56 -35.5 90.5t-91.5 34.5q-72 0 -128 -52.5t-56 -137.5q0 -59 36.5 -92t97.5 -33q75 0 126 52zM1037 171q-68 67 -68 168q0 89 47 163t127.5 118t172.5 44q117 0 181 -67t64 -167 q0 -87 -46 -162.5t-125.5 -119.5t-171.5 -44q-113 0 -181 67zM1369.5 280q51.5 55 51.5 134q0 56 -32.5 94t-93.5 38q-75 0 -129 -58t-54 -135q0 -58 33 -93t93 -35q80 0 131.5 55z" />
<glyph unicode="&#x26;" horiz-adv-x="1507" d="M1314 152.5q6 -10.5 6 -27.5q0 -29 -19 -52t-51 -23q-19 0 -58 19q-131 68 -187 100q-94 -69 -204.5 -106t-222.5 -37q-197 0 -304 94.5t-107 268.5q0 121 80.5 246t199.5 204q-68 34 -104 97t-36 140q0 108 54.5 193t146.5 131.5t198 46.5q136 0 230 -81t94 -206 q0 -142 -88.5 -224.5t-247.5 -128.5q52 -153 112.5 -258.5t152.5 -187.5q12 -12 29 -22q52 58 82.5 126.5t30.5 140.5q0 56 -13 86q-4 12 -4 18q0 25 28 46t60 21q44 0 62 -40q19 -37 20 -113q0 -102 -39 -194.5t-110 -168.5q50 -29 184 -90q19 -8 25 -18.5zM591 1297 q-59 -29 -97.5 -84t-38.5 -133q0 -67 43 -113t126 -50q126 20 194.5 72.5t68.5 163.5q0 81 -53 127t-128 46q-56 0 -115 -29zM732.5 174.5q78.5 26.5 148.5 72.5l-44 38q-87 77 -157 201t-108 281q-113 -52 -186 -160t-73 -218q0 -98 67 -169.5t196 -71.5q78 0 156.5 26.5z " />
<glyph unicode="'" horiz-adv-x="461" d="M267.5 1013.5q-14.5 14.5 -10.5 35.5q30 137 76 402q4 17 23.5 28.5t46.5 11.5q29 0 45 -11t12 -29l-21 -112q-36 -177 -52 -295q-2 -20 -24 -32.5t-52 -12.5q-29 0 -43.5 14.5z" />
<glyph unicode="(" horiz-adv-x="709" d="M364.5 -265q-9.5 2 -19.5 14q-118 117 -177.5 284.5t-59.5 363.5q0 217 73.5 449t203 421t290.5 279q24 15 48 15q26 0 43 -15t17 -37q0 -30 -13.5 -46t-36.5 -30t-37 -25q-138 -94 -238.5 -260t-153.5 -362t-53 -383q0 -190 52 -310.5t134 -222.5q27 -33 27 -64 q0 -27 -22 -50t-45 -23t-32.5 2z" />
<glyph unicode=")" horiz-adv-x="709" d="M-2 -252.5q-16 14.5 -16 39.5q0 27 14 43.5t36 31.5t35 23q136 96 237 262t155.5 361.5t54.5 376.5q0 192 -54.5 312.5t-142.5 225.5q-27 29 -26 64q0 28 26 51t48 23q24 0 32 -2t19 -16q117 -119 178.5 -289t61.5 -367q0 -209 -73 -436.5t-202.5 -416.5t-292.5 -287 q-24 -14 -48 -14q-26 0 -42 14.5z" />
<glyph unicode="*" horiz-adv-x="1037" d="M1005.5 1250q11.5 -16 11.5 -32q0 -34 -46 -54l-271 -128l233 -131q19 -10 20 -34q0 -25 -19 -47t-43 -22q-16 0 -36 11l-193 120l-38 -227q-4 -21 -24 -34.5t-44 -13.5q-26 0 -39 12.5t-9 35.5l38 225l-216 -106q-31 -10 -37 -10q-17 0 -30.5 13.5t-13.5 32.5 q0 36 30 50l255 125l-241 138q-21 14 -22 34q0 20 20 42t42 22q18 0 34 -12l211 -126l42 249q8 56 67 56q32 0 43.5 -13.5t6.5 -42.5l-41 -251l225 118q44 16 56 16q17 0 28.5 -16z" />
<glyph unicode="+" d="M1042.5 708.5q14.5 -10.5 14.5 -33.5q0 -81 -88 -81l-329 4l-58 -323q-10 -69 -74 -68q-52 0 -53 44l34 211q8 40 13.5 74t9.5 62q-106 2 -341 2q-54 0 -54 44q0 37 21 59t59 22l337 -2l22 116l30 180q7 36 23.5 52.5t52.5 16.5q54 0 54 -41l-31 -188l-23 -138l330 -2 q36 0 50.5 -10.5z" />
<glyph unicode="," horiz-adv-x="626" d="M364 268q39 -49 39 -132q0 -86 -36.5 -169.5t-99.5 -137.5q-52 -46 -109.5 -72t-109.5 -26q-24 0 -37 10t-13 29q0 26 17 43.5t35 17.5q84 0 163 69q34 28 58 68t34 82q-48 -44 -119 -44q-58 0 -93 36t-35 90q0 73 57.5 129t135.5 56q74 0 113 -49zM270 113q27 27 27 64 q0 26 -18 41.5t-49 15.5q-36 0 -61 -29.5t-25 -62.5q0 -26 15.5 -41t43.5 -15q40 0 67 27z" />
<glyph unicode="-" horiz-adv-x="881" d="M144.5 719.5q-12.5 15.5 -12.5 38.5q0 40 19.5 64t53.5 24q192 -4 257 -4q182 0 319 11q70 6 70 -53q0 -38 -26.5 -65t-68.5 -29l-81 -2q-146 -4 -253 -4q-69 0 -107 2l-140 2q-18 0 -30.5 15.5z" />
<glyph unicode="." horiz-adv-x="618" d="M145 35q-28 27 -28 71q0 64 48 110.5t104 46.5q42 0 72.5 -32t30.5 -78q0 -56 -48.5 -100.5t-104.5 -44.5q-46 0 -74 27z" />
<glyph unicode="/" horiz-adv-x="1096" d="M124 -12q-18 16 -18 42q0 23 19 54l867 1710q15 26 28.5 35t36.5 9q31 0 53 -17t22 -45q0 -16 -6 -30t-8 -18l-867 -1700q-30 -55 -71 -56q-38 0 -56 16z" />
<glyph unicode="0" horiz-adv-x="1288" d="M305 96.5q-111 68.5 -167 184.5t-56 251q0 214 90.5 409t249 316.5t351.5 121.5q161 0 272 -77.5t165 -205t54 -275.5q0 -219 -88 -401t-245.5 -287t-358.5 -105q-156 0 -267 68.5zM849 250q120 89 186 237t66 324q0 188 -85 311t-241 123q-146 0 -268 -106.5 t-192 -272.5t-70 -329q0 -168 84.5 -272t242.5 -104q157 0 277 89z" />
<glyph unicode="1" horiz-adv-x="933" d="M776 1379q24 -27 20 -63l-222 -1243q-4 -31 -29 -50t-63 -19q-41 0 -56 21t-8 48l196 1109q-88 -94 -240 -242q-6 -6 -19.5 -10.5t-26.5 -4.5q-29 0 -47 21t-18 44q0 15 8 25.5t34 33.5q50 45 253 261l50 52q44 44 96 44q48 0 72 -27z" />
<glyph unicode="2" horiz-adv-x="1162" d="M947 132.5q18 -15.5 18 -40.5q0 -36 -27 -58t-65 -22q-25 0 -117 4q-207 6 -269 7q-228 0 -389 -9q-26 0 -42 12t-16 30q0 124 184.5 295t403.5 307q331 209 331 451q0 102 -67 165t-180 63q-123 0 -213 -85.5t-108 -202.5q-9 -32 -30.5 -46.5t-61.5 -14.5q-64 0 -65 56 q0 109 65.5 208.5t175 159t237.5 59.5q117 0 211 -48t147.5 -130.5t53.5 -183.5q0 -172 -113.5 -307.5t-310.5 -255.5q-155 -92 -278 -195.5t-179 -200.5q81 4 267 5q150 0 389 -7q30 0 48 -15.5z" />
<glyph unicode="3" horiz-adv-x="1224" d="M1089.5 634q42.5 -76 42.5 -172q0 -129 -61.5 -233t-183.5 -164.5t-297 -60.5q-216 0 -365.5 95t-149.5 294q0 60 13 129q16 88 94 88q33 0 52 -16t19 -38q0 -6 -4 -19q-10 -68 -11 -107q0 -292 354 -292q167 0 276 85.5t109 238.5q0 106 -69 160.5t-221 54.5 q-64 0 -54 63q7 35 24.5 54t52.5 19q159 0 253 74t94 203q0 84 -60.5 145.5t-165.5 61.5q-119 0 -217 -74t-119 -187q-2 -20 -2 -77q0 -28 -24 -46t-64 -18q-56 0 -66 41q-4 38 -4 54q0 122 67.5 222t182.5 158.5t246 58.5q104 0 193.5 -40t142.5 -113.5t53 -172.5 q0 -122 -70 -216.5t-183 -138.5q80 -38 122.5 -114z" />
<glyph unicode="4" horiz-adv-x="1226" d="M1192 572q16 -14 16 -42q0 -77 -76 -85q-113 -13 -225 -19l-80 -362q-4 -31 -29 -50.5t-63 -19.5q-62 0 -63 54q0 14 3 23l77 349q-92 -2 -299 -2q-226 0 -363 35q-48 12 -48 55q0 30 25 66q188 274 353.5 477t366.5 372q24 18 55 18q25 0 43 -18.5t18 -37.5 q0 -18 -13 -37t-39 -46q-190 -168 -348 -352.5t-256 -351.5q-6 -8 -6 -20q0 -8 24 -14q98 -14 289 -14q81 0 227 4l102 472q11 69 84 68q36 0 53.5 -15.5t17.5 -42.5q0 -14 -2 -23l-100 -451q134 12 213 20q27 4 43 -10z" />
<glyph unicode="5" horiz-adv-x="1216" d="M204.5 94q-112.5 94 -112.5 257q0 48 10 117q8 38 32.5 58t62.5 20q36 0 55 -15t19 -38q0 -6 -4 -19q-10 -62 -10 -105q0 -111 60.5 -170t196.5 -59q209 0 323 114.5t114 315.5q0 132 -73.5 204t-219.5 72q-60 0 -115.5 -10.5t-173.5 -37.5q-12 -4 -32 -4q-36 0 -57 19.5 t-13 51.5l24 100q71 305 104 476q181 -8 416 -8q77 0 198 4q96 4 135 4q52 0 53 -46q0 -41 -23 -65t-62 -24q-82 0 -128 -2l-197 -2q-113 0 -221 4q-14 2 -42 2q-14 -61 -41.5 -180t-39.5 -175q0 -15 17 -15q2 0 22 4q15 5 59.5 16t86.5 17.5t84 6.5q188 0 296 -107.5 t108 -282.5q0 -182 -71.5 -315t-205 -205t-317.5 -72q-205 0 -317.5 94z" />
<glyph unicode="6" horiz-adv-x="1260" d="M1230 1094q0 -33 -30 -57t-60 -24q-23 0 -36.5 12.5t-27.5 42.5q-29 69 -55.5 112.5t-80 75t-136.5 31.5q-199 0 -341 -166t-202 -465q72 90 188.5 144.5t240.5 54.5q139 0 237.5 -54.5t148.5 -143.5t50 -191q0 -219 -149.5 -340.5t-394.5 -121.5q-231 0 -359.5 113 t-128.5 328q0 104 14 193q36 215 126.5 392.5t236 283t333.5 105.5q159 0 265.5 -80.5t152.5 -210.5q8 -29 8 -34zM482.5 681.5q-93.5 -41.5 -149.5 -121.5t-56 -188q0 -111 76.5 -173.5t226.5 -62.5q128 0 214.5 47t128.5 122t42 161q0 108 -67 182.5t-208 74.5 q-114 0 -207.5 -41.5z" />
<glyph unicode="7" horiz-adv-x="1160" d="M1105 723q0 -38 -23 -60.5t-63 -22.5q-104 0 -160 -2q-144 -289 -322 -594q-13 -21 -39 -32.5t-51 -11.5q-34 0 -52.5 16t-18.5 38q0 16 13 36q121 199 298 545q-52 -2 -155 -2q-64 0 -64 50q0 40 25 63t65 23q136 0 198 2q140 282 141 403q0 73 -51.5 108.5t-181.5 35.5 q-157 0 -397 -56q-6 -2 -20 -2q-26 0 -40.5 13.5t-14.5 38.5q0 56 75 81q188 61 397 61q190 0 292.5 -73t102.5 -207q0 -75 -34.5 -168t-99.5 -231l109 2q71 0 71 -54z" />
<glyph unicode="8" horiz-adv-x="1263" d="M1113 739.5q75 -99.5 75 -227.5q0 -161 -81 -276t-222 -173.5t-319 -58.5q-155 0 -270.5 49t-178.5 139t-63 209q0 117 64 218.5t169.5 169.5t226.5 94q-54 28 -87.5 77t-33.5 116q0 98 55.5 181.5t147 131.5t196.5 48q131 0 215.5 -77.5t84.5 -191.5q0 -192 -189 -283 q135 -46 210 -145.5zM614.5 1240q-68.5 -68 -68.5 -160q0 -73 44.5 -114t117.5 -41q62 0 116.5 34.5t86 90t31.5 116.5q0 67 -42.5 104.5t-114.5 37.5q-102 0 -170.5 -68zM819.5 189.5q103.5 55.5 157 142t53.5 178.5q0 125 -92 203.5t-246 78.5q-120 0 -230.5 -49 t-179.5 -137t-69 -195q0 -127 93 -202t268 -75q142 0 245.5 55.5z" />
<glyph unicode="9" horiz-adv-x="1234" d="M1111.5 1310.5q129.5 -128.5 129.5 -347.5q0 -82 -15 -161q-67 -370 -242 -584t-464 -214q-131 0 -235.5 45t-163.5 124.5t-59 177.5q0 34 7 71q4 34 29 55.5t59 21.5t52 -19.5t12 -55.5q-4 -33 -4 -48q0 -106 86 -172t240 -66q201 0 337.5 169t201.5 468 q-69 -115 -188 -176.5t-248 -61.5q-205 0 -326 96t-121 272q0 159 73 280t200.5 187.5t283.5 66.5q226 0 355.5 -128.5zM849.5 712.5q95.5 50.5 152.5 137t57 190.5q0 120 -85 194t-220 74q-113 0 -203.5 -52t-142 -144.5t-51.5 -206.5q0 -243 291 -243q106 0 201.5 50.5z " />
<glyph unicode=":" horiz-adv-x="646" d="M240 666q-39 40 -39 99q0 78 51 127.5t130 49.5q63 0 103.5 -38.5t40.5 -92.5q0 -82 -49 -133.5t-134 -51.5q-64 0 -103 40zM415 734q24 26 24 66q0 23 -20 41t-47 18q-35 0 -59 -27.5t-24 -60.5q0 -29 17 -46t45 -17q40 0 64 26zM151.5 72.5q-40.5 40.5 -40.5 96.5 q0 76 49 128t125 52q69 0 109.5 -43t40.5 -101q0 -80 -50 -126.5t-132 -46.5q-61 0 -101.5 40.5zM323 135q24 20 24 55q0 31 -17 49t-51 18q-29 0 -52.5 -25t-25.5 -50q-2 -34 14.5 -50.5t45.5 -16.5q38 0 62 20z" />
<glyph unicode=";" horiz-adv-x="686" d="M523 903.5q41 -38.5 41 -92.5q0 -82 -49 -133.5t-135 -51.5q-62 0 -102 40t-40 99q0 78 51.5 127.5t130.5 49.5q62 0 103 -38.5zM452 734q24 26 24 66q0 23 -19.5 41t-47.5 18q-36 0 -60 -27.5t-24 -60.5q0 -29 18 -46t46 -17q39 0 63 26zM406 268q39 -49 39 -132 q0 -86 -36.5 -169.5t-99.5 -137.5q-52 -46 -109.5 -72t-109.5 -26q-24 0 -37 10t-13 29q0 26 16.5 43.5t35.5 17.5q83 0 163 69q34 28 58 68t34 82q-48 -44 -120 -44q-58 0 -92.5 36t-34.5 90q0 73 57.5 129t135.5 56q74 0 113 -49zM312 113q27 27 27 64q0 26 -18 41.5 t-50 15.5q-35 0 -60 -29.5t-25 -62.5q0 -26 15.5 -41t43.5 -15q40 0 67 27z" />
<glyph unicode="&#x3c;" d="M476 380q-183 74 -279.5 135t-96.5 123q0 71 127.5 142t352.5 149q112 38 292.5 90.5t209.5 52.5q28 0 41 -14t13 -34q0 -34 -22 -52.5t-67 -31.5l-61 -17q-246 -67 -374 -108q-134 -44 -246.5 -98.5t-112.5 -78.5q0 -19 71 -50.5t228 -90.5l194 -75q181 -69 194 -73 q26 -6 39 -21t13 -33q0 -34 -17.5 -53t-49.5 -19q-58 0 -449 157z" />
<glyph unicode="=" d="M177 744.5q-20 13.5 -20 38.5q0 36 31 56t87 20l698 6q36 0 60 -16t24 -42q0 -34 -30 -52t-80 -18l-720 -6q-30 0 -50 13.5zM106 478q0 36 30.5 57t86.5 23l713 20q36 2 58.5 -13t22.5 -41q0 -33 -29 -52t-79 -21l-732 -23q-71 0 -71 50z" />
<glyph unicode="&#x3e;" d="M90.5 234q-17.5 11 -17.5 33q0 28 19 50t50 32q313 111 436 150q136 46 231.5 87.5t95.5 61.5t-79.5 65t-203.5 98q-111 46 -227 81t-170 48q-67 17 -66 61q0 29 20 48t53 19q35 0 192.5 -49.5t262.5 -89.5q178 -67 283.5 -141t105.5 -140q0 -70 -109.5 -127t-350.5 -141 l-144 -50q-131 -45 -224 -76t-114 -31q-26 0 -43.5 11z" />
<glyph unicode="?" horiz-adv-x="1100" d="M484 437q0 81 58 157t174 191q123 120 186 204.5t63 176.5q0 108 -67 171.5t-182 63.5q-165 0 -261 -79t-96 -213q0 -56 31.5 -91.5t83.5 -35.5q58 0 58 -49q0 -33 -22.5 -53.5t-60.5 -20.5q-94 0 -154.5 64.5t-60.5 164.5q0 124 62.5 224t172 156.5t247.5 56.5 q165 0 268.5 -95t103.5 -248q0 -83 -39.5 -161.5t-94.5 -141t-147 -150.5q-100 -94 -148.5 -154.5t-48.5 -119.5q0 -46 -20 -59.5t-58 -13.5q-48 0 -48 55zM399 54q-27 26 -27 67q0 50 41.5 90t94.5 40q40 0 67 -26t27 -66q0 -48 -42 -89.5t-92 -41.5q-42 0 -69 26z" />
<glyph unicode="@" horiz-adv-x="1850" d="M1389 1192q144 -70 226.5 -193.5t82.5 -277.5q0 -142 -61.5 -290.5t-164 -245.5t-216.5 -97q-72 0 -114.5 36.5t-49.5 94.5q-95 -100 -263 -100q-159 0 -223.5 89t-64.5 218q0 132 57.5 245.5t158 180.5t218.5 67q86 0 144.5 -33t90.5 -92l14 52q8 25 29 39t51 14 q29 0 45.5 -13t16.5 -33q0 -10 -6 -28q-54 -148 -78 -225q-12 -34 -18 -57q-64 -199 -64 -266q0 -35 15 -53.5t51 -18.5q81 0 148 81t106 201.5t39 228.5q0 126 -63 223t-176.5 151t-264.5 54q-226 0 -396 -99.5t-261 -269t-91 -370.5q0 -234 149.5 -369.5t410.5 -135.5 q64 0 115.5 7t126.5 26l51 11q27 6 40.5 -9t13.5 -39t-15 -38.5t-55 -28.5q-58 -21 -141.5 -33.5t-165.5 -12.5q-203 0 -355 77.5t-233.5 215t-81.5 317.5q0 231 115 431t320 319t463 119q180 0 324 -70zM1156 654q0 62 -60 109.5t-137 47.5q-80 0 -144.5 -53.5t-102 -138.5 t-37.5 -174q0 -96 47 -154.5t141 -58.5q67 0 120 32.5t82 92.5q31 67 86 267q5 22 5 30z" />
<glyph unicode="A" horiz-adv-x="1445" d="M1239 378q-21 -29 -61 -29h-14l33 -278l3 -19q0 -34 -32 -53t-69 -19q-28 0 -47.5 12t-21.5 34l-38 323l-591 4q-100 -201 -163 -319q-26 -52 -88 -52q-40 0 -60.5 22t-14.5 44q0 8 9 25l353 698q106 205 244 479q70 133 110 184t104 51q58 0 94.5 -50t52.5 -165 q52 -357 100 -758h52q32 0 49 -18t17 -47q0 -40 -21 -69zM975 514l-70 602q-10 84 -19 121t-19 37t-30 -33t-64 -123l-101 -207q-94 -199 -190 -391z" />
<glyph unicode="B" horiz-adv-x="1296" d="M98 10l-27 2q-56 6 -57 48q0 38 24 66.5t66 26.5h30q83 319 141 645q38 203 76 454q-14 -7 -34 -7q-18 0 -30 10.5t-12 31.5q0 40 27.5 65t90.5 49q191 76 401 76q141 0 254.5 -44t177 -125.5t63.5 -187.5q0 -159 -118 -257t-304 -128q132 -29 205.5 -112.5t73.5 -183.5 q0 -146 -89.5 -248.5t-235.5 -151.5t-315 -43l-145 6l-108 2q-23 -52 -82 -52q-67 0 -73 58zM986 439q0 119 -109.5 170t-306.5 59q-40 2 -64 13t-24 42q0 90 112 94q153 8 265 31t189.5 87t77.5 185q0 106 -94 161.5t-261 55.5q-54 0 -125.5 -8.5t-125.5 -22.5 q-29 -194 -83 -506q-59 -337 -148 -656l110 -2q46 -2 133 -2q454 0 454 299z" />
<glyph unicode="C" horiz-adv-x="1491" d="M1509 1421q0 -12 -2 -20l-44 -233q-17 -94 -101 -94q-42 0 -63 33q-43 75 -79 122t-97.5 79.5t-151.5 32.5q-173 0 -331 -112.5t-254.5 -291.5t-96.5 -361q0 -144 63.5 -242t166.5 -145t227 -47q175 0 320.5 95.5t193.5 274.5q8 36 28 58t66 22q39 0 58 -15t19 -45 q0 -8 -4 -33q-28 -138 -119.5 -253.5t-237 -183.5t-324.5 -68q-166 0 -307.5 64.5t-227.5 195.5t-86 318q0 226 118 439t313.5 345.5t414.5 132.5q130 0 220.5 -48t141.5 -135l19 102q4 31 25.5 51t61.5 20q70 0 70 -58z" />
<glyph unicode="D" horiz-adv-x="1434" d="M1172 1281.5q211 -149.5 211 -444.5q0 -242 -134.5 -429t-371.5 -290.5t-530 -103.5h-182q-40 0 -58.5 14t-18.5 45q0 36 22 61t59 25h74l171 1157h-7q-44 0 -68 11.5t-24 45.5q0 54 27 72t82 18h25q20 31 75 30q32 0 46 -9t20 -28q371 -25 582 -174.5zM816.5 259 q188.5 88 298 238.5t109.5 339.5q0 245 -176.5 350.5t-473.5 124.5l-173 -1151q227 10 415.5 98z" />
<glyph unicode="E" horiz-adv-x="1196" d="M1258.5 1423.5q15.5 -9.5 15.5 -36.5q0 -42 -25 -68t-59 -22q-205 17 -379 17q-134 0 -285 -8q-39 -278 -73 -462l141 -2l229 -7l124 -2q50 0 50 -50q0 -39 -21 -67.5t-55 -28.5l-110 3q-94 6 -247 6q-88 0 -138 2q-29 -155 -58 -268t-69 -250q133 -11 321 -11 q113 0 180 4t163 15q77 8 77 -54q0 -38 -19.5 -62t-57.5 -30q-80 -16 -387 -16q-275 0 -492 24q-46 6 -46 52q0 38 20 64t46 26h36q37 113 65.5 229t59.5 279h-24q-63 0 -64 54q0 38 22 65t58 27h34q18 106 20 121q46 249 58 332h-14q-34 0 -34 53q0 54 27.5 71.5t71.5 21.5 q122 13 361 14q303 0 431 -20q31 -6 46.5 -15.5z" />
<glyph unicode="F" horiz-adv-x="1166" d="M1258 1387q0 -40 -23 -67t-63 -23q-217 28 -385 27q-127 0 -253 -6q-25 -243 -68 -503q82 6 182 6q92 0 191 -4t134 -10q54 -8 55 -59q0 -34 -21 -60t-65 -24q-145 10 -284 11q-126 0 -217 -7q-52 -295 -124 -590q-10 -30 -34 -48t-60 -18q-39 0 -56 19t-10 49 q36 143 61 258t61 316l-93 -12q-26 -2 -40 11t-14 41q0 37 21.5 63t61.5 30q62 9 90 11q44 253 67 512l-61 -4q-67 -2 -66 50q0 87 85 93l52 2l3 28q2 36 28 57t65 21q72 0 70 -80v-14q127 6 254 6q135 0 244.5 -7.5t157.5 -20.5q54 -12 54 -54z" />
<glyph unicode="G" horiz-adv-x="1547" d="M609 1197q-149 -96 -235.5 -254t-86.5 -333q0 -134 54 -238.5t156.5 -163t242.5 -58.5q189 0 303.5 113t162.5 335l-295 6q-67 2 -67 60q0 42 27.5 65t61.5 23l504 -10q72 0 72 -57q0 -39 -24 -63t-64 -24l-61 2q-126 -598 -620 -598q-188 0 -328.5 80.5t-214.5 219.5 t-74 310q0 217 111 408.5t299 306t407 114.5q150 0 249.5 -52t155.5 -129l17 60q8 34 29 46.5t60 12.5q34 0 54 -16t16 -41q-24 -144 -56 -196q-17 -25 -42.5 -35.5t-49.5 -10.5t-40.5 9.5t-41.5 36.5q-52 54 -92.5 87.5t-104.5 56.5t-154 23q-182 0 -331 -96z" />
<glyph unicode="H" horiz-adv-x="1489" d="M1400 718.5q17 -14.5 17 -48.5q0 -42 -26.5 -64t-74.5 -22h-42l-74 -506q-7 -38 -31.5 -59t-61.5 -21q-40 0 -57.5 20t-13.5 55l76 513l-686 12l-141 -552q-17 -58 -91 -58q-72 0 -71 50q0 14 2 20l140 544h-52q-27 0 -45 15.5t-18 48.5q0 38 24.5 60t68.5 22h60l175 687 q11 38 37 56t59 18q68 0 68 -60l-4 -24l-174 -679l670 -11l102 694q4 34 28.5 57t64.5 23q38 0 55 -21t13 -53l-102 -702h48q40 0 57 -14.5z" />
<glyph unicode="I" horiz-adv-x="914" d="M1009 1414q0 -42 -25 -67t-63 -23q-62 4 -190 9q-60 -339 -117.5 -610.5t-131.5 -563.5l234 -2q34 0 47.5 -13.5t13.5 -43.5q0 -42 -23 -67t-64 -25l-634 8q-52 2 -52 59q0 42 25 66t59 24l237 -4q146 624 243 1170l-146 -9q-125 -8 -157 -8q-18 0 -31 14.5t-13 46.5 q0 40 23 60.5t59 27.5q113 18 332 18q197 0 320 -12q54 -5 54 -55z" />
<glyph unicode="J" horiz-adv-x="1146" d="M1285 1410q0 -92 -93 -92h-106q-62 -333 -144 -779q-91 -539 -520 -539q-183 0 -285.5 102.5t-102.5 286.5q0 73 14 143q8 50 29 68t69 18q71 0 71 -60q0 -14 -2 -24q-16 -87 -16 -149q0 -236 212 -237q136 0 233.5 97.5t132.5 304.5q68 359 136 704l12 62 q-56 -2 -146 -2q-31 0 -50 14.5t-19 41.5q0 40 22 62t47 24q100 8 315 9q94 0 134 -2q57 -7 57 -53z" />
<glyph unicode="K" horiz-adv-x="1267" d="M1367 1430.5q20 -18.5 20 -45.5q0 -44 -40 -71q-203 -132 -472 -290q-113 -69 -289 -167l-143 -84l73 -81q119 -134 221 -234q98 -98 166 -157.5t189 -160.5q21 -19 22 -48q0 -40 -29.5 -67t-63.5 -27q-23 0 -44 14q-69 50 -133.5 111t-153.5 152l-64 64 q-153 150 -273 301q-48 -247 -106 -562q-6 -38 -32.5 -58t-64.5 -20q-34 0 -51 17t-13 47q25 146 77 414l58 316l46 269q17 108 54 326q6 32 32.5 52t62.5 20q38 0 55.5 -22t10.5 -56q-10 -54 -17 -101.5t-14 -89.5q-24 -145 -50 -293q88 50 259 154l136 81q217 130 470 299 q23 16 52 16t49 -18.5z" />
<glyph unicode="L" horiz-adv-x="1098" d="M238 26q-77 28 -110.5 89.5t-33.5 163.5q0 293 282 1125q11 29 37 47t61 18q26 0 45.5 -12t19.5 -34q0 -4 -5 -22l-20 -62q-125 -365 -193 -613t-68 -447q0 -60 16 -89t57 -38.5t129 -9.5q100 0 179.5 10.5t200.5 31.5l74 13l16 2q30 0 44.5 -16t14.5 -41q0 -80 -103 -98 q-148 -26 -235.5 -36t-192.5 -10q-138 0 -215 28z" />
<glyph unicode="M" horiz-adv-x="1664" d="M1546 1419.5q31 -67.5 31 -203.5q0 -309 -158 -1149q-6 -35 -29.5 -57t-63.5 -22q-38 0 -57 22t-13 54q87 464 131 730.5t44 391.5q0 113 -36 113q-37 0 -107 -89.5t-135 -196.5q-57 -92 -98.5 -180.5t-105.5 -242.5q-26 -63 -103 -64q-36 0 -55.5 14t-23.5 44 q-12 84 -19 153q-19 162 -42 266q-28 117 -63 209t-69 92q-46 0 -103 -181t-110 -440q-79 -398 -112 -619q-10 -67 -94 -66q-67 0 -67 60q0 12 2 22q27 169 79 430q8 48 16.5 92t17.5 83q77 419 167 610.5t210 191.5q140 0 209.5 -208.5t83.5 -503.5q69 174 166 337.5 t205 269t199 105.5q72 0 103 -67.5z" />
<glyph unicode="N" horiz-adv-x="1541" d="M1520.5 1464q16.5 -25 10.5 -58q-54 -329 -117 -654l-25 -134q-42 -233 -80.5 -361.5t-77.5 -179.5t-91 -51q-62 0 -119.5 65.5t-121.5 191.5t-180 383q-111 247 -168.5 369.5t-99.5 192.5q-32 -167 -64 -386l-20 -121q-69 -434 -110 -633q-4 -26 -30 -47t-60 -21 q-35 0 -56 20t-17 48l17 89l96 546q26 136 58 355q17 84 46 265q12 65 38.5 98.5t76.5 33.5q58 0 105 -49t94 -143.5t142 -300.5q18 -44 35 -80.5t29 -66.5q182 -400 305 -612q19 61 37.5 150t26.5 122q12 69 30 151q34 159 138 771q6 35 31.5 53.5t63.5 18.5q41 0 57.5 -25 z" />
<glyph unicode="O" horiz-adv-x="1654" d="M440.5 83q-139.5 67 -222 196.5t-82.5 310.5q0 240 105.5 443t291.5 323.5t416 120.5q187 0 333.5 -81.5t229 -225.5t82.5 -326q0 -241 -107.5 -429t-301 -293.5t-437.5 -105.5q-168 0 -307.5 67zM1105.5 254q152.5 89 239 243.5t86.5 346.5q0 143 -58.5 253.5t-166 171 t-249.5 60.5q-186 0 -336.5 -102.5t-236 -272t-85.5 -358.5q0 -153 66.5 -249t172.5 -139t227 -43q188 0 340.5 89z" />
<glyph unicode="P" horiz-adv-x="1276" d="M1055 1418.5q117 -54.5 185 -150.5t68 -219q0 -153 -87 -267t-231 -174t-315 -60q-179 0 -293 64l-103 -548q-6 -37 -32 -57.5t-63 -20.5q-40 0 -56.5 23t-12.5 53q30 172 58 316l54 286q44 245 82 510l-8 -4q-21 -10 -38 -10q-23 0 -36.5 20t-13.5 48q0 38 18 57t64 41 q33 16 40 21l6 34q14 94 102 94q37 0 56 -13t15 -33v-6q138 50 284 50q140 0 257 -54.5zM897.5 731q105.5 46 168 130t62.5 188q0 123 -101.5 200t-253.5 77q-115 0 -286 -68q-9 -74 -23 -144l-9 -53q-8 -42 -13 -80.5t-10 -69.5q-16 -115 -25 -159q104 -68 261 -67 q124 0 229.5 46z" />
<glyph unicode="Q" horiz-adv-x="1630" d="M1414 180q18 -21 19 -44q0 -38 -31.5 -68t-68.5 -30q-36 0 -55 22l-96 115q-108 -71 -234.5 -109t-255.5 -38q-182 0 -307.5 76t-187 207.5t-61.5 298.5q0 236 118 436.5t314.5 319.5t421.5 119q162 0 295.5 -80.5t211.5 -222.5t78 -319q0 -163 -67 -311.5t-186 -262.5z M895 206.5q99 31.5 187 88.5l-121 146q-14 16 -14 37q0 32 38.5 64t71.5 32q20 0 33 -12l130 -153q90 96 141 212t51 242q0 138 -55 245.5t-154.5 168t-225.5 60.5q-175 0 -331.5 -103.5t-250.5 -271.5t-94 -352q0 -199 105.5 -317t289.5 -118q100 0 199 31.5z" />
<glyph unicode="R" horiz-adv-x="1338" d="M1223 811.5q-93 -107.5 -245.5 -163.5t-329.5 -56q-120 0 -222 26l666 -438q32 -21 32 -50q0 -38 -26 -70t-68 -32q-16 0 -35.5 7t-29.5 15l-618 441l-19 -100l-57 -329q-6 -35 -30 -53.5t-59 -18.5q-36 0 -53.5 20t-17.5 46q0 12 2 19q38 186 64 337.5t61 370.5 q39 247 61 391q-12 -4 -20 -4q-27 0 -32.5 19t-5.5 54q0 30 14 47.5t52 35.5l14 7l7 44q7 48 29.5 69t64.5 21q78 0 69 -59v-4q85 33 156.5 46t148.5 13q157 0 274.5 -49.5t181.5 -138.5t64 -207q0 -149 -93 -256.5zM643.5 1296q-77.5 -18 -175.5 -55q-38 -284 -71 -476 q106 -32 259 -32q207 0 343.5 87t136.5 248q0 113 -91.5 179.5t-248.5 66.5q-75 0 -152.5 -18z" />
<glyph unicode="S" horiz-adv-x="1176" d="M230 109.5q-117 107.5 -117 293.5q0 73 22 101t74 28q50 0 61.5 -24t11.5 -97q2 -138 74 -200.5t194 -62.5q142 0 235.5 75.5t93.5 192.5q0 70 -35 113t-93.5 70t-166.5 63q-97 32 -172 70.5t-134 112.5t-59 189q0 124 70 225t188.5 159.5t255.5 58.5q122 0 216.5 -46 t148 -126.5t53.5 -182.5q0 -75 -26 -101.5t-72 -26.5q-42 0 -55.5 15t-13.5 44l2 43q0 98 -64.5 166.5t-188.5 68.5q-93 0 -175 -42t-129 -111t-47 -146q0 -64 33.5 -104.5t84 -63t135.5 -49.5l55 -19q145 -50 247.5 -136t102.5 -253q0 -121 -62.5 -213t-173 -142 t-250.5 -50q-207 0 -324 107.5z" />
<glyph unicode="T" horiz-adv-x="1162" d="M1228.5 1422.5q16.5 -12.5 16.5 -43.5q0 -40 -26.5 -66t-67.5 -24q-197 15 -338 17q-58 -236 -136 -606q-87 -414 -125 -633q-8 -44 -31.5 -65.5t-71.5 -21.5q-38 0 -54.5 15t-16.5 47q0 23 7 54q43 217 129 602l138 608q-170 -4 -357 -24q-70 -6 -70 61q0 38 21 60 t57 26q127 12 223 18.5t234 6.5q108 0 240 -4.5t182 -10.5q30 -4 46.5 -16.5z" />
<glyph unicode="U" horiz-adv-x="1393" d="M1368 1462q19 -17 19 -43q0 -10 -2 -18q-48 -265 -90 -532q-35 -234 -133 -805q-12 -69 -90 -68q-69 0 -69 58q0 16 2 26l27 158q-73 -104 -193 -169t-269 -65q-142 0 -238 59.5t-142 153.5t-46 199q0 70 33.5 249t111.5 557l34 175q13 70 91 70q34 0 52 -14t18 -41 q0 -11 -2 -17q-91 -426 -131 -647.5t-40 -331.5q0 -121 66 -192t193 -71q122 0 234.5 64.5t189 165.5t96.5 207q30 153 71 391.5t67 424.5q10 73 86 73q35 0 54 -17z" />
<glyph unicode="V" horiz-adv-x="1395" d="M540.5 26q-41.5 26 -58.5 74q-39 117 -119 679q-23 153 -46 363q-18 166 -28 251l-2 34q0 23 26 37.5t63 14.5q32 0 48.5 -17t18.5 -39q18 -138 52 -426l21 -190q36 -280 55 -405t35 -176t40 -51q25 0 60.5 51t99 181t186.5 400l280 628q12 24 27 32t40 8q36 0 62 -18 t26 -43q0 -13 -6 -29q-98 -219 -275 -600q-257 -562 -337 -685q-62 -100 -171 -100q-56 0 -97.5 26z" />
<glyph unicode="W" horiz-adv-x="1833" d="M425 24q-28 20 -32 56q-17 129 -34 461q-8 181 -14 263q-6 92 -28 249q-27 205 -26 315q0 23 2 33q6 30 31 50t65 20q31 0 45.5 -14t18.5 -45q4 -34 5 -48q34 -315 48 -525l12 -201q10 -192 19 -290.5t19 -98.5q8 0 31 33t44 68t31 53l80 131l31 52q94 154 136 211.5 t71 57.5q30 0 52.5 -49.5t68.5 -191.5l35 -104l38 -115q26 -82 39 -114t21 -32q6 0 31.5 61.5t48.5 121t38 98.5q47 134 117 307q56 140 72 184q142 351 159 393q11 27 33.5 41t54.5 14q69 0 69 -78q0 -8 -6 -21q-56 -115 -143 -336l-89 -227q-56 -140 -126 -329 q-69 -193 -150 -386q-35 -84 -125 -84q-38 0 -66 29.5t-55 93t-69 190.5q-14 44 -46 170q-10 43 -19.5 77t-15.5 34q-9 0 -32.5 -37t-40.5 -67t-26 -45q-36 -69 -92 -158q-78 -124 -121 -184.5t-75 -83.5t-67 -23q-40 0 -68 20z" />
<glyph unicode="X" horiz-adv-x="1386" d="M1393 1308l-556 -602l329 -585q14 -20 14 -43q0 -34 -33 -60t-71 -26q-34 0 -50 31l-312 551q-132 -144 -441 -476l-66 -72q-20 -21 -33 -26.5t-38 -5.5q-36 0 -66 27t-26 54q4 19 13.5 32.5t22.5 24.5l54 56q159 171 283 304.5t213 230.5q-246 441 -339 616 q-15 24 -9 42q4 34 34.5 57t68.5 23q20 0 32.5 -14t31.5 -43q125 -230 305 -549l518 555q20 25 36 35.5t33 10.5q38 0 62 -28.5t24 -61.5q0 -25 -34 -58z" />
<glyph unicode="Y" horiz-adv-x="1367" d="M546 30q-18 24 -12 56l101 599q-95 36 -205 274q-48 102 -71.5 184.5t-55.5 224.5q-2 6 -2 21q0 36 29 55t69 19q56 0 73 -74q34 -135 54 -203t50 -150q32 -83 76 -152t81 -69q36 0 100 60.5t144 164.5q64 84 116.5 163t124.5 194q23 38 35.5 50t35.5 12q36 0 63 -18 t27 -46q0 -20 -13 -39q-140 -247 -261 -401q-96 -120 -178.5 -187.5t-130.5 -82.5l-98 -595q-17 -84 -94 -84q-40 0 -58 24z" />
<glyph unicode="Z" horiz-adv-x="1405" d="M1047 40q-107 8 -208.5 14t-220.5 6q-140 0 -369 -8l-141 -4q-52 0 -71 15t-19 39q0 50 90.5 141.5t328.5 295.5q137 119 309 272q284 253 373 334t159 157q-241 -24 -393 -24q-123 0 -274 12t-220 28q-68 16 -68 61q0 38 24.5 62t66.5 24l44 -6q255 -34 439 -34 q87 0 178 6t218 16l77 7q23 2 50 -5.5t45 -21.5q27 -20 26 -52q0 -62 -118.5 -180.5t-403.5 -369.5q-4 -4 -92 -79l-277 -242q-146 -124 -220.5 -190.5t-126.5 -123.5q281 14 459 15q123 0 216 -6.5t216 -21.5q28 -4 44 -18.5t16 -37.5q0 -37 -31 -64t-68 -21q-42 4 -58 4z " />
<glyph unicode="[" horiz-adv-x="701" d="M-23 -321q97 426 182 939q44 255 73 461t61 471q135 9 415 9q56 0 57 -66q0 -33 -23 -50.5t-61 -17.5h-125q-121 0 -138 -2l-15 -94q-62 -441 -108 -705q-100 -562 -157 -829l129 -4q46 0 72 2l79 2q46 0 46 -44q0 -40 -22 -60.5t-60 -25.5q-73 -6 -215 -6q-79 1 -190 20 z" />
<glyph unicode="\" horiz-adv-x="1010" d="M665.5 13q-15.5 13 -19.5 37l-274 1746q-2 6 -3 22q0 31 30.5 60t68.5 29q54 0 62 -52l272 -1742v-23q0 -40 -29 -65t-73 -25q-19 0 -34.5 13z" />
<glyph unicode="]" horiz-adv-x="701" d="M20 -335q-54 5 -54 50q0 34 19 57t53 23l167 -2q75 0 112 2q42 295 136 829q50 291 133 684l26 123q-48 2 -84.5 1t-61.5 -1q-36 -2 -107 -2q-34 0 -53 13.5t-19 38.5q0 30 17 53t53 23q351 0 424 -7q-60 -251 -98.5 -446t-90.5 -486q-126 -723 -155 -939 q-90 -17 -199 -18q-92 0 -218 4z" />
<glyph unicode="^" horiz-adv-x="1273" d="M185 460.5q-20 13.5 -20 32.5q0 10 2 17q188 435 356.5 695t265.5 260q107 0 191.5 -251t133.5 -680q4 -39 -18 -64t-60 -25q-20 0 -37 11.5t-19 32.5q-14 179 -45.5 375.5t-71.5 327t-74 130.5q-35 0 -124 -131.5t-192.5 -329t-179.5 -374.5q-10 -24 -23 -32t-40 -8 q-25 0 -45 13.5z" />
<glyph unicode="_" horiz-adv-x="1156" d="M-126.5 -241q-15.5 16 -15.5 42q0 36 25 59t61 23l421 -2q405 -4 638 -4q27 0 41.5 -15t14.5 -42q0 -37 -22 -62t-60 -25q-295 0 -590 6q-351 4 -469 4q-29 0 -44.5 16z" />
<glyph unicode="`" horiz-adv-x="655" d="M562 1044l-301 362q-20 20 -20 39q0 26 27 53t53 27t48 -30q192 -231 306 -363q12 -12 12 -38q0 -27 -24.5 -48.5t-54.5 -21.5q-28 0 -46 20z" />
<glyph unicode="a" horiz-adv-x="1300" d="M1150 931q-8 -26 -12 -36q-12 -30 -33 -108q-36 -131 -72 -320.5t-36 -257.5q0 -36 12 -53.5t46 -19.5q25 -4 37.5 -13.5t12.5 -30.5q0 -38 -20 -63t-53 -25q-83 0 -119 26t-52 98q-115 -146 -341 -146q-140 0 -233 59t-136 154.5t-43 199.5q0 173 72.5 318.5t203 231 t297.5 85.5q104 0 182.5 -44t109.5 -115l21 69q11 36 29.5 56.5t56.5 20.5q36 0 57 -13.5t21 -34.5q0 -12 -8 -38zM907 679q0 116 -71 168t-155 52q-115 0 -208 -73.5t-146.5 -190.5t-53.5 -240q0 -120 58 -200t193 -80q124 0 215.5 64t115.5 182q52 266 52 318z" />
<glyph unicode="b" horiz-adv-x="1330" d="M983.5 1004q108.5 -53 170.5 -151.5t62 -228.5q0 -183 -77.5 -326t-215.5 -223.5t-313 -80.5q-92 0 -173.5 28t-137.5 69t-72 78q-18 -46 -60 -85.5t-77 -53.5q-17 -9 -36 -10q-30 0 -45 22t-15 50q0 20 26 38q56 33 80 81q16 36 27 85t32 186q8 50 19.5 129t30.5 193 l38 232q90 575 108 716q2 32 29 50t63 18q33 0 52 -17t15 -47q-23 -177 -77 -518l-50 -323q137 142 355 142q133 0 241.5 -53zM841 192q101 67 156.5 181t55.5 247q0 146 -85 225.5t-226 79.5q-116 0 -217 -62.5t-162 -139.5l-33 -189q-8 -50 -16.5 -109.5t-8.5 -77.5 q0 -60 42 -110.5t111.5 -81t151.5 -30.5q130 0 231 67z" />
<glyph unicode="c" horiz-adv-x="1228" d="M323.5 60.5q-106.5 58.5 -162 155.5t-55.5 212q0 174 82.5 322.5t226 235t316.5 86.5q104 0 203.5 -44t160.5 -117.5t61 -154.5q0 -70 -82 -69q-32 0 -50.5 14.5t-18.5 42.5q0 45 -34.5 91t-97 75.5t-142.5 29.5q-125 0 -232.5 -74t-170.5 -193t-63 -245 q0 -129 81.5 -211.5t227.5 -82.5q108 0 202.5 43.5t149 110.5t54.5 132q0 21 20.5 35.5t52.5 14.5q33 0 51 -11.5t18 -40.5q0 -117 -80.5 -212t-207 -149.5t-260.5 -54.5q-144 0 -250.5 58.5z" />
<glyph unicode="d" horiz-adv-x="1323" d="M233.5 97.5q-125.5 105.5 -125.5 307.5q0 177 83.5 327.5t228 238.5t315.5 88q128 0 218.5 -44t134.5 -120l172 863q6 30 31 49t58 19q36 0 56 -20t14 -52l-277 -1437q-6 -35 -9 -75.5t-1 -57.5q2 -36 23 -62t21 -28q0 -6 -18 -30t-42 -45t-44 -21q-46 0 -78.5 51 t-30.5 122q-142 -179 -401 -179q-203 0 -328.5 105.5zM768 173.5q87 39.5 144 105.5t72 141l60 320q-27 77 -114.5 128t-198.5 51q-125 0 -230.5 -68t-167.5 -179.5t-62 -236.5q0 -146 88 -223.5t223 -77.5q99 0 186 39.5z" />
<glyph unicode="e" horiz-adv-x="1292" d="M338.5 53.5q-108.5 61.5 -165 164.5t-56.5 225q0 167 82.5 312.5t226.5 231t320 85.5q127 0 227.5 -46t155.5 -128.5t55 -191.5q0 -104 -30 -153t-101 -49l-784 -17q-4 -38 -4 -52q0 -134 93 -220.5t240 -86.5q87 0 154 26t108 59.5t103 93.5q18 18 42 18q25 0 48 -17 t23 -41q0 -27 -25 -54q-57 -64 -104.5 -106.5t-136.5 -78.5t-212 -36q-151 0 -259.5 61.5zM1015 630q25 0 31.5 16t6.5 58q0 106 -85 172t-222 66q-116 0 -216 -58.5t-164.5 -138t-72.5 -133.5z" />
<glyph unicode="f" horiz-adv-x="811" d="M905 1480q72 -66 72 -176q0 -30 -6 -61q-8 -56 -31 -79.5t-67 -23.5q-40 0 -56.5 21t-9.5 51q10 62 10 98q0 52 -23 76t-82 24q-92 0 -140 -75t-73 -228l-21 -132q-8 -38 -13 -70t-10 -59h165q28 0 41.5 -14.5t13.5 -37.5q0 -74 -75 -75q-50 -2 -165 -3l-110 -645 q-6 -37 -30 -54t-59 -17q-74 0 -63 69q24 134 70 435l32 210l-125 -6q-62 0 -62 48q0 36 17.5 58.5t65.5 24.5q63 5 126 5q33 219 44 282q67 420 371 420q121 0 193 -66z" />
<glyph unicode="g" horiz-adv-x="1210" d="M1120 1092.5q26 -14.5 26 -37.5q0 -13 -6 -25q-16 -33 -70 -157l-9 -259q-8 -184 -8 -257q0 -194 -27 -403q-32 -236 -186.5 -356t-390.5 -120q-108 0 -196 40.5t-138.5 111.5t-50.5 159q0 48 22 71t71 23q50 0 50 -50q0 -98 67 -159t175 -61q175 0 280.5 78.5 t137.5 256.5q12 75 20 215q-62 -71 -154.5 -113t-210.5 -42q-133 0 -230.5 61t-147.5 161t-50 215q0 165 77.5 304.5t210 223.5t293.5 84q96 0 166 -28t106 -68q47 94 58 115q16 32 63 31q26 0 52 -14.5zM686 187q74 30 131.5 76t77.5 90l6 209q4 146 8 221q-6 28 -40 58 t-88 51t-117 21q-113 0 -207 -66t-149 -174.5t-55 -227.5q0 -126 73 -207t220 -81q66 0 140 30z" />
<glyph unicode="h" horiz-adv-x="1178" d="M1017.5 979.5q81.5 -96.5 81.5 -285.5q0 -168 -82 -632q-4 -27 -29 -44.5t-61 -17.5t-54 18t-12 53q42 249 61.5 390t19.5 233q0 119 -37.5 178t-127.5 59q-83 0 -160.5 -48t-134 -116.5t-83.5 -131.5q-26 -58 -44 -150t-44 -255q-8 -48 -15 -91t-14 -79 q-5 -25 -32 -41.5t-60 -16.5q-36 0 -54.5 17t-14.5 43q82 458 154 815q54 263 155 690q19 73 92 73q68 0 68 -46q0 -12 -4 -21q-16 -58 -156 -678q146 181 357 181q149 0 230.5 -96.5z" />
<glyph unicode="i" horiz-adv-x="638" d="M393.5 1210q-30.5 28 -30.5 77q0 62 47.5 108t111.5 46q50 0 79 -28t29 -76q0 -62 -48 -108.5t-110 -46.5q-48 0 -78.5 28zM178 31q-19 19 -13 51l178 887q6 36 31 54.5t63 18.5q37 0 56 -18.5t13 -56.5l-178 -885q-8 -34 -33.5 -52t-60.5 -18q-37 0 -56 19z" />
<glyph unicode="j" horiz-adv-x="701" d="M463.5 1214.5q-31.5 30.5 -31.5 78.5q0 59 46 102.5t112 43.5q52 0 82 -29t30 -77q0 -62 -49 -105.5t-107 -43.5q-51 0 -82.5 30.5zM-221.5 -426q-73.5 67 -73.5 190q0 63 23 92t78 29q38 0 47 -19t9 -81q0 -74 18 -110t84 -36q114 0 176.5 107.5t104.5 303.5 q38 173 86.5 438.5t63.5 340.5l27 148q4 28 27 45.5t63 17.5t56 -18.5t12 -48.5q-125 -662 -181 -923q-60 -282 -170 -412.5t-265 -130.5q-112 0 -185.5 67z" />
<glyph unicode="k" horiz-adv-x="1108" d="M133 6.5q-20 16.5 -16 41.5l261 1477q7 34 30.5 52.5t61.5 18.5t57 -17.5t12 -53.5l-136 -740l189 96q305 155 440 231q36 18 50 18q28 0 43 -24t15 -53q0 -13 -2 -19q-4 -23 -54 -50l-710 -382l571 -464q14 -15 14 -34q0 -34 -32 -65t-64 -31t-59 24q-50 37 -208 167 q-192 157 -257 206l-66 -355q-4 -28 -29 -44t-58 -16t-53 16.5z" />
<glyph unicode="l" horiz-adv-x="524" d="M113 37q-19 19 -13 55l249 1487q6 36 33 55.5t65 19.5q31 0 50 -15.5t15 -40.5l-253 -1506q-6 -36 -31 -55t-61 -19q-35 0 -54 19z" />
<glyph unicode="m" horiz-adv-x="1664" d="M1468 986.5q73 -81.5 73 -217.5q0 -121 -112 -702q-4 -27 -27 -47t-61 -20q-37 0 -54 22t-11 49l11 52q56 309 78 441t22 205q0 173 -135 173q-118 0 -189 -114t-102 -278q-50 -259 -84 -479q-8 -67 -88 -67q-43 0 -60 21t-10 50l56 310l27 154q12 73 13 138 q0 116 -40 186t-119 70q-74 0 -143.5 -78t-125.5 -241q-30 -82 -44.5 -143.5t-27.5 -135.5q-2 -15 -10 -60q-20 -108 -36 -211q-4 -27 -28 -43.5t-59 -16.5q-36 0 -51.5 18t-11.5 45l58 340q74 430 74 460q0 42 -26 71q-2 4 -9 11.5t-7 17.5q0 30 26 52.5t52 22.5 q31 0 53.5 -29t33.5 -62q8 -30 8 -64q0 -18 -2 -28l-2 -15q104 217 294 217q106 0 169.5 -67t81.5 -175q98 249 333 249q139 0 212 -81.5z" />
<glyph unicode="n" horiz-adv-x="1156" d="M966 981q81 -82 81 -239q0 -72 -21 -201.5t-67 -379.5l-17 -94q-4 -29 -28.5 -47t-60.5 -18q-38 0 -57 18t-15 47l17 94q37 213 63 371t26 208q0 91 -33 137t-110 46q-120 0 -210.5 -89.5t-140.5 -227.5q-40 -108 -60 -243l-54 -303q-4 -29 -26.5 -44.5t-60.5 -15.5 q-40 0 -57.5 17t-13.5 43q4 34 9 46q73 447 108 705q2 12 3 33q0 25 -9 51t-23 60q-4 12 -4 20q0 28 31 51t61 23q27 0 50 -40q14 -24 29 -72t11 -70l-9 -38q52 102 142 168t224 66q141 0 222 -82z" />
<glyph unicode="o" horiz-adv-x="1238" d="M208 107.5q-141 107.5 -141 339.5q0 169 78 314.5t220.5 232t321.5 86.5q142 0 254 -56.5t175.5 -166t63.5 -265.5q0 -172 -76 -305.5t-216 -210t-324 -76.5q-215 0 -356 107.5zM806.5 189.5q102.5 59.5 156.5 165t54 237.5q0 165 -91 260t-239 95q-133 0 -236.5 -68 t-161 -183.5t-57.5 -248.5q0 -170 96 -243.5t236 -73.5t242.5 59.5z" />
<glyph unicode="p" horiz-adv-x="1288" d="M975.5 1016.5q104.5 -55.5 168.5 -157t64 -235.5q0 -183 -73.5 -325t-208 -221.5t-314.5 -79.5q-130 0 -236.5 36.5t-143.5 69.5l-46 -221l-58 -284q-7 -31 -32 -49t-60 -18q-40 0 -56 23t-10 50l32 144q60 259 106 498q48 249 68.5 374t20.5 181q0 64 -34 119 q0 2 -7.5 9.5t-7.5 22.5q0 29 35.5 56t65.5 27q20 0 38 -17q41 -48 56 -134q56 74 159.5 130.5t247.5 56.5q121 0 225.5 -55.5zM839 198.5q99 66.5 152 178.5t53 247q0 148 -84.5 228.5t-209.5 80.5q-104 0 -195 -47t-149.5 -109.5t-64.5 -99.5l-8 -49q-53 -290 -64 -346 q4 -28 54.5 -64t126.5 -61t156 -25q134 0 233 66.5z" />
<glyph unicode="q" horiz-adv-x="1338" d="M1290 994q18 -19 18 -39q0 -19 -26 -50l-112 -153q-84 -411 -142 -722q-10 -61 -19.5 -107t-16.5 -84q-33 -159 -52 -271q-4 -28 -30.5 -45.5t-63.5 -17.5q-36 0 -54.5 16.5t-14.5 41.5l110 560q-135 -127 -346 -127q-130 0 -234 53t-165.5 154.5t-61.5 241.5 q0 171 80.5 314.5t219 227t307.5 83.5q142 0 249.5 -61.5t147.5 -153.5q40 58 88 116q23 28 35.5 35t26.5 7q38 0 56 -19zM984 600q6 27 15 77q-2 50 -39 110.5t-108 104.5t-171 44q-123 0 -223.5 -69t-157.5 -183t-57 -239q0 -155 83 -233t215 -78q79 0 160.5 27 t142.5 67.5t81 78.5q34 140 59 293z" />
<glyph unicode="r" horiz-adv-x="1048" d="M908.5 1003.5q71.5 -70.5 71.5 -180.5q0 -138 -84.5 -212t-212.5 -74q-37 0 -53 9.5t-16 31.5q0 70 65 74q82 8 122.5 52t40.5 119q0 52 -29.5 85.5t-96.5 33.5q-84 0 -159 -71t-128 -176t-78 -208q-32 -136 -78 -364q-14 -85 -34 -112t-66 -27q-39 0 -54 14t-15 44 q0 8 4 38l69 400q26 140 38 262.5t23 289.5q2 32 27.5 50.5t62.5 18.5q63 0 59 -63q-11 -113 -30 -244q56 133 148.5 206.5t210.5 73.5q121 0 192.5 -70.5z" />
<glyph unicode="s" horiz-adv-x="1014" d="M202.5 62q-100.5 72 -135.5 176q-8 25 -9 39q6 30 36.5 52t62.5 22q18 0 29 -11.5t25 -40.5q36 -72 95 -123t147 -51q98 0 165 51t67 125q0 58 -50.5 91.5t-156.5 73.5q-96 38 -155.5 70t-102.5 88.5t-43 140.5q0 92 48 165t139 115.5t212 42.5q148 0 243.5 -77.5 t95.5 -206.5q0 -58 -17 -79t-65 -21q-33 0 -49.5 16.5t-14.5 42.5q6 98 -45.5 144t-147.5 46q-127 0 -182 -54.5t-55 -133.5q0 -58 53 -95t160 -78q94 -38 153.5 -71.5t101 -87t41.5 -132.5q0 -150 -114 -230.5t-287 -80.5q-144 0 -244.5 72z" />
<glyph unicode="t" horiz-adv-x="919" d="M775 287q0 -74 -35.5 -140.5t-97.5 -106.5t-134 -40q-121 0 -188 82.5t-67 232.5q0 155 84 500q-48 2 -134 10q-60 4 -53 70q8 33 27.5 47.5t49.5 14.5q24 0 145 -8q21 81 40.5 147t34.5 120l35 121q19 62 90 62q34 0 54 -15.5t20 -38.5q0 -6 -4 -19q-76 -230 -118 -386 q96 -4 148 -4q38 0 55 -8.5t17 -28.5q0 -50 -23 -69t-67 -19h-165q-82 -311 -82 -498q0 -86 23 -132.5t78 -46.5q50 0 90 34.5t40 100.5q0 30 20.5 51t60.5 21q56 0 56 -54z" />
<glyph unicode="u" horiz-adv-x="1142" d="M911 230q-4 -30 -4 -40q0 -38 12 -68t12 -38q0 -24 -28 -47t-50 -23q-44 0 -73.5 41t-29.5 87v17q-60 -77 -152 -118t-197 -41q-287 0 -286 313q0 58 22 190t47 270q33 174 39 217q4 28 29 44.5t59 16.5q36 0 56 -17t15 -44q-12 -73 -23.5 -134.5t-19.5 -111.5 q-24 -128 -44 -248t-20 -171q0 -98 41 -145.5t125 -47.5q279 0 372 512l62 348q6 34 30 52.5t60 18.5q38 0 56.5 -18.5t14.5 -52.5z" />
<glyph unicode="v" horiz-adv-x="1104" d="M327 138.5q-66 126.5 -104 329.5q-18 106 -29.5 222.5t-11.5 200.5q0 80 19.5 119t83.5 39q39 0 51.5 -19t12.5 -63l-2 -76q0 -157 27 -352q24 -138 58 -241.5t55 -103.5q25 0 95 99.5t149 245.5q146 265 198 451q8 32 32.5 50.5t57.5 18.5q32 0 49.5 -16.5t17.5 -45.5 q0 -50 -65.5 -209.5t-155.5 -323.5q-121 -217 -217 -334.5t-176 -117.5q-79 0 -145 126.5z" />
<glyph unicode="w" horiz-adv-x="1620" d="M321.5 112.5q-52.5 108.5 -76.5 269.5t-24 316q0 179 20 288q10 48 28 71t68 23q71 0 66 -65q-4 -34 -4 -50q-19 -180 -19 -261q0 -178 24 -350t70 -172q26 0 97 149t210 473q19 44 42 64.5t58 20.5q36 0 51 -19t21 -66l27 -208q26 -216 46.5 -311t59.5 -95q30 0 66 71.5 t93 210.5q76 188 104 280t65 257q6 29 25.5 49t64.5 20q68 0 67 -57q0 -77 -71 -294t-136 -360q-163 -363 -288 -363q-64 0 -116.5 88t-82 238t-33.5 332q-94 -293 -196 -475.5t-199 -182.5q-75 0 -127.5 108.5z" />
<glyph unicode="x" horiz-adv-x="1062" d="M975 965l-347 -399l135 -223l140 -235q8 -12 8 -24q0 -34 -30 -59t-64 -25q-32 0 -46 26l-251 417q-50 -58 -313 -359l-54 -61q-25 -27 -61 -27q-32 0 -50.5 19t-18.5 43t13 38l411 468l-102 171l-136 228q-2 4 -3 12.5t1 16.5q2 24 34 47.5t62 23.5q27 0 40 -19 q137 -229 213 -357l156 178l157 177q23 24 44 23q29 0 51 -22t22 -51q-1 -17 -11 -27z" />
<glyph unicode="y" horiz-adv-x="1090" d="M203.5 -519q-17.5 22 -13.5 53q4 18 11 29l58 107q186 340 240 447q-74 54 -150 198.5t-125 323t-49 332.5v28q0 18 23 40t67 22q32 0 41 -13.5t11 -42.5q10 -192 52 -352t96.5 -268t104.5 -151l111 240q166 359 238 539q12 31 29 43t49 12q77 0 79 -63q0 -11 -6 -23 q-117 -277 -194.5 -449t-175.5 -360q-88 -169 -191.5 -358t-165.5 -299q-32 -57 -84 -57q-38 0 -55.5 22z" />
<glyph unicode="z" horiz-adv-x="1160" d="M539 14q-76 0 -290 -10l-132 -4q-54 0 -81.5 13t-27.5 41q0 38 48 82q481 432 882 779q-35 0 -119 -8q-150 -10 -217 -10q-98 0 -185 8t-124 18q-50 14 -50 50q0 32 21 61t57 23q201 -28 356 -27q82 0 242 14q104 9 142 9q64 0 84.5 -11.5t20.5 -38.5q0 -34 -15 -57 t-39 -45q-215 -192 -460 -404q-291 -251 -414 -361l97 4q145 8 247 8q153 0 315 -18q41 -7 41 -50q0 -36 -23.5 -61t-57.5 -23q-171 18 -318 18z" />
<glyph unicode="{" horiz-adv-x="833" d="M254 -284q-79 92 -79 236q0 56 24 182q29 159 28 248q0 114 -47 142q-55 34 -55 82q0 32 23 63t61 43q38 10 79.5 133.5t80.5 356.5q21 117 82 208.5t151 143.5t192 52q60 0 89.5 -10.5t29.5 -45.5q0 -91 -121 -91q-130 0 -195 -75.5t-95 -263.5q-38 -217 -88.5 -338.5 t-126.5 -161.5q43 -42 62.5 -94t19.5 -137q0 -86 -24 -245q-21 -134 -22 -176q0 -199 185 -198q34 0 52 -16.5t18 -44.5q0 -31 -31 -58t-71 -27q-143 0 -222 92z" />
<glyph unicode="|" horiz-adv-x="552" d="M98.5 -178.5q-16.5 13.5 -12.5 36.5q108 541 189 995q84 462 168 967q2 18 24 31t49 13q26 0 43 -12t15 -28q-20 -111 -64 -368q-62 -377 -105 -599q-128 -688 -190 -999q-4 -23 -24 -36.5t-49 -13.5q-27 0 -43.5 13.5z" />
<glyph unicode="}" horiz-adv-x="833" d="M-8 -360.5q-20 15.5 -20 41.5q0 33 28 57t69 24q232 0 292 328q30 167 61 266t71.5 158.5t104.5 105.5q-70 46 -70 199q0 50 9 122t19 139q20 146 20 184q0 108 -46 155.5t-148 47.5q-43 0 -69 11t-26 45q0 56 35 69.5t108 13.5q134 0 211.5 -85.5t77.5 -225.5 q0 -60 -23 -199q-30 -179 -30 -273q0 -100 32 -111q27 -8 41.5 -30t14.5 -47q0 -29 -25 -59t-67 -52q-64 -31 -98 -144t-73 -334q-21 -115 -81.5 -211t-154.5 -153.5t-207 -57.5q-36 0 -56 15.5z" />
<glyph unicode="~" d="M572 608q-10 4 -44.5 17t-67 19t-65.5 6q-56 0 -104 -22q-8 -4 -34.5 -15t-43.5 -11q-16 0 -32 15.5t-16 36.5q0 14 17 40q29 35 103 58t147 23q44 0 87 -12.5t119 -37.5q93 -31 156 -31q37 0 105 29q41 19 56 19q27 0 45.5 -23t12.5 -47q-4 -12 -10 -19t-23 -20 q-42 -29 -96.5 -46t-102.5 -17q-96 0 -209 38z" />
<glyph unicode="&#xa1;" horiz-adv-x="552" d="M255 848q-32 31 -32 75q0 56 48 101.5t105 45.5q44 0 76 -32.5t32 -78.5q0 -52 -48.5 -97t-102.5 -45q-46 0 -78 31zM76 -390.5q-14 18.5 -9 51.5l186 983q6 33 24 50.5t44 17.5q28 0 40.5 -22t7.5 -55l-181 -974q-4 -33 -23 -51.5t-48 -18.5q-27 0 -41 18.5z" />
<glyph unicode="&#xa2;" horiz-adv-x="1228" d="M498.5 866q-107.5 -74 -170.5 -193t-63 -245q0 -129 81.5 -211.5t227.5 -82.5q108 0 202.5 43.5t149 110.5t54.5 132q0 21 20.5 35.5t52.5 14.5q33 0 51 -11.5t18 -40.5q0 -115 -77.5 -209t-200.5 -148.5t-252 -58.5l-30 -150q-2 -23 -18 -34.5t-36 -11.5q-50 0 -44 44 l29 156q-180 26 -283.5 144.5t-103.5 277.5q0 166 75.5 308.5t208 231.5t293.5 102l29 156q2 20 18 31t37 11q50 0 44 -42l-30 -156q96 -10 183 -55.5t139.5 -114.5t52.5 -144q0 -70 -82 -69q-32 0 -50.5 14.5t-18.5 42.5q0 45 -34.5 91t-97 75.5t-142.5 29.5 q-125 0 -232.5 -74z" />
<glyph unicode="&#xa3;" horiz-adv-x="1242" d="M1062.5 1380q97.5 -83 97.5 -224q0 -21 -4 -64q-4 -41 -21 -59t-53 -18q-31 0 -41.5 16t-10.5 49v50q0 111 -61.5 163t-161.5 52q-92 0 -169.5 -43.5t-123.5 -115.5t-46 -152q0 -64 14.5 -123.5t43.5 -141.5l26 -79l277 -5q44 0 63 -11.5t13 -40.5q-4 -29 -26 -39 t-68 -10l-237 2q6 -37 6 -76q0 -169 -104 -305l78 -30q62 -27 115.5 -43.5t107.5 -16.5q65 0 103.5 26t88.5 89q18 20 31 29.5t30 9.5q21 0 39.5 -15.5t18.5 -36.5q0 -14 -12 -33q-56 -86 -137.5 -135t-186.5 -49q-74 0 -128 16t-118 44q-48 24 -81.5 34t-71.5 10 q-56 0 -96 -22t-98 -68q-34 -25 -55 -24q-25 0 -41.5 19t-16.5 39q0 12 5 22t11.5 15t8.5 9q34 42 113 81.5t159 49.5q108 128 108 285q0 42 -6 80l-186 2q-38 0 -56.5 10t-14.5 42q6 29 27 38.5t60 9.5l145 -2q-10 35 -35 102q-32 91 -44.5 139.5t-12.5 102.5 q0 116 67 213.5t177.5 156.5t234.5 59q158 0 255.5 -83z" />
<glyph unicode="&#xa4;" horiz-adv-x="1756" d="M1295 90l-89 107q-92 -56 -182.5 -82.5t-192.5 -26.5t-207.5 32.5t-176.5 90.5l-136 -121q-44 -36 -64 -36q-30 0 -53 22t-23 54q0 10 9.5 21.5t11.5 13.5q6 8 157 144q-50 67 -76 156t-26 177q0 141 64.5 274t179.5 242l-92 108q-17 20 -17 42q0 31 30.5 60t67.5 29 q21 0 33.5 -8t29.5 -29l79 -94q92 58 185.5 85.5t205.5 27.5q108 0 214 -33.5t172 -89.5l116 104q44 39 77 39q26 0 48.5 -19.5t22.5 -44.5q0 -38 -38 -69l-128 -113q44 -63 68.5 -145.5t24.5 -170.5q0 -150 -65.5 -284.5t-187.5 -243.5l104 -142q10 -12 10 -29 q0 -32 -33 -58t-64 -26q-27 0 -59 36zM1123 309q137 86 219.5 228t82.5 300q0 122 -54.5 214.5t-148.5 144t-209 51.5q-155 0 -294 -83.5t-222 -222.5t-83 -293q0 -120 54 -216.5t149 -152.5t214 -56q155 0 292 86z" />
<glyph unicode="&#xa5;" horiz-adv-x="1367" d="M842 706l238 4q40 0 40 -40q0 -25 -16 -43.5t-43 -18.5l-278 -4l-18 -107l275 5q21 0 32.5 -11t11.5 -27q0 -29 -16.5 -47t-43.5 -18l-276 -4l-50 -305q-17 -84 -94 -84q-40 0 -58 24t-12 56l52 307l-281 -4q-42 0 -42 43q0 24 16 41.5t42 17.5l283 4l16 107l-279 -4 q-19 0 -30.5 11t-11.5 29q0 27 17 44.5t43 17.5l243 4q-82 58 -172 255q-48 102 -71.5 184.5t-55.5 224.5q-2 6 -2 21q0 36 29 55t69 19q56 0 73 -74q34 -135 54 -203t50 -150q32 -83 76 -152t81 -69q36 0 100 60.5t144 164.5q64 84 116.5 163t124.5 194q23 38 35.5 50 t35.5 12q36 0 63 -18t27 -46q0 -20 -13 -39q-140 -247 -261 -401q-144 -178 -263 -249z" />
<glyph unicode="&#xa6;" horiz-adv-x="566" d="M311 939q-14 14 -10 41l138 827q4 26 26 40.5t51 14.5q62 0 52 -55l-138 -827q-4 -27 -23.5 -41t-49.5 -14q-32 0 -46 14zM106.5 -177.5q-14.5 14.5 -10.5 41.5l153 830q12 60 74 60q65 0 55 -60l-151 -830q-8 -56 -74 -56q-32 0 -46.5 14.5z" />
<glyph unicode="&#xa7;" horiz-adv-x="1344" d="M1064 1552q89 -35 141.5 -102t52.5 -153q0 -31 -6 -67q-15 -69 -78 -68q-62 0 -52 48q4 20 4 56q0 102 -66 153.5t-187 51.5q-98 0 -179.5 -37t-129.5 -101.5t-48 -148.5q0 -79 66 -139.5t227 -106.5q188 -54 273.5 -144t85.5 -194q0 -100 -66 -185t-169 -136 q76 -83 76 -206q0 -121 -62 -215t-170.5 -146.5t-244.5 -52.5q-123 0 -219 47t-149 130.5t-53 186.5q0 26 8 83q4 28 25 43.5t55 15.5q27 0 41.5 -15.5t10.5 -41.5q-6 -34 -6 -64q0 -117 74 -192t213 -75q96 0 174.5 38.5t123.5 107.5t45 155q0 97 -71 150.5t-230 99.5 q-359 107 -359 338q0 102 61 200.5t156 163.5q-47 72 -47 162q0 106 62.5 197.5t174 144.5t251.5 53q102 0 191 -35zM504 949q-64 -42 -108.5 -121.5t-44.5 -157.5q0 -81 61.5 -134.5t222.5 -96.5q124 -34 196 -78q88 32 146.5 98.5t58.5 140.5q0 77 -74.5 131t-232.5 102 q-141 42 -225 116z" />
<glyph unicode="&#xa8;" horiz-adv-x="785" d="M187 1232q-28 28 -28 70q0 58 42 97.5t98 39.5q46 0 75 -27t29 -69q0 -56 -44 -97.5t-100 -41.5q-44 0 -72 28zM688 1232q-28 28 -28 70q0 58 42 97.5t98 39.5q46 0 74.5 -27t28.5 -69q0 -56 -43 -97.5t-100 -41.5q-44 0 -72 28z" />
<glyph unicode="&#xa9;" horiz-adv-x="1866" d="M1449 1389.5q141 -85.5 213 -225.5t72 -301q0 -232 -111.5 -430.5t-305 -315.5t-426.5 -117q-203 0 -354.5 88.5t-233.5 236t-82 315.5q0 231 119.5 423.5t323 302t448.5 109.5q196 0 337 -85.5zM1256.5 213q164.5 100 259.5 272.5t95 377.5q0 217 -123.5 359t-375.5 142 q-203 0 -380.5 -100t-283 -267.5t-105.5 -356.5q0 -148 66.5 -268.5t192 -189.5t289.5 -69q201 0 365.5 100zM1378.5 1166q14.5 -10 12.5 -28q-18 -108 -37 -155t-57 -50q-35 0 -47 18q-48 69 -85 97t-100 28q-98 0 -184.5 -67t-137.5 -173.5t-51 -217.5q0 -117 67.5 -171 t189.5 -54q119 0 187 60.5t82 144.5q4 20 23 32t46 12q28 0 42 -12t10 -32q-25 -134 -136 -220.5t-280 -86.5q-157 0 -260 82t-103 241q0 140 69 271.5t185.5 213t253.5 81.5q69 0 119.5 -25t92.5 -75l11 54q8 42 48 42q25 0 39.5 -10z" />
<glyph unicode="&#xaa;" horiz-adv-x="741" d="M739.5 1425q-8.5 -24 -14.5 -61q-46 -241 -46 -272q0 -18 6.5 -24.5t26.5 -10.5q14 -4 18.5 -9.5t0.5 -21.5q-6 -20 -15.5 -31t-28.5 -11q-71 0 -87 48l-4 17q-32 -38 -69.5 -55t-89.5 -17q-112 0 -164 59.5t-52 145.5q0 84 38 162.5t105.5 127.5t153.5 49q50 0 88 -18 t56 -44l4 18q4 14 19 26t34 12q18 0 33 -12t8 -26q-12 -28 -20.5 -52zM540.5 1092.5q41.5 29.5 55.5 87.5l24 132q2 8 2 27q0 44 -29 71t-81 27q-67 0 -110 -41.5t-62 -100.5t-19 -111q0 -121 118 -121q60 0 101.5 29.5z" />
<glyph unicode="&#xab;" horiz-adv-x="1186" d="M408.5 466.5q-95.5 57.5 -166.5 138t-71 145.5q0 69 104.5 159t240.5 156.5t207 66.5q52 0 52 -42q0 -31 -21 -50t-62 -33q-82 -19 -175 -72.5t-158.5 -109.5t-65.5 -75q0 -21 46 -66.5t112.5 -89.5t130.5 -62q26 -8 39.5 -24.5t13.5 -37.5q0 -25 -19.5 -43t-47.5 -18 q-64 0 -159.5 57.5zM806.5 455.5q-96.5 58.5 -167.5 140t-71 144.5q0 64 105.5 155t239.5 159t201 68q20 0 34 -14t14 -36q0 -32 -17 -48.5t-51 -26.5q-91 -26 -183 -78t-152.5 -105.5t-60.5 -73.5q0 -21 42.5 -65.5t108.5 -86.5t135 -66q52 -18 52 -56q0 -27 -21 -48 t-50 -21q-62 0 -158.5 58.5z" />
<glyph unicode="&#xac;" horiz-adv-x="1605" d="M1351.5 405.5q-14.5 14.5 -14.5 35.5q0 16 2 25l17 96q43 251 50 295l-519 2l-608 -2q-81 0 -80 50q0 87 98 87l628 3h556q36 0 54.5 -17t16.5 -49l-77 -467q-12 -73 -82 -73q-27 0 -41.5 14.5z" />
<glyph unicode="&#xad;" horiz-adv-x="795" d="M109.5 518q-13.5 16 -13.5 42q0 40 22 64t51 24q150 6 493 6q67 0 67 -56q0 -36 -28.5 -61t-67.5 -25q-153 0 -308 -6q-129 -4 -179 -4q-23 0 -36.5 16z" />
<glyph unicode="&#xae;" horiz-adv-x="1866" d="M1450 1395.5q142 -87.5 213 -232t71 -306.5q0 -234 -111.5 -430.5t-305 -311.5t-428.5 -115q-203 0 -353.5 83.5t-232.5 224.5t-82 308q0 230 120.5 429.5t324 318.5t439.5 119q203 0 345 -87.5zM1255.5 211.5q167.5 103.5 265.5 276t98 369.5q0 140 -55 257.5 t-171.5 189t-287.5 71.5q-201 0 -377 -102.5t-280.5 -272t-104.5 -360.5q0 -146 66.5 -267.5t191 -193t286.5 -71.5q201 0 368.5 103.5zM1278 1102q74 -58 74 -160q0 -147 -116 -223.5t-305 -76.5q-10 0 -44 4l329 -257q12 -9 12 -24q0 -23 -24 -46.5t-46 -23.5 q-19 0 -30 10l-330 285l-44 -245q-4 -24 -21 -40t-48 -16q-52 0 -43 56l14 73q6 28 16 96l40 217l36 244q-19 2 -28.5 20t-5.5 43q2 21 46 40h3l4 34q4 27 24 38.5t46 11.5t38 -11t10 -27q116 36 201 36q118 0 192 -58zM1165.5 788.5q75.5 44.5 75.5 136.5q0 62 -51.5 98 t-138.5 36q-84 0 -184 -40q-30 -171 -38 -252q40 -23 148 -23q113 0 188.5 44.5z" />
<glyph unicode="&#xaf;" horiz-adv-x="799" d="M330 1272q-58 0 -105 17q-37 17 -37 52q0 38 28.5 59t60.5 14q61 -15 143 -15q44 0 144 9q100 8 161 9q26 0 75 -5q33 -4 53 -4q23 -2 37.5 -16.5t14.5 -37.5q0 -34 -26 -55t-56 -17q-62 8 -109 9q-62 0 -154 -9q-88 -8 -138 -8z" />
<glyph unicode="&#xb0;" horiz-adv-x="803" d="M321 1239q-70 65 -70 171q0 102 53 188t140.5 135t185.5 49q124 0 196.5 -71t72.5 -176q0 -94 -55 -177.5t-143.5 -133.5t-184.5 -50q-125 0 -195 65zM707 1349.5q72 67.5 72 165.5q0 64 -41.5 110t-133.5 46q-70 0 -124 -37.5t-83.5 -94t-29.5 -110.5q0 -69 48.5 -108 t118.5 -39q101 0 173 67.5z" />
<glyph unicode="&#xb1;" d="M1059 773q0 -40 -27 -59.5t-75 -19.5q-174 0 -291 2l-42 -238q-4 -32 -26 -49.5t-55 -17.5q-54 0 -54 48q0 12 2 19l41 240l-315 2q-64 0 -64 46q0 39 25 61t71 22l305 -4l42 236q10 62 79 63q26 0 42 -18t12 -38l-15 -91l-27 -154l290 -2q82 0 82 -48zM896 231 q21 -14 21 -39q0 -78 -113 -77l-647 -7q-69 0 -69 45q0 42 23 63.5t79 21.5l645 7q40 0 61 -14z" />
<glyph unicode="&#xb2;" horiz-adv-x="789" d="M767 875.5q17 -15.5 17 -38.5q0 -34 -22 -54.5t-58 -20.5l-81 3q-72 6 -186 6q-52 0 -145 -4l-118 -2q-32 0 -47.5 15t-6.5 41q37 106 137 206.5t272 206.5q213 135 213 290q0 65 -41 102.5t-112 37.5t-127.5 -53t-68.5 -128q-8 -54 -84 -54q-60 0 -61 52q0 77 48.5 148 t126.5 115t166 44q90 0 159 -37t107.5 -96t38.5 -131q0 -89 -43 -161t-106.5 -124.5t-157.5 -112.5q-126 -82 -185 -129t-95 -103q50 2 150 2l157 -2q42 -2 107 -3q29 0 46 -15.5z" />
<glyph unicode="&#xb3;" horiz-adv-x="885" d="M893.5 1196.5q30.5 -50.5 30.5 -112.5q0 -82 -46 -156t-137 -121.5t-222 -47.5q-155 0 -253 67.5t-98 201.5q0 35 6 74q8 42 28 62t57 20q61 0 61 -52q0 -17 -2 -35.5t-2 -42.5q0 -75 44.5 -123t166.5 -48q111 0 182 52.5t71 148.5q0 69 -50.5 96t-131.5 31 q-32 2 -43.5 14.5t-7.5 41.5q6 36 23 51t46 15q107 6 164.5 59t57.5 141q0 60 -40 95.5t-102 35.5q-90 0 -153.5 -60.5t-57.5 -145.5q2 -23 -21 -40t-63 -17q-33 0 -48.5 16t-15.5 51q0 86 50 159t132.5 117t176.5 44q80 0 146.5 -36t105 -94t38.5 -125q0 -86 -47 -155 t-127 -104q51 -27 81.5 -77.5z" />
<glyph unicode="&#xb4;" horiz-adv-x="785" d="M374 1187q-13 13 -15 31q0 34 32 64l221 222q28 28 46.5 38t41.5 10q25 0 40.5 -14.5t15.5 -38.5q0 -23 -13.5 -44.5t-42.5 -48.5l-220 -196q-20 -21 -37 -28.5t-36 -7.5q-20 0 -33 13z" />
<glyph unicode="&#xb6;" horiz-adv-x="1252" d="M556 -26l102 604q-192 4 -316.5 106.5t-124.5 280.5q0 179 98.5 314t266.5 207.5t369 72.5q145 0 181 -5q40 -4 59 -17.5t19 -45.5q0 -16 -2 -24l-257 -1463q-9 -40 -22.5 -53t-47.5 -13q-48 0 -48 34l247 1447q4 23 -9.5 27.5t-55.5 4.5q-56 0 -75 -6t-21 -31 l-249 -1424q-12 -52 -68 -52q-46 -1 -46 36z" />
<glyph unicode="&#xb7;" horiz-adv-x="909" d="M364 600q-39 38 -39 98q0 87 56 142t145 55q63 0 100.5 -38t37.5 -101q0 -88 -54 -141t-142 -53q-65 0 -104 38z" />
<glyph unicode="&#xb8;" horiz-adv-x="785" d="M48 -456.5q-52 9.5 -84 19.5q-33 13 -33 52q0 30 20.5 51t50.5 21q8 -2 56 -15t86 -13q75 0 112 11t37 55q0 31 -24 41.5t-64 17.5t-55 9q-26 2 -40 14.5t-14 31.5q0 12 6 25l157 190q28 36 54 36q30 0 54 -14t24 -34q0 -10 -17 -36l-97 -119q70 -17 111.5 -59.5 t41.5 -112.5q0 -91 -78.5 -136t-211.5 -45q-40 0 -92 9.5z" />
<glyph unicode="&#xb9;" horiz-adv-x="594" d="M618.5 1754.5q20.5 -20.5 14.5 -58.5l-150 -867q-4 -30 -27 -46t-61 -16q-29 0 -45 12t-16 31q0 7 5 19l134 769q-32 -38 -67.5 -76.5t-81.5 -80.5q-24 -21 -52 -21q-21 0 -36.5 14.5t-15.5 35.5q0 13 13 31.5t31 35.5l70 75q50 50 129 136q30 27 95 27q40 0 60.5 -20.5z " />
<glyph unicode="&#xba;" horiz-adv-x="736" d="M296 1031.5q-71 56.5 -71 174.5q0 81 38 150t107 110t162 41q100 0 171.5 -67t71.5 -170q0 -140 -80.5 -217.5t-228.5 -77.5q-99 0 -170 56.5zM616.5 1111.5q58.5 54.5 58.5 158.5q0 71 -39.5 113t-103.5 42q-95 0 -154 -64t-59 -155q0 -68 44 -108.5t103 -40.5 q92 0 150.5 54.5z" />
<glyph unicode="&#xbb;" horiz-adv-x="1188" d="M130.5 419.5q-11.5 12.5 -11.5 33.5q0 34 15.5 51.5t51.5 27.5q91 26 183.5 78t152.5 104.5t60 74.5q0 21 -41.5 65.5t-107.5 88t-136 66.5q-26 6 -39 20.5t-13 33.5q0 27 21 49t47 22q60 0 157.5 -59.5t169.5 -141.5t72 -144t-105 -152.5t-240 -160t-204 -69.5 q-21 0 -32.5 12.5zM522.5 409.5q-14.5 12.5 -14.5 35.5q0 29 22 50t60 27q81 15 173 68.5t158.5 111.5t66.5 77t-44.5 64.5t-111.5 89.5t-132 64q-28 8 -41 24.5t-13 37.5q0 25 19.5 43t44.5 18q64 0 161.5 -57.5t169 -138t71.5 -145.5q0 -67 -103.5 -158t-238.5 -157.5 t-208 -66.5q-25 0 -39.5 12.5z" />
<glyph unicode="&#xbc;" horiz-adv-x="1778" d="M205.5 1261.5q-15.5 14.5 -15.5 35.5q0 13 13.5 31.5t30.5 35.5l71 75q50 50 130 136q29 27 93 27q40 0 61 -20.5t15 -58.5l-151 -867q-4 -30 -27 -46t-61 -16q-29 0 -44.5 12t-15.5 32q0 6 4 18l134 769q-32 -38 -67 -76.5t-81 -80.5q-24 -21 -52 -21q-22 0 -37.5 14.5z M1456 1485l-1111 -1443q-34 -42 -80 -42q-27 0 -43.5 13t-16.5 35q0 30 27 63l1105 1439q36 48 86 48q27 0 43.5 -16.5t12.5 -46.5q-9 -34 -23 -50zM1652 416q19 0 29.5 -11.5t10.5 -32.5q0 -35 -13.5 -55t-53.5 -26q-14 -2 -114 -14l-48 -223q-4 -25 -28.5 -42.5 t-57.5 -17.5q-36 0 -49.5 19t-9.5 49l46 211q-70 -2 -215 -2q-130 0 -238 28q-48 12 -48 46q0 23 22 56q140 205 257.5 355.5t238.5 258.5q20 16 50 17q20 0 37 -16.5t17 -40.5q0 -14 -9 -29t-35 -39q-106 -100 -212.5 -235t-175.5 -246q-4 -8 -4 -12q0 -10 21 -13 q48 -10 188 -10q46 0 133 4l68 305q16 62 80 63q38 0 54 -19t9 -46l-65 -293q36 2 107 11h8z" />
<glyph unicode="&#xbd;" horiz-adv-x="1804" d="M203.5 1259.5q-15.5 14.5 -15.5 35.5q0 13 13.5 31.5t30.5 35.5l71 75q50 50 129 136q30 27 94 27q40 0 61 -20.5t15 -58.5l-151 -867q-4 -30 -27 -46t-61 -16q-29 0 -44.5 12t-15.5 31q0 7 4 19l134 769q-32 -38 -67 -76.5t-81 -80.5q-24 -21 -52 -21q-22 0 -37.5 14.5z M1454 1485l-1111 -1443q-34 -42 -80 -42q-27 0 -43.5 13t-16.5 35q0 30 27 63l1105 1439q36 48 86 48q27 0 45.5 -17.5t10.5 -45.5q-9 -34 -23 -50zM1646 109.5q17 -15.5 17 -38.5q0 -33 -22 -54t-58 -21l-81 2q-71 6 -186 6q-52 0 -144 -4l-119 -2q-32 0 -47.5 16t-6.5 40 q37 106 137 206.5t272 207.5q213 136 213 290q0 64 -41 102.5t-111 38.5q-72 0 -128 -53.5t-69 -129.5q-8 -54 -84 -54q-60 0 -60 52q0 78 48 148.5t126.5 114.5t166.5 44q90 0 158.5 -36t107.5 -96t39 -131q0 -90 -43 -162t-106.5 -124t-157.5 -113q-126 -82 -185.5 -128.5 t-95.5 -102.5q50 2 151 2l156 -2q42 -3 107 -3q29 0 46 -15.5z" />
<glyph unicode="&#xbe;" horiz-adv-x="2033" d="M843.5 740.5q-45.5 -74.5 -136.5 -121.5t-223 -47q-155 0 -252.5 67t-97.5 200q0 36 6 76q8 42 28 62t57 20q61 0 62 -52q0 -17 -2.5 -36.5t-2.5 -41.5q0 -75 45 -123t166 -48q111 0 182 52t71 149q0 69 -50 95.5t-132 31.5q-32 2 -43 14.5t-7 41.5q6 36 23 50t45 14 q106 7 164 60.5t58 140.5q0 61 -39.5 96.5t-102.5 35.5q-90 0 -153.5 -60.5t-57.5 -146.5q2 -24 -21 -40t-63 -16q-33 0 -48.5 15.5t-15.5 50.5q0 86 50 159.5t132.5 117t176.5 43.5q80 0 146.5 -35.5t105.5 -94t39 -125.5q0 -85 -47 -154t-127 -105q50 -27 80 -77t30 -112 q0 -82 -45.5 -156.5zM1748 1485l-1108 -1443q-34 -42 -80 -42q-28 0 -44.5 13t-16.5 35q0 30 27 63l1105 1439q36 48 84 48q29 0 46 -16.5t13 -46.5q-9 -32 -26 -50zM1905 401q19 0 29.5 -11.5t10.5 -32.5q0 -36 -13.5 -55.5t-53.5 -26.5q-14 -2 -114 -12l-49 -223 q-4 -26 -28 -43t-58 -17q-36 0 -49 18t-9 50l46 211q-70 -2 -216 -2q-129 0 -237 28q-48 12 -48 45q0 24 22 57q140 205 257.5 354.5t238.5 259.5q20 16 50 16q20 0 37 -16.5t17 -39.5q0 -14 -9 -29t-35 -41q-106 -99 -212.5 -234t-175.5 -246q-4 -8 -4 -12q0 -10 20 -12 q46 -11 189 -11q46 0 133 4l67 305q16 63 81 63q38 0 54 -19t9 -46l-65 -292q36 2 107 10h8z" />
<glyph unicode="&#xbf;" horiz-adv-x="1100" d="M564.5 1017q-27.5 27 -27.5 67q0 50 40.5 90t90.5 40q44 0 71.5 -26t27.5 -68q0 -48 -42 -89t-95 -41q-38 0 -65.5 27zM231.5 -215q-83.5 46 -128.5 124.5t-45 172.5q0 98 39 176.5t93.5 134.5t144.5 133q104 88 153 147.5t49 135.5q0 34 22.5 53t54.5 19q24 0 36 -14 t12 -38q0 -102 -62.5 -186.5t-185.5 -197.5q-117 -111 -173.5 -185t-56.5 -164q0 -106 65.5 -170t180.5 -64q166 0 261.5 78t95.5 217q0 54 -29 89.5t-83 35.5q-60 0 -61 51q0 33 24 52.5t60 19.5q94 0 154.5 -74t60.5 -174q0 -125 -63 -220.5t-172.5 -146.5t-247.5 -51 q-115 0 -198.5 46z" />
<glyph unicode="&#xc0;" horiz-adv-x="1445" d="M1239 378q-21 -29 -61 -29h-14l33 -278l3 -19q0 -34 -32 -53t-69 -19q-28 0 -47.5 12t-21.5 34l-38 323l-591 4q-100 -201 -163 -319q-26 -52 -88 -52q-40 0 -60.5 22t-14.5 44q0 8 9 25l353 698q106 205 244 479q70 133 110 184t104 51q58 0 94.5 -50t52.5 -165 q52 -357 100 -758h52q32 0 49 -18t17 -47q0 -40 -21 -69zM975 514l-70 602q-10 84 -19 121t-19 37t-30 -33t-64 -123l-101 -207q-94 -199 -190 -391zM996.5 1589q-12.5 7 -27.5 26l-133 180q-24 36 -24 56q0 32 22 54t50 22q35 0 68 -50l121 -179q21 -27 22 -50 q0 -27 -21 -46.5t-49 -19.5q-16 0 -28.5 7z" />
<glyph unicode="&#xc1;" horiz-adv-x="1445" d="M1239 378q-21 -29 -61 -29h-14l33 -278l3 -19q0 -34 -32 -53t-69 -19q-28 0 -47.5 12t-21.5 34l-38 323l-591 4q-100 -201 -163 -319q-26 -52 -88 -52q-40 0 -60.5 22t-14.5 44q0 8 9 25l353 698q106 205 244 479q70 133 110 184t104 51q58 0 94.5 -50t52.5 -165 q52 -357 100 -758h52q32 0 49 -18t17 -47q0 -40 -21 -69zM975 514l-70 602q-10 84 -19 121t-19 37t-30 -33t-64 -123l-101 -207q-94 -199 -190 -391zM798 1584.5q-14 13.5 -14 35.5q0 16 12 36t34 38l191 169q32 30 52 41t38 11q24 0 39 -15t15 -39q0 -44 -52 -85l-207 -170 q-42 -35 -72 -35q-22 0 -36 13.5z" />
<glyph unicode="&#xc2;" horiz-adv-x="1445" d="M1239 378q-21 -29 -61 -29h-14l33 -278l3 -19q0 -34 -32 -53t-69 -19q-28 0 -47.5 12t-21.5 34l-38 323l-591 4q-100 -201 -163 -319q-26 -52 -88 -52q-40 0 -60.5 22t-14.5 44q0 8 9 25l353 698q106 205 244 479q70 133 110 184t104 51q58 0 94.5 -50t52.5 -165 q52 -357 100 -758h52q32 0 49 -18t17 -47q0 -40 -21 -69zM975 514l-70 602q-10 84 -19 121t-19 37t-30 -33t-64 -123l-101 -207q-94 -199 -190 -391zM1121 1622q-119 213 -154 213q-16 0 -69.5 -45.5t-155.5 -143.5q-42 -42 -74 -42q-20 0 -36 16t-16 39q0 28 29 54 q29 21 67 61q100 91 164 140.5t106 49.5q54 0 95.5 -48.5t106.5 -150.5l44 -71q13 -16 13 -31q0 -27 -22 -48t-50 -21q-33 0 -48 28z" />
<glyph unicode="&#xc3;" horiz-adv-x="1445" d="M1239 378q-21 -29 -61 -29h-14l33 -278l3 -19q0 -34 -32 -53t-69 -19q-28 0 -47.5 12t-21.5 34l-38 323l-591 4q-100 -201 -163 -319q-26 -52 -88 -52q-40 0 -60.5 22t-14.5 44q0 8 9 25l353 698q106 205 244 479q70 133 110 184t104 51q58 0 94.5 -50t52.5 -165 q52 -357 100 -758h52q32 0 49 -18t17 -47q0 -40 -21 -69zM975 514l-70 602q-10 84 -19 121t-19 37t-30 -33t-64 -123l-101 -207q-94 -199 -190 -391zM607.5 1614q-12.5 14 -12.5 38q0 28 25 53q61 60 104.5 85t97.5 25q96 0 177 -45q12 -7 36 -20.5t40 -19.5t30 -6 q27 0 66 35q34 32 59 32q21 0 35.5 -17t14.5 -40q0 -30 -23 -52q-52 -42 -94 -62t-84 -20q-47 0 -114 38l-42 21q-10 4 -47.5 21.5t-65.5 17.5q-20 0 -40 -14t-58 -50q-40 -34 -69 -34q-23 0 -35.5 14z" />
<glyph unicode="&#xc4;" horiz-adv-x="1445" d="M1239 378q-21 -29 -61 -29h-14l33 -278l3 -19q0 -34 -32 -53t-69 -19q-28 0 -47.5 12t-21.5 34l-38 323l-591 4q-100 -201 -163 -319q-26 -52 -88 -52q-40 0 -60.5 22t-14.5 44q0 8 9 25l353 698q106 205 244 479q70 133 110 184t104 51q58 0 94.5 -50t52.5 -165 q52 -357 100 -758h52q32 0 49 -18t17 -47q0 -40 -21 -69zM975 514l-70 602q-10 84 -19 121t-19 37t-30 -33t-64 -123l-101 -207q-94 -199 -190 -391zM607 1648q-26 26 -26 67q0 55 39.5 92.5t93.5 37.5q42 0 70 -26t28 -66q0 -52 -41.5 -91.5t-93.5 -39.5q-44 0 -70 26z M1108 1648q-27 26 -27 67q0 55 40 92.5t95 37.5q42 0 69 -25t27 -65q0 -52 -41 -92.5t-93 -40.5q-43 0 -70 26z" />
<glyph unicode="&#xc5;" horiz-adv-x="1445" d="M1239 378q-21 -29 -61 -29h-14l33 -278l3 -19q0 -34 -32 -53t-69 -19q-28 0 -47.5 12t-21.5 34l-38 323l-591 4q-100 -201 -163 -319q-26 -52 -88 -52q-40 0 -60.5 22t-14.5 44q0 8 9 25l353 698q106 205 244 479q70 133 110 184t104 51q58 0 94.5 -50t52.5 -165 q52 -357 100 -758h52q32 0 49 -18t17 -47q0 -40 -21 -69zM975 514l-70 602q-10 84 -19 121t-19 37t-30 -33t-64 -123l-101 -207q-94 -199 -190 -391zM780 1596q-58 56 -58 138q0 69 36 127.5t98.5 93t135.5 34.5q81 0 135.5 -58.5t54.5 -135.5q0 -106 -76.5 -180.5 t-184.5 -74.5q-83 0 -141 56zM1034.5 1687q42.5 41 42.5 99q0 40 -28 69.5t-74 29.5q-58 0 -100.5 -43t-42.5 -98q0 -42 28 -70t74 -28q58 0 100.5 41z" />
<glyph unicode="&#xc6;" horiz-adv-x="1906" d="M1987 1393q0 -12 -2 -18q-8 -44 -29.5 -60t-44.5 -13l-67 2q-142 8 -279 8q-174 0 -259 -6q-21 -180 -54 -355l-24 -128l223 -4q197 -4 233 -6q14 -2 21.5 -18t2.5 -41q-6 -30 -25.5 -44t-59.5 -14l-158 4l-136 4h-125q-30 -144 -78 -332l-54 -224q230 -20 363 -20 q74 0 115.5 3t129.5 15q25 4 45.5 -9.5t20.5 -44.5q0 -38 -24 -60t-55 -30q-50 -14 -204 -14q-68 0 -222 4q-275 6 -336 6q-68 0 -88.5 16t-16.5 50q8 42 31.5 59t69.5 17q31 106 66 255l-493 4l-233 -355q-15 -21 -28.5 -31.5t-37.5 -10.5q-41 0 -74.5 26t-16.5 52 q221 344 402.5 614.5t374 504.5t285.5 242q5 2 16 2l192 4q137 7 217 7q96 0 378 -19q38 -2 38 -42zM994 512q57 255 111 558q25 144 31 192q-144 -96 -580 -744z" />
<glyph unicode="&#xc7;" horiz-adv-x="1491" d="M1509 1421q0 -12 -2 -20l-44 -233q-17 -94 -101 -94q-42 0 -63 33q-43 75 -79 122t-97.5 79.5t-151.5 32.5q-173 0 -331 -112.5t-254.5 -291.5t-96.5 -361q0 -144 63.5 -242t166.5 -145t227 -47q175 0 320.5 95.5t193.5 274.5q8 36 28 58t66 22q39 0 58 -15t19 -45 q0 -8 -4 -33q-28 -138 -119.5 -253.5t-237 -183.5t-324.5 -68h-17l-85 -107q69 -17 110.5 -59.5t41.5 -112.5q0 -91 -78 -136t-212 -45q-40 0 -92.5 9.5t-83.5 19.5q-33 13 -33 52q0 30 21 51t49 21q8 -2 56.5 -15t86.5 -13q75 0 111.5 11t36.5 55q0 31 -24 41.5t-64 17.5 t-54 9q-25 2 -39.5 14.5t-14.5 31.5q0 12 6 25l118 146q-202 42 -331.5 186.5t-129.5 375.5q0 226 118 439t313.5 345.5t414.5 132.5q130 0 220.5 -48t141.5 -135l19 102q4 31 25.5 51t61.5 20q70 0 70 -58z" />
<glyph unicode="&#xc8;" horiz-adv-x="1196" d="M1258.5 1423.5q15.5 -9.5 15.5 -36.5q0 -42 -25 -68t-59 -22q-205 17 -379 17q-134 0 -285 -8q-39 -278 -73 -462l141 -2l229 -7l124 -2q50 0 50 -50q0 -39 -21 -67.5t-55 -28.5l-110 3q-94 6 -247 6q-88 0 -138 2q-29 -155 -58 -268t-69 -250q133 -11 321 -11 q113 0 180 4t163 15q77 8 77 -54q0 -38 -19.5 -62t-57.5 -30q-80 -16 -387 -16q-275 0 -492 24q-46 6 -46 52q0 38 20 64t46 26h36q37 113 65.5 229t59.5 279h-24q-63 0 -64 54q0 38 22 65t58 27h34q18 106 20 121q46 249 58 332h-14q-34 0 -34 53q0 54 27.5 71.5t71.5 21.5 q122 13 361 14q303 0 431 -20q31 -6 46.5 -15.5zM896.5 1589q-12.5 7 -27.5 26l-133 180q-24 36 -24 56q0 32 22 54t50 22q35 0 68 -50l121 -179q21 -27 22 -50q0 -27 -21 -46.5t-49 -19.5q-16 0 -28.5 7z" />
<glyph unicode="&#xc9;" horiz-adv-x="1196" d="M1258.5 1423.5q15.5 -9.5 15.5 -36.5q0 -42 -25 -68t-59 -22q-205 17 -379 17q-134 0 -285 -8q-39 -278 -73 -462l141 -2l229 -7l124 -2q50 0 50 -50q0 -39 -21 -67.5t-55 -28.5l-110 3q-94 6 -247 6q-88 0 -138 2q-29 -155 -58 -268t-69 -250q133 -11 321 -11 q113 0 180 4t163 15q77 8 77 -54q0 -38 -19.5 -62t-57.5 -30q-80 -16 -387 -16q-275 0 -492 24q-46 6 -46 52q0 38 20 64t46 26h36q37 113 65.5 229t59.5 279h-24q-63 0 -64 54q0 38 22 65t58 27h34q18 106 20 121q46 249 58 332h-14q-34 0 -34 53q0 54 27.5 71.5t71.5 21.5 q122 13 361 14q303 0 431 -20q31 -6 46.5 -15.5zM698 1584.5q-14 13.5 -14 35.5q0 16 12 36t34 38l191 169q32 30 52 41t38 11q24 0 39 -15t15 -39q0 -44 -52 -85l-207 -170q-42 -35 -72 -35q-22 0 -36 13.5z" />
<glyph unicode="&#xca;" horiz-adv-x="1196" d="M1258.5 1423.5q15.5 -9.5 15.5 -36.5q0 -42 -25 -68t-59 -22q-205 17 -379 17q-134 0 -285 -8q-39 -278 -73 -462l141 -2l229 -7l124 -2q50 0 50 -50q0 -39 -21 -67.5t-55 -28.5l-110 3q-94 6 -247 6q-88 0 -138 2q-29 -155 -58 -268t-69 -250q133 -11 321 -11 q113 0 180 4t163 15q77 8 77 -54q0 -38 -19.5 -62t-57.5 -30q-80 -16 -387 -16q-275 0 -492 24q-46 6 -46 52q0 38 20 64t46 26h36q37 113 65.5 229t59.5 279h-24q-63 0 -64 54q0 38 22 65t58 27h34q18 106 20 121q46 249 58 332h-14q-34 0 -34 53q0 54 27.5 71.5t71.5 21.5 q122 13 361 14q303 0 431 -20q31 -6 46.5 -15.5zM1021 1622q-119 213 -154 213q-16 0 -69.5 -45.5t-155.5 -143.5q-42 -42 -74 -42q-20 0 -36 16t-16 39q0 28 29 54q29 21 67 61q100 91 164 140.5t106 49.5q54 0 95.5 -48.5t106.5 -150.5l44 -71q13 -16 13 -31 q0 -27 -22 -48t-50 -21q-33 0 -48 28z" />
<glyph unicode="&#xcb;" horiz-adv-x="1196" d="M1258.5 1423.5q15.5 -9.5 15.5 -36.5q0 -42 -25 -68t-59 -22q-205 17 -379 17q-134 0 -285 -8q-39 -278 -73 -462l141 -2l229 -7l124 -2q50 0 50 -50q0 -39 -21 -67.5t-55 -28.5l-110 3q-94 6 -247 6q-88 0 -138 2q-29 -155 -58 -268t-69 -250q133 -11 321 -11 q113 0 180 4t163 15q77 8 77 -54q0 -38 -19.5 -62t-57.5 -30q-80 -16 -387 -16q-275 0 -492 24q-46 6 -46 52q0 38 20 64t46 26h36q37 113 65.5 229t59.5 279h-24q-63 0 -64 54q0 38 22 65t58 27h34q18 106 20 121q46 249 58 332h-14q-34 0 -34 53q0 54 27.5 71.5t71.5 21.5 q122 13 361 14q303 0 431 -20q31 -6 46.5 -15.5zM507 1648q-26 26 -26 67q0 55 39.5 92.5t93.5 37.5q42 0 70 -26t28 -66q0 -52 -41.5 -91.5t-93.5 -39.5q-44 0 -70 26zM1008 1648q-27 26 -27 67q0 55 40 92.5t95 37.5q42 0 69 -25t27 -65q0 -52 -41 -92.5t-93 -40.5 q-43 0 -70 26z" />
<glyph unicode="&#xcc;" horiz-adv-x="914" d="M1009 1414q0 -42 -25 -67t-63 -23q-62 4 -190 9q-60 -339 -117.5 -610.5t-131.5 -563.5l234 -2q34 0 47.5 -13.5t13.5 -43.5q0 -42 -23 -67t-64 -25l-634 8q-52 2 -52 59q0 42 25 66t59 24l237 -4q146 624 243 1170l-146 -9q-125 -8 -157 -8q-18 0 -31 14.5t-13 46.5 q0 40 23 60.5t59 27.5q113 18 332 18q197 0 320 -12q54 -5 54 -55zM737.5 1589q-12.5 7 -27.5 26l-133 180q-24 36 -24 56q0 32 22 54t50 22q35 0 68 -50l121 -179q21 -27 22 -50q0 -27 -21 -46.5t-49 -19.5q-16 0 -28.5 7z" />
<glyph unicode="&#xcd;" horiz-adv-x="914" d="M1009 1414q0 -42 -25 -67t-63 -23q-62 4 -190 9q-60 -339 -117.5 -610.5t-131.5 -563.5l234 -2q34 0 47.5 -13.5t13.5 -43.5q0 -42 -23 -67t-64 -25l-634 8q-52 2 -52 59q0 42 25 66t59 24l237 -4q146 624 243 1170l-146 -9q-125 -8 -157 -8q-18 0 -31 14.5t-13 46.5 q0 40 23 60.5t59 27.5q113 18 332 18q197 0 320 -12q54 -5 54 -55zM539 1584.5q-14 13.5 -14 35.5q0 16 12 36t34 38l191 169q32 30 52 41t38 11q24 0 39 -15t15 -39q0 -44 -52 -85l-207 -170q-42 -35 -72 -35q-22 0 -36 13.5z" />
<glyph unicode="&#xce;" horiz-adv-x="914" d="M1009 1414q0 -42 -25 -67t-63 -23q-62 4 -190 9q-60 -339 -117.5 -610.5t-131.5 -563.5l234 -2q34 0 47.5 -13.5t13.5 -43.5q0 -42 -23 -67t-64 -25l-634 8q-52 2 -52 59q0 42 25 66t59 24l237 -4q146 624 243 1170l-146 -9q-125 -8 -157 -8q-18 0 -31 14.5t-13 46.5 q0 40 23 60.5t59 27.5q113 18 332 18q197 0 320 -12q54 -5 54 -55zM862 1622q-119 213 -154 213q-16 0 -69.5 -45.5t-155.5 -143.5q-42 -42 -74 -42q-20 0 -36 16t-16 39q0 28 29 54q29 21 67 61q100 91 164 140.5t106 49.5q54 0 95.5 -48.5t106.5 -150.5l44 -71 q13 -16 13 -31q0 -27 -22 -48t-50 -21q-33 0 -48 28z" />
<glyph unicode="&#xcf;" horiz-adv-x="914" d="M1009 1414q0 -42 -25 -67t-63 -23q-62 4 -190 9q-60 -339 -117.5 -610.5t-131.5 -563.5l234 -2q34 0 47.5 -13.5t13.5 -43.5q0 -42 -23 -67t-64 -25l-634 8q-52 2 -52 59q0 42 25 66t59 24l237 -4q146 624 243 1170l-146 -9q-125 -8 -157 -8q-18 0 -31 14.5t-13 46.5 q0 40 23 60.5t59 27.5q113 18 332 18q197 0 320 -12q54 -5 54 -55zM348 1648q-26 26 -26 67q0 55 39.5 92.5t93.5 37.5q42 0 70 -26t28 -66q0 -52 -41.5 -91.5t-93.5 -39.5q-44 0 -70 26zM849 1648q-27 26 -27 67q0 55 40 92.5t95 37.5q42 0 69 -25t27 -65q0 -52 -41 -92.5 t-93 -40.5q-43 0 -70 26z" />
<glyph unicode="&#xd0;" horiz-adv-x="1515" d="M1239.5 1282.5q211.5 -154.5 211.5 -451.5q0 -245 -142.5 -430.5t-387 -286t-539.5 -100.5h-148q-78 0 -77 55q0 88 94 88h52l77 526l-157 2q-48 0 -73 17t-25 46q0 44 33.5 70t94.5 24l150 -5l71 481q-87 6 -87 65q0 44 29 61t96 19q24 29 74 28q59 0 72 -32 q370 -22 581.5 -176.5zM888 259q182 88 286 241.5t104 356.5q0 403 -628 455l-72 -479l233 -4q40 -2 63 -19.5t23 -46.5q0 -40 -31 -64t-83 -24l-227 4l-78 -520q228 12 410 100z" />
<glyph unicode="&#xd1;" horiz-adv-x="1541" d="M1520.5 1464q16.5 -25 10.5 -58q-54 -329 -117 -654l-25 -134q-42 -233 -80.5 -361.5t-77.5 -179.5t-91 -51q-62 0 -119.5 65.5t-121.5 191.5t-180 383q-111 247 -168.5 369.5t-99.5 192.5q-32 -167 -64 -386l-20 -121q-69 -434 -110 -633q-4 -26 -30 -47t-60 -21 q-35 0 -56 20t-17 48l17 89l96 546q26 136 58 355q17 84 46 265q12 65 38.5 98.5t76.5 33.5q58 0 105 -49t94 -143.5t142 -300.5q18 -44 35 -80.5t29 -66.5q182 -400 305 -612q19 61 37.5 150t26.5 122q12 69 30 151q34 159 138 771q6 35 31.5 53.5t63.5 18.5q41 0 57.5 -25 zM662.5 1614q-12.5 14 -12.5 38q0 28 25 53q61 60 104.5 85t97.5 25q96 0 177 -45q12 -7 36 -20.5t40 -19.5t30 -6q27 0 66 35q34 32 59 32q21 0 35.5 -17t14.5 -40q0 -30 -23 -52q-52 -42 -94 -62t-84 -20q-47 0 -114 38l-42 21q-10 4 -47.5 21.5t-65.5 17.5q-20 0 -40 -14 t-58 -50q-40 -34 -69 -34q-23 0 -35.5 14z" />
<glyph unicode="&#xd2;" horiz-adv-x="1654" d="M440.5 83q-139.5 67 -222 196.5t-82.5 310.5q0 240 105.5 443t291.5 323.5t416 120.5q187 0 333.5 -81.5t229 -225.5t82.5 -326q0 -241 -107.5 -429t-301 -293.5t-437.5 -105.5q-168 0 -307.5 67zM1105.5 254q152.5 89 239 243.5t86.5 346.5q0 143 -58.5 253.5t-166 171 t-249.5 60.5q-186 0 -336.5 -102.5t-236 -272t-85.5 -358.5q0 -153 66.5 -249t172.5 -139t227 -43q188 0 340.5 89zM1091.5 1589q-12.5 7 -27.5 26l-133 180q-24 36 -24 56q0 32 22 54t50 22q35 0 68 -50l121 -179q21 -27 22 -50q0 -27 -21 -46.5t-49 -19.5q-16 0 -28.5 7z " />
<glyph unicode="&#xd3;" horiz-adv-x="1654" d="M440.5 83q-139.5 67 -222 196.5t-82.5 310.5q0 240 105.5 443t291.5 323.5t416 120.5q187 0 333.5 -81.5t229 -225.5t82.5 -326q0 -241 -107.5 -429t-301 -293.5t-437.5 -105.5q-168 0 -307.5 67zM1105.5 254q152.5 89 239 243.5t86.5 346.5q0 143 -58.5 253.5t-166 171 t-249.5 60.5q-186 0 -336.5 -102.5t-236 -272t-85.5 -358.5q0 -153 66.5 -249t172.5 -139t227 -43q188 0 340.5 89zM891 1584.5q-14 13.5 -14 35.5q0 16 12 36t34 38l191 169q32 30 52 41t38 11q24 0 39 -15t15 -39q0 -44 -52 -85l-207 -170q-42 -35 -72 -35q-22 0 -36 13.5 z" />
<glyph unicode="&#xd4;" horiz-adv-x="1654" d="M440.5 83q-139.5 67 -222 196.5t-82.5 310.5q0 240 105.5 443t291.5 323.5t416 120.5q187 0 333.5 -81.5t229 -225.5t82.5 -326q0 -241 -107.5 -429t-301 -293.5t-437.5 -105.5q-168 0 -307.5 67zM1105.5 254q152.5 89 239 243.5t86.5 346.5q0 143 -58.5 253.5t-166 171 t-249.5 60.5q-186 0 -336.5 -102.5t-236 -272t-85.5 -358.5q0 -153 66.5 -249t172.5 -139t227 -43q188 0 340.5 89zM1216 1622q-119 213 -154 213q-16 0 -69.5 -45.5t-155.5 -143.5q-42 -42 -74 -42q-20 0 -36 16t-16 39q0 28 29 54q29 21 67 61q100 91 164 140.5t106 49.5 q54 0 95.5 -48.5t106.5 -150.5l44 -71q13 -16 13 -31q0 -27 -22 -48t-50 -21q-33 0 -48 28z" />
<glyph unicode="&#xd5;" horiz-adv-x="1654" d="M440.5 83q-139.5 67 -222 196.5t-82.5 310.5q0 240 105.5 443t291.5 323.5t416 120.5q187 0 333.5 -81.5t229 -225.5t82.5 -326q0 -241 -107.5 -429t-301 -293.5t-437.5 -105.5q-168 0 -307.5 67zM1105.5 254q152.5 89 239 243.5t86.5 346.5q0 143 -58.5 253.5t-166 171 t-249.5 60.5q-186 0 -336.5 -102.5t-236 -272t-85.5 -358.5q0 -153 66.5 -249t172.5 -139t227 -43q188 0 340.5 89zM702.5 1614q-12.5 14 -12.5 38q0 28 25 53q61 60 104.5 85t97.5 25q96 0 177 -45q12 -7 36 -20.5t40 -19.5t30 -6q27 0 66 35q34 32 59 32q21 0 35.5 -17 t14.5 -40q0 -30 -23 -52q-52 -42 -94 -62t-84 -20q-47 0 -114 38l-42 21q-10 4 -47.5 21.5t-65.5 17.5q-20 0 -40 -14t-58 -50q-40 -34 -69 -34q-23 0 -35.5 14z" />
<glyph unicode="&#xd6;" horiz-adv-x="1654" d="M440.5 83q-139.5 67 -222 196.5t-82.5 310.5q0 240 105.5 443t291.5 323.5t416 120.5q187 0 333.5 -81.5t229 -225.5t82.5 -326q0 -241 -107.5 -429t-301 -293.5t-437.5 -105.5q-168 0 -307.5 67zM1105.5 254q152.5 89 239 243.5t86.5 346.5q0 143 -58.5 253.5t-166 171 t-249.5 60.5q-186 0 -336.5 -102.5t-236 -272t-85.5 -358.5q0 -153 66.5 -249t172.5 -139t227 -43q188 0 340.5 89zM702 1648q-26 26 -26 67q0 55 39.5 92.5t93.5 37.5q42 0 70 -26t28 -66q0 -52 -41.5 -91.5t-93.5 -39.5q-44 0 -70 26zM1203 1648q-27 26 -27 67 q0 55 40 92.5t95 37.5q42 0 69 -25t27 -65q0 -52 -41 -92.5t-93 -40.5q-43 0 -70 26z" />
<glyph unicode="&#xd7;" d="M914 984q17 -15 17 -37q0 -17 -4 -29.5t-20 -28.5l-257 -233l115 -136l102 -121q14 -19 8 -40q-4 -23 -27 -41.5t-50 -18.5q-21 0 -32.5 8t-30.5 30l-185 227q-170 -153 -265 -236q-36 -29 -68 -29q-23 0 -41.5 17t-18.5 35q0 25 20 44l293 263l-203 237q-12 16 -15 24 t1 23q4 24 28 43.5t56 19.5q20 0 32.5 -9.5t27.5 -28.5q60 -80 171 -217q80 71 230 213q20 18 34 27t33 9q32 0 49 -15z" />
<glyph unicode="&#xd8;" horiz-adv-x="1654" d="M1664 1531.5q16 -18.5 11 -44.5q-8 -27 -33 -50l-188 -183q139 -170 140 -410q0 -241 -107.5 -429t-301 -293.5t-437.5 -105.5q-120 0 -227 35t-188 102l-164 -161q-39 -40 -73 -40q-26 0 -43 17t-13 41q2 10 8 21t19 23l184 180q-115 147 -115 356q0 240 105.5 443 t291.5 323.5t416 120.5q125 0 232.5 -36.5t191.5 -105.5l177 174q42 41 73 41q25 0 41 -18.5zM365 347l899 881q-124 100 -307 101q-186 0 -336.5 -102.5t-236 -272t-85.5 -358.5q-1 -149 66 -249zM1343 1144l-898 -881q123 -98 320 -98q188 0 340.5 89t239 243.5 t86.5 346.5q0 173 -88 300z" />
<glyph unicode="&#xd9;" horiz-adv-x="1393" d="M1368 1462q19 -17 19 -43q0 -10 -2 -18q-48 -265 -90 -532q-35 -234 -133 -805q-12 -69 -90 -68q-69 0 -69 58q0 16 2 26l27 158q-73 -104 -193 -169t-269 -65q-142 0 -238 59.5t-142 153.5t-46 199q0 70 33.5 249t111.5 557l34 175q13 70 91 70q34 0 52 -14t18 -41 q0 -11 -2 -17q-91 -426 -131 -647.5t-40 -331.5q0 -121 66 -192t193 -71q122 0 234.5 64.5t189 165.5t96.5 207q30 153 71 391.5t67 424.5q10 73 86 73q35 0 54 -17zM961.5 1589q-12.5 7 -27.5 26l-133 180q-24 36 -24 56q0 32 22 54t50 22q35 0 68 -50l121 -179 q21 -27 22 -50q0 -27 -21 -46.5t-49 -19.5q-16 0 -28.5 7z" />
<glyph unicode="&#xda;" horiz-adv-x="1393" d="M1368 1462q19 -17 19 -43q0 -10 -2 -18q-48 -265 -90 -532q-35 -234 -133 -805q-12 -69 -90 -68q-69 0 -69 58q0 16 2 26l27 158q-73 -104 -193 -169t-269 -65q-142 0 -238 59.5t-142 153.5t-46 199q0 70 33.5 249t111.5 557l34 175q13 70 91 70q34 0 52 -14t18 -41 q0 -11 -2 -17q-91 -426 -131 -647.5t-40 -331.5q0 -121 66 -192t193 -71q122 0 234.5 64.5t189 165.5t96.5 207q30 153 71 391.5t67 424.5q10 73 86 73q35 0 54 -17zM763 1584.5q-14 13.5 -14 35.5q0 16 12 36t34 38l191 169q32 30 52 41t38 11q24 0 39 -15t15 -39 q0 -44 -52 -85l-207 -170q-42 -35 -72 -35q-22 0 -36 13.5z" />
<glyph unicode="&#xdb;" horiz-adv-x="1393" d="M1368 1462q19 -17 19 -43q0 -10 -2 -18q-48 -265 -90 -532q-35 -234 -133 -805q-12 -69 -90 -68q-69 0 -69 58q0 16 2 26l27 158q-73 -104 -193 -169t-269 -65q-142 0 -238 59.5t-142 153.5t-46 199q0 70 33.5 249t111.5 557l34 175q13 70 91 70q34 0 52 -14t18 -41 q0 -11 -2 -17q-91 -426 -131 -647.5t-40 -331.5q0 -121 66 -192t193 -71q122 0 234.5 64.5t189 165.5t96.5 207q30 153 71 391.5t67 424.5q10 73 86 73q35 0 54 -17zM1086 1622q-119 213 -154 213q-16 0 -69.5 -45.5t-155.5 -143.5q-42 -42 -74 -42q-20 0 -36 16t-16 39 q0 28 29 54q29 21 67 61q100 91 164 140.5t106 49.5q54 0 95.5 -48.5t106.5 -150.5l44 -71q13 -16 13 -31q0 -27 -22 -48t-50 -21q-33 0 -48 28z" />
<glyph unicode="&#xdc;" horiz-adv-x="1393" d="M1368 1462q19 -17 19 -43q0 -10 -2 -18q-48 -265 -90 -532q-35 -234 -133 -805q-12 -69 -90 -68q-69 0 -69 58q0 16 2 26l27 158q-73 -104 -193 -169t-269 -65q-142 0 -238 59.5t-142 153.5t-46 199q0 70 33.5 249t111.5 557l34 175q13 70 91 70q34 0 52 -14t18 -41 q0 -11 -2 -17q-91 -426 -131 -647.5t-40 -331.5q0 -121 66 -192t193 -71q122 0 234.5 64.5t189 165.5t96.5 207q30 153 71 391.5t67 424.5q10 73 86 73q35 0 54 -17zM572 1648q-26 26 -26 67q0 55 39.5 92.5t93.5 37.5q42 0 70 -26t28 -66q0 -52 -41.5 -91.5t-93.5 -39.5 q-44 0 -70 26zM1073 1648q-27 26 -27 67q0 55 40 92.5t95 37.5q42 0 69 -25t27 -65q0 -52 -41 -92.5t-93 -40.5q-43 0 -70 26z" />
<glyph unicode="&#xdd;" horiz-adv-x="1367" d="M546 30q-18 24 -12 56l101 599q-95 36 -205 274q-48 102 -71.5 184.5t-55.5 224.5q-2 6 -2 21q0 36 29 55t69 19q56 0 73 -74q34 -135 54 -203t50 -150q32 -83 76 -152t81 -69q36 0 100 60.5t144 164.5q64 84 116.5 163t124.5 194q23 38 35.5 50t35.5 12q36 0 63 -18 t27 -46q0 -20 -13 -39q-140 -247 -261 -401q-96 -120 -178.5 -187.5t-130.5 -82.5l-98 -595q-17 -84 -94 -84q-40 0 -58 24zM758 1584.5q-14 13.5 -14 35.5q0 16 12 36t34 38l191 169q32 30 52 41t38 11q24 0 39 -15t15 -39q0 -44 -52 -85l-207 -170q-42 -35 -72 -35 q-22 0 -36 13.5z" />
<glyph unicode="&#xde;" horiz-adv-x="1317" d="M1083.5 1297q110.5 -52 176.5 -148t66 -224q0 -144 -80 -259.5t-221.5 -180.5t-318.5 -65q-157 0 -292 50l-81 -410q-7 -31 -35.5 -52.5t-63.5 -21.5q-40 0 -64 17t-17 49q38 207 83 424q12 68 30.5 153t22.5 121q6 46 32 192l26 132l-34 -19q-23 -15 -48 -15t-41.5 23 t-16.5 44q0 35 44 63q48 32 125 68q34 174 52 305q4 34 32.5 55t69.5 21q38 0 58 -19t14 -57l-38 -237q155 43 280 43q129 0 239.5 -52zM935.5 610q98.5 44 154.5 124.5t56 186.5q0 126 -96.5 203.5t-240.5 77.5q-115 0 -270 -46q-28 -162 -44 -257l-25 -124l-31 -157 q150 -52 280 -52q118 0 216.5 44z" />
<glyph unicode="&#xdf;" horiz-adv-x="1323" d="M554 6q-72 12 -124 42q-27 14 -27 46q0 27 23 55t48 28q8 0 21 -6q96 -48 201 -48q141 0 225 55.5t84 162.5q0 50 -34.5 87.5t-103.5 85.5q-78 54 -118.5 100t-40.5 113q0 90 78.5 159t207.5 111q21 35 34.5 79t13.5 82q0 100 -67.5 168.5t-172.5 68.5q-163 0 -264 -123 t-153 -395l-151 -779q-13 -74 -84 -72q-38 0 -52 19t-10 53l144 781q37 211 101 351t176.5 218.5t292.5 78.5q117 0 208 -53t140.5 -137.5t49.5 -178.5q0 -136 -99 -261q-112 -24 -177 -74t-65 -96q0 -33 30 -65t97 -84q86 -67 132 -119t46 -118q0 -168 -132.5 -257.5 t-335.5 -89.5q-70 0 -142 12z" />
<glyph unicode="&#xe0;" horiz-adv-x="1300" d="M1150 931q-8 -26 -12 -36q-12 -30 -33 -108q-36 -131 -72 -320.5t-36 -257.5q0 -36 12 -53.5t46 -19.5q25 -4 37.5 -13.5t12.5 -30.5q0 -38 -20 -63t-53 -25q-83 0 -119 26t-52 98q-115 -146 -341 -146q-140 0 -233 59t-136 154.5t-43 199.5q0 173 72.5 318.5t203 231 t297.5 85.5q104 0 182.5 -44t109.5 -115l21 69q11 36 29.5 56.5t56.5 20.5q36 0 57 -13.5t21 -34.5q0 -12 -8 -38zM907 679q0 116 -71 168t-155 52q-115 0 -208 -73.5t-146.5 -190.5t-53.5 -240q0 -120 58 -200t193 -80q124 0 215.5 64t115.5 182q52 266 52 318zM834.5 1171 q-12.5 7 -27.5 26l-133 180q-24 36 -24 56q0 32 22 54t50 22q35 0 68 -50l121 -179q21 -27 22 -50q0 -27 -21 -46.5t-49 -19.5q-16 0 -28.5 7z" />
<glyph unicode="&#xe1;" horiz-adv-x="1300" d="M1150 931q-8 -26 -12 -36q-12 -30 -33 -108q-36 -131 -72 -320.5t-36 -257.5q0 -36 12 -53.5t46 -19.5q25 -4 37.5 -13.5t12.5 -30.5q0 -38 -20 -63t-53 -25q-83 0 -119 26t-52 98q-115 -146 -341 -146q-140 0 -233 59t-136 154.5t-43 199.5q0 173 72.5 318.5t203 231 t297.5 85.5q104 0 182.5 -44t109.5 -115l21 69q11 36 29.5 56.5t56.5 20.5q36 0 57 -13.5t21 -34.5q0 -12 -8 -38zM907 679q0 116 -71 168t-155 52q-115 0 -208 -73.5t-146.5 -190.5t-53.5 -240q0 -120 58 -200t193 -80q124 0 215.5 64t115.5 182q52 266 52 318zM635 1166.5 q-14 13.5 -14 35.5q0 16 12 36t34 38l191 169q32 30 52 41t38 11q24 0 39 -15t15 -39q0 -44 -52 -85l-207 -170q-42 -35 -72 -35q-22 0 -36 13.5z" />
<glyph unicode="&#xe2;" horiz-adv-x="1300" d="M1150 931q-8 -26 -12 -36q-12 -30 -33 -108q-36 -131 -72 -320.5t-36 -257.5q0 -36 12 -53.5t46 -19.5q25 -4 37.5 -13.5t12.5 -30.5q0 -38 -20 -63t-53 -25q-83 0 -119 26t-52 98q-115 -146 -341 -146q-140 0 -233 59t-136 154.5t-43 199.5q0 173 72.5 318.5t203 231 t297.5 85.5q104 0 182.5 -44t109.5 -115l21 69q11 36 29.5 56.5t56.5 20.5q36 0 57 -13.5t21 -34.5q0 -12 -8 -38zM907 679q0 116 -71 168t-155 52q-115 0 -208 -73.5t-146.5 -190.5t-53.5 -240q0 -120 58 -200t193 -80q124 0 215.5 64t115.5 182q52 266 52 318zM959 1204 q-119 213 -154 213q-16 0 -69.5 -45.5t-155.5 -143.5q-42 -42 -74 -42q-20 0 -36 16t-16 39q0 28 29 54q29 21 67 61q100 91 164 140.5t106 49.5q54 0 95.5 -48.5t106.5 -150.5l44 -71q13 -16 13 -31q0 -27 -22 -48t-50 -21q-33 0 -48 28z" />
<glyph unicode="&#xe3;" horiz-adv-x="1300" d="M1150 931q-8 -26 -12 -36q-12 -30 -33 -108q-36 -131 -72 -320.5t-36 -257.5q0 -36 12 -53.5t46 -19.5q25 -4 37.5 -13.5t12.5 -30.5q0 -38 -20 -63t-53 -25q-83 0 -119 26t-52 98q-115 -146 -341 -146q-140 0 -233 59t-136 154.5t-43 199.5q0 173 72.5 318.5t203 231 t297.5 85.5q104 0 182.5 -44t109.5 -115l21 69q11 36 29.5 56.5t56.5 20.5q36 0 57 -13.5t21 -34.5q0 -12 -8 -38zM907 679q0 116 -71 168t-155 52q-115 0 -208 -73.5t-146.5 -190.5t-53.5 -240q0 -120 58 -200t193 -80q124 0 215.5 64t115.5 182q52 266 52 318zM445.5 1196 q-12.5 14 -12.5 38q0 28 25 53q61 60 104.5 85t97.5 25q96 0 177 -45q12 -7 36 -20.5t40 -19.5t30 -6q27 0 66 35q34 32 59 32q21 0 35.5 -17t14.5 -40q0 -30 -23 -52q-52 -42 -94 -62t-84 -20q-47 0 -114 38l-42 21q-10 4 -47.5 21.5t-65.5 17.5q-20 0 -40 -14t-58 -50 q-40 -34 -69 -34q-23 0 -35.5 14z" />
<glyph unicode="&#xe4;" horiz-adv-x="1300" d="M1150 931q-8 -26 -12 -36q-12 -30 -33 -108q-36 -131 -72 -320.5t-36 -257.5q0 -36 12 -53.5t46 -19.5q25 -4 37.5 -13.5t12.5 -30.5q0 -38 -20 -63t-53 -25q-83 0 -119 26t-52 98q-115 -146 -341 -146q-140 0 -233 59t-136 154.5t-43 199.5q0 173 72.5 318.5t203 231 t297.5 85.5q104 0 182.5 -44t109.5 -115l21 69q11 36 29.5 56.5t56.5 20.5q36 0 57 -13.5t21 -34.5q0 -12 -8 -38zM907 679q0 116 -71 168t-155 52q-115 0 -208 -73.5t-146.5 -190.5t-53.5 -240q0 -120 58 -200t193 -80q124 0 215.5 64t115.5 182q52 266 52 318zM445 1230 q-26 26 -26 67q0 55 39.5 92.5t93.5 37.5q42 0 70 -26t28 -66q0 -52 -41.5 -91.5t-93.5 -39.5q-44 0 -70 26zM946 1230q-27 26 -27 67q0 55 40 92.5t95 37.5q42 0 69 -25t27 -65q0 -52 -41 -92.5t-93 -40.5q-43 0 -70 26z" />
<glyph unicode="&#xe5;" horiz-adv-x="1300" d="M1150 931q-8 -26 -12 -36q-12 -30 -33 -108q-36 -131 -72 -320.5t-36 -257.5q0 -36 12 -53.5t46 -19.5q25 -4 37.5 -13.5t12.5 -30.5q0 -38 -20 -63t-53 -25q-83 0 -119 26t-52 98q-115 -146 -341 -146q-140 0 -233 59t-136 154.5t-43 199.5q0 173 72.5 318.5t203 231 t297.5 85.5q104 0 182.5 -44t109.5 -115l21 69q11 36 29.5 56.5t56.5 20.5q36 0 57 -13.5t21 -34.5q0 -12 -8 -38zM907 679q0 116 -71 168t-155 52q-115 0 -208 -73.5t-146.5 -190.5t-53.5 -240q0 -120 58 -200t193 -80q124 0 215.5 64t115.5 182q52 266 52 318zM618 1178 q-58 56 -58 138q0 69 36 127.5t98.5 93t135.5 34.5q81 0 135.5 -58.5t54.5 -135.5q0 -106 -76.5 -180.5t-184.5 -74.5q-83 0 -141 56zM872.5 1269q42.5 41 42.5 99q0 40 -28 69.5t-74 29.5q-58 0 -100.5 -43t-42.5 -98q0 -42 28 -70t74 -28q58 0 100.5 41z" />
<glyph unicode="&#xe6;" horiz-adv-x="2073" d="M1747.5 1019.5q103.5 -54.5 162 -143.5t58.5 -184q0 -32 -7 -64q-12 -62 -39 -83t-88 -23l-781 -18l-4 -32q-9 -44 -9 -94q0 -141 76 -205.5t246 -64.5q242 0 388 195q21 27 54 27q26 0 44 -18.5t18 -44.5q0 -31 -28 -66q-171 -221 -476 -221q-170 0 -277.5 55 t-139.5 157q-55 -100 -171 -156t-275 -56q-217 0 -317 67.5t-100 215.5q0 174 112.5 259.5t351.5 91.5l375 8l4 30q4 33 4 50q0 102 -68.5 166.5t-202.5 64.5q-119 0 -197.5 -35t-169.5 -115q-21 -18 -48 -18q-30 0 -46.5 19.5t-16.5 38.5q0 30 37 62q100 90 204.5 135 t236.5 45q142 0 248.5 -71t129.5 -181q74 115 200 188t283 73q125 0 228.5 -54.5zM1332 904q-91 -43 -158 -117.5t-94 -160.5l729 20l5 20q2 10 2 30q0 60 -36 117.5t-102.5 95.5t-158.5 38q-96 0 -187 -43zM899 497l-353 -8q-159 -5 -235.5 -61t-76.5 -165q0 -83 63.5 -120 t201.5 -37q144 0 250 62t124 175z" />
<glyph unicode="&#xe7;" horiz-adv-x="1228" d="M498.5 866q-107.5 -74 -170.5 -193t-63 -245q0 -129 81.5 -211.5t227.5 -82.5q108 0 202.5 43.5t149 110.5t54.5 132q0 21 20.5 35.5t52.5 14.5q33 0 51 -11.5t18 -40.5q0 -108 -69 -198t-181 -147t-234 -69l-97 -117q69 -17 111 -59.5t42 -112.5q0 -91 -78.5 -136 t-212.5 -45q-40 0 -92 9.5t-84 19.5q-33 13 -33 52q0 30 21 51t50 21q8 -2 56 -15t86 -13q75 0 112 11t37 55q0 31 -24 41.5t-64 17.5t-54 9q-25 2 -40 14.5t-15 31.5q0 12 6 25l119 144q-177 26 -277.5 143.5t-100.5 276.5q0 174 82.5 322.5t226 235t316.5 86.5 q104 0 203.5 -44t160.5 -117.5t61 -154.5q0 -70 -82 -69q-32 0 -50.5 14.5t-18.5 42.5q0 45 -34.5 91t-97 75.5t-142.5 29.5q-125 0 -232.5 -74z" />
<glyph unicode="&#xe8;" horiz-adv-x="1292" d="M338.5 53.5q-108.5 61.5 -165 164.5t-56.5 225q0 167 82.5 312.5t226.5 231t320 85.5q127 0 227.5 -46t155.5 -128.5t55 -191.5q0 -104 -30 -153t-101 -49l-784 -17q-4 -38 -4 -52q0 -134 93 -220.5t240 -86.5q87 0 154 26t108 59.5t103 93.5q18 18 42 18q25 0 48 -17 t23 -41q0 -27 -25 -54q-57 -64 -104.5 -106.5t-136.5 -78.5t-212 -36q-151 0 -259.5 61.5zM1015 630q25 0 31.5 16t6.5 58q0 106 -85 172t-222 66q-116 0 -216 -58.5t-164.5 -138t-72.5 -133.5zM850.5 1171q-12.5 7 -27.5 26l-133 180q-24 36 -24 56q0 32 22 54t50 22 q35 0 68 -50l121 -179q21 -27 22 -50q0 -27 -21 -46.5t-49 -19.5q-16 0 -28.5 7z" />
<glyph unicode="&#xe9;" horiz-adv-x="1292" d="M338.5 53.5q-108.5 61.5 -165 164.5t-56.5 225q0 167 82.5 312.5t226.5 231t320 85.5q127 0 227.5 -46t155.5 -128.5t55 -191.5q0 -104 -30 -153t-101 -49l-784 -17q-4 -38 -4 -52q0 -134 93 -220.5t240 -86.5q87 0 154 26t108 59.5t103 93.5q18 18 42 18q25 0 48 -17 t23 -41q0 -27 -25 -54q-57 -64 -104.5 -106.5t-136.5 -78.5t-212 -36q-151 0 -259.5 61.5zM1015 630q25 0 31.5 16t6.5 58q0 106 -85 172t-222 66q-116 0 -216 -58.5t-164.5 -138t-72.5 -133.5zM641 1187q-13 13 -15 31q0 34 32 64l221 222q28 28 46.5 38t41.5 10 q25 0 40.5 -14.5t15.5 -38.5q0 -23 -13.5 -44.5t-42.5 -48.5l-220 -196q-20 -21 -37 -28.5t-36 -7.5q-20 0 -33 13z" />
<glyph unicode="&#xea;" horiz-adv-x="1292" d="M338.5 53.5q-108.5 61.5 -165 164.5t-56.5 225q0 167 82.5 312.5t226.5 231t320 85.5q127 0 227.5 -46t155.5 -128.5t55 -191.5q0 -104 -30 -153t-101 -49l-784 -17q-4 -38 -4 -52q0 -134 93 -220.5t240 -86.5q87 0 154 26t108 59.5t103 93.5q18 18 42 18q25 0 48 -17 t23 -41q0 -27 -25 -54q-57 -64 -104.5 -106.5t-136.5 -78.5t-212 -36q-151 0 -259.5 61.5zM1015 630q25 0 31.5 16t6.5 58q0 106 -85 172t-222 66q-116 0 -216 -58.5t-164.5 -138t-72.5 -133.5zM975 1204q-119 213 -154 213q-16 0 -69.5 -45.5t-155.5 -143.5 q-42 -42 -74 -42q-20 0 -36 16t-16 39q0 28 29 54q29 21 67 61q100 91 164 140.5t106 49.5q54 0 95.5 -48.5t106.5 -150.5l44 -71q13 -16 13 -31q0 -27 -22 -48t-50 -21q-33 0 -48 28z" />
<glyph unicode="&#xeb;" horiz-adv-x="1292" d="M338.5 53.5q-108.5 61.5 -165 164.5t-56.5 225q0 167 82.5 312.5t226.5 231t320 85.5q127 0 227.5 -46t155.5 -128.5t55 -191.5q0 -104 -30 -153t-101 -49l-784 -17q-4 -38 -4 -52q0 -134 93 -220.5t240 -86.5q87 0 154 26t108 59.5t103 93.5q18 18 42 18q25 0 48 -17 t23 -41q0 -27 -25 -54q-57 -64 -104.5 -106.5t-136.5 -78.5t-212 -36q-151 0 -259.5 61.5zM1015 630q25 0 31.5 16t6.5 58q0 106 -85 172t-222 66q-116 0 -216 -58.5t-164.5 -138t-72.5 -133.5zM461 1230q-26 26 -26 67q0 55 39.5 92.5t93.5 37.5q42 0 70 -26t28 -66 q0 -52 -41.5 -91.5t-93.5 -39.5q-44 0 -70 26zM962 1230q-27 26 -27 67q0 55 40 92.5t95 37.5q42 0 69 -25t27 -65q0 -52 -41 -92.5t-93 -40.5q-43 0 -70 26z" />
<glyph unicode="&#xec;" horiz-adv-x="655" d="M178 30q-19 22 -13 58l178 889q6 38 31 59t63 21q37 0 56 -21t13 -59l-187 -891q-6 -36 -29 -57t-58 -21t-54 22zM524.5 1171q-12.5 7 -27.5 26l-133 180q-24 36 -24 56q0 32 22 54t50 22q35 0 68 -50l121 -179q21 -27 22 -50q0 -27 -21 -46.5t-49 -19.5q-16 0 -28.5 7z " />
<glyph unicode="&#xed;" horiz-adv-x="655" d="M178 30q-19 22 -13 58l178 889q6 38 31 59t63 21q37 0 56 -21t13 -59l-187 -891q-6 -36 -29 -57t-58 -21t-54 22zM325 1166.5q-14 13.5 -14 35.5q0 16 12 36t34 38l191 169q32 30 52 41t38 11q24 0 39 -15t15 -39q0 -44 -52 -85l-207 -170q-42 -35 -72 -35 q-22 0 -36 13.5z" />
<glyph unicode="&#xee;" horiz-adv-x="655" d="M178 30q-19 22 -13 58l178 889q6 38 31 59t63 21q37 0 56 -21t13 -59l-187 -891q-6 -36 -29 -57t-58 -21t-54 22zM649 1204q-119 213 -154 213q-16 0 -69.5 -45.5t-155.5 -143.5q-42 -42 -74 -42q-20 0 -36 16t-16 39q0 28 29 54q29 21 67 61q100 91 164 140.5t106 49.5 q54 0 95.5 -48.5t106.5 -150.5l44 -71q13 -16 13 -31q0 -27 -22 -48t-50 -21q-33 0 -48 28z" />
<glyph unicode="&#xef;" horiz-adv-x="655" d="M178 30q-19 22 -13 58l178 889q6 38 31 59t63 21q37 0 56 -21t13 -59l-187 -891q-6 -36 -29 -57t-58 -21t-54 22zM135 1230q-26 26 -26 67q0 55 39.5 92.5t93.5 37.5q42 0 70 -26t28 -66q0 -52 -41.5 -91.5t-93.5 -39.5q-44 0 -70 26zM636 1230q-27 26 -27 67 q0 55 40 92.5t95 37.5q42 0 69 -25t27 -65q0 -52 -41 -92.5t-93 -40.5q-43 0 -70 26z" />
<glyph unicode="&#xf0;" horiz-adv-x="1282" d="M1146 964q32 -137 32 -266q0 -205 -75 -363t-214 -244.5t-329 -86.5q-134 0 -235.5 58.5t-156.5 156.5t-55 213q0 170 79 311.5t218.5 225.5t308.5 84q132 0 238 -56q-28 69 -58 127q-48 82 -110 142l-189 -96q-30 -14 -52 -14q-32 0 -46.5 18t-10.5 48t43 50l151 77 q-69 48 -125 68q-30 12 -30 42q0 31 25 59t61 28q26 0 71 -23q98 -48 155 -92l190 98q21 10 36 10q25 0 43.5 -16t18.5 -40q0 -25 -14.5 -40.5t-43.5 -32.5l-130 -67q63 -62 109 -139q63 -103 95 -240zM797.5 214.5q101.5 74.5 155.5 199.5t54 276q0 29 -2 45 q-46 94 -120 140t-166 46q-119 0 -221.5 -72t-163.5 -185.5t-61 -231.5q0 -129 77.5 -210.5t209.5 -81.5q136 0 237.5 74.5z" />
<glyph unicode="&#xf1;" horiz-adv-x="1156" d="M966 981q81 -82 81 -239q0 -72 -21 -201.5t-67 -379.5l-17 -94q-4 -29 -28.5 -47t-60.5 -18q-38 0 -57 18t-15 47l17 94q37 213 63 371t26 208q0 91 -33 137t-110 46q-120 0 -210.5 -89.5t-140.5 -227.5q-40 -108 -60 -243l-54 -303q-4 -29 -26.5 -44.5t-60.5 -15.5 q-40 0 -57.5 17t-13.5 43q4 34 9 46q73 447 108 705q2 12 3 33q0 25 -9 51t-23 60q-4 12 -4 20q0 28 31 51t61 23q27 0 50 -40q14 -24 29 -72t11 -70l-9 -38q52 102 142 168t224 66q141 0 222 -82zM395.5 1196q-12.5 14 -12.5 38q0 28 25 53q61 60 104.5 85t97.5 25 q96 0 177 -45q12 -7 36 -20.5t40 -19.5t30 -6q27 0 66 35q34 32 59 32q21 0 35.5 -17t14.5 -40q0 -30 -23 -52q-52 -42 -94 -62t-84 -20q-47 0 -114 38l-42 21q-10 4 -47.5 21.5t-65.5 17.5q-20 0 -40 -14t-58 -50q-40 -34 -69 -34q-23 0 -35.5 14z" />
<glyph unicode="&#xf2;" horiz-adv-x="1238" d="M208 107.5q-141 107.5 -141 339.5q0 169 78 314.5t220.5 232t321.5 86.5q142 0 254 -56.5t175.5 -166t63.5 -265.5q0 -172 -76 -305.5t-216 -210t-324 -76.5q-215 0 -356 107.5zM806.5 189.5q102.5 59.5 156.5 165t54 237.5q0 165 -91 260t-239 95q-133 0 -236.5 -68 t-161 -183.5t-57.5 -248.5q0 -170 96 -243.5t236 -73.5t242.5 59.5zM814.5 1171q-12.5 7 -27.5 26l-133 180q-24 36 -24 56q0 32 22 54t50 22q35 0 68 -50l121 -179q21 -27 22 -50q0 -27 -21 -46.5t-49 -19.5q-16 0 -28.5 7z" />
<glyph unicode="&#xf3;" horiz-adv-x="1238" d="M208 107.5q-141 107.5 -141 339.5q0 169 78 314.5t220.5 232t321.5 86.5q142 0 254 -56.5t175.5 -166t63.5 -265.5q0 -172 -76 -305.5t-216 -210t-324 -76.5q-215 0 -356 107.5zM806.5 189.5q102.5 59.5 156.5 165t54 237.5q0 165 -91 260t-239 95q-133 0 -236.5 -68 t-161 -183.5t-57.5 -248.5q0 -170 96 -243.5t236 -73.5t242.5 59.5zM616 1166.5q-14 13.5 -14 35.5q0 16 12 36t34 38l191 169q32 30 52 41t38 11q24 0 39 -15t15 -39q0 -44 -52 -85l-207 -170q-42 -35 -72 -35q-22 0 -36 13.5z" />
<glyph unicode="&#xf4;" horiz-adv-x="1238" d="M208 107.5q-141 107.5 -141 339.5q0 169 78 314.5t220.5 232t321.5 86.5q142 0 254 -56.5t175.5 -166t63.5 -265.5q0 -172 -76 -305.5t-216 -210t-324 -76.5q-215 0 -356 107.5zM806.5 189.5q102.5 59.5 156.5 165t54 237.5q0 165 -91 260t-239 95q-133 0 -236.5 -68 t-161 -183.5t-57.5 -248.5q0 -170 96 -243.5t236 -73.5t242.5 59.5zM939 1204q-119 213 -154 213q-16 0 -69.5 -45.5t-155.5 -143.5q-42 -42 -74 -42q-20 0 -36 16t-16 39q0 28 29 54q29 21 67 61q100 91 164 140.5t106 49.5q54 0 95.5 -48.5t106.5 -150.5l44 -71 q13 -16 13 -31q0 -27 -22 -48t-50 -21q-33 0 -48 28z" />
<glyph unicode="&#xf5;" horiz-adv-x="1238" d="M208 107.5q-141 107.5 -141 339.5q0 169 78 314.5t220.5 232t321.5 86.5q142 0 254 -56.5t175.5 -166t63.5 -265.5q0 -172 -76 -305.5t-216 -210t-324 -76.5q-215 0 -356 107.5zM806.5 189.5q102.5 59.5 156.5 165t54 237.5q0 165 -91 260t-239 95q-133 0 -236.5 -68 t-161 -183.5t-57.5 -248.5q0 -170 96 -243.5t236 -73.5t242.5 59.5zM425.5 1196q-12.5 14 -12.5 38q0 28 25 53q61 60 104.5 85t97.5 25q96 0 177 -45q12 -7 36 -20.5t40 -19.5t30 -6q27 0 66 35q34 32 59 32q21 0 35.5 -17t14.5 -40q0 -30 -23 -52q-52 -42 -94 -62t-84 -20 q-47 0 -114 38l-42 21q-10 4 -47.5 21.5t-65.5 17.5q-20 0 -40 -14t-58 -50q-40 -34 -69 -34q-23 0 -35.5 14z" />
<glyph unicode="&#xf6;" horiz-adv-x="1238" d="M208 107.5q-141 107.5 -141 339.5q0 169 78 314.5t220.5 232t321.5 86.5q142 0 254 -56.5t175.5 -166t63.5 -265.5q0 -172 -76 -305.5t-216 -210t-324 -76.5q-215 0 -356 107.5zM806.5 189.5q102.5 59.5 156.5 165t54 237.5q0 165 -91 260t-239 95q-133 0 -236.5 -68 t-161 -183.5t-57.5 -248.5q0 -170 96 -243.5t236 -73.5t242.5 59.5zM425 1230q-26 26 -26 67q0 55 39.5 92.5t93.5 37.5q42 0 70 -26t28 -66q0 -52 -41.5 -91.5t-93.5 -39.5q-44 0 -70 26zM926 1230q-27 26 -27 67q0 55 40 92.5t95 37.5q42 0 69 -25t27 -65q0 -52 -41 -92.5 t-93 -40.5q-43 0 -70 26z" />
<glyph unicode="&#xf7;" d="M571 838q-25 25 -25 61q0 52 40 89.5t86 37.5q40 0 68.5 -25.5t28.5 -62.5q0 -50 -41 -87.5t-93 -37.5q-39 0 -64 25zM203.5 566q-13.5 12 -13.5 28q0 29 40 72q43 48 96.5 73.5t124.5 25.5q94 0 195 -49q64 -32 150 -31q29 0 49 7.5t52 23.5q16 10 34 18t36 8 q23 0 35.5 -17t12.5 -35q0 -19 -19 -37t-51 -41q-28 -18 -81 -38t-97 -20q-52 0 -95.5 14t-97.5 42q-35 16 -63.5 24t-65.5 8q-40 0 -73 -11t-63 -39q-38 -38 -75 -38q-17 0 -30.5 12zM474.5 306q-27.5 27 -27.5 66q0 48 45 86.5t92 38.5q38 0 65.5 -27t27.5 -65 q0 -52 -40.5 -89t-93.5 -37q-41 0 -68.5 27z" />
<glyph unicode="&#xf8;" horiz-adv-x="1242" d="M1221 1150q13 -18 11 -41q-6 -26 -24 -39l-143 -137q119 -129 119 -341q0 -172 -76 -305.5t-216 -210t-324 -76.5q-225 0 -355 108l-127 -122q-28 -28 -56 -28q-19 0 -34.5 14t-15.5 32q0 28 24 52l136 132q-70 102 -69 259q0 169 78 314.5t220.5 232t322.5 86.5 q167 0 292 -77l140 135q30 30 60 30q24 0 37 -18zM261 305l614 594q-79 48 -183 48q-134 0 -237.5 -68t-161 -183.5t-57.5 -248.5q0 -86 25 -142zM955 825l-634 -612q90 -83 247 -83q140 0 242.5 59.5t156.5 165t54 237.5q1 137 -66 233z" />
<glyph unicode="&#xf9;" horiz-adv-x="1142" d="M911 230q-4 -30 -4 -40q0 -38 12 -68t12 -38q0 -24 -28 -47t-50 -23q-44 0 -73.5 41t-29.5 87v17q-60 -77 -152 -118t-197 -41q-287 0 -286 313q0 58 22 190t47 270q33 174 39 217q4 28 29 44.5t59 16.5q36 0 56 -17t15 -44q-12 -73 -23.5 -134.5t-19.5 -111.5 q-24 -128 -44 -248t-20 -171q0 -98 41 -145.5t125 -47.5q279 0 372 512l62 348q6 34 30 52.5t60 18.5q38 0 56.5 -18.5t14.5 -52.5zM740.5 1171q-12.5 7 -27.5 26l-133 180q-24 36 -24 56q0 32 22 54t50 22q35 0 68 -50l121 -179q21 -27 22 -50q0 -27 -21 -46.5t-49 -19.5 q-16 0 -28.5 7z" />
<glyph unicode="&#xfa;" horiz-adv-x="1142" d="M911 230q-4 -30 -4 -40q0 -38 12 -68t12 -38q0 -24 -28 -47t-50 -23q-44 0 -73.5 41t-29.5 87v17q-60 -77 -152 -118t-197 -41q-287 0 -286 313q0 58 22 190t47 270q33 174 39 217q4 28 29 44.5t59 16.5q36 0 56 -17t15 -44q-12 -73 -23.5 -134.5t-19.5 -111.5 q-24 -128 -44 -248t-20 -171q0 -98 41 -145.5t125 -47.5q279 0 372 512l62 348q6 34 30 52.5t60 18.5q38 0 56.5 -18.5t14.5 -52.5zM541 1166.5q-14 13.5 -14 35.5q0 16 12 36t34 38l191 169q32 30 52 41t38 11q24 0 39 -15t15 -39q0 -44 -52 -85l-207 -170q-42 -35 -72 -35 q-22 0 -36 13.5z" />
<glyph unicode="&#xfb;" horiz-adv-x="1142" d="M911 230q-4 -30 -4 -40q0 -38 12 -68t12 -38q0 -24 -28 -47t-50 -23q-44 0 -73.5 41t-29.5 87v17q-60 -77 -152 -118t-197 -41q-287 0 -286 313q0 58 22 190t47 270q33 174 39 217q4 28 29 44.5t59 16.5q36 0 56 -17t15 -44q-12 -73 -23.5 -134.5t-19.5 -111.5 q-24 -128 -44 -248t-20 -171q0 -98 41 -145.5t125 -47.5q279 0 372 512l62 348q6 34 30 52.5t60 18.5q38 0 56.5 -18.5t14.5 -52.5zM865 1204q-119 213 -154 213q-16 0 -69.5 -45.5t-155.5 -143.5q-42 -42 -74 -42q-20 0 -36 16t-16 39q0 28 29 54q29 21 67 61 q100 91 164 140.5t106 49.5q54 0 95.5 -48.5t106.5 -150.5l44 -71q13 -16 13 -31q0 -27 -22 -48t-50 -21q-33 0 -48 28z" />
<glyph unicode="&#xfc;" horiz-adv-x="1142" d="M911 230q-4 -30 -4 -40q0 -38 12 -68t12 -38q0 -24 -28 -47t-50 -23q-44 0 -73.5 41t-29.5 87v17q-60 -77 -152 -118t-197 -41q-287 0 -286 313q0 58 22 190t47 270q33 174 39 217q4 28 29 44.5t59 16.5q36 0 56 -17t15 -44q-12 -73 -23.5 -134.5t-19.5 -111.5 q-24 -128 -44 -248t-20 -171q0 -98 41 -145.5t125 -47.5q279 0 372 512l62 348q6 34 30 52.5t60 18.5q38 0 56.5 -18.5t14.5 -52.5zM351 1230q-26 26 -26 67q0 55 39.5 92.5t93.5 37.5q42 0 70 -26t28 -66q0 -52 -41.5 -91.5t-93.5 -39.5q-44 0 -70 26zM852 1230 q-27 26 -27 67q0 55 40 92.5t95 37.5q42 0 69 -25t27 -65q0 -52 -41 -92.5t-93 -40.5q-43 0 -70 26z" />
<glyph unicode="&#xfd;" horiz-adv-x="1090" d="M203.5 -519q-17.5 22 -13.5 53q4 18 11 29l58 107q186 340 240 447q-74 54 -150 198.5t-125 323t-49 332.5v28q0 18 23 40t67 22q32 0 41 -13.5t11 -42.5q10 -192 52 -352t96.5 -268t104.5 -151l111 240q166 359 238 539q12 31 29 43t49 12q77 0 79 -63q0 -11 -6 -23 q-117 -277 -194.5 -449t-175.5 -360q-88 -169 -191.5 -358t-165.5 -299q-32 -57 -84 -57q-38 0 -55.5 22zM541 1166.5q-14 13.5 -14 35.5q0 16 12 36t34 38l191 169q32 30 52 41t38 11q24 0 39 -15t15 -39q0 -44 -52 -85l-207 -170q-42 -35 -72 -35q-22 0 -36 13.5z" />
<glyph unicode="&#xfe;" horiz-adv-x="1228" d="M899.5 1029q107.5 -47 178.5 -147.5t71 -246.5q0 -191 -76 -334.5t-219.5 -221t-337.5 -77.5q-77 0 -177.5 34.5t-161.5 82.5q-27 -153 -50 -262.5t-56 -232.5q-8 -32 -33.5 -49.5t-63.5 -17.5q-31 0 -48.5 19t-11.5 52q15 89 88 420q26 111 96 504q79 462 159 899 q6 36 29 57t57 21q35 0 57 -19t16 -49l-93 -512q72 54 174.5 90.5t183.5 36.5q111 0 218.5 -47zM764.5 199.5q106.5 65.5 163 180.5t56.5 255q0 155 -90 232.5t-213 77.5q-85 0 -168 -38t-141.5 -86t-82.5 -81l-40 -232q-30 -163 -44 -249q8 -25 58 -55.5t120 -50t133 -19.5 q142 0 248.5 65.5z" />
<glyph unicode="&#xff;" horiz-adv-x="1090" d="M203.5 -519q-17.5 22 -13.5 53q4 18 11 29l58 107q186 340 240 447q-74 54 -150 198.5t-125 323t-49 332.5v28q0 18 23 40t67 22q32 0 41 -13.5t11 -42.5q10 -192 52 -352t96.5 -268t104.5 -151l111 240q166 359 238 539q12 31 29 43t49 12q77 0 79 -63q0 -11 -6 -23 q-117 -277 -194.5 -449t-175.5 -360q-88 -169 -191.5 -358t-165.5 -299q-32 -57 -84 -57q-38 0 -55.5 22zM351 1230q-26 26 -26 67q0 55 39.5 92.5t93.5 37.5q42 0 70 -26t28 -66q0 -52 -41.5 -91.5t-93.5 -39.5q-44 0 -70 26zM852 1230q-27 26 -27 67q0 55 40 92.5t95 37.5 q42 0 69 -25t27 -65q0 -52 -41 -92.5t-93 -40.5q-43 0 -70 26z" />
<glyph unicode="&#x131;" horiz-adv-x="655" d="M178 30q-19 22 -13 58l178 889q6 38 31 59t63 21q37 0 56 -21t13 -59l-187 -891q-6 -36 -29 -57t-58 -21t-54 22z" />
<glyph unicode="&#x152;" horiz-adv-x="2047" d="M2125 1389q0 -42 -24 -62.5t-54 -16.5q-77 8 -119 10t-142 2q-217 0 -275 -4q-11 -120 -34 -271q-12 -84 -42 -226l217 -2q56 -2 136 -2q62 0 63 -52q0 -34 -23.5 -59t-59.5 -25q-84 0 -137 2l-227 2q-24 -108 -53 -240t-66 -274q34 -2 56.5 -4t39.5 -4q108 -10 221 -10 q52 0 111 4q77 6 121 8q54 2 54 -44q0 -37 -20 -56t-50 -23q-34 -6 -112.5 -9t-144.5 -1l-116 4q-39 4 -336 12q-46 2 -62.5 10.5t-16.5 33.5q0 69 94 69l44 167q-67 -133 -211 -220.5t-319 -87.5q-148 0 -260.5 68.5t-175 201t-62.5 320.5q0 234 94 437t259 322.5 t368 119.5q201 0 325 -114.5t143 -294.5l6 50q10 78 14.5 128t6.5 64q-34 0 -34 42q0 77 82 79l98 4q276 7 280 7q144 0 309 -15q34 -2 34 -50zM966.5 270.5q127.5 109.5 195.5 279t68 345.5q0 211 -100 337t-271 126q-155 0 -281.5 -102.5t-198.5 -272.5t-72 -363 q0 -229 101.5 -344t266.5 -115q164 0 291.5 109.5z" />
<glyph unicode="&#x153;" horiz-adv-x="2180" d="M1856.5 1022.5q102.5 -51.5 161.5 -136t59 -182.5q0 -19 -4 -56q-11 -65 -38.5 -96.5t-89.5 -33.5l-779 -16q-6 -34 -6 -61q0 -78 39 -150t112.5 -116.5t171.5 -44.5q117 0 193 43.5t122 87.5t59 56q32 30 61 30q20 0 37 -18t17 -40q0 -24 -19 -46q-102 -122 -215 -183.5 t-255 -61.5q-157 0 -273 77.5t-155 197.5q-74 -131 -208.5 -203t-300.5 -72q-124 0 -233.5 49t-179 145.5t-69.5 227.5q0 194 77.5 343.5t222 232t338.5 82.5q96 0 187 -37.5t155.5 -106.5t87.5 -157q78 132 207.5 214.5t289.5 82.5q125 0 227.5 -51.5zM892 264.5 q123 134.5 123 357.5q0 150 -86.5 237.5t-226.5 87.5t-247.5 -72.5t-167.5 -193.5t-60 -261q0 -142 93.5 -216t225.5 -74q223 0 346 134.5zM1439 897.5q-90 -44.5 -154.5 -119t-90.5 -158.5l730 18q4 37 4 58q0 104 -85 175t-218 71q-96 0 -186 -44.5z" />
<glyph unicode="&#x178;" horiz-adv-x="1367" d="M546 30q-18 24 -12 56l101 599q-95 36 -205 274q-48 102 -71.5 184.5t-55.5 224.5q-2 6 -2 21q0 36 29 55t69 19q56 0 73 -74q34 -135 54 -203t50 -150q32 -83 76 -152t81 -69q36 0 100 60.5t144 164.5q64 84 116.5 163t124.5 194q23 38 35.5 50t35.5 12q36 0 63 -18 t27 -46q0 -20 -13 -39q-140 -247 -261 -401q-96 -120 -178.5 -187.5t-130.5 -82.5l-98 -595q-17 -84 -94 -84q-40 0 -58 24zM568 1648q-26 26 -26 67q0 55 39.5 92.5t93.5 37.5q42 0 70 -26t28 -66q0 -52 -41.5 -91.5t-93.5 -39.5q-44 0 -70 26zM1069 1648q-27 26 -27 67 q0 55 40 92.5t95 37.5q42 0 69 -25t27 -65q0 -52 -41 -92.5t-93 -40.5q-43 0 -70 26z" />
<glyph unicode="&#x2c6;" horiz-adv-x="1164" d="M905 1204q-50 87 -102.5 150t-73.5 63q-18 0 -90.5 -54.5t-156.5 -134.5q-41 -42 -73 -42q-20 0 -36 16t-16 39q0 28 30 54l43 38q100 90 184 151.5t130 61.5q45 0 90 -38.5t78 -83.5t99 -148q12 -16 13 -31q0 -27 -22 -48t-49 -21q-34 0 -48 28z" />
<glyph unicode="&#x2dc;" horiz-adv-x="885" d="M188 1219q-15 15 -15 41q0 20 15 42q46 54 112.5 83t142.5 29q60 0 98.5 -9.5t84.5 -27.5q40 -16 70.5 -25t76.5 -9q67 0 94 25q38 27 60 27q24 0 41.5 -16.5t17.5 -39.5q0 -27 -27 -54q-80 -79 -213 -79q-50 0 -92 10t-98 29q-54 19 -83.5 26t-65.5 7q-58 0 -106 -40 q-42 -35 -69 -34q-29 0 -44 15z" />
<glyph unicode="&#x300;" horiz-adv-x="0" d="M194.5 1171q-12.5 7 -27.5 26l-133 180q-24 36 -24 56q0 32 22 54t50 22q35 0 68 -50l121 -179q21 -27 22 -50q0 -27 -21 -46.5t-49 -19.5q-16 0 -28.5 7z" />
<glyph unicode="&#x301;" horiz-adv-x="0" d="M0 1166.5q-14 13.5 -14 35.5q0 16 12 36t34 38l191 169q32 30 52 41t38 11q24 0 39 -15t15 -39q0 -44 -52 -85l-207 -170q-42 -35 -72 -35q-22 0 -36 13.5z" />
<glyph unicode="&#x302;" horiz-adv-x="0" d="M319 1204q-119 213 -154 213q-16 0 -69.5 -45.5t-155.5 -143.5q-42 -42 -74 -42q-20 0 -36 16t-16 39q0 28 29 54q29 21 67 61q100 91 164 140.5t106 49.5q54 0 95.5 -48.5t106.5 -150.5l44 -71q13 -16 13 -31q0 -27 -22 -48t-50 -21q-33 0 -48 28z" />
<glyph unicode="&#x303;" horiz-adv-x="0" d="M-194.5 1196q-12.5 14 -12.5 38q0 28 25 53q61 60 104.5 85t97.5 25q96 0 177 -45q12 -7 36 -20.5t40 -19.5t30 -6q27 0 66 35q34 32 59 32q21 0 35.5 -17t14.5 -40q0 -30 -23 -52q-52 -42 -94 -62t-84 -20q-47 0 -114 38l-42 21q-10 4 -47.5 21.5t-65.5 17.5 q-20 0 -40 -14t-58 -50q-40 -34 -69 -34q-23 0 -35.5 14z" />
<glyph unicode="&#x308;" horiz-adv-x="0" d="M-195 1230q-26 26 -26 67q0 55 39.5 92.5t93.5 37.5q42 0 70 -26t28 -66q0 -52 -41.5 -91.5t-93.5 -39.5q-44 0 -70 26zM306 1230q-27 26 -27 67q0 55 40 92.5t95 37.5q42 0 69 -25t27 -65q0 -52 -41 -92.5t-93 -40.5q-43 0 -70 26z" />
<glyph unicode="&#x30a;" horiz-adv-x="0" d="M-22 1178q-58 56 -58 138q0 69 36 127.5t98.5 93t135.5 34.5q81 0 135.5 -58.5t54.5 -135.5q0 -106 -76.5 -180.5t-184.5 -74.5q-83 0 -141 56zM232.5 1269q42.5 41 42.5 99q0 40 -28 69.5t-74 29.5q-58 0 -100.5 -43t-42.5 -98q0 -42 28 -70t74 -28q58 0 100.5 41z" />
<glyph unicode="&#x2000;" horiz-adv-x="994" />
<glyph unicode="&#x2001;" horiz-adv-x="1989" />
<glyph unicode="&#x2002;" horiz-adv-x="994" />
<glyph unicode="&#x2003;" horiz-adv-x="1989" />
<glyph unicode="&#x2004;" horiz-adv-x="663" />
<glyph unicode="&#x2005;" horiz-adv-x="497" />
<glyph unicode="&#x2006;" horiz-adv-x="331" />
<glyph unicode="&#x2007;" horiz-adv-x="331" />
<glyph unicode="&#x2008;" horiz-adv-x="248" />
<glyph unicode="&#x2009;" horiz-adv-x="397" />
<glyph unicode="&#x200a;" horiz-adv-x="110" />
<glyph unicode="&#x2010;" horiz-adv-x="881" d="M144.5 719.5q-12.5 15.5 -12.5 38.5q0 40 19.5 64t53.5 24q192 -4 257 -4q182 0 319 11q70 6 70 -53q0 -38 -26.5 -65t-68.5 -29l-81 -2q-146 -4 -253 -4q-69 0 -107 2l-140 2q-18 0 -30.5 15.5z" />
<glyph unicode="&#x2011;" horiz-adv-x="881" d="M144.5 719.5q-12.5 15.5 -12.5 38.5q0 40 19.5 64t53.5 24q192 -4 257 -4q182 0 319 11q70 6 70 -53q0 -38 -26.5 -65t-68.5 -29l-81 -2q-146 -4 -253 -4q-69 0 -107 2l-140 2q-18 0 -30.5 15.5z" />
<glyph unicode="&#x2012;" horiz-adv-x="881" d="M144.5 719.5q-12.5 15.5 -12.5 38.5q0 40 19.5 64t53.5 24q192 -4 257 -4q182 0 319 11q70 6 70 -53q0 -38 -26.5 -65t-68.5 -29l-81 -2q-146 -4 -253 -4q-69 0 -107 2l-140 2q-18 0 -30.5 15.5z" />
<glyph unicode="&#x2013;" horiz-adv-x="1710" d="M194 723q-30 2 -45 18.5t-15 41.5q0 36 29 62t64 22q249 -18 415 -19q133 0 371 9q58 2 170 4t202 2l114 -2q36 -2 110 -2q33 0 52 -15t19 -40q0 -34 -29.5 -59.5t-65.5 -25.5q-64 0 -98 2l-108 2q-186 0 -420 -11q-272 -8 -409 -8q-145 1 -356 19z" />
<glyph unicode="&#x2014;" horiz-adv-x="3231" d="M192 731q-56 11 -56 58q0 32 27 59t64 25q148 -12 670 -12q185 0 380.5 1t393.5 3q201 2 399 3t391 1q211 0 469 -8q180 -4 227 -4q20 0 32 -16t12 -41q0 -34 -21 -59t-49 -25l-183 5q-333 6 -408 6q-199 0 -409.5 -1t-428.5 -3q-438 -6 -847 -7q-546 1 -663 15z" />
<glyph unicode="&#x2018;" horiz-adv-x="572" d="M523 1262.5q41 -30.5 41 -92.5q0 -69 -50 -118t-129 -51q-68 0 -106 35.5t-38 97.5q0 92 64 187.5t140 159.5q27 20 46 21q14 0 27.5 -9.5t13.5 -25.5q0 -21 -22 -44q-82 -82 -119 -134q12 4 39 4q52 0 93 -30.5zM455 1100q29 26 29 62q0 25 -17.5 41.5t-48.5 16.5 q-38 0 -66.5 -25t-28.5 -63q0 -23 17 -39.5t51 -18.5q35 0 64 26z" />
<glyph unicode="&#x2019;" horiz-adv-x="574" d="M562 1477q40 -36 40 -98q0 -88 -61 -182t-146 -163q-24 -20 -44 -21q-21 0 -32.5 11.5t-11.5 24.5q0 20 23 43q5 4 47.5 46t82.5 92q-28 -10 -53 -10q-48 0 -90 33.5t-42 91.5q0 74 51.5 121t126.5 47q69 0 109 -36zM373 1312q18 -17 49 -17q38 0 66 25t28 63 q0 26 -17 41t-54 15q-32 0 -61 -26t-29 -59q0 -25 18 -42z" />
<glyph unicode="&#x201a;" horiz-adv-x="574" d="M339.5 255q40.5 -38 40.5 -100q0 -90 -53.5 -167.5t-151.5 -175.5q-23 -23 -43 -23q-17 0 -30.5 9.5t-13.5 26.5q0 25 25 47q78 72 119 134q-26 -10 -44 -10q-56 0 -94 33t-38 88q0 78 49.5 127t126.5 49q67 0 107.5 -38zM203 73q38 0 66 25t28 63q0 28 -18 43t-54 15 q-31 0 -58 -23t-27 -60q1 -63 63 -63z" />
<glyph unicode="&#x201c;" horiz-adv-x="943" d="M893 1273.5q40 -32.5 40 -97.5q0 -71 -51 -118t-130 -47q-65 0 -103.5 37.5t-38.5 104.5q0 85 57.5 169t147.5 167q23 24 44 24q16 0 30 -10t14 -26q0 -20 -26 -46q-8 -8 -49 -46t-72 -88q23 9 48 9q49 0 89 -32.5zM518 1260.5q40 -32.5 40 -96.5q0 -74 -52.5 -116.5 t-125.5 -46.5q-67 0 -105.5 35.5t-38.5 97.5q0 90 56.5 173.5t146.5 173.5q20 20 45 21q15 0 28.5 -9.5t13.5 -25.5q0 -21 -22 -44q-6 -4 -49.5 -45t-78.5 -91q26 6 48 6q54 0 94 -32.5zM825.5 1108q27.5 24 27.5 60q0 27 -17 43.5t-49 16.5q-39 0 -66 -25t-27 -63 q0 -25 17.5 -40.5t53.5 -15.5q33 0 60.5 24zM448 1100q30 26 30 62q0 25 -17.5 41.5t-49.5 16.5q-38 0 -66 -24t-28 -62q0 -54 68 -60q33 0 63 26z" />
<glyph unicode="&#x201d;" horiz-adv-x="947" d="M936 1477q39 -36 39 -98q0 -90 -57 -172.5t-149 -172.5q-23 -20 -44 -21q-20 0 -33 12.5t-13 25.5q0 23 23 41q20 19 60 59.5t69 80.5q-25 -12 -56 -12q-48 0 -86.5 29t-38.5 88q0 76 50 124t127 52q70 0 109 -36zM557 1466.5q41 -37.5 41 -100.5q0 -90 -53.5 -167 t-151.5 -175q-24 -23 -44 -23q-16 0 -30 9t-14 26q0 19 25 48q82 82 117 134q-26 -10 -42 -10q-56 0 -94 33t-38 88q0 78 49.5 126.5t126.5 48.5q67 0 108 -37.5zM746 1312q17 -17 48 -17q39 0 67 25t28 63q0 24 -17 40t-53 16q-32 0 -61 -26t-29 -59q0 -25 17 -42z M420 1285q38 0 66 25t28 63q0 27 -18 42.5t-53 15.5q-32 0 -59 -23t-27 -61q1 -62 63 -62z" />
<glyph unicode="&#x201e;" horiz-adv-x="947" d="M716.5 265.5q39.5 -35.5 39.5 -98.5q0 -163 -204 -344q-24 -21 -44 -22q-20 0 -33 13t-13 25q0 23 22 42q21 18 60.5 59.5t69.5 79.5q-25 -12 -56 -12q-48 0 -87 29.5t-39 87.5q0 76 50 126t128 50q67 0 106.5 -35.5zM339.5 255q40.5 -38 40.5 -100q0 -90 -53.5 -167.5 t-151.5 -175.5q-23 -23 -43 -23q-17 0 -30.5 9.5t-13.5 26.5q0 25 25 47q78 72 119 134q-26 -10 -44 -10q-56 0 -94 33t-38 88q0 78 49.5 127t126.5 49q67 0 107.5 -38zM526.5 100.5q16.5 -16.5 47.5 -16.5q40 0 68 25t28 62q0 24 -17.5 40t-52.5 16q-32 0 -61 -26t-29 -59 q0 -25 16.5 -41.5zM203 73q38 0 66 25t28 63q0 28 -18 43t-54 15q-31 0 -58 -23t-27 -60q1 -63 63 -63z" />
<glyph unicode="&#x2022;" horiz-adv-x="1190" d="M541.5 165q-48.5 44 -50.5 114q-34 -49 -81 -79.5t-91 -30.5q-98 0 -158.5 58t-60.5 153q0 84 60.5 142t158.5 76q-27 27 -42.5 65.5t-15.5 76.5q0 113 72 181.5t189 68.5q86 0 137 -51.5t51 -136.5q25 64 80.5 103.5t122.5 39.5q90 0 145.5 -58t55.5 -150 q0 -81 -63 -149t-166 -95q28 -21 45 -51.5t17 -61.5q0 -117 -76.5 -188t-202.5 -71q-78 0 -126.5 44zM783.5 282q43.5 39 43.5 107q0 16 -14.5 38t-37.5 41q-8 8 -8 23q0 27 11 46t31 23q77 20 125 65t48 96q0 48 -26.5 77t-68.5 29q-45 0 -88 -32t-70 -85q-8 -16 -22.5 -27 t-31.5 -11q-25 0 -39 11t-12 27l4 44q0 50 -28 81.5t-74 31.5q-64 0 -104 -34.5t-40 -92.5q0 -32 11.5 -61t28.5 -46q15 -10 15 -31q0 -36 -15 -57t-40 -21q-67 0 -106.5 -36.5t-39.5 -94.5q0 -46 26.5 -74t70.5 -28q37 0 74.5 23t60.5 62q10 15 24 23t28 8q21 0 32.5 -8 t11.5 -23q0 -60 29 -96.5t75 -36.5q72 0 115.5 39zM494 457q-28 27 -28 73q0 56 35.5 91t94.5 35q52 0 83 -29t31 -77q0 -54 -38.5 -87t-101.5 -33q-48 0 -76 27zM628 505.5q18 16.5 18 44.5q0 20 -14 32t-36 12q-30 0 -49 -18t-19 -46q0 -18 15 -29.5t39 -11.5 q28 0 46 16.5z" />
<glyph unicode="&#x2026;" horiz-adv-x="1923" d="M148.5 33.5q-33.5 33.5 -33.5 85.5q0 65 42 103.5t108 38.5q54 0 87 -31t33 -84q0 -64 -42 -105t-109 -41q-52 0 -85.5 33.5zM787.5 33.5q-33.5 33.5 -33.5 85.5q0 65 41.5 103.5t109.5 38.5q54 0 86.5 -31t32.5 -84q0 -64 -42 -105t-109 -41q-52 0 -85.5 33.5z M1435 33.5q-34 33.5 -34 85.5q0 65 42 103.5t109 38.5q54 0 86.5 -31t32.5 -84q0 -64 -42 -105t-108 -41q-52 0 -86 33.5z" />
<glyph unicode="&#x202f;" horiz-adv-x="397" />
<glyph unicode="&#x2039;" horiz-adv-x="753" d="M377.5 381q-86.5 64 -151.5 151.5t-65 152.5q0 70 100 167t228.5 170.5t195.5 73.5q40 0 40 -45q0 -59 -63 -82q-88 -32 -176.5 -88t-146 -112.5t-57.5 -83.5t35.5 -74t95 -94t128.5 -74q48 -15 49 -56q0 -30 -20 -50t-46 -20q-60 0 -146.5 64z" />
<glyph unicode="&#x203a;" horiz-adv-x="753" d="M132.5 331q-13.5 14 -13.5 34q0 26 19 46.5t54 31.5q81 27 164 81t137.5 108.5t54.5 77.5q0 30 -41 79.5t-107.5 100t-142.5 79.5q-20 10 -30 20t-10 26q0 34 18 57.5t44 23.5q61 0 155 -64.5t164 -153.5t70 -151q0 -67 -93 -165t-213.5 -171.5t-196.5 -73.5 q-19 0 -32.5 14z" />
<glyph unicode="&#x205f;" horiz-adv-x="497" />
<glyph unicode="&#x2081;" horiz-adv-x="594" d="M434.5 710.5q20.5 -20.5 14.5 -58.5l-150 -867q-4 -30 -27 -46t-61 -16q-29 0 -45 12t-16 31q0 7 5 19l134 769q-32 -38 -67.5 -76.5t-81.5 -80.5q-24 -21 -52 -21q-21 0 -36.5 14.5t-15.5 35.5q0 13 13 31.5t31 35.5l70 75q50 50 129 136q30 27 95 27q40 0 60.5 -20.5z " />
<glyph unicode="&#x2082;" horiz-adv-x="789" d="M583 -168.5q17 -15.5 17 -38.5q0 -34 -22 -54.5t-58 -20.5l-81 3q-72 6 -186 6q-52 0 -145 -4l-118 -2q-32 0 -47.5 15t-6.5 41q37 106 137 206.5t272 206.5q213 135 213 290q0 65 -41 102.5t-112 37.5t-127.5 -53t-68.5 -128q-8 -54 -84 -54q-60 0 -61 52q0 77 48.5 148 t126.5 115t166 44q90 0 159 -37t107.5 -96t38.5 -131q0 -89 -43 -161t-106.5 -124.5t-157.5 -112.5q-126 -82 -185 -129t-95 -103q50 2 150 2l157 -2q42 -2 107 -3q29 0 46 -15.5z" />
<glyph unicode="&#x2083;" horiz-adv-x="885" d="M709.5 152.5q30.5 -50.5 30.5 -112.5q0 -82 -46 -156t-137 -121.5t-222 -47.5q-155 0 -253 67.5t-98 201.5q0 35 6 74q8 42 28 62t57 20q61 0 61 -52q0 -17 -2 -35.5t-2 -42.5q0 -75 44.5 -123t166.5 -48q111 0 182 52.5t71 148.5q0 69 -50.5 96t-131.5 31 q-32 2 -43.5 14.5t-7.5 41.5q6 36 23 51t46 15q107 6 164.5 59t57.5 141q0 60 -40 95.5t-102 35.5q-90 0 -153.5 -60.5t-57.5 -145.5q2 -23 -21 -40t-63 -17q-33 0 -48.5 16t-15.5 51q0 86 50 159t132.5 117t176.5 44q80 0 146.5 -36t105 -94t38.5 -125q0 -86 -47 -155 t-127 -104q51 -27 81.5 -77.5z" />
<glyph unicode="&#x20ac;" horiz-adv-x="1695" d="M856.5 1236q-156.5 -120 -248.5 -309l582 9q36 0 52 -8.5t16 -30.5q0 -38 -21 -55t-67 -17l-606 -10q-34 -100 -40 -197l612 8q68 4 68 -36t-21 -57t-65 -17l-594 -8q19 -188 143.5 -281t316.5 -93q148 0 252.5 53.5t163.5 136.5t75 180q6 32 32 51t62 19q33 0 51 -16.5 t14 -41.5q-48 -255 -223 -387.5t-427 -132.5q-153 0 -286.5 55t-223 169.5t-109.5 283.5l-183 -2q-38 0 -54.5 8t-16.5 29q0 39 22 56t70 19l158 2q2 98 32 197l-157 -2q-44 0 -60.5 11t-10.5 43t27 44t63 12l173 2q65 159 180 287.5t265.5 202.5t314.5 74q188 0 300 -67.5 t185 -195.5q12 -20 13 -44q0 -38 -26 -61t-58 -23q-48 0 -65 40q-60 118 -141.5 169t-205.5 51q-177 0 -333.5 -120z" />
<glyph unicode="&#x2122;" horiz-adv-x="1365" d="M1142 857.5q-18 9.5 -16 21.5q4 24 8 41.5t6 32.5q28 139 36 203q10 87 10 126q0 38 -10 38q-18 0 -55 -61.5t-70 -138.5q-21 -44 -63 -44q-37 0 -41 44q-13 80 -31.5 139t-38.5 59q-6 0 -13 -24t-13.5 -48t-11.5 -36l-10 -44l-8 -44q-29 -142 -44 -237q-2 -14 -22 -23 t-45 -9q-24 0 -36 9t-10 23q30 172 61 312q36 150 69 217t81 67q30 0 61 -29t54 -83.5t27 -127.5q44 102 112 170t109 68q38 0 54 -26t16 -89q0 -56 -13 -154q-25 -172 -52 -325q-8 -37 -61 -37q-22 0 -40 9.5zM343.5 874q-13.5 11 -10.5 31l52 239q8 50 26 128 q26 113 24 107q-59 2 -162 -4q-31 2 -30 37q0 20 12 36.5t32 18.5q67 8 229 8h182q31 0 31 -28q0 -27 -12.5 -46.5t-33.5 -19.5q-12 0 -61.5 1t-67.5 -1l-13 -50q-30 -111 -46 -197q-11 -54 -19 -91.5t-12 -60.5q-14 -58 -17 -81q-2 -17 -22 -27.5t-43 -10.5q-25 0 -38.5 11 z" />
<glyph unicode="&#x25fc;" horiz-adv-x="1064" d="M0 1065h1065v-1065h-1065v1065z" />
</font>
</defs>
</svg>
