<?xml version="1.0" standalone="no"?>
<!DOCTYPE svg PUBLIC "-//W3C//DTD SVG 1.1//EN" "http://www.w3.org/Graphics/SVG/1.1/DTD/svg11.dtd" >
<svg xmlns="http://www.w3.org/2000/svg" xmlns:xlink="http://www.w3.org/1999/xlink" version="1.1">
<metadata></metadata>
<defs>
<font id="malilight" horiz-adv-x="1106" >
<font-face units-per-em="2048" ascent="1638" descent="-410" />
<missing-glyph horiz-adv-x="626" />
<glyph unicode="&#xfb01;" horiz-adv-x="1367" d="M750 1466.5q73 -79.5 73 -242.5q0 -30 -12.5 -43t-41.5 -13q-56 0 -57 52q0 102 -33 163.5t-125 61.5q-113 0 -153 -88.5t-40 -274.5l2 -255q60 2 185 2q52 0 52 -50q0 -44 -48 -44l-92 -2q-69 0 -95 -2q8 -414 9 -677q0 -54 -55 -54q-54 0 -54 52q-2 297 -10 675 q-62 0 -96 -2l-53 -2q-54 0 -54 50q0 46 54 48l147 4v44q-4 167 -4 213q0 222 71 343t230 121q127 0 200 -79.5zM1027.5 1245q-32.5 31 -32.5 77q0 48 32.5 80.5t82.5 32.5q48 0 79 -31t31 -80q0 -48 -33 -79t-81 -31q-46 0 -78.5 31zM1031.5 26q-15.5 14 -15.5 36l20 928 q0 59 60 59q56 0 56 -59l-22 -926q-2 -25 -16 -38.5t-40 -13.5q-27 0 -42.5 14z" />
<glyph unicode="&#xfb02;" horiz-adv-x="1298" d="M750 1466.5q73 -79.5 73 -242.5q0 -30 -12.5 -43t-41.5 -13q-56 0 -57 52q0 102 -33 163.5t-125 61.5q-113 0 -153 -88.5t-40 -274.5l2 -255q60 2 185 2q52 0 52 -50q0 -44 -48 -44l-92 -2q-69 0 -95 -2q8 -414 9 -677q0 -54 -55 -54q-54 0 -54 52q-2 297 -10 675 q-62 0 -96 -2l-53 -2q-54 0 -54 50q0 46 54 48l147 4v44q-4 167 -4 213q0 222 71 343t230 121q127 0 200 -79.5zM1012.5 32q-15.5 14 -15.5 43l-13 1523q0 28 17 42t44 14q54 0 55 -56l10 -1523q0 -56 -56 -57q-26 0 -41.5 14z" />
<glyph horiz-adv-x="0" />
<glyph unicode="&#xd;" horiz-adv-x="626" />
<glyph horiz-adv-x="0" />
<glyph horiz-adv-x="0" />
<glyph unicode=" "  horiz-adv-x="626" />
<glyph unicode="&#x09;" horiz-adv-x="626" />
<glyph unicode="&#xa0;" horiz-adv-x="626" />
<glyph unicode="!" horiz-adv-x="544" d="M241 382l-14 1065q0 26 13 40.5t33 14.5q42 0 42 -55l8 -1056q0 -28 -11 -44.5t-33 -16.5q-38 0 -38 52zM195 33.5q-32 33.5 -32 77.5q0 42 32 73t76 31q42 0 76.5 -32.5t34.5 -71.5q0 -42 -34.5 -76.5t-76.5 -34.5q-44 0 -76 33.5z" />
<glyph unicode="&#x22;" horiz-adv-x="697" d="M167 1044q0 122 2 184l2 233q0 14 14 22t34 8q21 0 33.5 -8t12.5 -22l-2 -421q0 -37 -50 -37q-46 0 -46 41zM432 1044q0 116 5 417q0 14 12.5 22t30.5 8q24 0 37 -8t13 -22q0 -70 -2 -103l-2 -318q0 -37 -48 -37q-46 0 -46 41z" />
<glyph unicode="#" horiz-adv-x="1278" d="M961 833l-66 -438h139q26 0 38 -13t12 -33q0 -21 -13.5 -34.5t-36.5 -13.5h-155l-40 -261q-8 -44 -54 -44q-18 0 -29.5 12t-9.5 28l39 265h-359l-37 -261q-9 -46 -48 -46q-26 0 -37 17t-7 43l36 247h-112q-54 0 -54 44q0 20 15 34t39 14h124l64 446h-112q-54 0 -54 44 q0 24 14 37t40 13l125 -2l50 343q6 56 52 55q48 0 42 -61l-48 -337l363 -4l59 368q2 19 15.5 29.5t30.5 10.5q24 0 36 -15.5t8 -41.5l-55 -353h84q52 0 53 -48q0 -44 -53 -44h-98zM815 487l52 348l-363 2l-65 -444l361 2q11 66 15 92z" />
<glyph unicode="$" horiz-adv-x="1110" d="M889 108.5q-110 -98.5 -287 -104.5v-186q0 -37 -38 -37q-40 0 -40 27q0 136 2 198q-125 10 -217 72t-141 157t-49 202q-2 35 10.5 52t43.5 17q46 0 50 -55q2 -142 84 -232.5t219 -110.5l4 579q-115 32 -198 67t-150 115t-67 207q0 113 54 201.5t149.5 139t209.5 58.5v184 q0 12 12 21.5t28 9.5t28 -8.5t12 -18.5v-190q113 -8 198 -60.5t133.5 -136.5t48.5 -184q0 -37 -9.5 -52.5t-38.5 -15.5q-27 0 -40 10t-15 40q0 117 -70.5 208t-206.5 97v-516v-96q165 -46 278 -131.5t113 -263.5q0 -165 -110 -263.5zM304 898q81 -65 226 -109v57 q0 376 -2 529q-139 -14 -222 -94.5t-83 -202.5q0 -115 81 -180zM769.5 148q63.5 42 90.5 98.5t27 106.5q0 125 -69.5 195t-209.5 116q0 -293 -4 -560q102 2 165.5 44z" />
<glyph unicode="%" horiz-adv-x="1706" d="M490 8.5q-16 14.5 -16 33.5q0 12 10 33l598 1462q14 36 54 36q26 0 41 -12.5t15 -29.5q0 -8 -12 -46l-588 -1445q-11 -26 -24.5 -36t-37.5 -10t-40 14.5zM287 1003.5q-78 78.5 -78 193.5q0 116 79 191t201 75q125 0 197 -80.5t72 -192.5q0 -115 -76 -190t-195 -75 q-122 0 -200 78.5zM613 1063q47 46 47 125q0 82 -49 132t-124 50q-72 0 -123 -47t-51 -131q0 -81 50.5 -128t127.5 -47q75 0 122 46zM1080.5 142q-63.5 38 -98.5 101.5t-35 136.5q0 114 78 190t199 76q86 0 147.5 -40t93.5 -103.5t32 -133.5q0 -111 -77 -188t-196 -77 q-80 0 -143.5 38zM1349.5 246q47.5 49 47.5 123q0 78 -47.5 132.5t-125.5 54.5q-73 0 -122 -50.5t-49 -129.5q0 -77 48 -128t123 -51q78 0 125.5 49z" />
<glyph unicode="&#x26;" horiz-adv-x="1489" d="M1377 104q0 -18 -14 -33t-34 -15q-12 0 -47 13q-173 82 -231 115q-88 -76 -199.5 -117t-227.5 -41q-137 0 -237 60t-151.5 154.5t-51.5 194.5q0 113 62.5 223.5t154.5 178.5q-90 38 -142 120.5t-52 180.5q0 90 45 160t122 109.5t172 39.5q150 0 245.5 -89.5t95.5 -239.5 q0 -132 -79 -197.5t-206 -99.5q79 -163 162.5 -274.5t202.5 -203.5q25 -21 59 -40q88 108 88 238q0 98 -38 159q-8 8 -8 23q0 17 17.5 30.5t38.5 13.5q16 0 28 -8.5t24 -27.5q20 -35 32 -91t12 -108q0 -153 -104 -279l102 -48l127 -61q32 -12 32 -40zM374 974.5 q61 -65.5 165 -69.5q119 23 182.5 65.5t63.5 147.5q0 108 -70.5 173t-166.5 65q-56 0 -111 -27t-89.5 -78t-34.5 -119q0 -92 61 -157.5zM806 150.5q85 31.5 155 87.5q-30 16 -76 51q-113 87 -209 214t-164 286q-115 -56 -168 -161.5t-53 -197.5q0 -73 37 -144t113.5 -119 t188.5 -48q91 0 176 31.5z" />
<glyph unicode="'" horiz-adv-x="429" d="M179.5 1013.5q-12.5 10.5 -12.5 28.5q0 124 2 188l2 226q0 16 13 25.5t33 9.5q24 0 36 -9t12 -26l-2 -218q-2 -64 -2 -198q0 -37 -48 -37q-21 0 -33.5 10.5z" />
<glyph unicode="(" horiz-adv-x="684" d="M498.5 -267q-9.5 2 -20.5 10q-175 163 -274.5 397t-99.5 495q0 182 45 363.5t131.5 328t210.5 223.5q18 13 37 13q21 0 36.5 -14t15.5 -36q0 -17 -9 -29.5t-27 -25.5t-30 -23q-153 -121 -227 -332.5t-74 -446.5q0 -297 94 -486.5t225 -326.5q38 -38 38 -62 q0 -19 -16.5 -34.5t-33.5 -15.5q-12 0 -21.5 2z" />
<glyph unicode=")" horiz-adv-x="684" d="M120 -256q-16 13 -16 37q0 18 9.5 30t27.5 24t30 23q155 126 228 342t73 458q0 211 -50 366.5t-117 250.5t-152 181q-18 18 -28 32t-10 27q0 20 15.5 35t34.5 15q15 0 22 -2t18 -13q180 -153 277.5 -388t97.5 -504q0 -180 -44.5 -359.5t-132.5 -326.5t-209 -229 q-17 -12 -37 -12q-21 0 -37 13z" />
<glyph unicode="*" horiz-adv-x="1031" d="M883 855q0 -19 -12 -33.5t-29 -14.5t-31 8l-241 140l2 -255q0 -19 -14.5 -30.5t-33.5 -11.5q-44 0 -44 42l-2 253l-221 -126q-12 -6 -27 -6q-17 0 -29.5 13.5t-12.5 34.5q0 20 19 34l234 133l-270 148q-25 17 -25 38q0 16 13.5 31t30.5 15q12 0 29 -10l257 -142l-4 273 q0 50 48 50q26 0 36 -11t10 -39l2 -275l232 133q29 13 44 13q18 0 29.5 -16t11.5 -30q0 -26 -32 -40l-255 -138l265 -145q20 -9 20 -36z" />
<glyph unicode="+" d="M999.5 686.5q11.5 -11.5 11.5 -36.5q0 -46 -58 -46l-351 4v-345q0 -27 -10 -41.5t-36 -14.5q-28 0 -38 14.5t-10 45.5v341q-113 2 -362 2q-48 0 -48 48q0 46 50 46l358 -2v336q0 46 50 46q27 0 36.5 -11.5t9.5 -34.5v-338l351 -2q35 0 46.5 -11.5z" />
<glyph unicode="," horiz-adv-x="622" d="M422 219.5q46 -71.5 46 -181.5q0 -80 -39.5 -152t-103.5 -115.5t-133 -43.5q-21 0 -33.5 10t-12.5 27t8.5 28t20.5 11q90 0 154 71.5t64 163.5q0 14 -2 20q-34 -54 -112 -54q-62 0 -100.5 41t-38.5 101q0 58 42.5 101.5t108.5 43.5q85 0 131 -71.5zM343 92q22 25 22 61 q0 32 -23 51t-60 19q-32 0 -52.5 -24t-20.5 -53q0 -34 20 -56.5t53 -22.5q39 0 61 25z" />
<glyph unicode="-" horiz-adv-x="881" d="M95 735.5q-11 16.5 -11 41.5q0 26 11 39t33 13q97 -4 261 -4q199 0 348 10q36 2 48.5 -12t12.5 -44q0 -23 -16.5 -38.5t-46.5 -17.5q-161 -4 -610 -4q-19 0 -30 16.5z" />
<glyph unicode="." horiz-adv-x="609" d="M226 40.5q-29 30.5 -29 76.5q0 50 33 82.5t77 32.5q42 0 74.5 -34.5t32.5 -80.5q0 -42 -33.5 -74.5t-79.5 -32.5t-75 30.5z" />
<glyph unicode="/" horiz-adv-x="1056" d="M190 0v8q0 19 7 40l568 1732q8 20 18.5 28t29.5 8q48 0 54 -42q2 -4 2 -13q0 -11 -8 -31l-568 -1722q-15 -44 -48 -44q-47 0 -55 36z" />
<glyph unicode="0" horiz-adv-x="1328" d="M345.5 119.5q-126.5 91.5 -188 237t-61.5 303.5q0 165 58.5 331.5t186 278t321.5 111.5t323 -108.5t188 -274t59 -338.5q0 -165 -66.5 -310t-196.5 -233.5t-313 -88.5q-184 0 -310.5 91.5zM905.5 197q105.5 72 160 193.5t54.5 269.5q0 159 -53.5 302t-155.5 230.5 t-245 87.5q-144 0 -248.5 -89.5t-156.5 -231.5t-52 -299q0 -144 52 -266.5t151.5 -195.5t239.5 -73q148 0 253.5 72z" />
<glyph unicode="1" horiz-adv-x="895" d="M628 56q0 -52 -58 -52q-27 0 -39.5 13t-12.5 39v1200q-75 -96 -239 -295q-10 -10 -32 -10q-26 0 -39.5 12t-13.5 34q0 20 25 50q130 157 257 323q26 38 72 38q33 0 55.5 -19t22.5 -54z" />
<glyph unicode="2" horiz-adv-x="1140" d="M1000.5 98.5q14.5 -14.5 14.5 -36.5q0 -25 -15.5 -38.5t-38.5 -13.5q-28 0 -119 4q-220 6 -282 6q-232 0 -397 -8q-20 0 -31 11t-9 29q26 159 146 299t337 291q275 191 275 421q0 133 -91.5 222.5t-235.5 89.5q-94 0 -163.5 -45t-104.5 -117.5t-35 -153.5q0 -24 -13 -34 t-41 -10q-32 0 -44.5 16t-12.5 49q0 100 53.5 191t151.5 146.5t227 55.5q128 0 223.5 -54.5t148.5 -148.5t53 -209q0 -278 -327 -505q-146 -98 -264.5 -216.5t-150.5 -224.5q159 4 305 4q169 0 401 -6q25 0 39.5 -14.5z" />
<glyph unicode="3" horiz-adv-x="1244" d="M1080.5 610q61.5 -102 61.5 -225q0 -86 -50 -175t-153.5 -148.5t-255.5 -59.5q-269 0 -424 118t-155 396q0 74 57 74q56 0 56 -58q0 -231 117 -330.5t330 -99.5q125 0 208 41t122.5 104.5t39.5 128.5q0 164 -87.5 242t-280.5 78q-46 0 -46 46q0 56 44 56q173 0 255 71 t82 194q0 64 -36 127.5t-103.5 103t-157.5 39.5q-86 0 -160 -36.5t-119 -102.5t-45 -147q0 -17 11 -76q6 -23 -8 -38.5t-42 -15.5q-21 0 -34.5 7t-21.5 27q-17 52 -18 108q0 104 59 190t157.5 134t216.5 48q108 0 203.5 -47t154 -131.5t58.5 -189.5q0 -111 -56.5 -194.5 t-152.5 -118.5q112 -38 173.5 -140z" />
<glyph unicode="4" horiz-adv-x="1280" d="M1211 559q17 -13 17 -41q0 -46 -46 -52q-165 -16 -244 -21l-17 -399q0 -26 -15 -40t-41 -14q-30 0 -43 17t-11 43l16 389q-192 -4 -317 -4q-245 0 -387 37q-39 8 -39 50q0 21 12 46q136 272 267.5 474.5t313.5 384.5q15 14 37 14q23 0 38 -15.5t15 -34.5q0 -20 -34 -58 q-175 -179 -306.5 -370.5t-209.5 -382.5q-2 -4 -2 -12q0 -14 23 -16q104 -18 310 -20q148 0 283 7l22 501q0 54 52 54q60 0 56 -64l-19 -484q70 4 232 20q20 4 37 -9z" />
<glyph unicode="5" horiz-adv-x="1210" d="M227 124.5q-110 124.5 -110 339.5q0 60 56 60q61 0 61 -56q0 -171 74 -267.5t258 -96.5q192 0 303 91.5t111 272.5q0 188 -98.5 295.5t-287.5 107.5q-54 0 -98.5 -8t-144.5 -32l-48 -12q-16 -4 -26 -4q-27 0 -45.5 16.5t-16.5 41.5q26 367 30 572q165 -8 399 -8 q83 0 200 4q91 4 131 4q48 0 49 -48q0 -25 -15 -39.5t-38 -14.5q-84 0 -129 -2l-198 -2q-126 0 -293 10q-6 -119 -11 -199t-10 -135l-5 -68v-7q0 -18 16 -19q2 0 22 4q163 46 249 46q238 0 360 -139.5t122 -367.5q0 -223 -142.5 -343.5t-381.5 -120.5q-233 0 -343 124.5z " />
<glyph unicode="6" horiz-adv-x="1256" d="M920.5 774.5q107.5 -64.5 159.5 -165.5t52 -214q0 -180 -131.5 -286.5t-354.5 -106.5q-268 0 -404 158.5t-136 477.5q0 231 70.5 408.5t202 276t311.5 98.5q157 0 253.5 -76.5t165.5 -212.5q12 -25 13 -40q0 -23 -18 -36.5t-39 -13.5q-16 0 -27.5 10.5t-26.5 33.5 q-38 72 -74 121t-100 82t-158 33q-229 0 -348.5 -190t-119.5 -526q52 108 176.5 170.5t264.5 62.5q161 0 268.5 -64.5zM929 185.5q90 85.5 90 209.5q0 81 -36 160.5t-118 133t-207 53.5q-94 0 -182.5 -31.5t-148.5 -102.5t-60 -182q0 -146 99.5 -236t287.5 -90 q185 0 275 85.5z" />
<glyph unicode="7" horiz-adv-x="1182" d="M1072 710q0 -24 -14 -38t-39 -14q-119 0 -182 -2q-87 -276 -227 -622q-6 -17 -24 -25.5t-34 -8.5q-26 0 -41.5 14t-15.5 32q0 8 4 21q106 241 220 587q-60 -2 -187 -2q-58 0 -58 50q0 25 17 38.5t41 13.5l220 2q77 255 77 380q0 108 -62.5 166t-229.5 58 q-102 0 -192 -15.5t-207 -42.5q-26 -7 -43 5.5t-17 39.5q0 36 43 50q70 24 179 43t234 19q197 0 304 -72.5t107 -235.5q0 -134 -76 -393q104 4 142 5q61 -1 61 -53z" />
<glyph unicode="8" horiz-adv-x="1302" d="M1105.5 721.5q98.5 -113.5 98.5 -272.5q0 -142 -71.5 -242.5t-194.5 -152.5t-278 -52q-159 0 -287 55.5t-202.5 160.5t-74.5 250q0 98 56.5 186t145.5 147.5t184 81.5q-69 34 -114 96.5t-45 150.5q0 96 48.5 167t125.5 107.5t163 36.5q142 0 232 -81.5t90 -217.5 q0 -83 -38.5 -149t-104.5 -108q168 -50 266.5 -163.5zM500.5 1287.5q-65.5 -57.5 -65.5 -159.5q0 -98 66.5 -156.5t164.5 -58.5q92 0 150.5 64.5t58.5 160.5t-57.5 151.5t-151.5 55.5q-100 0 -165.5 -57.5zM900.5 150.5q98.5 50.5 146 128.5t47.5 166q0 102 -55 186.5 t-154.5 134t-222.5 49.5q-125 0 -229.5 -49.5t-165 -128.5t-60.5 -165q0 -106 52 -189.5t154.5 -133t246.5 -49.5q142 0 240.5 50.5z" />
<glyph unicode="9" horiz-adv-x="1267" d="M921 1364q123 -79 188 -223t65 -334q0 -236 -61.5 -417t-185 -283.5t-303.5 -102.5q-161 0 -279 57.5t-179.5 154.5t-61.5 212q0 26 14 43.5t39 17.5q26 0 41 -15.5t15 -43.5q0 -89 47 -163.5t139 -118.5t219 -44q230 0 341 195.5t115 527.5q-50 -146 -174.5 -211.5 t-269.5 -65.5q-229 0 -356.5 116.5t-127.5 342.5q0 123 60.5 222.5t169 155.5t248.5 56q174 0 297 -79zM818 685.5q89 41.5 145 120.5t56 188q0 100 -52 181t-143 125.5t-200 44.5q-121 0 -203 -50t-123 -128.5t-41 -159.5q0 -363 373 -363q99 0 188 41.5z" />
<glyph unicode=":" horiz-adv-x="642" d="M211 678q-42 43 -42 107q0 61 42 102.5t106 41.5q70 0 111.5 -41.5t41.5 -102.5q0 -67 -40.5 -108.5t-112.5 -41.5q-64 0 -106 43zM379 725q20 23 20 62q0 30 -25 53t-59 23q-27 0 -49.5 -23t-22.5 -53q0 -37 22 -61t54 -24q40 0 60 23zM216 85q-41 43 -41 107 q0 62 40 104.5t108 42.5t109.5 -43t41.5 -104q0 -68 -39.5 -109t-111.5 -41q-66 0 -107 43zM405 192q0 33 -24 53t-62 20q-31 0 -51.5 -23t-20.5 -50q0 -34 22 -57.5t50 -23.5q86 -1 86 81z" />
<glyph unicode=";" horiz-adv-x="661" d="M222.5 678q-40.5 43 -40.5 107q0 61 41.5 102.5t106.5 41.5q68 0 110 -41.5t42 -102.5q0 -67 -40.5 -108.5t-111.5 -41.5q-67 0 -107.5 43zM276 839q-23 -24 -23 -52q0 -39 22 -62t58 -23q39 0 58.5 23t19.5 62q0 30 -25 53t-61 23q-26 0 -49 -24zM449 219.5 q46 -71.5 46 -181.5q0 -80 -38.5 -152t-103 -115.5t-134.5 -43.5q-20 0 -33 10t-13 27t9.5 28t20.5 11q58 0 109 32.5t80.5 85.5t29.5 113q0 18 -2 24q-14 -25 -43.5 -39.5t-69.5 -14.5q-62 0 -101 41t-39 101q0 58 43 101.5t107 43.5q86 0 132 -71.5zM372 92q23 25 23 61 q0 32 -23 51t-61 19q-32 0 -53.5 -24t-21.5 -53q0 -34 19.5 -56.5t55.5 -22.5q38 0 61 25z" />
<glyph unicode="&#x3c;" d="M493 380q-186 74 -288.5 135t-102.5 125t109.5 130.5t298.5 140.5q92 38 261 92t194 54q18 0 30 -13.5t12 -32.5q0 -21 -13.5 -32.5t-44.5 -21.5q-13 -4 -134 -40t-272 -92q-130 -48 -235 -106.5t-105 -83.5q0 -23 100 -71t231 -98l402 -155q44 -12 44 -52 q0 -18 -13.5 -29t-35.5 -11q-40 0 -438 161z" />
<glyph unicode="=" d="M131.5 745.5q-16.5 10.5 -16.5 31.5q0 52 84 52l718 6q30 0 50.5 -14t20.5 -36q0 -43 -75 -43l-740 -7q-25 0 -41.5 10.5zM115 504q0 50 82 52l728 20q30 2 49.5 -11t19.5 -37q0 -41 -75 -46l-746 -22q-58 0 -58 44z" />
<glyph unicode="&#x3e;" d="M141.5 239.5q-13.5 9.5 -13.5 27.5q0 38 41 54l80 32q209 82 325 123q132 48 228.5 98t96.5 74q0 23 -96.5 76t-234.5 109q-153 63 -277 97.5t-134 36.5q-29 8 -44 21t-15 33q0 18 11.5 31t32.5 13q25 0 194.5 -53t263.5 -91q189 -73 300 -140t111 -131 q0 -62 -103.5 -124t-291.5 -135q-23 -9 -84 -34q-137 -52 -238.5 -89.5t-120.5 -37.5q-18 0 -31.5 9.5z" />
<glyph unicode="?" horiz-adv-x="1085" d="M504 437q0 111 49 190t147 182q83 88 125 152.5t42 145.5q0 144 -86.5 233t-228.5 89q-333 0 -333 -283q0 -69 44 -123t115 -54q30 0 42 -12t12 -40q0 -20 -15.5 -31t-40.5 -11q-67 0 -125.5 38t-92 100.5t-33.5 132.5q0 174 112 275.5t311 101.5q131 0 224 -59.5 t141 -154.5t48 -202q0 -104 -47 -179t-143 -178q-88 -92 -130.5 -159t-42.5 -154q0 -59 -50 -59q-44 0 -44 59zM479.5 59q-30.5 29 -30.5 71q0 39 30.5 67t72.5 28q38 0 67 -28t29 -67q0 -42 -28 -71t-68 -29q-42 0 -72.5 29z" />
<glyph unicode="@" horiz-adv-x="1840" d="M1310 1173q161 -85 253.5 -233t92.5 -334q0 -119 -38.5 -237t-111.5 -196.5t-173 -78.5q-73 0 -119 39.5t-58 98.5q-38 -55 -104 -85t-153 -30q-203 0 -278 130.5t-75 274.5q0 111 42 203t124 146t191 54q91 0 161 -38.5t112 -103.5l8 78q6 40 52 40q34 0 47.5 -16 t9.5 -39q-25 -146 -31 -208q-6 -63 -10 -86q-24 -172 -24 -237q0 -67 21 -99t73 -32q77 0 129.5 64.5t77.5 162t25 191.5q0 163 -75 291t-212 200.5t-310 72.5q-190 0 -343.5 -86t-240 -235t-86.5 -333q0 -186 88.5 -330t247 -224.5t363.5 -80.5q72 0 126 10.5t154 34.5l8 3 q14 0 26 -13.5t12 -30.5t-11.5 -28.5t-36.5 -21.5q-50 -21 -132.5 -32.5t-164.5 -11.5q-223 0 -401.5 95t-280 261t-101.5 373t101.5 377t276.5 267.5t389 97.5q198 0 359 -85zM1135 443q9 67 21 187q4 50 -33 98.5t-96.5 79.5t-119.5 31t-120 -32t-100.5 -103t-40.5 -180 q0 -135 65.5 -226t197.5 -91q153 0 200 130q17 39 26 106z" />
<glyph unicode="A" horiz-adv-x="1382" d="M1236 28q0 -24 -18 -36t-46 -12q-40 0 -50 32l-109 360l-646 4l-114 -356q-10 -37 -52 -36q-26 0 -43.5 12t-17.5 34q0 2 4 18q171 510 284 855l118 351q42 123 77 177t85 54q46 0 79.5 -49t69.5 -162q123 -395 242 -792h63q23 0 37.5 -15.5t14.5 -38.5q0 -56 -48 -56 h-34l98 -324q6 -12 6 -20zM982 484l-209 708q-20 74 -39.5 115.5t-31.5 41.5q-10 0 -26 -38.5t-43 -120.5l-228 -699z" />
<glyph unicode="B" horiz-adv-x="1258" d="M153 111h46q32 333 31 687q0 315 -7 491q-8 -2 -18.5 -6.5t-16.5 -4.5h-4q-17 0 -28.5 10.5t-11.5 31.5q0 27 18 45t63 36q180 76 387 76q153 0 277 -45t197.5 -134.5t73.5 -217.5q0 -140 -105.5 -228.5t-294.5 -111.5q181 -30 279.5 -129t98.5 -235q0 -185 -147 -282.5 t-371 -97.5l-56 2q-115 6 -159 6l-104 2q-10 -48 -56 -48q-48 0 -55 50l-42 2q-30 2 -40 15t-10 33q1 55 55 53zM385 104q83 0 133 -2q508 -16 508 274q0 153 -136 231t-372 83q-36 2 -54.5 12t-18.5 44q0 29 19.5 40.5t53.5 13.5q230 4 379.5 67.5t149.5 210.5 q0 148 -120 222.5t-311 74.5q-75 0 -152 -9.5t-127 -30.5q6 -203 6 -535q0 -377 -36 -694q50 0 78 -2z" />
<glyph unicode="C" horiz-adv-x="1463" d="M1383.5 550.5q13.5 -13.5 13.5 -44.5q0 -138 -76 -255t-212 -187t-307 -70q-180 0 -338.5 74t-259 230.5t-100.5 395.5q0 235 96.5 416t254 280t339.5 99q129 0 236.5 -55t181.5 -156l-2 149q0 25 14 38.5t42 13.5q25 0 39.5 -14t14.5 -40v-253q0 -32 -14.5 -47.5 t-39.5 -15.5q-21 0 -35.5 7.5t-26.5 25.5q-84 116 -181.5 178.5t-228.5 62.5q-150 0 -283 -89.5t-213.5 -248t-80.5 -353.5q0 -199 86 -332t220.5 -195.5t285.5 -62.5q121 0 230.5 49.5t177.5 141.5t68 213q0 27 14.5 42.5t41.5 15.5q29 0 42.5 -13.5z" />
<glyph unicode="D" horiz-adv-x="1388" d="M1035.5 1259.5q246.5 -171.5 246.5 -507.5q0 -224 -110.5 -389.5t-318 -256t-494.5 -90.5h-152q-32 0 -46.5 13t-14.5 40q0 50 48 50h93l-36 1237h-42q-34 0 -49.5 10.5t-15.5 39.5q0 31 16.5 43t50.5 12h42q12 35 54 34q42 0 52 -39q430 -25 676.5 -196.5zM804 200 q176 75 272 216.5t96 335.5q0 311 -229 445t-578 155l32 -1233q231 6 407 81z" />
<glyph unicode="E" horiz-adv-x="1198" d="M1105 96q0 -26 -11.5 -37t-36.5 -15q-54 -10 -147 -13t-242 -3q-261 0 -486 22q-44 6 -44 50q0 25 11.5 40t30.5 15q25 0 39 -2q34 255 40 570h-42q-54 0 -54 52q0 24 12.5 38t37.5 14h46v6v207q0 210 -4 301q-30 2 -41 13.5t-11 34.5q0 30 16.5 41t45.5 13 q140 13 365 13q291 0 435 -19q25 -4 39 -14.5t14 -35.5t-15 -39.5t-38 -12.5q-192 19 -393 19q-177 0 -307 -11q8 -301 9 -510v-8q52 -2 172 -2q150 -4 202 -4q117 -4 147 -4q45 0 45 -52q0 -54 -45 -55q-26 0 -122 4l-232 7q-116 0 -167 2q-6 -257 -41 -577 q159 -12 369 -12q115 0 179 4t159 14q65 6 65 -54z" />
<glyph unicode="F" horiz-adv-x="1182" d="M1109 1385q0 -25 -13.5 -38.5t-40.5 -11.5q-207 28 -395 27q-113 0 -284 -10q26 -272 27 -560q86 8 221 8q199 0 312 -11q50 -6 50 -56q0 -48 -53 -46q-175 9 -305 9q-139 0 -225 -9q0 -376 -23 -629q-6 -46 -59 -46q-25 0 -40.5 14t-13.5 34q24 257 24 615l-107 -15 q-21 -2 -35.5 11.5t-14.5 38.5q0 23 12.5 39t35.5 18l109 12q-2 324 -28 566q-50 -4 -81 -4q-52 0 -52 52q0 48 54 52l69 4q0 15 -2 29.5t-2 30.5q0 48 56 48q52 0 58 -58l4 -43q174 10 285 11q267 0 407 -28q50 -10 50 -54z" />
<glyph unicode="G" horiz-adv-x="1537" d="M1459 668q0 -25 -15 -38.5t-38 -13.5l-77 2q-16 -614 -527 -614q-213 0 -373 99.5t-244.5 264t-84.5 357.5q0 194 85.5 357t241 260t354.5 97q282 0 457 -201q2 26 3 78q0 58 56 59q26 0 41.5 -11.5t15.5 -28.5q0 -135 -21 -184q-16 -38 -63 -37q-20 0 -34 7t-36 28 q-96 91 -182.5 137.5t-219.5 46.5q-176 0 -308.5 -84.5t-204.5 -226t-72 -306.5t73 -304t205.5 -220t308.5 -81q213 0 313.5 128t106.5 379l-323 6q-30 0 -44 15t-14 38q0 28 18 41t42 13l505 -10q55 -1 55 -53z" />
<glyph unicode="H" horiz-adv-x="1459" d="M1345 656q0 -52 -65 -52l-62 2l14 -550q2 -27 -11 -42.5t-41 -15.5q-56 0 -60 56l-17 552l-740 14l-48 -590q-2 -42 -54 -42q-62 0 -58 52l48 580l-69 2q-26 0 -42.5 14t-16.5 39q0 26 18 39t43 13l75 -2l58 729q2 27 19 41t40 14q30 0 43 -18t11 -46l-58 -720l729 -13 l-21 737q0 28 13.5 44t40.5 16q28 0 43 -16t15 -39l22 -744h64q67 0 67 -54z" />
<glyph unicode="I" horiz-adv-x="914" d="M829 64q0 -54 -52 -54l-635 8q-21 2 -33.5 17t-12.5 38q0 28 14.5 40t35.5 12l261 -4q20 341 30 627t10 627q-52 -2 -130.5 -7.5t-111.5 -7.5l-75 -6q-19 0 -31.5 14.5t-12.5 39.5q0 46 50 53q33 6 155.5 13t210.5 7q207 0 281 -12q24 -4 35 -15t11 -37 q0 -28 -14.5 -41.5t-39.5 -11.5q-10 0 -59.5 5.5t-155.5 5.5q0 -365 -8.5 -650.5t-31.5 -603.5l259 -4q50 -1 50 -53z" />
<glyph unicode="J" horiz-adv-x="1186" d="M1124 1408q0 -50 -50 -50h-136q-8 -216 -9 -606v-211q0 -262 -117.5 -400.5t-320.5 -138.5q-182 0 -297.5 119.5t-115.5 408.5q0 32 11 48t43 16q29 0 42.5 -16t15.5 -48q2 -215 77.5 -318.5t221.5 -103.5q145 0 235.5 104.5t90.5 333.5q0 512 12 812l-173 -6 q-26 0 -40 13.5t-14 38.5q0 23 11 35t31 15q85 8 225 9h127q65 0 84 -2q46 -3 46 -53z" />
<glyph unicode="K" horiz-adv-x="1280" d="M1194 1427.5q16 -15.5 16 -40.5q0 -27 -22 -42q-96 -75 -307 -219q2 2 -131 -90q-164 -108 -268 -171q-33 -23 -68.5 -45t-72.5 -47l68 -67q64 -62 134.5 -128t160.5 -141q119 -102 196 -160t205 -145l37 -28q24 -16 24 -46q0 -25 -16 -40.5t-36 -15.5q-19 0 -36 12 q-215 153 -438 339q-116 96 -191 166.5t-162 163.5q0 -93 -5 -278q-5 -243 -5 -343q0 -60 -58 -60q-56 0 -56 67q0 70 4 282q6 401 6 453q0 167 -2 253l-2 351q0 20 17 35.5t41 15.5q28 0 44 -16t16 -42l2 -538q165 100 386 251q291 197 445 319q16 10 36 10q22 0 38 -15.5z " />
<glyph unicode="L" horiz-adv-x="1079" d="M262.5 34.5q-82.5 36.5 -108.5 125.5t-26 281q0 221 21.5 449t69.5 529q11 50 63 50q29 0 42 -18t9 -50q-57 -369 -76 -556t-19 -406q0 -146 15.5 -212t73.5 -94.5t189 -28.5q102 0 191 13t240 42q31 6 48.5 -9.5t17.5 -43.5q0 -48 -60 -60q-241 -48 -427 -48 q-181 0 -263.5 36.5z" />
<glyph unicode="M" horiz-adv-x="1641" d="M1473 347q2 -96 2 -301q0 -26 -14 -42t-40 -16q-30 0 -44.5 16t-14.5 42q-2 213 -2 612q-2 347 -31.5 524.5t-78.5 177.5q-40 0 -110 -98t-116 -197q-48 -98 -79.5 -215t-61.5 -260q-10 -46 -62 -47q-27 0 -41.5 10.5t-23.5 32.5q-10 28 -31 118q-56 229 -103 345 q-44 113 -110.5 214t-106.5 101q-56 0 -86 -197.5t-34 -487.5l-3 -631q0 -24 -15.5 -37t-43.5 -13q-29 0 -42.5 16t-13.5 40l2 281q4 221 4 344q0 416 54.5 612t163.5 196q85 0 168 -103.5t149.5 -275.5t108.5 -373q36 192 112 366.5t166.5 280t172.5 105.5 q106 0 152.5 -202.5t50.5 -624.5z" />
<glyph unicode="N" horiz-adv-x="1511" d="M1345 1425l-2 -835q0 -236 -12.5 -356.5t-37.5 -163t-71 -42.5q-73 0 -202 172t-333 500q-300 476 -408 612l3 -291q2 -94 3 -286l2 -666q0 -18 -16 -32t-41 -14q-24 0 -41.5 13.5t-17.5 32.5v664q0 197 -2 297l-2 334q0 52 17 80.5t61 28.5q60 0 157 -131.5t264 -396.5 l88 -141q328 -516 448 -643q27 113 26 429v843q0 54 57 54q60 0 60 -62z" />
<glyph unicode="O" horiz-adv-x="1626" d="M457.5 91.5q-156.5 73.5 -253 230t-96.5 392.5q0 219 84.5 392.5t238 271t356.5 97.5t370 -98.5t264.5 -274t97.5 -396.5q0 -230 -101.5 -384.5t-265.5 -229t-352 -74.5q-186 0 -342.5 73.5zM1091.5 186q136.5 61 225.5 192.5t89 333.5q0 188 -79.5 338t-218.5 234 t-312 84q-168 0 -298.5 -80t-203.5 -226.5t-73 -336.5q0 -217 90 -350.5t223.5 -191.5t274.5 -58q146 0 282.5 61z" />
<glyph unicode="P" horiz-adv-x="1244" d="M888.5 1415.5q132.5 -57.5 213 -165.5t80.5 -249q0 -132 -71 -231.5t-195 -152.5t-283 -53q-193 0 -320 74l-6 -590q0 -32 -17 -47t-41 -15q-58 0 -59 70q0 84 4 251q4 205 5 380q0 236 -9 495q-2 14 -2 46l-21 -10q-12 -6 -25 -6q-24 0 -36 20t-12 44q0 26 38 46l52 30 v54q0 35 14.5 52t46.5 17q56 0 56 -40v-27q155 64 307 65q148 0 280.5 -57.5zM847.5 709q103.5 45 158.5 122.5t55 173.5q0 104 -62.5 186.5t-167 128.5t-225.5 46q-136 0 -303 -77v-44q4 -145 4 -188q0 -58 4 -184l2 -133q130 -76 295 -76q136 0 239.5 45z" />
<glyph unicode="Q" horiz-adv-x="1603" d="M1477 104q0 -23 -18 -41.5t-40 -18.5q-26 0 -42 16l-134 134q-95 -80 -217.5 -122t-258.5 -42q-199 0 -348.5 88.5t-231 247t-81.5 365.5q0 232 99.5 402.5t257 260t331.5 89.5q175 0 337 -92t263 -259t101 -382q0 -138 -43.5 -259.5t-125.5 -215.5l130 -129 q21 -18 21 -42zM978.5 171.5q101.5 35.5 183.5 101.5l-176 176q-16 12 -17 31q0 24 23 43.5t46 19.5q17 0 27 -9l180 -177q65 80 101.5 179t36.5 212q0 181 -83.5 325.5t-218 224t-279.5 79.5q-144 0 -278.5 -77.5t-219.5 -224t-85 -344.5q0 -171 69 -306.5t193.5 -212 t285.5 -76.5q110 0 211.5 35.5z" />
<glyph unicode="R" horiz-adv-x="1311" d="M1172 96q0 -26 -17 -46t-39 -20q-26 0 -53 20l-746 502l-2 -508q0 -26 -15 -40t-41 -14q-58 0 -58 72l2 623q0 226 -13 531l-17 -8q-12 -4 -16 -4q-23 0 -33.5 20.5t-10.5 45.5q0 34 44 54l31 15v75q0 52 55 53q25 0 39.5 -11t14.5 -29v-40q98 42 178.5 59t164.5 17 q169 0 295 -52.5t194 -149.5t68 -227q0 -142 -80.5 -239t-212 -145t-284.5 -48q-104 0 -227 38l749 -498q30 -19 30 -46zM481.5 1335q-80.5 -21 -182.5 -67l6 -144q10 -169 12 -372q128 -46 289 -46q203 0 337.5 84.5t134.5 237.5q0 96 -54.5 170t-152.5 116t-223 42 q-86 0 -166.5 -21z" />
<glyph unicode="S" horiz-adv-x="1114" d="M331 63.5q-106 59.5 -159 159.5t-53 222q0 58 56 59q57 0 57 -51q0 -161 96 -253t254 -92q138 0 222.5 66.5t84.5 188.5q0 130 -90.5 200t-268.5 120q-113 32 -197 68t-151 116t-67 209q0 117 60.5 209t163 142t221.5 50q132 0 229.5 -55.5t149 -146.5t51.5 -193 q0 -58 -54 -58q-56 0 -57 52q0 128 -88.5 211t-230.5 83q-153 0 -243 -83t-90 -211q0 -90 48 -145.5t121.5 -86.5t201.5 -69q108 -31 191.5 -72t148.5 -124.5t65 -213.5q0 -165 -117 -263t-304 -98q-145 0 -251 59.5z" />
<glyph unicode="T" horiz-adv-x="1120" d="M1055 1383q0 -25 -13.5 -41t-40.5 -13q-201 16 -373 16q-18 -281 -30 -649q-17 -464 -20 -642q0 -36 -14 -50t-46 -14q-31 0 -45.5 14t-14.5 52q0 90 10 309q16 365 14 329q11 269 32 651q-108 -2 -199.5 -8t-189.5 -15q-25 -4 -40.5 10.5t-15.5 44.5q0 48 44 50 q209 25 481 24q259 0 407 -14q54 -4 54 -54z" />
<glyph unicode="U" horiz-adv-x="1336" d="M1192 706q4 -363 5 -658q0 -52 -57 -52q-29 0 -42.5 15t-13.5 45v211q-62 -117 -184.5 -189t-283.5 -72q-171 0 -278.5 79.5t-153.5 200.5t-46 260q0 148 2 259.5t4 186.5q8 272 9 425q0 48 54 48q58 0 58 -53q0 -100 -3 -225.5t-3 -187.5q-6 -232 -6 -453 q0 -207 98 -320t277 -113q140 0 242.5 68t156 169t53.5 198l-4 353q0 137 -4 522q0 27 11 41.5t41 14.5q60 0 60 -58q0 -245 6 -552z" />
<glyph unicode="V" horiz-adv-x="1334" d="M541 92q-30 56 -82 200.5t-156 492.5l-73 253q-86 289 -113 374q-4 16 -4 19q0 20 18.5 34t43.5 14q36 0 46 -30l100 -340q58 -207 90 -307q92 -305 139.5 -442t75.5 -182.5t57 -45.5q32 2 57 46.5t65.5 175t130.5 448.5l25 85q127 469 151 556q12 30 50 30 q27 0 43.5 -13t16.5 -35q0 -10 -2 -17q-58 -222 -128 -459l-43 -155q-100 -353 -147 -498.5t-75 -203.5q-20 -42 -58 -66t-86 -24q-92 0 -142 90z" />
<glyph unicode="W" horiz-adv-x="1806" d="M498 22q-22 16 -30 45q-29 88 -70 257t-81 340l-32 149q-28 117 -105 405l-48 179q-2 7 -2 24q0 20 15.5 33t42.5 13q23 0 34.5 -10t18.5 -34l38 -147q80 -299 116 -439l48 -209q52 -233 80.5 -348t42.5 -115q12 0 46 71t102 232l51 116q60 144 88 197.5t54 53.5 q29 0 63.5 -58t111.5 -221l46 -94l44 -93q58 -121 81 -163.5t32 -42.5q10 0 34 113t66 332q10 50 22 107.5t24 119.5q50 241 112 502l22 90q8 40 52 40q25 0 43 -14t18 -39q0 -13 -3 -19q-86 -342 -136 -580l-52 -257q-77 -369 -102 -480q-16 -68 -86 -68q-43 0 -89 70 t-142 269l-82 173q-62 146 -73 146q-6 0 -27 -47t-47 -109l-70 -175q-84 -194 -128.5 -262.5t-86.5 -68.5q-34 0 -56 16z" />
<glyph unicode="X" horiz-adv-x="1373" d="M1230 86q14 -19 15 -32q0 -23 -18.5 -40.5t-44.5 -17.5q-25 0 -44 24l-453 613l-447 -597q-24 -32 -61 -32q-23 0 -38.5 17t-15.5 35q0 14 4.5 23t14.5 21q209 273 474 627q-323 439 -470 643q-12 18 -12 34q0 23 17.5 39t45.5 16q14 0 26.5 -11t31.5 -34l432 -593 q289 383 445 593q17 23 28.5 31.5t23.5 8.5q28 0 47 -16.5t19 -36.5q0 -18 -22 -45q-305 -409 -472 -629z" />
<glyph unicode="Y" horiz-adv-x="1319" d="M608 67l-6 616q-56 21 -117 90t-142 198q-70 108 -110.5 196.5t-92.5 225.5q-4 8 -4 17q0 18 17.5 33.5t43.5 15.5q25 0 37.5 -15t22.5 -45q48 -123 85.5 -201t98.5 -177q148 -241 219 -240q38 0 97.5 65t125.5 178q50 84 89 166t98 218q12 27 23.5 37.5t28.5 10.5 q28 0 45 -14.5t17 -35.5q0 -13 -6 -25q-62 -153 -102 -235.5t-94 -174.5q-73 -121 -144 -196t-124 -92l7 -612q0 -62 -57 -63q-56 1 -56 59z" />
<glyph unicode="Z" horiz-adv-x="1367" d="M895.5 57q-86.5 5 -218.5 5q-137 0 -420 -10l-84 -2q-52 0 -73.5 10.5t-21.5 37.5q0 52 77 143.5t271 290.5q170 174 255 266q274 292 350 378t137 167q-271 -27 -437 -27q-127 0 -265 10.5t-249 31.5q-31 8 -44.5 20.5t-13.5 33.5q0 25 16.5 39t49.5 12q52 -4 149 -18 q72 -8 155 -15t175 -7q102 0 231.5 9t167.5 11q27 4 97 8q43 5 76 -22q28 -20 28 -52q0 -58 -122.5 -199.5t-360.5 -388.5l-40 -39q13 14 -167 -174q-140 -144 -249.5 -260.5t-141.5 -162.5q19 0 82 4q261 10 405 10q231 0 474 -29q48 -6 48 -50q0 -24 -16 -39t-44 -11 q-190 14 -276.5 19z" />
<glyph unicode="[" horiz-adv-x="674" d="M113 -315q24 341 23 843v90q0 466 -28 928q136 8 398 8q27 0 41.5 -14.5t14.5 -35.5q0 -52 -56 -53l-185 3q-69 0 -100 -3l2 -74q13 -596 13 -753q0 -466 -13 -854q42 -4 130 -4l119 2q24 2 54 2q44 0 44 -47q0 -44 -54 -51q-71 -7 -215 -7q-88 1 -188 20z" />
<glyph unicode="\" horiz-adv-x="1010" d="M746 40l-589 1782q-4 12 -4 20q0 10 2 17q2 21 19.5 34.5t38.5 13.5q42 0 56 -45l584 -1774q8 -34 6 -44q-8 -44 -63 -44q-38 0 -50 40z" />
<glyph unicode="]" horiz-adv-x="674" d="M295 -333q-96 0 -138 5q-52 6 -53 51q0 47 46 47q30 0 53 -2l130 -2q43 0 118 4q-12 389 -12 854q0 165 12 761l2 71q-48 2 -154 -2l-122 -3q-64 0 -64 53q0 46 50 46l194 2q130 0 209 -6q-18 -334 -18 -781v-147q0 -668 14 -933q-82 -17 -188 -18h-79z" />
<glyph unicode="^" horiz-adv-x="1273" d="M181.5 458.5q-12.5 17.5 -8.5 36.5q78 277 163.5 498t165.5 346.5t142 125.5q96 0 212.5 -254t242.5 -689q4 -20 4 -27q0 -24 -13.5 -37t-36.5 -13q-36 0 -48 39q-50 201 -122 406.5t-138 338.5t-99 133q-38 0 -107 -135t-143.5 -340.5t-124.5 -404.5q-10 -41 -54 -41 q-23 0 -35.5 17.5z" />
<glyph unicode="_" horiz-adv-x="1142" d="M-5 -209.5q-15 15.5 -15 38.5q0 25 15 38.5t41 13.5l317 -2q197 -2 390 -3t371 -1q23 0 36.5 -14t13.5 -38q0 -26 -13 -41.5t-37 -15.5q-136 0 -293 1t-324 3q-313 5 -461 5q-26 0 -41 15.5z" />
<glyph unicode="`" horiz-adv-x="655" d="M476 1040l-363 361q-14 13 -18.5 21.5t-4.5 18.5q0 17 16.5 33.5t33.5 16.5q16 0 44 -22q229 -230 368 -364q14 -15 14 -37q0 -16 -16 -30t-34 -14q-21 0 -40 16z" />
<glyph unicode="a" horiz-adv-x="1284" d="M1138.5 91q12.5 -9 12.5 -35q0 -23 -12.5 -36.5t-33.5 -13.5q-84 0 -122 30.5t-64 111.5q-46 -80 -133.5 -122t-209.5 -42q-173 0 -276 80t-145 195t-42 234q0 135 53 257.5t161 200t263 77.5q227 0 327 -180l14 111q2 27 13 41.5t38 14.5q32 0 48.5 -14.5t11.5 -33.5 q-16 -111 -27 -234q-8 -89 -8 -242v-136q0 -104 5 -153t25 -72.5t64 -25.5q25 -4 37.5 -13zM897 606q0 121 -52.5 194t-121.5 101t-131 28q-126 0 -208.5 -70t-120.5 -171.5t-38 -194.5q0 -90 31 -183t108 -159.5t208 -66.5q136 0 227.5 69.5t95.5 203.5q2 103 2 249z" />
<glyph unicode="b" horiz-adv-x="1342" d="M978.5 986q117.5 -65 182.5 -187t65 -287q0 -186 -79 -303t-196.5 -167t-240.5 -50q-102 0 -188.5 31t-145.5 76t-79 87q-8 -52 -41 -95t-72 -61q-13 -7 -25 -7q-23 0 -38 16.5t-15 35.5t15 31q7 6 34 29.5t42 58.5q8 18 10 48.5t2 76.5q0 86 -6 331l-4 161 q-4 179 -5 252q-2 83 -6 310t-15 397q-2 23 15 36.5t44 13.5q25 0 40 -13t17 -33q10 -251 12 -487q-2 52 10 -398q58 70 157.5 116t235.5 46q157 0 274.5 -65zM899.5 130.5q90.5 40.5 152.5 136.5t62 249q0 209 -114.5 323t-297.5 114q-128 0 -227 -58t-158 -141v-182 q4 -155 8 -207q4 -73 58 -136.5t140.5 -101t186.5 -37.5q99 0 189.5 40.5z" />
<glyph unicode="c" horiz-adv-x="1210" d="M338 73q-115 69 -172.5 182.5t-57.5 250.5q0 142 59.5 272.5t178 212t284.5 81.5q184 0 298 -91.5t154 -203.5q4 -8 4 -23q0 -32 -37 -42q-48 -10 -69 42q-31 88 -120 153.5t-218 65.5q-130 0 -225.5 -67t-145.5 -173.5t-50 -222.5q0 -111 46 -204t137 -148.5t222 -55.5 q126 0 212.5 50.5t128.5 120.5t44 134q0 18 12.5 30t35.5 12q54 0 55 -52q0 -84 -53.5 -175.5t-164.5 -154.5t-274 -63q-169 0 -284 69z" />
<glyph unicode="d" horiz-adv-x="1340" d="M378 44q-119 56 -192 176.5t-73 301.5q0 249 145 390t390 141q131 0 230 -42t150 -100q8 554 35 861q2 25 16.5 38.5t40.5 13.5q25 0 41.5 -15t14.5 -37q-14 -166 -27 -535.5t-13 -668.5q0 -319 15 -376q14 -48 34.5 -75t40.5 -31q6 0 6 -19q0 -20 -17.5 -39.5 t-40.5 -19.5q-12 0 -30 8q-85 38 -104 174q-54 -92 -163.5 -147t-238.5 -55q-141 0 -260 56zM821 133.5q90 41.5 145 114.5t55 161q0 98 3 155l2 199q-18 42 -71.5 85t-133 73t-173.5 30q-192 0 -308.5 -115t-116.5 -318q0 -148 63 -243t158 -139t191 -44t186 41.5z" />
<glyph unicode="e" horiz-adv-x="1252" d="M357 71q-121 75 -182.5 196.5t-61.5 260.5q0 144 65 269.5t187 200t283 74.5q139 0 250 -57.5t172.5 -159t61.5 -229.5q0 -58 -13.5 -79t-65.5 -23l-832 -20q0 -100 52 -194.5t148.5 -154t226.5 -59.5q98 0 164.5 30.5t105.5 69t91 105.5q10 14 33 14q21 0 39 -15t18 -37 q0 -16 -15 -36q-67 -97 -163 -164t-271 -67q-172 0 -293 75zM1017 620q10 0 13.5 6.5t3.5 21.5q0 92 -49 166.5t-137 116.5t-196 42q-128 0 -226 -62.5t-151.5 -151.5t-53.5 -161z" />
<glyph unicode="f" horiz-adv-x="809" d="M750 1466.5q73 -79.5 73 -242.5q0 -30 -12.5 -43t-41.5 -13q-56 0 -57 52q0 102 -33 163.5t-125 61.5q-113 0 -153 -88.5t-40 -274.5l2 -255q60 2 185 2q52 0 52 -50q0 -44 -48 -44l-92 -2q-69 0 -95 -2q8 -414 9 -677q0 -54 -55 -54q-54 0 -54 52q-2 297 -10 675 q-62 0 -96 -2l-53 -2q-54 0 -54 50q0 46 54 48l147 4v44q-4 167 -4 213q0 222 71 343t230 121q127 0 200 -79.5z" />
<glyph unicode="g" horiz-adv-x="1214" d="M1074 205q12 -77 18.5 -129.5t6.5 -95.5q0 -148 -62 -262.5t-173.5 -177t-259.5 -62.5q-108 0 -202.5 46t-151 123.5t-56.5 166.5q0 44 55 44q38 0 44 -40q14 -106 101.5 -173t209.5 -67q181 0 281.5 110.5t100.5 291.5q0 83 -23 217q-52 -84 -147 -133.5t-222 -49.5 q-159 0 -273 73.5t-172.5 191.5t-58.5 249q0 136 58.5 258.5t169 197.5t258.5 75q102 0 179.5 -32.5t119.5 -73.5l14 48q19 67 26 77q16 30 42 29q20 0 40 -11.5t22 -27.5q0 -12 -2 -21l-25 -100l-19 -68q28 -169 78 -522q0 7 23 -152zM807.5 182q99.5 61 134.5 157 q-18 133 -53 338l-20 132q-25 58 -109.5 102t-181.5 44q-108 0 -193.5 -58t-133.5 -154.5t-48 -212.5q0 -106 43 -200t130.5 -151.5t215.5 -57.5q116 0 215.5 61z" />
<glyph unicode="h" horiz-adv-x="1182" d="M1047.5 492.5q9.5 -173.5 9.5 -448.5q0 -21 -15.5 -33.5t-40.5 -12.5q-26 0 -41 14t-15 38q0 282 -11 456.5t-35 264.5q-30 100 -84.5 148t-146.5 48q-119 0 -202.5 -69t-125 -168.5t-41.5 -183.5l-2 -504q0 -19 -17 -30.5t-42 -11.5q-26 0 -40 13t-14 31q0 445 10 821 q8 307 36 718q2 30 14.5 43.5t40.5 13.5q27 0 41.5 -12.5t12.5 -35.5l-38 -739q50 89 145 154t235 65q136 0 213 -70.5t115 -216.5q29 -119 38.5 -292.5z" />
<glyph unicode="i" horiz-adv-x="558" d="M216.5 1245q-32.5 31 -32.5 77q0 48 32.5 80.5t82.5 32.5q48 0 79 -31t31 -80q0 -48 -33 -79t-81 -31q-46 0 -78.5 31zM220.5 26q-15.5 14 -15.5 36l20 928q0 59 60 59q56 0 56 -59l-22 -926q-2 -25 -16 -38.5t-40 -13.5q-27 0 -42.5 14z" />
<glyph unicode="j" horiz-adv-x="674" d="M335 1245q-32 31 -32 77t32 78.5t83 32.5q48 0 79 -31.5t31 -79.5t-33 -78t-79 -30q-49 0 -81 31zM-86.5 -414q-80.5 79 -80.5 205q0 38 11.5 53.5t38.5 15.5q52 0 57 -59q16 -199 162 -198q115 0 175 114t64 333q14 622 14 934q0 30 13.5 43t45.5 13q30 0 42 -13.5 t12 -46.5q0 -237 -10 -693l-5 -237q-4 -259 -94 -401t-246 -142q-119 0 -199.5 79z" />
<glyph unicode="k" horiz-adv-x="1071" d="M188 3q-17 11 -17 31l2 1525q0 54 57 54q56 0 57 -54l-5 -824l209 124q309 183 416 248q23 12 35 13q21 0 38 -24t14 -49q-2 -15 -33 -36l-676 -407l686 -496q16 -12 17 -35q0 -23 -17.5 -43t-41.5 -20q-14 0 -52 24l-592 432l-3 -430q0 -21 -14.5 -32.5t-40.5 -11.5 q-22 0 -39 11z" />
<glyph unicode="l" horiz-adv-x="488" d="M201.5 32q-15.5 14 -15.5 43l-13 1523q0 28 17 42t44 14q54 0 55 -56l10 -1523q0 -56 -56 -57q-26 0 -41.5 14z" />
<glyph unicode="m" horiz-adv-x="1645" d="M1424.5 954.5q70.5 -119.5 70.5 -321.5q0 -398 -2 -581q0 -23 -13 -37.5t-41 -14.5q-54 0 -54 56l2 564q0 184 -45 272t-172 88q-123 0 -178.5 -122.5t-58.5 -303.5q-2 -172 -2 -498q0 -52 -56 -52q-31 0 -43.5 14t-12.5 42l2 393v101q-2 169 -68 293t-181 124 q-88 0 -144 -82t-91 -271q-13 -75 -17.5 -159.5t-4.5 -211.5v-84v-111q0 -23 -15 -34.5t-39 -11.5q-54 0 -54 48q0 389 -6 797q-2 48 -13 71t-20 33t-11 12q-4 4 -11.5 10.5t-7.5 14.5q0 26 17.5 41.5t38.5 15.5q12 0 29.5 -15t29.5 -33q23 -30 32.5 -64t9.5 -100v-56 q35 148 110 217.5t173 69.5q232 0 293 -289q26 144 103 219.5t200 75.5q180 0 250.5 -119.5z" />
<glyph unicode="n" horiz-adv-x="1142" d="M915 939q86 -122 86 -373v-506q0 -56 -54 -56q-59 0 -60 54v510q0 203 -52 298t-183 95q-247 0 -311 -361q-19 -102 -20 -233l2 -321q0 -44 -54 -44q-25 0 -40.5 13t-15.5 31q-4 275 -8 416q-6 186 -6 349q0 44 -9.5 70t-25.5 53t-24 39q-6 10 -6 26q0 18 20.5 34 t39.5 16q20 0 44 -32q25 -44 44 -87t19 -93v-48q36 118 123.5 195t233.5 77q171 0 257 -122z" />
<glyph unicode="o" horiz-adv-x="1250" d="M246.5 120.5q-156.5 122.5 -156.5 395.5q0 165 61.5 292.5t180.5 198.5t284 71q157 0 280 -64.5t195.5 -191t72.5 -302.5q0 -257 -149.5 -389.5t-388.5 -132.5q-223 0 -379.5 122.5zM837.5 144q95.5 46 154.5 142t59 236q0 138 -55.5 241.5t-153.5 160t-222 56.5 q-125 0 -220 -56.5t-146 -161t-51 -242.5q0 -221 125 -321.5t296 -100.5q118 0 213.5 46z" />
<glyph unicode="p" horiz-adv-x="1315" d="M958 1015.5q116 -56.5 186 -176.5t70 -298q0 -172 -66 -294t-184 -183.5t-268 -61.5q-134 0 -241.5 42t-155.5 81l-4 -155q-12 -365 -13 -388q-5 -50 -57 -50q-56 0 -56 57q13 305 17 495l2 129q4 271 4 529q0 73 -16.5 117t-52.5 90q-2 2 -9.5 9t-7.5 19q0 21 21 38 t42 17q19 0 34 -15q16 -16 44 -63t40 -89q46 75 154.5 141t264.5 66q136 0 252 -56.5zM989 215q112 115 112 326q0 153 -57.5 248.5t-146 138.5t-191.5 43q-115 0 -207 -50t-143 -114.5t-51 -102.5q0 -269 -2 -441q18 -36 79 -74.5t145.5 -63.5t170.5 -25q179 0 291 115z " />
<glyph unicode="q" horiz-adv-x="1340" d="M1214 957q0 -10 -12 -30q-57 -94 -93 -167q-13 -526 -17 -643l-2 -89q-6 -270 -6 -477q0 -23 -15.5 -34.5t-42.5 -11.5q-56 0 -57 52l6 220q4 117 9 371q-52 -67 -156.5 -108.5t-221.5 -41.5q-144 0 -263.5 60.5t-189 182.5t-69.5 296q0 187 81.5 307.5t199 173 t237.5 52.5q131 0 251 -62.5t181 -161.5l29 53q36 62 49 78q6 10 15 20t22 10q20 2 39.5 -10.5t23.5 -29.5q2 -4 2 -10zM994 594q3 31 3 91q-7 65 -65.5 130.5t-149 109.5t-188.5 44q-96 0 -187.5 -47t-150.5 -145t-59 -245q0 -141 56 -238t148 -144.5t203 -47.5 q115 0 226.5 56.5t157.5 132.5q6 191 6 303z" />
<glyph unicode="r" horiz-adv-x="1008" d="M824.5 986.5q70.5 -83.5 70.5 -199.5q0 -113 -64 -173t-159 -60q-33 0 -46.5 10t-13.5 36q0 20 9 31t33 13q62 6 101 35t39 108q0 74 -41 129t-139 55q-138 0 -212 -139.5t-91 -349.5q-10 -159 -10 -404q0 -55 -12 -74.5t-42 -19.5q-32 0 -44.5 15t-12.5 55l-4 422 q0 168 -25 435l-11 136q-2 25 15 38.5t42 13.5q26 0 38 -14.5t12 -35.5q10 -122 16 -316q30 168 122 252.5t221 84.5q138 0 208.5 -83.5z" />
<glyph unicode="s" horiz-adv-x="1016" d="M294 61q-93 69 -156 182q-15 25 -15 34q0 24 23 42t46 14q10 -3 22.5 -16.5t26.5 -34.5q52 -88 119.5 -138t167.5 -50q104 0 170.5 51.5t66.5 127.5q0 54 -35.5 91t-87.5 61t-145 55q-108 38 -176 71t-116 91t-48 145q0 78 40.5 146t118 109.5t186.5 41.5 q104 0 186.5 -39.5t128.5 -108.5t46 -153q0 -33 -12 -47.5t-40 -14.5q-30 0 -41.5 12.5t-11.5 33.5q-4 113 -77 165t-179 52q-128 0 -180.5 -62.5t-52.5 -132.5q0 -79 68 -124t206 -93q111 -40 176.5 -72t111.5 -87.5t46 -139.5q0 -123 -98 -202t-251 -79q-141 0 -234 69z " />
<glyph unicode="t" horiz-adv-x="909" d="M784.5 301q11.5 -14 11.5 -54q0 -100 -66 -173.5t-172 -73.5q-148 0 -212 146.5t-64 423.5q0 130 13 267l-157 14q-44 4 -44 52q0 25 13.5 37.5t38.5 8.5q94 -9 157 -11q14 162 52 414q4 25 17 36t39 11q28 0 43.5 -14.5t13.5 -39.5q-27 -183 -54 -414q138 -4 190 -4 q48 0 48 -44q0 -27 -12 -37.5t-42 -12.5l-101 -2l-92 2q-12 -137 -12 -269q0 -211 38.5 -337.5t134.5 -126.5q52 0 90 38.5t40 122.5q0 28 8 41t40 13q29 0 40.5 -14z" />
<glyph unicode="u" horiz-adv-x="1127" d="M948.5 147q10.5 -26 24 -49t13.5 -31q0 -16 -16.5 -33.5t-33.5 -17.5q-35 0 -63.5 52.5t-30.5 111.5v65q-42 -115 -137 -179t-221 -64q-342 0 -342 476v527q0 20 15.5 32t39.5 12q25 0 41.5 -11.5t16.5 -32.5v-531q0 -191 56 -282.5t182 -91.5q173 0 248.5 159t75.5 413 v337q0 52 54 52q28 0 43 -13.5t15 -38.5l9 -794q0 -42 10.5 -68z" />
<glyph unicode="v" horiz-adv-x="1102" d="M393.5 144.5q-78.5 128.5 -150.5 329.5q-54 150 -91 298.5t-37 211.5t58 63q46 0 52 -53q15 -99 39.5 -207t76.5 -261q54 -157 114.5 -271.5t83.5 -114.5q27 0 86.5 109.5t124.5 276.5q104 270 127 477q4 54 54 54q28 0 42.5 -18t14.5 -49q0 -67 -38.5 -208.5 t-96.5 -297.5q-80 -209 -161.5 -338.5t-150.5 -129.5t-147.5 128.5z" />
<glyph unicode="w" horiz-adv-x="1610" d="M269 353q-52 157 -85.5 341.5t-33.5 318.5q0 29 12.5 46t44.5 17q26 0 39 -9.5t15 -38.5q10 -179 28 -297.5t72 -304.5q86 -298 149 -298q20 0 64 106.5t90 268t76 314.5q14 62 60 62q29 0 44 -15.5t23 -46.5q71 -261 151.5 -470t125.5 -209q30 0 61 80.5t67 222.5 q48 191 64 303.5t22 274.5q0 25 11.5 40t42.5 15q33 0 45 -17t12 -54q0 -120 -28.5 -302.5t-70.5 -331.5q-48 -171 -100 -267t-114 -96q-58 0 -125.5 96.5t-128 256t-95.5 341.5q-28 -184 -76 -342.5t-107.5 -255t-119.5 -96.5q-119 0 -235 347z" />
<glyph unicode="x" horiz-adv-x="1064" d="M975 62q0 -23 -18.5 -39.5t-41.5 -16.5q-24 0 -38 22l-353 450q-173 -244 -225 -319l-100 -141q-12 -18 -38 -18q-23 0 -41 17t-18 37q0 8 9 26q46 62 313 438l34 46q-217 275 -324 420q-6 6 -6 21q0 16 19.5 34t40.5 18q18 0 29 -13l303 -388q197 279 267 386 q13 19 32 19q24 0 44 -18.5t20 -39.5q0 -11 -6 -21l-287 -414l373 -478q12 -16 12 -28z" />
<glyph unicode="y" horiz-adv-x="1081" d="M383 -522.5q-18 14.5 -18 38.5q0 12 7 24q120 273 206 533q-129 86 -265 348t-227 571q-4 15 -2 23q2 18 17.5 31t42.5 13q20 0 30 -9.5t16 -34.5q106 -331 223 -549.5t207 -279.5q70 219 114.5 385t113.5 450q6 26 17.5 35t35.5 9q56 0 66 -46q2 -6 0 -11t-2 -9 q-78 -318 -119.5 -471.5t-112.5 -352.5q-43 -127 -117.5 -324.5t-133.5 -341.5q-10 -25 -21.5 -35.5t-32.5 -10.5q-27 0 -45 14.5z" />
<glyph unicode="z" horiz-adv-x="1160" d="M628 16q-127 0 -298 -8l-142 -4q-46 0 -69 9.5t-23 36.5q0 38 32 63q340 357 564 593l227 241q-42 0 -138 -9q-146 -10 -227 -11q-224 0 -345 30q-44 10 -40 52q0 20 12.5 34t37.5 12q194 -30 361 -29q90 0 247 14q104 9 140 9q60 0 80.5 -11.5t20.5 -36.5q4 -38 -28 -72 q40 42 -321 -333q-259 -266 -470 -494l104 4q194 10 273 11q136 0 335 -21q20 -2 30 -15.5t10 -32.5q0 -24 -14 -38t-34 -12q-151 18 -325 18z" />
<glyph unicode="{" horiz-adv-x="805" d="M429.5 -313q-80.5 56 -122.5 150t-42 205v64q0 180 -17.5 289t-80.5 144q-29 16 -46 38.5t-17 44.5q0 26 16 47t41 29q46 14 67 135.5t21 374.5q0 113 43 201t119 139.5t175 51.5q65 0 90.5 -10.5t25.5 -46.5q0 -33 -23 -42.5t-67 -9.5q-142 0 -200.5 -83.5t-58.5 -281.5 q0 -207 -28 -337.5t-98 -168.5q57 -46 87.5 -106.5t42.5 -159.5t12 -268q0 -170 60 -259.5t195 -89.5q32 0 50 -15t18 -35q0 -24 -20 -40t-52 -16q-110 0 -190.5 56z" />
<glyph unicode="|" horiz-adv-x="519" d="M222.5 -180.5q-13.5 11.5 -13.5 30.5l2 413q4 335 4 600l-2 933q0 14 15 25t35 11q19 0 33.5 -9t14.5 -23v-933q0 -285 -4 -618l-2 -399q0 -42 -48 -42q-21 0 -34.5 11.5z" />
<glyph unicode="}" horiz-adv-x="805" d="M135 -355q-20 14 -20 38q0 20 19 35t50 15q257 0 257 353q0 167 13.5 267t43.5 160.5t84 106.5q-67 38 -94.5 167.5t-27.5 338.5q0 197 -60.5 283t-202.5 86q-46 0 -69.5 10t-23.5 43q0 36 24.5 44t90.5 8q100 0 177.5 -51.5t120.5 -140t43 -200.5q0 -255 20 -375.5 t66 -134.5q25 -8 40.5 -29t15.5 -47q0 -23 -17 -44.5t-45 -38.5q-61 -36 -79 -144t-18 -289v-64q0 -111 -41.5 -205t-122 -150t-191.5 -56q-33 0 -53 14z" />
<glyph unicode="~" d="M634 596q-64 18 -74 20l-57 19t-74.5 19t-75.5 6q-56 0 -102 -20q-6 -5 -26 -16.5t-35 -11.5q-17 0 -31.5 15t-10.5 29q4 18 29 42q32 27 84 40.5t106 13.5q72 0 223 -50q106 -34 179 -34q26 0 57 14t43 18q34 14 46 14q18 0 34 -16.5t16 -33.5q0 -12 -16 -26 q-34 -28 -81 -44t-93 -16q-77 0 -141 18z" />
<glyph unicode="&#xa1;" horiz-adv-x="544" d="M195 886q-32 31 -32 73q0 44 32 77.5t76 33.5q42 0 76.5 -33.5t34.5 -77.5q0 -40 -34.5 -72t-76.5 -32q-44 0 -76 31zM240 -394.5q-13 14.5 -13 39.5l14 1045q0 52 38 52q21 0 32.5 -18t11.5 -43l-8 -1036q0 -54 -42 -54q-20 0 -33 14.5z" />
<glyph unicode="&#xa2;" horiz-adv-x="1210" d="M1114 397q0 -80 -49.5 -167.5t-151.5 -151.5t-251 -72v-161q0 -20 -11 -31t-31 -11q-40 0 -40 40v163q-155 8 -261 78.5t-158.5 181t-52.5 240.5q0 136 54.5 259.5t161 206.5t258.5 96v164q0 19 11 28.5t27 9.5q44 0 44 -38v-162q169 -10 276 -99.5t142 -195.5 q4 -8 4 -23q0 -30 -37 -40q-46 -12 -69 40q-31 87 -120 153t-218 66q-130 0 -225.5 -66t-145.5 -172.5t-50 -222.5q0 -111 46 -204t137 -148.5t222 -55.5q126 0 212.5 50.5t128.5 120.5t44 134q0 44 48 44q55 0 55 -54z" />
<glyph unicode="&#xa3;" horiz-adv-x="1224" d="M1104 234q16 -13 16 -29q0 -8 -2 -14.5t-4 -10.5q-42 -88 -108 -134t-169 -46q-69 0 -123 16t-130 44q-62 26 -100.5 37t-80.5 11q-60 0 -98 -23t-62 -46t-30 -29q-23 -20 -40 -20q-20 0 -34 14t-14 30q0 12 5.5 20t7.5 13q27 44 101 84.5t154 49.5q73 113 73 244 q0 71 -34 151l-213 2q-29 0 -45.5 8t-16.5 34q0 23 14.5 30t47.5 7l176 -2q-34 68 -52 98q-56 106 -84.5 175t-28.5 142q0 94 53.5 180t149 139.5t217.5 53.5q167 0 273.5 -98.5t106.5 -263.5q0 -36 -8.5 -49.5t-33.5 -13.5q-29 0 -39.5 13.5t-10.5 42.5q0 140 -84.5 211.5 t-203.5 71.5q-94 0 -167.5 -42t-114 -109.5t-40.5 -143.5q0 -71 33.5 -146t93.5 -182q8 -17 20 -36.5t24 -42.5l293 -5q67 0 67 -40q0 -23 -16 -30.5t-51 -7.5l-258 2q28 -76 28 -151q0 -136 -75 -259q45 -13 103 -36q81 -32 137 -47t115 -15q73 0 109.5 29t76.5 98 q21 34 44 34q16 0 32 -13z" />
<glyph unicode="&#xa4;" horiz-adv-x="1754" d="M1426.5 54q-14.5 8 -22.5 19l-132 142q-84 -64 -186 -100.5t-209 -36.5q-104 0 -205.5 35t-189.5 102l-131 -142q-26 -25 -52 -25q-21 0 -37.5 16t-16.5 34q0 12 10 30q10 12 146 159q-86 91 -132 203t-46 231t44 230.5t126 199.5l-128 134q-18 21 -18 41q0 23 17.5 41 t42.5 18q26 0 50 -29l119 -130q176 142 405 142q116 0 219.5 -36.5t181.5 -99.5l115 124q26 29 52 29q13 0 26 -6q36 -16 36 -48q0 -20 -22 -46l-121 -127q77 -86 120 -199t43 -236q0 -249 -177 -436l143 -157q13 -13 14 -30q0 -24 -19 -39t-38 -15q-13 0 -27.5 8z M1144.5 250.5q123.5 70.5 198 196t74.5 282.5t-74.5 281t-198 193t-263.5 69q-144 0 -268 -70t-199 -193.5t-75 -275.5q0 -150 72.5 -277.5t197 -201.5t270.5 -74q142 0 265.5 70.5z" />
<glyph unicode="&#xa5;" horiz-adv-x="1319" d="M760 706l257 4q20 0 33 -12.5t13 -27.5q0 -16 -12.5 -29t-33.5 -13l-303 -4l2 -127l299 5q23 0 35.5 -12t12.5 -28t-12.5 -29t-35.5 -13l-299 -4l5 -345q0 -62 -57 -63q-56 0 -56 59l-4 347l-307 -5q-24 0 -36 14t-12 30q0 14 12 26t36 12l307 4l-2 127l-305 -4 q-24 0 -36 14t-12 30q0 14 12 26t36 12l265 4q-90 56 -219 267q-70 108 -110.5 196.5t-92.5 225.5q-4 8 -4 17q0 18 17.5 33.5t43.5 15.5q25 0 37.5 -15t22.5 -45q48 -123 85.5 -201t98.5 -177q148 -241 219 -240q38 0 97.5 65t125.5 178q50 84 89 166t98 218 q12 27 23.5 37.5t28.5 10.5q28 0 45 -14.5t17 -35.5q0 -13 -6 -25q-62 -153 -102 -235.5t-94 -174.5q-116 -190 -222 -265z" />
<glyph unicode="&#xa6;" horiz-adv-x="532" d="M240 925.5q-13 12.5 -13 33.5l-16 827q0 20 13.5 33t36.5 13q46 0 46 -46l16 -827q0 -46 -48 -46q-22 0 -35 12.5zM209 -144l14 829q0 52 48 52q28 0 38 -12.5t10 -39.5l-12 -829q0 -48 -48 -48q-50 0 -50 48z" />
<glyph unicode="&#xa7;" horiz-adv-x="1317" d="M1034 172.5q27 -68.5 27 -170.5q0 -82 -46 -161t-140 -130.5t-227 -51.5q-136 0 -239.5 59t-160 160.5t-56.5 221.5q0 48 51 48q48 0 48 -46q0 -94 40.5 -174.5t120.5 -129.5t198 -49q108 0 179.5 40t103.5 98.5t32 118.5q0 138 -88 210.5t-277 122.5 q-197 52 -304.5 142.5t-107.5 237.5q0 92 42.5 176.5t116.5 136.5q-80 90 -80 204q0 98 55.5 178.5t155.5 126.5t228 46q113 0 203 -44t141 -123t51 -184q0 -56 -48 -56q-46 0 -46 40q0 127 -81.5 202t-225.5 75q-146 0 -241.5 -70.5t-95.5 -190.5q0 -98 75.5 -174 t277.5 -133q414 -115 414 -365q0 -75 -47 -153t-132 -124q56 -46 83 -114.5zM314 606q27 -54 101 -100t215 -84q148 -42 225 -75q79 29 128 90.5t49 130.5q0 96 -87.5 162t-278.5 121q-155 44 -252 118q-54 -34 -90.5 -98t-36.5 -134q0 -77 27 -131z" />
<glyph unicode="&#xa8;" horiz-adv-x="785" d="M81.5 1246q-29.5 30 -29.5 76q0 44 29.5 72.5t75.5 28.5t76 -28.5t30 -72.5q0 -46 -30 -76t-76 -30t-75.5 30zM557 1246q-29 30 -29 76q0 44 29 72.5t76 28.5q46 0 75 -28.5t29 -72.5q0 -46 -29 -76t-75 -30q-47 0 -76 30z" />
<glyph unicode="&#xa9;" horiz-adv-x="1856" d="M1346.5 1368.5q162.5 -110.5 242.5 -283t80 -350.5q0 -191 -83.5 -359.5t-245.5 -272t-385 -103.5q-232 0 -406.5 106.5t-267.5 278t-93 361.5q0 189 90.5 357.5t265.5 272t411 103.5q229 0 391.5 -110.5zM1278.5 173.5q142.5 83.5 220.5 230t78 325.5q-2 163 -69 314 t-206.5 249.5t-346.5 98.5q-199 0 -352.5 -88.5t-237 -236t-83.5 -312.5q0 -178 86.5 -330.5t240.5 -243t346 -90.5q181 0 323.5 83.5zM1295 619q13 -9 13 -23q-2 -130 -95 -215.5t-258 -85.5q-108 0 -203.5 42.5t-154 134.5t-58.5 230q0 142 57.5 249.5t151.5 167t201 59.5 q77 0 130 -27t111 -88q2 27 2 79q0 30 34 30q18 0 31 -6t13 -20q0 -104 -8 -149.5t-42 -45.5q-28 0 -38 12q-67 73 -110.5 102t-112.5 29q-80 0 -155 -46.5t-122 -136.5t-47 -207q0 -176 90 -253t238 -77q133 0 194 68t61 154q0 14 12.5 23t33.5 9q18 0 31 -9z" />
<glyph unicode="&#xaa;" horiz-adv-x="718" d="M622 1037q4 -5 4 -16q0 -16 -7 -26.5t-19 -10.5q-46 0 -69 17.5t-32 53.5q-28 -40 -65 -57.5t-95 -17.5q-134 0 -190.5 81t-56.5 182q0 114 62.5 196t178.5 82q54 0 98.5 -20t67.5 -54v40q0 10 10.5 19t24.5 9q15 0 27.5 -9t10.5 -19q-6 -25 -12 -98q-4 -73 -4 -227 q0 -56 3 -78.5t12 -28.5t35 -11q12 -2 16 -7zM484 1324q0 73 -45.5 101.5t-99.5 28.5q-92 0 -131 -65t-39 -146q0 -75 34.5 -134.5t126.5 -59.5q70 0 110 31.5t42 95.5z" />
<glyph unicode="&#xab;" horiz-adv-x="1156" d="M566 416q-117 34 -218 97t-162 133t-61 121q0 50 62 121t167.5 136.5t225.5 99.5q13 4 34 4q42 0 42 -42q0 -39 -58 -56q-90 -20 -177.5 -73.5t-145.5 -110.5t-58 -77q0 -23 55.5 -77t138 -107t159.5 -73q28 -8 42 -24t14 -35q0 -16 -12 -27.5t-32 -11.5q-10 0 -16 2z M953 403q-120 38 -221.5 101.5t-161.5 132.5t-60 119t64 120.5t169 136t224 101.5q12 4 19 4q21 0 33.5 -15t12.5 -35t-10.5 -31t-35.5 -20q-96 -28 -183 -79t-140 -103t-53 -81q0 -24 51 -75t131.5 -101t166.5 -76q54 -19 54 -57q0 -17 -13.5 -29.5t-32.5 -14.5q-8 0 -14 2 z" />
<glyph unicode="&#xac;" horiz-adv-x="1597" d="M1373 460q0 280 -5 425l-547 2l-622 -2q-40 0 -57 11t-17 37q0 28 16 40.5t49 12.5l645 2h573q54 0 59 -46l6 -487q0 -56 -54 -56q-46 1 -46 61z" />
<glyph unicode="&#xad;" horiz-adv-x="795" d="M97.5 536q-13.5 18 -13.5 42q0 26 12 39t32 13q145 6 524 8q60 0 60 -58q0 -23 -17.5 -37.5t-46.5 -14.5q-182 0 -462 -8l-56 -2q-19 0 -32.5 18z" />
<glyph unicode="&#xae;" horiz-adv-x="1856" d="M1346.5 1370.5q164.5 -112.5 243.5 -286t79 -357.5q0 -187 -83.5 -353.5t-246.5 -270t-388 -103.5q-230 0 -403.5 106.5t-266.5 279t-93 362.5q0 187 92 356.5t264 274t401 104.5q237 0 401.5 -112.5zM1277.5 172.5q143.5 84.5 223.5 231t80 321.5q0 163 -70 317.5 t-212.5 254.5t-351.5 100q-197 0 -348.5 -90.5t-234 -239t-82.5 -317.5q0 -174 86.5 -326.5t240.5 -244t344 -91.5q181 0 324.5 84.5zM1169 711.5q-95 -61.5 -256 -61.5q-44 0 -92 12l407 -290q16 -8 17 -25q0 -17 -13.5 -32.5t-29.5 -15.5q-15 0 -28 8l-409 305l-2 -277 q0 -19 -10.5 -30.5t-31.5 -11.5q-42 0 -42 42l2 175v221q0 74 -9 266l-12 -3q-16 0 -26 16t-10 32q0 19 32 32l14 6l-2 42q0 18 13 27t31 9t28 -9t10 -21v-14q117 42 213 42q125 0 213 -68.5t88 -190.5q0 -124 -95 -185.5zM852 1066.5q-45 -11.5 -100 -34.5l8 -272 q62 -32 163 -31q111 0 184 41t73 133q0 81 -62.5 128t-168.5 47q-52 0 -97 -11.5z" />
<glyph unicode="&#xaf;" horiz-adv-x="766" d="M180 1287q-59 0 -102 17q-19 6 -27.5 17.5t-8.5 32.5q0 23 14.5 34t35.5 9q10 -2 54 -9t101 -7q48 0 144 8q100 8 157 8q25 0 74 -4q34 -4 53 -4q24 0 37 -14.5t13 -33.5q0 -18 -13.5 -31t-32.5 -13q-18 0 -61 5l-58 4q-64 0 -157 -9q-88 -8 -134 -8z" />
<glyph unicode="&#xb0;" horiz-adv-x="789" d="M168.5 1258.5q-84.5 82.5 -84.5 206.5q0 89 42.5 161t114.5 113t158 41q92 0 161.5 -43t107.5 -110.5t38 -141.5q0 -92 -46 -162.5t-118 -108.5t-151 -38q-138 0 -222.5 82.5zM552.5 1322.5q63.5 60.5 63.5 158.5q0 80 -55 145.5t-170 65.5q-102 0 -160 -70t-58 -157 q0 -92 65 -147.5t153 -55.5q98 0 161.5 60.5z" />
<glyph unicode="&#xb1;" d="M969.5 786.5q14.5 -11.5 14.5 -36.5q0 -48 -69 -48l-305 2v-257q0 -26 -14 -41t-38 -15q-28 0 -37 14.5t-9 43.5l-2 257l-328 2q-54 0 -54 50q0 46 58 46l324 -2v261q0 46 50 46q30 0 40 -11.5t10 -34.5v-263l303 -2q42 0 56.5 -11.5zM942 171q0 -23 -17.5 -33t-57.5 -10 l-631 -7q-32 0 -46.5 10.5t-14.5 35.5q0 28 15 39t53 11l630 6q69 0 69 -52z" />
<glyph unicode="&#xb2;" horiz-adv-x="768" d="M692.5 847.5q13.5 -14.5 13.5 -35.5q0 -23 -13.5 -38t-36.5 -15l-82 3q-75 7 -196 7q-54 0 -146 -4l-124 -3q-23 0 -35.5 10.5t-10.5 28.5q19 108 103 209t236 207q179 124 179 274q0 87 -57 144t-149 57q-85 0 -137.5 -61t-52.5 -142q0 -24 -12.5 -33t-41.5 -9 q-30 0 -42.5 13.5t-12.5 43.5q0 73 40 137.5t111 104.5t161 40q137 0 222 -84t85 -211q0 -199 -230 -353q-96 -64 -169.5 -135.5t-100.5 -138.5q56 3 184 3l172 -3q44 -2 106 -2q23 0 36.5 -14.5z" />
<glyph unicode="&#xb3;" horiz-adv-x="868" d="M764 1184q43 -67 43 -146q0 -69 -37 -133t-115.5 -105t-194.5 -41q-175 0 -285.5 85t-110.5 260q0 38 13 56t42 18q54 0 54 -52q2 -70 20 -126t79 -100t179 -44q119 0 183 50t64 144q0 102 -67 139t-167 41q-25 2 -35.5 11.5t-10.5 32.5q0 49 44 49q117 9 165 55t48 121 q0 86 -53.5 139.5t-134.5 53.5q-84 0 -146 -51t-62 -127q0 -20 10 -54q4 -18 -11 -32.5t-44 -14.5q-38 0 -52 28q-13 29 -13 77q0 76 43 136t114 96t152 36q82 0 153 -36t112.5 -98t41.5 -140q0 -79 -37.5 -140t-99.5 -90q73 -31 116 -98z" />
<glyph unicode="&#xb4;" horiz-adv-x="785" d="M264 1183q-11 9 -15 23v8q0 20 18 42l180 221q20 25 34 33.5t33 8.5q20 0 35 -15t15 -35q0 -28 -38 -70l-181 -193q-19 -19 -29.5 -25.5t-24.5 -6.5q-16 0 -27 9z" />
<glyph unicode="&#xb6;" horiz-adv-x="1219" d="M636 -53q-10 9 -10 37l-2 598q-140 2 -257.5 57t-190 162.5t-72.5 259.5q0 241 173.5 369.5t464.5 128.5q131 0 169 -5q40 -2 56.5 -19.5t16.5 -51.5v-1491q0 -32 -8.5 -43t-35.5 -11q-20 0 -30.5 9t-10.5 35l-8 1461q0 24 -17 30t-65 6q-60 0 -79.5 -6t-19.5 -36 l2 -1455q0 -26 -11 -35t-35 -9q-20 0 -30 9z" />
<glyph unicode="&#xb7;" horiz-adv-x="909" d="M349 620q-46 44 -46 107q0 65 47 108.5t108 43.5q62 0 106 -43.5t44 -108.5q0 -69 -44 -110t-106 -41q-63 0 -109 44z" />
<glyph unicode="&#xb8;" horiz-adv-x="785" d="M138 -445q-19 6 -27.5 23t-4.5 33q4 17 21 26.5t38 3.5q84 -23 130 -23q71 0 110.5 19.5t39.5 71.5q0 44 -42 63t-132 34q-27 2 -39.5 16.5t-6.5 33.5l120 184q8 10 17.5 19.5t19.5 9.5q21 0 43 -12.5t22 -28.5q0 -7 -8 -24l-80 -127q186 -40 187 -152 q0 -100 -74.5 -149.5t-184.5 -49.5q-72 0 -149 29z" />
<glyph unicode="&#xb9;" horiz-adv-x="561" d="M374 1759.5q21 -15.5 21 -47.5v-900q0 -23 -15 -36.5t-43 -13.5q-50 0 -50 50v826q-13 -17 -48.5 -68.5t-100.5 -116.5q-13 -12 -36 -12q-18 0 -32 11.5t-14 30.5q0 20 24 48l43 56q36 39 130 163q20 25 68 25q32 0 53 -15.5z" />
<glyph unicode="&#xba;" horiz-adv-x="711" d="M169.5 1035.5q-77.5 60.5 -77.5 186.5q0 134 69 209.5t196 75.5q111 0 187 -73.5t76 -201.5q0 -131 -73 -194t-194 -63q-106 0 -183.5 60.5zM494.5 1087q53.5 45 53.5 133q0 102 -55.5 161.5t-135.5 59.5q-94 0 -143 -58.5t-49 -160.5q0 -90 55 -135t133 -45 q88 0 141.5 45z" />
<glyph unicode="&#xbb;" horiz-adv-x="1156" d="M135.5 426q-10.5 15 -10.5 36q0 20 10.5 32t35.5 18q96 28 183 79t140.5 103t53.5 81q0 24 -50.5 73t-130.5 99t-168 83q-54 19 -55 54q0 19 13.5 31.5t32.5 12.5q8 0 15 -2q182 -73 312.5 -175.5t130.5 -177.5q0 -48 -64 -118.5t-169.5 -136t-224.5 -102.5 q-21 -4 -23 -5q-21 0 -31.5 15zM515 413.5q-13 12.5 -13 31.5q0 44 58 57q90 18 177.5 70t145 110t57.5 78q0 23 -55.5 77t-138 108t-160.5 74q-27 8 -41.5 24t-14.5 33q0 16 13 28t29 14l20 -4q117 -34 218 -97.5t161.5 -133.5t60.5 -120t-61.5 -121.5t-167 -137 t-227.5 -99.5q-20 -4 -26 -4q-22 0 -35 12.5z" />
<glyph unicode="&#xbc;" horiz-adv-x="1770" d="M287 640v825q-13 -17 -48.5 -68.5t-100.5 -116.5q-13 -12 -36 -12q-18 0 -32 11.5t-14 30.5q0 20 24 48l43 56q36 40 130 163q20 25 68 25q32 0 53 -15.5t21 -47.5v-899q0 -21 -15 -34.5t-43 -13.5q-50 0 -50 48zM1280 1513l-877 -1471q-26 -40 -60 -40q-21 0 -36.5 13 t-15.5 35q0 16 14 42l867 1462q30 44 64 44q21 0 37 -13.5t16 -36.5q-1 -19 -9 -35zM1695 382q13 -13 13 -37q0 -21 -8 -33.5t-33 -16.5q-70 -10 -142 -13l-10 -254q0 -21 -16 -34.5t-40 -13.5q-28 0 -41.5 15t-13.5 41l10 241q-68 -2 -220 -2q-131 0 -256 28q-41 10 -41 46 q0 12 10 38q106 207 196.5 353.5t202.5 264.5q12 12 35 12q24 0 36 -13.5t12 -32.5q0 -23 -27 -52q-98 -108 -187 -249.5t-147 -266.5q-2 -2 -2 -8q0 -13 21 -15q60 -12 203 -13q60 0 169 5l14 330q0 48 52 48q30 0 44 -15.5t12 -42.5l-12 -314q88 9 134 15q19 2 32 -11z " />
<glyph unicode="&#xbd;" horiz-adv-x="1786" d="M287 640v825q-13 -17 -48.5 -68.5t-100.5 -116.5q-13 -14 -36 -14q-18 0 -32 12.5t-14 31.5q0 16 24 48q100 123 173 219q23 25 68 25q32 0 53 -15.5t21 -47.5v-899q0 -24 -15 -37t-43 -13q-50 0 -50 50zM1280 1513l-877 -1471q-26 -40 -60 -40q-21 0 -36.5 13t-15.5 35 q0 16 14 42l867 1462q30 44 64 44q21 0 37 -13.5t16 -36.5q-1 -19 -9 -35zM1711 82.5q13 -13.5 13 -34.5q0 -24 -15 -39t-36 -15l-86 2q-75 6 -192 6q-54 0 -145 -4l-126 -2q-20 0 -33 11t-11 31q19 106 102.5 206.5t236.5 206.5q179 123 179 274q0 88 -58.5 144t-148.5 56 q-85 0 -137 -60.5t-52 -141.5q0 -42 -56 -42q-29 0 -41.5 13.5t-12.5 42.5q0 74 39 138.5t110 104t163 39.5q137 0 222 -84t85 -210q0 -199 -232 -353q-221 -148 -269 -274q56 2 185 2l172 -2q44 -2 106 -2q25 0 38 -13.5z" />
<glyph unicode="&#xbe;" horiz-adv-x="2081" d="M770 719.5q-37 -63.5 -115.5 -104.5t-194.5 -41q-175 0 -285.5 85t-110.5 260q0 38 13 55.5t42 17.5q54 0 54 -52q2 -69 20 -125.5t79 -100.5t179 -44q119 0 183 51.5t64 143.5q0 102 -67 138.5t-167 40.5q-25 3 -35.5 12t-10.5 32q0 50 44 50q117 8 165 54t48 122 q0 85 -53.5 139t-134.5 54q-84 0 -146 -51.5t-62 -126.5q0 -20 10 -55q4 -18 -11 -32t-44 -14q-38 0 -52 28q-13 29 -13 77q0 76 43 136t114 95.5t152 35.5q82 0 153 -35.5t112.5 -98t41.5 -140.5q0 -80 -37.5 -140t-99.5 -90q73 -31 116 -98t43 -145q0 -70 -37 -133.5z M1590 1513l-876 -1471q-26 -40 -60 -40q-21 0 -36.5 13t-15.5 35q0 16 14 42l867 1462q30 44 63 44q24 0 39 -13.5t15 -36.5q0 -19 -10 -35zM2006.5 382q13.5 -13 13.5 -37q0 -21 -8.5 -33.5t-33.5 -16.5q-70 -10 -142 -13l-10 -254q0 -21 -16 -34.5t-40 -13.5 q-28 0 -41.5 15t-13.5 41l11 241q-67 -2 -219 -2q-132 0 -257 28q-42 10 -42 46q0 12 10 38q106 207 197.5 353.5t201.5 264.5q12 12 35 12q24 0 36 -13.5t12 -32.5q0 -23 -27 -52q-98 -108 -187 -249.5t-147 -266.5q-2 -2 -2 -8q0 -13 21 -15q60 -12 203 -13q60 0 169 5 l14 330q0 48 52 48q30 0 44.5 -15.5t12.5 -42.5l-13 -314q88 9 134 15q19 2 32.5 -11z" />
<glyph unicode="&#xbf;" horiz-adv-x="1085" d="M468 1044.5q-29 29.5 -29 67.5q0 42 29 71t69 29q41 0 71 -29.5t30 -70.5q0 -38 -31 -67.5t-70 -29.5q-40 0 -69 29.5zM315 -201.5q-94 59.5 -142 154.5t-48 202q0 102 48 179t142 176q88 92 132 161t44 156q0 28 13.5 43t36.5 15q20 0 31.5 -15t11.5 -43 q0 -111 -48.5 -190t-146.5 -182q-86 -90 -128 -153.5t-42 -146.5q0 -142 88 -232t230 -90q330 0 330 282q0 72 -44 125t-115 53q-54 0 -54 52q0 20 16.5 31t39.5 11q69 0 127 -38t91 -99.5t33 -134.5q0 -175 -112 -275.5t-308 -100.5q-132 0 -226 59.5z" />
<glyph unicode="&#xc0;" horiz-adv-x="1382" d="M1236 28q0 -24 -18 -36t-46 -12q-40 0 -50 32l-109 360l-646 4l-114 -356q-10 -37 -52 -36q-26 0 -43.5 12t-17.5 34q0 2 4 18q171 510 284 855l118 351q42 123 77 177t85 54q46 0 79.5 -49t69.5 -162q123 -395 242 -792h63q23 0 37.5 -15.5t14.5 -38.5q0 -56 -48 -56 h-34l98 -324q6 -12 6 -20zM982 484l-209 708q-20 74 -39.5 115.5t-31.5 41.5q-10 0 -26 -38.5t-43 -120.5l-228 -699zM760 1615l-164 180q-18 18 -26 29t-8 25q0 20 13.5 34t32.5 14q28 0 64 -44l153 -177q26 -28 25 -48q0 -17 -11.5 -28.5t-28.5 -11.5q-22 0 -50 27z" />
<glyph unicode="&#xc1;" horiz-adv-x="1382" d="M1236 28q0 -24 -18 -36t-46 -12q-40 0 -50 32l-109 360l-646 4l-114 -356q-10 -37 -52 -36q-26 0 -43.5 12t-17.5 34q0 2 4 18q171 510 284 855l118 351q42 123 77 177t85 54q46 0 79.5 -49t69.5 -162q123 -395 242 -792h63q23 0 37.5 -15.5t14.5 -38.5q0 -56 -48 -56 h-34l98 -324q6 -12 6 -20zM982 484l-209 708q-20 74 -39.5 115.5t-31.5 41.5q-10 0 -26 -38.5t-43 -120.5l-228 -699zM607 1599q-11 11 -11 29q0 23 24 48l164 177q20 26 35 35t29 9q18 0 31 -14t13 -34q0 -23 -31 -54l-175 -180q-28 -27 -51 -27q-17 0 -28 11z" />
<glyph unicode="&#xc2;" horiz-adv-x="1382" d="M1236 28q0 -24 -18 -36t-46 -12q-40 0 -50 32l-109 360l-646 4l-114 -356q-10 -37 -52 -36q-26 0 -43.5 12t-17.5 34q0 2 4 18q171 510 284 855l118 351q42 123 77 177t85 54q46 0 79.5 -49t69.5 -162q123 -395 242 -792h63q23 0 37.5 -15.5t14.5 -38.5q0 -56 -48 -56 h-34l98 -324q6 -12 6 -20zM982 484l-209 708q-20 74 -39.5 115.5t-31.5 41.5q-10 0 -26 -38.5t-43 -120.5l-228 -699zM911 1626q-67 96 -124 158.5t-81 62.5q-34 0 -205 -197q-28 -36 -52 -35q-16 0 -31 13.5t-15 30.5q0 21 16 37l51 55q76 84 134 137t98 53 q52 0 110.5 -59.5t142.5 -170.5l26 -35q13 -17 14 -30q0 -16 -13 -29t-29 -13q-26 1 -42 22z" />
<glyph unicode="&#xc3;" horiz-adv-x="1382" d="M1236 28q0 -24 -18 -36t-46 -12q-40 0 -50 32l-109 360l-646 4l-114 -356q-10 -37 -52 -36q-26 0 -43.5 12t-17.5 34q0 2 4 18q171 510 284 855l118 351q42 123 77 177t85 54q46 0 79.5 -49t69.5 -162q123 -395 242 -792h63q23 0 37.5 -15.5t14.5 -38.5q0 -56 -48 -56 h-34l98 -324q6 -12 6 -20zM982 484l-209 708q-20 74 -39.5 115.5t-31.5 41.5q-10 0 -26 -38.5t-43 -120.5l-228 -699zM385 1654q0 19 12 34q46 58 82.5 82.5t88.5 24.5q88 0 176 -44q10 -6 38 -20t48 -21t37 -7q32 0 71 39q25 28 41 28q15 0 30.5 -17t15.5 -31 q0 -17 -12 -34q-40 -40 -75 -58t-75 -18q-34 0 -66.5 15t-40.5 17q-30 16 -56 26q-10 4 -54 22.5t-74 18.5q-20 0 -38 -14.5t-34.5 -32.5t-22.5 -24q-32 -28 -50 -28q-15 0 -30 12q-12 16 -12 30z" />
<glyph unicode="&#xc4;" horiz-adv-x="1382" d="M1236 28q0 -24 -18 -36t-46 -12q-40 0 -50 32l-109 360l-646 4l-114 -356q-10 -37 -52 -36q-26 0 -43.5 12t-17.5 34q0 2 4 18q171 510 284 855l118 351q42 123 77 177t85 54q46 0 79.5 -49t69.5 -162q123 -395 242 -792h63q23 0 37.5 -15.5t14.5 -38.5q0 -56 -48 -56 h-34l98 -324q6 -12 6 -20zM982 484l-209 708q-20 74 -39.5 115.5t-31.5 41.5q-10 0 -26 -38.5t-43 -120.5l-228 -699zM397 1662q-28 28 -28 70q0 40 28 66t69 26q42 0 70 -26t28 -66q0 -42 -28.5 -70t-69.5 -28t-69 28zM873.5 1662q-27.5 28 -27.5 70q0 40 27.5 66t68.5 26 t69 -26t28 -66q0 -42 -28 -70t-69 -28t-68.5 28z" />
<glyph unicode="&#xc5;" horiz-adv-x="1382" d="M1236 28q0 -24 -18 -36t-46 -12q-40 0 -50 32l-109 360l-646 4l-114 -356q-10 -37 -52 -36q-26 0 -43.5 12t-17.5 34q0 2 4 18q171 510 284 855l118 351q42 123 77 177t85 54q46 0 79.5 -49t69.5 -162q123 -395 242 -792h63q23 0 37.5 -15.5t14.5 -38.5q0 -56 -48 -56 h-34l98 -324q6 -12 6 -20zM982 484l-209 708q-20 74 -39.5 115.5t-31.5 41.5q-10 0 -26 -38.5t-43 -120.5l-228 -699zM555.5 1601.5q-60.5 61.5 -60.5 149.5q0 86 61.5 145t155.5 59q86 0 144.5 -62.5t58.5 -141.5q0 -92 -58.5 -151.5t-150.5 -59.5q-90 0 -150.5 61.5z M799 1659q37 37 37 92q0 50 -38 88t-92 38q-56 0 -93 -38t-37 -88q0 -54 38 -91.5t92 -37.5q56 0 93 37z" />
<glyph unicode="&#xc6;" horiz-adv-x="1912" d="M1800 98.5q20 -12.5 20 -40.5q0 -38 -52 -54q-48 -16 -214 -16q-111 0 -223 6q-183 8 -343 8q-67 0 -87 10.5t-20 37.5q0 36 17 46t63 10q8 71 21 229l4 60l-556 4q-20 -42 -83 -178l-90 -183q-10 -21 -18.5 -28.5t-23.5 -7.5q-31 0 -56 19t-17 37q257 556 484 968.5 t354 414.5q4 2 17 2q277 11 407 11q73 0 206.5 -7.5t187.5 -11.5q34 0 34 -44q0 -29 -15 -41.5t-31 -12.5l-48 2q-199 10 -353 10q-185 0 -269 -6q8 -141 8 -338q0 -132 -2 -190l269 -6q201 -4 236 -7q14 0 23 -12.5t9 -33.5q0 -44 -65 -44q-75 0 -190 7l-152 4h-132 q-2 -67 -32 -508q-4 -33 -8 -104l69 -7q233 -18 353 -18q70 0 115.5 4t136.5 16q26 5 46 -7.5zM990 482q17 331 17 588q0 150 -6 256q-136 -54 -525 -835z" />
<glyph unicode="&#xc7;" horiz-adv-x="1463" d="M785 -6l-73 -117q188 -40 189 -152q0 -100 -74.5 -149.5t-184.5 -49.5q-74 0 -151 29q-19 6 -27.5 23t-3.5 33q4 15 15.5 23.5t28.5 8.5q10 0 16 -2q84 -23 130 -23q71 0 110.5 19.5t39.5 71.5q0 44 -42 63t-132 34q-27 2 -39.5 16.5t-8.5 33.5l97 148 q-157 24 -285.5 105t-207 228t-78.5 357q0 235 96.5 416t254 280t339.5 99q129 0 236.5 -55t181.5 -156l-2 149q0 25 14 38.5t42 13.5q25 0 39.5 -14t14.5 -40v-253q0 -32 -14.5 -47.5t-39.5 -15.5q-21 0 -35.5 7.5t-26.5 25.5q-84 116 -181.5 178.5t-228.5 62.5 q-150 0 -283 -89.5t-213.5 -248t-80.5 -353.5q0 -199 86 -332t220.5 -195.5t285.5 -62.5q121 0 230.5 49.5t177.5 141.5t68 213q0 27 14.5 42.5t41.5 15.5q30 0 43 -13.5t13 -44.5q0 -138 -76 -255t-212 -187t-307 -70h-17z" />
<glyph unicode="&#xc8;" horiz-adv-x="1198" d="M1105 96q0 -26 -11.5 -37t-36.5 -15q-54 -10 -147 -13t-242 -3q-261 0 -486 22q-44 6 -44 50q0 25 11.5 40t30.5 15q25 0 39 -2q34 255 40 570h-42q-54 0 -54 52q0 24 12.5 38t37.5 14h46v6v207q0 210 -4 301q-30 2 -41 13.5t-11 34.5q0 30 16.5 41t45.5 13 q140 13 365 13q291 0 435 -19q25 -4 39 -14.5t14 -35.5t-15 -39.5t-38 -12.5q-192 19 -393 19q-177 0 -307 -11q8 -301 9 -510v-8q52 -2 172 -2q150 -4 202 -4q117 -4 147 -4q45 0 45 -52q0 -54 -45 -55q-26 0 -122 4l-232 7q-116 0 -167 2q-6 -257 -41 -577 q159 -12 369 -12q115 0 179 4t159 14q65 6 65 -54zM696 1615l-164 180q-18 18 -26 29t-8 25q0 20 13.5 34t32.5 14q28 0 64 -44l153 -177q26 -28 25 -48q0 -17 -11.5 -28.5t-28.5 -11.5q-22 0 -50 27z" />
<glyph unicode="&#xc9;" horiz-adv-x="1198" d="M1105 96q0 -26 -11.5 -37t-36.5 -15q-54 -10 -147 -13t-242 -3q-261 0 -486 22q-44 6 -44 50q0 25 11.5 40t30.5 15q25 0 39 -2q34 255 40 570h-42q-54 0 -54 52q0 24 12.5 38t37.5 14h46v6v207q0 210 -4 301q-30 2 -41 13.5t-11 34.5q0 30 16.5 41t45.5 13 q140 13 365 13q291 0 435 -19q25 -4 39 -14.5t14 -35.5t-15 -39.5t-38 -12.5q-192 19 -393 19q-177 0 -307 -11q8 -301 9 -510v-8q52 -2 172 -2q150 -4 202 -4q117 -4 147 -4q45 0 45 -52q0 -54 -45 -55q-26 0 -122 4l-232 7q-116 0 -167 2q-6 -257 -41 -577 q159 -12 369 -12q115 0 179 4t159 14q65 6 65 -54zM543 1599q-11 11 -11 29q0 23 24 48l164 177q20 26 35 35t29 9q18 0 31 -14t13 -34q0 -23 -31 -54l-175 -180q-28 -27 -51 -27q-17 0 -28 11z" />
<glyph unicode="&#xca;" horiz-adv-x="1198" d="M1105 96q0 -26 -11.5 -37t-36.5 -15q-54 -10 -147 -13t-242 -3q-261 0 -486 22q-44 6 -44 50q0 25 11.5 40t30.5 15q25 0 39 -2q34 255 40 570h-42q-54 0 -54 52q0 24 12.5 38t37.5 14h46v6v207q0 210 -4 301q-30 2 -41 13.5t-11 34.5q0 30 16.5 41t45.5 13 q140 13 365 13q291 0 435 -19q25 -4 39 -14.5t14 -35.5t-15 -39.5t-38 -12.5q-192 19 -393 19q-177 0 -307 -11q8 -301 9 -510v-8q52 -2 172 -2q150 -4 202 -4q117 -4 147 -4q45 0 45 -52q0 -54 -45 -55q-26 0 -122 4l-232 7q-116 0 -167 2q-6 -257 -41 -577 q159 -12 369 -12q115 0 179 4t159 14q65 6 65 -54zM847 1626q-67 96 -124 158.5t-81 62.5q-34 0 -205 -197q-28 -36 -52 -35q-16 0 -31 13.5t-15 30.5q0 21 16 37l51 55q76 84 134 137t98 53q52 0 110.5 -59.5t142.5 -170.5l26 -35q13 -17 14 -30q0 -16 -13 -29t-29 -13 q-26 1 -42 22z" />
<glyph unicode="&#xcb;" horiz-adv-x="1198" d="M1105 96q0 -26 -11.5 -37t-36.5 -15q-54 -10 -147 -13t-242 -3q-261 0 -486 22q-44 6 -44 50q0 25 11.5 40t30.5 15q25 0 39 -2q34 255 40 570h-42q-54 0 -54 52q0 24 12.5 38t37.5 14h46v6v207q0 210 -4 301q-30 2 -41 13.5t-11 34.5q0 30 16.5 41t45.5 13 q140 13 365 13q291 0 435 -19q25 -4 39 -14.5t14 -35.5t-15 -39.5t-38 -12.5q-192 19 -393 19q-177 0 -307 -11q8 -301 9 -510v-8q52 -2 172 -2q150 -4 202 -4q117 -4 147 -4q45 0 45 -52q0 -54 -45 -55q-26 0 -122 4l-232 7q-116 0 -167 2q-6 -257 -41 -577 q159 -12 369 -12q115 0 179 4t159 14q65 6 65 -54zM333 1662q-28 28 -28 70q0 40 28 66t69 26q42 0 70 -26t28 -66q0 -42 -28.5 -70t-69.5 -28t-69 28zM809.5 1662q-27.5 28 -27.5 70q0 40 27.5 66t68.5 26t69 -26t28 -66q0 -42 -28 -70t-69 -28t-68.5 28z" />
<glyph unicode="&#xcc;" horiz-adv-x="914" d="M829 64q0 -54 -52 -54l-635 8q-21 2 -33.5 17t-12.5 38q0 28 14.5 40t35.5 12l261 -4q20 341 30 627t10 627q-52 -2 -130.5 -7.5t-111.5 -7.5l-75 -6q-19 0 -31.5 14.5t-12.5 39.5q0 46 50 53q33 6 155.5 13t210.5 7q207 0 281 -12q24 -4 35 -15t11 -37 q0 -28 -14.5 -41.5t-39.5 -11.5q-10 0 -59.5 5.5t-155.5 5.5q0 -365 -8.5 -650.5t-31.5 -603.5l259 -4q50 -1 50 -53zM524 1615l-164 180q-18 18 -26 29t-8 25q0 20 13.5 34t32.5 14q28 0 64 -44l153 -177q26 -28 25 -48q0 -17 -11.5 -28.5t-28.5 -11.5q-22 0 -50 27z" />
<glyph unicode="&#xcd;" horiz-adv-x="914" d="M829 64q0 -54 -52 -54l-635 8q-21 2 -33.5 17t-12.5 38q0 28 14.5 40t35.5 12l261 -4q20 341 30 627t10 627q-52 -2 -130.5 -7.5t-111.5 -7.5l-75 -6q-19 0 -31.5 14.5t-12.5 39.5q0 46 50 53q33 6 155.5 13t210.5 7q207 0 281 -12q24 -4 35 -15t11 -37 q0 -28 -14.5 -41.5t-39.5 -11.5q-10 0 -59.5 5.5t-155.5 5.5q0 -365 -8.5 -650.5t-31.5 -603.5l259 -4q50 -1 50 -53zM371 1599q-11 11 -11 29q0 23 24 48l164 177q20 26 35 35t29 9q18 0 31 -14t13 -34q0 -23 -31 -54l-175 -180q-28 -27 -51 -27q-17 0 -28 11z" />
<glyph unicode="&#xce;" horiz-adv-x="914" d="M829 64q0 -54 -52 -54l-635 8q-21 2 -33.5 17t-12.5 38q0 28 14.5 40t35.5 12l261 -4q20 341 30 627t10 627q-52 -2 -130.5 -7.5t-111.5 -7.5l-75 -6q-19 0 -31.5 14.5t-12.5 39.5q0 46 50 53q33 6 155.5 13t210.5 7q207 0 281 -12q24 -4 35 -15t11 -37 q0 -28 -14.5 -41.5t-39.5 -11.5q-10 0 -59.5 5.5t-155.5 5.5q0 -365 -8.5 -650.5t-31.5 -603.5l259 -4q50 -1 50 -53zM675 1626q-67 96 -124 158.5t-81 62.5q-34 0 -205 -197q-28 -36 -52 -35q-16 0 -31 13.5t-15 30.5q0 21 16 37l51 55q76 84 134 137t98 53 q52 0 110.5 -59.5t142.5 -170.5l26 -35q13 -17 14 -30q0 -16 -13 -29t-29 -13q-26 1 -42 22z" />
<glyph unicode="&#xcf;" horiz-adv-x="914" d="M829 64q0 -54 -52 -54l-635 8q-21 2 -33.5 17t-12.5 38q0 28 14.5 40t35.5 12l261 -4q20 341 30 627t10 627q-52 -2 -130.5 -7.5t-111.5 -7.5l-75 -6q-19 0 -31.5 14.5t-12.5 39.5q0 46 50 53q33 6 155.5 13t210.5 7q207 0 281 -12q24 -4 35 -15t11 -37 q0 -28 -14.5 -41.5t-39.5 -11.5q-10 0 -59.5 5.5t-155.5 5.5q0 -365 -8.5 -650.5t-31.5 -603.5l259 -4q50 -1 50 -53zM161 1662q-28 28 -28 70q0 40 28 66t69 26q42 0 70 -26t28 -66q0 -42 -28.5 -70t-69.5 -28t-69 28zM637.5 1662q-27.5 28 -27.5 70q0 40 27.5 66t68.5 26 t69 -26t28 -66q0 -42 -28 -70t-69 -28t-68.5 28z" />
<glyph unicode="&#xd0;" horiz-adv-x="1471" d="M1116.5 1259.5q249.5 -175.5 249.5 -515.5q0 -224 -111 -387t-318.5 -252t-495.5 -89h-152q-32 0 -47 13t-15 42q0 46 52 46h86l-16 589l-207 4q-80 0 -80 53q0 27 21 41.5t61 12.5l201 -4l-15 545h-29q-76 4 -76 59q0 25 20 34.5t66 9.5h22q12 29 54 28q45 0 54 -33 q426 -21 675.5 -196.5zM886.5 198q172.5 75 268 216.5t95.5 335.5q0 297 -217.5 439t-583.5 165l15 -543l290 -7q31 0 50 -15.5t19 -40.5q0 -48 -69 -48l-286 4l16 -587q230 6 402.5 81z" />
<glyph unicode="&#xd1;" horiz-adv-x="1511" d="M1345 1425l-2 -835q0 -236 -12.5 -356.5t-37.5 -163t-71 -42.5q-73 0 -202 172t-333 500q-300 476 -408 612l3 -291q2 -94 3 -286l2 -666q0 -18 -16 -32t-41 -14q-24 0 -41.5 13.5t-17.5 32.5v664q0 197 -2 297l-2 334q0 52 17 80.5t61 28.5q60 0 157 -131.5t264 -396.5 l88 -141q328 -516 448 -643q27 113 26 429v843q0 54 57 54q60 0 60 -62zM448 1654q0 19 12 34q46 58 82.5 82.5t88.5 24.5q88 0 176 -44q10 -6 38 -20t48 -21t37 -7q32 0 71 39q25 28 41 28q15 0 30.5 -17t15.5 -31q0 -17 -12 -34q-40 -40 -75 -58t-75 -18q-34 0 -66.5 15 t-40.5 17q-30 16 -56 26q-10 4 -54 22.5t-74 18.5q-20 0 -38 -14.5t-34.5 -32.5t-22.5 -24q-32 -28 -50 -28q-15 0 -30 12q-12 16 -12 30z" />
<glyph unicode="&#xd2;" horiz-adv-x="1626" d="M457.5 91.5q-156.5 73.5 -253 230t-96.5 392.5q0 219 84.5 392.5t238 271t356.5 97.5t370 -98.5t264.5 -274t97.5 -396.5q0 -230 -101.5 -384.5t-265.5 -229t-352 -74.5q-186 0 -342.5 73.5zM1091.5 186q136.5 61 225.5 192.5t89 333.5q0 188 -79.5 338t-218.5 234 t-312 84q-168 0 -298.5 -80t-203.5 -226.5t-73 -336.5q0 -217 90 -350.5t223.5 -191.5t274.5 -58q146 0 282.5 61zM869 1615l-164 180q-18 18 -26 29t-8 25q0 20 13.5 34t32.5 14q28 0 64 -44l153 -177q26 -28 25 -48q0 -17 -11.5 -28.5t-28.5 -11.5q-22 0 -50 27z" />
<glyph unicode="&#xd3;" horiz-adv-x="1626" d="M457.5 91.5q-156.5 73.5 -253 230t-96.5 392.5q0 219 84.5 392.5t238 271t356.5 97.5t370 -98.5t264.5 -274t97.5 -396.5q0 -230 -101.5 -384.5t-265.5 -229t-352 -74.5q-186 0 -342.5 73.5zM1091.5 186q136.5 61 225.5 192.5t89 333.5q0 188 -79.5 338t-218.5 234 t-312 84q-168 0 -298.5 -80t-203.5 -226.5t-73 -336.5q0 -217 90 -350.5t223.5 -191.5t274.5 -58q146 0 282.5 61zM716 1599q-11 11 -11 29q0 23 24 48l164 177q20 26 35 35t29 9q18 0 31 -14t13 -34q0 -23 -31 -54l-175 -180q-28 -27 -51 -27q-17 0 -28 11z" />
<glyph unicode="&#xd4;" horiz-adv-x="1626" d="M457.5 91.5q-156.5 73.5 -253 230t-96.5 392.5q0 219 84.5 392.5t238 271t356.5 97.5t370 -98.5t264.5 -274t97.5 -396.5q0 -230 -101.5 -384.5t-265.5 -229t-352 -74.5q-186 0 -342.5 73.5zM1091.5 186q136.5 61 225.5 192.5t89 333.5q0 188 -79.5 338t-218.5 234 t-312 84q-168 0 -298.5 -80t-203.5 -226.5t-73 -336.5q0 -217 90 -350.5t223.5 -191.5t274.5 -58q146 0 282.5 61zM1020 1626q-67 96 -124 158.5t-81 62.5q-34 0 -205 -197q-28 -36 -52 -35q-16 0 -31 13.5t-15 30.5q0 21 16 37l51 55q76 84 134 137t98 53q52 0 110.5 -59.5 t142.5 -170.5l26 -35q13 -17 14 -30q0 -16 -13 -29t-29 -13q-26 1 -42 22z" />
<glyph unicode="&#xd5;" horiz-adv-x="1626" d="M457.5 91.5q-156.5 73.5 -253 230t-96.5 392.5q0 219 84.5 392.5t238 271t356.5 97.5t370 -98.5t264.5 -274t97.5 -396.5q0 -230 -101.5 -384.5t-265.5 -229t-352 -74.5q-186 0 -342.5 73.5zM1091.5 186q136.5 61 225.5 192.5t89 333.5q0 188 -79.5 338t-218.5 234 t-312 84q-168 0 -298.5 -80t-203.5 -226.5t-73 -336.5q0 -217 90 -350.5t223.5 -191.5t274.5 -58q146 0 282.5 61zM494 1654q0 19 12 34q46 58 82.5 82.5t88.5 24.5q88 0 176 -44q10 -6 38 -20t48 -21t37 -7q32 0 71 39q25 28 41 28q15 0 30.5 -17t15.5 -31q0 -17 -12 -34 q-40 -40 -75 -58t-75 -18q-34 0 -66.5 15t-40.5 17q-30 16 -56 26q-10 4 -54 22.5t-74 18.5q-20 0 -38 -14.5t-34.5 -32.5t-22.5 -24q-32 -28 -50 -28q-15 0 -30 12q-12 16 -12 30z" />
<glyph unicode="&#xd6;" horiz-adv-x="1626" d="M457.5 91.5q-156.5 73.5 -253 230t-96.5 392.5q0 219 84.5 392.5t238 271t356.5 97.5t370 -98.5t264.5 -274t97.5 -396.5q0 -230 -101.5 -384.5t-265.5 -229t-352 -74.5q-186 0 -342.5 73.5zM1091.5 186q136.5 61 225.5 192.5t89 333.5q0 188 -79.5 338t-218.5 234 t-312 84q-168 0 -298.5 -80t-203.5 -226.5t-73 -336.5q0 -217 90 -350.5t223.5 -191.5t274.5 -58q146 0 282.5 61zM506 1662q-28 28 -28 70q0 40 28 66t69 26q42 0 70 -26t28 -66q0 -42 -28.5 -70t-69.5 -28t-69 28zM982.5 1662q-27.5 28 -27.5 70q0 40 27.5 66t68.5 26 t69 -26t28 -66q0 -42 -28 -70t-69 -28t-68.5 28z" />
<glyph unicode="&#xd7;" d="M897 339q0 -17 -14 -31.5t-35 -14.5q-15 0 -25 7t-25 23q-168 176 -246 261q-98 -111 -241 -267q-18 -20 -44 -20q-18 0 -34 12t-16 28t10 28l255 291q-145 157 -250 261q-19 18 -19 40q0 16 15 31t37 15q12 0 22 -6.5t16 -14t10 -11.5q90 -100 180 -190l50 -54l207 242 q2 2 14.5 15t27.5 13q25 0 40.5 -14t15.5 -34q0 -21 -13 -38l-223 -257l271 -287q14 -12 14 -28z" />
<glyph unicode="&#xd8;" horiz-adv-x="1626" d="M1459 1024.5q60 -145.5 60 -318.5q0 -230 -101.5 -384.5t-265.5 -229t-352 -74.5q-128 0 -242.5 35t-206.5 104l-132 -155q-16 -18 -27.5 -26t-26.5 -8q-16 0 -33 13t-17 29q0 12 19 38l145 173q-171 182 -171 493q0 219 84.5 392.5t238 271t356.5 97.5q122 0 232.5 -37 t200.5 -103l138 162q29 36 52 36q18 0 32 -13t14 -33q0 -18 -19 -40l-146 -173q108 -104 168 -249.5zM357 313l796 941q-157 115 -357 114q-168 0 -298.5 -80t-203.5 -226.5t-73 -336.5q0 -259 136 -412zM1091.5 186q136.5 61 225.5 192.5t89 333.5q0 144 -48 267.5 t-136 212.5l-796 -943q82 -62 182 -93t201 -31q146 0 282.5 61z" />
<glyph unicode="&#xd9;" horiz-adv-x="1336" d="M1192 706q4 -363 5 -658q0 -52 -57 -52q-29 0 -42.5 15t-13.5 45v211q-62 -117 -184.5 -189t-283.5 -72q-171 0 -278.5 79.5t-153.5 200.5t-46 260q0 148 2 259.5t4 186.5q8 272 9 425q0 48 54 48q58 0 58 -53q0 -100 -3 -225.5t-3 -187.5q-6 -232 -6 -453 q0 -207 98 -320t277 -113q140 0 242.5 68t156 169t53.5 198l-4 353q0 137 -4 522q0 27 11 41.5t41 14.5q60 0 60 -58q0 -245 6 -552zM724 1615l-164 180q-18 18 -26 29t-8 25q0 20 13.5 34t32.5 14q28 0 64 -44l153 -177q26 -28 25 -48q0 -17 -11.5 -28.5t-28.5 -11.5 q-22 0 -50 27z" />
<glyph unicode="&#xda;" horiz-adv-x="1336" d="M1192 706q4 -363 5 -658q0 -52 -57 -52q-29 0 -42.5 15t-13.5 45v211q-62 -117 -184.5 -189t-283.5 -72q-171 0 -278.5 79.5t-153.5 200.5t-46 260q0 148 2 259.5t4 186.5q8 272 9 425q0 48 54 48q58 0 58 -53q0 -100 -3 -225.5t-3 -187.5q-6 -232 -6 -453 q0 -207 98 -320t277 -113q140 0 242.5 68t156 169t53.5 198l-4 353q0 137 -4 522q0 27 11 41.5t41 14.5q60 0 60 -58q0 -245 6 -552zM571 1599q-11 11 -11 29q0 23 24 48l164 177q20 26 35 35t29 9q18 0 31 -14t13 -34q0 -23 -31 -54l-175 -180q-28 -27 -51 -27 q-17 0 -28 11z" />
<glyph unicode="&#xdb;" horiz-adv-x="1336" d="M1192 706q4 -363 5 -658q0 -52 -57 -52q-29 0 -42.5 15t-13.5 45v211q-62 -117 -184.5 -189t-283.5 -72q-171 0 -278.5 79.5t-153.5 200.5t-46 260q0 148 2 259.5t4 186.5q8 272 9 425q0 48 54 48q58 0 58 -53q0 -100 -3 -225.5t-3 -187.5q-6 -232 -6 -453 q0 -207 98 -320t277 -113q140 0 242.5 68t156 169t53.5 198l-4 353q0 137 -4 522q0 27 11 41.5t41 14.5q60 0 60 -58q0 -245 6 -552zM875 1626q-67 96 -124 158.5t-81 62.5q-34 0 -205 -197q-28 -36 -52 -35q-16 0 -31 13.5t-15 30.5q0 21 16 37l51 55q76 84 134 137t98 53 q52 0 110.5 -59.5t142.5 -170.5l26 -35q13 -17 14 -30q0 -16 -13 -29t-29 -13q-26 1 -42 22z" />
<glyph unicode="&#xdc;" horiz-adv-x="1336" d="M1192 706q4 -363 5 -658q0 -52 -57 -52q-29 0 -42.5 15t-13.5 45v211q-62 -117 -184.5 -189t-283.5 -72q-171 0 -278.5 79.5t-153.5 200.5t-46 260q0 148 2 259.5t4 186.5q8 272 9 425q0 48 54 48q58 0 58 -53q0 -100 -3 -225.5t-3 -187.5q-6 -232 -6 -453 q0 -207 98 -320t277 -113q140 0 242.5 68t156 169t53.5 198l-4 353q0 137 -4 522q0 27 11 41.5t41 14.5q60 0 60 -58q0 -245 6 -552zM361 1662q-28 28 -28 70q0 40 28 66t69 26q42 0 70 -26t28 -66q0 -42 -28.5 -70t-69.5 -28t-69 28zM837.5 1662q-27.5 28 -27.5 70 q0 40 27.5 66t68.5 26t69 -26t28 -66q0 -42 -28 -70t-69 -28t-68.5 28z" />
<glyph unicode="&#xdd;" horiz-adv-x="1319" d="M608 67l-6 616q-56 21 -117 90t-142 198q-70 108 -110.5 196.5t-92.5 225.5q-4 8 -4 17q0 18 17.5 33.5t43.5 15.5q25 0 37.5 -15t22.5 -45q48 -123 85.5 -201t98.5 -177q148 -241 219 -240q38 0 97.5 65t125.5 178q50 84 89 166t98 218q12 27 23.5 37.5t28.5 10.5 q28 0 45 -14.5t17 -35.5q0 -13 -6 -25q-62 -153 -102 -235.5t-94 -174.5q-73 -121 -144 -196t-124 -92l7 -612q0 -62 -57 -63q-56 1 -56 59zM567 1599q-11 11 -11 29q0 23 24 48l164 177q20 26 35 35t29 9q18 0 31 -14t13 -34q0 -23 -31 -54l-175 -180q-28 -27 -51 -27 q-17 0 -28 11z" />
<glyph unicode="&#xde;" horiz-adv-x="1302" d="M948.5 1278.5q129.5 -56.5 211 -163t81.5 -248.5q0 -134 -72.5 -234.5t-195 -154.5t-273.5 -54q-166 0 -320 58l-6 -440q0 -24 -17.5 -40t-41.5 -16q-67 0 -66 66q0 12 6 62.5t6 259.5q0 61 -4 228q-6 281 -19 510l-27 -18q-12 -8 -21 -8q-19 0 -34.5 15t-15.5 37 q0 24 23 38q12 10 71 38q-13 245 -21 334q-2 24 16 40t46 16q61 0 62 -54l14 -286q186 71 330 71q138 0 267.5 -56.5zM902.5 574q98.5 44 157 122.5t58.5 178.5q0 102 -62 182.5t-166.5 125.5t-225.5 45q-150 0 -307 -60q8 -142 12 -273l9 -303q88 -32 159 -47t150 -15 q117 0 215.5 44z" />
<glyph unicode="&#xdf;" horiz-adv-x="1326" d="M634 11q-76 15 -130 43q-30 12 -30 42q0 20 14 38.5t32 18.5q10 0 26 -7q67 -28 117.5 -40t109.5 -12q303 0 303 207q0 73 -46 120t-141 107q-93 61 -142 111.5t-49 127.5q0 67 55.5 134.5t188.5 105.5q26 60 25 123q0 84 -42 157t-117 115.5t-168 42.5 q-172 0 -258.5 -132.5t-90.5 -421.5l-14 -805q0 -56 -50 -56q-54 0 -54 56l7 805q2 307 109.5 478.5t360.5 171.5q129 0 225 -55t148.5 -145.5t52.5 -194.5q0 -121 -55 -213q-108 -25 -162.5 -71.5t-54.5 -94.5q0 -40 35.5 -73.5t113.5 -87.5q113 -76 173 -142.5t60 -164.5 q0 -153 -107.5 -228t-295.5 -75q-73 0 -149 15z" />
<glyph unicode="&#xe0;" horiz-adv-x="1284" d="M1138.5 91q12.5 -9 12.5 -35q0 -23 -12.5 -36.5t-33.5 -13.5q-84 0 -122 30.5t-64 111.5q-46 -80 -133.5 -122t-209.5 -42q-173 0 -276 80t-145 195t-42 234q0 135 53 257.5t161 200t263 77.5q227 0 327 -180l14 111q2 27 13 41.5t38 14.5q32 0 48.5 -14.5t11.5 -33.5 q-16 -111 -27 -234q-8 -89 -8 -242v-136q0 -104 5 -153t25 -72.5t64 -25.5q25 -4 37.5 -13zM897 606q0 121 -52.5 194t-121.5 101t-131 28q-126 0 -208.5 -70t-120.5 -171.5t-38 -194.5q0 -90 31 -183t108 -159.5t208 -66.5q136 0 227.5 69.5t95.5 203.5q2 103 2 249z M686 1197l-164 180q-18 18 -26 29t-8 25q0 20 13.5 34t32.5 14q28 0 64 -44l153 -177q26 -28 25 -48q0 -17 -11.5 -28.5t-28.5 -11.5q-22 0 -50 27z" />
<glyph unicode="&#xe1;" horiz-adv-x="1284" d="M1138.5 91q12.5 -9 12.5 -35q0 -23 -12.5 -36.5t-33.5 -13.5q-84 0 -122 30.5t-64 111.5q-46 -80 -133.5 -122t-209.5 -42q-173 0 -276 80t-145 195t-42 234q0 135 53 257.5t161 200t263 77.5q227 0 327 -180l14 111q2 27 13 41.5t38 14.5q32 0 48.5 -14.5t11.5 -33.5 q-16 -111 -27 -234q-8 -89 -8 -242v-136q0 -104 5 -153t25 -72.5t64 -25.5q25 -4 37.5 -13zM897 606q0 121 -52.5 194t-121.5 101t-131 28q-126 0 -208.5 -70t-120.5 -171.5t-38 -194.5q0 -90 31 -183t108 -159.5t208 -66.5q136 0 227.5 69.5t95.5 203.5q2 103 2 249z M533 1181q-11 11 -11 29q0 23 24 48l164 177q20 26 35 35t29 9q18 0 31 -14t13 -34q0 -23 -31 -54l-175 -180q-28 -27 -51 -27q-17 0 -28 11z" />
<glyph unicode="&#xe2;" horiz-adv-x="1284" d="M1138.5 91q12.5 -9 12.5 -35q0 -23 -12.5 -36.5t-33.5 -13.5q-84 0 -122 30.5t-64 111.5q-46 -80 -133.5 -122t-209.5 -42q-173 0 -276 80t-145 195t-42 234q0 135 53 257.5t161 200t263 77.5q227 0 327 -180l14 111q2 27 13 41.5t38 14.5q32 0 48.5 -14.5t11.5 -33.5 q-16 -111 -27 -234q-8 -89 -8 -242v-136q0 -104 5 -153t25 -72.5t64 -25.5q25 -4 37.5 -13zM897 606q0 121 -52.5 194t-121.5 101t-131 28q-126 0 -208.5 -70t-120.5 -171.5t-38 -194.5q0 -90 31 -183t108 -159.5t208 -66.5q136 0 227.5 69.5t95.5 203.5q2 103 2 249z M837 1208q-67 96 -124 158.5t-81 62.5q-34 0 -205 -197q-28 -36 -52 -35q-16 0 -31 13.5t-15 30.5q0 21 16 37l51 55q76 84 134 137t98 53q52 0 110.5 -59.5t142.5 -170.5l26 -35q13 -17 14 -30q0 -16 -13 -29t-29 -13q-26 1 -42 22z" />
<glyph unicode="&#xe3;" horiz-adv-x="1284" d="M1138.5 91q12.5 -9 12.5 -35q0 -23 -12.5 -36.5t-33.5 -13.5q-84 0 -122 30.5t-64 111.5q-46 -80 -133.5 -122t-209.5 -42q-173 0 -276 80t-145 195t-42 234q0 135 53 257.5t161 200t263 77.5q227 0 327 -180l14 111q2 27 13 41.5t38 14.5q32 0 48.5 -14.5t11.5 -33.5 q-16 -111 -27 -234q-8 -89 -8 -242v-136q0 -104 5 -153t25 -72.5t64 -25.5q25 -4 37.5 -13zM897 606q0 121 -52.5 194t-121.5 101t-131 28q-126 0 -208.5 -70t-120.5 -171.5t-38 -194.5q0 -90 31 -183t108 -159.5t208 -66.5q136 0 227.5 69.5t95.5 203.5q2 103 2 249z M311 1236q0 19 12 34q46 58 82.5 82.5t88.5 24.5q88 0 176 -44q10 -6 38 -20t48 -21t37 -7q32 0 71 39q25 28 41 28q15 0 30.5 -17t15.5 -31q0 -17 -12 -34q-40 -40 -75 -58t-75 -18q-34 0 -66.5 15t-40.5 17q-30 16 -56 26q-10 4 -54 22.5t-74 18.5q-20 0 -38 -14.5 t-34.5 -32.5t-22.5 -24q-32 -28 -50 -28q-15 0 -30 12q-12 16 -12 30z" />
<glyph unicode="&#xe4;" horiz-adv-x="1284" d="M1138.5 91q12.5 -9 12.5 -35q0 -23 -12.5 -36.5t-33.5 -13.5q-84 0 -122 30.5t-64 111.5q-46 -80 -133.5 -122t-209.5 -42q-173 0 -276 80t-145 195t-42 234q0 135 53 257.5t161 200t263 77.5q227 0 327 -180l14 111q2 27 13 41.5t38 14.5q32 0 48.5 -14.5t11.5 -33.5 q-16 -111 -27 -234q-8 -89 -8 -242v-136q0 -104 5 -153t25 -72.5t64 -25.5q25 -4 37.5 -13zM897 606q0 121 -52.5 194t-121.5 101t-131 28q-126 0 -208.5 -70t-120.5 -171.5t-38 -194.5q0 -90 31 -183t108 -159.5t208 -66.5q136 0 227.5 69.5t95.5 203.5q2 103 2 249z M323 1244q-28 28 -28 70q0 40 28 66t69 26q42 0 70 -26t28 -66q0 -42 -28.5 -70t-69.5 -28t-69 28zM799.5 1244q-27.5 28 -27.5 70q0 40 27.5 66t68.5 26t69 -26t28 -66q0 -42 -28 -70t-69 -28t-68.5 28z" />
<glyph unicode="&#xe5;" horiz-adv-x="1284" d="M1138.5 91q12.5 -9 12.5 -35q0 -23 -12.5 -36.5t-33.5 -13.5q-84 0 -122 30.5t-64 111.5q-46 -80 -133.5 -122t-209.5 -42q-173 0 -276 80t-145 195t-42 234q0 135 53 257.5t161 200t263 77.5q227 0 327 -180l14 111q2 27 13 41.5t38 14.5q32 0 48.5 -14.5t11.5 -33.5 q-16 -111 -27 -234q-8 -89 -8 -242v-136q0 -104 5 -153t25 -72.5t64 -25.5q25 -4 37.5 -13zM897 606q0 121 -52.5 194t-121.5 101t-131 28q-126 0 -208.5 -70t-120.5 -171.5t-38 -194.5q0 -90 31 -183t108 -159.5t208 -66.5q136 0 227.5 69.5t95.5 203.5q2 103 2 249z M481.5 1183.5q-60.5 61.5 -60.5 149.5q0 86 61.5 145t155.5 59q86 0 144.5 -62.5t58.5 -141.5q0 -92 -58.5 -151.5t-150.5 -59.5q-90 0 -150.5 61.5zM725 1241q37 37 37 92q0 50 -38 88t-92 38q-56 0 -93 -38t-37 -88q0 -54 38 -91.5t92 -37.5q56 0 93 37z" />
<glyph unicode="&#xe6;" horiz-adv-x="2061" d="M1021 482q-2 -211 102.5 -309t315.5 -98q136 0 222.5 57.5t152.5 156.5q10 18 32 18q19 0 38 -16t19 -34q0 -16 -15 -42q-75 -115 -191 -175t-260 -60q-175 0 -292 61t-163 174q-35 -115 -151.5 -175t-278.5 -60q-224 0 -330.5 66.5t-106.5 208.5q0 333 426 345l376 8v25 q2 86 -41 162t-123.5 124t-188.5 48q-125 0 -210 -44t-155 -112q-18 -14 -38 -15q-18 0 -33 14.5t-15 31.5q0 18 23 41q179 180 430 180q155 0 267 -83t144 -199q50 124 172.5 207.5t293.5 83.5q140 0 254.5 -60.5t179 -160t64.5 -207.5q0 -56 -20 -79.5t-70 -25.5l-827 -21 zM1244 927q-93 -50 -151.5 -134.5t-66.5 -182.5l806 20v24q0 75 -49 150t-136.5 124t-201.5 49q-108 0 -201 -50zM813.5 142q101.5 69 101.5 215v159l-374 -8q-162 -4 -241 -69t-79 -184q0 -92 80.5 -137t250.5 -45q160 0 261.5 69z" />
<glyph unicode="&#xe7;" horiz-adv-x="1210" d="M1114 397q0 -80 -48.5 -166.5t-147.5 -150.5t-246 -74v-2l-78 -127q185 -40 185 -152q0 -100 -74.5 -149.5t-184.5 -49.5q-71 0 -148 29q-18 6 -26.5 23t-4.5 33q4 17 20.5 26.5t37.5 3.5q83 -23 129 -23q72 0 111.5 19.5t39.5 71.5q0 44 -41.5 63t-131.5 34 q-28 2 -40.5 16.5t-5.5 33.5l98 150q-148 14 -248.5 85.5t-151 179t-50.5 235.5q0 142 59.5 272.5t178 212t284.5 81.5q184 0 298 -91.5t154 -203.5q4 -8 4 -23q0 -32 -37 -42q-48 -10 -69 42q-31 88 -120 153.5t-218 65.5q-130 0 -225.5 -67t-145.5 -173.5t-50 -222.5 q0 -111 46 -204t137 -148.5t222 -55.5q126 0 212.5 50.5t128.5 120.5t44 134q0 18 12.5 30t35.5 12q55 0 55 -52z" />
<glyph unicode="&#xe8;" horiz-adv-x="1252" d="M357 71q-121 75 -182.5 196.5t-61.5 260.5q0 144 65 269.5t187 200t283 74.5q139 0 250 -57.5t172.5 -159t61.5 -229.5q0 -58 -13.5 -79t-65.5 -23l-832 -20q0 -100 52 -194.5t148.5 -154t226.5 -59.5q98 0 164.5 30.5t105.5 69t91 105.5q10 14 33 14q21 0 39 -15t18 -37 q0 -16 -15 -36q-67 -97 -163 -164t-271 -67q-172 0 -293 75zM1017 620q10 0 13.5 6.5t3.5 21.5q0 92 -49 166.5t-137 116.5t-196 42q-128 0 -226 -62.5t-151.5 -151.5t-53.5 -161zM696 1197l-164 180q-18 18 -26 29t-8 25q0 20 13.5 34t32.5 14q28 0 64 -44l153 -177 q26 -28 25 -48q0 -17 -11.5 -28.5t-28.5 -11.5q-22 0 -50 27z" />
<glyph unicode="&#xe9;" horiz-adv-x="1252" d="M357 71q-121 75 -182.5 196.5t-61.5 260.5q0 144 65 269.5t187 200t283 74.5q139 0 250 -57.5t172.5 -159t61.5 -229.5q0 -58 -13.5 -79t-65.5 -23l-832 -20q0 -100 52 -194.5t148.5 -154t226.5 -59.5q98 0 164.5 30.5t105.5 69t91 105.5q10 14 33 14q21 0 39 -15t18 -37 q0 -16 -15 -36q-67 -97 -163 -164t-271 -67q-172 0 -293 75zM1017 620q10 0 13.5 6.5t3.5 21.5q0 92 -49 166.5t-137 116.5t-196 42q-128 0 -226 -62.5t-151.5 -151.5t-53.5 -161zM513 1183q-11 9 -15 23v8q0 20 18 42l180 221q20 25 34 33.5t33 8.5q20 0 35 -15t15 -35 q0 -28 -38 -70l-181 -193q-19 -19 -29.5 -25.5t-24.5 -6.5q-16 0 -27 9z" />
<glyph unicode="&#xea;" horiz-adv-x="1252" d="M357 71q-121 75 -182.5 196.5t-61.5 260.5q0 144 65 269.5t187 200t283 74.5q139 0 250 -57.5t172.5 -159t61.5 -229.5q0 -58 -13.5 -79t-65.5 -23l-832 -20q0 -100 52 -194.5t148.5 -154t226.5 -59.5q98 0 164.5 30.5t105.5 69t91 105.5q10 14 33 14q21 0 39 -15t18 -37 q0 -16 -15 -36q-67 -97 -163 -164t-271 -67q-172 0 -293 75zM1017 620q10 0 13.5 6.5t3.5 21.5q0 92 -49 166.5t-137 116.5t-196 42q-128 0 -226 -62.5t-151.5 -151.5t-53.5 -161zM847 1208q-67 96 -124 158.5t-81 62.5q-34 0 -205 -197q-28 -36 -52 -35q-16 0 -31 13.5 t-15 30.5q0 21 16 37l51 55q76 84 134 137t98 53q52 0 110.5 -59.5t142.5 -170.5l26 -35q13 -17 14 -30q0 -16 -13 -29t-29 -13q-26 1 -42 22z" />
<glyph unicode="&#xeb;" horiz-adv-x="1252" d="M357 71q-121 75 -182.5 196.5t-61.5 260.5q0 144 65 269.5t187 200t283 74.5q139 0 250 -57.5t172.5 -159t61.5 -229.5q0 -58 -13.5 -79t-65.5 -23l-832 -20q0 -100 52 -194.5t148.5 -154t226.5 -59.5q98 0 164.5 30.5t105.5 69t91 105.5q10 14 33 14q21 0 39 -15t18 -37 q0 -16 -15 -36q-67 -97 -163 -164t-271 -67q-172 0 -293 75zM1017 620q10 0 13.5 6.5t3.5 21.5q0 92 -49 166.5t-137 116.5t-196 42q-128 0 -226 -62.5t-151.5 -151.5t-53.5 -161zM333 1244q-28 28 -28 70q0 40 28 66t69 26q42 0 70 -26t28 -66q0 -42 -28.5 -70t-69.5 -28 t-69 28zM809.5 1244q-27.5 28 -27.5 70q0 40 27.5 66t68.5 26t69 -26t28 -66q0 -42 -28 -70t-69 -28t-68.5 28z" />
<glyph unicode="&#xec;" horiz-adv-x="655" d="M277 28q-16 18 -16 45l21 919q0 32 15.5 47.5t41.5 15.5q27 0 42.5 -15.5t15.5 -47.5l-28 -919q0 -29 -13 -46t-39 -17q-24 0 -40 18zM389 1197l-164 180q-18 18 -26 29t-8 25q0 20 13.5 34t32.5 14q28 0 64 -44l153 -177q26 -28 25 -48q0 -17 -11.5 -28.5t-28.5 -11.5 q-22 0 -50 27z" />
<glyph unicode="&#xed;" horiz-adv-x="655" d="M277 28q-16 18 -16 45l21 919q0 32 15.5 47.5t41.5 15.5q27 0 42.5 -15.5t15.5 -47.5l-28 -919q0 -29 -13 -46t-39 -17q-24 0 -40 18zM235 1181q-11 11 -11 29q0 23 24 48l164 177q20 26 35 35t29 9q18 0 31 -14t13 -34q0 -23 -31 -54l-175 -180q-28 -27 -51 -27 q-17 0 -28 11z" />
<glyph unicode="&#xee;" horiz-adv-x="655" d="M277 28q-16 18 -16 45l21 919q0 32 15.5 47.5t41.5 15.5q27 0 42.5 -15.5t15.5 -47.5l-28 -919q0 -29 -13 -46t-39 -17q-24 0 -40 18zM540 1208q-67 96 -124 158.5t-81 62.5q-34 0 -205 -197q-28 -36 -52 -35q-16 0 -31 13.5t-15 30.5q0 21 16 37l51 55q76 84 134 137 t98 53q52 0 110.5 -59.5t142.5 -170.5l26 -35q13 -17 14 -30q0 -16 -13 -29t-29 -13q-26 1 -42 22z" />
<glyph unicode="&#xef;" horiz-adv-x="655" d="M277 28q-16 18 -16 45l21 919q0 32 15.5 47.5t41.5 15.5q27 0 42.5 -15.5t15.5 -47.5l-28 -919q0 -29 -13 -46t-39 -17q-24 0 -40 18zM26 1244q-28 28 -28 70q0 40 28 66t69 26q42 0 70 -26t28 -66q0 -42 -28.5 -70t-69.5 -28t-69 28zM502.5 1244q-27.5 28 -27.5 70 q0 40 27.5 66t68.5 26t69 -26t28 -66q0 -42 -28 -70t-69 -28t-68.5 28z" />
<glyph unicode="&#xf0;" horiz-adv-x="1236" d="M1069.5 887.5q56.5 -175.5 56.5 -329.5q0 -180 -72 -304t-191 -187t-261 -63q-150 0 -262.5 68t-169.5 182.5t-57 253.5q0 140 60.5 267.5t174.5 206.5t270 79q165 0 291 -96q-46 104 -111 188q-68 89 -152 161l-199 -110q-21 -13 -38 -14q-20 0 -35 15t-15 36t32 39 l167 97q-90 56 -176 86q-27 8 -27 41q0 21 16 38t38 17q23 0 65 -22q111 -52 186 -102l193 108q12 8 24 9q14 0 32 -15.5t18 -39.5q0 -16 -10 -26t-30 -22l-141 -79q85 -76 153 -158q114 -149 170.5 -324.5zM802.5 155.5q92.5 49.5 149.5 149.5t57 243q0 96 -23 196 q-73 100 -165 159.5t-199 59.5q-113 0 -203.5 -64t-143 -168.5t-52.5 -220.5q0 -111 48 -204t135 -146.5t200 -53.5q104 0 196.5 49.5z" />
<glyph unicode="&#xf1;" horiz-adv-x="1142" d="M915 939q86 -122 86 -373v-506q0 -56 -54 -56q-59 0 -60 54v510q0 203 -52 298t-183 95q-247 0 -311 -361q-19 -102 -20 -233l2 -321q0 -44 -54 -44q-25 0 -40.5 13t-15.5 31q-4 275 -8 416q-6 186 -6 349q0 44 -9.5 70t-25.5 53t-24 39q-6 10 -6 26q0 18 20.5 34 t39.5 16q20 0 44 -32q25 -44 44 -87t19 -93v-48q36 118 123.5 195t233.5 77q171 0 257 -122zM279 1236q0 19 12 34q46 58 82.5 82.5t88.5 24.5q88 0 176 -44q10 -6 38 -20t48 -21t37 -7q32 0 71 39q25 28 41 28q15 0 30.5 -17t15.5 -31q0 -17 -12 -34q-40 -40 -75 -58 t-75 -18q-34 0 -66.5 15t-40.5 17q-30 16 -56 26q-10 4 -54 22.5t-74 18.5q-20 0 -38 -14.5t-34.5 -32.5t-22.5 -24q-32 -28 -50 -28q-15 0 -30 12q-12 16 -12 30z" />
<glyph unicode="&#xf2;" horiz-adv-x="1250" d="M246.5 120.5q-156.5 122.5 -156.5 395.5q0 165 61.5 292.5t180.5 198.5t284 71q157 0 280 -64.5t195.5 -191t72.5 -302.5q0 -257 -149.5 -389.5t-388.5 -132.5q-223 0 -379.5 122.5zM837.5 144q95.5 46 154.5 142t59 236q0 138 -55.5 241.5t-153.5 160t-222 56.5 q-125 0 -220 -56.5t-146 -161t-51 -242.5q0 -221 125 -321.5t296 -100.5q118 0 213.5 46zM682 1197l-164 180q-18 18 -26 29t-8 25q0 20 13.5 34t32.5 14q28 0 64 -44l153 -177q26 -28 25 -48q0 -17 -11.5 -28.5t-28.5 -11.5q-22 0 -50 27z" />
<glyph unicode="&#xf3;" horiz-adv-x="1250" d="M246.5 120.5q-156.5 122.5 -156.5 395.5q0 165 61.5 292.5t180.5 198.5t284 71q157 0 280 -64.5t195.5 -191t72.5 -302.5q0 -257 -149.5 -389.5t-388.5 -132.5q-223 0 -379.5 122.5zM837.5 144q95.5 46 154.5 142t59 236q0 138 -55.5 241.5t-153.5 160t-222 56.5 q-125 0 -220 -56.5t-146 -161t-51 -242.5q0 -221 125 -321.5t296 -100.5q118 0 213.5 46zM529 1181q-11 11 -11 29q0 23 24 48l164 177q20 26 35 35t29 9q18 0 31 -14t13 -34q0 -23 -31 -54l-175 -180q-28 -27 -51 -27q-17 0 -28 11z" />
<glyph unicode="&#xf4;" horiz-adv-x="1250" d="M246.5 120.5q-156.5 122.5 -156.5 395.5q0 165 61.5 292.5t180.5 198.5t284 71q157 0 280 -64.5t195.5 -191t72.5 -302.5q0 -257 -149.5 -389.5t-388.5 -132.5q-223 0 -379.5 122.5zM837.5 144q95.5 46 154.5 142t59 236q0 138 -55.5 241.5t-153.5 160t-222 56.5 q-125 0 -220 -56.5t-146 -161t-51 -242.5q0 -221 125 -321.5t296 -100.5q118 0 213.5 46zM833 1208q-67 96 -124 158.5t-81 62.5q-34 0 -205 -197q-28 -36 -52 -35q-16 0 -31 13.5t-15 30.5q0 21 16 37l51 55q76 84 134 137t98 53q52 0 110.5 -59.5t142.5 -170.5l26 -35 q13 -17 14 -30q0 -16 -13 -29t-29 -13q-26 1 -42 22z" />
<glyph unicode="&#xf5;" horiz-adv-x="1250" d="M246.5 120.5q-156.5 122.5 -156.5 395.5q0 165 61.5 292.5t180.5 198.5t284 71q157 0 280 -64.5t195.5 -191t72.5 -302.5q0 -257 -149.5 -389.5t-388.5 -132.5q-223 0 -379.5 122.5zM837.5 144q95.5 46 154.5 142t59 236q0 138 -55.5 241.5t-153.5 160t-222 56.5 q-125 0 -220 -56.5t-146 -161t-51 -242.5q0 -221 125 -321.5t296 -100.5q118 0 213.5 46zM307 1236q0 19 12 34q46 58 82.5 82.5t88.5 24.5q88 0 176 -44q10 -6 38 -20t48 -21t37 -7q32 0 71 39q25 28 41 28q15 0 30.5 -17t15.5 -31q0 -17 -12 -34q-40 -40 -75 -58t-75 -18 q-34 0 -66.5 15t-40.5 17q-30 16 -56 26q-10 4 -54 22.5t-74 18.5q-20 0 -38 -14.5t-34.5 -32.5t-22.5 -24q-32 -28 -50 -28q-15 0 -30 12q-12 16 -12 30z" />
<glyph unicode="&#xf6;" horiz-adv-x="1250" d="M246.5 120.5q-156.5 122.5 -156.5 395.5q0 165 61.5 292.5t180.5 198.5t284 71q157 0 280 -64.5t195.5 -191t72.5 -302.5q0 -257 -149.5 -389.5t-388.5 -132.5q-223 0 -379.5 122.5zM837.5 144q95.5 46 154.5 142t59 236q0 138 -55.5 241.5t-153.5 160t-222 56.5 q-125 0 -220 -56.5t-146 -161t-51 -242.5q0 -221 125 -321.5t296 -100.5q118 0 213.5 46zM319 1244q-28 28 -28 70q0 40 28 66t69 26q42 0 70 -26t28 -66q0 -42 -28.5 -70t-69.5 -28t-69 28zM795.5 1244q-27.5 28 -27.5 70q0 40 27.5 66t68.5 26t69 -26t28 -66 q0 -42 -28 -70t-69 -28t-68.5 28z" />
<glyph unicode="&#xf7;" d="M492 842q-28 27 -28 67q0 42 29 70t69 28t70 -26t30 -70q0 -40 -29 -68t-71 -28t-70 27zM156.5 579q-10.5 11 -10.5 25q0 16 21 48q28 46 83 70t128 24q96 0 200 -42q92 -38 172 -38q60 0 119 36q34 18 50 19q18 0 31 -13.5t13 -26.5q0 -29 -42 -57q-34 -18 -84 -36 t-97 -18q-88 0 -212 50q-87 36 -154 36q-56 0 -83.5 -16t-52.5 -42q-4 -4 -13.5 -14t-20 -15t-20.5 -3q-17 2 -27.5 13zM491 329q-29 28 -29 68t32 70t72 30q38 0 68 -30t30 -70t-30 -68t-72 -28t-71 28z" />
<glyph unicode="&#xf8;" horiz-adv-x="1282" d="M1144 777.5q50 -111.5 50 -257.5q0 -257 -148.5 -389.5t-387.5 -132.5q-108 0 -206.5 29t-172.5 92l-104 -121q-10 -14 -18.5 -19t-20.5 -5q-15 0 -30.5 13t-15.5 27q0 19 14 36l115 134q-98 129 -98 332q0 165 62 292.5t180.5 198.5t284.5 71q159 0 281 -67l122 142 q25 27 50 25q14 -4 25.5 -16.5t11.5 -27.5q0 -16 -14 -31l-119 -140q89 -74 139 -185.5zM297 273l564 658q-92 48 -209 49q-126 0 -220.5 -56.5t-146 -161t-51.5 -242.5q1 -151 63 -247zM869 144q96 46 154.5 142t58.5 236q0 116 -38.5 207.5t-110.5 151.5l-580 -676 q58 -54 138.5 -80.5t164.5 -26.5q117 0 213 46z" />
<glyph unicode="&#xf9;" horiz-adv-x="1127" d="M948.5 147q10.5 -26 24 -49t13.5 -31q0 -16 -16.5 -33.5t-33.5 -17.5q-35 0 -63.5 52.5t-30.5 111.5v65q-42 -115 -137 -179t-221 -64q-342 0 -342 476v527q0 20 15.5 32t39.5 12q25 0 41.5 -11.5t16.5 -32.5v-531q0 -191 56 -282.5t182 -91.5q173 0 248.5 159t75.5 413 v337q0 52 54 52q28 0 43 -13.5t15 -38.5l9 -794q0 -42 10.5 -68zM595 1197l-164 180q-18 18 -26 29t-8 25q0 20 13.5 34t32.5 14q28 0 64 -44l153 -177q26 -28 25 -48q0 -17 -11.5 -28.5t-28.5 -11.5q-22 0 -50 27z" />
<glyph unicode="&#xfa;" horiz-adv-x="1127" d="M948.5 147q10.5 -26 24 -49t13.5 -31q0 -16 -16.5 -33.5t-33.5 -17.5q-35 0 -63.5 52.5t-30.5 111.5v65q-42 -115 -137 -179t-221 -64q-342 0 -342 476v527q0 20 15.5 32t39.5 12q25 0 41.5 -11.5t16.5 -32.5v-531q0 -191 56 -282.5t182 -91.5q173 0 248.5 159t75.5 413 v337q0 52 54 52q28 0 43 -13.5t15 -38.5l9 -794q0 -42 10.5 -68zM442 1181q-11 11 -11 29q0 23 24 48l164 177q20 26 35 35t29 9q18 0 31 -14t13 -34q0 -23 -31 -54l-175 -180q-28 -27 -51 -27q-17 0 -28 11z" />
<glyph unicode="&#xfb;" horiz-adv-x="1127" d="M948.5 147q10.5 -26 24 -49t13.5 -31q0 -16 -16.5 -33.5t-33.5 -17.5q-35 0 -63.5 52.5t-30.5 111.5v65q-42 -115 -137 -179t-221 -64q-342 0 -342 476v527q0 20 15.5 32t39.5 12q25 0 41.5 -11.5t16.5 -32.5v-531q0 -191 56 -282.5t182 -91.5q173 0 248.5 159t75.5 413 v337q0 52 54 52q28 0 43 -13.5t15 -38.5l9 -794q0 -42 10.5 -68zM746 1208q-67 96 -124 158.5t-81 62.5q-34 0 -205 -197q-28 -36 -52 -35q-16 0 -31 13.5t-15 30.5q0 21 16 37l51 55q76 84 134 137t98 53q52 0 110.5 -59.5t142.5 -170.5l26 -35q13 -17 14 -30 q0 -16 -13 -29t-29 -13q-26 1 -42 22z" />
<glyph unicode="&#xfc;" horiz-adv-x="1127" d="M948.5 147q10.5 -26 24 -49t13.5 -31q0 -16 -16.5 -33.5t-33.5 -17.5q-35 0 -63.5 52.5t-30.5 111.5v65q-42 -115 -137 -179t-221 -64q-342 0 -342 476v527q0 20 15.5 32t39.5 12q25 0 41.5 -11.5t16.5 -32.5v-531q0 -191 56 -282.5t182 -91.5q173 0 248.5 159t75.5 413 v337q0 52 54 52q28 0 43 -13.5t15 -38.5l9 -794q0 -42 10.5 -68zM232 1244q-28 28 -28 70q0 40 28 66t69 26q42 0 70 -26t28 -66q0 -42 -28.5 -70t-69.5 -28t-69 28zM708.5 1244q-27.5 28 -27.5 70q0 40 27.5 66t68.5 26t69 -26t28 -66q0 -42 -28 -70t-69 -28t-68.5 28z" />
<glyph unicode="&#xfd;" horiz-adv-x="1081" d="M383 -522.5q-18 14.5 -18 38.5q0 12 7 24q120 273 206 533q-129 86 -265 348t-227 571q-4 15 -2 23q2 18 17.5 31t42.5 13q20 0 30 -9.5t16 -34.5q106 -331 223 -549.5t207 -279.5q70 219 114.5 385t113.5 450q6 26 17.5 35t35.5 9q56 0 66 -46q2 -6 0 -11t-2 -9 q-78 -318 -119.5 -471.5t-112.5 -352.5q-43 -127 -117.5 -324.5t-133.5 -341.5q-10 -25 -21.5 -35.5t-32.5 -10.5q-27 0 -45 14.5zM442 1181q-11 11 -11 29q0 23 24 48l164 177q20 26 35 35t29 9q18 0 31 -14t13 -34q0 -23 -31 -54l-175 -180q-28 -27 -51 -27q-17 0 -28 11z " />
<glyph unicode="&#xfe;" horiz-adv-x="1252" d="M857 1027q120 -47 207 -167t87 -323q0 -258 -145 -395.5t-402 -137.5q-84 0 -190.5 37t-172.5 93v-52q-4 -316 -24 -487q-4 -50 -60 -50q-20 0 -35.5 13.5t-15.5 40.5q0 40 7 171l8 262q7 141 7 502v947q0 60 49 60q28 0 46 -12t18 -40q0 -307 -5 -604q73 86 179.5 137.5 t206.5 51.5q115 0 235 -47zM924.5 218.5q113.5 116.5 113.5 320.5q0 153 -62.5 250.5t-155.5 141.5t-187 44q-139 0 -239.5 -73t-152.5 -142q-2 -36 -1 -70t1 -64v-116v-263q14 -30 76.5 -64.5t144 -57.5t150.5 -23q199 0 312.5 116.5z" />
<glyph unicode="&#xff;" horiz-adv-x="1081" d="M383 -522.5q-18 14.5 -18 38.5q0 12 7 24q120 273 206 533q-129 86 -265 348t-227 571q-4 15 -2 23q2 18 17.5 31t42.5 13q20 0 30 -9.5t16 -34.5q106 -331 223 -549.5t207 -279.5q70 219 114.5 385t113.5 450q6 26 17.5 35t35.5 9q56 0 66 -46q2 -6 0 -11t-2 -9 q-78 -318 -119.5 -471.5t-112.5 -352.5q-43 -127 -117.5 -324.5t-133.5 -341.5q-10 -25 -21.5 -35.5t-32.5 -10.5q-27 0 -45 14.5zM232 1244q-28 28 -28 70q0 40 28 66t69 26q42 0 70 -26t28 -66q0 -42 -28.5 -70t-69.5 -28t-69 28zM708.5 1244q-27.5 28 -27.5 70 q0 40 27.5 66t68.5 26t69 -26t28 -66q0 -42 -28 -70t-69 -28t-68.5 28z" />
<glyph unicode="&#x131;" horiz-adv-x="655" d="M277 28q-16 18 -16 45l21 919q0 32 15.5 47.5t41.5 15.5q27 0 42.5 -15.5t15.5 -47.5l-28 -919q0 -29 -13 -46t-39 -17q-24 0 -40 18z" />
<glyph unicode="&#x152;" horiz-adv-x="2005" d="M1868 136q43 0 43 -42q0 -26 -12.5 -36t-36.5 -14q-40 -6 -114.5 -9t-138.5 -1l-68 2q-247 12 -385 12q-42 0 -59 10.5t-17 33.5q0 25 18 35.5t60 10.5q10 81 20 205q-42 -148 -177.5 -235.5t-332.5 -87.5q-150 0 -277.5 73.5t-205 231t-77.5 400.5q0 228 71.5 402.5 t199 270t291.5 95.5q199 0 343.5 -121.5t190.5 -314.5l-2 48q-7 139 -18 249q-38 0 -38 43q0 46 58 46q35 0 148 4q99 7 202 7q212 0 338 -17q32 -2 32 -48q0 -25 -16 -37.5t-34 -10.5q-180 17 -299 17h-92q-127 0 -186 -6q7 -76 12 -156t5 -139v-142v-102q96 0 251 -4 l137 -5q50 0 50 -46q0 -21 -13 -34.5t-39 -15.5q-37 -2 -169 2q-134 4 -223 4l-2 -74q-15 -318 -32 -496q67 -6 131 -9t120 -7l77 -5q26 -2 65 -2q54 0 153 11l42 4h6zM1036.5 270.5q133.5 145.5 133.5 454.5q0 194 -61.5 345.5t-173.5 237t-258 85.5q-127 0 -228.5 -81.5 t-160 -232t-58.5 -348.5q0 -319 131.5 -462.5t328.5 -143.5q213 0 346.5 145.5z" />
<glyph unicode="&#x153;" horiz-adv-x="2190" d="M1164 518v-16q0 -102 55 -196.5t151.5 -151t212.5 -56.5q148 0 228.5 60.5t139.5 148.5q17 18 36 18q18 0 36 -15t18 -35q0 -14 -12 -32q-74 -120 -189.5 -182.5t-260.5 -62.5q-167 0 -291 87.5t-176 219.5q-44 -146 -179 -226.5t-317 -80.5q-134 0 -253.5 51t-196 163.5 t-76.5 284.5q0 275 141 428t402 153q102 0 200 -42t171.5 -118t104.5 -174q50 141 176.5 234.5t293.5 93.5q140 0 253 -60.5t176 -159t63 -204.5q0 -60 -16 -84.5t-64 -26.5zM938 204.5q111 106.5 111 323.5q0 138 -55.5 240.5t-151.5 157t-212 54.5q-203 0 -315 -123.5 t-112 -359.5q0 -134 61 -223.5t156.5 -132.5t195.5 -43q211 0 322 106.5zM1378 921q-93 -52 -148.5 -137.5t-59.5 -177.5l798 18v26q0 85 -49 159t-137 119t-199 45q-112 0 -205 -52z" />
<glyph unicode="&#x178;" horiz-adv-x="1319" d="M608 67l-6 616q-56 21 -117 90t-142 198q-70 108 -110.5 196.5t-92.5 225.5q-4 8 -4 17q0 18 17.5 33.5t43.5 15.5q25 0 37.5 -15t22.5 -45q48 -123 85.5 -201t98.5 -177q148 -241 219 -240q38 0 97.5 65t125.5 178q50 84 89 166t98 218q12 27 23.5 37.5t28.5 10.5 q28 0 45 -14.5t17 -35.5q0 -13 -6 -25q-62 -153 -102 -235.5t-94 -174.5q-73 -121 -144 -196t-124 -92l7 -612q0 -62 -57 -63q-56 1 -56 59zM357 1662q-28 28 -28 70q0 40 28 66t69 26q42 0 70 -26t28 -66q0 -42 -28.5 -70t-69.5 -28t-69 28zM833.5 1662q-27.5 28 -27.5 70 q0 40 27.5 66t68.5 26t69 -26t28 -66q0 -42 -28 -70t-69 -28t-68.5 28z" />
<glyph unicode="&#x2c6;" horiz-adv-x="1164" d="M792 1208q-63 91 -131.5 156t-94.5 65q-20 0 -87.5 -58.5t-135.5 -138.5q-32 -36 -54 -35q-17 0 -31.5 13.5t-14.5 30.5q0 19 16 37l40 40q92 92 157.5 148.5t105.5 56.5q96 0 301 -265q12 -17 12 -30q0 -16 -12 -29t-30 -13q-27 1 -41 22z" />
<glyph unicode="&#x2dc;" horiz-adv-x="851" d="M62 1224q-20 18 -20 42q0 12 6 21q34 50 92.5 77t128.5 27q54 0 93 -9t87 -28q48 -17 81.5 -25.5t81.5 -8.5q69 0 98 29q27 24 46 24q20 0 37.5 -15t17.5 -34q0 -10 -15 -33q-59 -75 -188 -75q-80 0 -190 40q-56 16 -90.5 24.5t-70.5 8.5q-62 0 -111 -46q-30 -29 -52 -29 q-18 0 -32 10z" />
<glyph unicode="&#x300;" horiz-adv-x="0" d="M56 1197l-164 180q-18 18 -26 29t-8 25q0 20 13.5 34t32.5 14q28 0 64 -44l153 -177q26 -28 25 -48q0 -17 -11.5 -28.5t-28.5 -11.5q-22 0 -50 27z" />
<glyph unicode="&#x301;" horiz-adv-x="0" d="M-95 1181q-11 11 -11 29q0 23 24 48l164 177q20 26 35 35t29 9q18 0 31 -14t13 -34q0 -23 -31 -54l-175 -180q-28 -27 -51 -27q-17 0 -28 11z" />
<glyph unicode="&#x302;" horiz-adv-x="0" d="M207 1208q-67 96 -124 158.5t-81 62.5q-34 0 -205 -197q-28 -36 -52 -35q-16 0 -31 13.5t-15 30.5q0 21 16 37l51 55q76 84 134 137t98 53q52 0 110.5 -59.5t142.5 -170.5l26 -35q13 -17 14 -30q0 -16 -13 -29t-29 -13q-26 1 -42 22z" />
<glyph unicode="&#x303;" horiz-adv-x="0" d="M-319 1236q0 19 12 34q46 58 82.5 82.5t88.5 24.5q88 0 176 -44q10 -6 38 -20t48 -21t37 -7q32 0 71 39q25 28 41 28q15 0 30.5 -17t15.5 -31q0 -17 -12 -34q-40 -40 -75 -58t-75 -18q-34 0 -66.5 15t-40.5 17q-30 16 -56 26q-10 4 -54 22.5t-74 18.5q-20 0 -38 -14.5 t-34.5 -32.5t-22.5 -24q-32 -28 -50 -28q-15 0 -30 12q-12 16 -12 30z" />
<glyph unicode="&#x308;" horiz-adv-x="0" d="M-307 1244q-28 28 -28 70q0 40 28 66t69 26q42 0 70 -26t28 -66q0 -42 -28.5 -70t-69.5 -28t-69 28zM169.5 1244q-27.5 28 -27.5 70q0 40 27.5 66t68.5 26t69 -26t28 -66q0 -42 -28 -70t-69 -28t-68.5 28z" />
<glyph unicode="&#x30a;" horiz-adv-x="0" d="M-148.5 1183.5q-60.5 61.5 -60.5 149.5q0 86 61.5 145t155.5 59q86 0 144.5 -62.5t58.5 -141.5q0 -92 -58.5 -151.5t-150.5 -59.5q-90 0 -150.5 61.5zM95 1241q37 37 37 92q0 50 -38 88t-92 38q-56 0 -93 -38t-37 -88q0 -54 38 -91.5t92 -37.5q56 0 93 37z" />
<glyph unicode="&#x2000;" horiz-adv-x="977" />
<glyph unicode="&#x2001;" horiz-adv-x="1955" />
<glyph unicode="&#x2002;" horiz-adv-x="977" />
<glyph unicode="&#x2003;" horiz-adv-x="1955" />
<glyph unicode="&#x2004;" horiz-adv-x="651" />
<glyph unicode="&#x2005;" horiz-adv-x="488" />
<glyph unicode="&#x2006;" horiz-adv-x="325" />
<glyph unicode="&#x2007;" horiz-adv-x="325" />
<glyph unicode="&#x2008;" horiz-adv-x="244" />
<glyph unicode="&#x2009;" horiz-adv-x="391" />
<glyph unicode="&#x200a;" horiz-adv-x="108" />
<glyph unicode="&#x2010;" horiz-adv-x="881" d="M95 735.5q-11 16.5 -11 41.5q0 26 11 39t33 13q97 -4 261 -4q199 0 348 10q36 2 48.5 -12t12.5 -44q0 -23 -16.5 -38.5t-46.5 -17.5q-161 -4 -610 -4q-19 0 -30 16.5z" />
<glyph unicode="&#x2011;" horiz-adv-x="881" d="M95 735.5q-11 16.5 -11 41.5q0 26 11 39t33 13q97 -4 261 -4q199 0 348 10q36 2 48.5 -12t12.5 -44q0 -23 -16.5 -38.5t-46.5 -17.5q-161 -4 -610 -4q-19 0 -30 16.5z" />
<glyph unicode="&#x2012;" horiz-adv-x="881" d="M95 735.5q-11 16.5 -11 41.5q0 26 11 39t33 13q97 -4 261 -4q199 0 348 10q36 2 48.5 -12t12.5 -44q0 -23 -16.5 -38.5t-46.5 -17.5q-161 -4 -610 -4q-19 0 -30 16.5z" />
<glyph unicode="&#x2013;" horiz-adv-x="1710" d="M140 740q-26 2 -41 18.5t-15 37.5q0 25 17.5 41t44.5 14q241 -19 416 -20q130 0 389 8q62 3 180.5 5t205.5 2l117 -2q35 -2 109 -2q31 0 47.5 -13.5t16.5 -34.5q0 -24 -18.5 -41.5t-45.5 -17.5q-65 0 -98 2l-109 3q-190 0 -435 -11q-289 -8 -424 -8q-140 0 -357 19z" />
<glyph unicode="&#x2014;" horiz-adv-x="3231" d="M136 748q-52 8 -52 56q0 23 17.5 39t42.5 14q150 -12 669 -13q188 0 387 1t404 3q210 2 412 3.5t396 1.5q209 0 473 -9q179 -5 225 -5q16 0 27 -15t11 -39q0 -23 -10.5 -37.5t-27.5 -14.5q-32 0 -182 4q-338 7 -411 7q-201 0 -416 -1t-438 -3q-451 -7 -865 -7 q-516 0 -662 15z" />
<glyph unicode="&#x2018;" horiz-adv-x="558" d="M391 1251.5q44 -35.5 44 -102.5q0 -63 -43 -101.5t-105 -40.5q-76 0 -119 44.5t-43 124.5q0 84 45 162.5t103 138.5q19 18 36 18q12 0 25 -9t13 -21q0 -13 -14 -32q-5 -6 -44.5 -54t-65.5 -103q24 10 66 11q58 0 102 -35.5zM340 1091q27 23 27 58q0 33 -23 55t-59 22 t-61 -22t-25 -58q0 -29 21 -52.5t62 -25.5q31 0 58 23z" />
<glyph unicode="&#x2019;" horiz-adv-x="558" d="M392 1462q43 -45 43 -125q0 -85 -44 -164t-104 -137q-17 -16 -36 -17q-12 0 -24 9.5t-12 22.5q0 14 12 29q5 6 48.5 58t71.5 109q-34 -20 -76 -21q-58 0 -102 35.5t-44 102.5q0 62 43 102.5t105 40.5q76 0 119 -45zM336 1310q25 21 25 56q0 31 -21 55t-65 24 q-31 0 -57 -23t-26 -58q0 -34 23 -54.5t60 -20.5q36 0 61 21z" />
<glyph unicode="&#x201a;" horiz-adv-x="558" d="M392 242q43 -45 43 -125q0 -155 -148 -303q-17 -16 -36 -17q-12 0 -24 9.5t-12 22.5q0 16 12 29q5 6 48.5 59t71.5 111q-32 -24 -76 -24q-58 0 -102 37t-44 103q0 62 43 102.5t105 40.5q76 0 119 -45zM336 89q25 22 25 57q0 31 -21 54t-65 23q-31 0 -57 -23t-26 -56 q0 -34 23 -55.5t60 -21.5q36 0 61 22z" />
<glyph unicode="&#x201c;" horiz-adv-x="916" d="M748 1261.5q44 -37.5 44 -99.5t-42 -103.5t-108 -41.5q-72 0 -115 47.5t-43 123.5q0 80 40 149t109 150q15 19 33 20q12 0 25 -9t13 -23t-14 -34l-28 -33q-32 -40 -51 -67t-35 -63q30 20 72 21q56 0 100 -37.5zM389.5 1251.5q42.5 -35.5 42.5 -100.5q0 -63 -42.5 -101.5 t-104.5 -42.5q-76 0 -118 44.5t-42 124.5q0 84 41 153.5t105 147.5q19 18 36 18q14 0 26 -9t12 -23q0 -13 -12 -30q-5 -4 -48.5 -52t-71.5 -113q28 18 74 19q60 0 102.5 -35.5zM703 1100q24 22 24 56q0 35 -23 56.5t-60 21.5q-38 0 -62 -21t-24 -55q0 -36 23 -58t67 -22 q31 0 55 22zM339 1091q28 23 28 58q0 33 -23 55t-59 22q-38 0 -63 -22t-25 -58q0 -29 20.5 -52.5t61.5 -25.5q32 0 60 23z" />
<glyph unicode="&#x201d;" horiz-adv-x="919" d="M751 1462q43 -45 43 -125q0 -83 -42 -154t-106 -147q-17 -16 -36 -17q-16 0 -27 9.5t-11 22.5q0 16 12 29q90 104 122 167q-34 -20 -76 -21q-58 0 -102 35.5t-44 102.5q0 62 43 100t106 43q75 0 118 -45zM389.5 1450.5q42.5 -46.5 42.5 -126.5t-38.5 -146t-106.5 -152 q-15 -18 -34 -19q-12 0 -26 8.5t-14 22.5q0 15 14 34q82 98 112 162q-34 -20 -72 -20q-56 0 -99 37.5t-43 100.5q0 64 42 104.5t108 40.5q72 0 114.5 -46.5zM695.5 1310q25.5 21 25.5 56q0 31 -21 54t-65 25q-31 0 -57 -23t-26 -58q0 -34 22 -54.5t59 -20.5t62.5 21z M335 1299q24 21 24 57q0 35 -23 57t-67 22q-31 0 -55 -22t-24 -55q0 -36 24 -58t61 -22q36 0 60 21z" />
<glyph unicode="&#x201e;" horiz-adv-x="919" d="M751 250q43 -45 43 -125q0 -153 -148 -300q-19 -19 -36 -19q-16 0 -27 10.5t-11 22.5t12 29q90 104 122 168q-34 -21 -76 -22q-58 0 -102 36t-44 103q0 62 43 102t106 40q75 0 118 -45zM389.5 239.5q42.5 -47.5 42.5 -126.5q0 -81 -38.5 -148t-106.5 -153 q-15 -18 -34 -19q-12 0 -26 9.5t-14 22.5q0 16 14 35q74 90 112 163q-34 -20 -72 -21q-56 0 -99 38t-43 100q0 64 42 105.5t108 41.5q72 0 114.5 -47.5zM695.5 98.5q25.5 20.5 25.5 56.5q0 32 -21 55.5t-65 23.5q-31 0 -57 -23t-26 -58q0 -34 22 -54.5t59 -20.5t62.5 20.5z M214 89q24 -22 61 -22q36 0 60 20.5t24 56.5t-23 57.5t-67 21.5q-31 0 -55 -21.5t-24 -55.5q0 -35 24 -57z" />
<glyph unicode="&#x2022;" horiz-adv-x="1182" d="M594.5 182.5q-51.5 44.5 -66.5 116.5q-27 -52 -77 -82.5t-104 -30.5q-96 0 -154.5 63.5t-58.5 166.5q0 67 49 116.5t128 63.5q-38 39 -61 89t-23 92q0 88 64 142t167 54q80 0 132 -50t58 -131q35 62 89.5 99.5t106.5 37.5q91 0 148 -61t57 -164q0 -68 -48 -125t-128 -82 q36 -30 57 -70t21 -80q0 -94 -65 -151.5t-172 -57.5q-68 0 -119.5 44.5zM818 264q41 39 41 101q0 30 -19 60t-51 51q-6 4 -9 16t-1 22q2 14 9.5 24t15.5 12q69 20 111 61t42 87q0 67 -35 106.5t-93 39.5q-48 0 -89.5 -35.5t-60.5 -92.5q-12 -34 -39 -33q-21 0 -33.5 8.5 t-12.5 22.5q-2 78 -40 123.5t-99 45.5q-62 0 -101 -35t-39 -94q0 -36 19 -71t48 -57q17 -12 17 -48q-2 -20 -10.5 -32t-23.5 -12q-62 0 -100 -33t-38 -87q0 -62 37 -101.5t95 -39.5q42 0 79.5 27.5t54.5 68.5q14 28 37 28q17 0 28.5 -8.5t13.5 -21.5q10 -62 49 -102t91 -40 q65 0 106 39zM478.5 453q-33.5 29 -33.5 77q0 59 34.5 94.5t88.5 35.5q58 0 93 -32t35 -87q0 -52 -37 -84.5t-95 -32.5q-52 0 -85.5 29zM621 498q17 18 17 45q0 25 -19 42t-51 17q-27 0 -45.5 -18t-18.5 -47q0 -26 19.5 -41.5t52.5 -15.5q28 0 45 18z" />
<glyph unicode="&#x2026;" horiz-adv-x="1860" d="M229 33.5q-32 33.5 -32 79.5q0 42 32 74t78 32q42 0 77.5 -33t35.5 -73q0 -44 -35.5 -78.5t-77.5 -34.5q-46 0 -78 33.5zM850 34.5q-33 34.5 -33 78.5q0 42 33 74t77 32t78.5 -32t34.5 -74q0 -44 -34.5 -78.5t-78.5 -34.5t-77 34.5zM1475 34.5q-34 34.5 -34 78.5 q0 42 34 74t77 32q42 0 77.5 -33t35.5 -73q0 -44 -35.5 -78.5t-77.5 -34.5q-43 0 -77 34.5z" />
<glyph unicode="&#x202f;" horiz-adv-x="391" />
<glyph unicode="&#x2039;" horiz-adv-x="780" d="M566 416q-117 34 -218 97t-162 133t-61 121q0 50 62 121t167.5 136.5t225.5 99.5q13 4 34 4q42 0 42 -42q0 -39 -58 -56q-90 -20 -177.5 -73.5t-145.5 -110.5t-58 -77q0 -23 55.5 -77t138 -107t159.5 -73q28 -8 42 -24t14 -35q0 -16 -12 -27.5t-32 -11.5q-10 0 -16 2z " />
<glyph unicode="&#x203a;" horiz-adv-x="772" d="M135.5 426q-10.5 15 -10.5 36q0 20 10.5 32t35.5 18q96 28 183 79t140.5 103t53.5 81q0 24 -50.5 73t-130.5 99t-168 83q-54 19 -55 54q0 19 13.5 31.5t32.5 12.5q8 0 15 -2q182 -73 312.5 -175.5t130.5 -177.5q0 -48 -64 -118.5t-169.5 -136t-224.5 -102.5 q-21 -4 -23 -5q-21 0 -31.5 15z" />
<glyph unicode="&#x205f;" horiz-adv-x="488" />
<glyph unicode="&#x2081;" horiz-adv-x="561" d="M374 715.5q21 -15.5 21 -47.5v-900q0 -23 -15 -36.5t-43 -13.5q-50 0 -50 50v826q-13 -17 -48.5 -68.5t-100.5 -116.5q-13 -12 -36 -12q-18 0 -32 11.5t-14 30.5q0 20 24 48l43 56q36 39 130 163q20 25 68 25q32 0 53 -15.5z" />
<glyph unicode="&#x2082;" horiz-adv-x="768" d="M692.5 -196.5q13.5 -14.5 13.5 -35.5q0 -23 -13.5 -38t-36.5 -15l-82 3q-75 7 -196 7q-54 0 -146 -4l-124 -3q-23 0 -35.5 10.5t-10.5 28.5q19 108 103 209t236 207q179 124 179 274q0 87 -57 144t-149 57q-85 0 -137.5 -61t-52.5 -142q0 -24 -12.5 -33t-41.5 -9 q-30 0 -42.5 13.5t-12.5 43.5q0 73 40 137.5t111 104.5t161 40q137 0 222 -84t85 -211q0 -199 -230 -353q-96 -64 -169.5 -135.5t-100.5 -138.5q56 3 184 3l172 -3q44 -2 106 -2q23 0 36.5 -14.5z" />
<glyph unicode="&#x2083;" horiz-adv-x="868" d="M764 140q43 -67 43 -146q0 -69 -37 -133t-115.5 -105t-194.5 -41q-175 0 -285.5 85t-110.5 260q0 38 13 56t42 18q54 0 54 -52q2 -70 20 -126t79 -100t179 -44q119 0 183 50t64 144q0 102 -67 139t-167 41q-25 2 -35.5 11.5t-10.5 32.5q0 49 44 49q117 9 165 55t48 121 q0 86 -53.5 139.5t-134.5 53.5q-84 0 -146 -51t-62 -127q0 -20 10 -54q4 -18 -11 -32.5t-44 -14.5q-38 0 -52 28q-13 29 -13 77q0 76 43 136t114 96t152 36q82 0 153 -36t112.5 -98t41.5 -140q0 -79 -37.5 -140t-99.5 -90q73 -31 116 -98z" />
<glyph unicode="&#x20ac;" horiz-adv-x="1704" d="M1638 493q0 -138 -73.5 -250.5t-208 -179.5t-312.5 -67q-155 0 -293.5 55t-240 172.5t-136.5 294.5l-209 -4q-33 0 -46 8t-13 34q0 44 59 44l196 2q-4 58 -4 90q0 77 8 133l-202 -2q-31 0 -45 8t-14 34q0 25 13 34.5t44 9.5l221 4q42 173 143 303.5t239.5 200.5t286.5 70 q157 0 291.5 -72t211.5 -193q19 -28 19 -50q0 -20 -15 -34t-33 -14q-32 0 -52 32q-86 123 -185.5 178t-234.5 55q-122 0 -234.5 -58.5t-197 -166t-124.5 -251.5l633 10q30 0 42 -9t12 -33q0 -23 -12 -33.5t-44 -10.5l-650 -10q-10 -69 -10 -133q0 -32 4 -90l660 10 q30 0 41 -9t11 -33q0 -23 -12 -33.5t-42 -10.5l-643 -10q47 -213 206.5 -318.5t367.5 -105.5q165 0 269.5 61.5t151.5 154.5t47 192q0 25 16 39.5t40 14.5q53 -1 53 -63z" />
<glyph unicode="&#x2122;" horiz-adv-x="1338" d="M1079.5 859q-14.5 6 -14.5 18l3 191q0 64 -3 100q-6 98 -12 145t-19 47q-25 0 -66 -80t-55 -164q-8 -34 -40 -34q-29 0 -38 34q-10 54 -35 112.5t-52 96t-42 37.5q-8 0 -14.5 -43t-10.5 -137q-4 -175 -4 -299q0 -12 -13.5 -19t-33.5 -7q-37 0 -36 26q0 190 6 317 q6 145 27 214t60 67q28 0 63 -32t69 -89.5t52 -131.5q18 71 53 128.5t70.5 90t60.5 32.5q44 0 64.5 -58.5t26.5 -208.5q5 -118 5 -329q0 -31 -39 -30q-18 0 -32.5 6zM281 876q-12 9 -12 27l4 131l4 124l5 112l7 129q-78 2 -174 -6q-12 2 -21.5 14t-9.5 24q0 14 7 24t20 12 q67 8 228 8h183q12 0 20 -8t8 -20q0 -46 -30 -46q-14 0 -69.5 1.5t-74.5 -1.5l-7 -97q-6 -65 -8 -160l-6 -245q0 -13 -13.5 -22.5t-30.5 -9.5q-18 0 -30 9z" />
<glyph unicode="&#x25fc;" horiz-adv-x="1064" d="M0 1065h1065v-1065h-1065v1065z" />
</font>
</defs>
</svg>
