<?xml version="1.0" standalone="no"?>
<!DOCTYPE svg PUBLIC "-//W3C//DTD SVG 1.1//EN" "http://www.w3.org/Graphics/SVG/1.1/DTD/svg11.dtd" >
<svg xmlns="http://www.w3.org/2000/svg" xmlns:xlink="http://www.w3.org/1999/xlink" version="1.1">
<metadata></metadata>
<defs>
<font id="malisemibold_italic" horiz-adv-x="1143" >
<font-face units-per-em="2048" ascent="1638" descent="-410" />
<missing-glyph horiz-adv-x="717" />
<glyph unicode="&#xfb01;" horiz-adv-x="1534" d="M931 1461.5q87 -69.5 87 -186.5q0 -38 -4 -57q-14 -77 -48.5 -108.5t-98.5 -31.5q-113 0 -112 82q0 17 3 26q10 51 10 80q0 31 -14 46.5t-47 15.5q-54 0 -80.5 -51t-51.5 -189q-30 -158 -40 -219h129q74 0 74 -75q0 -50 -28.5 -80.5t-80.5 -32.5l-124 -4l-23 -146 q-44 -274 -70 -426q-8 -51 -44.5 -78t-94.5 -27q-52 0 -80.5 20.5t-28.5 62.5l2 18q41 286 89 572l-75 -2q-50 0 -71.5 18t-21.5 57q0 54 30.5 87.5t89.5 33.5q45 0 79 2l36 227q38 213 131 324t254 111q137 0 224 -69.5zM1212.5 1147q-38.5 36 -38.5 96q0 85 59 141.5 t144 56.5q64 0 102.5 -35.5t38.5 -96.5q0 -83 -59 -140.5t-143 -57.5q-65 0 -103.5 36zM1010 36q-30 24 -30 61q0 12 2 19l162 802q8 48 48.5 76t95.5 28q52 0 82 -23.5t30 -61.5q0 -14 -2 -23l-159 -798q-8 -47 -49.5 -75.5t-98.5 -28.5q-51 0 -81 24z" />
<glyph unicode="&#xfb02;" horiz-adv-x="1403" d="M931 1461.5q87 -69.5 87 -186.5q0 -38 -4 -57q-14 -77 -48.5 -108.5t-98.5 -31.5q-113 0 -112 82q0 17 3 26q10 51 10 80q0 31 -14 46.5t-47 15.5q-54 0 -80.5 -51t-51.5 -189q-30 -158 -40 -219h129q74 0 74 -75q0 -50 -28.5 -80.5t-80.5 -32.5l-124 -4l-23 -146 q-44 -274 -70 -426q-8 -51 -44.5 -78t-94.5 -27q-52 0 -80.5 20.5t-28.5 62.5l2 18q41 286 89 572l-75 -2q-50 0 -71.5 18t-21.5 57q0 54 30.5 87.5t89.5 33.5q45 0 79 2l36 227q38 213 131 324t254 111q137 0 224 -69.5zM964.5 45.5q-29.5 27.5 -25.5 66.5l237 1416 q8 50 50 80t100 30q49 0 81 -27.5t26 -67.5l-242 -1417q-8 -49 -50.5 -78.5t-94.5 -29.5t-81.5 27.5z" />
<glyph horiz-adv-x="0" />
<glyph unicode="&#xd;" horiz-adv-x="717" />
<glyph horiz-adv-x="0" />
<glyph horiz-adv-x="0" />
<glyph unicode=" "  horiz-adv-x="717" />
<glyph unicode="&#x09;" horiz-adv-x="717" />
<glyph unicode="&#xa0;" horiz-adv-x="717" />
<glyph unicode="!" horiz-adv-x="564" d="M216 436.5q-17 29.5 -11 68.5l142 885q7 45 38 71.5t75 26.5q37 0 55 -23.5t18 -55.5q0 -16 -2 -25l-144 -881q-8 -45 -39.5 -70.5t-72.5 -25.5q-42 0 -59 29.5zM97 39.5q-39 39.5 -39 96.5q0 71 61 130t133 59q58 0 98.5 -40.5t40.5 -96.5q0 -46 -29 -90t-75.5 -71 t-91.5 -27q-59 0 -98 39.5z" />
<glyph unicode="&#x22;" horiz-adv-x="847" d="M277.5 997.5q-22.5 18.5 -18.5 50.5l16 83q8 42 25.5 130.5t28.5 157.5q6 29 35 44.5t68 15.5q40 0 65.5 -15.5t21.5 -44.5l-69 -375q-6 -31 -35.5 -48t-73.5 -17q-41 0 -63.5 18.5zM599.5 997.5q-22.5 18.5 -15.5 50.5l16 83q8 42 25.5 130.5t27.5 157.5q5 29 34 44.5 t71 15.5q39 0 64.5 -15.5t21.5 -44.5l-31 -172l-37 -203q-6 -31 -36.5 -48t-75.5 -17q-42 0 -64.5 18.5z" />
<glyph unicode="#" horiz-adv-x="1285" d="M1184.5 901.5q21.5 -18.5 21.5 -49.5q0 -47 -32.5 -75.5t-79.5 -28.5h-48l-103 -306h75q35 0 56.5 -19.5t21.5 -49.5q0 -40 -33 -72t-74 -32h-103l-67 -198q-25 -77 -105 -77q-31 0 -51 18.5t-20 43.5q0 12 2 19l64 194h-297l-65 -198q-12 -38 -38.5 -58.5t-62.5 -20.5 q-33 0 -51.5 17.5t-18.5 48.5q0 18 6 39l56 172h-52q-38 0 -58.5 17.5t-20.5 48.5q0 44 32.5 74.5t75.5 30.5h79l101 315h-54q-37 0 -58.5 17.5t-21.5 48.5q0 12 2 18q6 40 37 65t73 25h77l90 277q32 89 103 89q36 0 55.5 -19t19.5 -52q0 -14 -6 -36l-85 -261l302 -5 l101 302q23 75 101 75q34 0 52.5 -19t18.5 -49q0 -16 -6 -35l-91 -276h20q38 0 59.5 -18.5zM871 750l-300 2l-103 -312l300 2z" />
<glyph unicode="$" horiz-adv-x="1251" d="M778 1030l-32 -176l-4 -27h2q158 -51 266.5 -139t108.5 -266q0 -130 -70 -225.5t-190.5 -146t-262.5 -50.5h-4q-18 -85 -31 -168q-9 -49 -69 -49q-27 0 -42.5 10t-13.5 31l20 93l18 93q-168 29 -264 134.5t-96 262.5q0 89 37 133t118 44q70 0 91 -29.5t21 -82.5 q0 -93 30.5 -153t103.5 -81l71 384q-373 122 -373 392q0 124 70.5 224t188.5 160t258 66l30 162q4 18 22.5 33t44.5 15q27 0 44 -14t15 -30l-32 -172q164 -25 265 -126t101 -244q0 -89 -38 -126.5t-116 -37.5q-67 0 -84.5 24.5t-17.5 79.5q0 81 -38 135.5t-113 69.5 q-33 -191 -35 -203zM506 926.5q36 -28.5 123 -59.5q18 120 62 366q-95 -18 -158 -82.5t-63 -141.5q0 -54 36 -82.5zM820.5 517q-42.5 37 -121.5 67l-64 -355q97 10 162.5 61t65.5 130q0 60 -42.5 97z" />
<glyph unicode="%" horiz-adv-x="1927" d="M517 17.5q-31 23.5 -31 59.5q0 18 6.5 30.5t20.5 32.5l768 1310q16 32 52.5 49t77.5 17q45 0 77 -22.5t32 -58.5q0 -14 -6 -27.5t-12 -24.5t-10 -17l-756 -1299q-20 -34 -57.5 -53.5t-80.5 -19.5q-50 0 -81 23.5zM397 925.5q-77 69.5 -77 177.5q0 95 53 174t140 125 t186 46q124 0 199 -68.5t75 -175.5q0 -95 -52 -175t-139 -126.5t-186 -46.5q-122 0 -199 69.5zM721.5 1073.5q40.5 39.5 40.5 99.5q0 43 -27.5 70t-65.5 27q-52 0 -95 -40t-43 -103q0 -41 28.5 -67t71.5 -26q50 0 90.5 39.5zM1130 175.5q-78 70.5 -78 178.5q0 92 53 172 t141 125.5t187 45.5q124 0 200 -70t76 -177q0 -94 -53 -173.5t-139 -125.5t-185 -46q-124 0 -202 70.5zM1460.5 326.5q35.5 42.5 35.5 99.5q0 42 -22 68.5t-69 26.5q-62 0 -99.5 -44.5t-37.5 -103.5q0 -42 22.5 -65.5t70.5 -23.5q64 0 99.5 42.5z" />
<glyph unicode="&#x26;" horiz-adv-x="1530" d="M1340 154q0 -56 -31.5 -93.5t-82.5 -37.5q-27 0 -76 24q-84 46 -163 93q-89 -55 -189.5 -85t-201.5 -30q-209 0 -324.5 93t-115.5 277q0 112 70 226.5t177 199.5q-54 40 -83.5 100t-29.5 129q0 113 57.5 200.5t156 135t214.5 47.5q95 0 176 -38.5t127.5 -107.5t46.5 -156 q0 -146 -80 -223t-236 -124q111 -279 223 -383q76 97 75 193q0 43 -8 72q-4 29 -4 39q0 37 39.5 64t85.5 27q70 0 96 -54q21 -45 22 -122q0 -180 -125 -330q34 -18 93 -44l44 -21q47 -24 47 -71zM577 1196q-58 -61 -58 -144q0 -49 31 -81t99 -40q93 14 143 59.5t50 136.5 q0 64 -38 97t-92 33q-77 0 -135 -61zM815 267l-8 8q-83 76 -144 191t-86 262q-87 -51 -138.5 -146.5t-51.5 -178.5q0 -89 55 -144.5t154 -55.5q105 0 219 64z" />
<glyph unicode="'" horiz-adv-x="521" d="M275 997.5q-23 18.5 -18 50.5l16 83q8 42 25.5 130.5t28.5 157.5q6 29 35 44.5t68 15.5q40 0 65.5 -15.5t21.5 -44.5l-69 -375q-6 -31 -35.5 -48t-73.5 -17q-41 0 -64 18.5z" />
<glyph unicode="(" horiz-adv-x="754" d="M366 -256.5q-15 4.5 -27 18.5q-112 114 -172 278.5t-60 358.5q0 211 71.5 439t200 411.5t287.5 272.5q31 18 62 19q40 0 68.5 -25.5t22.5 -61.5q-4 -39 -24.5 -59.5t-42.5 -34.5t-30 -18q-124 -83 -217 -237t-142 -336.5t-49 -352.5q0 -178 44.5 -292t117.5 -201 q33 -39 33 -79q0 -41 -32.5 -73t-66.5 -32q-29 0 -44 4.5z" />
<glyph unicode=")" horiz-adv-x="754" d="M14.5 -239q-26.5 22 -26.5 55q0 48 26.5 72.5t70.5 49.5q124 89 217 244t142.5 336t49.5 347q0 173 -49.5 282.5t-132.5 208.5q-33 36 -33 79q0 40 40.5 73t77.5 33q29 0 42.5 -4t26.5 -19q114 -116 173.5 -280t59.5 -359q0 -209 -71 -432.5t-199.5 -408t-288.5 -280.5 q-31 -19 -61 -19q-38 0 -64.5 22z" />
<glyph unicode="*" horiz-adv-x="1042" d="M1004.5 1245q17.5 -19 17.5 -41q0 -23 -15.5 -41.5t-40.5 -29.5l-254 -105l219 -106q27 -14 26 -41q0 -36 -25.5 -64.5t-54.5 -28.5q-28 0 -58 15l-138 83l-30 -172q-4 -27 -31.5 -46t-62.5 -19q-38 0 -56.5 18t-14.5 47l29 174l-159 -73q-13 -6 -30.5 -12.5t-27.5 -6.5 q-23 0 -40.5 17.5t-17.5 44.5q0 46 44 62l245 108l-237 116q-23 10 -23 44q0 27 25.5 54.5t48.5 27.5q24 0 52 -17l166 -93l33 196q12 71 95 71q73 0 73 -53q0 -10 -2 -18l-34 -196l168 83q4 2 28.5 11.5t41.5 9.5q23 0 40.5 -19z" />
<glyph unicode="+" d="M1055 715.5q21 -16.5 21 -49.5q0 -121 -127 -120h-280l-47 -258q-18 -103 -113 -104q-41 0 -60 16.5t-19 49.5l20 137l28 161q-190 0 -281 2q-83 2 -83 66q0 56 31 89t84 33q174 0 282 -2l43 241q9 49 34.5 74t80.5 25q80 0 79 -67q0 -23 -47 -275q112 -2 284 -2 q49 0 70 -16.5z" />
<glyph unicode="," horiz-adv-x="630" d="M389.5 314.5q48.5 -49.5 48.5 -138.5t-39 -182t-103 -156q-52 -47 -118 -76t-124 -29q-71 0 -70 54q0 35 22.5 58t53.5 23q35 0 76.5 17.5t72.5 41.5q52 44 85 100q-42 -23 -97 -23q-67 0 -110.5 45.5t-43.5 108.5q0 84 63.5 145t150.5 61q84 0 132.5 -49.5zM273 139 q23 23 23 60q0 23 -14.5 37t-41.5 14q-33 0 -56.5 -24.5t-23.5 -57.5q0 -26 15 -39t40 -13q35 0 58 23z" />
<glyph unicode="-" horiz-adv-x="872" d="M149 688q-19 24 -19 56q0 54 32.5 90.5t79.5 36.5l238 -2q142 0 264 8q48 4 73 -19t25 -62q0 -52 -37 -89.5t-93 -40.5q-116 -6 -284 -6q-68 0 -103 2l-126 2q-31 0 -50 24z" />
<glyph unicode="." horiz-adv-x="628" d="M130.5 37.5q-35.5 35.5 -35.5 88.5q0 79 58 136.5t133 57.5q53 0 91.5 -40t38.5 -96q0 -71 -60 -126.5t-133 -55.5q-57 0 -92.5 35.5z" />
<glyph unicode="/" horiz-adv-x="1166" d="M148 16.5q-32 24.5 -32 64.5q0 29 22 75l851 1652q16 31 38.5 44t58.5 13q47 0 83.5 -26.5t36.5 -69.5q0 -26 -10 -44t-13 -20l-846 -1641q-39 -73 -99 -72q-58 0 -90 24.5z" />
<glyph unicode="0" horiz-adv-x="1310" d="M317.5 93.5q-114.5 64.5 -176.5 177t-62 254.5q0 213 91 406.5t252.5 313t357.5 119.5q155 0 271 -71t178 -192.5t62 -277.5q0 -221 -90 -402t-251.5 -286.5t-363.5 -105.5q-154 0 -268.5 64.5zM825 306q99 79 152 209t53 281q0 164 -68 266.5t-188 102.5 q-119 0 -218.5 -96t-159 -242t-59.5 -285q0 -142 68.5 -228.5t190.5 -86.5q130 0 229 79z" />
<glyph unicode="1" horiz-adv-x="918" d="M813 1354q37 -36 29 -86l-205 -1161q-8 -45 -47.5 -73t-97.5 -28q-50 0 -74.5 23t-24.5 58q0 14 2 20l164 925q-50 -53 -143 -140q-10 -10 -30 -17.5t-41 -7.5q-49 0 -76 25.5t-25 60.5q0 44 52 91q101 97 279 290q23 25 60.5 40.5t76.5 15.5q64 0 101 -36z" />
<glyph unicode="2" horiz-adv-x="1153" d="M963 195.5q32 -23.5 32 -61.5q0 -51 -35.5 -84.5t-92.5 -33.5q-24 0 -119 4q-211 6 -262 7q-213 0 -362 -9q-43 0 -71 20t-28 53q0 124 176 290.5t399 305.5q282 178 281 387q0 80 -48.5 128.5t-135.5 48.5q-89 0 -160 -68t-91 -165q-10 -49 -43.5 -70t-96.5 -21 q-101 0 -101 82q0 116 69 217.5t184 163.5t245 62q120 0 219.5 -45.5t158 -128t58.5 -186.5q0 -172 -113.5 -311.5t-309.5 -259.5q-265 -157 -369 -298q60 2 174 2q101 0 362 -6q48 0 80 -23.5z" />
<glyph unicode="3" horiz-adv-x="1230" d="M1118 637q38 -64 38 -153q0 -135 -68 -244.5t-190 -171.5t-280 -62q-248 0 -401 102.5t-153 296.5q0 69 11 122q10 58 49.5 89t98.5 31q56 0 82 -24.5t22 -63.5l-7 -62l-4 -44q0 -244 288 -244q132 0 220 66t88 189q0 171 -229 171q-87 0 -87 72q0 60 29.5 94t88.5 34 q124 0 193.5 56t69.5 166q0 67 -43.5 111t-118.5 44q-93 0 -169.5 -58t-86.5 -147q-7 -62 -7 -72q0 -37 -37 -67.5t-99 -30.5q-39 0 -68.5 16t-37.5 47q-6 35 -6 62q0 122 69 225.5t187.5 164.5t254.5 61q112 0 209 -42.5t155 -119t58 -171.5q0 -112 -61 -203t-162 -139 q66 -37 104 -101z" />
<glyph unicode="4" horiz-adv-x="1277" d="M1218.5 588.5q22.5 -19.5 22.5 -59.5q0 -116 -116 -132q-53 -6 -174 -14l-61 -284q-8 -43 -48.5 -72t-99.5 -29q-47 0 -73 21.5t-26 61.5q0 8 4 29l58 265q-54 -2 -161 -2q-167 0 -256 10t-162 27q-79 23 -79 80q0 35 34 85q190 274 353.5 475t335.5 348q31 27 80 27 q42 0 68.5 -24.5t26.5 -60.5q0 -27 -15.5 -55t-56.5 -65q-152 -138 -293.5 -308t-213.5 -292q-8 -16 -8 -20q0 -8 7.5 -11t25.5 -8q69 -10 254 -10q69 0 103 2l89 408q8 45 42.5 73t93.5 28q53 0 81 -24t28 -65q0 -16 -2 -25l-83 -380q47 4 163 16q36 4 58.5 -15.5z" />
<glyph unicode="5" horiz-adv-x="1207" d="M196.5 96q-125.5 96 -125.5 268q0 47 10 110q8 51 48.5 80.5t97.5 29.5q54 0 85 -20t31 -55q0 -8 -4 -25q-8 -67 -8 -91q0 -95 49.5 -140.5t159.5 -45.5q166 0 248.5 95t82.5 267q0 107 -56.5 164t-169.5 57q-55 0 -112 -8t-152 -34q-16 -6 -50 -6q-45 0 -72.5 23 t-25.5 60l30 146q76 372 91 448q159 -6 447 -6q73 0 192 4l136 2q79 0 79 -69q0 -59 -33.5 -96.5t-92.5 -37.5q-81 0 -127 -2l-189 -2l-203 2l-48 -231q0 -18 18 -19l26 4q8 2 62 13.5t115 11.5q122 0 212 -56t136.5 -151t46.5 -211q0 -269 -159 -422t-439 -153 q-211 0 -336.5 96z" />
<glyph unicode="6" horiz-adv-x="1251" d="M520 1082q-117 -120 -179 -348q69 64 164 103.5t192 39.5q136 0 237.5 -52.5t156.5 -143.5t55 -199q0 -152 -73.5 -258t-203 -162t-292.5 -56q-236 0 -367 116t-131 334q0 92 14 181q62 350 238 558t451 208q157 0 279 -83t172 -209q12 -31 12 -45q0 -46 -47.5 -82.5 t-90.5 -36.5q-31 0 -48 14t-29 33.5t-19 27.5q-37 64 -62 97t-68.5 58t-106.5 25q-137 0 -254 -120zM445.5 601q-89.5 -76 -89.5 -210q0 -89 60 -136.5t178 -47.5q142 0 221 75.5t79 193.5q0 91 -55 146t-160 55q-144 0 -233.5 -76z" />
<glyph unicode="7" horiz-adv-x="1151" d="M1091.5 779.5q25.5 -21.5 25.5 -59.5q0 -53 -35.5 -88.5t-92.5 -35.5h-118q-125 -251 -287 -529q-16 -30 -57 -48.5t-83 -18.5q-51 0 -81 22.5t-30 58.5q0 29 18 55q75 125 249 456h-85q-95 0 -95 74q0 55 36 90.5t94 35.5h155q118 235 118 339q0 52 -38.5 72.5 t-137.5 20.5q-161 0 -372 -51q-10 -2 -31 -2q-39 0 -61.5 21.5t-22.5 56.5q0 85 115 125q203 57 391 57q197 0 303.5 -71t106.5 -204q0 -128 -108 -357q16 2 46 2q52 0 77.5 -21.5z" />
<glyph unicode="8" horiz-adv-x="1271" d="M1144 731q66 -96 66 -226q0 -158 -82 -269.5t-224 -169.5t-323 -58q-154 0 -274.5 51t-187.5 143t-67 210q0 170 126 294.5t314 168.5q-56 25 -89.5 74.5t-33.5 120.5q0 95 55.5 175.5t150 128t205.5 47.5q95 0 173.5 -37.5t125 -103.5t46.5 -145q0 -97 -49.5 -164 t-130.5 -98q133 -46 199 -142zM657.5 1171.5q-49.5 -50.5 -49.5 -119.5q0 -51 32.5 -80t83.5 -29q69 0 116.5 50.5t47.5 121.5q0 50 -31.5 78.5t-80.5 28.5q-69 0 -118.5 -50.5zM786 244.5q83 43.5 128.5 114.5t45.5 154q0 101 -76.5 164t-200.5 63q-97 0 -185 -40 t-141 -112.5t-53 -163.5q0 -105 76 -164t216 -59q107 0 190 43.5z" />
<glyph unicode="9" horiz-adv-x="1236" d="M1122 1291q133 -128 133 -350q0 -80 -14 -155q-68 -373 -245 -576.5t-471 -203.5q-130 0 -238.5 40.5t-174 114.5t-65.5 176q0 34 7 70q8 47 46 77.5t95 30.5q45 0 73 -24.5t26 -66.5q0 -14 -2 -26.5t-2 -24.5q0 -83 71 -127.5t196 -44.5q146 0 262 119.5t182 354.5 q-62 -75 -154 -120.5t-202 -45.5q-215 0 -342 94t-127 266q0 159 78.5 284.5t212 195.5t293.5 70q229 0 362 -128zM817 737.5q75 42.5 119.5 112.5t44.5 153q0 97 -66.5 157t-174.5 60q-89 0 -161 -43.5t-112.5 -118.5t-40.5 -168q0 -97 55.5 -146t173.5 -49q87 0 162 42.5z " />
<glyph unicode=":" horiz-adv-x="651" d="M228.5 647.5q-44.5 41.5 -44.5 104.5q0 91 59 148t148 57q69 0 113 -41t44 -103q0 -91 -55 -149t-148 -58q-72 0 -116.5 41.5zM406.5 738q21.5 22 21.5 54q0 23 -15.5 37.5t-35.5 14.5q-28 0 -50.5 -22.5t-22.5 -55.5q0 -26 14.5 -38t37.5 -12q29 0 50.5 22zM142.5 71.5 q-47.5 46.5 -47.5 114.5q0 81 58 138t143 57q71 0 116.5 -45.5t45.5 -110.5q0 -89 -56.5 -144.5t-144.5 -55.5q-67 0 -114.5 46.5zM317.5 156q19.5 20 19.5 47q0 23 -14.5 36t-36.5 13q-29 0 -49 -20.5t-20 -43.5q-2 -25 12.5 -38.5t37.5 -13.5q31 0 50.5 20z" />
<glyph unicode=";" horiz-adv-x="729" d="M553.5 916q44.5 -41 44.5 -103q0 -91 -56 -149t-149 -58q-71 0 -116.5 41.5t-45.5 104.5q0 91 59 148t148 57q71 0 115.5 -41zM456 739q22 23 22 53q0 23 -17 37.5t-37 14.5q-27 0 -50 -22.5t-23 -55.5q0 -26 15 -38t37 -12q31 0 53 23zM444.5 314.5 q47.5 -49.5 47.5 -138.5q0 -91 -38 -184t-105 -154q-51 -47 -116 -76t-123 -29q-73 0 -73 54q0 35 23 58t54 23q38 0 77.5 17.5t71.5 41.5q53 40 86 100q-45 -23 -97 -23q-66 0 -110.5 45.5t-44.5 108.5q0 84 64 145t151 61q85 0 132.5 -49.5zM328.5 139q22.5 23 22.5 60 q0 23 -14.5 37t-40.5 14q-33 0 -57 -24.5t-24 -57.5q0 -26 14.5 -39t41.5 -13q35 0 57.5 23z" />
<glyph unicode="&#x3c;" d="M480 373q-188 80 -274 140t-86 126q0 79 118 156.5t346 155.5q110 40 273 87.5t197 47.5q38 0 58.5 -22t20.5 -55q0 -47 -28.5 -74t-90.5 -45l-73 -19q-207 -58 -308 -91q-282 -97 -282 -131q0 -8 38.5 -25.5t68.5 -28.5t43 -16q51 -16 85 -31q140 -55 347 -134 q71 -25 70 -79q0 -49 -24 -79.5t-69 -30.5q-79 1 -430 148z" />
<glyph unicode="=" d="M167.5 738q-31.5 22 -31.5 58q0 49 47.5 80.5t122.5 31.5l673 6q53 0 88.5 -24.5t35.5 -62.5q0 -47 -48 -76t-116 -29l-691 -6q-49 0 -80.5 22zM112.5 385.5q-31.5 21.5 -31.5 60.5q0 50 44.5 80.5t120.5 34.5l687 20q52 2 86.5 -22t34.5 -60q0 -50 -43 -79t-115 -33 l-701 -21q-51 -2 -82.5 19.5z" />
<glyph unicode="&#x3e;" d="M115.5 234.5q-24.5 17.5 -24.5 51.5q0 41 24.5 73t68.5 46q146 56 395 141q229 75 230 101q0 28 -199 115q-146 63 -360 119q-86 23 -86 85q0 47 30.5 76.5t80.5 29.5q39 0 190 -45.5t242 -83.5q180 -70 278.5 -146.5t98.5 -149.5q0 -53 -47.5 -95.5t-138.5 -83 t-265 -104.5q-221 -81 -321.5 -114t-129.5 -33q-42 0 -66.5 17.5z" />
<glyph unicode="?" horiz-adv-x="1121" d="M492.5 409.5q-18.5 20.5 -18.5 58.5q0 66 52.5 135.5t164.5 182.5q116 116 174.5 194.5t58.5 154.5q0 93 -55.5 149t-152.5 56q-140 0 -222 -67t-82 -183q0 -42 23 -68.5t59 -26.5q83 0 83 -73q0 -45 -34 -76t-81 -31q-101 0 -167 69t-66 175q0 129 62.5 232t172 162 t243.5 59q114 0 205 -44.5t143 -124t52 -180.5q0 -81 -38.5 -157.5t-92.5 -138.5t-141 -147q-91 -89 -135.5 -146t-44.5 -110q0 -75 -109 -75q-35 0 -53.5 20.5zM399 43.5q-33 33.5 -33 82.5q0 62 51 111t116 49q48 0 81 -33.5t33 -80.5q0 -62 -49.5 -112t-111.5 -50 q-54 0 -87 33.5z" />
<glyph unicode="@" horiz-adv-x="1855" d="M1394 1185q149 -72 234 -199.5t85 -284.5q0 -147 -65 -292.5t-174.5 -238.5t-232.5 -93q-72 0 -119.5 33.5t-59.5 88.5q-95 -79 -239 -79q-142 0 -211.5 82t-69.5 218q0 126 55.5 237t153 177t217.5 66q138 0 203 -93l8 24q8 27 34 42t64 15q43 0 61 -18t18 -45 q0 -10 -4 -26q-57 -162 -93 -276q-43 -130 -47 -209q-6 -69 54 -68q66 0 119.5 73.5t86 181t32.5 202.5q0 112 -54 200t-156 137.5t-244 49.5q-217 0 -371 -91t-232 -246t-78 -348q0 -215 129 -338t392 -123q63 0 107.5 7.5t148.5 32.5q6 2 21 2q31 0 49.5 -21t18.5 -52 t-21.5 -52t-74.5 -37q-63 -23 -146 -35t-168 -12q-207 0 -358 79.5t-229 220t-78 316.5q0 233 114.5 432t320.5 315.5t467 116.5q183 0 332 -72zM967.5 311.5q43.5 29.5 64.5 85.5l14 51q34 117 44 158q2 6 2 21q0 48 -41.5 83.5t-97.5 35.5q-59 0 -108 -45.5t-76 -115.5 t-27 -139q0 -76 34.5 -120t98.5 -44q49 0 92.5 29.5z" />
<glyph unicode="A" horiz-adv-x="1437" d="M1279 371.5q-24 -40.5 -65 -40.5h-12q20 -163 27 -213q2 -8 2 -19q0 -54 -41.5 -88t-101.5 -34q-46 0 -80.5 19.5t-39.5 55.5l-29 281l-471 6l-30 -60q-33 -73 -105 -221q-39 -79 -132 -78q-60 0 -103.5 29.5t-35.5 75.5q4 25 11 35q380 745 560 1102q73 143 122.5 197 t132.5 54t130.5 -52.5t65.5 -179.5q20 -142 41 -311.5t31 -244.5l15 -120h27q105 0 105 -91q0 -62 -24 -102.5zM916 567l-39 386q-8 89 -15.5 123.5t-17.5 34.5q-8 0 -19.5 -19.5t-32.5 -67.5l-28 -60l-187 -393z" />
<glyph unicode="B" horiz-adv-x="1356" d="M128 8l-16 2q-67 0 -67 73q0 59 31 105.5t82 44.5h22q63 245 120 559q18 97 47 284l17 95q-17 -6 -25 -6q-20 0 -34.5 17.5t-14.5 43.5q0 58 40.5 96.5t113.5 67.5q95 37 199.5 55.5t198.5 18.5q152 0 269.5 -48t183.5 -133t66 -193q0 -149 -111 -247.5t-290 -124.5 q138 -39 201 -120t63 -174q0 -142 -82.5 -239.5t-221 -144t-304.5 -46.5q-77 0 -172 4q-6 0 -80 4q-44 -64 -135 -64q-85 -1 -101 70zM877.5 271q97.5 60 97.5 185q0 167 -272 171q-62 2 -90.5 15t-28.5 57q0 132 150 132q162 4 265.5 61t103.5 190q0 85 -78 128t-224 43 q-89 0 -174 -22l-39 -244l-34 -193q-25 -149 -52.5 -269t-77.5 -308q116 -6 192 -6q164 0 261.5 60z" />
<glyph unicode="C" horiz-adv-x="1516" d="M1509 1443q28 -24 28 -65q0 -12 -2 -22l-45 -235q-23 -126 -146 -126q-70 0 -93 41q-39 71 -68 111.5t-83 70t-132 29.5q-147 0 -282.5 -97.5t-219 -249.5t-83.5 -304q0 -118 51.5 -203t139.5 -128.5t198 -43.5q142 0 263 75t161 223q12 52 43 86t101 34q129 0 116 -126 q-16 -118 -101 -238.5t-234.5 -201.5t-348.5 -81q-182 0 -329 74t-232 212t-85 322q0 221 116 423.5t310 328t416 125.5q223 0 325 -131l6 38q8 37 41.5 60t86.5 23q54 0 82 -24z" />
<glyph unicode="D" horiz-adv-x="1461" d="M1215.5 1250.5q197.5 -156.5 197.5 -435.5q0 -242 -138 -424t-374.5 -280.5t-527.5 -98.5h-164q-69 0 -96.5 20t-27.5 69q0 56 31.5 95t90.5 39h35l149 991h-10q-44 0 -64.5 15.5t-20.5 61.5q0 77 37.5 113t94.5 36h25q34 34 106 33q78 0 96 -44q363 -34 560.5 -190.5z M826 331q153 79 242.5 206t89.5 278q0 341 -517 399l-147 -976q179 14 332 93z" />
<glyph unicode="E" horiz-adv-x="1277" d="M1319.5 1406.5q24.5 -18.5 24.5 -58.5q0 -59 -35.5 -100.5t-86.5 -39.5q-190 16 -347 16q-143 0 -242 -6l-29 -184l-25 -161h62q308 -4 381 -8q29 -4 47.5 -20t18.5 -55q0 -56 -30 -102.5t-75 -46.5q-79 0 -112 2q-30 0 -85.5 1t-171.5 1h-74q-23 -116 -44.5 -201.5 t-55.5 -191.5q123 -8 239 -8q120 0 190 4t149 15l22 2q40 0 62.5 -22t22.5 -65q0 -58 -29.5 -93.5t-86.5 -45.5q-99 -18 -405 -19q-120 0 -224.5 5.5t-247.5 23.5q-63 9 -63 75q0 58 25.5 100.5t69.5 42.5h26q53 167 94 382h-19q-34 0 -53.5 20t-19.5 59q0 64 29 106.5 t77 42.5h24l61 331h-8q-28 0 -39 22.5t-11 54.5q0 138 147 152q107 10 361 11q282 0 418 -17q44 -6 68.5 -24.5z" />
<glyph unicode="F" horiz-adv-x="1269" d="M1342 1350q0 -61 -37 -103.5t-93 -34.5q-197 23 -395 23q-110 0 -172 -2q-20 -217 -45 -383q39 2 122 2q247 0 326 -19q79 -20 79 -87q0 -57 -32.5 -97.5t-99.5 -34.5q-170 14 -296 15q-95 0 -136 -2q-28 -148 -91 -426l-19 -85q-12 -47 -50.5 -76.5t-96.5 -29.5 q-49 0 -79 23t-30 64q0 12 2 21l32 149q34 126 75 337l-62 -6q-35 -4 -55.5 18.5t-20.5 64.5q0 122 132 142l43 6q21 139 46 395h-31q-87 -4 -87 77q0 130 116 145l25 2l2 19q6 41 48.5 66.5t104.5 25.5q116 0 104 -95v-6q57 2 154 2q120 0 252.5 -8t181.5 -19 q83 -14 83 -83z" />
<glyph unicode="G" horiz-adv-x="1571" d="M667 1120q-132 -80 -207 -212t-75 -284q0 -118 48.5 -207.5t135 -139.5t199.5 -50q138 0 232 82t137 245l-235 5q-101 2 -101 90q0 62 36 101.5t98 37.5l490 -10q116 0 116 -89q0 -56 -32 -96.5t-90 -40.5h-35q-67 -268 -225 -410t-409 -142q-189 0 -331 82t-216.5 222 t-74.5 316q0 219 108.5 405.5t294 295t402.5 108.5q149 0 245.5 -54.5t141.5 -129.5l10 44q10 45 34 66t75 21q54 0 89 -23t33 -64q-4 -56 -23.5 -123.5t-41.5 -99.5q-44 -60 -126 -61q-32 0 -60.5 14.5t-64.5 52.5q-57 61 -117 94.5t-171 33.5q-158 0 -290 -80z" />
<glyph unicode="H" horiz-adv-x="1600" d="M1506 683q0 -71 -35.5 -105t-94.5 -34h-22l-61 -426q-10 -55 -48.5 -88.5t-96.5 -33.5q-57 0 -87.5 33t-24.5 83l65 436l-578 9l-122 -480q-23 -91 -140 -91q-54 0 -84.5 19.5t-30.5 56.5q0 20 6 33l117 466h-27q-37 0 -55.5 19.5t-18.5 64.5q0 67 31.5 105t90.5 38h37 l153 598q14 51 54.5 80.5t98.5 29.5q52 0 77.5 -25t25.5 -66q0 -25 -4 -37l-148 -584l549 -6l89 598q8 51 47.5 85.5t100.5 34.5q53 0 82 -24t29 -67q0 -14 -2 -23l-89 -608h29q87 0 87 -91z" />
<glyph unicode="I" horiz-adv-x="1004" d="M1080 1372q0 -62 -33 -101.5t-100 -37.5q-61 4 -144 4q-103 -560 -213 -999l180 -3q97 -2 97 -81q0 -67 -37.5 -107.5t-101.5 -40.5l-621 8q-87 2 -87 85q0 60 36.5 102.5t91.5 42.5l195 -2q121 520 207 995l-161 -11q-56 -6 -87 -6q-37 0 -59 23t-22 62q0 62 33.5 99 t92.5 46q40 6 146.5 12.5t226.5 6.5q158 0 277 -13q83 -6 83 -84z" />
<glyph unicode="J" horiz-adv-x="1285" d="M1350 1368q0 -58 -33.5 -98.5t-98.5 -40.5h-72q-37 -182 -98 -534l-24 -143q-47 -268 -183 -411t-357 -143q-195 0 -306 108.5t-111 303.5q0 71 10 123q23 131 154 131q54 0 80 -27t26 -70q0 -17 -2 -27q-10 -53 -10 -116q0 -197 159 -197q99 0 175.5 81t104.5 246 q57 330 130 675h-106q-50 0 -73.5 18.5t-23.5 57.5q0 18 2 29q6 52 35.5 82t65.5 32q136 6 280 6q103 0 185 -4q91 -6 91 -82z" />
<glyph unicode="K" horiz-adv-x="1325" d="M1376.5 1416q32.5 -30 32.5 -68q0 -31 -15.5 -60t-43.5 -47q-144 -93 -419 -252q-165 -97 -267 -154q-30 -16 -59.5 -32.5t-58.5 -34.5l273 -271q182 -180 302 -286q35 -35 35 -77q0 -55 -45 -97.5t-106 -42.5q-37 0 -72 24q-93 87 -286 288l-229 244l-81 -426 q-8 -57 -49.5 -91.5t-99.5 -34.5q-50 0 -78.5 20.5t-28.5 60.5l2 18q31 197 95 509l27 142q20 105 60 355q10 73 37 233q10 50 51.5 81t96.5 31q52 0 80.5 -27t28.5 -69q0 -14 -2 -22l-63 -366l317 199q170 105 403 258q35 25 85 25q45 0 77.5 -30z" />
<glyph unicode="L" horiz-adv-x="1161" d="M250.5 28q-78.5 32 -111 102.5t-32.5 194.5q0 294 255 1039q14 41 54 66.5t97 25.5q44 0 74.5 -20.5t30.5 -51.5q0 -6 -4 -23l-18 -54q-122 -339 -185.5 -565.5t-63.5 -416.5q0 -66 29 -88t114 -22q95 0 171.5 9t207.5 33q57 12 88 16q44 6 66.5 -21t22.5 -68 q0 -122 -119 -143q-235 -45 -451 -45q-147 0 -225.5 32z" />
<glyph unicode="M" horiz-adv-x="1664" d="M1551.5 1400.5q39.5 -74.5 39.5 -221.5q0 -267 -147 -1069q-10 -57 -45 -90.5t-96 -33.5q-54 0 -85.5 27.5t-31.5 71.5l2 18l71 394q48 254 70.5 390.5t22.5 206.5q0 75 -18 75q-23 0 -72.5 -79t-109.5 -188q-95 -182 -157 -321q-42 -93 -158 -93q-57 0 -86 20.5 t-39 66.5q-6 43 -21 151q-8 85 -25 178q-19 93 -43.5 179t-43.5 86q-40 0 -139 -484q-35 -166 -74 -406q-6 -38 -13.5 -82.5t-17.5 -97.5q-8 -47 -46.5 -75t-100.5 -28q-105 0 -105 93q0 14 4 43q25 141 69 371q29 153 34 186q53 282 111.5 453t130 252t166.5 81 q114 0 174.5 -101t81.5 -229.5t34 -311.5q116 267 246 454.5t289 187.5q89 0 128.5 -74.5z" />
<glyph unicode="N" horiz-adv-x="1555" d="M1555 1382q0 -10 -4 -40q-43 -258 -120 -663q-47 -257 -87.5 -395t-92 -199.5t-132.5 -61.5q-73 0 -128.5 53.5t-115.5 166.5t-170 353l-163 361l-39 91l-31 -192l-32 -185q-49 -296 -97 -545q-8 -45 -49.5 -76.5t-94.5 -31.5q-54 0 -85 33.5t-25 74.5q29 178 53 308 q42 230 48 261q-4 -23 29 176q50 281 50 287q20 119 43 183t58 92.5t96 28.5q72 0 125.5 -49t114 -166.5t169.5 -371.5q155 -358 240 -521l71 370l115 644q8 49 45.5 79t103.5 30q105 0 105 -95z" />
<glyph unicode="O" horiz-adv-x="1664" d="M440 88q-146 74 -228 212t-82 324q0 225 104.5 419t291 307.5t415.5 113.5q195 0 346.5 -81.5t236.5 -229.5t85 -340q0 -227 -109.5 -409.5t-300 -286t-425.5 -103.5q-188 0 -334 74zM1081.5 319.5q130.5 77.5 202.5 211t72 292.5q0 188 -107.5 301t-293.5 113 q-163 0 -292.5 -86.5t-201.5 -229.5t-72 -303q0 -190 110.5 -283t284.5 -93q167 0 297.5 77.5z" />
<glyph unicode="P" horiz-adv-x="1362" d="M1121 1391q120 -57 188.5 -155.5t68.5 -219.5q0 -151 -88 -266t-233 -177t-313 -62q-74 0 -143.5 13t-112.5 33l-87 -458q-10 -52 -50.5 -83.5t-100.5 -31.5q-51 0 -79.5 23.5t-28.5 69.5q0 18 2 28q13 75 38 199q33 162 62 320q44 261 72 468l-8 -4q-20 -10 -37 -10 q-28 0 -43 24.5t-15 62.5q0 49 26 77t83 61l27 13q0 12 5 28q18 123 153 123q69 0 94.5 -15t20.5 -33v-2q120 31 232 31q147 0 267 -57zM913 760.5q82 40.5 129.5 107.5t47.5 148q0 95 -78.5 151.5t-202.5 56.5q-83 0 -219 -34l-21 -128q-12 -62 -32 -208l-12 -86 q38 -21 98 -34.5t115 -13.5q93 0 175 40.5z" />
<glyph unicode="Q" horiz-adv-x="1646" d="M1433 242q27 -31 27 -64q0 -58 -48 -106.5t-107 -48.5q-56 0 -87 37l-66 78q-205 -114 -430 -113q-188 0 -320.5 80.5t-201 219.5t-68.5 310q0 228 114 420t306 305t414 113q179 0 323 -83t225 -226.5t81 -319.5q0 -151 -58 -287.5t-163 -246.5zM1001 318l-89 104 q-23 29 -22 60q0 31 27.5 66.5t68 60t76.5 24.5q29 0 49 -21l101 -115q60 77 93 166t33 185q0 176 -104.5 286.5t-276.5 110.5q-155 0 -285 -87.5t-205.5 -229.5t-75.5 -299q0 -178 96.5 -277.5t254.5 -99.5q137 -1 259 66z" />
<glyph unicode="R" horiz-adv-x="1395" d="M1290 772q-94 -103 -249 -154t-340 -51q-60 0 -128 10l560 -344q50 -29 50 -69q0 -56 -33 -100t-88 -44q-42 0 -96 32l-522 349l-53 -300q-10 -54 -47.5 -83.5t-95.5 -29.5q-55 0 -82.5 26.5t-27.5 72.5q0 20 2 31q34 186 63 360l43 250q34 197 56 350l-4 -2 q-14 -6 -29 -6q-28 0 -42 17.5t-14 58.5q0 54 17.5 91.5t67.5 61.5q25 12 41 19l2 16q8 56 49.5 88t103.5 32q110 0 104 -45v-2q157 39 246 39q170 0 291.5 -54t185 -149t63.5 -217q0 -151 -94 -254zM567 1175l-10 -74l-46 -321q75 -14 203 -14q164 0 272 71t108 193 q0 89 -70.5 139.5t-194.5 50.5q-126 0 -262 -45z" />
<glyph unicode="S" horiz-adv-x="1251" d="M340.5 50.5q-109.5 50.5 -168 143t-58.5 213.5q0 89 37 133t118 44q70 0 91 -29.5t21 -82.5q0 -116 48.5 -180.5t166.5 -64.5q112 0 189.5 53t77.5 140q0 56 -35.5 91t-84 56t-141.5 49q-156 50 -272.5 140t-116.5 258q0 128 74.5 231t199.5 161t273 58q132 0 236.5 -48 t164 -134t59.5 -194q0 -89 -38 -126.5t-116 -37.5q-67 0 -84.5 24.5t-17.5 79.5q0 95 -54 153t-155 58q-76 0 -142.5 -32t-104.5 -84.5t-38 -113.5q0 -43 22.5 -70t65 -44.5t133.5 -48.5l53 -19q158 -51 266.5 -139t108.5 -266q0 -130 -70 -225.5t-190.5 -146t-262.5 -50.5 q-146 0 -255.5 50.5z" />
<glyph unicode="T" horiz-adv-x="1198" d="M1256 1404.5q25 -18.5 25 -66.5q0 -63 -41.5 -103.5t-110.5 -34.5q-89 6 -273 10q-61 -246 -116 -511q-51 -253 -113 -600q-10 -64 -43.5 -91.5t-107.5 -27.5q-118 0 -118 93q0 10 4 34q68 333 124 592q81 369 116 511q-132 -2 -300 -18q-43 -4 -68 22.5t-25 76.5 q0 110 122 128q75 10 206.5 16t254.5 6q95 0 217 -3t177 -9q45 -6 70 -24.5z" />
<glyph unicode="U" horiz-adv-x="1431" d="M1396.5 1442q28.5 -25 28.5 -66q0 -15 -2 -24q-33 -181 -53 -322q-4 -25 -24 -134l-130 -772q-12 -72 -44.5 -101t-95.5 -29q-119 0 -119 91q0 16 3 25l13 74q-64 -83 -160.5 -132.5t-212.5 -49.5q-217 0 -334.5 120t-117.5 310q0 93 34.5 281.5t127.5 634.5 q10 48 46.5 77t101.5 29q105 0 105 -74q0 -10 -4 -36q-89 -424 -122.5 -621.5t-33.5 -276.5q0 -99 56 -157t149 -58t189.5 59t166.5 157.5t90 212.5q54 312 119 692q18 115 138 115q57 0 85.5 -25z" />
<glyph unicode="V" horiz-adv-x="1374" d="M498 29q-52 31 -70 85q-18 52 -48.5 231.5t-61.5 414.5l-70 562q-2 12 -2 30q0 115 151 115q87 0 97 -69q20 -139 52 -441l15 -148q33 -292 51.5 -394.5t45.5 -102.5q29 0 87 108.5t179 388.5q143 331 264 594q29 61 109 61q57 0 94.5 -25.5t37.5 -68.5q0 -21 -12 -50 q-134 -304 -252 -556q-255 -549 -319 -646q-35 -55 -97 -87.5t-131 -32.5q-68 0 -120 31z" />
<glyph unicode="W" horiz-adv-x="1780" d="M388.5 31q-41.5 29 -43.5 74q-8 87 -14 228q-8 247 -31 449q-18 178 -52 521l-2 25q2 58 50.5 94t115.5 36q44 0 68.5 -18.5t26.5 -63.5q2 -48 8 -111t10 -98q2 -24 12.5 -124t14.5 -206q5 -59 9 -204q2 -103 7 -188t13 -85q6 0 29 38t52 92q23 41 88 159q9 17 55.5 96.5 t85 115t73.5 35.5q49 0 76.5 -57t64.5 -200q8 -35 10 -47q20 -89 40 -159.5t31 -70.5q6 0 36.5 80.5t66.5 179.5l77 213l22 61q87 225 191 480q35 80 132 80q55 0 88.5 -28t33.5 -74q0 -16 -15 -45q-77 -172 -155 -372l-62 -153q-56 -139 -151 -391q-20 -52 -46 -121 t-60 -154q-23 -53 -68 -82.5t-109 -29.5q-69 0 -111 45.5t-79 155.5q-8 20 -40 136q-12 48 -23.5 85.5t-17.5 37.5q-8 0 -38.5 -54t-36.5 -67q-63 -114 -85 -146q-68 -107 -126 -152t-120 -45q-60 0 -101.5 29z" />
<glyph unicode="X" horiz-adv-x="1399" d="M1406 1403.5q42 -44.5 42 -94.5q0 -35 -41 -74l-402 -422l-111 -120l279 -503q29 -48 27 -74q-2 -45 -53 -88.5t-111 -43.5q-27 0 -41 11t-29 34q-105 180 -261 463l-176 -186q-159 -172 -229 -244q-37 -40 -60 -53t-56 -13q-54 0 -93 34t-39 77q0 29 11.5 47t33.5 41 q166 172 489 514l-83 147q-126 226 -232 408q-8 14 -12 25.5t-2 23.5q2 54 52.5 94.5t110.5 40.5q36 0 53 -16.5t44 -63.5l257 -458l446 478q29 31 48 45.5t45 14.5q51 0 93 -44.5z" />
<glyph unicode="Y" horiz-adv-x="1354" d="M517 29q-29 25 -29 66q0 18 2 27l96 563q-38 6 -97 82.5t-96 159.5q-97 209 -132 384q-2 8 -2 25q0 54 51.5 84t117.5 30q44 0 68.5 -22.5t38.5 -73.5q48 -189 100 -316q71 -163 109 -163q26 0 74.5 49t97.5 116q54 71 110 157t66 102l41 65q8 10 25 34.5t35.5 36 t47.5 11.5q60 0 103.5 -35t43.5 -81q0 -25 -16 -51q-36 -71 -113.5 -181.5t-137.5 -187.5q-73 -89 -160.5 -155t-123.5 -70l-91 -557q-10 -57 -48 -90.5t-100 -33.5q-52 0 -81 25z" />
<glyph unicode="Z" horiz-adv-x="1443" d="M1018 39q-18 2 -126 8.5t-263 6.5q-142 0 -354 -9l-129 -4q-126 0 -126 91q0 62 117.5 178t385.5 343l201 172q306 265 428 383q-213 -18 -298 -18q-116 0 -250 11t-201 28q-54 12 -77.5 35t-23.5 60q0 56 38.5 93t93.5 37q4 0 79 -8q116 -14 202 -21.5t197 -7.5 q64 0 139.5 5t174.5 13l114 9q34 4 71 -6.5t62 -28.5q18 -14 28.5 -35.5t10.5 -43.5q0 -73 -103.5 -178.5t-342.5 -312.5l-127 -107q-337 -290 -529 -467l58 4q179 10 302 10q110 0 184 -5t196 -22q93 -10 93 -92q0 -60 -40 -95.5t-94 -31.5z" />
<glyph unicode="[" horiz-adv-x="750" d="M-10 -333q43 190 81.5 402.5t92.5 542.5q49 298 73 475t53 456q126 10 442 10q38 0 57.5 -23.5t19.5 -58.5q0 -50 -32.5 -83.5t-85.5 -33.5h-95q-103 0 -122 -2q-6 -39 -21 -142q-4 -33 -28 -198.5t-65 -393.5l-66 -385q-44 -250 -73 -389l118 -2l114 2q67 0 66 -65 q0 -54 -29.5 -86t-86.5 -38q-73 -6 -211 -6q-62 0 -202 18z" />
<glyph unicode="\" horiz-adv-x="1002" d="M628.5 18.5q-20.5 18.5 -26.5 54.5l-271 1654q-4 20 -4 33q0 54 47.5 91.5t103.5 37.5q79 0 87 -63l268 -1662q4 -26 4 -36q0 -57 -44.5 -92.5t-113.5 -35.5q-30 0 -50.5 18.5z" />
<glyph unicode="]" horiz-adv-x="750" d="M41 -345q-72 6 -72 70q0 52 27 85.5t75 33.5h134h97q14 108 69 411l63 363q42 227 78 405.5t45 221.5q12 52 27 125q-36 -2 -63 -1t-47 1q-28 2 -91 2q-101 0 -101 72q0 46 25.5 77.5t69.5 31.5q286 0 454 -10q-79 -325 -115.5 -493.5t-84.5 -437.5l-132 -768l-29 -177 q-149 -16 -209 -16q-107 0 -220 4z" />
<glyph unicode="^" horiz-adv-x="1261" d="M184.5 466q-30.5 22 -30.5 49q0 6 4 18q203 454 353.5 685.5t262.5 231.5q124 0 213 -226.5t138 -666.5q4 -48 -29.5 -83.5t-86.5 -35.5q-31 0 -55.5 16t-26.5 40q-16 225 -66 480t-95 255q-50 0 -188 -249.5t-243 -487.5q-10 -27 -28.5 -37.5t-54.5 -10.5 q-37 0 -67.5 22z" />
<glyph unicode="_" horiz-adv-x="1172" d="M-127.5 -308.5q-24.5 22.5 -24.5 60.5q0 51 36.5 86.5t88.5 35.5q151 0 507 -4l503 -2q37 0 60 -23t23 -58q0 -52 -30.5 -90t-88.5 -38l-453 4q-292 6 -556 6q-41 0 -65.5 22.5z" />
<glyph unicode="`" horiz-adv-x="649" d="M535 1042l-300 361q-25 29 -24 55q0 42 38.5 80.5t79.5 38.5q42 0 70 -40l79 -96q114 -144 223 -264q18 -21 19 -54q0 -41 -37.5 -75t-80.5 -34q-41 -1 -67 28z" />
<glyph unicode="a" horiz-adv-x="1275" d="M1101.5 179q13.5 -11 13.5 -49q0 -53 -30.5 -90.5t-97.5 -37.5q-69 0 -107 23.5t-63 77.5q-47 -62 -126 -92.5t-178 -30.5q-130 0 -228.5 54.5t-151 153t-52.5 226.5q0 168 73 306t201.5 220t285.5 82q99 0 170.5 -34.5t106.5 -87.5l11 35q25 77 109 76q54 0 88 -20 t34 -54q0 -23 -31 -104l-26 -78q-35 -110 -65.5 -259t-30.5 -223q0 -40 10.5 -55t36.5 -19q34 -9 47.5 -20zM689.5 225.5q65.5 49.5 84.5 143.5q20 99 35.5 185.5t15.5 118.5q0 72 -49.5 112t-115.5 40q-91 0 -164.5 -63t-115 -162t-41.5 -201q0 -101 47.5 -162t146.5 -61 q91 0 156.5 49.5z" />
<glyph unicode="b" horiz-adv-x="1315" d="M1007.5 1001q105.5 -56 166.5 -156.5t61 -228.5q0 -178 -79.5 -319t-221.5 -221t-320 -80q-105 2 -206.5 47.5t-130.5 92.5q-28 -35 -65.5 -65t-63.5 -40q-31 -14 -55 -15q-41 0 -68 29.5t-27 68.5q0 42 41 76q40 27 56 54q16 30 30.5 104t54.5 325l17 113 q23 153 109 687l37 225q8 47 50.5 75.5t96.5 28.5q51 0 81.5 -25t24.5 -68q-12 -97 -61 -400l-55 -352q47 44 122 72t172 28q128 0 233.5 -56zM799.5 253.5q83.5 58.5 131.5 155t48 205.5q0 118 -65.5 182.5t-177.5 64.5q-93 0 -171.5 -44.5t-122.5 -98.5l-26 -157 q-16 -83 -25 -180q-4 -48 24.5 -91.5t81.5 -69t117 -25.5q102 0 185.5 58.5z" />
<glyph unicode="c" horiz-adv-x="1230" d="M318.5 57q-109.5 57 -170.5 155t-61 218q0 174 79.5 319t220 230t314.5 85q110 0 216.5 -44.5t173.5 -120.5t67 -163q0 -51 -38 -77t-96 -26q-39 0 -61 21t-34 60q-6 33 -34 68t-75.5 60t-105.5 25q-101 0 -188.5 -63.5t-137 -165t-49.5 -208.5t63.5 -170t185.5 -63 q93 0 165 35t112.5 90t40.5 108q0 30 35.5 53.5t84.5 23.5q52 0 79.5 -16.5t27.5 -60.5q0 -124 -77 -222t-207.5 -153t-281.5 -55q-139 0 -248.5 57z" />
<glyph unicode="d" horiz-adv-x="1308" d="M218 89.5q-131 107.5 -131 313.5q0 174 78.5 324t219 241t316.5 91q101 0 185.5 -28t122.5 -71l145 716q9 43 49 69t92 26q51 0 84.5 -26t25.5 -65l-245 -1270q-18 -105 -19 -177q0 -31 7.5 -48t23.5 -36t16 -33q0 -25 -27.5 -56t-67 -52.5t-75.5 -21.5q-51 0 -90.5 42.5 t-50.5 109.5q-75 -84 -144 -120t-183 -36q-201 0 -332 107.5zM733.5 219.5q67.5 35.5 111 93.5t55.5 121l55 310q-18 46 -90.5 81.5t-155.5 35.5q-103 0 -187 -62.5t-131.5 -159.5t-47.5 -203q0 -124 70.5 -188t174.5 -64q78 0 145.5 35.5z" />
<glyph unicode="e" horiz-adv-x="1248" d="M323.5 44.5q-112.5 60.5 -172.5 166t-60 237.5q0 166 80.5 308t220 225t311.5 83q126 0 233.5 -45.5t173 -137t65.5 -217.5q0 -205 -161 -204l-704 -10q-2 -12 -2 -32q0 -101 78 -166.5t204 -65.5q101 0 164 33t136 95q39 31 72 31q37 0 67 -25.5t30 -60.5q0 -38 -33 -79 q-69 -79 -168.5 -137.5t-267.5 -58.5q-154 0 -266.5 60.5zM922 624q31 0 41 10.5t10 40.5q0 95 -74 146.5t-185 51.5q-99 0 -182.5 -43.5t-134 -104.5t-58.5 -109z" />
<glyph unicode="f" horiz-adv-x="857" d="M931 1461.5q87 -69.5 87 -186.5q0 -38 -4 -57q-14 -77 -48.5 -108.5t-98.5 -31.5q-113 0 -112 82q0 17 3 26q10 51 10 80q0 31 -14 46.5t-47 15.5q-54 0 -80.5 -51t-51.5 -189q-30 -158 -40 -219h129q74 0 74 -75q0 -50 -28.5 -80.5t-80.5 -32.5l-124 -4l-23 -146 q-44 -274 -70 -426q-8 -51 -44.5 -78t-94.5 -27q-52 0 -80.5 20.5t-28.5 62.5l2 18q41 286 89 572l-75 -2q-50 0 -71.5 18t-21.5 57q0 54 30.5 87.5t89.5 33.5q45 0 79 2l36 227q38 213 131 324t254 111q137 0 224 -69.5z" />
<glyph unicode="g" horiz-adv-x="1222" d="M1127.5 1072q39.5 -22 39.5 -58q0 -20 -11 -37q-33 -64 -60 -125l-12 -319l-6 -177q-6 -145 -12.5 -223.5t-19.5 -146.5q-80 -503 -586 -503q-117 0 -209.5 40.5t-144.5 110.5t-52 157q0 73 32 106.5t100 33.5q87 0 87 -67q0 -85 49 -130.5t138 -45.5q94 0 160.5 23.5 t112 89t66.5 187.5q10 53 12 109q-53 -45 -131 -72t-167 -27q-128 0 -226.5 59t-151 161t-52.5 228q0 160 77.5 297.5t212 219t298.5 81.5q84 0 145 -21.5t94 -56.5l50 93q12 21 29.5 28t52.5 7q46 0 85.5 -22zM724 240.5q85 43.5 109 94.5l6 415q-14 36 -60.5 65t-109.5 29 q-91 0 -168 -59t-121.5 -153.5t-44.5 -193.5q0 -105 55.5 -173t168.5 -68q80 0 165 43.5z" />
<glyph unicode="h" horiz-adv-x="1188" d="M1020 998q93 -78 93 -230q0 -34 -6 -75q-48 -335 -93 -592q-8 -43 -49 -69t-92 -26q-56 0 -88.5 32.5t-22.5 75.5q80 466 99 587q4 33 4 43q0 64 -31 97.5t-88 33.5q-84 0 -168 -67.5t-122 -166.5q-17 -41 -30.5 -112t-28.5 -158q-33 -197 -48 -276q-8 -39 -50 -64 t-92 -25q-53 0 -85.5 26t-24.5 65q60 353 149 797q36 170 141 626q12 48 50.5 77t95.5 29q50 0 75 -19.5t25 -57.5q0 -14 -2 -23q-59 -282 -128 -558q116 107 283 108q141 0 234 -78z" />
<glyph unicode="i" horiz-adv-x="675" d="M354.5 1147q-38.5 36 -38.5 96q0 85 59 141.5t144 56.5q64 0 102.5 -35.5t38.5 -96.5q0 -83 -59 -140.5t-143 -57.5q-65 0 -103.5 36zM152 36q-30 24 -30 61q0 12 2 19l162 802q8 48 48.5 76t95.5 28q52 0 82 -23.5t30 -61.5q0 -14 -2 -23l-159 -798q-8 -47 -49.5 -75.5 t-98.5 -28.5q-51 0 -81 24z" />
<glyph unicode="j" horiz-adv-x="748" d="M440.5 1157.5q-41.5 40.5 -41.5 97.5q0 73 60 128.5t143 55.5q64 0 103 -35.5t39 -96.5q0 -81 -61 -135.5t-137 -54.5q-64 0 -105.5 40.5zM-207 -414.5q-83 73.5 -83 183.5q0 87 35.5 128t110.5 41q59 0 79 -21.5t20 -62.5q0 -81 10 -112.5t53 -31.5q71 0 113.5 82 t79.5 260q81 410 168 893q8 40 46.5 63.5t93.5 23.5q56 0 85 -26.5t23 -66.5q-93 -511 -169 -887q-60 -290 -166 -415t-274 -125q-142 0 -225 73.5z" />
<glyph unicode="k" horiz-adv-x="1107" d="M98.5 11.5q-31.5 25.5 -23.5 65.5l239 1367q8 50 48.5 77.5t97.5 27.5q49 0 79 -23.5t30 -61.5q0 -12 -2 -20l-117 -631l518 283q39 20 72 21q38 0 61.5 -34.5t19.5 -73.5q0 -35 -17.5 -53.5t-61.5 -43.5l-586 -322l473 -408q23 -18 22 -52q0 -51 -44 -89.5t-94 -38.5 q-43 0 -85 33q-59 50 -231 209l-124 118l-51 -283q-8 -42 -46 -67.5t-92 -25.5t-85.5 25.5z" />
<glyph unicode="l" horiz-adv-x="545" d="M106.5 45.5q-29.5 27.5 -25.5 66.5l237 1416q8 50 50 80t100 30q49 0 81 -27.5t26 -67.5l-242 -1417q-8 -49 -50.5 -78.5t-94.5 -29.5t-81.5 27.5z" />
<glyph unicode="m" horiz-adv-x="1644" d="M1470.5 959.5q78.5 -86.5 78.5 -239.5q0 -73 -25.5 -226t-73.5 -399q-8 -46 -44 -70.5t-88 -24.5q-51 0 -84.5 26t-25.5 65q47 229 72 383.5t25 245.5q0 71 -25 106t-70 35q-75 0 -128.5 -86t-82.5 -238q-27 -130 -77 -436q-16 -97 -134 -97q-56 0 -85.5 24t-23.5 65 q12 95 76 440q15 83 15 138q0 82 -26 130.5t-80 48.5q-56 0 -113 -62t-103 -186q-23 -64 -34 -114t-25 -132l-10 -58l-19 -112l-17 -99q-8 -40 -46 -62.5t-86 -22.5q-47 0 -79.5 23.5t-26.5 59.5q20 128 69 397q55 318 55 331q0 18 -5 30.5t-17 29.5q-4 4 -10.5 11.5 t-9.5 15.5t-1 18q6 46 43.5 77t74.5 31q25 0 42.5 -14.5t36.5 -43.5q14 -19 22.5 -45.5t6.5 -49.5v-10q99 177 281 177q95 0 152 -48.5t79 -130.5q107 185 319 185q149 0 227.5 -86.5z" />
<glyph unicode="n" horiz-adv-x="1172" d="M997 964.5q87 -89.5 87 -252.5q0 -56 -22 -191.5t-51 -301.5l-22 -126q-8 -44 -46.5 -68.5t-94.5 -24.5q-57 0 -88.5 26t-25.5 67l46 267q20 122 35.5 218.5t15.5 130.5q0 77 -26.5 112t-86.5 35q-79 0 -140 -65t-112 -214q-34 -99 -52 -208l-9 -53q-20 -130 -39 -225 q-8 -44 -45 -68.5t-94 -24.5q-59 0 -89.5 25.5t-23.5 67.5l10 61q71 414 99 632q4 29 -1 51.5t-13 42.5t-12 28q-10 16 -11 37q-2 42 47 73.5t92 31.5q44 0 76 -51q16 -25 25.5 -60t7.5 -56l-4 -25q107 199 338 198q142 0 229 -89.5z" />
<glyph unicode="o" horiz-adv-x="1244" d="M199.5 106.5q-139.5 110.5 -139.5 335.5q0 166 79.5 311t223.5 232t326 87q229 0 367 -127.5t138 -358.5q0 -166 -77 -300t-217 -212t-327 -78q-234 0 -373.5 110.5zM841.5 304q97.5 112 97.5 282q0 132 -65 209.5t-185 77.5q-110 0 -196 -62.5t-132.5 -161.5t-46.5 -207 q0 -130 72 -190t187 -60q171 0 268.5 112z" />
<glyph unicode="p" horiz-adv-x="1294" d="M1000.5 1004.5q104.5 -57.5 163 -161t58.5 -237.5q0 -174 -77 -314t-217 -220t-318 -80q-99 0 -186 24.5t-120 47.5l-85 -430q-8 -43 -48.5 -70.5t-95.5 -27.5q-50 0 -80 22t-30 59q0 10 4 27q49 210 110 528l26 134q6 37 42.5 227.5t36.5 236.5q0 51 -24 91 q-2 2 -13 14.5t-11 28.5q0 43 56 86.5t106 43.5q27 0 45 -18q38 -37 60 -108q56 64 147 109t216 45q130 0 234.5 -57.5zM802.5 246q80.5 56 123 151t42.5 209q0 116 -61 184t-165 68q-82 0 -153.5 -35t-116 -83.5t-50.5 -86.5l-41 -223l-30 -151q5 -16 45 -37t98 -36.5 t116 -15.5q112 0 192.5 56z" />
<glyph unicode="q" horiz-adv-x="1331" d="M1290.5 991q31.5 -27 31.5 -64q0 -18 -8.5 -36t-28.5 -41l-95 -124q-60 -277 -126 -637l-89 -484q-8 -41 -47.5 -68t-98.5 -27q-55 0 -84 25t-23 64q44 221 54 294l35 182q-114 -85 -265 -85q-130 0 -236.5 53.5t-169.5 156t-63 242.5q0 164 79 306t218 226.5t309 84.5 q138 0 236.5 -54t132.5 -134q13 20 61 80q29 36 51 51.5t50 15.5q45 0 76.5 -27zM931 662q0 49 -32 96t-88 75t-126 28q-101 0 -182 -61.5t-125.5 -157.5t-44.5 -200q0 -122 65.5 -187t176.5 -65q93 0 174.5 37.5t111.5 78.5l68 337z" />
<glyph unicode="r" horiz-adv-x="1064" d="M951.5 998.5q76.5 -71.5 76.5 -204.5q0 -136 -97.5 -215.5t-247.5 -79.5q-58 0 -78.5 15t-20.5 51q0 43 20 65.5t67 31.5q68 10 108 40t40 92q0 39 -19.5 61t-59.5 22q-63 0 -128.5 -66.5t-113.5 -156t-68 -162.5q-31 -110 -72 -334q-19 -103 -51 -139.5t-100 -36.5 q-60 0 -86 21.5t-26 65.5q0 18 17.5 126.5t39.5 211.5l6 41q20 115 29.5 203.5t27.5 293.5l4 50q2 45 40.5 73t96.5 28q98 0 90 -91q-10 -101 -20 -170q58 105 142.5 170t183.5 65q123 0 199.5 -71.5z" />
<glyph unicode="s" horiz-adv-x="1029" d="M269 25.5q-91 41.5 -146.5 104t-64.5 125.5q-2 23 0 37q14 37 52 61t85 24q25 0 37 -11.5t35 -45.5q95 -132 217 -132q66 0 109.5 32t43.5 86q0 43 -42.5 73.5t-132.5 68.5q-91 38 -150.5 73.5t-101.5 93.5t-42 145q0 96 54.5 170.5t150 114t213.5 39.5 q112 0 196.5 -38.5t129.5 -104.5t45 -147q0 -64 -30.5 -93.5t-103.5 -29.5q-93 0 -89 75q4 64 -27.5 98.5t-112.5 34.5q-85 0 -127.5 -34t-42.5 -85q0 -48 43.5 -78.5t138.5 -71.5q89 -37 148 -71t100.5 -92t41.5 -143q0 -105 -60 -177.5t-157.5 -107.5t-208.5 -35 q-110 0 -201 41.5z" />
<glyph unicode="t" horiz-adv-x="916" d="M807 314q0 -85 -36.5 -157t-103.5 -115.5t-158 -43.5q-128 0 -211 85t-83 244q0 162 64 439l-76 4q-85 4 -85 74q0 58 31 89t91 31q28 0 89 -4q62 217 103 337q14 41 49.5 65t89.5 24q49 0 80.5 -24t31.5 -59q0 -12 -6 -28q-56 -168 -102 -328q37 -2 114 -2 q47 -2 67 -17.5t20 -48.5q0 -62 -31 -90.5t-100 -28.5h-120q-71 -286 -69 -446q0 -118 59 -117q75 0 83 101q12 89 114 89q95 0 95 -73z" />
<glyph unicode="u" horiz-adv-x="1166" d="M945 219q-2 -31 7.5 -56t11.5 -29q14 -25 15 -43q0 -29 -39.5 -62t-76.5 -33q-48 0 -91.5 44.5t-41.5 105.5v2q-112 -151 -318 -150q-148 0 -225 88t-77 243q0 50 22 186t38 225t22 127l17 86q8 40 47.5 65.5t90.5 25.5q54 0 87.5 -25.5t25.5 -65.5l-32 -177 q-63 -342 -64 -418q0 -164 116 -163q101 0 165 93t99 293q30 151 67 370q8 50 47.5 76.5t94.5 26.5q56 0 87.5 -29.5t25.5 -73.5l-113 -651z" />
<glyph unicode="v" horiz-adv-x="1112" d="M313.5 121q-75.5 117 -112.5 329q-18 99 -28.5 211.5t-10.5 192.5q0 95 32.5 141.5t117.5 46.5q69 0 88.5 -26.5t19.5 -95.5v-78q0 -155 14 -285q14 -113 36 -199.5t37 -86.5q18 0 78 94.5t110 195.5q73 155 103.5 232.5t53.5 159.5q30 99 145 99q49 0 77.5 -23.5 t28.5 -66.5q0 -62 -64 -214t-143 -295q-124 -229 -219.5 -339t-190.5 -110q-97 0 -172.5 117z" />
<glyph unicode="w" horiz-adv-x="1596" d="M249.5 199.5q-52.5 197.5 -52.5 453.5q0 197 16 292q12 75 49.5 104t95.5 29q116 0 110 -95l-8 -97q-15 -149 -16 -239q0 -124 13 -240.5t33 -116.5q10 0 38.5 57.5t83.5 187.5l106 239q29 63 64 94.5t85 31.5q49 0 75 -30.5t35 -95.5l12 -97q20 -184 38.5 -284.5 t42.5 -100.5q14 0 38.5 57.5t66.5 181.5q53 160 78.5 246t51.5 202q23 99 141 99q105 0 105 -89q0 -81 -65 -282.5t-127 -344.5q-157 -360 -325 -360q-105 0 -161 151t-60 428q-89 -284 -181 -431.5t-198 -147.5q-132 0 -184.5 197.5z" />
<glyph unicode="x" horiz-adv-x="1074" d="M989 922l-93 -109q-10 -10 -219 -254l239 -411q10 -18 11 -34q0 -49 -49 -88.5t-98 -39.5q-44 0 -64 37l-207 343l-288 -335q-18 -23 -45.5 -34t-53.5 -11q-45 0 -75.5 29.5t-30.5 69.5q0 29 19 49l364 418l-213 362q-4 8 -5 16.5t1 16.5q0 42 51 80.5t98 38.5 q44 0 60 -30l176 -294l254 292q25 32 65 32q45 0 80 -33.5t35 -72.5q0 -22 -12 -38z" />
<glyph unicode="y" horiz-adv-x="1105" d="M204.5 -514q-30.5 28 -28.5 70q0 31 16 59q51 85 131 234t105 194l44 83q-85 79 -155.5 216.5t-111.5 293.5t-41 286q0 20 2 35q4 44 42 70.5t94 26.5q49 0 66 -19t19 -58q12 -245 66 -410.5t120 -241.5q76 162 234 521l60 139q16 41 42 57.5t72 16.5q59 0 91.5 -26 t28.5 -69q0 -13 -7 -23q-180 -420 -356 -775q-246 -497 -328 -632q-23 -37 -49 -56.5t-71 -19.5q-55 0 -85.5 28z" />
<glyph unicode="z" horiz-adv-x="1161" d="M784 -4q-137 12 -247 12q-99 0 -251 -8q-83 -6 -134 -6q-154 0 -154 83q0 31 16.5 55t43.5 48l219 195q374 333 538 467q-23 0 -47 -2.5t-46 -4.5q-140 -10 -182 -10q-63 0 -132 6t-108 15q-43 10 -63 30t-20 53q0 50 31 90t85 33q217 -25 348 -24q87 0 223 12 q107 8 144 8q75 0 102 -16t27 -51q0 -77 -79 -146l-356 -302q-203 -171 -382 -330l74 2q174 6 193 6q62 0 141.5 -5t133.5 -14q64 -10 64 -74q0 -53 -35 -92.5t-98 -33.5z" />
<glyph unicode="{" horiz-adv-x="876" d="M257.5 -291q-85.5 96 -85.5 250q0 37 7 88.5t18 104.5q10 57 18 120t8 113q0 89 -35 107q-31 18 -47.5 45.5t-16.5 58.5q0 45 31 83.5t78 54.5q21 6 58.5 129.5t70.5 315.5q20 122 85.5 219.5t160.5 152t203 54.5q140 0 140 -89q0 -77 -49.5 -106.5t-107.5 -29.5 q-71 0 -112 -25t-66.5 -84t-46.5 -173q-40 -231 -84.5 -334.5t-124.5 -147.5q43 -43 62.5 -94.5t19.5 -136.5q0 -69 -26 -239q-18 -116 -19 -158q0 -79 34.5 -115.5t105.5 -36.5q42 0 68 -26.5t26 -64.5q0 -47 -43.5 -89.5t-97.5 -42.5q-147 0 -232.5 96z" />
<glyph unicode="|" horiz-adv-x="614" d="M108.5 -172q-25.5 18 -19.5 50q25 130 140 753l40 211q105 577 167 943q6 25 38.5 42.5t71.5 17.5q38 0 65.5 -16.5t23.5 -38.5l-171 -944q-105 -580 -180 -968q-6 -32 -35.5 -50t-72.5 -18q-42 0 -67.5 18z" />
<glyph unicode="}" horiz-adv-x="876" d="M2 -363q-27 24 -27 59q0 45 39.5 84.5t92.5 39.5q188 0 238 279q30 164 60.5 261.5t71 154t102.5 101.5q-40 25 -57 68.5t-17 118.5q0 67 26 254q20 145 21 176q0 87 -36 125t-117 38q-45 0 -81 18.5t-36 68.5q0 76 45.5 99t130.5 23q140 0 224 -91t84 -239 q0 -67 -24 -207q-29 -174 -28 -265q0 -62 14 -69q34 -12 52.5 -38.5t18.5 -60.5q0 -39 -30.5 -78.5t-79.5 -64.5q-44 -23 -76 -121t-71 -315q-20 -125 -87.5 -226t-167 -159t-212.5 -58q-46 0 -73 24z" />
<glyph unicode="~" d="M561 569q-64 20 -94.5 27.5t-67.5 7.5q-35 0 -89 -16q-8 -2 -43.5 -14.5t-63.5 -12.5q-25 0 -45 22.5t-20 53.5q0 32 30 64q37 39 122 66t170 27q80 0 200 -48q70 -27 128 -26q41 0 93 22q8 4 38 18t52 14q35 0 60.5 -28t25.5 -63q0 -30 -12.5 -44.5t-45.5 -36.5 q-44 -31 -108 -51t-119 -20q-99 0 -211 38z" />
<glyph unicode="&#xa1;" horiz-adv-x="564" d="M225.5 772.5q-39.5 38.5 -39.5 94.5q0 74 60 133t135 59q57 0 97.5 -41t40.5 -100q0 -45 -28.5 -87.5t-75 -69.5t-93.5 -27q-57 0 -96.5 38.5zM68 -385.5q-21 19.5 -21 54.5q0 16 2 25l162 856q10 48 39 74.5t68 26.5q36 0 55.5 -24.5t19.5 -61.5q0 -15 -2 -21l-158 -846 q-10 -47 -38.5 -75t-70.5 -28q-35 0 -56 19.5z" />
<glyph unicode="&#xa2;" horiz-adv-x="1230" d="M1105.5 490.5q27.5 -16.5 27.5 -60.5q0 -120 -73 -216t-196.5 -152t-267.5 -62l-25 -136q-2 -26 -23 -40t-47 -14q-67 0 -61 52l28 146q-170 29 -275.5 146t-105.5 276q0 168 73 308.5t205 226t295 97.5l25 142q4 25 26.5 37t48.5 12q25 0 42 -12t13 -37l-27 -147 q151 -27 260.5 -117t109.5 -204q0 -51 -38 -77t-96 -26q-39 0 -61 21t-34 60q-6 33 -34 68t-75.5 60t-105.5 25q-101 0 -188.5 -63.5t-137 -165t-49.5 -208.5t63.5 -170t185.5 -63q93 0 165 35t112.5 90t40.5 108q0 30 35.5 53.5t84.5 23.5q52 0 79.5 -16.5z" />
<glyph unicode="&#xa3;" horiz-adv-x="1267" d="M1078.5 1357q107.5 -91 107.5 -238q0 -33 -3 -51q-6 -105 -113 -106q-48 0 -65.5 21.5t-15.5 62.5v52q0 81 -56 125.5t-132 44.5q-112 0 -183.5 -69.5t-71.5 -178.5q0 -64 11.5 -121t34.5 -139l12 -51l231 -2q64 -2 91 -14t21 -56q-8 -41 -40 -55.5t-96 -14.5l-182 2 q2 -12 2 -40q0 -77 -25 -144t-71 -139q156 -74 249 -74q47 0 82.5 20.5t82.5 70.5q26 27 45.5 40t41.5 13q30 0 56.5 -23.5t26.5 -52.5q0 -23 -18 -48q-58 -83 -150.5 -137.5t-202.5 -54.5q-80 0 -132.5 15.5t-112.5 44.5q-39 18 -63 26.5t-53 8.5q-40 0 -76 -16.5 t-90 -53.5q-43 -33 -81 -33q-37 0 -62.5 30t-25.5 57q0 20 7.5 32.5t29.5 36.5q31 34 104.5 70.5t151.5 52.5q40 47 62.5 127t22.5 131q0 28 -2 40l-130 2q-97 0 -97 60q0 50 31 66.5t93 16.5h80l-30 99q-26 73 -37 116.5t-11 90.5q0 126 64.5 223t173 151t231.5 54 q175 0 282.5 -91z" />
<glyph unicode="&#xa4;" horiz-adv-x="1745" d="M1218 99l-60 79q-171 -91 -343 -91q-91 0 -184.5 24.5t-160.5 70.5l-89 -81q-67 -58 -106 -58q-42 0 -78.5 33.5t-36.5 75.5q0 16 8 30.5t24 34.5l124 116q-41 64 -64 144t-23 158q0 131 58 260t161 232l-65 83q-25 33 -25 58q0 47 46 87.5t103 40.5q33 0 53.5 -15 t41.5 -45l51 -63q87 47 170 70t176 23q97 0 195.5 -26.5t164.5 -69.5l72 66q36 32 59.5 47t52.5 15q42 0 77.5 -35t35.5 -80q0 -21 -10 -40t-43 -45l-91 -83q37 -60 57 -138.5t20 -157.5q0 -269 -228 -490q73 -93 80 -108q18 -20 19 -45q0 -48 -48 -90.5t-99 -42.5 q-47 0 -95 56zM1080 366q114 76 182 198.5t68 254.5q0 101 -43.5 180t-121 123.5t-176.5 44.5q-128 0 -243 -72.5t-184.5 -191.5t-69.5 -252q0 -103 43.5 -184.5t122 -129t177.5 -47.5q131 0 245 76z" />
<glyph unicode="&#xa5;" horiz-adv-x="1354" d="M996.5 782.5q-67.5 -56.5 -117.5 -81.5l217 2q23 0 33 -13t10 -37q0 -35 -18 -60.5t-47 -25.5l-257 -4l-16 -113l256 6q48 0 48 -51q0 -37 -18.5 -61t-50.5 -24l-258 -4l-32 -188q-10 -57 -48 -90.5t-100 -33.5q-52 0 -81 25t-29 66q0 18 2 27l33 192l-248 -4 q-46 0 -46 52q0 35 18 58.5t51 23.5l248 4l19 113l-255 -4q-23 0 -34 13.5t-11 35.5q0 35 18.5 61t51.5 26l226 2q-38 27 -87.5 94t-80.5 138q-97 209 -132 384q-2 8 -2 25q0 54 51.5 84t117.5 30q44 0 68.5 -22.5t38.5 -73.5q48 -189 100 -316q71 -163 109 -163 q26 0 74.5 49t97.5 116q54 71 110 157t66 102l41 65q8 10 25 34.5t35.5 36t47.5 11.5q60 0 103.5 -35t43.5 -81q0 -25 -16 -51q-36 -71 -113.5 -181.5t-137.5 -187.5q-57 -71 -124.5 -127.5z" />
<glyph unicode="&#xa6;" horiz-adv-x="626" d="M318.5 904q-22.5 18 -18.5 51l132 820q4 31 36.5 50.5t75.5 19.5q44 0 65.5 -18.5t17.5 -51.5l-133 -820q-4 -33 -34 -51t-75 -18q-44 0 -66.5 18zM100.5 -244q-23.5 19 -15.5 54l155 821q8 38 37 57t74 19q48 0 68.5 -19t14.5 -57l-152 -821q-14 -73 -112 -73 q-46 0 -69.5 19z" />
<glyph unicode="&#xa7;" horiz-adv-x="1387" d="M1086 1535q97 -37 156 -105.5t59 -156.5q0 -30 -6 -65q-16 -95 -118 -95q-44 0 -71.5 17.5t-21.5 48.5t6 56q0 91 -57.5 130.5t-151.5 39.5q-129 0 -216.5 -69.5t-87.5 -172.5q0 -75 62 -124.5t203 -91.5q186 -51 279 -145.5t93 -205.5q0 -97 -58 -180t-153 -137 q57 -83 59 -190q0 -203 -138 -314.5t-357 -111.5q-127 0 -231.5 47.5t-163 132t-58.5 192.5q0 26 8 83q6 38 39.5 59.5t82.5 21.5q42 0 65.5 -17.5t23.5 -51.5q0 -16 -2 -31.5t-2 -31.5q0 -101 62 -169t176 -68q126 0 210 73.5t84 189.5q0 55 -30 91.5t-83 61.5t-160 60 q-373 128 -373 363q0 99 56 187.5t149 154.5q-41 73 -41 156q0 114 64 207t178.5 145.5t259.5 52.5q108 0 205 -37zM527 894q-47 -42 -78 -105t-31 -118q0 -73 58.5 -119.5t200.5 -85.5q122 -34 206 -85q55 35 94 95.5t39 115.5q0 67 -66.5 110.5t-213.5 87.5 q-124 37 -209 104z" />
<glyph unicode="&#xa8;" horiz-adv-x="777" d="M158.5 1204q-36.5 35 -36.5 87q0 68 52.5 118.5t121.5 50.5q51 0 88.5 -35t37.5 -85q0 -66 -55 -118.5t-121 -52.5q-51 0 -87.5 35zM704.5 1204q-35.5 35 -35.5 87q0 68 52.5 118.5t120.5 50.5q54 0 89 -34t35 -86q0 -66 -54 -118.5t-120 -52.5q-52 0 -87.5 35z" />
<glyph unicode="&#xa9;" horiz-adv-x="1871" d="M1438 1373.5q145 -78.5 223 -214t78 -301.5q0 -231 -110.5 -429t-302 -313.5t-424.5 -115.5q-195 0 -351 86t-244 231t-88 314q0 232 119.5 420t323 294.5t445.5 106.5q186 0 331 -78.5zM1246 251.5q150 91.5 232.5 252t82.5 357.5q0 203 -113.5 320.5t-346.5 117.5 q-188 0 -350.5 -91t-259 -244t-96.5 -331q0 -136 62 -243.5t176.5 -168.5t268.5 -61q194 0 344 91.5zM1356 1134.5q22 -15.5 16 -42.5q-21 -122 -46 -163t-77 -43q-35 0 -51 24q-38 58 -66.5 82t-79.5 24q-78 0 -147.5 -59t-109.5 -152t-40 -187q0 -178 200 -178 q87 0 143 44.5t69 119.5q4 27 30.5 44.5t66.5 17.5q37 0 56.5 -17.5t13.5 -44.5q-25 -134 -128 -217t-265 -83q-165 0 -270.5 82t-105.5 228q0 134 67 258.5t177.5 202t232.5 77.5q112 0 189 -70v6q14 61 66 62q37 0 59 -15.5z" />
<glyph unicode="&#xaa;" horiz-adv-x="740" d="M732 1303q-33 -162 -33 -202q0 -12 5 -16.5t20 -10.5q4 -2 10 -6t9 -10t3 -16q0 -70 -65 -69q-62 0 -89 38l-8 17q-30 -33 -63 -47.5t-83 -14.5q-103 0 -159 56t-56 153q0 86 40.5 162t108.5 121.5t147 45.5q87 0 126 -50l4 15q4 12 20 21.5t40 9.5q58 0 59 -42 q0 -10 -2 -17q-20 -59 -34 -138zM531 1109.5q34 25.5 42 65.5q4 18 10.5 48t8.5 54q2 10 2 30q0 81 -77 81q-75 0 -111.5 -68.5t-36.5 -142.5q0 -93 79 -93q49 0 83 25.5z" />
<glyph unicode="&#xab;" horiz-adv-x="1234" d="M403.5 452q-95.5 57 -164.5 139t-69 147q0 73 101.5 166t234.5 160t212 67q33 0 54.5 -18.5t21.5 -46.5q0 -40 -28 -65.5t-79 -47.5q-56 -18 -137.5 -62.5t-144 -87.5t-62.5 -59q0 -12 45.5 -50.5t104.5 -74t103 -48.5q33 -8 50.5 -31t17.5 -52q0 -42 -30 -67.5 t-69 -25.5q-66 0 -161.5 57zM827 442q-95 59 -164 140.5t-69 147.5q0 69 102.5 162t237 161t207.5 68q30 0 47.5 -18.5t17.5 -48.5q0 -86 -89 -111q-67 -16 -147 -60t-138 -88.5t-58 -60.5q0 -14 43.5 -50.5t103.5 -72.5t105 -50q64 -28 64 -79q0 -42 -31 -70.5t-70 -28.5 q-67 0 -162 59z" />
<glyph unicode="&#xac;" horiz-adv-x="1608" d="M1268 426q0 25 2 38q10 59 31 158q23 118 31 170l-455 2l-571 -2q-112 0 -111 81q0 59 36 94.5t104 35.5l592 2h512q58 0 88 -28t24 -73l-76 -442q-11 -50 -43 -78t-86 -28q-78 0 -78 70z" />
<glyph unicode="&#xad;" horiz-adv-x="787" d="M115.5 487.5q-20.5 23.5 -20.5 60.5q0 58 34.5 91.5t75.5 35.5q149 6 424 6q46 0 69.5 -22t23.5 -61q0 -52 -39.5 -88t-94.5 -36q-52 0 -205 -4q-114 -6 -211 -6q-36 0 -56.5 23.5z" />
<glyph unicode="&#xae;" horiz-adv-x="1871" d="M1449 1389q142 -80 216 -218.5t74 -307.5q0 -234 -115.5 -432t-313 -314.5t-431.5 -116.5q-197 0 -346.5 81t-231.5 220t-82 309q0 229 124.5 427t331 315t440.5 117q192 0 334 -80zM1240 246.5q156 94.5 246.5 254t90.5 341.5q0 135 -56.5 242.5t-165 170.5t-261.5 63 q-186 0 -346 -94.5t-255.5 -251.5t-95.5 -337q0 -136 61 -246t174.5 -173.5t265.5 -63.5q186 0 342 94.5zM1295 1085q77 -59 77 -163q0 -101 -55.5 -167t-141 -98.5t-176.5 -32.5h-39l271 -200q16 -10 16 -35q0 -31 -34 -63t-65 -32q-27 0 -47 16l-259 232q-4 -16 -9 -45 q-14 -64 -26 -141q-4 -28 -29.5 -47t-63.5 -19q-41 0 -58 19.5t-13 52.5q6 45 15 74q2 14 6.5 35t8.5 52q29 154 36 201l29 203q-16 8 -23.5 28t-5.5 42q0 20 10.5 33.5t38.5 26.5l2 21q6 35 38.5 51.5t70.5 16.5q45 0 62 -27q89 25 167 25q120 0 197 -59zM1157.5 793 q52.5 38 52.5 109q0 49 -41.5 76t-109.5 27q-61 0 -141 -22l-12 -71q-6 -31 -23 -140q14 -8 56 -12.5t79 -4.5q87 0 139.5 38z" />
<glyph unicode="&#xaf;" horiz-adv-x="857" d="M390 1231q-24 -2 -45 -2q-49 0 -107 20q-51 24 -52 75q0 50 35.5 82.5t80.5 30.5q14 -2 57.5 -8t96.5 -6q41 0 136 8q103 8 163 8q46 0 133 -8q31 -4 53.5 -26.5t22.5 -56.5q0 -31 -21 -59t-49.5 -41t-51.5 -7q-43 8 -108 8q-59 0 -150 -8q-87 -8 -140 -8q-30 0 -54 -2z " />
<glyph unicode="&#xb0;" horiz-adv-x="825" d="M322.5 1223.5q-74.5 65.5 -74.5 172.5q0 101 54 187.5t143.5 136t193.5 49.5q127 0 203 -71.5t76 -177.5q0 -95 -54.5 -179t-145.5 -133.5t-193 -49.5q-128 0 -202.5 65.5zM689.5 1361q56.5 52 56.5 135q0 51 -33.5 85t-106.5 34q-79 0 -133.5 -58.5t-54.5 -135.5 q0 -53 36 -82.5t96 -29.5q83 0 139.5 52z" />
<glyph unicode="&#xb1;" d="M1048 786q0 -54 -34.5 -84.5t-99.5 -30.5q-124 0 -209 2l-30 -181q-8 -48 -39.5 -75.5t-83.5 -27.5q-43 0 -62.5 16.5t-19.5 54.5q0 16 2 24q4 29 8 45l23 144q-93 2 -232 2q-44 0 -65.5 19.5t-21.5 51.5q0 56 32 89.5t94 33.5l225 -2l32 181q8 44 38 70t82 26 q47 0 67 -26t16 -68q-2 -23 -7 -51t-13 -68l-12 -68q83 -2 207 -2q103 0 103 -75zM914.5 260q28.5 -22 28.5 -59q0 -54 -40 -83t-113 -31l-585 -6q-49 0 -74.5 18.5t-25.5 54.5q0 59 36.5 90t104.5 31l585 7q55 0 83.5 -22z" />
<glyph unicode="&#xb2;" horiz-adv-x="825" d="M801.5 914.5q23.5 -20.5 23.5 -54.5q0 -43 -32 -73t-82 -30l-83 2q-72 6 -173 6q-52 0 -139 -4l-103 -2q-41 0 -67 20t-24 50q13 95 127.5 212t273.5 216q87 52 130.5 114t43.5 129q0 45 -26.5 71t-72.5 26q-45 0 -86.5 -39.5t-54.5 -99.5q-8 -41 -38 -60t-85 -19 q-89 0 -90 73q0 85 52 158t136.5 117.5t177.5 44.5q87 0 159.5 -34.5t114.5 -95t42 -134.5q0 -118 -76 -213t-226 -184q-153 -95 -217 -172h77l248 -4q46 0 69.5 -20.5z" />
<glyph unicode="&#xb3;" horiz-adv-x="912" d="M952 1079q0 -94 -54 -169t-146 -116.5t-206 -41.5q-176 0 -276 69t-100 195q0 33 6 70q18 101 122 102q54 0 71.5 -22t15.5 -68v-50q0 -55 36 -87t127 -32q68 0 128 32t60 110q0 89 -134 91q-75 0 -75 60q0 112 101 112q77 2 121.5 50.5t44.5 119.5q0 45 -30 69t-73 24 q-71 0 -114.5 -43.5t-40.5 -112.5q0 -29 -32 -52.5t-93 -23.5q-97 0 -97 89q0 85 56 158t145 116.5t184 43.5q85 0 157 -34.5t114.5 -94t42.5 -125.5q0 -87 -46.5 -159.5t-122.5 -111.5q108 -49 108 -168z" />
<glyph unicode="&#xb4;" horiz-adv-x="777" d="M349 1181q-20 21 -20 54q0 50 42 91l219 219q33 34 60 47t57 13q37 0 59 -23t22 -58q0 -55 -68 -121l-217 -195q-31 -27 -53 -37.5t-49 -10.5q-32 0 -52 21z" />
<glyph unicode="&#xb6;" horiz-adv-x="1304" d="M544 -10l97 575q-188 6 -306 111.5t-118 276.5q0 180 101.5 315t273.5 206t376 71q144 0 180 -4q119 -10 103 -87l-250 -1427q-8 -49 -28 -69t-67 -20q-81 0 -77 50l235 1364q2 6 2 16q0 12 -10 15t-38 3q-39 0 -53 -5t-18 -29l-235 -1348q-4 -31 -29 -48.5t-69 -17.5 q-70 0 -70 52z" />
<glyph unicode="&#xb7;" horiz-adv-x="900" d="M344.5 575.5q-44.5 42.5 -44.5 113.5q0 99 62 159t163 60q71 0 114.5 -42.5t43.5 -113.5q0 -97 -61 -158t-160 -61q-73 0 -117.5 42.5z" />
<glyph unicode="&#xb8;" horiz-adv-x="777" d="M60.5 -461.5q-44.5 8.5 -72.5 23.5q-52 20 -52 57q0 36 24 60.5t60 24.5q10 0 57 -12q6 -2 36.5 -10.5t58.5 -8.5q107 0 107 54q0 24 -27 36t-86 22q-69 12 -69 67q0 12 13 41l157 192q18 25 33.5 37t34.5 12q38 0 64.5 -17.5t26.5 -45.5q0 -14 -5 -26t-20 -29l-111 -132 q57 -14 101.5 -49.5t44.5 -97.5q0 -95 -82.5 -151t-207.5 -56q-41 0 -85.5 8.5z" />
<glyph unicode="&#xb9;" horiz-adv-x="649" d="M660.5 1730q32.5 -30 24.5 -74l-141 -804q-6 -39 -42 -63t-89 -24q-41 0 -63 20t-22 48q0 12 2 19l117 650q-58 -67 -95 -102q-34 -34 -77 -33q-31 0 -55 24t-18 59q4 29 59 87l184 188q16 16 53.5 25.5t76.5 9.5q53 0 85.5 -30z" />
<glyph unicode="&#xba;" horiz-adv-x="750" d="M302 1023q-75 57 -75 177q0 124 83 208t219 84q112 0 184.5 -70t72.5 -169q0 -136 -81 -211.5t-225 -75.5q-103 0 -178 57zM597.5 1123.5q45.5 45.5 45.5 129.5q0 56 -29.5 91.5t-84.5 35.5q-75 0 -120 -53.5t-45 -126.5q0 -54 33 -88t83 -34q72 0 117.5 45.5z" />
<glyph unicode="&#xbb;" horiz-adv-x="1236" d="M139 411.5q-19 18.5 -19 48.5q0 84 91 111q67 16 149 61t142.5 89.5t60.5 60.5q0 14 -43.5 50.5t-104.5 72.5t-111 50q-31 9 -48.5 29.5t-17.5 45.5q0 42 31 71.5t70 29.5q64 0 160.5 -58.5t166.5 -140.5t70 -146q0 -67 -103.5 -161t-236.5 -163t-208 -69q-30 0 -49 18.5 zM558 401.5q-21 18.5 -21 48.5q0 42 30.5 71t75.5 40q54 10 134.5 55.5t144 95.5t63.5 64q0 12 -43.5 48.5t-103.5 71.5t-104 47q-33 10 -50.5 32t-17.5 51q0 40 29 66.5t69 26.5q68 0 163 -57t164 -138.5t69 -147.5q0 -69 -84.5 -151.5t-213 -151t-250.5 -90.5 q-33 0 -54 18.5z" />
<glyph unicode="&#xbc;" horiz-adv-x="1846" d="M322 1229q-39 -35 -78 -35q-27 0 -49.5 20.5t-22.5 51.5q0 20 17.5 47t39.5 51q28 31 53 51q136 142 132 138q16 17 54.5 25.5t77.5 8.5q52 0 84 -30.5t23 -71.5l-140 -804q-6 -40 -42.5 -64.5t-87.5 -24.5q-42 0 -63.5 19.5t-21.5 48.5q0 14 2 21l116 649 q-69 -76 -94 -101zM1496 1419l-1054 -1378q-18 -23 -45.5 -35t-57.5 -12q-41 0 -69 21.5t-22 61.5q7 31 38 69l1052 1382q44 56 112 57q38 0 61.5 -19t23.5 -52q0 -10 -2 -16q-8 -38 -37 -79zM1741.5 412.5q18.5 -17.5 18.5 -50.5q0 -52 -24.5 -79.5t-74.5 -36.5l-50 -6 l-34 -163q-6 -36 -43.5 -61.5t-87.5 -25.5q-41 0 -64 20.5t-23 53.5q0 14 2 21l31 144h-147q-78 0 -153.5 9.5t-112.5 18.5q-73 18 -73 70q0 30 27 68q166 238 270 375.5t204 224.5q14 12 26.5 17.5t35.5 5.5q35 0 62.5 -22.5t27.5 -52.5q0 -23 -12 -45.5t-45 -55.5 q-87 -82 -180 -207.5t-132 -196.5q-8 -12 -9 -16q0 -8 27 -15q27 -4 81 -4h83q39 0 59 2l57 253q8 37 37.5 62.5t81.5 25.5q45 0 70.5 -20.5t25.5 -52.5q0 -14 -3 -22l-50 -229l42 4q31 4 49.5 -13.5z" />
<glyph unicode="&#xbd;" horiz-adv-x="1889" d="M1496 1419l-1056 -1378q-16 -23 -43.5 -35t-59.5 -12q-41 0 -69 21.5t-20 61.5q4 29 36 69l1052 1382q20 27 51.5 42t62.5 15q36 0 59.5 -18t23.5 -49q0 -14 -2 -20q-8 -42 -35 -79zM320 1224q-35 -35 -76 -34q-31 0 -54.5 24.5t-17.5 58.5q6 35 57 86q28 32 53 52 q136 142 132 138q16 17 53.5 25.5t76.5 8.5q54 0 86 -30.5t23 -71.5l-140 -804q-6 -40 -43.5 -64.5t-86.5 -24.5q-42 0 -63.5 19.5t-21.5 50.5q0 12 2 19l116 649q-67 -75 -96 -102zM1733.5 155q22.5 -21 22.5 -54q0 -43 -32 -73t-82 -30l-81 2q-72 6 -175 6q-52 0 -139 -4 l-103 -2q-41 0 -67.5 19.5t-24.5 51.5q13 95 128 211.5t274 216.5q87 51 130.5 113.5t43.5 127.5q0 46 -26.5 71.5t-73.5 25.5q-45 0 -86.5 -38.5t-51.5 -99.5q-8 -41 -39 -60t-87 -19q-89 0 -89 73q0 85 52 158t136.5 118t177.5 45q87 0 159.5 -35.5t114.5 -95.5t42 -135 q0 -118 -76 -213t-226 -184q-153 -94 -217 -171h79l248 -4q46 0 68.5 -21z" />
<glyph unicode="&#xbe;" horiz-adv-x="2082" d="M1762 1419l-1053 -1378q-18 -23 -46 -35t-57 -12q-41 0 -69 21.5t-22 61.5q8 35 37 69l1053 1382q43 56 112 57q39 0 64 -23t19 -64q-12 -48 -38 -79zM864.5 719.5q-53.5 -74.5 -145.5 -115.5t-206 -41q-176 0 -276.5 68t-100.5 194q0 33 6 71q19 101 123 101 q53 0 71 -22t15 -67v-50q0 -55 36.5 -87.5t127.5 -32.5q69 0 128.5 32.5t59.5 110.5q0 89 -134 92q-75 0 -75 59q0 112 102 112q77 2 121.5 50.5t44.5 118.5q0 45 -30.5 69.5t-73.5 24.5q-71 0 -114 -43.5t-41 -112.5q0 -29 -32.5 -52.5t-91.5 -23.5q-97 0 -97 89 q0 84 55.5 158t144.5 117.5t184 43.5q84 0 157 -35.5t115.5 -94.5t42.5 -125q0 -87 -46.5 -159.5t-123.5 -111.5q107 -49 107 -167q0 -96 -53.5 -170.5zM1975 402.5q19 -17.5 19 -51.5q0 -51 -25 -79t-74 -37l-50 -6l-35 -162q-6 -36 -43.5 -61.5t-86.5 -25.5 q-42 0 -64.5 20t-22.5 54q0 14 2 21l31 144h-147q-79 0 -154.5 9.5t-112.5 17.5q-73 19 -73 70q0 29 28 69q165 238 269.5 375.5t203.5 224.5q14 12 27 17t36 5q35 0 63 -22.5t28 -51.5q0 -23 -12.5 -45.5t-46.5 -56.5q-87 -83 -180 -207.5t-132 -195.5q-8 -12 -8 -16 q0 -8 26 -15q28 -4 81 -4h83q39 0 60 2l56 252q8 38 38.5 63.5t81.5 25.5q46 0 70.5 -20.5t24.5 -53.5q0 -15 -2 -21l-49 -229l41 4q30 4 49 -13.5z" />
<glyph unicode="&#xbf;" horiz-adv-x="1121" d="M550.5 966q-33.5 33 -33.5 80q0 64 49.5 113t112.5 49q51 0 85.5 -32t34.5 -82q0 -62 -52 -111.5t-116 -49.5q-47 0 -80.5 33zM250.5 -213.5q-88.5 45.5 -139.5 125.5t-51 179t40 181t96 141t147 137q87 77 128.5 124.5t41.5 99.5q0 43 31 68t74 25q35 0 56 -21t21 -56 q0 -87 -57 -161.5t-174 -188.5q-107 -99 -163.5 -171t-56.5 -151q0 -91 55 -144t154 -53q141 0 223 63t82 178q0 41 -23 69t-60 28q-40 0 -61.5 18.5t-21.5 53.5q0 50 33 78.5t80 28.5q67 0 120.5 -39t83.5 -103.5t30 -133.5q0 -129 -62 -224.5t-172.5 -146t-251.5 -50.5 q-114 0 -202.5 45.5z" />
<glyph unicode="&#xc0;" horiz-adv-x="1437" d="M1279 371.5q-24 -40.5 -65 -40.5h-12q20 -163 27 -213q2 -8 2 -19q0 -54 -41.5 -88t-101.5 -34q-46 0 -80.5 19.5t-39.5 55.5l-29 281l-471 6l-30 -60q-33 -73 -105 -221q-39 -79 -132 -78q-60 0 -103.5 29.5t-35.5 75.5q4 25 11 35q380 745 560 1102q73 143 122.5 197 t132.5 54t130.5 -52.5t65.5 -179.5q20 -142 41 -311.5t31 -244.5l15 -120h27q105 0 105 -91q0 -62 -24 -102.5zM916 567l-39 386q-8 89 -15.5 123.5t-17.5 34.5q-8 0 -19.5 -19.5t-32.5 -67.5l-28 -60l-187 -393zM943 1566q-19 11 -37 36l-132 178q-27 37 -27 75 q0 44 32.5 76t76.5 32q49 0 92 -59l119 -177q23 -37 23 -68q0 -41 -31.5 -72.5t-71.5 -31.5q-25 0 -44 11z" />
<glyph unicode="&#xc1;" horiz-adv-x="1437" d="M1279 371.5q-24 -40.5 -65 -40.5h-12q20 -163 27 -213q2 -8 2 -19q0 -54 -41.5 -88t-101.5 -34q-46 0 -80.5 19.5t-39.5 55.5l-29 281l-471 6l-30 -60q-33 -73 -105 -221q-39 -79 -132 -78q-60 0 -103.5 29.5t-35.5 75.5q4 25 11 35q380 745 560 1102q73 143 122.5 197 t132.5 54t130.5 -52.5t65.5 -179.5q20 -142 41 -311.5t31 -244.5l15 -120h27q105 0 105 -91q0 -62 -24 -102.5zM916 567l-39 386q-8 89 -15.5 123.5t-17.5 34.5q-8 0 -19.5 -19.5t-32.5 -67.5l-28 -60l-187 -393zM767 1593.5q-23 26.5 -23 58.5q0 48 56 91l205 164 q46 35 69.5 49.5t48.5 14.5q36 0 58 -27t22 -62q0 -57 -64 -106l-221 -165q-33 -26 -53 -35t-42 -9q-33 0 -56 26.5z" />
<glyph unicode="&#xc2;" horiz-adv-x="1437" d="M1279 371.5q-24 -40.5 -65 -40.5h-12q20 -163 27 -213q2 -8 2 -19q0 -54 -41.5 -88t-101.5 -34q-46 0 -80.5 19.5t-39.5 55.5l-29 281l-471 6l-30 -60q-33 -73 -105 -221q-39 -79 -132 -78q-60 0 -103.5 29.5t-35.5 75.5q4 25 11 35q380 745 560 1102q73 143 122.5 197 t132.5 54t130.5 -52.5t65.5 -179.5q20 -142 41 -311.5t31 -244.5l15 -120h27q105 0 105 -91q0 -62 -24 -102.5zM916 567l-39 386q-8 89 -15.5 123.5t-17.5 34.5q-8 0 -19.5 -19.5t-32.5 -67.5l-28 -60l-187 -393zM1082 1600l-59 93q-25 41 -44 71t-27 30t-32.5 -20 t-48 -42.5t-42.5 -38.5l-74 -71q-34 -27 -55.5 -39.5t-41.5 -12.5q-34 0 -57.5 23t-23.5 56q0 18 10 41t31 42q38 33 64 60q105 95 174.5 148t119.5 53q57 0 93.5 -35.5t93.5 -120.5q43 -71 82 -120q17 -25 17 -48q0 -43 -32.5 -76t-75.5 -33q-52 0 -72 40z" />
<glyph unicode="&#xc3;" horiz-adv-x="1437" d="M1279 371.5q-24 -40.5 -65 -40.5h-12q20 -163 27 -213q2 -8 2 -19q0 -54 -41.5 -88t-101.5 -34q-46 0 -80.5 19.5t-39.5 55.5l-29 281l-471 6l-30 -60q-33 -73 -105 -221q-39 -79 -132 -78q-60 0 -103.5 29.5t-35.5 75.5q4 25 11 35q380 745 560 1102q73 143 122.5 197 t132.5 54t130.5 -52.5t65.5 -179.5q20 -142 41 -311.5t31 -244.5l15 -120h27q105 0 105 -91q0 -62 -24 -102.5zM916 567l-39 386q-8 89 -15.5 123.5t-17.5 34.5q-8 0 -19.5 -19.5t-32.5 -67.5l-28 -60l-187 -393zM579.5 1613.5q-20.5 22.5 -20.5 53.5q0 44 36 81 q67 67 118.5 94.5t111.5 27.5q48 0 97.5 -13.5t90.5 -35.5q34 -20 55.5 -30.5t33.5 -10.5q18 0 41 22q26 23 44.5 33t38.5 10q34 0 57.5 -24.5t23.5 -60.5q0 -43 -41 -80q-103 -89 -199 -89q-40 0 -72.5 12.5t-57.5 27t-35 18.5q-69 40 -96 40q-12 0 -29.5 -14t-31 -25.5 t-20.5 -17.5q-47 -41 -91 -41q-34 0 -54.5 22.5z" />
<glyph unicode="&#xc4;" horiz-adv-x="1437" d="M1279 371.5q-24 -40.5 -65 -40.5h-12q20 -163 27 -213q2 -8 2 -19q0 -54 -41.5 -88t-101.5 -34q-46 0 -80.5 19.5t-39.5 55.5l-29 281l-471 6l-30 -60q-33 -73 -105 -221q-39 -79 -132 -78q-60 0 -103.5 29.5t-35.5 75.5q4 25 11 35q380 745 560 1102q73 143 122.5 197 t132.5 54t130.5 -52.5t65.5 -179.5q20 -142 41 -311.5t31 -244.5l15 -120h27q105 0 105 -91q0 -62 -24 -102.5zM916 567l-39 386q-8 89 -15.5 123.5t-17.5 34.5q-8 0 -19.5 -19.5t-32.5 -67.5l-28 -60l-187 -393zM551 1618q-34 35 -34 87q0 66 51.5 115.5t118.5 49.5 q51 0 88 -35t37 -85q0 -63 -54.5 -115t-121.5 -52q-51 0 -85 35zM1097 1618q-34 35 -34 87q0 66 52 115.5t117 49.5q52 0 88.5 -34t36.5 -84q0 -63 -53.5 -116t-120.5 -53q-52 0 -86 35z" />
<glyph unicode="&#xc5;" horiz-adv-x="1437" d="M1279 371.5q-24 -40.5 -65 -40.5h-12q20 -163 27 -213q2 -8 2 -19q0 -54 -41.5 -88t-101.5 -34q-46 0 -80.5 19.5t-39.5 55.5l-29 281l-471 6l-30 -60q-33 -73 -105 -221q-39 -79 -132 -78q-60 0 -103.5 29.5t-35.5 75.5q4 25 11 35q380 745 560 1102q73 143 122.5 197 t132.5 54t130.5 -52.5t65.5 -179.5q20 -142 41 -311.5t31 -244.5l15 -120h27q105 0 105 -91q0 -62 -24 -102.5zM916 567l-39 386q-8 89 -15.5 123.5t-17.5 34.5q-8 0 -19.5 -19.5t-32.5 -67.5l-28 -60l-187 -393zM752 1590q-65 65 -65 158q0 77 41 143t111.5 105.5 t151.5 39.5q93 0 155 -65t62 -154q0 -79 -39.5 -146t-107.5 -106.5t-149 -39.5q-95 0 -160 65zM1013.5 1712q35.5 32 39.5 80q4 35 -20 63t-67 28q-50 0 -86 -35.5t-36 -81.5q0 -39 23.5 -62.5t62.5 -23.5q48 0 83.5 32z" />
<glyph unicode="&#xc6;" horiz-adv-x="1840" d="M1899 1403.5q12 -13.5 12 -42.5q0 -18 -2 -31q-14 -73 -42 -94.5t-67 -19.5q-99 8 -243 8q-146 0 -229 -6q-16 -142 -62 -383q94 -4 137 -4q188 -4 221 -6q33 -6 32 -49q0 -21 -2 -32q-8 -45 -33.5 -67t-79.5 -22l-95 3l-100 4h-111q-23 -113 -47.5 -214t-58.5 -227 q103 -12 255 -12q72 0 102 2t119 14q27 4 54 -15.5t27 -65.5q0 -16 -2 -24q-10 -53 -42.5 -82.5t-62.5 -37.5t-77.5 -10t-105.5 -2q-139 0 -215 2l-325 2q-114 0 -114 81q0 14 2 22q21 110 117 110q20 67 49 186l-366 2q-165 -247 -226 -339q-20 -26 -38.5 -40t-54.5 -14 q-53 0 -107 31t-54 66q0 12 7 21q308 486 590 879t421 428q8 4 16 4q71 0 137 2t113 4l156 4q93 0 353 -18q30 -4 42 -17.5zM949 569q56 262 93 490q4 21 4 27q-132 -154 -380 -513z" />
<glyph unicode="&#xc7;" horiz-adv-x="1516" d="M1509 1443q28 -24 28 -65q0 -12 -2 -22l-45 -235q-23 -126 -146 -126q-70 0 -93 41q-39 71 -68 111.5t-83 70t-132 29.5q-147 0 -282.5 -97.5t-219 -249.5t-83.5 -304q0 -118 51.5 -203t139.5 -128.5t198 -43.5q142 0 263 75t161 223q12 52 43 86t101 34q129 0 116 -126 q-16 -118 -101 -238.5t-234.5 -201.5t-348.5 -81h-4l-93 -108q59 -14 103.5 -49.5t44.5 -97.5q0 -95 -84 -151t-208 -56q-41 0 -85.5 8.5t-72.5 23.5q-52 20 -53 57q0 36 25.5 60.5t61.5 24.5q8 0 55 -12q66 -18 95 -19q107 0 107 54q0 24 -26 36t-88 22q-66 12 -66 67 q0 16 10 41l98 119q-211 50 -338.5 204.5t-127.5 383.5q0 221 116 423.5t310 328t416 125.5q223 0 325 -131l6 38q8 37 41.5 60t86.5 23q54 0 82 -24z" />
<glyph unicode="&#xc8;" horiz-adv-x="1277" d="M1319.5 1406.5q24.5 -18.5 24.5 -58.5q0 -59 -35.5 -100.5t-86.5 -39.5q-190 16 -347 16q-143 0 -242 -6l-29 -184l-25 -161h62q308 -4 381 -8q29 -4 47.5 -20t18.5 -55q0 -56 -30 -102.5t-75 -46.5q-79 0 -112 2q-30 0 -85.5 1t-171.5 1h-74q-23 -116 -44.5 -201.5 t-55.5 -191.5q123 -8 239 -8q120 0 190 4t149 15l22 2q40 0 62.5 -22t22.5 -65q0 -58 -29.5 -93.5t-86.5 -45.5q-99 -18 -405 -19q-120 0 -224.5 5.5t-247.5 23.5q-63 9 -63 75q0 58 25.5 100.5t69.5 42.5h26q53 167 94 382h-19q-34 0 -53.5 20t-19.5 59q0 64 29 106.5 t77 42.5h24l61 331h-8q-28 0 -39 22.5t-11 54.5q0 138 147 152q107 10 361 11q282 0 418 -17q44 -6 68.5 -24.5zM911 1566q-19 11 -37 36l-132 178q-27 37 -27 75q0 44 32.5 76t76.5 32q49 0 92 -59l119 -177q23 -37 23 -68q0 -41 -31.5 -72.5t-71.5 -31.5q-25 0 -44 11z " />
<glyph unicode="&#xc9;" horiz-adv-x="1277" d="M1319.5 1406.5q24.5 -18.5 24.5 -58.5q0 -59 -35.5 -100.5t-86.5 -39.5q-190 16 -347 16q-143 0 -242 -6l-29 -184l-25 -161h62q308 -4 381 -8q29 -4 47.5 -20t18.5 -55q0 -56 -30 -102.5t-75 -46.5q-79 0 -112 2q-30 0 -85.5 1t-171.5 1h-74q-23 -116 -44.5 -201.5 t-55.5 -191.5q123 -8 239 -8q120 0 190 4t149 15l22 2q40 0 62.5 -22t22.5 -65q0 -58 -29.5 -93.5t-86.5 -45.5q-99 -18 -405 -19q-120 0 -224.5 5.5t-247.5 23.5q-63 9 -63 75q0 58 25.5 100.5t69.5 42.5h26q53 167 94 382h-19q-34 0 -53.5 20t-19.5 59q0 64 29 106.5 t77 42.5h24l61 331h-8q-28 0 -39 22.5t-11 54.5q0 138 147 152q107 10 361 11q282 0 418 -17q44 -6 68.5 -24.5zM735 1593.5q-23 26.5 -23 58.5q0 48 56 91l205 164q46 35 69.5 49.5t48.5 14.5q36 0 58 -27t22 -62q0 -57 -64 -106l-221 -165q-33 -26 -53 -35t-42 -9 q-33 0 -56 26.5z" />
<glyph unicode="&#xca;" horiz-adv-x="1277" d="M1319.5 1406.5q24.5 -18.5 24.5 -58.5q0 -59 -35.5 -100.5t-86.5 -39.5q-190 16 -347 16q-143 0 -242 -6l-29 -184l-25 -161h62q308 -4 381 -8q29 -4 47.5 -20t18.5 -55q0 -56 -30 -102.5t-75 -46.5q-79 0 -112 2q-30 0 -85.5 1t-171.5 1h-74q-23 -116 -44.5 -201.5 t-55.5 -191.5q123 -8 239 -8q120 0 190 4t149 15l22 2q40 0 62.5 -22t22.5 -65q0 -58 -29.5 -93.5t-86.5 -45.5q-99 -18 -405 -19q-120 0 -224.5 5.5t-247.5 23.5q-63 9 -63 75q0 58 25.5 100.5t69.5 42.5h26q53 167 94 382h-19q-34 0 -53.5 20t-19.5 59q0 64 29 106.5 t77 42.5h24l61 331h-8q-28 0 -39 22.5t-11 54.5q0 138 147 152q107 10 361 11q282 0 418 -17q44 -6 68.5 -24.5zM1050 1600l-59 93q-25 41 -44 71t-27 30t-32.5 -20t-48 -42.5t-42.5 -38.5l-74 -71q-34 -27 -55.5 -39.5t-41.5 -12.5q-34 0 -57.5 23t-23.5 56q0 18 10 41 t31 42q38 33 64 60q105 95 174.5 148t119.5 53q57 0 93.5 -35.5t93.5 -120.5q43 -71 82 -120q17 -25 17 -48q0 -43 -32.5 -76t-75.5 -33q-52 0 -72 40z" />
<glyph unicode="&#xcb;" horiz-adv-x="1277" d="M1319.5 1406.5q24.5 -18.5 24.5 -58.5q0 -59 -35.5 -100.5t-86.5 -39.5q-190 16 -347 16q-143 0 -242 -6l-29 -184l-25 -161h62q308 -4 381 -8q29 -4 47.5 -20t18.5 -55q0 -56 -30 -102.5t-75 -46.5q-79 0 -112 2q-30 0 -85.5 1t-171.5 1h-74q-23 -116 -44.5 -201.5 t-55.5 -191.5q123 -8 239 -8q120 0 190 4t149 15l22 2q40 0 62.5 -22t22.5 -65q0 -58 -29.5 -93.5t-86.5 -45.5q-99 -18 -405 -19q-120 0 -224.5 5.5t-247.5 23.5q-63 9 -63 75q0 58 25.5 100.5t69.5 42.5h26q53 167 94 382h-19q-34 0 -53.5 20t-19.5 59q0 64 29 106.5 t77 42.5h24l61 331h-8q-28 0 -39 22.5t-11 54.5q0 138 147 152q107 10 361 11q282 0 418 -17q44 -6 68.5 -24.5zM519 1618q-34 35 -34 87q0 66 51.5 115.5t118.5 49.5q51 0 88 -35t37 -85q0 -63 -54.5 -115t-121.5 -52q-51 0 -85 35zM1065 1618q-34 35 -34 87q0 66 52 115.5 t117 49.5q52 0 88.5 -34t36.5 -84q0 -63 -53.5 -116t-120.5 -53q-52 0 -86 35z" />
<glyph unicode="&#xcc;" horiz-adv-x="1004" d="M1080 1372q0 -62 -33 -101.5t-100 -37.5q-61 4 -144 4q-103 -560 -213 -999l180 -3q97 -2 97 -81q0 -67 -37.5 -107.5t-101.5 -40.5l-621 8q-87 2 -87 85q0 60 36.5 102.5t91.5 42.5l195 -2q121 520 207 995l-161 -11q-56 -6 -87 -6q-37 0 -59 23t-22 62q0 62 33.5 99 t92.5 46q40 6 146.5 12.5t226.5 6.5q158 0 277 -13q83 -6 83 -84zM745 1566q-19 11 -37 36l-132 178q-27 37 -27 75q0 44 32.5 76t76.5 32q49 0 92 -59l119 -177q23 -37 23 -68q0 -41 -31.5 -72.5t-71.5 -31.5q-25 0 -44 11z" />
<glyph unicode="&#xcd;" horiz-adv-x="1004" d="M1080 1372q0 -62 -33 -101.5t-100 -37.5q-61 4 -144 4q-103 -560 -213 -999l180 -3q97 -2 97 -81q0 -67 -37.5 -107.5t-101.5 -40.5l-621 8q-87 2 -87 85q0 60 36.5 102.5t91.5 42.5l195 -2q121 520 207 995l-161 -11q-56 -6 -87 -6q-37 0 -59 23t-22 62q0 62 33.5 99 t92.5 46q40 6 146.5 12.5t226.5 6.5q158 0 277 -13q83 -6 83 -84zM569 1593.5q-23 26.5 -23 58.5q0 48 56 91l205 164q46 35 69.5 49.5t48.5 14.5q36 0 58 -27t22 -62q0 -57 -64 -106l-221 -165q-33 -26 -53 -35t-42 -9q-33 0 -56 26.5z" />
<glyph unicode="&#xce;" horiz-adv-x="1004" d="M1080 1372q0 -62 -33 -101.5t-100 -37.5q-61 4 -144 4q-103 -560 -213 -999l180 -3q97 -2 97 -81q0 -67 -37.5 -107.5t-101.5 -40.5l-621 8q-87 2 -87 85q0 60 36.5 102.5t91.5 42.5l195 -2q121 520 207 995l-161 -11q-56 -6 -87 -6q-37 0 -59 23t-22 62q0 62 33.5 99 t92.5 46q40 6 146.5 12.5t226.5 6.5q158 0 277 -13q83 -6 83 -84zM884 1600l-59 93q-25 41 -44 71t-27 30t-32.5 -20t-48 -42.5t-42.5 -38.5l-74 -71q-34 -27 -55.5 -39.5t-41.5 -12.5q-34 0 -57.5 23t-23.5 56q0 18 10 41t31 42q38 33 64 60q105 95 174.5 148t119.5 53 q57 0 93.5 -35.5t93.5 -120.5q43 -71 82 -120q17 -25 17 -48q0 -43 -32.5 -76t-75.5 -33q-52 0 -72 40z" />
<glyph unicode="&#xcf;" horiz-adv-x="1004" d="M1080 1372q0 -62 -33 -101.5t-100 -37.5q-61 4 -144 4q-103 -560 -213 -999l180 -3q97 -2 97 -81q0 -67 -37.5 -107.5t-101.5 -40.5l-621 8q-87 2 -87 85q0 60 36.5 102.5t91.5 42.5l195 -2q121 520 207 995l-161 -11q-56 -6 -87 -6q-37 0 -59 23t-22 62q0 62 33.5 99 t92.5 46q40 6 146.5 12.5t226.5 6.5q158 0 277 -13q83 -6 83 -84zM353 1618q-34 35 -34 87q0 66 51.5 115.5t118.5 49.5q51 0 88 -35t37 -85q0 -63 -54.5 -115t-121.5 -52q-51 0 -85 35zM899 1618q-34 35 -34 87q0 66 52 115.5t117 49.5q52 0 88.5 -34t36.5 -84 q0 -63 -53.5 -116t-120.5 -53q-52 0 -86 35z" />
<glyph unicode="&#xd0;" horiz-adv-x="1492" d="M1228.5 1266q202.5 -159 202.5 -445q0 -240 -143.5 -424t-386.5 -284.5t-532 -100.5h-140q-66 0 -96 20t-30 69q0 62 39.5 96t103.5 38l58 392l-64 2q-68 2 -105.5 29t-37.5 76q0 67 53 109.5t140 39.5l51 -2l54 356q-39 10 -58 33t-19 60q0 54 35.5 80.5t102.5 35.5 q35 36 111 35q76 0 110 -33q349 -23 551.5 -182zM851.5 341.5q139.5 78.5 218 204t78.5 279.5q0 195 -132.5 282t-336.5 107l-52 -339l115 -4q67 -2 101 -31t34 -78q0 -62 -49.5 -103t-130.5 -41l-107 2l-57 -378q179 21 318.5 99.5z" />
<glyph unicode="&#xd1;" horiz-adv-x="1555" d="M1555 1382q0 -10 -4 -40q-43 -258 -120 -663q-47 -257 -87.5 -395t-92 -199.5t-132.5 -61.5q-73 0 -128.5 53.5t-115.5 166.5t-170 353l-163 361l-39 91l-31 -192l-32 -185q-49 -296 -97 -545q-8 -45 -49.5 -76.5t-94.5 -31.5q-54 0 -85 33.5t-25 74.5q29 178 53 308 q42 230 48 261q-4 -23 29 176q50 281 50 287q20 119 43 183t58 92.5t96 28.5q72 0 125.5 -49t114 -166.5t169.5 -371.5q155 -358 240 -521l71 370l115 644q8 49 45.5 79t103.5 30q105 0 105 -95zM654.5 1613.5q-20.5 22.5 -20.5 53.5q0 44 36 81q67 67 118.5 94.5 t111.5 27.5q48 0 97.5 -13.5t90.5 -35.5q34 -20 55.5 -30.5t33.5 -10.5q18 0 41 22q26 23 44.5 33t38.5 10q34 0 57.5 -24.5t23.5 -60.5q0 -43 -41 -80q-103 -89 -199 -89q-40 0 -72.5 12.5t-57.5 27t-35 18.5q-69 40 -96 40q-12 0 -29.5 -14t-31 -25.5t-20.5 -17.5 q-47 -41 -91 -41q-34 0 -54.5 22.5z" />
<glyph unicode="&#xd2;" horiz-adv-x="1664" d="M440 88q-146 74 -228 212t-82 324q0 225 104.5 419t291 307.5t415.5 113.5q195 0 346.5 -81.5t236.5 -229.5t85 -340q0 -227 -109.5 -409.5t-300 -286t-425.5 -103.5q-188 0 -334 74zM1081.5 319.5q130.5 77.5 202.5 211t72 292.5q0 188 -107.5 301t-293.5 113 q-163 0 -292.5 -86.5t-201.5 -229.5t-72 -303q0 -190 110.5 -283t284.5 -93q167 0 297.5 77.5zM1049 1566q-19 11 -37 36l-132 178q-27 37 -27 75q0 44 32.5 76t76.5 32q49 0 92 -59l119 -177q23 -37 23 -68q0 -41 -31.5 -72.5t-71.5 -31.5q-25 0 -44 11z" />
<glyph unicode="&#xd3;" horiz-adv-x="1664" d="M440 88q-146 74 -228 212t-82 324q0 225 104.5 419t291 307.5t415.5 113.5q195 0 346.5 -81.5t236.5 -229.5t85 -340q0 -227 -109.5 -409.5t-300 -286t-425.5 -103.5q-188 0 -334 74zM1081.5 319.5q130.5 77.5 202.5 211t72 292.5q0 188 -107.5 301t-293.5 113 q-163 0 -292.5 -86.5t-201.5 -229.5t-72 -303q0 -190 110.5 -283t284.5 -93q167 0 297.5 77.5zM873 1593.5q-23 26.5 -23 58.5q0 48 56 91l205 164q46 35 69.5 49.5t48.5 14.5q36 0 58 -27t22 -62q0 -57 -64 -106l-221 -165q-33 -26 -53 -35t-42 -9q-33 0 -56 26.5z" />
<glyph unicode="&#xd4;" horiz-adv-x="1664" d="M440 88q-146 74 -228 212t-82 324q0 225 104.5 419t291 307.5t415.5 113.5q195 0 346.5 -81.5t236.5 -229.5t85 -340q0 -227 -109.5 -409.5t-300 -286t-425.5 -103.5q-188 0 -334 74zM1081.5 319.5q130.5 77.5 202.5 211t72 292.5q0 188 -107.5 301t-293.5 113 q-163 0 -292.5 -86.5t-201.5 -229.5t-72 -303q0 -190 110.5 -283t284.5 -93q167 0 297.5 77.5zM1188 1600l-59 93q-25 41 -44 71t-27 30t-32.5 -20t-48 -42.5t-42.5 -38.5l-74 -71q-34 -27 -55.5 -39.5t-41.5 -12.5q-34 0 -57.5 23t-23.5 56q0 18 10 41t31 42q38 33 64 60 q105 95 174.5 148t119.5 53q57 0 93.5 -35.5t93.5 -120.5q43 -71 82 -120q17 -25 17 -48q0 -43 -32.5 -76t-75.5 -33q-52 0 -72 40z" />
<glyph unicode="&#xd5;" horiz-adv-x="1664" d="M440 88q-146 74 -228 212t-82 324q0 225 104.5 419t291 307.5t415.5 113.5q195 0 346.5 -81.5t236.5 -229.5t85 -340q0 -227 -109.5 -409.5t-300 -286t-425.5 -103.5q-188 0 -334 74zM1081.5 319.5q130.5 77.5 202.5 211t72 292.5q0 188 -107.5 301t-293.5 113 q-163 0 -292.5 -86.5t-201.5 -229.5t-72 -303q0 -190 110.5 -283t284.5 -93q167 0 297.5 77.5zM685.5 1613.5q-20.5 22.5 -20.5 53.5q0 44 36 81q67 67 118.5 94.5t111.5 27.5q48 0 97.5 -13.5t90.5 -35.5q34 -20 55.5 -30.5t33.5 -10.5q18 0 41 22q26 23 44.5 33t38.5 10 q34 0 57.5 -24.5t23.5 -60.5q0 -43 -41 -80q-103 -89 -199 -89q-40 0 -72.5 12.5t-57.5 27t-35 18.5q-69 40 -96 40q-12 0 -29.5 -14t-31 -25.5t-20.5 -17.5q-47 -41 -91 -41q-34 0 -54.5 22.5z" />
<glyph unicode="&#xd6;" horiz-adv-x="1664" d="M440 88q-146 74 -228 212t-82 324q0 225 104.5 419t291 307.5t415.5 113.5q195 0 346.5 -81.5t236.5 -229.5t85 -340q0 -227 -109.5 -409.5t-300 -286t-425.5 -103.5q-188 0 -334 74zM1081.5 319.5q130.5 77.5 202.5 211t72 292.5q0 188 -107.5 301t-293.5 113 q-163 0 -292.5 -86.5t-201.5 -229.5t-72 -303q0 -190 110.5 -283t284.5 -93q167 0 297.5 77.5zM657 1618q-34 35 -34 87q0 66 51.5 115.5t118.5 49.5q51 0 88 -35t37 -85q0 -63 -54.5 -115t-121.5 -52q-51 0 -85 35zM1203 1618q-34 35 -34 87q0 66 52 115.5t117 49.5 q52 0 88.5 -34t36.5 -84q0 -63 -53.5 -116t-120.5 -53q-52 0 -86 35z" />
<glyph unicode="&#xd7;" d="M947.5 982q27.5 -25 20.5 -66q-4 -20 -10.5 -31.5t-28.5 -32.5l-222 -207q105 -130 195 -244q14 -16 18 -28.5t0 -29.5q-4 -33 -40 -60.5t-77 -27.5q-33 0 -53 13.5t-41 37.5l-161 193q-120 -112 -175 -162l-53 -47q-25 -20 -45 -31t-50 -11q-41 0 -72 30t-27 55 q4 36 36 64l266 246q-33 42 -51 62q-87 105 -118 145q-21 28 -24.5 37t-1.5 29q6 33 43.5 65.5t89.5 32.5q29 0 49.5 -12.5t42.5 -39.5q45 -60 130 -168l172 161q51 52 105 52q55 0 82.5 -25z" />
<glyph unicode="&#xd8;" horiz-adv-x="1699" d="M1740.5 1540q23.5 -28 17.5 -67q-10 -42 -45 -73l-213 -208q110 -162 109 -379q0 -227 -109.5 -409.5t-300 -286t-425.5 -103.5q-217 0 -375 98l-144 -143q-46 -50 -99 -50q-36 0 -60.5 22t-24.5 55q0 20 5 32.5t25 35.5l164 161q-135 162 -135 399q0 225 104.5 419 t291 307.5t415.5 113.5q129 0 240.5 -37t198.5 -105l199 194q49 52 101 52q37 0 60.5 -28zM444 401l768 755q-103 81 -257 81q-163 0 -292.5 -86.5t-201.5 -229.5t-72 -303q0 -128 55 -217zM1320 1016l-745 -730q87 -44 209 -44q167 0 297.5 77.5t202.5 211t72 292.5 q1 110 -36 193z" />
<glyph unicode="&#xd9;" horiz-adv-x="1431" d="M1396.5 1442q28.5 -25 28.5 -66q0 -15 -2 -24q-33 -181 -53 -322q-4 -25 -24 -134l-130 -772q-12 -72 -44.5 -101t-95.5 -29q-119 0 -119 91q0 16 3 25l13 74q-64 -83 -160.5 -132.5t-212.5 -49.5q-217 0 -334.5 120t-117.5 310q0 93 34.5 281.5t127.5 634.5 q10 48 46.5 77t101.5 29q105 0 105 -74q0 -10 -4 -36q-89 -424 -122.5 -621.5t-33.5 -276.5q0 -99 56 -157t149 -58t189.5 59t166.5 157.5t90 212.5q54 312 119 692q18 115 138 115q57 0 85.5 -25zM933 1566q-19 11 -37 36l-132 178q-27 37 -27 75q0 44 32.5 76t76.5 32 q49 0 92 -59l119 -177q23 -37 23 -68q0 -41 -31.5 -72.5t-71.5 -31.5q-25 0 -44 11z" />
<glyph unicode="&#xda;" horiz-adv-x="1431" d="M1396.5 1442q28.5 -25 28.5 -66q0 -15 -2 -24q-33 -181 -53 -322q-4 -25 -24 -134l-130 -772q-12 -72 -44.5 -101t-95.5 -29q-119 0 -119 91q0 16 3 25l13 74q-64 -83 -160.5 -132.5t-212.5 -49.5q-217 0 -334.5 120t-117.5 310q0 93 34.5 281.5t127.5 634.5 q10 48 46.5 77t101.5 29q105 0 105 -74q0 -10 -4 -36q-89 -424 -122.5 -621.5t-33.5 -276.5q0 -99 56 -157t149 -58t189.5 59t166.5 157.5t90 212.5q54 312 119 692q18 115 138 115q57 0 85.5 -25zM757 1593.5q-23 26.5 -23 58.5q0 48 56 91l205 164q46 35 69.5 49.5 t48.5 14.5q36 0 58 -27t22 -62q0 -57 -64 -106l-221 -165q-33 -26 -53 -35t-42 -9q-33 0 -56 26.5z" />
<glyph unicode="&#xdb;" horiz-adv-x="1431" d="M1396.5 1442q28.5 -25 28.5 -66q0 -15 -2 -24q-33 -181 -53 -322q-4 -25 -24 -134l-130 -772q-12 -72 -44.5 -101t-95.5 -29q-119 0 -119 91q0 16 3 25l13 74q-64 -83 -160.5 -132.5t-212.5 -49.5q-217 0 -334.5 120t-117.5 310q0 93 34.5 281.5t127.5 634.5 q10 48 46.5 77t101.5 29q105 0 105 -74q0 -10 -4 -36q-89 -424 -122.5 -621.5t-33.5 -276.5q0 -99 56 -157t149 -58t189.5 59t166.5 157.5t90 212.5q54 312 119 692q18 115 138 115q57 0 85.5 -25zM1072 1600l-59 93q-25 41 -44 71t-27 30t-32.5 -20t-48 -42.5t-42.5 -38.5 l-74 -71q-34 -27 -55.5 -39.5t-41.5 -12.5q-34 0 -57.5 23t-23.5 56q0 18 10 41t31 42q38 33 64 60q105 95 174.5 148t119.5 53q57 0 93.5 -35.5t93.5 -120.5q43 -71 82 -120q17 -25 17 -48q0 -43 -32.5 -76t-75.5 -33q-52 0 -72 40z" />
<glyph unicode="&#xdc;" horiz-adv-x="1431" d="M1396.5 1442q28.5 -25 28.5 -66q0 -15 -2 -24q-33 -181 -53 -322q-4 -25 -24 -134l-130 -772q-12 -72 -44.5 -101t-95.5 -29q-119 0 -119 91q0 16 3 25l13 74q-64 -83 -160.5 -132.5t-212.5 -49.5q-217 0 -334.5 120t-117.5 310q0 93 34.5 281.5t127.5 634.5 q10 48 46.5 77t101.5 29q105 0 105 -74q0 -10 -4 -36q-89 -424 -122.5 -621.5t-33.5 -276.5q0 -99 56 -157t149 -58t189.5 59t166.5 157.5t90 212.5q54 312 119 692q18 115 138 115q57 0 85.5 -25zM541 1618q-34 35 -34 87q0 66 51.5 115.5t118.5 49.5q51 0 88 -35t37 -85 q0 -63 -54.5 -115t-121.5 -52q-51 0 -85 35zM1087 1618q-34 35 -34 87q0 66 52 115.5t117 49.5q52 0 88.5 -34t36.5 -84q0 -63 -53.5 -116t-120.5 -53q-52 0 -86 35z" />
<glyph unicode="&#xdd;" horiz-adv-x="1354" d="M517 29q-29 25 -29 66q0 18 2 27l96 563q-38 6 -97 82.5t-96 159.5q-97 209 -132 384q-2 8 -2 25q0 54 51.5 84t117.5 30q44 0 68.5 -22.5t38.5 -73.5q48 -189 100 -316q71 -163 109 -163q26 0 74.5 49t97.5 116q54 71 110 157t66 102l41 65q8 10 25 34.5t35.5 36 t47.5 11.5q60 0 103.5 -35t43.5 -81q0 -25 -16 -51q-36 -71 -113.5 -181.5t-137.5 -187.5q-73 -89 -160.5 -155t-123.5 -70l-91 -557q-10 -57 -48 -90.5t-100 -33.5q-52 0 -81 25zM721 1593.5q-23 26.5 -23 58.5q0 48 56 91l205 164q46 35 69.5 49.5t48.5 14.5q36 0 58 -27 t22 -62q0 -57 -64 -106l-221 -165q-33 -26 -53 -35t-42 -9q-33 0 -56 26.5z" />
<glyph unicode="&#xde;" horiz-adv-x="1381" d="M1124 1281q119 -57 184.5 -157t65.5 -228q0 -156 -91 -272.5t-241 -179.5t-322 -63q-112 0 -211 35l-67 -317q-10 -47 -56.5 -81t-106.5 -34q-56 0 -90.5 28.5t-34.5 72.5q0 12 2 18q53 275 99 487l12 61q8 40 43 249l17 93l-27 -14q-27 -12 -52 -13q-37 0 -66.5 32 t-29.5 70q0 59 69 107q46 31 148 72l34 222q6 47 47.5 81.5t101.5 34.5q54 0 94.5 -26t40.5 -76q0 -14 -14 -95q-2 -20 -11 -66q105 16 188 16q155 0 274 -57zM988 685q98 77 98 205q0 101 -76.5 160t-223.5 59q-77 0 -164 -17l-34 -217q0 6 -17 -103l-21 -131 q108 -33 194 -33q146 0 244 77z" />
<glyph unicode="&#xdf;" horiz-adv-x="1298" d="M446 41q-39 28 -39 66q0 41 33.5 84.5t72.5 43.5q18 0 33 -10q91 -43 153 -43q101 0 161 41.5t60 115.5q0 44 -29.5 75.5t-94.5 77.5q-77 53 -116 97t-39 112q0 83 71.5 151t207.5 116q37 74 37 128q0 81 -52.5 135t-128.5 54q-127 0 -209.5 -104.5t-126.5 -338.5 l-140 -722q-10 -49 -43.5 -76.5t-88.5 -27.5q-50 0 -75.5 24t-25.5 61q0 14 2 21l134 722q39 218 106.5 356t180 209.5t286.5 71.5q114 0 213 -51.5t157 -136.5t58 -180q0 -69 -27 -143t-72 -133q-95 -14 -163.5 -51.5t-68.5 -82.5q0 -23 24.5 -45.5t77.5 -59.5 q91 -64 143.5 -123t52.5 -146q0 -101 -63.5 -178.5t-173 -120t-243.5 -42.5q-164 0 -245 53z" />
<glyph unicode="&#xe0;" horiz-adv-x="1275" d="M1101.5 179q13.5 -11 13.5 -49q0 -53 -30.5 -90.5t-97.5 -37.5q-69 0 -107 23.5t-63 77.5q-47 -62 -126 -92.5t-178 -30.5q-130 0 -228.5 54.5t-151 153t-52.5 226.5q0 168 73 306t201.5 220t285.5 82q99 0 170.5 -34.5t106.5 -87.5l11 35q25 77 109 76q54 0 88 -20 t34 -54q0 -23 -31 -104l-26 -78q-35 -110 -65.5 -259t-30.5 -223q0 -40 10.5 -55t36.5 -19q34 -9 47.5 -20zM689.5 225.5q65.5 49.5 84.5 143.5q20 99 35.5 185.5t15.5 118.5q0 72 -49.5 112t-115.5 40q-91 0 -164.5 -63t-115 -162t-41.5 -201q0 -101 47.5 -162t146.5 -61 q91 0 156.5 49.5zM757 1152q-19 11 -37 36l-132 178q-27 37 -27 75q0 44 32.5 76t76.5 32q49 0 92 -59l119 -177q23 -37 23 -68q0 -41 -31.5 -72.5t-71.5 -31.5q-25 0 -44 11z" />
<glyph unicode="&#xe1;" horiz-adv-x="1275" d="M1101.5 179q13.5 -11 13.5 -49q0 -53 -30.5 -90.5t-97.5 -37.5q-69 0 -107 23.5t-63 77.5q-47 -62 -126 -92.5t-178 -30.5q-130 0 -228.5 54.5t-151 153t-52.5 226.5q0 168 73 306t201.5 220t285.5 82q99 0 170.5 -34.5t106.5 -87.5l11 35q25 77 109 76q54 0 88 -20 t34 -54q0 -23 -31 -104l-26 -78q-35 -110 -65.5 -259t-30.5 -223q0 -40 10.5 -55t36.5 -19q34 -9 47.5 -20zM689.5 225.5q65.5 49.5 84.5 143.5q20 99 35.5 185.5t15.5 118.5q0 72 -49.5 112t-115.5 40q-91 0 -164.5 -63t-115 -162t-41.5 -201q0 -101 47.5 -162t146.5 -61 q91 0 156.5 49.5zM581 1179.5q-23 26.5 -23 58.5q0 48 56 91l205 164q46 35 69.5 49.5t48.5 14.5q36 0 58 -27t22 -62q0 -57 -64 -106l-221 -165q-33 -26 -53 -35t-42 -9q-33 0 -56 26.5z" />
<glyph unicode="&#xe2;" horiz-adv-x="1275" d="M1101.5 179q13.5 -11 13.5 -49q0 -53 -30.5 -90.5t-97.5 -37.5q-69 0 -107 23.5t-63 77.5q-47 -62 -126 -92.5t-178 -30.5q-130 0 -228.5 54.5t-151 153t-52.5 226.5q0 168 73 306t201.5 220t285.5 82q99 0 170.5 -34.5t106.5 -87.5l11 35q25 77 109 76q54 0 88 -20 t34 -54q0 -23 -31 -104l-26 -78q-35 -110 -65.5 -259t-30.5 -223q0 -40 10.5 -55t36.5 -19q34 -9 47.5 -20zM689.5 225.5q65.5 49.5 84.5 143.5q20 99 35.5 185.5t15.5 118.5q0 72 -49.5 112t-115.5 40q-91 0 -164.5 -63t-115 -162t-41.5 -201q0 -101 47.5 -162t146.5 -61 q91 0 156.5 49.5zM896 1186l-59 93q-25 41 -44 71t-27 30t-32.5 -20t-48 -42.5t-42.5 -38.5l-74 -71q-34 -27 -55.5 -39.5t-41.5 -12.5q-34 0 -57.5 23t-23.5 56q0 18 10 41t31 42q38 33 64 60q105 95 174.5 148t119.5 53q57 0 93.5 -35.5t93.5 -120.5q43 -71 82 -120 q17 -25 17 -48q0 -43 -32.5 -76t-75.5 -33q-52 0 -72 40z" />
<glyph unicode="&#xe3;" horiz-adv-x="1275" d="M1101.5 179q13.5 -11 13.5 -49q0 -53 -30.5 -90.5t-97.5 -37.5q-69 0 -107 23.5t-63 77.5q-47 -62 -126 -92.5t-178 -30.5q-130 0 -228.5 54.5t-151 153t-52.5 226.5q0 168 73 306t201.5 220t285.5 82q99 0 170.5 -34.5t106.5 -87.5l11 35q25 77 109 76q54 0 88 -20 t34 -54q0 -23 -31 -104l-26 -78q-35 -110 -65.5 -259t-30.5 -223q0 -40 10.5 -55t36.5 -19q34 -9 47.5 -20zM689.5 225.5q65.5 49.5 84.5 143.5q20 99 35.5 185.5t15.5 118.5q0 72 -49.5 112t-115.5 40q-91 0 -164.5 -63t-115 -162t-41.5 -201q0 -101 47.5 -162t146.5 -61 q91 0 156.5 49.5zM393.5 1199.5q-20.5 22.5 -20.5 53.5q0 44 36 81q67 67 118.5 94.5t111.5 27.5q48 0 97.5 -13.5t90.5 -35.5q34 -20 55.5 -30.5t33.5 -10.5q18 0 41 22q26 23 44.5 33t38.5 10q34 0 57.5 -24.5t23.5 -60.5q0 -43 -41 -80q-103 -89 -199 -89 q-40 0 -72.5 12.5t-57.5 27t-35 18.5q-69 40 -96 40q-12 0 -29.5 -14t-31 -25.5t-20.5 -17.5q-47 -41 -91 -41q-34 0 -54.5 22.5z" />
<glyph unicode="&#xe4;" horiz-adv-x="1275" d="M1101.5 179q13.5 -11 13.5 -49q0 -53 -30.5 -90.5t-97.5 -37.5q-69 0 -107 23.5t-63 77.5q-47 -62 -126 -92.5t-178 -30.5q-130 0 -228.5 54.5t-151 153t-52.5 226.5q0 168 73 306t201.5 220t285.5 82q99 0 170.5 -34.5t106.5 -87.5l11 35q25 77 109 76q54 0 88 -20 t34 -54q0 -23 -31 -104l-26 -78q-35 -110 -65.5 -259t-30.5 -223q0 -40 10.5 -55t36.5 -19q34 -9 47.5 -20zM689.5 225.5q65.5 49.5 84.5 143.5q20 99 35.5 185.5t15.5 118.5q0 72 -49.5 112t-115.5 40q-91 0 -164.5 -63t-115 -162t-41.5 -201q0 -101 47.5 -162t146.5 -61 q91 0 156.5 49.5zM365 1204q-34 35 -34 87q0 66 51.5 115.5t118.5 49.5q51 0 88 -35t37 -85q0 -63 -54.5 -115t-121.5 -52q-51 0 -85 35zM911 1204q-34 35 -34 87q0 66 52 115.5t117 49.5q52 0 88.5 -34t36.5 -84q0 -63 -53.5 -116t-120.5 -53q-52 0 -86 35z" />
<glyph unicode="&#xe5;" horiz-adv-x="1275" d="M1101.5 179q13.5 -11 13.5 -49q0 -53 -30.5 -90.5t-97.5 -37.5q-69 0 -107 23.5t-63 77.5q-47 -62 -126 -92.5t-178 -30.5q-130 0 -228.5 54.5t-151 153t-52.5 226.5q0 168 73 306t201.5 220t285.5 82q99 0 170.5 -34.5t106.5 -87.5l11 35q25 77 109 76q54 0 88 -20 t34 -54q0 -23 -31 -104l-26 -78q-35 -110 -65.5 -259t-30.5 -223q0 -40 10.5 -55t36.5 -19q34 -9 47.5 -20zM689.5 225.5q65.5 49.5 84.5 143.5q20 99 35.5 185.5t15.5 118.5q0 72 -49.5 112t-115.5 40q-91 0 -164.5 -63t-115 -162t-41.5 -201q0 -101 47.5 -162t146.5 -61 q91 0 156.5 49.5zM566 1176q-65 65 -65 158q0 77 41 143t111.5 105.5t151.5 39.5q93 0 155 -65t62 -154q0 -79 -39.5 -146t-107.5 -106.5t-149 -39.5q-95 0 -160 65zM827.5 1298q35.5 32 39.5 80q4 35 -20 63t-67 28q-50 0 -86 -35.5t-36 -81.5q0 -39 23.5 -62.5t62.5 -23.5 q48 0 83.5 32z" />
<glyph unicode="&#xe6;" horiz-adv-x="1966" d="M1675.5 1018q103.5 -52 164.5 -140t61 -187q0 -31 -6 -67q-16 -83 -56.5 -111.5t-115.5 -30.5l-673 -14l-2 -20q-6 -25 -6 -67q0 -114 62.5 -159.5t192.5 -45.5q120 0 195.5 39.5t139.5 115.5q40 48 89 48q31 0 63 -30.5t32 -62.5q0 -44 -35 -89q-170 -217 -484 -217 q-152 0 -259 49.5t-140 146.5q-56 -93 -168 -144.5t-258 -51.5q-215 0 -316.5 68t-101.5 215q0 183 125 278.5t384 101.5l272 6l7 30q2 10 2 28q0 71 -59 114.5t-158 43.5q-97 0 -171.5 -26t-145.5 -79q-55 -40 -93 -40q-31 0 -53 28t-22 57q0 39 59 87q97 87 203.5 128.5 t236.5 41.5q135 0 233.5 -61.5t122.5 -161.5q69 101 189.5 166t261.5 65q124 0 227.5 -52zM1232.5 809.5q-93.5 -63.5 -136.5 -154.5l567 14l2 16q3 8 3 22q0 73 -68.5 119.5t-166.5 46.5q-107 0 -200.5 -63.5zM792 389l13 73l-242 -9q-131 -4 -196 -50.5t-65 -125.5 q0 -56 45.5 -80.5t142.5 -24.5q266 0 302 217z" />
<glyph unicode="&#xe7;" horiz-adv-x="1230" d="M1105.5 490.5q27.5 -16.5 27.5 -60.5q0 -116 -68 -209t-182.5 -150t-253.5 -69l-100 -118q58 -14 103 -49.5t45 -97.5q0 -95 -83 -151t-207 -56q-42 0 -86 8.5t-74 23.5q-51 20 -51 57q0 36 23.5 60.5t61.5 24.5q10 0 55 -12q6 -2 37.5 -10.5t58.5 -8.5q107 0 107 54 q0 24 -26.5 36t-87.5 22q-69 12 -68 67q0 12 12 41l97 119q-161 35 -260 150t-99 268q0 174 79.5 319t220 230t314.5 85q110 0 216.5 -44.5t173.5 -120.5t67 -163q0 -51 -38 -77t-96 -26q-39 0 -61 21t-34 60q-6 33 -34 68t-75.5 60t-105.5 25q-101 0 -188.5 -63.5 t-137 -165t-49.5 -208.5t63.5 -170t185.5 -63q93 0 165 35t112.5 90t40.5 108q0 30 35.5 53.5t84.5 23.5q52 0 79.5 -16.5z" />
<glyph unicode="&#xe8;" horiz-adv-x="1248" d="M323.5 44.5q-112.5 60.5 -172.5 166t-60 237.5q0 166 80.5 308t220 225t311.5 83q126 0 233.5 -45.5t173 -137t65.5 -217.5q0 -205 -161 -204l-704 -10q-2 -12 -2 -32q0 -101 78 -166.5t204 -65.5q101 0 164 33t136 95q39 31 72 31q37 0 67 -25.5t30 -60.5q0 -38 -33 -79 q-69 -79 -168.5 -137.5t-267.5 -58.5q-154 0 -266.5 60.5zM922 624q31 0 41 10.5t10 40.5q0 95 -74 146.5t-185 51.5q-99 0 -182.5 -43.5t-134 -104.5t-58.5 -109zM794 1152q-19 11 -37 36l-132 178q-27 37 -27 75q0 44 32.5 76t76.5 32q49 0 92 -59l119 -177q23 -37 23 -68 q0 -41 -31.5 -72.5t-71.5 -31.5q-25 0 -44 11z" />
<glyph unicode="&#xe9;" horiz-adv-x="1248" d="M323.5 44.5q-112.5 60.5 -172.5 166t-60 237.5q0 166 80.5 308t220 225t311.5 83q126 0 233.5 -45.5t173 -137t65.5 -217.5q0 -205 -161 -204l-704 -10q-2 -12 -2 -32q0 -101 78 -166.5t204 -65.5q101 0 164 33t136 95q39 31 72 31q37 0 67 -25.5t30 -60.5q0 -38 -33 -79 q-69 -79 -168.5 -137.5t-267.5 -58.5q-154 0 -266.5 60.5zM922 624q31 0 41 10.5t10 40.5q0 95 -74 146.5t-185 51.5q-99 0 -182.5 -43.5t-134 -104.5t-58.5 -109zM608 1181q-20 21 -20 54q0 50 42 91l219 219q33 34 60 47t57 13q37 0 59 -23t22 -58q0 -55 -68 -121 l-217 -195q-31 -27 -53 -37.5t-49 -10.5q-32 0 -52 21z" />
<glyph unicode="&#xea;" horiz-adv-x="1248" d="M323.5 44.5q-112.5 60.5 -172.5 166t-60 237.5q0 166 80.5 308t220 225t311.5 83q126 0 233.5 -45.5t173 -137t65.5 -217.5q0 -205 -161 -204l-704 -10q-2 -12 -2 -32q0 -101 78 -166.5t204 -65.5q101 0 164 33t136 95q39 31 72 31q37 0 67 -25.5t30 -60.5q0 -38 -33 -79 q-69 -79 -168.5 -137.5t-267.5 -58.5q-154 0 -266.5 60.5zM922 624q31 0 41 10.5t10 40.5q0 95 -74 146.5t-185 51.5q-99 0 -182.5 -43.5t-134 -104.5t-58.5 -109zM933 1186l-59 93q-25 41 -44 71t-27 30t-32.5 -20t-48 -42.5t-42.5 -38.5l-74 -71q-34 -27 -55.5 -39.5 t-41.5 -12.5q-34 0 -57.5 23t-23.5 56q0 18 10 41t31 42q38 33 64 60q105 95 174.5 148t119.5 53q57 0 93.5 -35.5t93.5 -120.5q43 -71 82 -120q17 -25 17 -48q0 -43 -32.5 -76t-75.5 -33q-52 0 -72 40z" />
<glyph unicode="&#xeb;" horiz-adv-x="1248" d="M323.5 44.5q-112.5 60.5 -172.5 166t-60 237.5q0 166 80.5 308t220 225t311.5 83q126 0 233.5 -45.5t173 -137t65.5 -217.5q0 -205 -161 -204l-704 -10q-2 -12 -2 -32q0 -101 78 -166.5t204 -65.5q101 0 164 33t136 95q39 31 72 31q37 0 67 -25.5t30 -60.5q0 -38 -33 -79 q-69 -79 -168.5 -137.5t-267.5 -58.5q-154 0 -266.5 60.5zM922 624q31 0 41 10.5t10 40.5q0 95 -74 146.5t-185 51.5q-99 0 -182.5 -43.5t-134 -104.5t-58.5 -109zM402 1204q-34 35 -34 87q0 66 51.5 115.5t118.5 49.5q51 0 88 -35t37 -85q0 -63 -54.5 -115t-121.5 -52 q-51 0 -85 35zM948 1204q-34 35 -34 87q0 66 52 115.5t117 49.5q52 0 88.5 -34t36.5 -84q0 -63 -53.5 -116t-120.5 -53q-52 0 -86 35z" />
<glyph unicode="&#xec;" horiz-adv-x="698" d="M172.5 31q-30.5 25 -30.5 64q0 12 2 21l164 825q8 50 49.5 78.5t98.5 28.5q51 0 81 -24.5t30 -68.5l-2 -18l-172 -825q-10 -45 -48.5 -75.5t-92.5 -30.5q-49 0 -79.5 25zM498 1152q-19 11 -37 36l-132 178q-27 37 -27 75q0 44 32.5 76t76.5 32q49 0 92 -59l119 -177 q23 -37 23 -68q0 -41 -31.5 -72.5t-71.5 -31.5q-25 0 -44 11z" />
<glyph unicode="&#xed;" horiz-adv-x="698" d="M172.5 31q-30.5 25 -30.5 64q0 12 2 21l164 825q8 50 49.5 78.5t98.5 28.5q51 0 81 -24.5t30 -68.5l-2 -18l-172 -825q-10 -45 -48.5 -75.5t-92.5 -30.5q-49 0 -79.5 25zM322 1179.5q-23 26.5 -23 58.5q0 48 56 91l205 164q46 35 69.5 49.5t48.5 14.5q36 0 58 -27t22 -62 q0 -57 -64 -106l-221 -165q-33 -26 -53 -35t-42 -9q-33 0 -56 26.5z" />
<glyph unicode="&#xee;" horiz-adv-x="698" d="M172.5 31q-30.5 25 -30.5 64q0 12 2 21l164 825q8 50 49.5 78.5t98.5 28.5q51 0 81 -24.5t30 -68.5l-2 -18l-172 -825q-10 -45 -48.5 -75.5t-92.5 -30.5q-49 0 -79.5 25zM637 1186l-59 93q-25 41 -44 71t-27 30t-32.5 -20t-48 -42.5t-42.5 -38.5l-74 -71 q-34 -27 -55.5 -39.5t-41.5 -12.5q-34 0 -57.5 23t-23.5 56q0 18 10 41t31 42q38 33 64 60q105 95 174.5 148t119.5 53q57 0 93.5 -35.5t93.5 -120.5q43 -71 82 -120q17 -25 17 -48q0 -43 -32.5 -76t-75.5 -33q-52 0 -72 40z" />
<glyph unicode="&#xef;" horiz-adv-x="698" d="M172.5 31q-30.5 25 -30.5 64q0 12 2 21l164 825q8 50 49.5 78.5t98.5 28.5q51 0 81 -24.5t30 -68.5l-2 -18l-172 -825q-10 -45 -48.5 -75.5t-92.5 -30.5q-49 0 -79.5 25zM106 1204q-34 35 -34 87q0 66 51.5 115.5t118.5 49.5q51 0 88 -35t37 -85q0 -63 -54.5 -115 t-121.5 -52q-51 0 -85 35zM652 1204q-34 35 -34 87q0 66 52 115.5t117 49.5q52 0 88.5 -34t36.5 -84q0 -63 -53.5 -116t-120.5 -53q-52 0 -86 35z" />
<glyph unicode="&#xf0;" horiz-adv-x="1259" d="M1149 943.5q32 -128.5 32 -250.5q0 -201 -77.5 -358t-219.5 -245t-327 -88q-137 0 -243.5 57t-165.5 154t-59 215q0 166 80.5 303.5t219 216t304.5 78.5q89 0 163 -25q-20 41 -43 73q-35 49 -71 89l-132 -69q-51 -23 -87 -22q-35 0 -60 26.5t-23 64.5q0 47 65 78l81 42 l-57 30q-29 14 -42 30t-13 39q0 49 38 89.5t88 40.5q35 0 103 -31q12 -8 50.5 -28t73.5 -44l168 87q20 10 39 10q36 0 63.5 -27t27.5 -68q0 -33 -16.5 -51t-58.5 -40l-75 -39q45 -48 79 -108q63 -101 95 -229.5zM823 336.5q93 133.5 101 334.5q-33 70 -90.5 114t-140.5 44 q-97 0 -178 -55.5t-126.5 -146t-45.5 -187.5q0 -107 60.5 -172t165.5 -65q161 0 254 133.5z" />
<glyph unicode="&#xf1;" horiz-adv-x="1172" d="M997 964.5q87 -89.5 87 -252.5q0 -56 -22 -191.5t-51 -301.5l-22 -126q-8 -44 -46.5 -68.5t-94.5 -24.5q-57 0 -88.5 26t-25.5 67l46 267q20 122 35.5 218.5t15.5 130.5q0 77 -26.5 112t-86.5 35q-79 0 -140 -65t-112 -214q-34 -99 -52 -208l-9 -53q-20 -130 -39 -225 q-8 -44 -45 -68.5t-94 -24.5q-59 0 -89.5 25.5t-23.5 67.5l10 61q71 414 99 632q4 29 -1 51.5t-13 42.5t-12 28q-10 16 -11 37q-2 42 47 73.5t92 31.5q44 0 76 -51q16 -25 25.5 -60t7.5 -56l-4 -25q107 199 338 198q142 0 229 -89.5zM397.5 1199.5q-20.5 22.5 -20.5 53.5 q0 44 36 81q67 67 118.5 94.5t111.5 27.5q48 0 97.5 -13.5t90.5 -35.5q34 -20 55.5 -30.5t33.5 -10.5q18 0 41 22q26 23 44.5 33t38.5 10q34 0 57.5 -24.5t23.5 -60.5q0 -43 -41 -80q-103 -89 -199 -89q-40 0 -72.5 12.5t-57.5 27t-35 18.5q-69 40 -96 40q-12 0 -29.5 -14 t-31 -25.5t-20.5 -17.5q-47 -41 -91 -41q-34 0 -54.5 22.5z" />
<glyph unicode="&#xf2;" horiz-adv-x="1244" d="M199.5 106.5q-139.5 110.5 -139.5 335.5q0 166 79.5 311t223.5 232t326 87q229 0 367 -127.5t138 -358.5q0 -166 -77 -300t-217 -212t-327 -78q-234 0 -373.5 110.5zM841.5 304q97.5 112 97.5 282q0 132 -65 209.5t-185 77.5q-110 0 -196 -62.5t-132.5 -161.5t-46.5 -207 q0 -130 72 -190t187 -60q171 0 268.5 112zM775 1152q-19 11 -37 36l-132 178q-27 37 -27 75q0 44 32.5 76t76.5 32q49 0 92 -59l119 -177q23 -37 23 -68q0 -41 -31.5 -72.5t-71.5 -31.5q-25 0 -44 11z" />
<glyph unicode="&#xf3;" horiz-adv-x="1244" d="M199.5 106.5q-139.5 110.5 -139.5 335.5q0 166 79.5 311t223.5 232t326 87q229 0 367 -127.5t138 -358.5q0 -166 -77 -300t-217 -212t-327 -78q-234 0 -373.5 110.5zM841.5 304q97.5 112 97.5 282q0 132 -65 209.5t-185 77.5q-110 0 -196 -62.5t-132.5 -161.5t-46.5 -207 q0 -130 72 -190t187 -60q171 0 268.5 112zM600 1179.5q-23 26.5 -23 58.5q0 48 56 91l205 164q46 35 69.5 49.5t48.5 14.5q36 0 58 -27t22 -62q0 -57 -64 -106l-221 -165q-33 -26 -53 -35t-42 -9q-33 0 -56 26.5z" />
<glyph unicode="&#xf4;" horiz-adv-x="1244" d="M199.5 106.5q-139.5 110.5 -139.5 335.5q0 166 79.5 311t223.5 232t326 87q229 0 367 -127.5t138 -358.5q0 -166 -77 -300t-217 -212t-327 -78q-234 0 -373.5 110.5zM841.5 304q97.5 112 97.5 282q0 132 -65 209.5t-185 77.5q-110 0 -196 -62.5t-132.5 -161.5t-46.5 -207 q0 -130 72 -190t187 -60q171 0 268.5 112zM914 1186l-59 93q-25 41 -44 71t-27 30t-32.5 -20t-48 -42.5t-42.5 -38.5l-74 -71q-34 -27 -55.5 -39.5t-41.5 -12.5q-34 0 -57.5 23t-23.5 56q0 18 10 41t31 42q38 33 64 60q105 95 174.5 148t119.5 53q57 0 93.5 -35.5 t93.5 -120.5q43 -71 82 -120q17 -25 17 -48q0 -43 -32.5 -76t-75.5 -33q-52 0 -72 40z" />
<glyph unicode="&#xf5;" horiz-adv-x="1244" d="M199.5 106.5q-139.5 110.5 -139.5 335.5q0 166 79.5 311t223.5 232t326 87q229 0 367 -127.5t138 -358.5q0 -166 -77 -300t-217 -212t-327 -78q-234 0 -373.5 110.5zM841.5 304q97.5 112 97.5 282q0 132 -65 209.5t-185 77.5q-110 0 -196 -62.5t-132.5 -161.5t-46.5 -207 q0 -130 72 -190t187 -60q171 0 268.5 112zM411.5 1199.5q-20.5 22.5 -20.5 53.5q0 44 36 81q67 67 118.5 94.5t111.5 27.5q48 0 97.5 -13.5t90.5 -35.5q34 -20 55.5 -30.5t33.5 -10.5q18 0 41 22q26 23 44.5 33t38.5 10q34 0 57.5 -24.5t23.5 -60.5q0 -43 -41 -80 q-103 -89 -199 -89q-40 0 -72.5 12.5t-57.5 27t-35 18.5q-69 40 -96 40q-12 0 -29.5 -14t-31 -25.5t-20.5 -17.5q-47 -41 -91 -41q-34 0 -54.5 22.5z" />
<glyph unicode="&#xf6;" horiz-adv-x="1244" d="M199.5 106.5q-139.5 110.5 -139.5 335.5q0 166 79.5 311t223.5 232t326 87q229 0 367 -127.5t138 -358.5q0 -166 -77 -300t-217 -212t-327 -78q-234 0 -373.5 110.5zM841.5 304q97.5 112 97.5 282q0 132 -65 209.5t-185 77.5q-110 0 -196 -62.5t-132.5 -161.5t-46.5 -207 q0 -130 72 -190t187 -60q171 0 268.5 112zM383 1204q-34 35 -34 87q0 66 51.5 115.5t118.5 49.5q51 0 88 -35t37 -85q0 -63 -54.5 -115t-121.5 -52q-51 0 -85 35zM929 1204q-34 35 -34 87q0 66 52 115.5t117 49.5q52 0 88.5 -34t36.5 -84q0 -63 -53.5 -116t-120.5 -53 q-52 0 -86 35z" />
<glyph unicode="&#xf7;" d="M544 862.5q-31 29.5 -31 74.5q0 60 48.5 104.5t109.5 44.5q47 0 80 -30t33 -75q0 -60 -47.5 -104t-109.5 -44q-52 0 -83 29.5zM152 557q-22 20 -22 49q0 33 34 77q41 47 113 76t155 29q56 0 118 -11t103 -27q30 -10 80.5 -17t85.5 -7q44 0 93 24q6 2 27 11t44 9 q35 0 57 -22t22 -59q0 -56 -79 -101q-36 -18 -95 -32t-106 -14q-54 0 -118 13.5t-110 32.5q-59 23 -142 22q-53 0 -116 -39q-54 -34 -93 -34q-29 0 -51 20zM444 263.5q-32 30.5 -32 77.5q0 60 53.5 104.5t111.5 44.5q47 0 79.5 -31t32.5 -76q0 -60 -49.5 -105t-112.5 -45 q-51 0 -83 30.5z" />
<glyph unicode="&#xf8;" horiz-adv-x="1246" d="M1216.5 1116.5q20.5 -20.5 20.5 -48.5q0 -42 -35 -73l-101 -97q95 -124 95 -312q0 -166 -77 -300t-218 -212t-328 -78q-197 0 -325 77l-116 -112q-23 -21 -40 -29.5t-40 -8.5q-34 0 -56.5 24t-18.5 57q6 33 35 63l120 115q-72 105 -72 260q0 166 80.5 311t224.5 232 t326 87q170 0 290 -71l101 100q16 18 39 27t44 9q31 0 51.5 -20.5zM325 369l492 475q-53 30 -126 29q-112 0 -196.5 -62.5t-131.5 -161.5t-47 -207q1 -42 9 -73zM918 720l-504 -489q64 -39 159 -39q173 0 269.5 112t96.5 282q-1 79 -21 134z" />
<glyph unicode="&#xf9;" horiz-adv-x="1166" d="M945 219q-2 -31 7.5 -56t11.5 -29q14 -25 15 -43q0 -29 -39.5 -62t-76.5 -33q-48 0 -91.5 44.5t-41.5 105.5v2q-112 -151 -318 -150q-148 0 -225 88t-77 243q0 50 22 186t38 225t22 127l17 86q8 40 47.5 65.5t90.5 25.5q54 0 87.5 -25.5t25.5 -65.5l-32 -177 q-63 -342 -64 -418q0 -164 116 -163q101 0 165 93t99 293q30 151 67 370q8 50 47.5 76.5t94.5 26.5q56 0 87.5 -29.5t25.5 -73.5l-113 -651zM705 1152q-19 11 -37 36l-132 178q-27 37 -27 75q0 44 32.5 76t76.5 32q49 0 92 -59l119 -177q23 -37 23 -68q0 -41 -31.5 -72.5 t-71.5 -31.5q-25 0 -44 11z" />
<glyph unicode="&#xfa;" horiz-adv-x="1166" d="M945 219q-2 -31 7.5 -56t11.5 -29q14 -25 15 -43q0 -29 -39.5 -62t-76.5 -33q-48 0 -91.5 44.5t-41.5 105.5v2q-112 -151 -318 -150q-148 0 -225 88t-77 243q0 50 22 186t38 225t22 127l17 86q8 40 47.5 65.5t90.5 25.5q54 0 87.5 -25.5t25.5 -65.5l-32 -177 q-63 -342 -64 -418q0 -164 116 -163q101 0 165 93t99 293q30 151 67 370q8 50 47.5 76.5t94.5 26.5q56 0 87.5 -29.5t25.5 -73.5l-113 -651zM530 1179.5q-23 26.5 -23 58.5q0 48 56 91l205 164q46 35 69.5 49.5t48.5 14.5q36 0 58 -27t22 -62q0 -57 -64 -106l-221 -165 q-33 -26 -53 -35t-42 -9q-33 0 -56 26.5z" />
<glyph unicode="&#xfb;" horiz-adv-x="1166" d="M945 219q-2 -31 7.5 -56t11.5 -29q14 -25 15 -43q0 -29 -39.5 -62t-76.5 -33q-48 0 -91.5 44.5t-41.5 105.5v2q-112 -151 -318 -150q-148 0 -225 88t-77 243q0 50 22 186t38 225t22 127l17 86q8 40 47.5 65.5t90.5 25.5q54 0 87.5 -25.5t25.5 -65.5l-32 -177 q-63 -342 -64 -418q0 -164 116 -163q101 0 165 93t99 293q30 151 67 370q8 50 47.5 76.5t94.5 26.5q56 0 87.5 -29.5t25.5 -73.5l-113 -651zM844 1186l-59 93q-25 41 -44 71t-27 30t-32.5 -20t-48 -42.5t-42.5 -38.5l-74 -71q-34 -27 -55.5 -39.5t-41.5 -12.5 q-34 0 -57.5 23t-23.5 56q0 18 10 41t31 42q38 33 64 60q105 95 174.5 148t119.5 53q57 0 93.5 -35.5t93.5 -120.5q43 -71 82 -120q17 -25 17 -48q0 -43 -32.5 -76t-75.5 -33q-52 0 -72 40z" />
<glyph unicode="&#xfc;" horiz-adv-x="1166" d="M945 219q-2 -31 7.5 -56t11.5 -29q14 -25 15 -43q0 -29 -39.5 -62t-76.5 -33q-48 0 -91.5 44.5t-41.5 105.5v2q-112 -151 -318 -150q-148 0 -225 88t-77 243q0 50 22 186t38 225t22 127l17 86q8 40 47.5 65.5t90.5 25.5q54 0 87.5 -25.5t25.5 -65.5l-32 -177 q-63 -342 -64 -418q0 -164 116 -163q101 0 165 93t99 293q30 151 67 370q8 50 47.5 76.5t94.5 26.5q56 0 87.5 -29.5t25.5 -73.5l-113 -651zM313 1204q-34 35 -34 87q0 66 51.5 115.5t118.5 49.5q51 0 88 -35t37 -85q0 -63 -54.5 -115t-121.5 -52q-51 0 -85 35zM859 1204 q-34 35 -34 87q0 66 52 115.5t117 49.5q52 0 88.5 -34t36.5 -84q0 -63 -53.5 -116t-120.5 -53q-52 0 -86 35z" />
<glyph unicode="&#xfd;" horiz-adv-x="1105" d="M204.5 -514q-30.5 28 -28.5 70q0 31 16 59q51 85 131 234t105 194l44 83q-85 79 -155.5 216.5t-111.5 293.5t-41 286q0 20 2 35q4 44 42 70.5t94 26.5q49 0 66 -19t19 -58q12 -245 66 -410.5t120 -241.5q76 162 234 521l60 139q16 41 42 57.5t72 16.5q59 0 91.5 -26 t28.5 -69q0 -13 -7 -23q-180 -420 -356 -775q-246 -497 -328 -632q-23 -37 -49 -56.5t-71 -19.5q-55 0 -85.5 28zM530 1179.5q-23 26.5 -23 58.5q0 48 56 91l205 164q46 35 69.5 49.5t48.5 14.5q36 0 58 -27t22 -62q0 -57 -64 -106l-221 -165q-33 -26 -53 -35t-42 -9 q-33 0 -56 26.5z" />
<glyph unicode="&#xfe;" horiz-adv-x="1238" d="M945 1012.5q103 -55.5 163.5 -156.5t60.5 -236q0 -190 -75.5 -329t-218.5 -215t-338 -76q-80 0 -151.5 24.5t-124.5 64.5q-44 -229 -89 -405q-10 -44 -51.5 -70t-95.5 -26q-45 0 -74.5 23t-29.5 60q0 39 83 410q43 205 95 500q47 270 75 430q20 118 36.5 211.5 t29.5 155.5q8 51 46.5 80.5t92.5 29.5q55 0 88.5 -29.5t24.5 -72.5l-74 -407q62 41 137.5 65t156.5 24q130 0 233 -55.5zM740 253.5q85 56.5 129.5 153t44.5 213.5q0 120 -66 185.5t-169 65.5q-64 0 -129.5 -30t-114 -72.5t-64.5 -77.5q0 -4 -20 -110l-14 -80l-15 -71 l-26 -146q12 -29 88 -58t153 -29q118 0 203 56.5z" />
<glyph unicode="&#xff;" horiz-adv-x="1105" d="M204.5 -514q-30.5 28 -28.5 70q0 31 16 59q51 85 131 234t105 194l44 83q-85 79 -155.5 216.5t-111.5 293.5t-41 286q0 20 2 35q4 44 42 70.5t94 26.5q49 0 66 -19t19 -58q12 -245 66 -410.5t120 -241.5q76 162 234 521l60 139q16 41 42 57.5t72 16.5q59 0 91.5 -26 t28.5 -69q0 -13 -7 -23q-180 -420 -356 -775q-246 -497 -328 -632q-23 -37 -49 -56.5t-71 -19.5q-55 0 -85.5 28zM313 1204q-34 35 -34 87q0 66 51.5 115.5t118.5 49.5q51 0 88 -35t37 -85q0 -63 -54.5 -115t-121.5 -52q-51 0 -85 35zM859 1204q-34 35 -34 87q0 66 52 115.5 t117 49.5q52 0 88.5 -34t36.5 -84q0 -63 -53.5 -116t-120.5 -53q-52 0 -86 35z" />
<glyph unicode="&#x131;" horiz-adv-x="698" d="M172.5 31q-30.5 25 -30.5 64q0 12 2 21l164 825q8 50 49.5 78.5t98.5 28.5q51 0 81 -24.5t30 -68.5l-2 -18l-172 -825q-10 -45 -48.5 -75.5t-92.5 -30.5q-49 0 -79.5 25z" />
<glyph unicode="&#x152;" horiz-adv-x="2078" d="M2147 1354q0 -122 -118 -119q-81 6 -239 6q-97 0 -218 -4l-19 -124q-18 -114 -14 -95q-4 -27 -19 -106q-4 -16 -16 -81h281q57 0 84.5 -18.5t27.5 -62.5q0 -53 -34.5 -90.5t-89.5 -37.5q-197 0 -319 -2q-37 -190 -86 -407q68 -6 245 -6q79 2 149 10q11 0 34.5 3t48.5 3 q46 0 62.5 -18.5t16.5 -56.5q-2 -88 -91 -109q-67 -10 -258 -10h-87l-220 -2q-73 0 -122 2q-68 0 -94 14.5t-26 47.5q0 45 32 75.5t77 30.5l25 128q-74 -118 -221 -211.5t-325 -93.5q-229 0 -356.5 158.5t-127.5 433.5q0 231 95 428t261.5 313t369.5 116q133 0 235.5 -49.5 t162 -133.5t72.5 -188l10 58l12 93q-41 0 -41 62q0 49 27 81.5t85 34.5l48 2q217 10 349 10q130 0 286 -10q45 -2 45 -75zM956 331.5q114 100.5 176 251.5t62 298q0 177 -94.5 286.5t-243.5 109.5q-136 0 -245.5 -89.5t-172.5 -236t-63 -314.5q0 -205 91 -305.5t231 -100.5 q145 0 259 100.5z" />
<glyph unicode="&#x153;" horiz-adv-x="2094" d="M1808 1018.5q103 -47.5 162 -130.5t59 -189q0 -33 -6 -70q-12 -79 -52.5 -114t-123.5 -37l-670 -16q-6 -26 -6 -48q0 -55 31 -106t90.5 -83.5t138.5 -32.5q101 0 170 37.5t149 107.5q56 48 93 48q32 0 55.5 -28t23.5 -61q0 -31 -21 -58q-184 -242 -464 -242 q-144 0 -254.5 64t-160.5 171q-75 -112 -194 -173.5t-269 -61.5q-147 0 -261 54.5t-176 153t-62 224.5q0 190 77.5 336t221.5 226t336 80q146 0 260.5 -71.5t157.5 -191.5q83 118 202.5 188.5t261.5 70.5q128 0 231 -47.5zM843.5 306q97.5 114 97.5 304q0 122 -67 192.5 t-179 70.5q-114 0 -201 -62.5t-133.5 -164.5t-46.5 -218q0 -112 69.5 -174t179.5 -62q183 0 280.5 114zM1368.5 804.5q-93.5 -64.5 -139.5 -157.5l561 15q4 33 4 45q0 73 -63 117.5t-172 44.5q-97 0 -190.5 -64.5z" />
<glyph unicode="&#x178;" horiz-adv-x="1354" d="M517 29q-29 25 -29 66q0 18 2 27l96 563q-38 6 -97 82.5t-96 159.5q-97 209 -132 384q-2 8 -2 25q0 54 51.5 84t117.5 30q44 0 68.5 -22.5t38.5 -73.5q48 -189 100 -316q71 -163 109 -163q26 0 74.5 49t97.5 116q54 71 110 157t66 102l41 65q8 10 25 34.5t35.5 36 t47.5 11.5q60 0 103.5 -35t43.5 -81q0 -25 -16 -51q-36 -71 -113.5 -181.5t-137.5 -187.5q-73 -89 -160.5 -155t-123.5 -70l-91 -557q-10 -57 -48 -90.5t-100 -33.5q-52 0 -81 25zM505 1618q-34 35 -34 87q0 66 51.5 115.5t118.5 49.5q51 0 88 -35t37 -85q0 -63 -54.5 -115 t-121.5 -52q-51 0 -85 35zM1051 1618q-34 35 -34 87q0 66 52 115.5t117 49.5q52 0 88.5 -34t36.5 -84q0 -63 -53.5 -116t-120.5 -53q-52 0 -86 35z" />
<glyph unicode="&#x2c6;" horiz-adv-x="1153" d="M869 1186q-54 85 -96.5 139.5t-54.5 54.5q-14 0 -74 -47.5t-143 -124.5q-33 -27 -55 -39.5t-43 -12.5q-33 0 -57 23t-24 56q0 18 10.5 41t31.5 42l43 36q107 97 194.5 161t140.5 64q62 0 107 -41.5t111 -134.5q37 -56 72 -100q16 -25 16 -48q0 -43 -31.5 -76t-75.5 -33 q-52 0 -72 40z" />
<glyph unicode="&#x2dc;" horiz-adv-x="944" d="M196.5 1193.5q-22.5 24.5 -22.5 57.5q0 34 23 67q47 60 121.5 93t161.5 33q72 0 114.5 -10.5t84.5 -28.5q33 -16 60 -23.5t68 -7.5q54 0 74 16q41 35 76 35q38 0 63.5 -23.5t25.5 -59.5q0 -43 -41 -81q-93 -90 -237 -90q-54 0 -97.5 10.5t-105.5 30.5q-85 31 -133 31 q-49 0 -83 -27q-33 -25 -52.5 -36t-37.5 -11q-40 0 -62.5 24.5z" />
<glyph unicode="&#x300;" horiz-adv-x="0" d="M151 1152q-19 11 -37 36l-132 178q-27 37 -27 75q0 44 32.5 76t76.5 32q49 0 92 -59l119 -177q23 -37 23 -68q0 -41 -31.5 -72.5t-71.5 -31.5q-25 0 -44 11z" />
<glyph unicode="&#x301;" horiz-adv-x="0" d="M-29 1161.5q-23 26.5 -23 58.5q0 48 56 91l205 164q46 35 69.5 49.5t48.5 14.5q36 0 58 -27t22 -62q0 -57 -64 -106l-221 -165q-33 -26 -53 -35t-42 -9q-33 0 -56 26.5z" />
<glyph unicode="&#x302;" horiz-adv-x="0" d="M290 1186l-59 93q-25 41 -44 71t-27 30t-32.5 -20t-48 -42.5t-42.5 -38.5l-74 -71q-34 -27 -55.5 -39.5t-41.5 -12.5q-34 0 -57.5 23t-23.5 56q0 18 10 41t31 42q38 33 64 60q105 95 174.5 148t119.5 53q57 0 93.5 -35.5t93.5 -120.5q43 -71 82 -120q17 -25 17 -48 q0 -43 -32.5 -76t-75.5 -33q-52 0 -72 40z" />
<glyph unicode="&#x303;" horiz-adv-x="0" d="M-212.5 1199.5q-20.5 22.5 -20.5 53.5q0 44 36 81q67 67 118.5 94.5t111.5 27.5q48 0 97.5 -13.5t90.5 -35.5q34 -20 55.5 -30.5t33.5 -10.5q18 0 41 22q26 23 44.5 33t38.5 10q34 0 57.5 -24.5t23.5 -60.5q0 -43 -41 -80q-103 -89 -199 -89q-40 0 -72.5 12.5t-57.5 27 t-35 18.5q-69 40 -96 40q-12 0 -29.5 -14t-31 -25.5t-20.5 -17.5q-47 -41 -91 -41q-34 0 -54.5 22.5z" />
<glyph unicode="&#x308;" horiz-adv-x="0" d="M-241 1204q-34 35 -34 87q0 66 51.5 115.5t118.5 49.5q51 0 88 -35t37 -85q0 -63 -54.5 -115t-121.5 -52q-51 0 -85 35zM305 1204q-34 35 -34 87q0 66 52 115.5t117 49.5q52 0 88.5 -34t36.5 -84q0 -63 -53.5 -116t-120.5 -53q-52 0 -86 35z" />
<glyph unicode="&#x30a;" horiz-adv-x="0" d="M-40 1176q-65 65 -65 158q0 77 41 143t111.5 105.5t151.5 39.5q93 0 155 -65t62 -154q0 -79 -39.5 -146t-107.5 -106.5t-149 -39.5q-95 0 -160 65zM221.5 1298q35.5 32 39.5 80q4 35 -20 63t-67 28q-50 0 -86 -35.5t-36 -81.5q0 -39 23.5 -62.5t62.5 -23.5q48 0 83.5 32z " />
<glyph unicode="&#x2000;" horiz-adv-x="1018" />
<glyph unicode="&#x2001;" horiz-adv-x="2036" />
<glyph unicode="&#x2002;" horiz-adv-x="1018" />
<glyph unicode="&#x2003;" horiz-adv-x="2036" />
<glyph unicode="&#x2004;" horiz-adv-x="678" />
<glyph unicode="&#x2005;" horiz-adv-x="509" />
<glyph unicode="&#x2006;" horiz-adv-x="339" />
<glyph unicode="&#x2007;" horiz-adv-x="339" />
<glyph unicode="&#x2008;" horiz-adv-x="254" />
<glyph unicode="&#x2009;" horiz-adv-x="407" />
<glyph unicode="&#x200a;" horiz-adv-x="113" />
<glyph unicode="&#x2010;" horiz-adv-x="872" d="M149 688q-19 24 -19 56q0 54 32.5 90.5t79.5 36.5l238 -2q142 0 264 8q48 4 73 -19t25 -62q0 -52 -37 -89.5t-93 -40.5q-116 -6 -284 -6q-68 0 -103 2l-126 2q-31 0 -50 24z" />
<glyph unicode="&#x2011;" horiz-adv-x="872" d="M149 688q-19 24 -19 56q0 54 32.5 90.5t79.5 36.5l238 -2q142 0 264 8q48 4 73 -19t25 -62q0 -52 -37 -89.5t-93 -40.5q-116 -6 -284 -6q-68 0 -103 2l-126 2q-31 0 -50 24z" />
<glyph unicode="&#x2012;" horiz-adv-x="872" d="M149 688q-19 24 -19 56q0 54 32.5 90.5t79.5 36.5l238 -2q142 0 264 8q48 4 73 -19t25 -62q0 -52 -37 -89.5t-93 -40.5q-116 -6 -284 -6q-68 0 -103 2l-126 2q-31 0 -50 24z" />
<glyph unicode="&#x2013;" horiz-adv-x="1693" d="M217 683q-39 4 -62 27.5t-23 59.5q0 51 42.5 88.5t92.5 33.5q221 -18 408 -19q91 0 189 3t143 3q207 8 337 9l116 -2q36 -2 106 -3q45 0 72 -22t27 -58q0 -50 -42 -87t-92 -37q-63 0 -98 2l-107 2q-180 0 -381 -10q-235 -8 -374 -9q-145 1 -354 19z" />
<glyph unicode="&#x2014;" horiz-adv-x="3199" d="M421 679q-144 2 -210 12q-37 6 -57 27.5t-20 57.5q0 47 39.5 85.5t93.5 36.5q144 -12 664 -12q182 0 365 1t367 3q186 2 372.5 3t374.5 1q209 0 465 -8q178 -4 224 -5q31 0 50.5 -23t19.5 -57q0 -52 -32 -88t-76 -36l-181 4q-330 6 -404 6q-195 0 -394 -1t-400 -3 q-405 -6 -805 -6q-312 0 -456 2z" />
<glyph unicode="&#x2018;" horiz-adv-x="592" d="M542.5 1265q43.5 -30 43.5 -100q0 -79 -56 -130.5t-141 -53.5q-71 0 -110 38t-39 104q0 91 63 192.5t137 159.5q36 27 61 27q23 0 41.5 -14.5t18.5 -37.5q0 -31 -30 -64q-61 -62 -87 -91q55 0 98.5 -30zM465.5 1184.5q-12.5 13.5 -39.5 13.5q-33 0 -56 -23t-23 -52 q0 -18 14 -31.5t40 -13.5q31 -2 54 20.5t23 51.5q0 21 -12.5 34.5z" />
<glyph unicode="&#x2019;" horiz-adv-x="598" d="M581 1471.5q46 -40.5 46 -107.5q0 -93 -57 -183.5t-150 -162.5q-35 -25 -58 -25q-26 0 -45 18.5t-19 34.5q0 30 24 57q14 12 41.5 39t52.5 56q-51 0 -96 33t-45 99q0 83 54 132.5t135 49.5q71 0 117 -40.5zM434 1297q36 0 56.5 21.5t20.5 51.5q0 45 -58 45 q-29 0 -49.5 -21.5t-20.5 -49.5q0 -47 51 -47z" />
<glyph unicode="&#x201a;" horiz-adv-x="598" d="M362.5 264.5q42.5 -39.5 42.5 -106.5q0 -89 -52.5 -170t-147.5 -176q-35 -31 -61 -31q-27 0 -45 14.5t-18 36.5q0 36 33 67q58 58 83 87h-9q-54 0 -93 33t-39 91q0 87 53 140.5t139 53.5q72 0 114.5 -39.5zM273 109.5q23 22.5 23 52.5q0 45 -58 45q-27 0 -48.5 -17.5 t-23.5 -45.5q-4 -57 51 -57q33 0 56 22.5z" />
<glyph unicode="&#x201c;" horiz-adv-x="985" d="M935.5 1273q43.5 -34 43.5 -102q0 -79 -54 -129.5t-141 -50.5q-73 0 -114 39.5t-41 110.5q0 156 200 340q18 16 30 23.5t31 7.5q23 0 43 -14.5t20 -41.5q0 -29 -33 -62l-28 -28q-31 -28 -57 -59h4q53 0 96.5 -34zM533.5 1260.5q43.5 -34.5 43.5 -106.5 q0 -76 -53.5 -123.5t-136.5 -49.5q-73 0 -113.5 36.5t-40.5 107.5q0 85 51 166t148 184q26 27 58 27q25 0 43.5 -14.5t18.5 -39.5q0 -31 -31 -62q-6 -6 -33.5 -32t-57.5 -59h4q56 0 99.5 -34.5zM846 1105.5q23 21.5 23 48.5q0 24 -12.5 38t-39.5 14q-33 0 -55 -24t-22 -55 q0 -41 54 -41q29 -2 52 19.5zM447 1096.5q23 18.5 23 51.5q0 24 -14 37t-38 13q-35 0 -57 -23t-22 -52q0 -45 54 -45q31 0 54 18.5z" />
<glyph unicode="&#x201d;" horiz-adv-x="996" d="M979.5 1473.5q44.5 -38.5 44.5 -105.5q0 -91 -55 -173t-152 -177q-35 -25 -57 -25q-28 0 -46.5 14.5t-18.5 38.5q0 34 31 61q4 4 31 30t58 61h-8q-52 0 -93 29.5t-41 96.5q0 83 52.5 133.5t135.5 54.5q74 0 118.5 -38.5zM577.5 1464.5q42.5 -39.5 42.5 -108.5 q0 -88 -51.5 -166.5t-148.5 -178.5q-35 -31 -60 -30q-28 0 -46 14t-18 37q0 30 33 66q58 57 83 88h-9q-54 0 -93 32.5t-39 90.5q0 87 53 141t140 54q71 0 113.5 -39.5zM831 1297q36 0 56.5 21.5t20.5 51.5q0 45 -58 45q-29 0 -49.5 -21.5t-20.5 -49.5q0 -47 51 -47z M488.5 1309.5q22.5 22.5 22.5 51.5q0 46 -58 46q-27 0 -48.5 -17.5t-23.5 -45.5q-4 -57 51 -57q34 0 56.5 22.5z" />
<glyph unicode="&#x201e;" horiz-adv-x="1011" d="M770.5 273.5q44.5 -38.5 44.5 -105.5q0 -95 -57 -187.5t-148 -162.5q-35 -25 -60 -25t-43.5 14.5t-18.5 38.5q0 34 29 61q44 35 89 91h-8q-52 0 -93 30t-41 96q0 85 52.5 136.5t134.5 51.5q75 0 119.5 -38.5zM369.5 264.5q42.5 -39.5 42.5 -106.5q0 -89 -53 -170 t-148 -176q-35 -31 -59 -31q-26 0 -45.5 14.5t-19.5 36.5q0 36 33 67q58 58 83 87h-6q-56 0 -95.5 33t-39.5 91q0 85 54 139.5t139 54.5q72 0 114.5 -39.5zM622 97q36 0 56.5 21.5t20.5 51.5q0 45 -58 45q-29 0 -49.5 -21.5t-20.5 -49.5q0 -47 51 -47zM280.5 109.5 q21.5 22.5 21.5 52.5q0 45 -58 45q-27 0 -47.5 -17.5t-22.5 -45.5q-4 -25 7 -41t42 -16q36 0 57.5 22.5z" />
<glyph unicode="&#x2022;" horiz-adv-x="1196" d="M535 128.5q-53 41.5 -53 109.5q-25 -45 -78 -73.5t-114 -28.5q-97 0 -157 60.5t-60 161.5q0 96 62 162t165 76q-29 18 -48 60.5t-19 89.5q0 121 81 194.5t213 73.5q91 0 145 -48t54 -127q0 -16 -2 -26q29 69 87 111t120 42q97 0 157 -61t60 -161q0 -101 -68.5 -173 t-177.5 -89q33 -14 54 -47.5t21 -72.5q0 -125 -83 -200t-217 -75q-89 0 -142 41.5zM764.5 306q34.5 31 34.5 81q0 10 -13.5 28.5t-35.5 32.5q-14 15 -14 38q0 35 16 59t42 30q63 16 105 48t46 68q4 43 -15.5 70t-56.5 27q-36 0 -69.5 -26t-57.5 -69q-8 -20 -29.5 -32 t-45.5 -12q-32 0 -49.5 17t-15.5 43l2 31q0 38 -21.5 61.5t-57.5 23.5q-43 0 -74 -25.5t-33 -67.5q-4 -27 5 -52t29 -39q16 -16 16 -43q0 -44 -19 -71.5t-52 -27.5q-54 0 -86.5 -29.5t-32.5 -74.5q0 -35 19 -56t53 -21q29 0 57.5 19t48.5 50q10 16 29.5 27.5t39.5 11.5 q30 0 46.5 -14.5t16.5 -38.5q0 -44 22.5 -71t58.5 -27q57 0 91.5 31zM518 461q-26 25 -26 66q0 50 33.5 81t84.5 31q48 0 76 -24.5t28 -64.5q0 -51 -34.5 -82.5t-89.5 -31.5q-46 0 -72 25zM629.5 514q11.5 11 11.5 32q0 13 -9.5 20t-25.5 7q-20 0 -31.5 -12.5t-11.5 -33.5 q0 -10 10.5 -17t26.5 -7q18 0 29.5 11z" />
<glyph unicode="&#x2026;" horiz-adv-x="1906" d="M135.5 40.5q-40.5 40.5 -40.5 103.5q0 77 48.5 123.5t127.5 46.5q63 0 104 -39.5t41 -102.5q0 -77 -49 -124.5t-127 -47.5q-64 0 -104.5 40.5zM768.5 40.5q-40.5 40.5 -40.5 103.5q0 77 49.5 123.5t128.5 46.5q64 0 104 -39.5t40 -102.5q0 -77 -48.5 -124.5t-126.5 -47.5 q-66 0 -106.5 40.5zM1406 40.5q-40 40.5 -40 103.5q0 77 49 123.5t128 46.5q64 0 104.5 -39.5t40.5 -102.5q0 -77 -48.5 -124.5t-127.5 -47.5q-66 0 -106 40.5z" />
<glyph unicode="&#x202f;" horiz-adv-x="407" />
<glyph unicode="&#x2039;" horiz-adv-x="764" d="M368.5 376q-84.5 62 -146.5 148t-62 153q0 72 95.5 168t221 168.5t196.5 72.5q27 0 43 -18t16 -46q0 -43 -18.5 -68t-60.5 -42q-66 -23 -142.5 -71.5t-129 -97t-52.5 -66.5q0 -21 34 -59.5t86 -75.5t101 -56q30 -10 45 -29t15 -43q0 -43 -29 -71.5t-66 -28.5 q-62 0 -146.5 62z" />
<glyph unicode="&#x203a;" horiz-adv-x="764" d="M140 332.5q-20 18.5 -20 50.5q0 35 26 63t67 40q58 18 127.5 67t120 97.5t50.5 67.5q0 31 -82 95t-168 99q-28 10 -39 25.5t-11 39.5q0 43 27 76t64 33q64 0 154 -63t157.5 -149t67.5 -152q0 -71 -91 -167.5t-211 -168.5t-193 -72q-26 0 -46 18.5z" />
<glyph unicode="&#x205f;" horiz-adv-x="509" />
<glyph unicode="&#x2081;" horiz-adv-x="649" d="M478.5 696q32.5 -30 24.5 -74l-141 -804q-6 -39 -42 -63t-89 -24q-41 0 -63 20t-22 48q0 12 2 19l117 650q-58 -67 -95 -102q-34 -34 -77 -33q-31 0 -55 24t-18 59q4 29 59 87l184 188q16 16 53.5 25.5t76.5 9.5q53 0 85.5 -30z" />
<glyph unicode="&#x2082;" horiz-adv-x="825" d="M619.5 -119.5q23.5 -20.5 23.5 -54.5q0 -43 -32 -73t-82 -30l-83 2q-72 6 -173 6q-52 0 -139 -4l-103 -2q-41 0 -67 20t-24 50q13 95 127.5 212t273.5 216q87 52 130.5 114t43.5 129q0 45 -26.5 71t-72.5 26q-45 0 -86.5 -39.5t-54.5 -99.5q-8 -41 -38 -60t-85 -19 q-89 0 -90 73q0 85 52 158t136.5 117.5t177.5 44.5q87 0 159.5 -34.5t114.5 -95t42 -134.5q0 -118 -76 -213t-226 -184q-153 -95 -217 -172h77l248 -4q46 0 69.5 -20.5z" />
<glyph unicode="&#x2083;" horiz-adv-x="912" d="M770 45q0 -94 -54 -169t-146 -116.5t-206 -41.5q-176 0 -276 69t-100 195q0 33 6 70q18 101 122 102q54 0 71.5 -22t15.5 -68v-50q0 -55 36 -87t127 -32q68 0 128 32t60 110q0 89 -134 91q-75 0 -75 60q0 112 101 112q77 2 121.5 50.5t44.5 119.5q0 45 -30 69t-73 24 q-71 0 -114.5 -43.5t-40.5 -112.5q0 -29 -32 -52.5t-93 -23.5q-97 0 -97 89q0 85 56 158t145 116.5t184 43.5q85 0 157 -34.5t114.5 -94t42.5 -125.5q0 -87 -46.5 -159.5t-122.5 -111.5q108 -49 108 -168z" />
<glyph unicode="&#x20ac;" horiz-adv-x="1672" d="M884.5 1184.5q-122.5 -92.5 -201.5 -239.5l469 6q54 0 79.5 -13.5t25.5 -43.5q0 -56 -32.5 -78t-99.5 -24l-509 -8q-23 -83 -26 -145l508 8q55 2 80.5 -11.5t25.5 -45.5q0 -101 -130 -102l-480 -8q23 -139 120 -212t250 -73q165 0 268.5 85.5t126.5 224.5q9 43 51 72 t96 29q45 0 76 -22.5t31 -64.5q0 -16 -2 -25q-112 -499 -656 -498q-155 0 -288.5 57t-221 165.5t-108.5 257.5l-122 -2q-55 0 -81.5 12.5t-26.5 44.5q0 58 34.5 80t102.5 24l89 2q6 67 23 145l-87 -2q-58 -2 -84.5 10.5t-26.5 46.5q0 101 140 102l112 2q64 154 175.5 273.5 t256.5 189t304 69.5q209 0 323 -65.5t177 -193.5q12 -27 12 -58q0 -55 -40.5 -90.5t-93.5 -35.5q-31 0 -58 16t-41 44q-51 103 -114.5 145t-164.5 42q-139 0 -261.5 -92.5z" />
<glyph unicode="&#x2122;" horiz-adv-x="1407" d="M1150 844.5q-25 13.5 -23 32.5q31 151 44 242q10 58 10 91q0 29 -8 29q-10 0 -36 -49t-47 -96q-23 -44 -64 -44q-39 0 -47 44q-28 140 -46 141q-6 0 -13.5 -26t-12.5 -50t-7 -36l-42 -240q-4 -20 -34 -34t-64 -14t-55.5 14t-17.5 34q35 199 57 296q36 157 74 222.5 t100 65.5q52 0 96.5 -54t47.5 -158q39 95 100.5 152t105.5 57q51 0 73.5 -26.5t22.5 -95.5q0 -57 -14 -150l-10 -65q-23 -165 -39 -244q-6 -26 -31 -39t-60 -13t-60 13.5zM332 859.5q-22 13.5 -22 34.5q0 18 21 101l25 116q8 49 31 140l16 75q-23 2 -45.5 1t-39.5 -1h-51 q-24 2 -35 16t-11 36q0 31 19 51.5t48 22.5q124 8 231 8h178q27 0 39 -12.5t8 -32.5q-4 -35 -20.5 -62t-44.5 -27h-104l-52 -221l-20 -102q-20 -99 -21 -105q-4 -23 -33 -37.5t-64 -14.5q-31 0 -53 13.5z" />
<glyph unicode="&#x25fc;" horiz-adv-x="1064" d="M0 1066h1066v-1066h-1066v1066z" />
</font>
</defs>
</svg>
