<?xml version="1.0" standalone="no"?>
<!DOCTYPE svg PUBLIC "-//W3C//DTD SVG 1.1//EN" "http://www.w3.org/Graphics/SVG/1.1/DTD/svg11.dtd" >
<svg xmlns="http://www.w3.org/2000/svg" xmlns:xlink="http://www.w3.org/1999/xlink" version="1.1">
<metadata></metadata>
<defs>
<font id="madabold" horiz-adv-x="1135" >
<font-face units-per-em="2048" ascent="1638" descent="-410" />
<missing-glyph horiz-adv-x="429" />
<glyph horiz-adv-x="0" />
<glyph horiz-adv-x="682" />
<glyph unicode=" "  horiz-adv-x="429" />
<glyph unicode="&#x09;" horiz-adv-x="429" />
<glyph unicode="&#xa0;" horiz-adv-x="429" />
<glyph unicode="!" horiz-adv-x="730" d="M262 497l-45 658l-10 286h318l-12 -286l-45 -658h-206zM365 -26q-81 0 -136 57t-55 141q0 86 55 143t136 57q82 0 136.5 -57t54.5 -143q0 -84 -54.5 -141t-136.5 -57z" />
<glyph unicode="&#x22;" horiz-adv-x="1153" d="M236 761l-62 429l-10 285h318l-11 -285l-63 -429h-172zM745 761l-62 429l-10 285h318l-11 -285l-63 -429h-172z" />
<glyph unicode="#" d="M441 604h222l29 237h-224zM185 0l47 402h-158v202h182l30 237h-169v202h195l45 355h181l-43 -355h223l45 355h181l-43 -355h170v-202h-195l-29 -237h181v-202h-205l-49 -402h-183l47 402h-221l-49 -402h-183z" />
<glyph unicode="$" d="M671 -236h-209v215q-94 11 -197 53t-181 110l138 213q81 -62 155.5 -93.5t151.5 -31.5q175 0 175 148q0 66 -57.5 112t-142.5 85.5t-169.5 90t-142 125.5t-57.5 192q0 159 87.5 263t239.5 135v221h209v-217q103 -15 180.5 -62.5t139.5 -113.5l-158 -181q-58 54 -112 80.5 t-124 26.5q-159 0 -158 -137q0 -60 56.5 -102t141.5 -80t170 -87.5t142 -127.5t57 -201q0 -154 -84.5 -265t-250.5 -148v-223z" />
<glyph unicode="%" horiz-adv-x="1842" d="M404 538q-150 0 -249 118.5t-99 328.5q0 211 99 327t249 116t250.5 -116t100.5 -327t-100.5 -329t-250.5 -118zM404 714q54 0 91.5 60.5t37.5 210.5t-37.5 208.5t-91.5 58.5q-53 0 -91 -58t-38 -209q0 -150 38 -210.5t91 -60.5zM451 -26l758 1454h182l-757 -1454h-183z M1438 -26q-150 0 -249 118.5t-99 328.5q0 211 99 327t249 116t250.5 -116t100.5 -327t-100.5 -329t-250.5 -118zM1438 150q54 0 91.5 60.5t37.5 210.5t-37.5 208.5t-91.5 58.5q-53 0 -91 -58t-38 -209q0 -150 38 -210.5t91 -60.5z" />
<glyph unicode="&#x26;" horiz-adv-x="1434" d="M1318 -26q-175 34 -359 143q-89 -67 -199.5 -105t-240.5 -38q-228 0 -348 119.5t-120 280.5q0 146 77 238t180 158q-86 161 -86 290q0 151 102 259.5t278 108.5q157 0 250.5 -86t93.5 -232q0 -138 -91.5 -230t-200.5 -168q117 -136 282 -256q51 69 93 152.5t67 183.5h289 q-39 -127 -95.5 -245.5t-138.5 -228.5q139 -71 242 -88zM482 1063q0 -76 45 -168q78 45 128.5 94t50.5 121q0 109 -97 109q-54 0 -90.5 -41.5t-36.5 -114.5zM559 215q84 0 176 56q-166 133 -290 291q-43 -37 -68.5 -79t-25.5 -89q0 -80 57.5 -129.5t150.5 -49.5z" />
<glyph unicode="'" horiz-adv-x="644" d="M236 761l-62 429l-10 285h318l-11 -285l-63 -429h-172z" />
<glyph unicode="(" horiz-adv-x="739" d="M439 -385q-136 221 -210.5 460t-74.5 522q0 284 74.5 523t210.5 460l197 -82q-118 -209 -171.5 -441t-53.5 -460q0 -227 54 -459t171 -441z" />
<glyph unicode=")" horiz-adv-x="739" d="M301 -385l-198 82q121 209 174.5 441t53.5 459q0 228 -53.5 460.5t-174.5 440.5l198 82q136 -221 210 -459.5t74 -523.5q0 -283 -74 -522t-210 -460z" />
<glyph unicode="*" horiz-adv-x="981" d="M318 751l-131 94l127 224l-232 105l49 155l249 -51l28 253h166l28 -256l247 54l52 -155l-232 -105l127 -224l-131 -94l-173 191z" />
<glyph unicode="+" d="M452 203v394h-378v224h378v396h232v-396h379v-224h-379v-394h-232z" />
<glyph unicode="," horiz-adv-x="644" d="M164 -417l-65 167q247 86 243 263h-18q-75 0 -133 46t-58 132q0 82 58.5 131.5t139.5 49.5q107 0 163 -79.5t56 -218.5q0 -177 -98.5 -306t-287.5 -185z" />
<glyph unicode="-" horiz-adv-x="712" d="M92 433v223h530v-223h-530z" />
<glyph unicode="." horiz-adv-x="644" d="M322 -26q-82 0 -136.5 57t-54.5 141q0 86 54.5 143t136.5 57t136.5 -57t54.5 -143q0 -84 -54.5 -141t-136.5 -57z" />
<glyph unicode="/" horiz-adv-x="728" d="M28 -344l432 1871h207l-433 -1871h-206z" />
<glyph unicode="0" d="M568 -26q-219 0 -353.5 183t-134.5 531t134.5 525.5t353.5 177.5q220 0 354 -177.5t134 -525.5q0 -349 -134 -531.5t-354 -182.5zM568 219q82 0 135.5 94.5t53.5 374.5q0 279 -54 369t-135 90q-80 0 -135 -89.5t-55 -369.5t55 -374.5t135 -94.5z" />
<glyph unicode="1" d="M150 0v256h297v789h-256v196q111 21 189 51.5t151 72.5h232v-1109h257v-256h-870z" />
<glyph unicode="2" d="M80 0v181q260 247 426.5 429t166.5 328q0 98 -52.5 152t-140.5 54q-76 0 -134 -43t-110 -97l-172 170q101 107 206.5 162t252.5 55q203 0 327 -119t124 -315q0 -173 -135 -353.5t-301 -353.5q51 6 115.5 11.5t111.5 5.5h276v-267h-961z" />
<glyph unicode="3" d="M523 -26q-166 0 -284 54t-192 140l146 200q60 -60 135.5 -99t163.5 -39q101 0 161.5 42t60.5 120q0 90 -73 142.5t-295 52.5v224q183 0 253 50t70 132q0 150 -168 151q-74 0 -132.5 -32.5t-123.5 -87.5l-159 193q95 82 200.5 128t230.5 46q211 0 340.5 -97.5 t129.5 -276.5q0 -206 -228 -303v-8q119 -35 195 -119t76 -215q0 -191 -150 -294.5t-357 -103.5z" />
<glyph unicode="4" d="M344 568h288v222q0 66 4 153t9 151h-9q-26 -56 -54 -113.5t-57 -116.5zM1084 327h-157v-327h-295v327h-591v217l499 821h387v-797h157v-241z" />
<glyph unicode="5" d="M531 -26q-168 0 -285 56t-197 136l142 199q62 -55 135.5 -95t159.5 -40q105 0 167.5 54t62.5 159q0 103 -60.5 157t-154.5 54q-60 0 -100 -15t-102 -54l-141 90l37 690h775v-266h-502l-23 -256q72 33 152 33q177 0 306 -103.5t129 -320.5q0 -228 -150.5 -353t-350.5 -125 z" />
<glyph unicode="6" d="M1058 433q0 -214 -134 -336.5t-320 -122.5q-132 0 -250 70t-192 219.5t-74 388.5q0 256 78.5 419.5t204.5 241.5t269 78q136 0 235 -48t163 -116l-165 -189q-35 39 -94 68t-119 29q-111 0 -192 -93.5t-90 -331.5q54 69 131.5 106.5t142.5 37.5q176 0 291 -102t115 -319z M597 211q72 0 122.5 52.5t50.5 169.5q0 107 -50.5 152t-128.5 45q-53 0 -108 -31t-98 -104q21 -162 81 -223t131 -61z" />
<glyph unicode="7" d="M342 0q13 228 49.5 408.5t112 346.5t204.5 344h-614v266h951v-193q-160 -191 -237 -357t-107 -357t-41 -458h-318z" />
<glyph unicode="8" d="M566 -26q-205 0 -340.5 104.5t-135.5 270.5q0 125 68 204t164 131v8q-79 60 -130.5 137.5t-51.5 185.5q0 175 123.5 275.5t312.5 100.5q187 0 301 -102.5t114 -271.5q0 -98 -53.5 -175t-124.5 -124v-8q98 -54 167 -138t69 -219q0 -162 -133 -270.5t-350 -108.5zM652 796 q84 96 83 199q0 80 -44 128.5t-121 48.5q-62 0 -107.5 -39t-45.5 -118q0 -84 65 -131t170 -88zM572 193q80 0 131.5 42t51.5 128q0 91 -80 137t-209 102q-45 -43 -75 -99t-30 -118q0 -90 62.5 -141t148.5 -51z" />
<glyph unicode="9" d="M542 735q53 0 108.5 31.5t96.5 103.5q-21 162 -82 223.5t-132 61.5q-69 0 -120.5 -53t-51.5 -169q0 -107 51.5 -152.5t129.5 -45.5zM492 -26q-135 0 -234.5 50t-165.5 114l168 189q35 -39 93 -68t118 -29q115 0 194 93.5t88 332.5q-54 -69 -131.5 -107t-141.5 -38 q-174 0 -290 103.5t-116 318.5q0 214 134 336t319 122q131 0 250.5 -69.5t193.5 -218.5t74 -389q0 -254 -78.5 -418.5t-204.5 -243t-270 -78.5z" />
<glyph unicode=":" horiz-adv-x="644" d="M322 671q-82 0 -136.5 57t-54.5 141q0 86 54.5 143t136.5 57t136.5 -57t54.5 -143q0 -84 -54.5 -141t-136.5 -57zM322 -26q-82 0 -136.5 57t-54.5 141q0 86 54.5 143t136.5 57t136.5 -57t54.5 -143q0 -84 -54.5 -141t-136.5 -57z" />
<glyph unicode=";" horiz-adv-x="644" d="M164 -417l-65 167q247 86 243 263h-18q-75 0 -133 46t-58 132q0 82 58.5 131.5t139.5 49.5q107 0 163 -79.5t56 -218.5q0 -177 -98.5 -306t-287.5 -185zM322 671q-82 0 -136.5 57t-54.5 140q0 86 54.5 143.5t136.5 57.5t136.5 -57.5t54.5 -143.5q0 -84 -54.5 -140.5 t-136.5 -56.5z" />
<glyph unicode="&#x3c;" d="M1063 224l-989 380v219l989 381v-260l-379 -125l-290 -101v-8l290 -101l379 -125v-260z" />
<glyph unicode="=" d="M74 847v224h989v-224h-989zM74 347v224h989v-224h-989z" />
<glyph unicode="&#x3e;" d="M74 224v260l378 125l290 101v8l-290 101l-378 125v260l989 -381v-219z" />
<glyph unicode="?" horiz-adv-x="995" d="M331 497q-17 109 22 192t97.5 147.5t105 121.5t46.5 117q0 66 -39.5 101t-104.5 35q-60 0 -106 -28t-90 -71l-174 158q76 89 181 143t230 54q172 0 289 -88.5t117 -279.5q0 -100 -48.5 -171.5t-109.5 -134t-105.5 -131.5t-32.5 -165h-278zM468 -26q-82 0 -135.5 57 t-53.5 141q0 86 54 143t135 57q82 0 137 -57t55 -143q0 -84 -55 -141t-137 -57z" />
<glyph unicode="@" horiz-adv-x="1941" d="M921 -370q-215 0 -401.5 88.5t-300.5 269t-114 453.5q0 301 132.5 526t353 348t484.5 123q349 0 555 -213.5t206 -551.5q0 -195 -75 -327.5t-189 -198t-226 -65.5q-92 0 -161 43t-86 120h-5q-45 -62 -118 -102t-139 -40q-127 0 -206 87t-79 236q0 132 57.5 252t156 197 t221.5 77q111 0 164 -107h4l29 91h197l-99 -474q-45 -185 99 -185q96 0 176 104.5t80 283.5q0 152 -59.5 285.5t-188.5 215t-340 81.5q-185 0 -351.5 -99t-273 -277.5t-106.5 -421.5q0 -213 87 -351.5t230 -207t311 -68.5q84 0 171 24.5t156 59.5l69 -173 q-191 -103 -421 -103zM903 301q69 0 142 97l51 290q-32 62 -98 63q-97 0 -151.5 -104.5t-54.5 -201.5q0 -144 111 -144z" />
<glyph unicode="A" horiz-adv-x="1231" d="M495 710l-35 -129h299l-32 129q-31 105 -59 223t-55 228h-9q-26 -111 -52.5 -228.5t-56.5 -222.5zM909 0l-86 333h-427l-86 -333h-323l439 1402h380l439 -1402h-336z" />
<glyph unicode="B" horiz-adv-x="1300" d="M166 0v1402h479q217 0 366.5 -73t149.5 -275q0 -94 -48 -183t-134 -120v-9q105 -28 178 -109t73 -220q0 -216 -158 -314.5t-386 -98.5h-520zM482 841h148q117 0 169.5 45t52.5 120q0 150 -220 151h-150v-316zM482 245h178q261 0 261 190q0 172 -261 172h-178v-362z" />
<glyph unicode="C" horiz-adv-x="1250" d="M751 -26q-179 0 -326.5 82t-236.5 241t-89 395q0 232 91 397t243 252t328 87q136 0 243.5 -55t177.5 -128l-167 -202q-53 49 -112.5 80.5t-134.5 31.5q-144 0 -244.5 -120.5t-100.5 -330.5q0 -218 93 -337t247 -119q86 0 154 37t119 93l168 -197q-176 -207 -453 -207z " />
<glyph unicode="D" horiz-adv-x="1365" d="M166 0v1402h396q320 0 511 -166.5t191 -527.5q0 -362 -189 -535t-496 -173h-413zM482 256h60q178 0 288 100t110 352t-110 345.5t-288 93.5h-60v-891z" />
<glyph unicode="E" horiz-adv-x="1178" d="M166 0v1402h877v-267h-561v-281h477v-265h-477v-322h583v-267h-899z" />
<glyph unicode="F" horiz-adv-x="1126" d="M166 0v1402h883v-267h-567v-324h486v-267h-486v-544h-316z" />
<glyph unicode="G" horiz-adv-x="1371" d="M785 -26q-287 0 -486.5 183t-199.5 535q0 232 92.5 397t248 252t342.5 87q150 0 261.5 -56t179.5 -127l-165 -202q-53 47 -113.5 79.5t-150.5 32.5q-164 0 -267.5 -120.5t-103.5 -330.5q0 -218 98.5 -337t295.5 -119q97 0 151 42v241h-233v259h512v-646 q-73 -72 -194.5 -121t-267.5 -49z" />
<glyph unicode="H" horiz-adv-x="1449" d="M166 0v1402h316v-540h484v540h318v-1402h-318v585h-484v-585h-316z" />
<glyph unicode="I" horiz-adv-x="646" d="M166 0v1402h316v-1402h-316z" />
<glyph unicode="J" horiz-adv-x="1094" d="M486 -26q-308 0 -451 254l215 159q76 -139 195 -139q86 0 130.5 52.5t44.5 191.5v910h316v-936q0 -205 -109 -348.5t-341 -143.5z" />
<glyph unicode="K" horiz-adv-x="1319" d="M166 0v1402h316v-575h8l417 575h349l-423 -559l501 -843h-347l-342 591l-163 -215v-376h-316z" />
<glyph unicode="L" horiz-adv-x="1113" d="M166 0v1402h316v-1135h554v-267h-870z" />
<glyph unicode="M" horiz-adv-x="1638" d="M166 0v1402h345l226 -624q21 -60 41 -126.5t41 -130.5h8q21 64 40 130.5t40 126.5l222 624h344v-1402h-289v513q0 103 15.5 240t25.5 238h-8l-113 -333l-201 -535h-174l-200 535l-112 333h-9q11 -101 26 -237.5t15 -240.5v-513h-283z" />
<glyph unicode="N" horiz-adv-x="1429" d="M166 0v1402h324l366 -696l137 -310h9q-9 111 -23.5 248.5t-14.5 262.5v495h300v-1402h-324l-366 699l-137 305h-9q11 -117 24.5 -249.5t13.5 -257.5v-497h-300z" />
<glyph unicode="O" horiz-adv-x="1470" d="M735 -26q-283 0 -459.5 194.5t-176.5 539.5q0 344 176.5 532t459.5 188t460 -189.5t177 -530.5q0 -345 -177 -539.5t-460 -194.5zM735 248q144 0 228 124.5t84 335.5q0 209 -83.5 328t-228.5 119q-144 0 -228 -119.5t-84 -327.5q0 -211 84 -335.5t228 -124.5z" />
<glyph unicode="P" horiz-adv-x="1281" d="M166 0v1402h481q230 0 393.5 -99t163.5 -353q0 -248 -163 -361t-385 -113h-174v-476h-316zM482 727h154q259 0 259 223q0 109 -69 155t-198 46h-146v-424z" />
<glyph unicode="Q" horiz-adv-x="1470" d="M1198 -392q-224 0 -377.5 108t-229.5 274q-223 47 -357.5 234t-134.5 484q0 344 176.5 532t459.5 188t460 -189.5t177 -530.5q0 -282 -121.5 -466t-323.5 -242q47 -76 133.5 -107t174.5 -31q45 0 84.5 6.5t69.5 17.5l56 -230q-39 -19 -103 -33.5t-144 -14.5zM735 232 q144 0 228 126t84 350q0 209 -83.5 328t-228.5 119q-144 0 -228 -119.5t-84 -327.5q0 -224 84 -350t228 -126z" />
<glyph unicode="R" horiz-adv-x="1317" d="M482 757h163q256 0 256 209q0 103 -65.5 144t-190.5 41h-163v-394zM482 0h-316v1402h505q224 0 382 -93.5t158 -342.5q0 -154 -69 -253.5t-181 -150.5l319 -562h-355l-269 505h-174v-505z" />
<glyph unicode="S" horiz-adv-x="1194" d="M593 -26q-137 0 -274.5 52t-242.5 150l180 218q76 -64 168.5 -105t177.5 -41q195 0 196 135q0 66 -55 97t-148 70l-182 78q-107 43 -194.5 136.5t-87.5 246.5q0 174 140 295.5t359 121.5q121 0 241 -47t211 -138l-161 -200q-69 53 -138 82.5t-153 29.5q-82 0 -130 -33.5 t-48 -93.5q0 -64 61 -96.5t152 -69.5l180 -72q127 -52 202 -143t75 -239q0 -174 -138.5 -304t-390.5 -130z" />
<glyph unicode="T" horiz-adv-x="1194" d="M439 0v1135h-385v267h1087v-267h-384v-1135h-318z" />
<glyph unicode="U" horiz-adv-x="1429" d="M718 -26q-273 0 -416.5 161.5t-143.5 513.5v753h318v-785q0 -206 62 -287.5t180 -81.5q119 0 183.5 81.5t64.5 287.5v785h304v-753q0 -353 -140.5 -514t-411.5 -161z" />
<glyph unicode="V" horiz-adv-x="1194" d="M408 0l-423 1402h335l168 -653q33 -115 57.5 -224.5t56.5 -225.5h9q31 117 56 226t55 224l166 653h323l-421 -1402h-382z" />
<glyph unicode="W" horiz-adv-x="1748" d="M290 0l-260 1402h325l97 -655q12 -110 27.5 -221t27.5 -223h10q21 112 41.5 222.5t41.5 221.5l151 655h269l150 -655q21 -105 42 -217.5t42 -226.5h8q15 115 29 225t29 219l98 655h302l-249 -1402h-398l-137 636q-17 82 -31.5 165t-24.5 160h-10q-12 -78 -25.5 -160.5 t-31.5 -164.5l-132 -636h-391z" />
<glyph unicode="X" horiz-adv-x="1219" d="M24 0l389 720l-366 682h353l123 -265q24 -49 47 -103.5t54 -122.5h8q24 67 46.5 122t43.5 104l113 265h337l-364 -696l388 -706h-353l-139 286q-27 53 -51.5 109.5t-55.5 121.5h-8q-24 -64 -48 -120.5t-46 -110.5l-132 -286h-339z" />
<glyph unicode="Y" horiz-adv-x="1128" d="M406 0v499l-423 903h339l125 -323q31 -79 58.5 -153t56.5 -156h8q31 82 59.5 156t58.5 153l127 323h332l-425 -903v-499h-316z" />
<glyph unicode="Z" horiz-adv-x="1162" d="M78 0v191l619 944h-562v267h951v-191l-620 -944h626v-267h-1014z" />
<glyph unicode="[" horiz-adv-x="739" d="M187 -327v1849h453v-168h-217v-1514h217v-167h-453z" />
<glyph unicode="\" horiz-adv-x="728" d="M495 -344l-435 1871h207l434 -1871h-206z" />
<glyph unicode="]" horiz-adv-x="739" d="M99 -327v167h219v1514h-219v168h453v-1849h-453z" />
<glyph unicode="^" d="M107 589l334 852h254l333 -852h-260l-99 275l-97 291h-8l-98 -291l-98 -275h-261z" />
<glyph unicode="_" horiz-adv-x="1075" d="M26 -301v178h1023v-178h-1023z" />
<glyph unicode="`" horiz-adv-x="1192" d="M576 1230l-389 338l213 209l331 -392z" />
<glyph unicode="a" horiz-adv-x="1132" d="M517 219q53 0 92.5 24t80.5 67v187q-168 -25 -232 -69.5t-64 -107.5q0 -101 123 -101zM408 -26q-146 0 -232 94t-86 229q0 168 142 262.5t458 126.5q-4 71 -41.5 113t-125.5 42q-66 0 -135.5 -25.5t-147.5 -71.5l-113 208q101 62 215 101t241 39q205 0 314 -118t109 -363 v-611h-257l-22 109h-9q-69 -60 -144 -97.5t-166 -37.5z" />
<glyph unicode="b" horiz-adv-x="1231" d="M699 -26q-150 0 -278 140h-8l-26 -114h-247v1508h316v-371l-9 -163q132 119 282 118q193 0 306.5 -147t113.5 -393q0 -275 -138.5 -426.5t-311.5 -151.5zM626 232q82 0 139.5 75.5t57.5 238.5q0 288 -185 289q-94 0 -182 -98v-436q43 -39 86 -54t84 -15z" />
<glyph unicode="c" horiz-adv-x="1003" d="M604 -26q-222 0 -374 146.5t-152 412.5q0 267 166.5 413t387.5 146q99 0 175.5 -32t136.5 -81l-148 -205q-76 62 -144 63q-114 0 -182 -83t-68 -221q0 -137 68 -220t170 -83q52 0 102 22.5t91 55.5l124 -207q-80 -69 -172.5 -98t-180.5 -29z" />
<glyph unicode="d" horiz-adv-x="1231" d="M602 232q103 0 174 97v436q-41 39 -87 54.5t-89 15.5q-76 0 -134 -73.5t-58 -223.5q0 -306 194 -306zM521 -26q-198 0 -317.5 148.5t-119.5 410.5q0 263 136.5 411t306.5 148q88 0 148 -30t115 -81l-14 163v364h316v-1508h-257l-22 105h-9q-55 -56 -130.5 -93.5 t-152.5 -37.5z" />
<glyph unicode="e" horiz-adv-x="1113" d="M617 -26q-230 0 -384.5 147.5t-154.5 411.5q0 173 72 298.5t187 193t244 67.5q227 0 340 -147t113 -364q0 -89 -12 -140h-639q21 -117 96 -171.5t181 -54.5q115 0 230 71l105 -192q-175 -120 -378 -120zM380 649h385q0 88 -42 145.5t-136 57.5q-76 0 -134 -51t-73 -152z " />
<glyph unicode="f" horiz-adv-x="732" d="M701 819h-192v-819h-316v819h-142v235l142 11v57q0 171 88.5 291t305.5 120q66 0 122 -12.5t91 -26.5l-58 -232q-60 21 -110 22q-123 0 -123 -153v-64h192v-248z" />
<glyph unicode="g" horiz-adv-x="1147" d="M544 529q62 0 104 45.5t42 133.5q0 84 -41.5 128t-104.5 44q-62 0 -104 -43t-42 -129q0 -88 42 -133.5t104 -45.5zM521 -454q-187 0 -317 65t-130 206q0 129 152 216v8q-41 28 -70 70.5t-29 110.5q0 57 34 111t87 88v9q-56 39 -100.5 112t-44.5 166q0 191 134.5 287.5 t306.5 96.5q94 0 166 -25h389v-230h-170q35 -58 35 -140q0 -185 -122 -272t-298 -87q-62 0 -129 21q-39 -32 -39 -80q0 -41 36.5 -60t125.5 -19h172q197 0 301.5 -63t104.5 -208q0 -166 -160 -274.5t-435 -108.5zM570 -256q105 0 175 37.5t70 93.5q0 49 -42 66.5t-121 17.5 h-110q-99 0 -150 13q-58 -52 -59 -105q0 -60 66 -91.5t171 -31.5z" />
<glyph unicode="h" horiz-adv-x="1227" d="M140 0v1508h316v-371l-15 -191q60 54 141 100t188 46q174 0 252.5 -115t78.5 -314v-663h-316v622q0 116 -31.5 158.5t-99.5 42.5q-60 0 -103.5 -26.5t-94.5 -76.5v-720h-316z" />
<glyph unicode="i" horiz-adv-x="593" d="M297 1223q-80 0 -131.5 46.5t-51.5 119.5q0 74 51.5 119t131.5 45q82 0 132.5 -45t50.5 -119q0 -73 -50.5 -119.5t-132.5 -46.5zM140 0v1067h316v-1067h-316z" />
<glyph unicode="j" horiz-adv-x="597" d="M301 1223q-79 0 -130.5 46.5t-51.5 119.5q0 74 51.5 119t130.5 45q80 0 131.5 -45t51.5 -119q0 -73 -51.5 -119.5t-131.5 -46.5zM78 -421q-66 0 -111 8.5t-76 20.5l55 232q21 -6 41.5 -10t42.5 -4q112 0 112 172v1069h316v-1061q0 -174 -81.5 -300.5t-298.5 -126.5z" />
<glyph unicode="k" horiz-adv-x="1178" d="M140 0v1508h307v-865h9l338 424h343l-374 -439l403 -628h-343l-240 415l-136 -153v-262h-307z" />
<glyph unicode="l" horiz-adv-x="614" d="M430 -26q-163 0 -226.5 98t-63.5 259v1177h316v-1190q0 -49 18 -68.5t37 -19.5q21 0 39 4l39 -234q-58 -26 -159 -26z" />
<glyph unicode="m" horiz-adv-x="1842" d="M140 0v1067h258l21 -138h9q67 66 142 114.5t181 48.5q114 0 183.5 -46t110.5 -132q71 73 149.5 125.5t186.5 52.5q172 0 252.5 -115t80.5 -314v-663h-316v622q0 116 -32 158.5t-100 42.5q-80 0 -182 -103v-720h-316v622q0 116 -31 158.5t-101 42.5q-82 0 -180 -103v-720 h-316z" />
<glyph unicode="n" horiz-adv-x="1229" d="M140 0v1067h258l21 -136h9q67 64 151 112.5t191 48.5q174 0 252.5 -115t78.5 -314v-663h-316v622q0 116 -31.5 158.5t-99.5 42.5q-60 0 -103.5 -26.5t-94.5 -76.5v-720h-316z" />
<glyph unicode="o" horiz-adv-x="1192" d="M597 -26q-135 0 -254 65.5t-192 191.5t-73 302q0 177 73 302.5t192 191t254 65.5q134 0 253.5 -65.5t192.5 -191t73 -302.5q0 -176 -73 -302t-192.5 -191.5t-253.5 -65.5zM597 230q97 0 147 83t50 220q0 138 -49.5 221t-147.5 83t-146.5 -83t-48.5 -221q0 -137 48.5 -220 t146.5 -83z" />
<glyph unicode="p" horiz-adv-x="1231" d="M626 232q82 0 139.5 75.5t57.5 238.5q0 288 -185 289q-92 0 -182 -98v-436q43 -39 86 -54t84 -15zM140 -396v1463h258l21 -106h9q62 55 140.5 93t162.5 38q193 0 305.5 -147t112.5 -395q0 -275 -139.5 -425.5t-310.5 -150.5q-135 0 -254 112l11 -170v-312h-316z" />
<glyph unicode="q" horiz-adv-x="1231" d="M776 -396v325l14 163q-54 -51 -125.5 -84.5t-143.5 -33.5q-198 0 -317.5 148.5t-119.5 410.5q0 263 136.5 411t306.5 148q162 0 284 -131h8l26 106h247v-1463h-316zM602 232q103 0 174 97v436q-41 39 -87 54.5t-89 15.5q-76 0 -134 -73.5t-58 -223.5q0 -306 194 -306z " />
<glyph unicode="r" horiz-adv-x="855" d="M140 0v1067h258l21 -187h9q58 107 139.5 159.5t163.5 52.5q45 0 74.5 -6.5t52.5 -14.5l-52 -273q-28 8 -55 12.5t-61 4.5q-60 0 -125.5 -44t-108.5 -151v-620h-316z" />
<glyph unicode="s" horiz-adv-x="952" d="M454 -26q-105 0 -217 41t-192 108l142 197q148 -111 275 -111q135 0 135 90q0 54 -67.5 84t-149.5 62q-96 37 -188.5 110t-92.5 204q0 148 111.5 240.5t296.5 92.5q123 0 215.5 -41.5t161.5 -93.5l-142 -189q-57 40 -113.5 65t-111.5 25q-121 0 -121 -84 q0 -52 63.5 -78.5t144.5 -57.5q101 -36 194.5 -105t93.5 -215t-111.5 -245t-326.5 -99z" />
<glyph unicode="t" horiz-adv-x="823" d="M550 -26q-197 0 -282 114.5t-85 298.5v432h-146v235l163 13l36 283h263v-283h256v-248h-256v-427q0 -170 137 -170q27 0 53.5 6t47.5 15l51 -230q-44 -13 -102 -26t-136 -13z" />
<glyph unicode="u" horiz-adv-x="1221" d="M460 -26q-174 0 -252.5 115.5t-78.5 314.5v663h316v-622q0 -114 32 -158t102 -44q59 0 100 28t89 90v706h316v-1067h-259l-23 148h-6q-69 -80 -148 -127t-188 -47z" />
<glyph unicode="v" horiz-adv-x="1124" d="M385 0l-359 1067h318l138 -503q21 -80 41.5 -163t42.5 -167h8q37 162 82 330l140 503h303l-348 -1067h-366z" />
<glyph unicode="w" horiz-adv-x="1668" d="M318 0l-267 1067h314l103 -495q13 -80 24 -158.5t25 -157.5h8q15 80 29 160.5t33 155.5l119 495h273l120 -495q19 -80 34.5 -158.5t32.5 -157.5h8q15 80 25 158t24 158l102 495h292l-256 -1067h-370l-96 426q-17 74 -30 150t-28 161h-10q-14 -86 -25.5 -162t-27.5 -149 l-95 -426h-361z" />
<glyph unicode="x" horiz-adv-x="1104" d="M30 0l327 554l-308 513h341l94 -172q21 -46 43.5 -92t46.5 -91h9q14 45 34.5 91t38.5 92l73 172h327l-309 -548l328 -519h-340l-103 176q-26 46 -51 93t-50 92h-8q-19 -45 -41 -91t-41 -94l-84 -176h-327z" />
<glyph unicode="y" horiz-adv-x="1120" d="M258 -417q-47 0 -82.5 6.5t-68.5 14.5l57 242q14 -5 33.5 -9.5t36.5 -4.5q80 0 123 39t64 101l16 56l-411 1039h318l153 -458q24 -73 43 -148.5t41 -154.5h8q17 75 35.5 151t38.5 152l129 458h302l-370 -1077q-75 -203 -176 -305t-290 -102z" />
<glyph unicode="z" horiz-adv-x="989" d="M82 0v170l447 649h-398v248h792v-168l-447 -651h462v-248h-856z" />
<glyph unicode="{" horiz-adv-x="739" d="M505 -327q-142 0 -208.5 66t-66.5 240q0 114 11 190t11 177q0 56 -40 106.5t-146 52.5v185q105 2 145.5 53t40.5 106q0 101 -11 178t-11 190q0 174 66.5 239.5t208.5 65.5h135v-168h-40q-67 0 -90.5 -30.5t-23.5 -119.5q0 -86 4.5 -169t4.5 -181q0 -123 -39 -177.5 t-121 -74.5v-9q82 -19 121 -74t39 -177q0 -98 -4.5 -181t-4.5 -169q0 -89 23.5 -120.5t90.5 -31.5h40v-167h-135z" />
<glyph unicode="|" horiz-adv-x="575" d="M185 -538v2151h207v-2151h-207z" />
<glyph unicode="}" horiz-adv-x="739" d="M99 -327v167h41q66 0 90 31.5t24 120.5q0 86 -4.5 168.5t-4.5 181.5q0 123 38.5 177.5t120.5 73.5v9q-82 19 -120.5 74t-38.5 178q0 98 4.5 181t4.5 169q0 89 -23.5 119.5t-90.5 30.5h-41v168h135q142 0 208.5 -65.5t66.5 -239.5q0 -115 -10.5 -191t-10.5 -177 q0 -55 40 -106t145 -53v-185q-105 -2 -145 -52.5t-40 -106.5q0 -100 10.5 -177t10.5 -190q0 -174 -66.5 -240t-208.5 -66h-135z" />
<glyph unicode="~" d="M751 517q-88 0 -149.5 40t-112 81t-109.5 41q-84 0 -154 -125l-164 127q80 121 162 171.5t161 50.5q89 0 149.5 -41t111.5 -81.5t109 -40.5q84 0 154 124l164 -127q-80 -121 -161 -170.5t-161 -49.5z" />
<glyph unicode="&#xa1;" horiz-adv-x="730" d="M365 695q-81 0 -136 56.5t-55 143.5q0 84 55 140.5t136 56.5q82 0 136.5 -56.5t54.5 -140.5q0 -87 -54.5 -143.5t-136.5 -56.5zM207 -374l10 286l45 658h206l45 -658l12 -286h-318z" />
<glyph unicode="&#xa2;" d="M1045 243q-62 -54 -135 -86t-147 -40v-205h-174v205q-209 28 -335.5 168.5t-126.5 374.5q0 228 131.5 367t330.5 173v208h174v-199q164 -15 267 -121l-144 -193q-60 51 -123 57v-584q45 8 84 28.5t71 46.5zM435 660q0 -202 154 -268v537q-154 -66 -154 -269z" />
<glyph unicode="&#xa3;" d="M1069 267v-267h-966v195q97 43 162.5 129.5t65.5 200.5q0 28 -4 58h-216v185l147 10h13q-13 45 -24 88t-11 84q0 203 130.5 322t330.5 119q121 0 209.5 -45t162.5 -129l-172 -172q-76 90 -170 90q-87 0 -137 -49.5t-50 -152.5q0 -38 6 -77t18 -78h318v-195h-278 q4 -31 5 -60q0 -138 -98 -248v-8h558z" />
<glyph unicode="&#xa4;" d="M200 178l-157 160l131 133q-73 99 -73 239q0 135 71 234l-129 133l157 160l149 -151q103 53 219 53q111 0 220 -53l148 151l156 -160l-131 -133q73 -97 73 -234q0 -134 -73 -239l131 -133l-156 -160l-151 153q-100 -52 -217 -52q-116 0 -217 52zM568 499q78 0 131.5 57 t53.5 154q0 94 -54 152.5t-131 58.5q-78 0 -131.5 -58.5t-53.5 -152.5q0 -97 53.5 -154t131.5 -57z" />
<glyph unicode="&#xa5;" d="M408 0v316h-328v150h328v119h-328v150h262l-316 630h325l109 -286l52 -142t56 -139h8q29 71 54.5 142t53.5 139l108 286h318l-316 -630h262v-150h-332v-119h332v-150h-332v-316h-316z" />
<glyph unicode="&#xa6;" horiz-adv-x="575" d="M185 671v942h207v-942h-207zM185 -538v977h207v-977h-207z" />
<glyph unicode="&#xa7;" d="M346 724q0 -66 58 -109t143 -77.5t169 -79.5q74 45 74 127q0 66 -57.5 109t-142.5 77.5t-169 77.5q-75 -47 -75 -125zM517 -181q-119 0 -232 44.5t-186 136.5l182 162q105 -110 236 -111q129 0 128 93q0 49 -57 83.5t-142 69t-169 82t-140.5 125t-56.5 197.5q0 80 46 153 t126 122q-62 76 -63 179q0 144 101.5 236.5t281.5 92.5q125 0 222.5 -44.5t164.5 -95.5l-144 -197q-50 43 -110 73t-116 30q-117 0 -115 -84q0 -46 58.5 -80.5t145.5 -69.5t173.5 -85.5t145.5 -127t59 -192.5q0 -178 -176 -287q49 -71 49 -164q0 -146 -105 -243.5 t-307 -97.5z" />
<glyph unicode="&#xa8;" horiz-adv-x="1192" d="M833 1223q-67 0 -111 44q-43 44 -43 112q0 64 43 108t111 44q66 0 110 -44t44 -108q0 -67 -44 -112q-44 -44 -110 -44zM363 1223q-66 0 -110 44t-44 112q0 64 44 108t110 44t111 -44q43 -44 43 -108q0 -67 -43 -112q-45 -44 -111 -44z" />
<glyph unicode="&#xa9;" horiz-adv-x="1612" d="M806 -19q-191 0 -352 86.5t-259 248.5t-98 383q0 222 98 381t259 243.5t352 84.5q192 0 352 -84.5t258 -243.5t98 -381q0 -221 -98 -383t-258 -248.5t-352 -86.5zM806 111q237 0 400.5 162t163.5 426q0 265 -163.5 423t-400.5 158q-236 0 -399.5 -158t-163.5 -423 q0 -264 163.5 -426t399.5 -162zM833 273q-181 0 -298.5 114t-117.5 310q0 189 126 301t290 112q98 0 165 -38t118 -89l-118 -131q-70 73 -146 73q-101 0 -155 -66.5t-54 -161.5q0 -109 54 -174t144 -65q54 0 92.5 20.5t79.5 52.5l103 -146q-62 -49 -130.5 -80.5 t-152.5 -31.5z" />
<glyph unicode="&#xaa;" horiz-adv-x="771" d="M355 959q32 0 57 15t52 41v118q-107 -11 -148 -42t-41 -67q0 -65 80 -65zM279 790q-98 0 -157.5 63t-59.5 151q0 114 96 176.5t306 81.5q-10 95 -105 95q-43 0 -92.5 -18.5t-100.5 -45.5l-80 145q72 41 150 68t162 27q138 0 214 -79.5t76 -240.5v-407h-179l-21 74h-8 q-39 -39 -90 -64.5t-111 -25.5z" />
<glyph unicode="&#xab;" horiz-adv-x="1032" d="M394 121l-289 309v224l289 310l117 -96l-238 -326l238 -327zM798 121l-289 309v224l289 310l117 -96l-238 -326l238 -327z" />
<glyph unicode="&#xac;" d="M831 203v394h-757v224h989v-618h-232z" />
<glyph unicode="&#xad;" horiz-adv-x="712" d="M92 433v223h530v-223h-530z" />
<glyph unicode="&#xae;" horiz-adv-x="993" d="M497 669q-179 0 -303.5 121t-124.5 314q0 191 124.5 312t303.5 121q176 0 301 -121t125 -312q0 -192 -125 -313.5t-301 -121.5zM497 774q135 0 221 89t86 241q0 150 -86 239t-221 89q-136 0 -223 -89t-87 -239q0 -151 87 -240.5t223 -89.5zM445 1110h45q64 0 64 60 q0 55 -64 55h-45v-115zM322 895v423h191q76 0 125.5 -34t49.5 -108q0 -80 -75 -116l88 -165h-129l-65 129h-62v-129h-123z" />
<glyph unicode="&#xaf;" horiz-adv-x="1192" d="M279 1273v200h637v-200h-637z" />
<glyph unicode="&#xb0;" horiz-adv-x="784" d="M394 856q-129 0 -219.5 87t-90.5 223q0 135 90.5 222t219.5 87q131 0 221.5 -87t90.5 -222q0 -136 -90.5 -223t-221.5 -87zM394 1006q64 0 104 44t40 116q0 69 -40 113t-104 44q-62 0 -103 -44t-41 -113q0 -72 41 -116t103 -44z" />
<glyph unicode="&#xb1;" d="M452 340v292h-378v224h378v361h232v-361h379v-224h-379v-292h-232zM74 0v224h989v-224h-989z" />
<glyph unicode="&#xb2;" horiz-adv-x="808" d="M97 806v125q161 133 264 235t103 182q0 131 -122 131q-75 0 -153 -101l-131 120q129 172 320 172q138 0 224 -74t86 -209q0 -101 -68 -194.5t-156 -193.5h254v-193h-621z" />
<glyph unicode="&#xb3;" horiz-adv-x="808" d="M400 780q-228 0 -342 170l139 110q76 -103 179 -104q49 0 85 26.5t36 75.5q0 109 -200 109v134q78 0 123.5 24.5t45.5 77.5q0 91 -105 91q-41 0 -74 -24t-63 -60l-132 116q70 76 140.5 110t169.5 34q117 0 205 -62t88 -172q0 -123 -123 -193q64 -26 108 -76.5t44 -126.5 q0 -116 -97.5 -188t-226.5 -72z" />
<glyph unicode="&#xb4;" horiz-adv-x="1192" d="M620 1230l-156 155l332 392l213 -209z" />
<glyph unicode="&#xb5;" horiz-adv-x="1276" d="M140 -380v1447h316v-622q0 -114 32.5 -158t98.5 -44q53 0 96.5 31.5t86.5 108.5v684h318q-4 -187 -12.5 -400t-8.5 -347q0 -90 94 -90q35 0 69 13l36 -235q-34 -14 -75.5 -24t-111.5 -10q-223 0 -275 178h-8q-80 -168 -226 -167q-39 0 -73.5 9.5t-59.5 40.5 q2 -121 6 -212.5t15 -202.5h-318z" />
<glyph unicode="&#xb6;" horiz-adv-x="1367" d="M638 423q-230 0 -392 126t-162 374q0 271 161 375t385 104h94v-979h-86zM845 -172v1574h316v-1574h-316z" />
<glyph unicode="&#xb7;" horiz-adv-x="644" d="M322 491q-82 0 -136.5 57t-54.5 141q0 86 54.5 143t136.5 57t136.5 -57t54.5 -143q0 -84 -54.5 -141t-136.5 -57z" />
<glyph unicode="&#xb8;" horiz-adv-x="1192" d="M380 -513l-23 126q127 6 174 28q48 21 48 66q0 33 -34 56t-132 34l104 211h184l-61 -139q164 -39 164 -162q0 -109 -111 -162q-110 -52 -313 -58z" />
<glyph unicode="&#xb9;" horiz-adv-x="808" d="M355 806v604h-191v143q86 12 136.5 33.5t103.5 58.5h185v-839h-234z" />
<glyph unicode="&#xba;" horiz-adv-x="801" d="M400 790q-138 0 -243.5 97.5t-105.5 271.5q0 177 105.5 275.5t243.5 98.5t243.5 -98.5t105.5 -275.5q0 -174 -105.5 -271.5t-243.5 -97.5zM400 966q62 0 92.5 52.5t30.5 140.5t-30.5 143t-92.5 55t-91.5 -55t-29.5 -143t29.5 -140.5t91.5 -52.5z" />
<glyph unicode="&#xbb;" horiz-adv-x="1032" d="M234 121l-117 94l238 327l-238 326l117 96l289 -310v-224zM638 121l-117 94l238 327l-238 326l117 96l289 -310v-224z" />
<glyph unicode="&#xbc;" horiz-adv-x="1738" d="M291 564v604h-191v143q86 12 136.5 33.5t103.5 58.5h185v-839h-234zM397 -26l758 1454h182l-757 -1454h-183zM1219 338h172v88l14 251h-10l-86 -166zM1723 187h-125v-187h-207v187h-384v116l302 536h289v-501h125v-151z" />
<glyph unicode="&#xbd;" horiz-adv-x="1818" d="M291 564v604h-191v143q86 12 136.5 33.5t103.5 58.5h185v-839h-234zM365 -26l758 1454h182l-757 -1454h-183zM1106 0v125q161 133 264 235t103 182q0 131 -122 131q-75 0 -153 -101l-131 120q129 172 320 172q138 0 224 -74t86 -209q0 -101 -68 -194.5t-156 -193.5h254 v-193h-621z" />
<glyph unicode="&#xbe;" horiz-adv-x="1758" d="M394 538q-228 0 -342 170l139 110q76 -103 179 -104q49 0 85 26.5t36 75.5q0 109 -200 109v134q78 0 123.5 24.5t45.5 77.5q0 91 -105 91q-41 0 -74 -24t-63 -60l-132 116q70 76 140.5 110t169.5 34q117 0 205 -62t88 -172q0 -123 -123 -193q64 -26 108 -76.5t44 -126.5 q0 -116 -97.5 -188t-226.5 -72zM445 -26l758 1454h182l-757 -1454h-183zM1236 338h172v88l14 251h-10l-86 -166zM1740 187h-125v-187h-207v187h-384v116l302 536h289v-501h125v-151z" />
<glyph unicode="&#xbf;" horiz-adv-x="995" d="M527 695q-82 0 -137 56.5t-55 143.5q0 84 55 140.5t137 56.5t136.5 -56.5t54.5 -140.5q0 -87 -54.5 -143.5t-136.5 -56.5zM499 -400q-175 0 -292 89t-117 281q0 98 48.5 170.5t110 133.5t105.5 131.5t36 164.5h275q14 -109 -23.5 -192t-96.5 -147.5t-105 -122t-46 -116.5 q0 -67 41 -101.5t103 -34.5q59 0 105.5 28t89.5 71l174 -160q-77 -88 -180 -141.5t-228 -53.5z" />
<glyph unicode="&#xc0;" horiz-adv-x="1231" d="M495 710l-35 -129h299l-32 129q-31 105 -59 223t-55 228h-9q-26 -111 -52.5 -228.5t-56.5 -222.5zM909 0l-86 333h-427l-86 -333h-323l439 1402h380l439 -1402h-336zM630 1463l-393 255l167 205l369 -302z" />
<glyph unicode="&#xc1;" horiz-adv-x="1231" d="M495 710l-35 -129h299l-32 129q-31 105 -59 223t-55 228h-9q-26 -111 -52.5 -228.5t-56.5 -222.5zM909 0l-86 333h-427l-86 -333h-323l439 1402h380l439 -1402h-336zM588 1463l-143 158l369 302l167 -205z" />
<glyph unicode="&#xc2;" horiz-adv-x="1231" d="M495 710l-35 -129h299l-32 129q-31 105 -59 223t-55 228h-9q-26 -111 -52.5 -228.5t-56.5 -222.5zM909 0l-86 333h-427l-86 -333h-323l439 1402h380l439 -1402h-336zM244 1557l193 239h344l193 -239l-137 -84l-224 181h-8l-224 -181z" />
<glyph unicode="&#xc3;" horiz-adv-x="1231" d="M495 710l-35 -129h299l-32 129q-31 105 -59 223t-55 228h-9q-26 -111 -52.5 -228.5t-56.5 -222.5zM909 0l-86 333h-427l-86 -333h-323l439 1402h380l439 -1402h-336zM761 1488q-75 0 -127.5 31.5t-92 62.5t-74.5 31q-69 0 -80 -105l-204 14q8 164 83.5 237t190.5 73 q75 0 127.5 -31t92 -62.5t74.5 -31.5q69 0 80 105l204 -14q-8 -162 -83.5 -236t-190.5 -74z" />
<glyph unicode="&#xc4;" horiz-adv-x="1231" d="M495 710l-35 -129h299l-32 129q-31 105 -59 223t-55 228h-9q-26 -111 -52.5 -228.5t-56.5 -222.5zM909 0l-86 333h-427l-86 -333h-323l439 1402h380l439 -1402h-336zM847 1506q-66 0 -108 43t-42 107t42 107t108 43t109 -43t43 -107t-43 -107t-109 -43zM371 1506 q-66 0 -109 43t-43 107t42 107t110 43q66 0 108 -43t42 -107t-42 -107t-108 -43z" />
<glyph unicode="&#xc5;" horiz-adv-x="1231" d="M609 1498q-109 0 -177.5 58.5t-68.5 155.5q0 96 68 153.5t178 57.5q107 0 176 -57.5t69 -153.5q0 -97 -69 -155.5t-176 -58.5zM609 1617q37 0 63.5 25.5t26.5 69.5q0 43 -27 67.5t-63 24.5q-37 0 -63.5 -24.5t-26.5 -67.5q0 -44 26.5 -69.5t63.5 -25.5zM495 710l-35 -129 h299l-32 129q-31 105 -59 223t-55 228h-9q-26 -111 -52.5 -228.5t-56.5 -222.5zM909 0l-86 333h-427l-86 -333h-323l439 1402h380l439 -1402h-336z" />
<glyph unicode="&#xc6;" horiz-adv-x="1816" d="M652 765l-90 -199h269v597h-10q-43 -103 -85.5 -204t-83.5 -194zM831 0v320h-382l-146 -320h-333l666 1402h1048v-267h-537v-281h453v-265h-453v-322h558v-267h-874z" />
<glyph unicode="&#xc7;" horiz-adv-x="1250" d="M957 -293q0 -109 -111 -161.5t-313 -58.5l-24 126q127 6 174.5 27.5t47.5 66.5q0 33 -33 55.5t-132 34.5l90 184q-234 31 -395.5 211t-161.5 500q0 232 91 397t243 252t328 87q136 0 243.5 -55t177.5 -128l-167 -202q-53 49 -112.5 80.5t-134.5 31.5 q-144 0 -244.5 -120.5t-100.5 -330.5q0 -218 93 -337t247 -119q86 0 154 37t119 93l168 -197q-146 -171 -363 -200l-47 -112q163 -39 163 -162z" />
<glyph unicode="&#xc8;" horiz-adv-x="1178" d="M166 0v1402h877v-267h-561v-281h477v-265h-477v-322h583v-267h-899zM641 1463l-393 255l167 205l369 -302z" />
<glyph unicode="&#xc9;" horiz-adv-x="1178" d="M166 0v1402h877v-267h-561v-281h477v-265h-477v-322h583v-267h-899zM599 1463l-143 158l369 302l167 -205z" />
<glyph unicode="&#xca;" horiz-adv-x="1178" d="M166 0v1402h877v-267h-561v-281h477v-265h-477v-322h583v-267h-899zM255 1557l193 239h344l193 -239l-137 -84l-224 181h-8l-224 -181z" />
<glyph unicode="&#xcb;" horiz-adv-x="1178" d="M166 0v1402h877v-267h-561v-281h477v-265h-477v-322h583v-267h-899zM858 1506q-66 0 -108 43t-42 107t42 107t108 43t109 -43t43 -107t-43 -107t-109 -43zM382 1506q-66 0 -109 43t-43 107t42 107t110 43q66 0 108 -43t42 -107t-42 -107t-108 -43z" />
<glyph unicode="&#xcc;" horiz-adv-x="646" d="M166 0v1402h316v-1402h-316zM345 1463l-393 255l167 205l369 -302z" />
<glyph unicode="&#xcd;" horiz-adv-x="646" d="M166 0v1402h316v-1402h-316zM303 1463l-143 158l369 302l167 -205z" />
<glyph unicode="&#xce;" horiz-adv-x="646" d="M166 0v1402h316v-1402h-316zM-41 1557l193 239h344l193 -239l-137 -84l-224 181h-8l-224 -181z" />
<glyph unicode="&#xcf;" horiz-adv-x="646" d="M166 0v1402h316v-1402h-316zM562 1506q-66 0 -108 43t-42 107t42 107t108 43t109 -43t43 -107t-43 -107t-109 -43zM86 1506q-66 0 -109 43t-43 107t42 107t110 43q66 0 108 -43t42 -107t-42 -107t-108 -43z" />
<glyph unicode="&#xd0;" horiz-adv-x="1418" d="M632 0h-413v647h-163v143l163 10v602h396q321 0 512 -166.5t191 -527.5q0 -362 -189 -535t-497 -173zM536 256h59q179 0 288.5 100t109.5 352t-109.5 345.5t-288.5 93.5h-59v-347h268v-153h-268v-391z" />
<glyph unicode="&#xd1;" horiz-adv-x="1429" d="M166 0v1402h324l366 -696l137 -310h9q-9 111 -23.5 248.5t-14.5 262.5v495h300v-1402h-324l-366 699l-137 305h-9q11 -117 24.5 -249.5t13.5 -257.5v-497h-300zM868 1488q-77 0 -128.5 31.5t-90 62.5t-75.5 31q-69 0 -79 -105l-205 14q8 164 85 237t189 73q78 0 129 -31 t89.5 -62.5t75.5 -31.5q69 0 80 105l203 -14q-8 -162 -84.5 -236t-188.5 -74z" />
<glyph unicode="&#xd2;" horiz-adv-x="1470" d="M735 -26q-283 0 -459.5 194.5t-176.5 539.5q0 344 176.5 532t459.5 188t460 -189.5t177 -530.5q0 -345 -177 -539.5t-460 -194.5zM735 248q144 0 228 124.5t84 335.5q0 209 -83.5 328t-228.5 119q-144 0 -228 -119.5t-84 -327.5q0 -211 84 -335.5t228 -124.5zM756 1463 l-393 255l167 205l369 -302z" />
<glyph unicode="&#xd3;" horiz-adv-x="1470" d="M735 -26q-283 0 -459.5 194.5t-176.5 539.5q0 344 176.5 532t459.5 188t460 -189.5t177 -530.5q0 -345 -177 -539.5t-460 -194.5zM735 248q144 0 228 124.5t84 335.5q0 209 -83.5 328t-228.5 119q-144 0 -228 -119.5t-84 -327.5q0 -211 84 -335.5t228 -124.5zM714 1463 l-143 158l369 302l167 -205z" />
<glyph unicode="&#xd4;" horiz-adv-x="1470" d="M735 -26q-283 0 -459.5 194.5t-176.5 539.5q0 344 176.5 532t459.5 188t460 -189.5t177 -530.5q0 -345 -177 -539.5t-460 -194.5zM735 248q144 0 228 124.5t84 335.5q0 209 -83.5 328t-228.5 119q-144 0 -228 -119.5t-84 -327.5q0 -211 84 -335.5t228 -124.5zM370 1557 l193 239h344l193 -239l-137 -84l-224 181h-8l-224 -181z" />
<glyph unicode="&#xd5;" horiz-adv-x="1470" d="M735 -26q-283 0 -459.5 194.5t-176.5 539.5q0 344 176.5 532t459.5 188t460 -189.5t177 -530.5q0 -345 -177 -539.5t-460 -194.5zM735 248q144 0 228 124.5t84 335.5q0 209 -83.5 328t-228.5 119q-144 0 -228 -119.5t-84 -327.5q0 -211 84 -335.5t228 -124.5zM887 1488 q-75 0 -127.5 31.5t-92 62.5t-74.5 31q-69 0 -80 -105l-204 14q8 164 83.5 237t190.5 73q75 0 127.5 -31t92 -62.5t74.5 -31.5q69 0 80 105l204 -14q-8 -162 -83.5 -236t-190.5 -74z" />
<glyph unicode="&#xd6;" horiz-adv-x="1470" d="M735 -26q-283 0 -459.5 194.5t-176.5 539.5q0 344 176.5 532t459.5 188t460 -189.5t177 -530.5q0 -345 -177 -539.5t-460 -194.5zM735 248q144 0 228 124.5t84 335.5q0 209 -83.5 328t-228.5 119q-144 0 -228 -119.5t-84 -327.5q0 -211 84 -335.5t228 -124.5zM973 1506 q-66 0 -108 43t-42 107t42 107t108 43t109 -43t43 -107t-43 -107t-109 -43zM497 1506q-66 0 -109 43t-43 107t42 107t110 43q66 0 108 -43t42 -107t-42 -107t-108 -43z" />
<glyph unicode="&#xd7;" d="M260 240l-157 160l305 308l-305 309l157 159l308 -310l308 310l156 -159l-305 -309l305 -308l-156 -160l-308 310z" />
<glyph unicode="&#xd8;" horiz-adv-x="1470" d="M250 -88l-164 125l1170 1453l164 -127zM737 -26q-283 0 -459.5 194.5t-176.5 539.5q0 344 176.5 532t459.5 188q284 0 460.5 -189.5t176.5 -530.5q0 -345 -176.5 -539.5t-460.5 -194.5zM737 248q144 0 228 124.5t84 335.5q0 209 -83.5 328t-228.5 119 q-144 0 -227.5 -119.5t-83.5 -327.5q0 -211 83.5 -335.5t227.5 -124.5z" />
<glyph unicode="&#xd9;" horiz-adv-x="1429" d="M718 -26q-273 0 -416.5 161.5t-143.5 513.5v753h318v-785q0 -206 62 -287.5t180 -81.5q119 0 183.5 81.5t64.5 287.5v785h304v-753q0 -353 -140.5 -514t-411.5 -161zM735 1463l-393 255l167 205l369 -302z" />
<glyph unicode="&#xda;" horiz-adv-x="1429" d="M718 -26q-273 0 -416.5 161.5t-143.5 513.5v753h318v-785q0 -206 62 -287.5t180 -81.5q119 0 183.5 81.5t64.5 287.5v785h304v-753q0 -353 -140.5 -514t-411.5 -161zM693 1463l-143 158l369 302l167 -205z" />
<glyph unicode="&#xdb;" horiz-adv-x="1429" d="M718 -26q-273 0 -416.5 161.5t-143.5 513.5v753h318v-785q0 -206 62 -287.5t180 -81.5q119 0 183.5 81.5t64.5 287.5v785h304v-753q0 -353 -140.5 -514t-411.5 -161zM349 1557l193 239h344l193 -239l-137 -84l-224 181h-8l-224 -181z" />
<glyph unicode="&#xdc;" horiz-adv-x="1429" d="M718 -26q-273 0 -416.5 161.5t-143.5 513.5v753h318v-785q0 -206 62 -287.5t180 -81.5q119 0 183.5 81.5t64.5 287.5v785h304v-753q0 -353 -140.5 -514t-411.5 -161zM952 1506q-66 0 -108 43t-42 107t42 107t108 43t109 -43t43 -107t-43 -107t-109 -43zM476 1506 q-66 0 -109 43t-43 107t42 107t110 43q66 0 108 -43t42 -107t-42 -107t-108 -43z" />
<glyph unicode="&#xdd;" horiz-adv-x="1128" d="M406 0v499l-423 903h339l125 -323q31 -79 58.5 -153t56.5 -156h8q31 82 59.5 156t58.5 153l127 323h332l-425 -903v-499h-316zM542 1463l-142 158l368 302l168 -205z" />
<glyph unicode="&#xde;" horiz-adv-x="1326" d="M166 0v1402h316v-212h195q228 0 388 -98.5t160 -351.5q0 -250 -163 -362.5t-385 -112.5h-195v-265h-316zM482 517h176q259 0 258 223q0 109 -67 153.5t-191 44.5h-176v-421z" />
<glyph unicode="&#xdf;" horiz-adv-x="1358" d="M905 -26q-94 0 -170.5 26t-153.5 71l109 215q105 -78 205 -77q118 0 118 103q0 62 -57 99.5t-132 75.5t-132.5 98t-57.5 168q0 82 38 137.5t77 109.5t39 133q0 62 -36 104.5t-103 42.5q-99 0 -148 -72.5t-49 -196.5v-1011h-312v1047q0 209 125 345.5t384 136.5 q221 0 331 -111t110 -248q0 -103 -42 -165.5t-83.5 -110t-41.5 -102.5q0 -54 56.5 -87.5t131.5 -74.5t132.5 -109.5t57.5 -193.5q0 -146 -100.5 -249.5t-295.5 -103.5z" />
<glyph unicode="&#xe0;" horiz-adv-x="1132" d="M572 1230l-389 338l213 209l331 -392zM517 219q53 0 92.5 24t80.5 67v187q-168 -25 -232 -69.5t-64 -107.5q0 -101 123 -101zM408 -26q-146 0 -232 94t-86 229q0 168 142 262.5t458 126.5q-4 71 -41.5 113t-125.5 42q-66 0 -135.5 -25.5t-147.5 -71.5l-113 208 q101 62 215 101t241 39q205 0 314 -118t109 -363v-611h-257l-22 109h-9q-69 -60 -144 -97.5t-166 -37.5z" />
<glyph unicode="&#xe1;" horiz-adv-x="1132" d="M615 1230l-155 155l332 392l212 -209zM517 219q53 0 92.5 24t80.5 67v187q-168 -25 -232 -69.5t-64 -107.5q0 -101 123 -101zM408 -26q-146 0 -232 94t-86 229q0 168 142 262.5t458 126.5q-4 71 -41.5 113t-125.5 42q-66 0 -135.5 -25.5t-147.5 -71.5l-113 208 q101 62 215 101t241 39q205 0 314 -118t109 -363v-611h-257l-22 109h-9q-69 -60 -144 -97.5t-166 -37.5z" />
<glyph unicode="&#xe2;" horiz-adv-x="1132" d="M200 1318l233 282h322l232 -282l-121 -112l-269 198h-8l-269 -198zM517 219q53 0 92.5 24t80.5 67v187q-168 -25 -232 -69.5t-64 -107.5q0 -101 123 -101zM408 -26q-146 0 -232 94t-86 229q0 168 142 262.5t458 126.5q-4 71 -41.5 113t-125.5 42q-66 0 -135.5 -25.5 t-147.5 -71.5l-113 208q101 62 215 101t241 39q205 0 314 -118t109 -363v-611h-257l-22 109h-9q-69 -60 -144 -97.5t-166 -37.5z" />
<glyph unicode="&#xe3;" horiz-adv-x="1132" d="M735 1233q-69 0 -118 33q-49 35 -88 69.5t-71 34.5q-62 0 -75 -118l-198 10q8 327 267 327q69 0 118 -34q50 -35 88.5 -69.5t70.5 -34.5q62 0 75 119l198 -11q-9 -326 -267 -326zM517 219q53 0 92.5 24t80.5 67v187q-168 -25 -232 -69.5t-64 -107.5q0 -101 123 -101z M408 -26q-146 0 -232 94t-86 229q0 168 142 262.5t458 126.5q-4 71 -41.5 113t-125.5 42q-66 0 -135.5 -25.5t-147.5 -71.5l-113 208q101 62 215 101t241 39q205 0 314 -118t109 -363v-611h-257l-22 109h-9q-69 -60 -144 -97.5t-166 -37.5z" />
<glyph unicode="&#xe4;" horiz-adv-x="1132" d="M827 1223q-66 0 -109 44t-43 112q0 64 43 108t109 44q67 0 112 -44q44 -44 44 -108q0 -67 -44 -112q-45 -44 -112 -44zM359 1223q-66 0 -110 44t-44 112q0 64 44 108t110 44t109 -44t43 -108q0 -67 -43 -112q-43 -44 -109 -44zM517 219q53 0 92.5 24t80.5 67v187 q-168 -25 -232 -69.5t-64 -107.5q0 -101 123 -101zM408 -26q-146 0 -232 94t-86 229q0 168 142 262.5t458 126.5q-4 71 -41.5 113t-125.5 42q-66 0 -135.5 -25.5t-147.5 -71.5l-113 208q101 62 215 101t241 39q205 0 314 -118t109 -363v-611h-257l-22 109h-9 q-69 -60 -144 -97.5t-166 -37.5z" />
<glyph unicode="&#xe5;" horiz-adv-x="1132" d="M593 1213q-139 0 -211 65q-72 64 -72 158q0 95 72 160q73 64 211 64q140 0 212.5 -64t72.5 -160q0 -94 -73 -158q-72 -65 -212 -65zM593 1331q39 0 66 29q28 29 27 76q0 48 -27 77t-66 28q-39 0 -65 -28q-27 -29 -27 -77q0 -47 27 -76q26 -29 65 -29zM517 219 q53 0 92.5 24t80.5 67v187q-168 -25 -232 -69.5t-64 -107.5q0 -101 123 -101zM408 -26q-146 0 -232 94t-86 229q0 168 142 262.5t458 126.5q-4 71 -41.5 113t-125.5 42q-66 0 -135.5 -25.5t-147.5 -71.5l-113 208q101 62 215 101t241 39q205 0 314 -118t109 -363v-611h-257 l-22 109h-9q-69 -60 -144 -97.5t-166 -37.5z" />
<glyph unicode="&#xe6;" horiz-adv-x="1689" d="M417 -26q-146 0 -231 94t-85 227q0 170 139.5 265.5t454.5 127.5q-4 69 -41 111t-125 42q-64 0 -133 -25.5t-146 -71.5l-112 208q100 62 210 101t226 39q198 0 296 -161q67 78 144.5 119.5t171.5 41.5q212 0 318.5 -150t106.5 -368q0 -43 -4.5 -78.5t-8.5 -54.5h-615 q17 -111 87.5 -165t168.5 -54q60 0 113.5 21.5t112.5 55.5l107 -205q-177 -120 -376 -120q-121 0 -211 45t-158 121q-114 -91 -208.5 -128.5t-201.5 -37.5zM983 634h359q0 97 -39 157.5t-127 60.5q-76 0 -128.5 -53t-64.5 -165zM525 219q105 0 199 91q-24 66 -29 142l-3 45 q-158 -25 -224 -69.5t-66 -107.5q0 -101 123 -101z" />
<glyph unicode="&#xe7;" horiz-adv-x="1003" d="M604 -26q-222 0 -374 146.5t-152 412.5q0 267 166.5 413t387.5 146q99 0 175.5 -32t136.5 -81l-148 -205q-76 62 -144 63q-114 0 -182 -83t-68 -221q0 -137 68 -220t170 -83q52 0 102 22.5t91 55.5l124 -207q-80 -69 -172.5 -98t-180.5 -29zM390 -513l-25 126 q125 6 173.5 27.5t48.5 66.5q0 33 -33 55.5t-133 34.5l104 211h185l-61 -139q164 -39 164 -162q0 -109 -110.5 -161.5t-312.5 -58.5z" />
<glyph unicode="&#xe8;" horiz-adv-x="1113" d="M559 1230l-389 338l213 209l331 -392zM617 -26q-230 0 -384.5 147.5t-154.5 411.5q0 173 72 298.5t187 193t244 67.5q227 0 340 -147t113 -364q0 -89 -12 -140h-639q21 -117 96 -171.5t181 -54.5q115 0 230 71l105 -192q-175 -120 -378 -120zM380 649h385q0 88 -42 145.5 t-136 57.5q-76 0 -134 -51t-73 -152z" />
<glyph unicode="&#xe9;" horiz-adv-x="1113" d="M602 1230l-155 155l331 392l213 -209zM617 -26q-230 0 -384.5 147.5t-154.5 411.5q0 173 72 298.5t187 193t244 67.5q227 0 340 -147t113 -364q0 -89 -12 -140h-639q21 -117 96 -171.5t181 -54.5q115 0 230 71l105 -192q-175 -120 -378 -120zM380 649h385q0 88 -42 145.5 t-136 57.5q-76 0 -134 -51t-73 -152z" />
<glyph unicode="&#xea;" horiz-adv-x="1113" d="M187 1318l232 282h323l232 -282l-120 -112l-269 198h-9l-268 -198zM617 -26q-230 0 -384.5 147.5t-154.5 411.5q0 173 72 298.5t187 193t244 67.5q227 0 340 -147t113 -364q0 -89 -12 -140h-639q21 -117 96 -171.5t181 -54.5q115 0 230 71l105 -192q-175 -120 -378 -120z M380 649h385q0 88 -42 145.5t-136 57.5q-76 0 -134 -51t-73 -152z" />
<glyph unicode="&#xeb;" horiz-adv-x="1113" d="M815 1223q-66 0 -109 44t-43 112q0 64 43 108t109 44t111 -44q44 -44 44 -108q0 -67 -44 -112q-45 -44 -111 -44zM346 1223q-66 0 -111 44q-44 44 -44 112q0 64 44 108t111 44t110 -44t43 -108q0 -67 -43 -112q-43 -44 -110 -44zM617 -26q-230 0 -384.5 147.5 t-154.5 411.5q0 173 72 298.5t187 193t244 67.5q227 0 340 -147t113 -364q0 -89 -12 -140h-639q21 -117 96 -171.5t181 -54.5q115 0 230 71l105 -192q-175 -120 -378 -120zM380 649h385q0 88 -42 145.5t-136 57.5q-76 0 -134 -51t-73 -152z" />
<glyph unicode="&#xec;" horiz-adv-x="593" d="M275 1230l-389 338l213 209l331 -392zM140 0v1067h316v-1067h-316z" />
<glyph unicode="&#xed;" horiz-adv-x="593" d="M318 1230l-154 155l331 392l213 -209zM140 0v1067h316v-1067h-316z" />
<glyph unicode="&#xee;" horiz-adv-x="593" d="M-97 1318l232 282h323l232 -282l-120 -112l-269 198h-8l-269 -198zM140 0v1067h316v-1067h-316z" />
<glyph unicode="&#xef;" horiz-adv-x="593" d="M531 1223q-66 0 -110 44q-43 44 -43 112q0 64 43 108t110 44q66 0 110.5 -44t44.5 -108q0 -67 -44 -112q-45 -44 -111 -44zM62 1223q-66 0 -110 44t-44 112q0 64 44 108t110 44t110 -44q43 -44 43 -108q0 -67 -43 -112q-44 -44 -110 -44zM140 0v1067h316v-1067h-316z" />
<glyph unicode="&#xf0;" horiz-adv-x="1203" d="M587 -26q-200 0 -348.5 140t-148.5 376q0 230 134.5 359.5t302.5 129.5q62 0 122.5 -20.5t105.5 -70.5q-56 164 -183 286l-305 -152l-82 139l250 125q-82 56 -195 114l138 192q76 -39 151 -84t146 -100l308 155l82 -139l-259 -131q127 -130 208.5 -305t81.5 -416 q0 -260 -136.5 -429t-372.5 -169zM597 230q91 0 148 80t57 244q0 50 -2 98q-49 52 -101 72t-108 20q-92 0 -152.5 -62t-60.5 -192q0 -127 65.5 -193.5t153.5 -66.5z" />
<glyph unicode="&#xf1;" horiz-adv-x="1229" d="M140 0v1067h258l21 -136h9q67 64 151 112.5t191 48.5q174 0 252.5 -115t78.5 -314v-663h-316v622q0 116 -31.5 158.5t-99.5 42.5q-60 0 -103.5 -26.5t-94.5 -76.5v-720h-316zM804 1233q-69 0 -118.5 34t-88 68.5t-70.5 34.5q-62 0 -75 -118l-198 10q8 327 267 327 q69 0 118 -34.5t87.5 -69t71.5 -34.5q62 0 75 119l198 -11q-8 -326 -267 -326z" />
<glyph unicode="&#xf2;" horiz-adv-x="1192" d="M576 1230l-389 338l213 209l331 -392zM597 -26q-135 0 -254 65.5t-192 191.5t-73 302q0 177 73 302.5t192 191t254 65.5q134 0 253.5 -65.5t192.5 -191t73 -302.5q0 -176 -73 -302t-192.5 -191.5t-253.5 -65.5zM597 230q97 0 147 83t50 220q0 138 -49.5 221t-147.5 83 t-146.5 -83t-48.5 -221q0 -137 48.5 -220t146.5 -83z" />
<glyph unicode="&#xf3;" horiz-adv-x="1192" d="M620 1230l-156 155l332 392l213 -209zM597 -26q-135 0 -254 65.5t-192 191.5t-73 302q0 177 73 302.5t192 191t254 65.5q134 0 253.5 -65.5t192.5 -191t73 -302.5q0 -176 -73 -302t-192.5 -191.5t-253.5 -65.5zM597 230q97 0 147 83t50 220q0 138 -49.5 221t-147.5 83 t-146.5 -83t-48.5 -221q0 -137 48.5 -220t146.5 -83z" />
<glyph unicode="&#xf4;" horiz-adv-x="1192" d="M205 1318l232 282h322l232 -282l-121 -112l-268 198h-9l-269 -198zM597 -26q-135 0 -254 65.5t-192 191.5t-73 302q0 177 73 302.5t192 191t254 65.5q134 0 253.5 -65.5t192.5 -191t73 -302.5q0 -176 -73 -302t-192.5 -191.5t-253.5 -65.5zM597 230q97 0 147 83t50 220 q0 138 -49.5 221t-147.5 83t-146.5 -83t-48.5 -221q0 -137 48.5 -220t146.5 -83z" />
<glyph unicode="&#xf5;" horiz-adv-x="1192" d="M740 1233q-69 0 -118 33q-50 35 -88.5 69.5t-71.5 34.5q-62 0 -75 -118l-198 10q8 327 267 327q69 0 118 -34q50 -35 88.5 -69.5t70.5 -34.5q62 0 75 119l198 -11q-7 -326 -266 -326zM597 -26q-135 0 -254 65.5t-192 191.5t-73 302q0 177 73 302.5t192 191t254 65.5 q134 0 253.5 -65.5t192.5 -191t73 -302.5q0 -176 -73 -302t-192.5 -191.5t-253.5 -65.5zM597 230q97 0 147 83t50 220q0 138 -49.5 221t-147.5 83t-146.5 -83t-48.5 -221q0 -137 48.5 -220t146.5 -83z" />
<glyph unicode="&#xf6;" horiz-adv-x="1192" d="M833 1223q-67 0 -111 44q-43 44 -43 112q0 64 43 108t111 44q66 0 110 -44t44 -108q0 -67 -44 -112q-44 -44 -110 -44zM363 1223q-66 0 -110 44t-44 112q0 64 44 108t110 44t111 -44q43 -44 43 -108q0 -67 -43 -112q-45 -44 -111 -44zM597 -26q-135 0 -254 65.5 t-192 191.5t-73 302q0 177 73 302.5t192 191t254 65.5q134 0 253.5 -65.5t192.5 -191t73 -302.5q0 -176 -73 -302t-192.5 -191.5t-253.5 -65.5zM597 230q97 0 147 83t50 220q0 138 -49.5 221t-147.5 83t-146.5 -83t-48.5 -221q0 -137 48.5 -220t146.5 -83z" />
<glyph unicode="&#xf7;" d="M568 931q-73 0 -123.5 46.5t-50.5 118.5q0 74 50.5 120t123.5 46q74 0 124 -46t50 -120q0 -73 -50 -119t-124 -46zM74 597v224h989v-224h-989zM568 158q-73 0 -123.5 46t-50.5 118q0 74 50.5 120t123.5 46q74 0 124 -46t50 -120q0 -73 -50 -118.5t-124 -45.5z" />
<glyph unicode="&#xf8;" horiz-adv-x="1192" d="M383 550q0 -82 15 -144l320 400q-47 41 -121 41q-98 0 -156 -81.5t-58 -215.5zM597 219q97 0 155.5 82t58.5 216q0 84 -15 146l-322 -401q48 -43 123 -43zM597 -26q-159 0 -287 86l-93 -114l-118 91l101 125q-56 69 -89 162t-33 209q0 177 73 302.5t192 191t254 65.5 q158 0 285 -83l94 116l118 -93l-101 -125q56 -71 89.5 -164.5t33.5 -209.5q0 -176 -73 -302t-192.5 -191.5t-253.5 -65.5z" />
<glyph unicode="&#xf9;" horiz-adv-x="1221" d="M591 1230l-388 338l212 209l332 -392zM460 -26q-174 0 -252.5 115.5t-78.5 314.5v663h316v-622q0 -114 32 -158t102 -44q59 0 100 28t89 90v706h316v-1067h-259l-23 148h-6q-69 -80 -148 -127t-188 -47z" />
<glyph unicode="&#xfa;" horiz-adv-x="1221" d="M634 1230l-154 155l331 392l213 -209zM460 -26q-174 0 -252.5 115.5t-78.5 314.5v663h316v-622q0 -114 32 -158t102 -44q59 0 100 28t89 90v706h316v-1067h-259l-23 148h-6q-69 -80 -148 -127t-188 -47z" />
<glyph unicode="&#xfb;" horiz-adv-x="1221" d="M219 1318l233 282h322l232 -282l-120 -112l-269 198h-8l-269 -198zM460 -26q-174 0 -252.5 115.5t-78.5 314.5v663h316v-622q0 -114 32 -158t102 -44q59 0 100 28t89 90v706h316v-1067h-259l-23 148h-6q-69 -80 -148 -127t-188 -47z" />
<glyph unicode="&#xfc;" horiz-adv-x="1221" d="M847 1223q-66 0 -110 44q-43 44 -42 112q0 64 42 108q43 44 110 44t111 -44t44 -108q0 -67 -44 -112q-44 -44 -111 -44zM378 1223q-66 0 -110 44t-44 112q0 64 44 108t110 44t110 -44q43 -44 43 -108q0 -67 -43 -112q-44 -44 -110 -44zM460 -26q-174 0 -252.5 115.5 t-78.5 314.5v663h316v-622q0 -114 32 -158t102 -44q59 0 100 28t89 90v706h316v-1067h-259l-23 148h-6q-69 -80 -148 -127t-188 -47z" />
<glyph unicode="&#xfd;" horiz-adv-x="1120" d="M595 1230l-154 155l331 392l213 -209zM258 -417q-47 0 -82.5 6.5t-68.5 14.5l57 242q14 -5 33.5 -9.5t36.5 -4.5q80 0 123 39t64 101l16 56l-411 1039h318l153 -458q24 -73 43 -148.5t41 -154.5h8q17 75 35.5 151t38.5 152l129 458h302l-370 -1077q-75 -203 -176 -305 t-290 -102z" />
<glyph unicode="&#xfe;" horiz-adv-x="1231" d="M626 232q82 0 139.5 75.5t57.5 238.5q0 288 -185 289q-92 0 -182 -98v-436q43 -39 86 -54t84 -15zM140 -396v1904h316v-371l-9 -150q123 105 267 105q203 0 319 -147t116 -395q0 -275 -139.5 -425.5t-310.5 -150.5q-77 0 -136.5 26t-115.5 76l9 -160v-312h-316z" />
<glyph unicode="&#xff;" horiz-adv-x="1120" d="M808 1223q-66 0 -109 44t-43 112q0 64 43 108t109 44q67 0 112 -44q44 -44 44 -108q0 -67 -44 -112q-45 -44 -112 -44zM340 1223q-66 0 -111 44q-44 44 -44 112q0 64 44 108t111 44q66 0 109 -44t43 -108q0 -67 -43 -112q-43 -44 -109 -44zM258 -417q-47 0 -82.5 6.5 t-68.5 14.5l57 242q14 -5 33.5 -9.5t36.5 -4.5q80 0 123 39t64 101l16 56l-411 1039h318l153 -458q24 -73 43 -148.5t41 -154.5h8q17 75 35.5 151t38.5 152l129 458h302l-370 -1077q-75 -203 -176 -305t-290 -102z" />
<glyph unicode="&#x152;" horiz-adv-x="1872" d="M802 0q-299 0 -501 173t-202 535q0 361 204 527.5t516 166.5h919v-267h-532v-281h448v-265h-448v-322h553v-267h-957zM839 256h49v891h-49q-185 0 -300.5 -93t-115.5 -346q0 -256 115.5 -354t300.5 -98z" />
<glyph unicode="&#x153;" horiz-adv-x="1767" d="M574 -26q-204 0 -350 146.5t-146 412.5q0 267 150 413t353 146q111 0 197 -49.5t149 -137.5q136 187 337 187q211 0 318.5 -150t107.5 -368q0 -43 -4 -78.5t-9 -54.5h-617q17 -111 88 -165t168 -54q60 0 114 21.5t111 55.5l111 -205q-177 -120 -379 -120q-205 0 -344 188 q-66 -93 -151 -140.5t-204 -47.5zM1060 634h360q0 97 -39 157.5t-127 60.5q-76 0 -128.5 -53t-65.5 -165zM581 230q86 0 136.5 83t50.5 220q0 138 -50.5 221t-136.5 83t-134.5 -83t-48.5 -221q0 -137 48.5 -220t134.5 -83z" />
<glyph unicode="&#x2c6;" horiz-adv-x="1192" d="M205 1318l232 282h322l232 -282l-121 -112l-268 198h-9l-269 -198z" />
<glyph unicode="&#x2dc;" horiz-adv-x="1192" d="M740 1233q-69 0 -118 33q-50 35 -88.5 69.5t-71.5 34.5q-62 0 -75 -118l-198 10q8 327 267 327q69 0 118 -34q50 -35 88.5 -69.5t70.5 -34.5q62 0 75 119l198 -11q-7 -326 -266 -326z" />
<glyph unicode="&#x2000;" horiz-adv-x="961" />
<glyph unicode="&#x2001;" horiz-adv-x="1923" />
<glyph unicode="&#x2002;" horiz-adv-x="961" />
<glyph unicode="&#x2003;" horiz-adv-x="1923" />
<glyph unicode="&#x2004;" horiz-adv-x="641" />
<glyph unicode="&#x2005;" horiz-adv-x="480" />
<glyph unicode="&#x2006;" horiz-adv-x="320" />
<glyph unicode="&#x2007;" horiz-adv-x="320" />
<glyph unicode="&#x2008;" horiz-adv-x="240" />
<glyph unicode="&#x2009;" horiz-adv-x="384" />
<glyph unicode="&#x200a;" horiz-adv-x="106" />
<glyph unicode="&#x2010;" horiz-adv-x="712" d="M92 433v223h530v-223h-530z" />
<glyph unicode="&#x2011;" horiz-adv-x="712" d="M92 433v223h530v-223h-530z" />
<glyph unicode="&#x2012;" horiz-adv-x="712" d="M92 433v223h530v-223h-530z" />
<glyph unicode="&#x2013;" horiz-adv-x="1032" d="M92 443v202h848v-202h-848z" />
<glyph unicode="&#x2014;" horiz-adv-x="1719" d="M92 443v202h1536v-202h-1536z" />
<glyph unicode="&#x2018;" horiz-adv-x="644" d="M320 727q-101 0 -151 75.5t-50 206.5q0 310 304 460l69 -138q-193 -96 -193 -273q11 2 21 2q66 0 116 -42t50 -115q0 -82 -47 -129t-119 -47z" />
<glyph unicode="&#x2019;" horiz-adv-x="644" d="M222 757l-70 138q193 96 194 273q-8 -2 -19 -2q-70 0 -117.5 42t-47.5 115q0 80 46 127.5t119 47.5q202 0 202 -281q0 -310 -307 -460z" />
<glyph unicode="&#x201a;" horiz-adv-x="644" d="M222 -363l-70 138q193 96 194 273q-8 -2 -19 -2q-70 0 -117.5 42t-47.5 115q0 80 46 127.5t119 47.5q202 0 202 -281q0 -310 -307 -460z" />
<glyph unicode="&#x201c;" horiz-adv-x="1153" d="M320 727q-101 0 -151 75.5t-50 206.5q0 310 304 460l69 -138q-193 -96 -193 -273q11 2 21 2q66 0 116 -42t50 -115q0 -82 -47 -129t-119 -47zM829 727q-101 0 -151 75.5t-50 206.5q0 310 304 460l69 -138q-193 -96 -193 -273q11 2 21 2q66 0 116 -42t50 -115 q0 -82 -47 -129t-119 -47z" />
<glyph unicode="&#x201d;" horiz-adv-x="1153" d="M222 757l-70 138q193 96 194 273q-8 -2 -19 -2q-70 0 -117.5 42t-47.5 115q0 80 46 127.5t119 47.5q202 0 202 -281q0 -310 -307 -460zM731 757l-70 138q193 96 194 273q-8 -2 -19 -2q-70 0 -117.5 42t-47.5 115q0 80 46 127.5t119 47.5q202 0 202 -281q0 -310 -307 -460 z" />
<glyph unicode="&#x201e;" horiz-adv-x="1153" d="M222 -363l-70 138q193 96 194 273q-8 -2 -19 -2q-70 0 -117.5 42t-47.5 115q0 80 46 127.5t119 47.5q202 0 202 -281q0 -310 -307 -460zM731 -363l-70 138q193 96 194 273q-8 -2 -19 -2q-70 0 -117.5 42t-47.5 115q0 80 46 127.5t119 47.5q202 0 202 -281 q0 -310 -307 -460z" />
<glyph unicode="&#x2022;" horiz-adv-x="741" d="M370 265q-121 0 -202.5 86t-81.5 213q0 129 82 213.5t202 84.5t203 -85t83 -213q0 -127 -83 -213t-203 -86z" />
<glyph unicode="&#x2026;" horiz-adv-x="2102" d="M355 -26q-82 0 -136.5 57t-54.5 141q0 86 54.5 143t136.5 57t136.5 -57t54.5 -143q0 -84 -54.5 -141t-136.5 -57zM1069 -26q-82 0 -136.5 57t-54.5 141q0 86 54.5 143t136.5 57t136.5 -57t54.5 -143q0 -84 -54.5 -141t-136.5 -57zM1780 -26q-82 0 -136.5 57t-54.5 141 q0 86 54.5 143t136.5 57t136.5 -57t54.5 -143q0 -84 -54.5 -141t-136.5 -57z" />
<glyph unicode="&#x202f;" horiz-adv-x="384" />
<glyph unicode="&#x2039;" horiz-adv-x="627" d="M394 121l-289 309v224l289 310l117 -96l-238 -326l238 -327z" />
<glyph unicode="&#x203a;" horiz-adv-x="627" d="M234 121l-117 94l238 327l-238 326l117 96l289 -310v-224z" />
<glyph unicode="&#x2044;" horiz-adv-x="205" d="M-368 -26l758 1454h182l-757 -1454h-183z" />
<glyph unicode="&#x205f;" horiz-adv-x="480" />
<glyph unicode="&#x20ac;" d="M1116 172q-162 -197 -392 -198q-202 0 -349 124t-197 364h-133v149l117 9q-2 28 -2 55q0 29 2 56h-117v147l133 10q50 241 202.5 372t368.5 131q207 0 350 -168l-176 -169q-41 41 -85 67t-101 26q-185 0 -240 -257h460v-159h-479v-45q0 -33 2 -62h390v-162h-369 q60 -243 243 -243q112 0 198 116z" />
<glyph unicode="&#x2212;" d="M74 597v224h989v-224h-989z" />
<glyph unicode="&#x25fc;" horiz-adv-x="1063" d="M0 1065h1065v-1065h-1065v1065z" />
<glyph horiz-adv-x="0" d="M-365 1557l193 239h344l193 -239l-137 -84l-224 181h-8l-224 -181z" />
<glyph horiz-adv-x="0" d="M238 1506q-66 0 -108 43t-42 107t42 107t108 43t109 -43t43 -107t-43 -107t-109 -43zM-238 1506q-66 0 -109 43t-43 107t42 107t110 43q66 0 108 -43t42 -107t-42 -107t-108 -43z" />
<glyph horiz-adv-x="0" d="M152 1488q-75 0 -127.5 31.5t-92 62.5t-74.5 31q-69 0 -80 -105l-204 14q8 164 83.5 237t190.5 73q75 0 127.5 -31t92 -62.5t74.5 -31.5q69 0 80 105l204 -14q-8 -162 -83.5 -236t-190.5 -74z" />
<glyph horiz-adv-x="0" d="M21 1463l-393 255l167 205l369 -302z" />
<glyph horiz-adv-x="808" d="M404 -26q-150 0 -249 118.5t-99 328.5q0 211 99 327t249 116t250.5 -116t100.5 -327t-100.5 -329t-250.5 -118zM404 150q54 0 91.5 60.5t37.5 210.5t-37.5 208.5t-91.5 58.5q-53 0 -91 -58t-38 -209q0 -150 38 -210.5t91 -60.5z" />
<glyph horiz-adv-x="808" d="M288 338h172v88l14 251h-10l-86 -166zM792 187h-125v-187h-207v187h-384v116l302 536h289v-501h125v-151z" />
<glyph horiz-adv-x="808" d="M355 0v604h-191v143q86 12 136.5 33.5t103.5 58.5h185v-839h-234z" />
<glyph horiz-adv-x="0" d="M-21 1463l-143 158l369 302l167 -205z" />
<glyph horiz-adv-x="808" d="M97 0v125q161 133 264 235t103 182q0 131 -122 131q-75 0 -153 -101l-131 120q129 172 320 172q138 0 224 -74t86 -209q0 -101 -68 -194.5t-156 -193.5h254v-193h-621z" />
<glyph horiz-adv-x="808" d="M400 -26q-228 0 -342 170l139 110q76 -103 179 -104q49 0 85 26.5t36 75.5q0 109 -200 109v134q78 0 123.5 24.5t45.5 77.5q0 91 -105 91q-41 0 -74 -24t-63 -60l-132 116q70 76 140.5 110t169.5 34q117 0 205 -62t88 -172q0 -123 -123 -193q64 -26 108 -76.5t44 -126.5 q0 -116 -97.5 -188t-226.5 -72z" />
</font>
</defs>
</svg>
